<?xml version="1.0" encoding="UTF-8" standalone="no"?>
<svg
   xmlns:dc="http://purl.org/dc/elements/1.1/"
   xmlns:cc="http://creativecommons.org/ns#"
   xmlns:rdf="http://www.w3.org/1999/02/22-rdf-syntax-ns#"
   xmlns:svg="http://www.w3.org/2000/svg"
   xmlns="http://www.w3.org/2000/svg"
   viewBox="0 0 743.75 1052.5"
   height="1052.5"
   width="743.75"
   xml:space="preserve"
   version="1.1"
   id="svg2"><metadata
     id="metadata8"><rdf:RDF><cc:Work
         rdf:about=""><dc:format>image/svg+xml</dc:format><dc:type
           rdf:resource="http://purl.org/dc/dcmitype/StillImage" /></cc:Work></rdf:RDF></metadata><defs
     id="defs6"><clipPath
       id="clipPath16"
       clipPathUnits="userSpaceOnUse"><path
         style="clip-rule:evenodd"
         id="path18"
         d="m 0,0.1 595.2,0 0,841.8 L 0,841.9 0,0.1 Z" /></clipPath></defs><g
     transform="matrix(1.25,0,0,-1.25,0,1052.5)"
     id="g10"><g
       id="g12"><g
         clip-path="url(#clipPath16)"
         id="g14"><g
           id="g20"><text
             id="text22"
             style="font-variant:normal;font-weight:normal;font-size:14px;font-family:'Times New Roman';-inkscape-font-specification:TimesNewRomanPSMT;writing-mode:lr-tb;fill:#000000;fill-opacity:1;fill-rule:nonzero;stroke:none"
             transform="matrix(1,0,0,-1,103.3,772.2)"><tspan
               id="tspan24"
               y="0"
               x="0 9.7019997 16.002001 23.002001 26.502001 32.507999 39.102001 45.108002 52.598 58.799999 65.800003 73.290001 82.18 88.382004 95.872002 102.06 108.346 111.846 118.846 122.346 129.34599">Ход эксперимента 2 – </tspan></text>
</g><g
           id="g26"><text
             id="text28"
             style="font-variant:normal;font-weight:bold;font-size:14px;font-family:'Times New Roman';-inkscape-font-specification:TimesNewRomanPS-BoldMT;writing-mode:lr-tb;fill:#000000;fill-opacity:1;fill-rule:nonzero;stroke:none"
             transform="matrix(1,0,0,-1,236.2,772.2)"><tspan
               id="tspan30"
               y="0"
               x="0 10.892 17.695999 24.598 32.591999 40.473999 50.875999 58.576 64.778 72.772003 80.863998 87.150002 90.650002 98.643997 105.644 112.028 119.63 126.63 132.23 140.224 148.31599 151.81599 159.908 166.908 170.408 182.112 190.20399 198.29601 205.29601 212.29601 215.79601 224.7 235.592">Подключение нагрузки на шинах ГПП</tspan></text>
</g><g
           id="g32"><text
             id="text34"
             style="font-variant:normal;font-weight:normal;font-size:14px;font-family:'Times New Roman';-inkscape-font-specification:TimesNewRomanPSMT;writing-mode:lr-tb;fill:#000000;fill-opacity:1;fill-rule:nonzero;stroke:none"
             transform="matrix(1,0,0,-1,121.3,740)"><tspan
               id="tspan36"
               y="0"
               x="0 10.094 17.094 24.094 30.576 37.674 44.674 51.464001 54.964001 61.557999 70.952003 78.442001 85.344002 92.246002 99.736 105.938 113.428 120.918 127.316 130.81599 136.82201 143.528 149.534 157.024 163.226 170.226 177.716 186.606 192.808 200.298 206.48599 212.772">Порядок выполнения эксперимента:</tspan></text>
</g><g
           id="g38"><text
             id="text40"
             style="font-variant:normal;font-weight:normal;font-size:14px;font-family:'Times New Roman';-inkscape-font-specification:TimesNewRomanPSMT;writing-mode:lr-tb;fill:#000000;fill-opacity:1;fill-rule:nonzero;stroke:none"
             transform="matrix(1,0,0,-1,121.2,707.8)"><tspan
               id="tspan42"
               y="0"
               x="0 7">1.</tspan></text>
</g><g
           id="g44"><text
             id="text46"
             style="font-variant:normal;font-weight:normal;font-size:14px;font-family:'Times New Roman';-inkscape-font-specification:TimesNewRomanPSMT;writing-mode:lr-tb;fill:#000000;fill-opacity:1;fill-rule:nonzero;stroke:none"
             transform="matrix(1,0,0,-1,139.2,707.8)"><tspan
               id="tspan48"
               y="0"
               x="0 10.094 16.296 23.296 29.497999 36.287998 43.273998 53.48 60.284 66.290001 72.183998 78.386002 85.372002 92.862">Переключатели </tspan></text>
</g><g
           id="g50"><text
             id="text52"
             style="font-variant:normal;font-weight:normal;font-size:14px;font-family:'Times New Roman';-inkscape-font-specification:TimesNewRomanPSMT;writing-mode:lr-tb;fill:#000000;fill-opacity:1;fill-rule:nonzero;stroke:none"
             transform="matrix(1,0,0,-1,235.6,707.8)"><tspan
               id="tspan54"
               y="0"
               x="0">R</tspan></text>
</g><g
           id="g56"><text
             id="text58"
             style="font-variant:normal;font-weight:normal;font-size:14px;font-family:'Times New Roman';-inkscape-font-specification:TimesNewRomanPSMT;writing-mode:lr-tb;fill:#000000;fill-opacity:1;fill-rule:nonzero;stroke:none"
             transform="matrix(1,0,0,-1,248.5,707.8)"><tspan
               id="tspan60"
               y="0"
               x="0">,</tspan></text>
</g><g
           id="g62"><text
             id="text64"
             style="font-variant:normal;font-weight:normal;font-size:14px;font-family:'Times New Roman';-inkscape-font-specification:TimesNewRomanPSMT;writing-mode:lr-tb;fill:#000000;fill-opacity:1;fill-rule:nonzero;stroke:none"
             transform="matrix(1,0,0,-1,252,707.8)"><tspan
               id="tspan66"
               y="0"
               x="0">L</tspan></text>
</g><g
           id="g68"><text
             id="text70"
             style="font-variant:normal;font-weight:normal;font-size:14px;font-family:'Times New Roman';-inkscape-font-specification:TimesNewRomanPSMT;writing-mode:lr-tb;fill:#000000;fill-opacity:1;fill-rule:nonzero;stroke:none"
             transform="matrix(1,0,0,-1,264,707.8)"><tspan
               id="tspan72"
               y="0"
               x="0 7.4899998 13.692 17.191999 24.094 30.898001 37.981998 44.576 50.68 54.18 64.274002 72.772003 79.772003 83.272003 87.961998 94.164001 100.268 106.47 113.96 121.142 124.642 131.54401 136.23399 139.73399 147.224 153.42599 160.42599 166.71201 173.20799 179.592 185.87801 191.98199 199.57001 203.07001 209.664 213.164 220.65401 227.556 234.45799 241.26199 250.65601 256.76001 264.25 271.73999 277.94199">на блоке НТ3 (стенд 3) перевести в положение </tspan></text>
</g><g
           id="g74"><text
             id="text76"
             style="font-variant:normal;font-weight:normal;font-size:14px;font-family:'Times New Roman';-inkscape-font-specification:TimesNewRomanPSMT;writing-mode:lr-tb;fill:#000000;fill-opacity:1;fill-rule:nonzero;stroke:none"
             transform="matrix(1,0,0,-1,139.2,691.7)"><tspan
               id="tspan78"
               y="0"
               x="0 7">0;</tspan></text>
</g><g
           id="g80"><text
             id="text82"
             style="font-variant:normal;font-weight:normal;font-size:14px;font-family:'Times New Roman';-inkscape-font-specification:TimesNewRomanPSMT;writing-mode:lr-tb;fill:#000000;fill-opacity:1;fill-rule:nonzero;stroke:none"
             transform="matrix(1,0,0,-1,121.2,675.6)"><tspan
               id="tspan84"
               y="0"
               x="0 7">2.</tspan></text>
</g><g
           id="g86"><text
             id="text88"
             style="font-variant:normal;font-weight:normal;font-size:14px;font-family:'Times New Roman';-inkscape-font-specification:TimesNewRomanPSMT;writing-mode:lr-tb;fill:#000000;fill-opacity:1;fill-rule:nonzero;stroke:none"
             transform="matrix(1,0,0,-1,139.2,675.6)"><tspan
               id="tspan90"
               y="0"
               x="0 10.094 16.296 23.296 29.497999 36.287998 43.273998 53.48 60.284 66.290001 72.183998 78.386002 85.372002 91.755997">Переключатель </tspan></text>
</g><g
           id="g92"><text
             id="text94"
             style="font-variant:normal;font-weight:normal;font-size:14px;font-family:'Times New Roman';-inkscape-font-specification:TimesNewRomanPSMT;writing-mode:lr-tb;fill:#000000;fill-opacity:1;fill-rule:nonzero;stroke:none"
             transform="matrix(1,0,0,-1,234.5,675.6)"><tspan
               id="tspan96"
               y="0"
               x="0">Q</tspan></text>
</g><g
           id="g98"><text
             id="text100"
             style="font-variant:normal;font-weight:normal;font-size:14px;font-family:'Times New Roman';-inkscape-font-specification:TimesNewRomanPSMT;writing-mode:lr-tb;fill:#000000;fill-opacity:1;fill-rule:nonzero;stroke:none"
             transform="matrix(1,0,0,-1,244.6,675.6)"><tspan
               id="tspan102"
               y="0"
               x="0 7 10.5 17.99 24.191999 27.691999 34.594002 41.397999 48.397999 55.285999 58.785999 72.884003 82.18 89.264 92.764 97.370003 103.572 109.676 115.878 123.368 130.55 134.05 140.952 145.642 149.142 156.632 162.834 169.834 176.12 182.616 189 195.286 201.39 208.978 212.478 219.07201 222.57201 230.062 236.964 243.866 250.67 260.064 266.168 273.65799 281.14801 287.35001 290.85001 297.85001">8 на блок ШС2 (стенд 3) перевести в положение 1;</tspan></text>
</g><g
           id="g104"><text
             id="text106"
             style="font-variant:normal;font-weight:normal;font-size:14px;font-family:'Times New Roman';-inkscape-font-specification:TimesNewRomanPSMT;writing-mode:lr-tb;fill:#000000;fill-opacity:1;fill-rule:nonzero;stroke:none"
             transform="matrix(1,0,0,-1,121.2,659.5)"><tspan
               id="tspan108"
               y="0"
               x="0 7">3.</tspan></text>
</g><g
           id="g110"><text
             id="text112"
             style="font-variant:normal;font-weight:normal;font-size:14px;font-family:'Times New Roman';-inkscape-font-specification:TimesNewRomanPSMT;writing-mode:lr-tb;fill:#000000;fill-opacity:1;fill-rule:nonzero;stroke:none"
             transform="matrix(1,0,0,-1,139.2,659.5)"><tspan
               id="tspan114"
               y="0"
               x="0 7.6999998 13.804 19.403999 26.208 32.914001 40.403999 47.306 54.110001 60.312 63.812 70.896004 77.797997 84.797997 91.391998 97.496002 104.986 111.37 114.87 122.36 128.562 134.34399 141.14799 148.14799 153.64999 160.44 167.92999 171.42999 178.92 185.12199 192.12199 198.32401 205.114 212.10001 222.40401 229.11 235.116 241.12199 247.32401 254.31 260.70801 269.59799 277.08801">Регулируя уровень нагрузки переключателями </tspan></text>
</g><g
           id="g116"><text
             id="text118"
             style="font-variant:normal;font-weight:normal;font-size:14px;font-family:'Times New Roman';-inkscape-font-specification:TimesNewRomanPSMT;writing-mode:lr-tb;fill:#000000;fill-opacity:1;fill-rule:nonzero;stroke:none"
             transform="matrix(1,0,0,-1,419.9,659.5)"><tspan
               id="tspan120"
               y="0"
               x="0">R</tspan></text>
</g><g
           id="g122"><text
             id="text124"
             style="font-variant:normal;font-weight:normal;font-size:14px;font-family:'Times New Roman';-inkscape-font-specification:TimesNewRomanPSMT;writing-mode:lr-tb;fill:#000000;fill-opacity:1;fill-rule:nonzero;stroke:none"
             transform="matrix(1,0,0,-1,429.2,659.5)"><tspan
               id="tspan126"
               y="0"
               x="0">,</tspan></text>
</g><g
           id="g128" /><g
           id="g130"><text
             id="text132"
             style="font-variant:normal;font-weight:normal;font-size:14px;font-family:'Times New Roman';-inkscape-font-specification:TimesNewRomanPSMT;writing-mode:lr-tb;fill:#000000;fill-opacity:1;fill-rule:nonzero;stroke:none"
             transform="matrix(1,0,0,-1,436.2,659.5)"><tspan
               id="tspan134"
               y="0"
               x="0">L</tspan></text>
</g><g
           id="g136"><text
             id="text138"
             style="font-variant:normal;font-weight:normal;font-size:14px;font-family:'Times New Roman';-inkscape-font-specification:TimesNewRomanPSMT;writing-mode:lr-tb;fill:#000000;fill-opacity:1;fill-rule:nonzero;stroke:none"
             transform="matrix(1,0,0,-1,448.3,659.5)"><tspan
               id="tspan140"
               y="0"
               x="0 7.4899998 13.692 17.191999 24.094 30.898001 37.897999 44.604 50.610001 54.110001 64.204002 72.702003 79.786003">на блоке НТ3 </tspan></text>
</g><g
           id="g142"><text
             id="text144"
             style="font-variant:normal;font-weight:normal;font-size:14px;font-family:'Times New Roman';-inkscape-font-specification:TimesNewRomanPSMT;writing-mode:lr-tb;fill:#000000;fill-opacity:1;fill-rule:nonzero;stroke:none"
             transform="matrix(1,0,0,-1,139.2,643.4)"><tspan
               id="tspan146"
               y="0"
               x="0 4.6900001 10.892 16.996 23.198 30.688 37.785999 41.285999 48.285999 52.976002 56.476002 63.966 70.966003 77.966003 84.461998 90.846001 97.132004 103.236 110.824 114.324 121.814 127.218 136.024 142.226 149.226 155.42799 162.918 170.408 176.806 180.306 187.79601 193.89999 201.306 208.306 214.70399 224.308 230.412 237.90199 245.392 252.882 256.466 259.966 265.97198 272.87399 279.272 285.866 292.55801 296.05801 303.548 307.048 315.854 322.854 333.634 341.12399 348.306 354.59201 360.78 366.98199 374.47198 377.97198 384.56601">(стенд 3) провести измерения напряжений, токов и мощностей в </tspan></text>
</g><g
           id="g148"><text
             id="text150"
             style="font-variant:normal;font-weight:normal;font-size:14px;font-family:'Times New Roman';-inkscape-font-specification:TimesNewRomanPSMT;writing-mode:lr-tb;fill:#000000;fill-opacity:1;fill-rule:nonzero;stroke:none"
             transform="matrix(1,0,0,-1,139.2,627.3)"><tspan
               id="tspan152"
               y="0"
               x="0 6.9860001 14.392 21.882 29.372 36.862 40.362 47.852001 54.852001 62.341999 65.842003 73.332001 80.136002 88.830002 95.830002 106.61 114.198 117.698 125.188 132.188 139.67799 146.776 153.776 160.776 167.776 174.37 177.87 187.964 198.058 201.558 208.558 212.058 219.058 222.558 227.248 233.45 239.554 245.756 253.246 260.34399 263.84399 270.84399 275.534 279.034 282.534 292.62799 302.72198 306.22198 313.22198 316.72198 323.72198 327.22198 331.91199 338.11401 344.21799 350.42001 357.91 365.008 368.508 375.508 380.198 383.698 387.198 397.29199 407.38599">линии при помощи приборов ИП 1.2 (стенд 3), ИП 1.1 (стенд 1), ИП </tspan></text>
</g><g
           id="g154"><text
             id="text156"
             style="font-variant:normal;font-weight:normal;font-size:14px;font-family:'Times New Roman';-inkscape-font-specification:TimesNewRomanPSMT;writing-mode:lr-tb;fill:#000000;fill-opacity:1;fill-rule:nonzero;stroke:none"
             transform="matrix(1,0,0,-1,139.2,611.2)"><tspan
               id="tspan158"
               y="0"
               x="0 7 10.5 17.5 21 25.690001 31.892 37.995998 44.198002 51.688 58.785999 62.285999 69.286003 73.975998">1.1 (стенд 5).</tspan></text>
</g><g
           id="g160"><text
             id="text162"
             style="font-variant:normal;font-weight:normal;font-size:14px;font-family:'Times New Roman';-inkscape-font-specification:TimesNewRomanPSMT;writing-mode:lr-tb;fill:#000000;fill-opacity:1;fill-rule:nonzero;stroke:none"
             transform="matrix(1,0,0,-1,121.2,595.1)"><tspan
               id="tspan164"
               y="0"
               x="0 7">4.</tspan></text>
</g><g
           id="g166"><text
             id="text168"
             style="font-variant:normal;font-weight:normal;font-size:14px;font-family:'Times New Roman';-inkscape-font-specification:TimesNewRomanPSMT;writing-mode:lr-tb;fill:#000000;fill-opacity:1;fill-rule:nonzero;stroke:none"
             transform="matrix(1,0,0,-1,139.2,595.1)"><tspan
               id="tspan170"
               y="0"
               x="0 10.094 15.596 23.086 28.98 35.784 41.986 49.07 55.453999 62.944 69.944 73.444 80.933998 86.337997 95.143997 101.346 108.836 115.234 121.436 130.326 133.826 141.31599 147.51801 153.216 160.118 167.118 172.62 179.214 186.214">Изначально изменяем нагрузку </tspan></text>
</g><g
           id="g172"><text
             id="text174"
             style="font-variant:normal;font-weight:normal;font-size:14px;font-family:'Times New Roman';-inkscape-font-specification:TimesNewRomanPSMT;writing-mode:lr-tb;fill:#000000;fill-opacity:1;fill-rule:nonzero;stroke:none"
             transform="matrix(1,0,0,-1,329,595.1)"><tspan
               id="tspan176"
               y="0"
               x="0">R</tspan></text>
</g><g
           id="g178"><text
             id="text180"
             style="font-variant:normal;font-weight:normal;font-size:14px;font-family:'Times New Roman';-inkscape-font-specification:TimesNewRomanPSMT;writing-mode:lr-tb;fill:#000000;fill-opacity:1;fill-rule:nonzero;stroke:none"
             transform="matrix(1,0,0,-1,341.9,595.1)"><tspan
               id="tspan182"
               y="0"
               x="0 6.902 12.908 16.408001 23.898001 30.799999 37.702 44.506001 53.900002 60.004002 67.494003 74.984001 81.466003">от положения </tspan></text>
</g><g
           id="g184"><text
             id="text186"
             style="font-variant:normal;font-weight:normal;font-size:14px;font-family:'Times New Roman';-inkscape-font-specification:TimesNewRomanPSMT;writing-mode:lr-tb;fill:#000000;fill-opacity:1;fill-rule:nonzero;stroke:none"
             transform="matrix(1,0,0,-1,426.9,595.1)"><tspan
               id="tspan188"
               y="0"
               x="0 10.794 14.686">min</tspan></text>
</g><g
           id="g190"><text
             id="text192"
             style="font-variant:normal;font-weight:normal;font-size:14px;font-family:'Times New Roman';-inkscape-font-specification:TimesNewRomanPSMT;writing-mode:lr-tb;fill:#000000;fill-opacity:1;fill-rule:nonzero;stroke:none"
             transform="matrix(1,0,0,-1,452.2,595.1)"><tspan
               id="tspan194"
               y="0"
               x="0 4.6059999 11.606 16.296 19.796 26.893999 33.894001">(0) до </tspan></text>
</g><g
           id="g196"><text
             id="text198"
             style="font-variant:normal;font-weight:normal;font-size:14px;font-family:'Times New Roman';-inkscape-font-specification:TimesNewRomanPSMT;writing-mode:lr-tb;fill:#000000;fill-opacity:1;fill-rule:nonzero;stroke:none"
             transform="matrix(1,0,0,-1,489.6,595.1)"><tspan
               id="tspan200"
               y="0"
               x="0 10.794 17.08">max</tspan></text>
</g><g
           id="g202"><text
             id="text204"
             style="font-variant:normal;font-weight:normal;font-size:14px;font-family:'Times New Roman';-inkscape-font-specification:TimesNewRomanPSMT;writing-mode:lr-tb;fill:#000000;fill-opacity:1;fill-rule:nonzero;stroke:none"
             transform="matrix(1,0,0,-1,517.2,595.1)"><tspan
               id="tspan206"
               y="0"
               x="0 4.6900001 11.69 18.591999 23.282 26.782">(15) и</tspan></text>
</g><g
           id="g208"><text
             id="text210"
             style="font-variant:normal;font-weight:normal;font-size:14px;font-family:'Times New Roman';-inkscape-font-specification:TimesNewRomanPSMT;writing-mode:lr-tb;fill:#000000;fill-opacity:1;fill-rule:nonzero;stroke:none"
             transform="matrix(1,0,0,-1,139.2,579)"><tspan
               id="tspan212"
               y="0"
               x="0 7.0840001 13.468 19.656 25.941999 32.438 39.34 45.821999 52.023998 60.914001 64.414001 71.008003 74.508003 81.998001 88.900002 95.802002 102.606 112 118.104 125.594 133.084 140.57401">оставляем в положении </tspan></text>
</g><g
           id="g214"><text
             id="text216"
             style="font-variant:normal;font-weight:normal;font-size:14px;font-family:'Times New Roman';-inkscape-font-specification:TimesNewRomanPSMT;writing-mode:lr-tb;fill:#000000;fill-opacity:1;fill-rule:nonzero;stroke:none"
             transform="matrix(1,0,0,-1,283.4,579)"><tspan
               id="tspan218"
               y="0"
               x="0 10.794 17.08">max</tspan></text>
</g><g
           id="g220"><text
             id="text222"
             style="font-variant:normal;font-weight:normal;font-size:14px;font-family:'Times New Roman';-inkscape-font-specification:TimesNewRomanPSMT;writing-mode:lr-tb;fill:#000000;fill-opacity:1;fill-rule:nonzero;stroke:none"
             transform="matrix(1,0,0,-1,311,579)"><tspan
               id="tspan224"
               y="0"
               x="0 4.6900001 11.69 18.591999 23.282 26.782 30.282 35.868 41.874001 47.768002 53.970001 62.860001 66.360001 73.849998 79.253998 88.059998 94.262001 101.752 108.15 114.352 123.242 126.742 134.23199 140.43401 146.132 153.034 160.034 165.536 172.242 179.144">(15), затем изменяем нагрузку </tspan></text>
</g><g
           id="g226"><text
             id="text228"
             style="font-variant:normal;font-weight:normal;font-size:14px;font-family:'Times New Roman';-inkscape-font-specification:TimesNewRomanPSMT;writing-mode:lr-tb;fill:#000000;fill-opacity:1;fill-rule:nonzero;stroke:none"
             transform="matrix(1,0,0,-1,493.7,579)"><tspan
               id="tspan230"
               y="0"
               x="0">L</tspan></text>
</g><g
           id="g232"><text
             id="text234"
             style="font-variant:normal;font-weight:normal;font-size:14px;font-family:'Times New Roman';-inkscape-font-specification:TimesNewRomanPSMT;writing-mode:lr-tb;fill:#000000;fill-opacity:1;fill-rule:nonzero;stroke:none"
             transform="matrix(1,0,0,-1,505.8,579)"><tspan
               id="tspan236"
               y="0"
               x="0 6.902 12.908">от </tspan></text>
</g><g
           id="g238"><text
             id="text240"
             style="font-variant:normal;font-weight:normal;font-size:14px;font-family:'Times New Roman';-inkscape-font-specification:TimesNewRomanPSMT;writing-mode:lr-tb;fill:#000000;fill-opacity:1;fill-rule:nonzero;stroke:none"
             transform="matrix(1,0,0,-1,139.2,562.9)"><tspan
               id="tspan242"
               y="0"
               x="0 7.4899998 14.392 21.294001 28.098 37.492001 43.596001 51.085999 58.576 65.057999">положения </tspan></text>
</g><g
           id="g244"><text
             id="text246"
             style="font-variant:normal;font-weight:normal;font-size:14px;font-family:'Times New Roman';-inkscape-font-specification:TimesNewRomanPSMT;writing-mode:lr-tb;fill:#000000;fill-opacity:1;fill-rule:nonzero;stroke:none"
             transform="matrix(1,0,0,-1,207.8,562.9)"><tspan
               id="tspan248"
               y="0"
               x="0 10.794 14.686">min</tspan></text>
</g><g
           id="g250"><text
             id="text252"
             style="font-variant:normal;font-weight:normal;font-size:14px;font-family:'Times New Roman';-inkscape-font-specification:TimesNewRomanPSMT;writing-mode:lr-tb;fill:#000000;fill-opacity:1;fill-rule:nonzero;stroke:none"
             transform="matrix(1,0,0,-1,233.1,562.9)"><tspan
               id="tspan254"
               y="0"
               x="0 4.6059999 11.606 16.296 19.796 26.893999 33.894001">(0) до </tspan></text>
</g><g
           id="g256"><text
             id="text258"
             style="font-variant:normal;font-weight:normal;font-size:14px;font-family:'Times New Roman';-inkscape-font-specification:TimesNewRomanPSMT;writing-mode:lr-tb;fill:#000000;fill-opacity:1;fill-rule:nonzero;stroke:none"
             transform="matrix(1,0,0,-1,270.5,562.9)"><tspan
               id="tspan260"
               y="0"
               x="0 10.794 17.08">max</tspan></text>
</g><g
           id="g262"><text
             id="text264"
             style="font-variant:normal;font-weight:normal;font-size:14px;font-family:'Times New Roman';-inkscape-font-specification:TimesNewRomanPSMT;writing-mode:lr-tb;fill:#000000;fill-opacity:1;fill-rule:nonzero;stroke:none"
             transform="matrix(1,0,0,-1,298.1,562.9)"><tspan
               id="tspan266"
               y="0"
               x="0 4.6900001 11.69 18.591999 23.282 26.782 34.271999 37.771999 44.953999 51.338001 57.526001 63.812 70.307999 77.209999 83.608002 89.809998 98.699997 102.2 108.794 112.294 119.784 126.686 133.588 140.392 149.786 155.89 163.38 170.87 178.45799">(15) и оставляем в положении </tspan></text>
</g><g
           id="g268"><text
             id="text270"
             style="font-variant:normal;font-weight:normal;font-size:14px;font-family:'Times New Roman';-inkscape-font-specification:TimesNewRomanPSMT;writing-mode:lr-tb;fill:#000000;fill-opacity:1;fill-rule:nonzero;stroke:none"
             transform="matrix(1,0,0,-1,480.2,562.9)"><tspan
               id="tspan272"
               y="0"
               x="0 10.794 16.996">max</tspan></text>
</g><g
           id="g274"><text
             id="text276"
             style="font-variant:normal;font-weight:normal;font-size:14px;font-family:'Times New Roman';-inkscape-font-specification:TimesNewRomanPSMT;writing-mode:lr-tb;fill:#000000;fill-opacity:1;fill-rule:nonzero;stroke:none"
             transform="matrix(1,0,0,-1,507.8,562.9)"><tspan
               id="tspan278"
               y="0"
               x="0 4.6059999 11.606 18.606001 23.296">(15).</tspan></text>
</g><g
           id="g280"><text
             id="text282"
             style="font-variant:normal;font-weight:normal;font-size:14px;font-family:'Times New Roman';-inkscape-font-specification:TimesNewRomanPSMT;writing-mode:lr-tb;fill:#000000;fill-opacity:1;fill-rule:nonzero;stroke:none"
             transform="matrix(1,0,0,-1,121.2,546.8)"><tspan
               id="tspan284"
               y="0"
               x="0 7">5.</tspan></text>
</g><g
           id="g286"><text
             id="text288"
             style="font-variant:normal;font-weight:normal;font-size:14px;font-family:'Times New Roman';-inkscape-font-specification:TimesNewRomanPSMT;writing-mode:lr-tb;fill:#000000;fill-opacity:1;fill-rule:nonzero;stroke:none"
             transform="matrix(1,0,0,-1,139.2,546.8)"><tspan
               id="tspan290"
               y="0"
               x="0 10.094 17.094 20.594 28.084 35.084 41.790001 47.894001 53.396 59.598 67.087997 74.578003 80.975998 89.865997 93.365997 100.268 107.072 114.156 120.554 127.148 133.84 137.34 147.43401 157.528 161.028 168.028 171.528 178.528 182.028 186.718 192.92 199.024 205.226 212.716 219.814 223.314 230.314 235.004 238.504 242.004 252.09801 262.19199 265.69199 272.69199 276.19199 283.19199 286.69199 291.38199 297.58401 303.68799 309.89001 317.38 324.478 327.978 334.978 339.668 343.168 346.668 356.76199 366.85599 370.35599 377.35599 380.85599 387.85599">По показаниям блоков ИП 1.2 (стенд 3), ИП 1.1 (стенд 1), ИП 1.1 </tspan></text>
</g><g
           id="g292"><text
             id="text294"
             style="font-variant:normal;font-weight:normal;font-size:14px;font-family:'Times New Roman';-inkscape-font-specification:TimesNewRomanPSMT;writing-mode:lr-tb;fill:#000000;fill-opacity:1;fill-rule:nonzero;stroke:none"
             transform="matrix(1,0,0,-1,139.2,530.7)"><tspan
               id="tspan296"
               y="0"
               x="0 4.6900001 10.892 16.996 23.198 30.688 37.785999 41.285999 48.285999 52.976002 56.476002 61.978001 68.082001 75.487999 82.389999 89.292 96.781998 104.272 110.376 116.76 120.26 126.448 132.73399 139.636 146.44 153.92999 161.42 168.504 172.004 179.004 182.504 189.60201 196.588 202.98599 206.48599 215.57201 221.774 227.276 236.67 240.17 247.17 257.26401 264.26401 267.76401 271.26401 278.754 284.95599 294.64401 300.64999 306.54401 313.026 316.526 323.31601 330.806 337.806 345.29599 351.89001 358.89001">(стенд 5) заполнить таблицу 2 для фазы «А», нажать кнопку </tspan></text>
</g><g
           id="g298"><text
             id="text300"
             style="font-variant:normal;font-weight:normal;font-size:14px;font-family:'Times New Roman';-inkscape-font-specification:TimesNewRomanPSMT;writing-mode:lr-tb;fill:#000000;fill-opacity:1;fill-rule:nonzero;stroke:none"
             transform="matrix(1,0,0,-1,139.2,514.6)"><tspan
               id="tspan302"
               y="0"
               x="0 6.902 12.488 18.591999 25.997999 32.900002 39.801998 47.292 54.782001 60.886002 67.269997 70.769997 76.958 83.244003 90.146004 96.949997 104.44 111.93 119.014 126.014 132.916">«заполнить таблицу2»;</tspan></text>
</g><g
           id="g304"><text
             id="text306"
             style="font-variant:normal;font-weight:normal;font-size:10px;font-family:'Times New Roman';-inkscape-font-specification:TimesNewRomanPSMT;writing-mode:lr-tb;fill:#000000;fill-opacity:1;fill-rule:nonzero;stroke:none"
             transform="matrix(1,0,0,-1,121.2,498.5)"><tspan
               id="tspan308"
               y="0"
               x="0 5">6.</tspan></text>
</g><g
           id="g310"><text
             id="text312"
             style="font-variant:normal;font-weight:normal;font-size:14px;font-family:'Times New Roman';-inkscape-font-specification:TimesNewRomanPSMT;writing-mode:lr-tb;fill:#000000;fill-opacity:1;fill-rule:nonzero;stroke:none"
             transform="matrix(1,0,0,-1,139.2,498.5)"><tspan
               id="tspan314"
               y="0"
               x="0 10.094 17.275999 23.562 29.75 36.834 43.834 51.324001 57.428001 63.812 67.311996 73.010002 80.010002 86.211998 95.297997 102.788 109.676 113.176 118.678 124.88 131.474 138.964 145.166 152.65601 161.54601 168.63 175.01401 181.118 188.608 192.108 199.59801 205.702 213.108 220.192 226.59 236.194 242.298 249.78799 257.27802 263.67599 267.17599 274.078 280.18201 283.68201 291.172 298.07401 304.97601 312.466 319.36801 326.858 330.358 339.24799 346.24799 357.02802 364.51801 371.70001 377.98599 384.09 391.67801">Построить график зависимости напряжения от полной мощности </tspan></text>
</g><g
           id="g316"><text
             id="text318"
             style="font-variant:normal;font-weight:normal;font-size:14px;font-family:'Times New Roman';-inkscape-font-specification:TimesNewRomanPSMT;writing-mode:lr-tb;fill:#000000;fill-opacity:1;fill-rule:nonzero;stroke:none"
             transform="matrix(1,0,0,-1,139.2,482.4)"><tspan
               id="tspan320"
               y="0"
               x="0">(</tspan></text>
</g><g
           id="g322"><text
             id="text324"
             style="font-variant:normal;font-weight:normal;font-size:14px;font-family:'Times New Roman';-inkscape-font-specification:TimesNewRomanPSMT;writing-mode:lr-tb;fill:#000000;fill-opacity:1;fill-rule:nonzero;stroke:none"
             transform="matrix(1,0,0,-1,143.8,482.4)"><tspan
               id="tspan326"
               y="0"
               x="0">U</tspan></text>
</g><g
           id="g328"><text
             id="text330"
             style="font-variant:normal;font-weight:normal;font-size:8.10000038px;font-family:'Times New Roman';-inkscape-font-specification:TimesNewRomanPSMT;writing-mode:lr-tb;fill:#000000;fill-opacity:1;fill-rule:nonzero;stroke:none"
             transform="matrix(1,0,0,-1,153.9,481.2)"><tspan
               id="tspan332"
               y="0"
               x="0">л</tspan></text>
</g><g
           id="g334"><text
             id="text336"
             style="font-variant:normal;font-weight:normal;font-size:14px;font-family:'Times New Roman';-inkscape-font-specification:TimesNewRomanPSMT;writing-mode:lr-tb;fill:#000000;fill-opacity:1;fill-rule:nonzero;stroke:none"
             transform="matrix(1,0,0,-1,161.5,482.4)"><tspan
               id="tspan338"
               y="0"
               x="0 6.902 12.908">от </tspan></text>
</g><g
           id="g340"><text
             id="text342"
             style="font-variant:normal;font-weight:normal;font-size:14px;font-family:'Times New Roman';-inkscape-font-specification:TimesNewRomanPSMT;writing-mode:lr-tb;fill:#000000;fill-opacity:1;fill-rule:nonzero;stroke:none"
             transform="matrix(1,0,0,-1,177.9,482.4)"><tspan
               id="tspan344"
               y="0"
               x="0">S</tspan></text>
</g><g
           id="g346"><text
             id="text348"
             style="font-variant:normal;font-weight:normal;font-size:14px;font-family:'Times New Roman';-inkscape-font-specification:TimesNewRomanPSMT;writing-mode:lr-tb;fill:#000000;fill-opacity:1;fill-rule:nonzero;stroke:none"
             transform="matrix(1,0,0,-1,185.7,482.4)"><tspan
               id="tspan350"
               y="0"
               x="0 4.6900001 8.1899996 11.69 21.784 27.986 37.674 43.68 49.574001 55.958 59.458 66.248001 73.737999 80.737999 88.227997 94.933998 101.836 105.336 112.336 119.826 127.008 133.29401 139.48199 146.56599 153.56599 161.056 167.16 173.642 177.142 182.84 189.84 196.04201 205.12801 212.618 219.408">). Нажать кнопку «построить график»</tspan></text>
</g></g></g></g></svg>