<?xml version="1.0" encoding="UTF-8" standalone="no"?>
<!DOCTYPE svg PUBLIC "-//W3C//DTD SVG 20010904//EN" "http://www.w3.org/TR/2001/REC-SVG-20010904/DTD/svg10.dtd">
<svg version="1.0" xmlns="http://www.w3.org/2000/svg" width="1300.000000pt" height="221.000000pt" viewBox="0 0 1300.000000 221.000000" preserveAspectRatio="xMidYMid meet">
<metadata>
Created by potrace 1.12, written by Peter Selinger 2001-2015
</metadata>
<g transform="translate(0.000000,221.000000) scale(0.100000,-0.100000)" fill="#000000" stroke="none">
<path d="M4008 2203 c-22 -6 -23 -19 -3 -27 8 -3 15 -18 15 -34 0 -26 -2 -28 -34 -24 -44 5 -66 -25 -66 -88 0 -61 21 -90 66 -90 28 0 34 -4 34 -22 0 -12 -7 -30 -17 -40 -15 -17 -14 -18 33 -18 38 1 45 3 32 11 -11 6 -18 22 -18 39 0 26 4 30 29 30 39 0 61 32 61 90 0 61 -23 93 -61 88 -29 -4 -29 -4 -29 44 0 49 -3 51 -42 41z m-4 -109 c24 -24 22 -120 -3 -133 -14 -8 -22 -7 -32 6 -18 20 -17 106 0 127 16 20 16 20 35 0z m100 -62 c1 -56 -18 -89 -40 -71 -18 14 -19 120 -2 137 21 21 41 -11 42 -66z"/>
<path d="M4258 2203 c-22 -6 -23 -19 -3 -27 8 -3 15 -18 15 -34 0 -26 -2 -28 -34 -24 -44 5 -66 -25 -66 -88 0 -61 21 -90 66 -90 28 0 34 -4 34 -22 0 -12 -7 -30 -17 -40 -15 -17 -14 -18 33 -18 38 1 45 3 32 11 -11 6 -18 22 -18 39 0 26 4 30 29 30 39 0 61 32 61 90 0 61 -23 93 -61 88 -29 -4 -29 -4 -29 44 0 49 -3 51 -42 41z m-4 -109 c24 -24 22 -120 -3 -133 -14 -8 -22 -7 -32 6 -18 20 -17 106 0 127 16 20 16 20 35 0z m100 -62 c1 -56 -18 -89 -40 -71 -18 14 -19 120 -2 137 21 21 41 -11 42 -66z"/>
<path d="M8628 2203 c-22 -6 -23 -19 -3 -27 8 -3 15 -18 15 -34 0 -26 -2 -28 -34 -24 -44 5 -66 -25 -66 -88 0 -61 21 -90 66 -90 28 0 34 -4 34 -22 0 -12 -7 -30 -17 -40 -15 -17 -14 -18 33 -18 38 1 45 3 32 11 -11 6 -18 22 -18 39 0 26 4 30 29 30 39 0 61 32 61 90 0 61 -23 93 -61 88 -29 -4 -29 -4 -29 44 0 49 -3 51 -42 41z m-4 -109 c24 -24 22 -120 -3 -133 -14 -8 -22 -7 -32 6 -18 20 -17 106 0 127 16 20 16 20 35 0z m100 -62 c1 -56 -18 -89 -40 -71 -18 14 -19 120 -2 137 21 21 41 -11 42 -66z"/>
<path d="M19 2181 c18 -18 21 -33 21 -111 0 -77 -3 -93 -20 -110 l-20 -20 100 0 c88 0 103 3 121 21 27 27 23 89 -8 104 -21 11 -21 11 -2 23 23 14 25 60 5 88 -12 16 -29 20 -116 22 l-102 4 21 -21z m130 -2 c44 -16 57 -43 32 -68 -21 -21 -83 -37 -100 -26 -15 9 -14 92 2 98 20 9 32 8 66 -4z m23 -125 c20 -6 32 -37 23 -63 -7 -24 -64 -44 -99 -35 -23 6 -26 11 -26 54 0 29 5 50 13 53 11 5 53 1 89 -9z"/>
<path d="M12842 2168 c2 -18 11 -24 37 -26 51 -5 81 5 81 28 0 26 -21 25 -44 -2 l-19 -22 -15 22 c-19 29 -44 29 -40 0z"/>
<path d="M283 2102 c12 -13 17 -36 17 -72 0 -36 -5 -59 -17 -72 -15 -17 -13 -18 53 -18 76 0 94 9 94 50 0 36 -17 50 -62 50 -34 0 -38 2 -38 26 0 15 8 33 18 40 15 12 11 13 -32 14 -47 0 -48 -1 -33 -18z m98 -92 l24 -20 -24 -20 c-32 -27 -45 -21 -49 23 -4 43 12 49 49 17z"/>
<path d="M443 2102 c23 -25 23 -119 0 -144 -15 -17 -14 -18 32 -18 46 0 47 1 32 18 -24 27 -24 130 1 148 15 12 11 13 -32 14 -47 0 -48 -1 -33 -18z"/>
<path d="M553 2102 c23 -25 23 -119 0 -144 -15 -17 -14 -18 31 -18 43 0 46 1 32 16 -12 11 -16 35 -16 85 l0 69 40 0 40 0 0 -67 c0 -48 -5 -72 -17 -85 -15 -17 -14 -18 31 -18 43 0 46 1 32 16 -23 23 -22 132 2 150 14 11 2 13 -87 14 -100 0 -103 -1 -88 -18z"/>
<path d="M765 2095 c-34 -33 -35 -102 -2 -133 33 -31 90 -30 122 3 32 31 34 91 4 129 -28 36 -89 37 -124 1z m84 -11 c42 -54 13 -159 -35 -126 -34 23 -46 109 -18 136 21 22 29 20 53 -10z"/>
<path d="M973 2102 c30 -33 19 -132 -14 -132 -11 0 -19 -7 -19 -15 0 -20 46 -20 54 1 3 9 6 47 6 85 l0 69 30 0 30 0 0 -67 c0 -48 -5 -72 -17 -85 -15 -17 -14 -18 31 -18 43 0 46 1 32 16 -23 23 -22 132 2 150 14 11 5 13 -67 14 -81 0 -83 -1 -68 -18z"/>
<path d="M1143 2102 c12 -13 17 -36 17 -72 0 -36 -5 -59 -17 -72 -15 -17 -14 -18 32 -18 46 0 47 1 32 18 -10 10 -17 31 -17 45 0 25 3 27 40 27 37 0 40 -2 40 -27 0 -14 -7 -35 -17 -45 -15 -17 -14 -18 32 -18 46 0 47 1 32 18 -12 13 -17 36 -17 72 0 36 5 59 17 72 15 17 14 18 -32 18 -46 0 -47 -1 -32 -18 10 -10 17 -28 17 -40 0 -19 -6 -22 -40 -22 -34 0 -40 3 -40 22 0 12 7 30 17 40 15 17 14 18 -32 18 -46 0 -47 -1 -32 -18z"/>
<path d="M1353 2102 c12 -13 17 -36 17 -72 0 -36 -5 -59 -17 -72 -15 -17 -14 -18 33 -17 27 0 43 3 37 6 -21 8 -15 25 22 72 l35 44 0 -43 c0 -26 -7 -51 -17 -62 -15 -17 -14 -18 31 -18 43 0 46 1 32 16 -22 21 -23 139 -1 148 10 4 15 -1 15 -14 0 -11 5 -20 10 -20 6 0 10 6 10 14 0 13 20 26 41 26 5 0 9 -30 9 -67 0 -48 -5 -72 -17 -85 -15 -17 -14 -18 33 -18 38 1 45 3 32 11 -25 14 -27 165 -2 155 9 -3 20 -6 25 -6 5 0 9 -7 9 -15 0 -8 5 -15 10 -15 6 0 10 11 10 25 l0 25 -131 0 c-116 0 -130 -2 -119 -15 10 -12 6 -23 -21 -59 l-34 -44 -3 45 c-2 34 1 48 15 59 16 12 13 13 -31 14 -47 0 -48 -1 -33 -18z"/>
<path d="M1733 2102 c12 -13 17 -36 17 -72 0 -36 -5 -59 -17 -72 -15 -17 -13 -18 53 -18 76 0 94 9 94 50 0 36 -17 50 -62 50 -34 0 -38 2 -38 26 0 15 8 33 18 40 15 12 11 13 -32 14 -47 0 -48 -1 -33 -18z m98 -92 l24 -20 -24 -20 c-32 -27 -45 -21 -49 23 -4 43 12 49 49 17z"/>
<path d="M2098 2113 c-22 -6 -23 -19 -3 -27 23 -8 21 -182 -2 -208 -15 -17 -14 -18 32 -18 46 0 47 1 32 18 -10 10 -17 28 -17 40 0 19 6 22 39 22 31 0 44 6 60 26 25 32 28 100 5 132 -17 25 -71 31 -92 10 -9 -9 -12 -9 -12 0 0 12 -11 13 -42 5z m123 -62 c12 -29 -5 -87 -28 -95 -48 -19 -76 97 -31 128 25 18 44 8 59 -33z"/>
<path d="M2302 2108 c-17 -17 -15 -48 3 -48 8 0 15 6 15 14 0 7 6 19 14 25 11 9 18 8 30 -4 23 -24 21 -28 -35 -52 -49 -22 -50 -23 -47 -60 3 -35 6 -38 36 -41 18 -2 40 2 48 9 11 9 14 9 14 0 0 -16 52 -10 58 7 2 6 -3 12 -12 12 -12 0 -16 15 -18 73 l-3 72 -45 3 c-26 2 -50 -2 -58 -10z m78 -96 c0 -37 -44 -62 -59 -34 -11 21 -5 34 24 50 30 17 35 15 35 -16z"/>
<path d="M2472 2097 c-30 -31 -31 -108 -2 -137 40 -40 130 -17 130 33 0 22 -6 21 -30 -3 -25 -25 -32 -25 -61 -1 -30 24 -32 87 -4 107 20 15 45 3 45 -22 0 -8 9 -14 20 -14 23 0 27 29 8 48 -21 21 -82 14 -106 -11z"/>
<path d="M2633 2102 c10 -11 17 -35 17 -57 l0 -38 50 5 c45 5 50 3 50 -15 0 -11 -7 -29 -17 -39 -15 -17 -14 -18 32 -18 46 0 47 1 32 18 -24 27 -24 130 1 148 15 12 11 13 -32 14 -47 0 -48 -1 -33 -18 24 -26 21 -58 -5 -65 -43 -12 -63 30 -31 65 15 17 14 18 -32 18 -46 0 -47 -1 -32 -18z"/>
<path d="M2842 2097 c-30 -31 -31 -108 -2 -137 40 -40 130 -17 130 33 0 22 -6 21 -30 -3 -11 -11 -24 -20 -29 -20 -16 0 -49 34 -56 58 -6 21 -4 22 54 22 53 0 61 3 61 18 0 51 -89 71 -128 29z m69 -35 c-11 -2 -31 -2 -43 0 l-23 3 24 24 24 24 20 -24 c19 -24 19 -24 -2 -27z"/>
<path d="M2990 2095 c0 -14 5 -25 10 -25 6 0 10 6 10 14 0 13 20 26 41 26 5 0 9 -30 9 -67 0 -48 -5 -72 -17 -85 -15 -17 -14 -18 33 -18 38 1 45 3 32 11 -25 14 -27 165 -2 155 9 -3 20 -6 25 -6 5 0 9 -7 9 -15 0 -8 5 -15 10 -15 6 0 10 11 10 25 0 25 -1 25 -85 25 -84 0 -85 0 -85 -25z"/>
<path d="M3363 2102 c12 -13 17 -36 17 -72 0 -36 -5 -59 -17 -72 -15 -17 -14 -18 32 -18 47 0 48 1 31 19 -10 11 -16 31 -14 48 3 27 4 27 31 -19 24 -42 32 -48 60 -48 27 1 30 3 17 13 -8 7 -26 27 -39 46 -19 27 -22 39 -15 60 6 16 18 27 32 29 31 5 28 32 -3 32 -19 0 -29 -9 -42 -35 -9 -19 -22 -36 -30 -39 -20 -8 -16 44 5 60 15 12 11 13 -32 14 -47 0 -48 -1 -33 -18z"/>
<path d="M3565 2095 c-34 -33 -35 -102 -2 -133 33 -31 90 -30 122 3 32 31 34 91 4 129 -28 36 -89 37 -124 1z m84 -11 c42 -54 13 -159 -35 -126 -34 23 -46 109 -18 136 21 22 29 20 53 -10z"/>
<path d="M3750 2090 c0 -16 5 -30 10 -30 6 0 10 7 10 15 0 25 34 36 58 19 32 -22 28 -52 -5 -57 -26 -4 -26 -4 5 -6 17 0 32 -3 32 -5 0 -1 -5 -17 -11 -34 -13 -39 -33 -46 -72 -27 -35 18 -51 10 -23 -11 11 -8 37 -14 57 -14 49 0 79 36 79 95 0 58 -30 85 -93 85 -46 0 -47 -1 -47 -30z"/>
<path d="M4423 2102 c12 -13 17 -36 17 -72 0 -36 -5 -59 -17 -72 -15 -17 -14 -18 33 -17 27 0 43 3 37 6 -21 8 -15 25 22 72 l35 44 0 -43 c0 -26 -7 -51 -17 -62 -15 -17 -14 -18 31 -18 43 0 46 1 32 16 -23 23 -22 132 2 150 15 12 11 13 -32 14 -42 0 -47 -2 -36 -15 10 -12 6 -23 -21 -59 l-34 -44 -3 45 c-2 34 1 48 15 59 16 12 13 13 -31 14 -47 0 -48 -1 -33 -18z"/>
<path d="M4633 2102 c23 -26 23 -124 0 -143 -14 -12 -6 -15 66 -19 73 -5 85 -9 102 -30 l19 -25 0 28 c0 16 -7 35 -15 43 -22 23 -21 133 3 150 15 12 11 13 -32 14 -47 0 -48 -1 -33 -18 18 -20 24 -116 8 -140 -5 -8 -21 -12 -37 -10 -28 3 -29 4 -32 72 -2 56 0 70 15 82 16 12 13 13 -31 14 -47 0 -48 -1 -33 -18z"/>
<path d="M4843 2102 c12 -13 17 -36 17 -72 0 -36 -5 -59 -17 -72 -15 -17 -14 -18 33 -17 27 0 43 3 37 6 -21 8 -15 25 22 72 l35 44 0 -43 c0 -26 -7 -51 -17 -62 -15 -17 -14 -18 31 -18 43 0 46 1 32 16 -23 23 -22 132 2 150 15 12 11 13 -32 14 -42 0 -47 -2 -36 -15 10 -12 6 -23 -21 -59 l-34 -44 -3 45 c-2 34 1 48 15 59 16 12 13 13 -31 14 -47 0 -48 -1 -33 -18z"/>
<path d="M5052 2097 c-30 -31 -31 -108 -2 -137 40 -40 130 -17 130 33 0 22 -6 21 -30 -3 -11 -11 -24 -20 -29 -20 -16 0 -49 34 -56 58 -6 21 -4 22 54 22 53 0 61 3 61 18 0 51 -89 71 -128 29z m69 -35 c-11 -2 -31 -2 -43 0 l-23 3 24 24 24 24 20 -24 c19 -24 19 -24 -2 -27z"/>
<path d="M5223 2102 c12 -13 17 -36 17 -72 0 -36 -5 -59 -17 -72 -15 -17 -14 -18 32 -18 46 0 47 1 32 18 -10 10 -17 31 -17 45 0 25 3 27 40 27 37 0 40 -2 40 -27 0 -14 -7 -35 -17 -45 -15 -17 -14 -18 32 -18 46 0 47 1 32 18 -22 24 -23 124 -2 142 13 10 15 9 15 -9 0 -11 5 -21 10 -21 6 0 10 6 10 14 0 13 20 26 41 26 5 0 9 -30 9 -67 0 -48 -5 -72 -17 -85 -15 -17 -14 -18 33 -18 38 1 45 3 32 11 -25 14 -27 165 -2 155 9 -3 20 -6 25 -6 5 0 9 -7 9 -15 0 -8 5 -15 10 -15 6 0 10 11 10 25 l0 25 -132 0 c-126 0 -131 -1 -115 -18 10 -10 17 -28 17 -40 0 -19 -6 -22 -40 -22 -34 0 -40 3 -40 22 0 12 7 30 17 40 15 17 14 18 -32 18 -46 0 -47 -1 -32 -18z"/>
<path d="M5612 2108 c-17 -17 -15 -48 3 -48 8 0 15 6 15 14 0 7 6 19 14 25 11 9 18 8 30 -4 23 -24 21 -28 -35 -52 -49 -22 -50 -23 -47 -60 3 -35 6 -38 36 -41 18 -2 40 2 48 9 11 9 14 9 14 0 0 -16 52 -10 58 7 2 6 -3 12 -12 12 -12 0 -16 15 -18 73 l-3 72 -45 3 c-26 2 -50 -2 -58 -10z m78 -96 c0 -37 -44 -62 -59 -34 -11 21 -5 34 24 50 30 17 35 15 35 -16z"/>
<path d="M5963 2102 c12 -13 17 -36 17 -72 0 -36 -5 -59 -17 -72 -15 -17 -14 -18 32 -18 46 0 47 1 32 18 -10 10 -17 31 -17 45 0 25 3 27 40 27 37 0 40 -2 40 -27 0 -14 -7 -35 -17 -45 -15 -17 -14 -18 32 -18 46 0 47 1 32 18 -12 13 -17 36 -17 72 0 36 5 59 17 72 15 17 14 18 -32 18 -46 0 -47 -1 -32 -18 10 -10 17 -28 17 -40 0 -19 -6 -22 -40 -22 -34 0 -40 3 -40 22 0 12 7 30 17 40 15 17 14 18 -32 18 -46 0 -47 -1 -32 -18z"/>
<path d="M6182 2108 c-17 -17 -15 -48 3 -48 8 0 15 6 15 14 0 7 6 19 14 25 11 9 18 8 30 -4 23 -24 21 -28 -35 -52 -49 -22 -50 -23 -47 -60 3 -35 6 -38 36 -41 18 -2 40 2 48 9 11 9 14 9 14 0 0 -16 52 -10 58 7 2 6 -3 12 -12 12 -12 0 -16 15 -18 73 l-3 72 -45 3 c-26 2 -50 -2 -58 -10z m78 -96 c0 -37 -44 -62 -59 -34 -11 21 -5 34 24 50 30 17 35 15 35 -16z"/>
<path d="M6343 2102 c23 -25 23 -118 0 -144 -15 -17 -14 -18 31 -18 43 0 46 1 32 16 -12 11 -16 35 -16 85 0 61 2 69 19 69 30 0 51 -11 51 -26 0 -8 5 -14 10 -14 6 0 10 5 10 11 0 5 5 7 10 4 6 -3 10 -47 10 -97 0 -71 -4 -96 -17 -110 -15 -17 -14 -18 32 -18 46 0 47 1 32 18 -10 10 -17 28 -17 40 0 19 6 22 39 22 31 0 44 6 60 26 25 32 28 100 5 132 -17 25 -71 31 -92 10 -7 -7 -12 -8 -12 -2 0 7 -39 12 -102 13 -99 2 -101 1 -85 -17z m268 -51 c12 -29 -5 -87 -28 -95 -48 -19 -76 97 -31 128 25 18 44 8 59 -33z"/>
<path d="M6684 2086 c43 -63 68 -139 57 -169 -8 -19 -18 -27 -36 -27 -16 0 -25 -6 -25 -15 0 -24 47 -18 64 8 7 12 28 63 47 112 18 50 39 98 47 108 14 16 13 17 -18 17 -25 0 -31 -3 -23 -11 8 -8 7 -23 -4 -55 -8 -24 -18 -44 -22 -44 -5 0 -15 19 -24 42 -12 31 -14 45 -6 55 9 10 3 13 -34 13 l-46 0 23 -34z"/>
<path d="M6870 2095 c0 -30 4 -31 30 -5 11 11 26 17 35 14 22 -9 18 -39 -7 -57 l-23 -15 26 -10 c60 -24 28 -79 -34 -61 -41 12 -42 12 -27 -6 15 -18 101 -20 118 -3 21 21 15 66 -10 74 -19 6 -19 7 -5 16 20 11 22 49 5 66 -7 7 -34 12 -60 12 -45 0 -48 -2 -48 -25z"/>
<path d="M7033 2102 c12 -13 17 -36 17 -72 0 -36 -5 -59 -17 -72 -15 -17 -14 -18 32 -18 47 0 48 1 31 19 -10 11 -16 31 -14 48 3 27 4 27 31 -19 24 -42 32 -48 60 -48 27 1 30 3 17 13 -8 7 -26 27 -39 46 -19 27 -22 39 -15 60 6 16 18 27 32 29 31 5 28 32 -3 32 -19 0 -29 -9 -42 -35 -9 -19 -22 -36 -30 -39 -20 -8 -16 44 5 60 15 12 11 13 -32 14 -47 0 -48 -1 -33 -18z"/>
<path d="M7223 2102 c12 -13 17 -36 17 -72 0 -36 -5 -59 -17 -72 -15 -17 -14 -18 33 -17 27 0 43 3 37 6 -21 8 -15 25 22 72 l35 44 0 -43 c0 -26 -7 -51 -17 -62 -15 -17 -14 -18 31 -18 43 0 46 1 32 16 -23 23 -22 132 2 150 15 12 11 13 -32 14 -42 0 -47 -2 -36 -15 10 -12 6 -23 -21 -59 l-34 -44 -3 45 c-2 34 1 48 15 59 16 12 13 13 -31 14 -47 0 -48 -1 -33 -18z"/>
<path d="M7600 2095 c0 -14 5 -25 10 -25 6 0 10 6 10 14 0 13 20 26 41 26 5 0 9 -30 9 -67 0 -48 -5 -72 -17 -85 -15 -17 -14 -18 33 -18 38 1 45 3 32 11 -25 14 -27 165 -2 155 9 -3 20 -6 25 -6 5 0 9 -7 9 -15 0 -18 17 -20 22 -3 2 6 10 8 16 4 20 -12 16 -185 -5 -208 -15 -17 -14 -18 32 -18 46 0 47 1 32 18 -10 10 -17 28 -17 40 0 19 6 22 39 22 31 0 44 6 60 26 25 32 28 100 5 132 -17 25 -71 31 -92 10 -7 -7 -12 -8 -12 -2 0 6 -46 11 -115 13 l-115 2 0 -26z m311 -44 c12 -29 -5 -87 -28 -95 -48 -19 -76 97 -31 128 25 18 44 8 59 -33z"/>
<path d="M8002 2108 c-17 -17 -15 -48 3 -48 8 0 15 6 15 14 0 7 6 19 14 25 11 9 18 8 30 -4 23 -24 21 -28 -35 -52 -49 -22 -50 -23 -47 -60 3 -35 6 -38 36 -41 18 -2 40 2 48 9 11 9 14 9 14 0 0 -16 52 -10 58 7 2 6 -3 12 -12 12 -12 0 -16 15 -18 73 l-3 72 -45 3 c-26 2 -50 -2 -58 -10z m78 -96 c0 -37 -44 -62 -59 -34 -11 21 -5 34 24 50 30 17 35 15 35 -16z"/>
<path d="M8163 2102 c12 -13 17 -36 17 -72 0 -36 -5 -59 -17 -72 -15 -17 -14 -18 32 -18 46 0 47 1 32 18 -10 10 -17 31 -17 45 0 25 3 27 40 27 37 0 40 -2 40 -27 0 -14 -7 -35 -17 -45 -15 -17 -14 -18 32 -18 46 0 47 1 32 18 -12 13 -17 36 -17 72 0 36 5 59 17 72 15 17 14 18 -32 18 -46 0 -47 -1 -32 -18 10 -10 17 -28 17 -40 0 -19 -6 -22 -40 -22 -34 0 -40 3 -40 22 0 12 7 30 17 40 15 17 14 18 -32 18 -46 0 -47 -1 -32 -18z"/>
<path d="M8382 2097 c-30 -31 -31 -108 -2 -137 40 -40 130 -17 130 33 0 22 -6 21 -30 -3 -25 -25 -32 -25 -61 -1 -30 24 -32 87 -4 107 20 15 45 3 45 -22 0 -8 9 -14 20 -14 23 0 27 29 8 48 -21 21 -82 14 -106 -11z"/>
<path d="M8805 2095 c-34 -33 -35 -102 -2 -133 33 -31 90 -30 122 3 32 31 34 91 4 129 -28 36 -89 37 -124 1z m84 -11 c42 -54 13 -159 -35 -126 -34 23 -46 109 -18 136 21 22 29 20 53 -10z"/>
<path d="M8988 2113 c-22 -6 -23 -19 -3 -27 23 -8 21 -182 -2 -208 -15 -17 -14 -18 32 -18 46 0 47 1 32 18 -10 10 -17 28 -17 40 0 19 6 22 39 22 31 0 44 6 60 26 25 32 28 100 5 132 -17 25 -71 31 -92 10 -9 -9 -12 -9 -12 0 0 12 -11 13 -42 5z m123 -62 c12 -29 -5 -87 -28 -95 -48 -19 -76 97 -31 128 25 18 44 8 59 -33z"/>
<path d="M9173 2102 c12 -13 17 -36 17 -72 0 -36 -5 -59 -17 -72 -15 -17 -14 -18 22 -18 36 0 37 1 22 18 -11 12 -17 35 -17 68 l1 49 35 -69 c20 -38 39 -65 44 -60 4 5 20 36 34 69 l25 60 1 -49 c0 -32 -6 -56 -17 -68 -15 -17 -14 -18 32 -18 46 0 47 1 32 18 -24 27 -24 130 1 148 15 12 13 13 -18 14 -34 0 -36 -2 -60 -61 l-24 -61 -30 61 c-28 57 -32 61 -65 61 -32 0 -33 -1 -18 -18z"/>
<path d="M9442 2108 c-17 -17 -15 -48 3 -48 8 0 15 6 15 14 0 7 6 19 14 25 11 9 18 8 30 -4 23 -24 21 -28 -35 -52 -49 -22 -50 -23 -47 -60 3 -35 6 -38 36 -41 18 -2 40 2 48 9 11 9 14 9 14 0 0 -16 52 -10 58 7 2 6 -3 12 -12 12 -12 0 -16 15 -18 73 l-3 72 -45 3 c-26 2 -50 -2 -58 -10z m78 -96 c0 -37 -44 -62 -59 -34 -11 21 -5 34 24 50 30 17 35 15 35 -16z"/>
<path d="M9580 2095 c0 -14 5 -25 10 -25 6 0 10 6 10 14 0 13 20 26 41 26 5 0 9 -30 9 -67 0 -48 -5 -72 -17 -85 -15 -17 -14 -18 33 -18 38 1 45 3 32 11 -25 14 -27 165 -2 155 9 -3 20 -6 25 -6 5 0 9 -7 9 -15 0 -8 5 -15 10 -15 6 0 10 11 10 25 0 25 -1 25 -85 25 -84 0 -85 0 -85 -25z"/>
<path d="M9785 2095 c-34 -33 -35 -102 -2 -133 33 -31 90 -30 122 3 32 31 34 91 4 129 -28 36 -89 37 -124 1z m84 -11 c42 -54 13 -159 -35 -126 -34 23 -46 109 -18 136 21 22 29 20 53 -10z"/>
<path d="M9958 2113 c-22 -6 -23 -19 -3 -27 23 -8 21 -182 -2 -208 -15 -17 -14 -18 32 -18 46 0 47 1 32 18 -10 10 -17 28 -17 40 0 19 6 22 39 22 31 0 44 6 60 26 25 32 28 100 5 132 -17 25 -71 31 -92 10 -9 -9 -12 -9 -12 0 0 12 -11 13 -42 5z m123 -62 c12 -29 -5 -87 -28 -95 -48 -19 -76 97 -31 128 25 18 44 8 59 -33z"/>
<path d="M10172 2108 c-17 -17 -15 -48 3 -48 8 0 15 6 15 14 0 7 6 19 14 25 11 9 18 8 30 -4 23 -24 21 -28 -35 -52 -49 -22 -50 -23 -47 -60 3 -35 6 -38 36 -41 18 -2 40 2 48 9 11 9 14 9 14 0 0 -16 52 -10 58 7 2 6 -3 12 -12 12 -12 0 -16 15 -18 73 l-3 72 -45 3 c-26 2 -50 -2 -58 -10z m78 -96 c0 -37 -44 -62 -59 -34 -11 21 -5 34 24 50 30 17 35 15 35 -16z"/>
<path d="M10523 2102 c12 -13 17 -36 17 -72 0 -36 -5 -59 -17 -72 -15 -17 -14 -18 31 -18 43 0 46 1 32 16 -12 11 -16 35 -16 85 l0 69 40 0 40 0 0 -67 c0 -48 -5 -72 -17 -85 -15 -17 -14 -18 31 -18 43 0 46 1 32 16 -23 23 -22 132 2 150 14 11 2 13 -87 14 -100 0 -103 -1 -88 -18z"/>
<path d="M10745 2095 c-34 -33 -35 -102 -2 -133 33 -31 90 -30 122 3 32 31 34 91 4 129 -28 36 -89 37 -124 1z m84 -11 c42 -54 13 -159 -35 -126 -34 23 -46 109 -18 136 21 22 29 20 53 -10z"/>
<path d="M11132 2097 c-30 -31 -31 -108 -2 -137 40 -40 130 -17 130 33 0 22 -6 21 -30 -3 -25 -25 -32 -25 -61 -1 -30 24 -32 87 -4 107 20 15 45 3 45 -22 0 -8 9 -14 20 -14 23 0 27 29 8 48 -21 21 -82 14 -106 -11z"/>
<path d="M11313 2102 c30 -33 19 -132 -14 -132 -11 0 -19 -7 -19 -15 0 -20 46 -20 54 1 3 9 6 47 6 85 l0 69 30 0 30 0 0 -67 c0 -48 -5 -72 -17 -85 -15 -17 -14 -18 31 -18 43 0 46 1 32 16 -23 23 -22 132 2 150 14 11 5 13 -67 14 -81 0 -83 -1 -68 -18z"/>
<path d="M11492 2097 c-30 -31 -31 -108 -2 -137 40 -40 130 -17 130 33 0 22 -6 21 -30 -3 -11 -11 -24 -20 -29 -20 -16 0 -49 34 -56 58 -6 21 -4 22 54 22 53 0 61 3 61 18 0 51 -89 71 -128 29z m69 -35 c-11 -2 -31 -2 -43 0 l-23 3 24 24 24 24 20 -24 c19 -24 19 -24 -2 -27z"/>
<path d="M11670 2110 c0 -5 4 -10 9 -10 28 0 11 -113 -20 -133 -13 -8 -19 -23 -19 -46 l0 -34 26 28 c22 24 31 27 71 22 33 -3 52 -12 64 -28 l19 -24 0 31 c0 17 -7 37 -15 44 -21 18 -21 123 1 141 14 11 19 10 34 -8 9 -12 29 -50 44 -85 22 -52 25 -69 17 -91 -8 -19 -17 -27 -36 -27 -16 0 -25 -6 -25 -15 0 -24 47 -18 64 8 7 12 28 63 47 112 18 50 39 98 47 108 14 16 13 17 -18 17 -25 0 -31 -3 -23 -11 8 -8 7 -23 -4 -55 -8 -24 -18 -44 -22 -44 -5 0 -15 19 -24 42 -12 31 -14 45 -6 55 10 11 -10 13 -110 13 -74 0 -121 -4 -121 -10z m90 -64 c0 -84 -5 -96 -42 -96 -25 0 -29 3 -23 18 5 9 10 45 13 80 4 57 6 62 28 62 23 0 24 -3 24 -64z"/>
<path d="M12033 2102 c12 -13 17 -36 17 -72 0 -36 -5 -59 -17 -72 -15 -17 -14 -18 31 -18 43 0 46 1 32 16 -9 8 -16 29 -16 45 0 22 5 29 20 29 13 0 20 -7 20 -19 0 -10 9 -30 21 -45 17 -21 29 -26 65 -26 61 0 94 32 94 90 0 56 -34 90 -90 90 -43 0 -90 -33 -90 -65 0 -8 -9 -15 -20 -15 -26 0 -28 47 -2 66 15 12 11 13 -32 14 -47 0 -48 -1 -33 -18z m199 -12 c29 -22 42 -69 29 -104 -11 -27 -31 -37 -59 -29 -44 11 -64 112 -27 139 24 18 28 18 57 -6z"/>
<path d="M12333 2102 c23 -26 23 -124 0 -143 -14 -12 1 -15 111 -19 121 -5 128 -6 146 -30 l20 -25 0 31 c0 17 -7 37 -15 44 -23 19 -21 128 3 146 15 12 11 13 -32 14 -47 0 -48 -1 -33 -18 12 -13 17 -36 17 -73 0 -65 -9 -82 -41 -77 -22 3 -24 8 -27 67 -2 49 1 68 14 82 17 18 15 19 -31 19 -46 0 -47 -1 -32 -18 12 -13 17 -36 17 -73 0 -65 -9 -82 -41 -77 -22 3 -24 8 -27 72 -2 56 0 70 15 82 16 12 13 13 -31 14 -47 0 -48 -1 -33 -18z"/>
<path d="M12642 2097 c-30 -31 -31 -108 -2 -137 40 -40 130 -17 130 33 0 22 -6 21 -30 -3 -11 -11 -24 -20 -29 -20 -16 0 -49 34 -56 58 -6 21 -4 22 54 22 53 0 61 3 61 18 0 51 -89 71 -128 29z m69 -35 c-11 -2 -31 -2 -43 0 l-23 3 24 24 24 24 20 -24 c19 -24 19 -24 -2 -27z"/>
<path d="M12813 2102 c12 -13 17 -36 17 -72 0 -36 -5 -59 -17 -72 -15 -17 -14 -18 33 -17 27 0 43 3 37 6 -21 8 -15 25 22 72 l35 44 0 -43 c0 -26 -7 -51 -17 -62 -15 -17 -14 -18 31 -18 43 0 46 1 32 16 -23 23 -22 132 2 150 15 12 11 13 -32 14 -42 0 -47 -2 -36 -15 10 -12 6 -23 -21 -59 l-34 -44 -3 45 c-2 34 1 48 15 59 16 12 13 13 -31 14 -47 0 -48 -1 -33 -18z"/>
<path d="M108 1753 c-22 -6 -23 -19 -3 -27 8 -3 15 -18 15 -34 0 -26 -2 -28 -34 -24 -44 5 -66 -25 -66 -88 0 -61 21 -90 66 -90 28 0 34 -4 34 -22 0 -12 -7 -30 -17 -40 -15 -17 -14 -18 33 -18 38 1 45 3 32 11 -11 6 -18 22 -18 39 0 26 4 30 29 30 39 0 61 32 61 90 0 61 -23 93 -61 88 -29 -4 -29 -4 -29 44 0 49 -3 51 -42 41z m-4 -109 c24 -24 22 -120 -3 -133 -14 -8 -22 -7 -32 6 -18 20 -17 106 0 127 16 20 16 20 35 0z m100 -62 c1 -56 -18 -89 -40 -71 -18 14 -19 120 -2 137 21 21 41 -11 42 -66z"/>
<path d="M295 1645 c-34 -33 -35 -102 -2 -133 33 -31 90 -30 122 3 32 31 34 91 4 129 -28 36 -89 37 -124 1z m84 -11 c42 -54 13 -159 -35 -126 -34 23 -46 109 -18 136 21 22 29 20 53 -10z"/>
<path d="M468 1663 c-22 -6 -23 -19 -3 -27 23 -8 21 -182 -2 -208 -15 -17 -14 -18 32 -18 46 0 47 1 32 18 -10 10 -17 28 -17 40 0 19 6 22 39 22 31 0 44 6 60 26 25 32 28 100 5 132 -17 25 -71 31 -92 10 -9 -9 -12 -9 -12 0 0 12 -11 13 -42 5z m123 -62 c12 -29 -5 -87 -28 -95 -48 -19 -76 97 -31 128 25 18 44 8 59 -33z"/>
<path d="M663 1652 c12 -13 17 -36 17 -72 0 -36 -5 -59 -17 -72 -15 -17 -14 -18 22 -18 36 0 37 1 22 18 -11 12 -17 35 -17 68 l1 49 35 -69 c20 -38 39 -65 44 -60 4 5 20 36 34 69 l25 60 1 -49 c0 -32 -6 -56 -17 -68 -15 -17 -14 -18 32 -18 46 0 47 1 32 18 -23 25 -24 137 -2 146 18 6 43 -30 75 -109 26 -63 16 -105 -25 -105 -16 0 -25 -6 -25 -15 0 -24 47 -18 64 8 7 12 28 63 47 112 18 50 39 98 47 108 14 16 13 17 -18 17 -25 0 -31 -3 -23 -11 8 -8 7 -23 -4 -55 -8 -24 -18 -44 -22 -44 -5 0 -15 19 -24 42 -12 31 -14 45 -6 55 9 11 -2 13 -62 13 l-74 0 -25 -61 -24 -61 -30 61 c-28 57 -32 61 -65 61 -32 0 -33 -1 -18 -18z"/>
<path d="M1123 1652 c30 -33 19 -132 -14 -132 -11 0 -19 -7 -19 -15 0 -20 46 -20 54 1 3 9 6 47 6 85 l0 69 30 0 30 0 0 -67 c0 -48 -5 -72 -17 -85 -15 -17 -14 -18 31 -18 43 0 46 1 32 16 -23 23 -22 132 2 150 14 11 5 13 -67 14 -81 0 -83 -1 -68 -18z"/>
<path d="M1312 1647 c-30 -31 -31 -108 -2 -137 40 -40 130 -17 130 33 0 22 -6 21 -30 -3 -11 -11 -24 -20 -29 -20 -16 0 -49 34 -56 58 -6 21 -4 22 54 22 53 0 61 3 61 18 0 51 -89 71 -128 29z m69 -35 c-11 -2 -31 -2 -43 0 l-23 3 24 24 24 24 20 -24 c19 -24 19 -24 -2 -27z"/>
<path d="M1490 1655 c0 -8 7 -15 15 -15 8 0 15 7 15 15 0 8 -7 15 -15 15 -8 0 -15 -7 -15 -15z"/>
<path d="M1490 1505 c0 -8 7 -15 15 -15 8 0 15 7 15 15 0 8 -7 15 -15 15 -8 0 -15 -7 -15 -15z"/>
<path d="M988 1278 c21 -10 22 -17 22 -120 0 -103 -1 -109 -22 -118 -17 -6 -5 -9 47 -9 52 0 64 3 48 9 -22 9 -23 15 -23 118 0 103 1 110 23 120 18 9 9 11 -48 11 -57 0 -66 -2 -47 -11z"/>
<path d="M1157 1132 c-10 -10 -17 -27 -16 -38 0 -17 1 -17 16 4 29 42 81 17 69 -33 -4 -15 -25 -46 -46 -69 -22 -24 -40 -46 -40 -50 0 -3 29 -6 65 -6 36 0 65 4 65 9 0 5 3 18 6 28 6 15 4 16 -7 6 -7 -7 -28 -13 -47 -13 l-33 0 35 44 c59 71 46 136 -27 136 -13 0 -31 -8 -40 -18z"/>
<path d="M78 1033 c-12 -14 -17 -53 -20 -175 -4 -148 -4 -158 14 -158 14 0 18 8 18 40 l0 40 45 0 c33 0 50 6 65 22 26 29 27 87 0 121 -13 16 -16 28 -10 32 16 10 12 62 -6 79 -21 22 -87 21 -106 -1z m82 -23 c13 -25 1 -60 -21 -60 -11 0 -19 -4 -19 -10 0 -5 9 -10 21 -10 27 0 54 -61 41 -98 -11 -33 -54 -51 -76 -32 -22 18 -23 186 -1 217 17 24 40 21 55 -7z"/>
<path d="M360 910 c0 -6 38 -10 95 -10 57 0 95 4 95 10 0 6 -38 10 -95 10 -57 0 -95 -4 -95 -10z"/>
<path d="M680 880 c0 -7 158 -10 455 -10 297 0 455 3 455 10 0 7 -158 10 -455 10 -297 0 -455 -3 -455 -10z"/>
<path d="M360 840 c0 -6 38 -10 95 -10 57 0 95 4 95 10 0 6 -38 10 -95 10 -57 0 -95 -4 -95 -10z"/>
<path d="M738 728 c21 -10 22 -17 22 -120 0 -103 -1 -109 -22 -118 -17 -6 -5 -9 47 -9 52 0 64 3 48 9 -22 9 -23 15 -23 118 0 103 1 110 23 120 18 9 9 11 -48 11 -57 0 -66 -2 -47 -11z"/>
<path d="M897 572 c-10 -10 -17 -27 -16 -38 0 -17 1 -17 16 4 29 42 81 17 69 -33 -4 -15 -25 -46 -46 -69 -22 -24 -40 -46 -40 -50 0 -3 29 -6 65 -6 36 0 65 4 65 9 0 5 3 18 6 28 6 15 4 16 -7 6 -7 -7 -28 -13 -47 -13 l-33 0 35 44 c59 71 46 136 -27 136 -13 0 -31 -8 -40 -18z"/>
<path d="M1060 511 c0 -5 4 -11 10 -13 6 -2 4 -22 -5 -52 -19 -61 -19 -66 0 -66 8 0 17 14 21 35 4 26 11 35 26 35 16 0 18 -5 12 -35 -5 -31 -4 -35 14 -35 23 0 42 22 25 27 -7 3 -6 19 3 50 17 58 17 63 0 63 -8 0 -17 -13 -21 -30 -4 -20 -13 -30 -26 -30 -15 0 -17 5 -12 30 5 27 3 30 -21 30 -14 0 -26 -4 -26 -9z"/>
<path d="M1206 493 c-22 -22 -26 -34 -24 -67 3 -40 4 -41 45 -44 36 -3 47 1 68 24 27 29 34 81 13 102 -22 22 -73 14 -102 -15z m84 3 c9 -12 8 -23 -6 -51 -21 -45 -51 -63 -71 -43 -17 17 -5 56 27 88 24 24 33 25 50 6z"/>
<path d="M1365 511 c-3 -6 -1 -11 4 -11 6 0 11 -8 11 -19 0 -32 -22 -81 -36 -81 -8 0 -14 -4 -14 -10 0 -5 9 -10 19 -10 14 0 23 12 34 43 l14 42 7 -42 c5 -27 13 -43 22 -43 8 0 14 3 14 8 0 4 10 18 21 32 l20 25 -6 -32 c-5 -26 -3 -33 8 -33 24 0 47 11 47 22 0 6 -6 8 -14 5 -13 -5 -13 0 0 41 18 60 18 72 -1 72 -8 0 -30 -24 -48 -52 l-32 -53 -5 50 c-5 45 -8 50 -32 53 -14 2 -29 -2 -33 -7z"/>
<path d="M0 241 c0 -5 7 -11 15 -15 22 -8 21 -123 -2 -148 -15 -17 -14 -18 28 -18 35 1 40 3 27 11 -15 8 -18 24 -18 89 l0 80 45 0 45 0 0 -72 c0 -52 -4 -76 -17 -90 -15 -17 -14 -18 28 -18 35 1 40 3 27 11 -25 14 -27 159 -3 159 8 0 15 5 15 10 0 6 -38 10 -95 10 -52 0 -95 -4 -95 -9z"/>
<path d="M4185 241 c-47 -7 -65 -34 -65 -99 0 -61 14 -82 54 -82 41 0 66 26 66 68 0 42 -25 65 -67 60 -48 -6 -36 14 17 27 24 6 45 16 48 23 2 7 0 11 -5 11 -4 -1 -26 -5 -48 -8z m20 -81 c12 -19 8 -72 -5 -80 -31 -19 -68 28 -55 70 7 21 49 28 60 10z"/>
<path d="M4912 238 c-7 -7 -12 -19 -12 -27 0 -12 3 -12 12 -3 7 7 22 12 35 12 30 0 31 -32 1 -53 l-23 -15 28 -11 c19 -8 27 -17 27 -36 0 -26 -5 -28 -52 -25 -16 1 -28 -3 -28 -9 0 -19 75 -13 93 7 18 20 23 77 8 86 -4 3 -6 17 -3 31 2 14 -1 32 -8 40 -15 18 -61 20 -78 3z"/>
<path d="M5132 238 c-17 -17 -15 -53 3 -68 14 -12 14 -15 0 -31 -10 -10 -15 -30 -13 -46 3 -24 8 -28 36 -31 18 -2 40 2 48 9 18 15 18 63 -1 79 -13 11 -13 14 0 27 31 31 11 73 -35 73 -14 0 -31 -5 -38 -12z m58 -27 c0 -27 -15 -34 -34 -15 -19 19 -12 34 15 34 12 0 19 -7 19 -19z m-12 -83 c15 -15 16 -45 1 -54 -18 -10 -42 21 -34 45 7 24 16 26 33 9z"/>
<path d="M226 174 c-18 -18 -21 -66 -6 -95 13 -24 72 -26 94 -3 21 20 21 78 0 98 -8 9 -28 16 -44 16 -16 0 -36 -7 -44 -16z m71 -31 c13 -51 -5 -80 -38 -62 -40 21 -35 89 6 89 18 0 26 -7 32 -27z"/>
<path d="M360 185 c0 -2 5 -15 11 -29 14 -30 4 -76 -16 -76 -8 0 -15 -5 -15 -11 0 -6 10 -9 23 -7 19 3 22 10 25 61 3 49 6 57 22 57 17 0 20 -7 20 -41 0 -22 -5 -49 -10 -60 -10 -17 -7 -19 22 -19 25 0 29 3 20 12 -7 7 -12 31 -12 55 0 64 28 59 62 -11 24 -49 25 -55 12 -75 -8 -11 -22 -21 -30 -21 -8 0 -14 -4 -14 -10 0 -16 36 -11 52 8 8 9 25 45 38 80 12 34 27 65 31 68 16 10 9 24 -11 24 -14 0 -20 -7 -21 -22 0 -13 -4 -32 -8 -43 -7 -18 -9 -18 -23 10 -8 17 -13 36 -11 43 4 9 -17 12 -81 12 -47 0 -86 -2 -86 -5z"/>
<path d="M620 188 c0 -2 7 -21 14 -43 13 -36 17 -40 45 -37 34 4 36 0 21 -29 -10 -17 -7 -19 22 -19 25 0 29 3 20 12 -14 14 -16 98 -2 98 6 0 10 5 10 10 0 6 -14 10 -31 10 -24 0 -30 -4 -25 -15 3 -8 9 -21 12 -29 6 -14 -22 -30 -37 -20 -12 7 -11 44 1 44 6 0 10 5 10 10 0 6 -13 10 -30 10 -16 0 -30 -1 -30 -2z"/>
<path d="M782 178 c-17 -17 -15 -93 2 -107 20 -17 67 -10 80 11 15 25 -1 35 -19 12 -15 -19 -15 -18 -35 5 -29 34 -25 41 20 41 26 0 40 5 40 13 0 21 -22 37 -50 37 -14 0 -31 -5 -38 -12z m48 -18 c0 -5 -9 -10 -21 -10 -11 0 -17 5 -14 10 3 6 13 10 21 10 8 0 14 -4 14 -10z"/>
<path d="M895 173 c15 -34 17 -71 6 -92 -11 -19 -9 -21 13 -21 23 0 25 3 20 30 -6 28 -5 30 25 30 31 0 43 -21 21 -35 -20 -12 -9 -25 22 -25 25 0 29 3 20 12 -14 14 -16 98 -2 98 6 0 10 5 10 10 0 6 -14 10 -31 10 -21 0 -29 -4 -26 -12 20 -49 20 -48 -12 -48 -24 0 -31 4 -31 20 0 11 5 20 10 20 6 0 10 5 10 10 0 6 -14 10 -31 10 -26 0 -30 -3 -24 -17z"/>
<path d="M1045 173 c15 -34 17 -71 6 -92 -11 -19 -9 -21 13 -21 23 0 25 3 20 30 -6 28 -5 30 25 30 31 0 43 -21 21 -35 -20 -12 -9 -25 22 -25 25 0 29 3 20 12 -14 14 -16 98 -2 98 6 0 10 5 10 10 0 6 -14 10 -31 10 -21 0 -29 -4 -26 -12 20 -49 20 -48 -12 -48 -24 0 -31 4 -31 20 0 11 5 20 10 20 6 0 10 5 10 10 0 6 -14 10 -31 10 -26 0 -30 -3 -24 -17z"/>
<path d="M1195 173 c15 -34 17 -71 5 -92 -11 -22 -10 -22 42 -19 52 3 53 4 53 33 0 27 -4 30 -32 33 -25 2 -33 8 -33 23 0 10 5 19 10 19 6 0 10 5 10 10 0 6 -14 10 -31 10 -26 0 -30 -3 -24 -17z m75 -79 c0 -8 -2 -14 -4 -14 -2 0 -11 -3 -20 -6 -11 -4 -16 0 -16 13 0 11 3 22 6 26 10 9 34 -4 34 -19z"/>
<path d="M1305 173 c16 -38 17 -54 7 -83 -11 -29 -10 -30 21 -30 24 0 28 3 19 12 -14 14 -16 98 -2 98 6 0 10 5 10 10 0 6 -14 10 -31 10 -26 0 -30 -3 -24 -17z"/>
<path d="M1382 178 c-17 -17 -15 -93 2 -107 20 -17 67 -10 80 11 15 25 -1 35 -19 12 -15 -19 -15 -18 -35 5 -29 34 -25 41 20 41 26 0 40 5 40 13 0 21 -22 37 -50 37 -14 0 -31 -5 -38 -12z m48 -18 c0 -5 -9 -10 -21 -10 -11 0 -17 5 -14 10 3 6 13 10 21 10 8 0 14 -4 14 -10z"/>
<path d="M1570 171 c0 -12 5 -21 10 -21 6 0 10 5 10 10 0 6 7 10 15 10 18 0 20 -21 3 -38 -9 -9 -7 -13 5 -18 20 -7 22 -30 5 -37 -7 -2 -24 0 -36 5 -18 6 -23 5 -20 -4 3 -7 23 -14 46 -16 45 -3 61 12 47 46 -4 9 -8 31 -9 47 -1 27 -5 30 -38 33 -33 3 -38 0 -38 -17z"/>
<path d="M1685 173 c15 -34 17 -71 6 -92 -11 -19 -9 -21 13 -21 23 0 25 3 20 30 -6 28 -5 30 25 30 31 0 43 -21 21 -35 -20 -12 -9 -25 22 -25 25 0 29 3 20 12 -14 14 -16 98 -2 98 6 0 10 5 10 10 0 6 -14 10 -31 10 -21 0 -29 -4 -26 -12 20 -49 20 -48 -12 -48 -24 0 -31 4 -31 20 0 11 5 20 10 20 6 0 10 5 10 10 0 6 -14 10 -31 10 -26 0 -30 -3 -24 -17z"/>
<path d="M1834 176 c-3 -8 -4 -23 -1 -33 4 -16 6 -15 12 5 4 12 15 22 26 22 29 0 23 -23 -11 -42 -21 -12 -30 -25 -30 -42 0 -24 3 -26 50 -25 49 2 73 14 52 28 -6 3 -12 27 -14 51 -3 44 -4 45 -41 48 -26 2 -39 -1 -43 -12z m66 -71 c0 -8 -9 -19 -19 -24 -25 -14 -38 14 -13 28 24 14 32 13 32 -4z"/>
<path d="M1940 188 c0 -2 7 -21 14 -43 13 -36 17 -40 45 -37 34 4 36 0 21 -29 -10 -17 -7 -19 22 -19 25 0 29 3 20 12 -14 14 -16 98 -2 98 6 0 10 5 10 10 0 6 -14 10 -31 10 -24 0 -30 -4 -25 -15 3 -8 9 -21 12 -29 6 -14 -22 -30 -37 -20 -12 7 -11 44 1 44 6 0 10 5 10 10 0 6 -13 10 -30 10 -16 0 -30 -1 -30 -2z"/>
<path d="M2102 178 c-17 -17 -15 -93 2 -107 20 -17 67 -10 80 11 15 25 -1 35 -19 12 -15 -19 -15 -18 -35 5 -29 34 -25 41 20 41 26 0 40 5 40 13 0 21 -22 37 -50 37 -14 0 -31 -5 -38 -12z m48 -18 c0 -5 -9 -10 -21 -10 -11 0 -17 5 -14 10 3 6 13 10 21 10 8 0 14 -4 14 -10z"/>
<path d="M2215 173 c15 -34 17 -71 6 -92 -11 -19 -9 -21 13 -21 23 0 25 3 20 30 -6 28 -5 30 25 30 31 0 43 -21 21 -35 -20 -12 -9 -25 22 -25 25 0 29 3 20 12 -14 14 -16 98 -2 98 6 0 10 5 10 10 0 6 -14 10 -31 10 -21 0 -29 -4 -26 -12 20 -49 20 -48 -12 -48 -24 0 -31 4 -31 20 0 11 5 20 10 20 6 0 10 5 10 10 0 6 -14 10 -31 10 -26 0 -30 -3 -24 -17z"/>
<path d="M2360 181 c0 -6 5 -13 10 -16 13 -8 13 -61 0 -86 -9 -16 -7 -19 15 -19 14 0 25 6 25 13 0 6 11 26 25 42 l24 30 1 -27 c0 -15 -4 -30 -10 -33 -23 -14 -7 -25 38 -25 41 0 50 4 74 32 20 24 28 28 28 16 0 -9 -4 -20 -10 -23 -20 -12 -9 -25 22 -25 25 0 29 3 20 12 -14 14 -16 98 -2 98 6 0 10 5 10 11 0 6 -21 9 -52 7 -47 -3 -53 -6 -56 -27 -2 -13 2 -27 9 -32 10 -6 9 -13 -5 -34 -9 -14 -23 -24 -29 -22 -15 5 -22 97 -8 97 6 0 11 5 11 10 0 6 -14 10 -31 10 -22 0 -30 -4 -26 -13 3 -8 -5 -27 -19 -43 l-23 -29 -1 33 c0 17 5 32 10 32 6 0 10 5 10 10 0 6 -13 10 -30 10 -16 0 -30 -4 -30 -9z m230 -31 c0 -23 -4 -24 -31 -9 -23 12 -16 29 12 29 12 0 19 -7 19 -20z"/>
<path d="M2710 171 c0 -12 5 -21 10 -21 6 0 10 5 10 10 0 6 7 10 15 10 18 0 20 -21 3 -38 -9 -9 -7 -13 5 -18 20 -7 22 -30 5 -37 -7 -2 -24 0 -36 5 -18 6 -23 5 -20 -4 3 -7 23 -14 46 -16 45 -3 61 12 47 46 -4 9 -8 31 -9 47 -1 27 -5 30 -38 33 -33 3 -38 0 -38 -17z"/>
<path d="M2824 176 c-3 -8 -4 -23 -1 -33 4 -16 6 -15 12 5 4 12 15 22 26 22 29 0 23 -23 -11 -42 -21 -12 -30 -25 -30 -42 0 -24 3 -26 50 -25 49 2 73 14 52 28 -6 3 -12 27 -14 51 -3 44 -4 45 -41 48 -26 2 -39 -1 -43 -12z m66 -71 c0 -8 -9 -19 -19 -24 -25 -14 -38 14 -13 28 24 14 32 13 32 -4z"/>
<path d="M2945 173 c15 -34 17 -71 6 -92 -11 -19 -9 -21 13 -21 23 0 25 3 20 30 -6 28 -5 30 25 30 31 0 43 -21 21 -35 -20 -12 -9 -25 22 -25 25 0 29 3 20 12 -14 14 -16 98 -2 98 6 0 10 5 10 10 0 6 -14 10 -31 10 -21 0 -29 -4 -26 -12 20 -49 20 -48 -12 -48 -24 0 -31 4 -31 20 0 11 5 20 10 20 6 0 10 5 10 10 0 6 -14 10 -31 10 -26 0 -30 -3 -24 -17z"/>
<path d="M3102 178 c-17 -17 -15 -93 2 -107 20 -17 67 -10 80 11 15 25 -1 35 -19 12 -15 -19 -15 -18 -35 5 -29 34 -25 41 20 41 26 0 40 5 40 13 0 21 -22 37 -50 37 -14 0 -31 -5 -38 -12z m48 -18 c0 -5 -9 -10 -21 -10 -11 0 -17 5 -14 10 3 6 13 10 21 10 8 0 14 -4 14 -10z"/>
<path d="M3220 171 c-15 -28 -12 -87 4 -100 30 -25 109 10 82 36 -4 4 -12 0 -17 -10 -6 -9 -14 -17 -19 -17 -18 0 -42 48 -35 70 8 24 40 27 49 3 5 -12 10 -13 18 -5 20 20 1 42 -36 42 -25 0 -38 -6 -46 -19z"/>
<path d="M3330 175 c0 -18 5 -18 31 -5 17 10 19 7 19 -34 0 -25 -4 -48 -10 -51 -20 -12 -9 -25 22 -25 25 0 29 3 20 12 -7 7 -12 34 -12 60 0 45 1 48 19 38 26 -13 31 -13 31 5 0 12 -13 15 -60 15 -47 0 -60 -3 -60 -15z"/>
<path d="M3460 181 c0 -6 5 -13 10 -16 13 -8 13 -61 0 -86 -9 -16 -7 -19 15 -19 14 0 25 6 25 13 0 6 11 26 25 42 l24 30 1 -27 c0 -15 -4 -30 -10 -33 -20 -12 -9 -25 22 -25 25 0 29 3 20 12 -14 14 -16 98 -2 98 6 0 10 5 10 10 0 6 -14 10 -31 10 -22 0 -30 -4 -26 -13 3 -8 -5 -27 -19 -43 l-23 -29 -1 33 c0 17 5 32 10 32 6 0 10 5 10 10 0 6 -13 10 -30 10 -16 0 -30 -4 -30 -9z"/>
<path d="M3665 173 c15 -34 17 -71 5 -92 -11 -22 -10 -22 47 -19 55 3 58 4 61 31 2 15 0 27 -5 27 -4 0 -8 15 -8 33 0 32 0 32 -54 35 -48 3 -53 1 -46 -15z m73 -22 c-2 -9 -11 -17 -21 -19 -12 -3 -17 3 -17 21 0 20 4 24 20 20 12 -3 20 -12 18 -22z m12 -56 c0 -17 -31 -28 -43 -16 -5 5 -7 16 -4 25 7 17 47 10 47 -9z"/>
<path d="M3860 175 c0 -18 5 -18 31 -5 17 10 19 7 19 -34 0 -25 -4 -48 -10 -51 -20 -12 -9 -25 22 -25 25 0 29 3 20 12 -7 7 -12 34 -12 60 0 45 1 48 19 38 26 -13 31 -13 31 5 0 12 -13 15 -60 15 -47 0 -60 -3 -60 -15z"/>
<path d="M3994 176 c-3 -8 -4 -23 -1 -33 4 -16 6 -15 12 5 4 12 15 22 26 22 29 0 23 -23 -11 -42 -21 -12 -30 -25 -30 -42 0 -24 3 -26 50 -25 49 2 73 14 52 28 -6 3 -12 27 -14 51 -3 44 -4 45 -41 48 -26 2 -39 -1 -43 -12z m66 -71 c0 -8 -9 -19 -19 -24 -25 -14 -38 14 -13 28 24 14 32 13 32 -4z"/>
<path d="M4270 185 c0 -2 5 -15 11 -29 14 -30 4 -76 -16 -76 -8 0 -15 -5 -15 -11 0 -6 10 -9 23 -7 19 3 22 10 25 61 3 49 6 57 22 57 17 0 20 -7 20 -41 0 -22 -5 -49 -10 -60 -10 -17 -7 -19 22 -19 25 0 29 3 20 12 -14 14 -16 98 -2 98 6 0 10 5 10 10 0 6 -25 10 -55 10 -30 0 -55 -2 -55 -5z"/>
<path d="M4400 181 c0 -6 5 -13 10 -16 13 -8 13 -61 0 -86 -9 -16 -7 -19 15 -19 14 0 25 6 25 13 0 6 11 26 25 42 l24 30 1 -27 c0 -15 -4 -30 -10 -33 -20 -12 -9 -25 22 -25 25 0 29 3 20 12 -14 14 -16 98 -2 98 6 0 10 5 10 10 0 6 -14 10 -31 10 -22 0 -30 -4 -26 -13 3 -8 -5 -27 -19 -43 l-23 -29 -1 33 c0 17 5 32 10 32 6 0 10 5 10 10 0 6 -13 10 -30 10 -16 0 -30 -4 -30 -9z"/>
<path d="M4555 173 c15 -34 17 -71 6 -92 -11 -20 -10 -21 38 -21 31 0 55 -6 65 -15 8 -8 17 -15 20 -15 10 0 6 39 -4 45 -5 3 -10 26 -10 51 0 61 19 57 52 -10 24 -49 25 -55 12 -75 -8 -11 -22 -21 -30 -21 -8 0 -14 -4 -14 -10 0 -16 36 -11 52 8 8 9 25 45 38 80 12 34 27 65 31 68 16 10 9 24 -11 24 -14 0 -20 -7 -21 -22 0 -13 -4 -32 -8 -43 -7 -18 -9 -18 -23 10 -8 17 -13 36 -11 43 3 9 -11 12 -52 12 -51 0 -56 -2 -49 -17 4 -10 8 -36 8 -58 1 -36 -1 -40 -24 -40 -23 0 -25 4 -28 48 -2 28 1 47 7 47 6 0 11 5 11 10 0 6 -14 10 -31 10 -26 0 -30 -3 -24 -17z"/>
<path d="M5050 70 c0 -5 5 -10 10 -10 6 0 10 5 10 10 0 6 -4 10 -10 10 -5 0 -10 -4 -10 -10z"/>
</g>
</svg>