<?xml version="1.0" encoding="UTF-8" standalone="no"?>
<!DOCTYPE svg PUBLIC "-//W3C//DTD SVG 20010904//EN" "http://www.w3.org/TR/2001/REC-SVG-20010904/DTD/svg10.dtd">
<svg version="1.0" xmlns="http://www.w3.org/2000/svg" width="1286.000000pt" height="228.000000pt" viewBox="0 0 1286.000000 228.000000" preserveAspectRatio="xMidYMid meet">
<metadata>
Created by potrace 1.12, written by Peter Selinger 2001-2015
</metadata>
<g transform="translate(0.000000,228.000000) scale(0.100000,-0.100000)" fill="#000000" stroke="none">
<path d="M4807 2270 c-20 -4 -49 -17 -62 -30 -49 -46 -83 -188 -53 -218 17 -17 74 -15 104 4 32 22 54 64 54 107 0 42 -15 57 -60 57 -20 0 -41 -5 -48 -12 -7 -7 -12 -8 -12 -2 0 18 33 41 70 49 48 10 70 23 70 40 0 16 -5 17 -63 5z m-14 -145 c-9 -49 -43 -109 -55 -97 -11 11 15 116 35 140 15 19 27 -5 20 -43z"/>
<path d="M120 2259 c-61 -24 -100 -85 -100 -154 0 -64 33 -95 102 -95 53 0 102 20 111 45 8 19 9 19 -38 -5 -51 -26 -61 -25 -91 6 -22 21 -25 31 -19 62 16 85 82 155 125 132 12 -6 25 -22 30 -36 5 -13 14 -24 19 -24 7 0 21 45 21 71 0 12 -129 10 -160 -2z"/>
<path d="M10992 2248 c4 -32 66 -38 93 -8 19 21 13 42 -7 22 -15 -15 -48 -16 -48 -2 0 6 -9 10 -21 10 -15 0 -20 -5 -17 -22z"/>
<path d="M11915 2246 c-47 -47 -26 -100 56 -142 39 -19 50 -30 47 -46 -8 -53 -80 -44 -101 12 -17 44 -27 37 -27 -17 l0 -48 62 -3 c68 -3 103 13 118 53 16 42 -6 83 -59 110 -56 28 -74 47 -65 69 14 35 67 14 101 -40 10 -16 12 -13 12 26 l1 46 -60 2 c-53 2 -64 -1 -85 -22z"/>
<path d="M12216 2262 c-2 -4 -23 -55 -46 -112 -23 -58 -49 -113 -57 -122 -15 -17 -13 -18 28 -18 37 1 41 3 28 13 -12 9 -14 18 -8 35 7 18 16 22 48 22 32 0 41 -4 47 -22 4 -15 1 -25 -12 -35 -15 -11 5 -13 133 -13 l151 0 7 36 c8 43 2 52 -20 30 -9 -9 -33 -16 -53 -16 l-36 0 46 44 c56 54 69 96 41 135 -14 18 -31 27 -55 29 -29 3 -40 -2 -62 -28 -14 -17 -26 -36 -26 -41 0 -14 16 -11 30 6 19 22 49 18 61 -9 13 -29 -8 -74 -65 -136 -47 -53 -48 -52 -111 98 -44 104 -56 124 -69 104z m-3 -160 c-33 -5 -35 -1 -22 38 l12 33 18 -34 17 -34 -25 -3z"/>
<path d="M332 2176 c-34 -18 -62 -66 -62 -106 0 -45 15 -60 58 -60 67 0 122 55 122 122 0 19 -5 39 -12 46 -16 16 -77 15 -106 -2z m61 -13 c8 -14 -20 -103 -38 -123 -28 -31 -38 -3 -21 54 19 62 45 93 59 69z"/>
<path d="M484 2162 c4 -15 0 -50 -9 -77 -20 -69 -19 -75 13 -75 25 0 31 6 40 39 11 36 50 96 58 89 2 -2 -3 -26 -11 -53 -8 -26 -15 -54 -15 -62 0 -21 64 -16 85 7 20 23 13 39 -9 21 -11 -9 -10 1 5 48 10 34 16 68 13 76 -9 23 -52 18 -80 -10 l-24 -24 6 24 c6 24 4 25 -36 25 -40 0 -41 -1 -36 -28z"/>
<path d="M742 2176 c-34 -18 -62 -66 -62 -106 0 -45 15 -60 58 -60 67 0 122 55 122 122 0 19 -5 39 -12 46 -16 16 -77 15 -106 -2z m61 -13 c8 -14 -20 -103 -38 -123 -28 -31 -38 -3 -21 54 19 62 45 93 59 69z"/>
<path d="M938 2175 c-49 -27 -77 -122 -46 -153 19 -19 83 -14 109 7 29 23 19 39 -16 23 -19 -9 -27 -8 -40 4 -8 9 -15 20 -15 25 0 23 30 78 48 88 17 9 19 7 14 -14 -4 -22 -1 -25 22 -25 24 0 27 4 24 28 -3 23 -8 27 -38 29 -19 2 -47 -4 -62 -12z"/>
<path d="M1064 2162 c4 -15 0 -50 -9 -77 -20 -69 -19 -75 14 -75 23 0 30 5 36 28 8 33 55 116 62 109 2 -3 -3 -29 -11 -58 -22 -72 -21 -79 13 -79 25 0 30 5 36 32 8 33 53 113 60 106 3 -2 -2 -28 -10 -58 -8 -30 -15 -61 -15 -67 0 -21 65 -16 85 7 20 23 13 39 -9 21 -11 -9 -10 1 5 48 10 34 16 68 13 76 -9 23 -45 18 -77 -12 -17 -16 -27 -23 -24 -16 12 20 -4 43 -30 43 -13 0 -35 -12 -49 -27 l-26 -28 7 28 c7 26 6 27 -35 27 -40 0 -41 -1 -36 -28z"/>
<path d="M1396 2160 c-26 -32 -40 -80 -34 -121 3 -27 40 -38 64 -19 10 9 14 9 14 1 0 -18 65 -13 83 7 21 23 22 36 2 28 -18 -7 -18 -4 0 64 8 30 15 58 15 63 0 4 -27 7 -59 7 -54 0 -62 -3 -85 -30z m74 -7 c-1 -27 -37 -103 -50 -103 -12 0 -5 35 16 88 14 34 34 43 34 15z"/>
<path d="M1602 2175 c-45 -32 -69 -124 -40 -153 15 -15 72 -16 99 -2 23 13 26 65 4 78 -13 7 -11 10 10 20 21 10 26 18 23 40 -3 23 -8 27 -38 30 -20 1 -45 -4 -58 -13z m51 -25 c-6 -24 -33 -49 -33 -31 0 18 19 51 29 51 5 0 7 -9 4 -20z m-31 -95 c-2 -14 -8 -25 -13 -25 -10 0 -11 7 -3 37 8 31 23 20 16 -12z"/>
<path d="M1761 2172 c9 -15 8 -30 -5 -69 -15 -45 -19 -50 -41 -45 -21 4 -25 1 -25 -22 0 -21 5 -26 25 -26 28 0 44 26 65 105 13 49 24 65 46 65 8 0 6 -23 -7 -75 -11 -42 -17 -80 -14 -85 11 -17 61 -11 80 10 20 23 13 39 -9 21 -11 -10 -11 2 5 61 10 40 19 74 19 76 0 1 -34 2 -75 2 -70 0 -74 -1 -64 -18z"/>
<path d="M1974 2171 c-18 -11 -39 -30 -48 -42 -19 -27 -21 -90 -4 -107 19 -19 90 -14 118 8 32 24 20 36 -21 21 -27 -9 -36 -9 -47 3 -18 18 -7 36 21 36 12 0 37 9 55 20 25 15 32 27 32 50 0 28 -2 30 -37 30 -21 0 -52 -9 -69 -19z m45 -23 c-7 -13 -17 -26 -23 -30 -22 -15 -26 -7 -11 22 9 17 22 30 31 30 12 0 13 -4 3 -22z"/>
<path d="M2126 2181 c-4 -5 -3 -16 0 -25 3 -8 -1 -39 -10 -70 -21 -72 -21 -76 12 -76 25 0 29 5 40 45 7 27 18 45 26 45 12 0 12 -7 5 -35 -6 -19 -7 -40 -4 -45 11 -17 61 -11 80 10 20 23 13 39 -9 21 -11 -10 -11 2 5 61 10 40 19 74 19 76 0 1 -13 2 -30 2 -26 0 -31 -5 -40 -40 -6 -22 -17 -40 -25 -40 -11 0 -12 7 -4 32 5 18 9 36 9 40 0 11 -68 10 -74 -1z"/>
<path d="M2324 2164 c4 -15 0 -47 -9 -75 -9 -28 -14 -56 -11 -64 8 -22 46 -18 73 7 l23 21 0 -21 c0 -18 6 -22 33 -22 21 0 41 8 52 20 21 23 13 39 -9 21 -12 -10 -11 1 4 56 25 86 25 83 -8 83 -25 0 -31 -7 -51 -54 -26 -65 -57 -98 -45 -50 4 16 11 39 15 52 17 44 12 52 -32 52 -39 0 -41 -1 -35 -26z"/>
<path d="M2584 2171 c-18 -11 -39 -30 -48 -42 -19 -27 -21 -90 -4 -107 19 -19 90 -14 118 8 32 24 20 36 -21 21 -27 -9 -36 -9 -47 3 -18 18 -7 36 21 36 12 0 37 9 55 20 25 15 32 27 32 50 0 28 -2 30 -37 30 -21 0 -52 -9 -69 -19z m45 -23 c-7 -13 -17 -26 -23 -30 -22 -15 -26 -7 -11 22 9 17 22 30 31 30 12 0 13 -4 3 -22z"/>
<path d="M2852 2175 c-45 -32 -69 -124 -40 -153 15 -15 72 -16 99 -2 23 13 26 65 4 78 -13 7 -11 10 10 20 21 10 26 18 23 40 -3 23 -8 27 -38 30 -20 1 -45 -4 -58 -13z m51 -25 c-6 -24 -33 -49 -33 -31 0 18 19 51 29 51 5 0 7 -9 4 -20z m-31 -95 c-2 -14 -8 -25 -13 -25 -10 0 -11 7 -3 37 8 31 23 20 16 -12z"/>
<path d="M3024 2171 c-18 -11 -39 -30 -48 -42 -19 -27 -21 -90 -4 -107 17 -17 84 -15 113 4 23 15 25 15 25 0 0 -10 9 -16 25 -16 28 0 44 26 65 105 13 49 24 65 46 65 8 0 6 -23 -7 -75 -11 -42 -17 -80 -14 -85 11 -17 61 -11 80 10 20 23 13 39 -9 21 -11 -10 -11 2 5 61 10 40 19 74 19 76 0 1 -34 2 -75 2 -70 0 -74 -1 -64 -18 9 -15 8 -30 -5 -69 -15 -46 -18 -49 -46 -45 -16 2 -44 -1 -62 -7 -26 -9 -35 -9 -46 3 -18 18 -7 36 21 36 12 0 37 9 55 20 25 15 32 27 32 50 0 28 -2 30 -37 30 -21 0 -52 -9 -69 -19z m45 -23 c-7 -13 -17 -26 -23 -30 -22 -15 -26 -7 -11 22 9 17 22 30 31 30 12 0 13 -4 3 -22z"/>
<path d="M3354 2164 c4 -15 0 -47 -9 -75 -9 -28 -14 -56 -11 -64 8 -22 46 -18 73 7 l23 21 0 -21 c0 -18 6 -22 33 -22 21 0 41 8 52 20 21 23 13 39 -9 21 -12 -10 -11 1 4 56 25 86 25 83 -8 83 -25 0 -31 -7 -51 -54 -26 -65 -57 -98 -45 -50 4 16 11 39 15 52 17 44 12 52 -32 52 -39 0 -41 -1 -35 -26z"/>
<path d="M3567 2184 c-4 -4 -3 -12 1 -18 3 -6 7 -29 7 -51 0 -39 1 -40 37 -43 33 -3 36 -6 35 -30 -2 -23 2 -27 29 -30 20 -2 36 4 49 18 21 23 13 39 -9 21 -12 -10 -11 1 4 56 11 37 20 71 20 75 0 5 -13 8 -30 8 -27 0 -31 -4 -41 -44 -6 -25 -17 -47 -25 -50 -18 -7 -18 1 1 53 l14 41 -43 0 c-23 0 -46 -3 -49 -6z"/>
<path d="M3774 2164 c4 -15 0 -47 -9 -75 -9 -28 -14 -56 -11 -64 8 -22 46 -18 73 7 l23 21 0 -21 c0 -18 6 -22 33 -22 21 0 41 8 52 20 21 23 13 39 -9 21 -12 -10 -11 1 4 56 25 86 25 83 -8 83 -25 0 -31 -7 -51 -54 -26 -65 -57 -98 -45 -50 4 16 11 39 15 52 17 44 12 52 -32 52 -39 0 -41 -1 -35 -26z"/>
<path d="M4006 2181 c-4 -5 -3 -16 0 -25 3 -8 -1 -39 -10 -70 -21 -72 -21 -76 12 -76 25 0 29 5 40 45 7 27 18 45 26 45 12 0 12 -7 5 -35 -6 -19 -7 -40 -4 -45 11 -17 61 -11 80 10 20 23 13 39 -9 21 -11 -10 -11 2 5 61 10 40 19 74 19 76 0 1 -13 2 -30 2 -26 0 -31 -5 -40 -40 -6 -22 -17 -40 -25 -40 -11 0 -12 7 -4 32 5 18 9 36 9 40 0 11 -68 10 -74 -1z"/>
<path d="M4304 2165 c9 -34 -32 -184 -57 -212 l-20 -23 56 0 c51 0 76 12 46 22 -6 2 -8 14 -4 31 6 22 13 27 40 27 62 0 109 62 103 136 l-3 39 -84 2 -83 3 6 -25z m110 -23 c16 -26 -41 -131 -63 -117 -9 5 9 91 23 114 8 13 33 15 40 3z"/>
<path d="M4516 2160 c-26 -32 -40 -80 -34 -121 3 -27 40 -38 64 -19 10 9 14 9 14 1 0 -18 65 -13 83 7 21 23 22 36 2 28 -18 -7 -18 -4 0 64 8 30 15 58 15 63 0 4 -27 7 -59 7 -54 0 -62 -3 -85 -30z m74 -7 c-1 -27 -37 -103 -50 -103 -12 0 -5 35 16 88 14 34 34 43 34 15z"/>
<path d="M4932 2176 c-34 -18 -62 -66 -62 -106 0 -45 15 -60 58 -60 67 0 122 55 122 122 0 19 -5 39 -12 46 -16 16 -77 15 -106 -2z m61 -13 c8 -14 -20 -103 -38 -123 -28 -31 -38 -3 -21 54 19 62 45 93 59 69z"/>
<path d="M5077 2184 c-4 -4 -3 -12 1 -18 3 -6 7 -29 7 -51 0 -39 1 -40 37 -43 33 -3 36 -6 35 -30 -2 -23 2 -27 29 -30 20 -2 36 4 49 18 21 23 13 39 -9 21 -12 -10 -11 1 4 56 11 37 20 71 20 75 0 5 -13 8 -30 8 -27 0 -31 -4 -41 -44 -6 -25 -17 -47 -25 -50 -18 -7 -18 1 1 53 l14 41 -43 0 c-23 0 -46 -3 -49 -6z"/>
<path d="M5284 2164 c4 -15 0 -47 -9 -75 -9 -28 -14 -56 -11 -64 8 -22 46 -18 73 7 l23 21 0 -21 c0 -18 6 -22 32 -22 17 0 40 7 50 17 17 15 18 15 18 0 0 -26 43 -21 70 8 l24 26 13 -26 c17 -31 62 -34 88 -5 21 23 13 39 -10 20 -13 -11 -17 -7 -30 24 -20 47 -7 76 35 76 23 0 30 4 30 20 0 29 -44 26 -68 -5 l-19 -24 -11 24 c-9 20 -19 25 -47 25 -35 0 -47 -13 -22 -23 7 -3 18 -22 25 -43 9 -31 9 -42 -3 -60 -12 -19 -19 -21 -52 -14 -23 6 -42 5 -50 -1 -8 -7 -5 13 7 58 25 86 25 83 -8 83 -25 0 -31 -7 -51 -54 -26 -65 -57 -98 -45 -50 4 16 11 39 15 52 17 44 12 52 -32 52 -39 0 -41 -1 -35 -26z"/>
<path d="M5784 2162 c4 -15 0 -50 -9 -77 -20 -69 -19 -75 14 -75 23 0 30 5 36 28 8 33 55 116 62 109 2 -3 -3 -29 -11 -58 -22 -72 -21 -79 13 -79 25 0 30 5 36 32 8 33 53 113 60 106 3 -2 -2 -28 -10 -58 -8 -30 -15 -61 -15 -67 0 -21 65 -16 85 7 20 23 13 39 -9 21 -11 -9 -10 1 5 48 10 34 16 68 13 76 -9 23 -45 18 -77 -12 -17 -16 -27 -23 -24 -16 12 20 -4 43 -30 43 -13 0 -35 -12 -49 -27 l-26 -28 7 28 c7 26 6 27 -35 27 -40 0 -41 -1 -36 -28z"/>
<path d="M6142 2176 c-34 -18 -62 -66 -62 -106 0 -45 15 -60 58 -60 67 0 122 55 122 122 0 19 -5 39 -12 46 -16 16 -77 15 -106 -2z m61 -13 c8 -14 -20 -103 -38 -123 -28 -31 -38 -3 -21 54 19 62 45 93 59 69z"/>
<path d="M6287 2184 c-3 -3 -1 -14 5 -23 8 -13 6 -32 -6 -73 -21 -74 -21 -78 13 -78 26 0 30 4 36 40 4 22 10 40 14 40 5 0 16 -18 26 -40 16 -37 21 -40 56 -40 l38 0 -24 38 c-14 20 -29 42 -34 48 -14 17 7 44 34 44 20 0 25 5 25 25 0 38 -36 33 -61 -9 -11 -19 -28 -36 -38 -39 -17 -4 -18 -1 -10 27 5 17 9 34 9 38 0 9 -74 11 -83 2z"/>
<path d="M6532 2176 c-34 -18 -62 -66 -62 -106 0 -45 15 -60 58 -60 67 0 122 55 122 122 0 19 -5 39 -12 46 -16 16 -77 15 -106 -2z m61 -13 c8 -14 -20 -103 -38 -123 -28 -31 -38 -3 -21 54 19 62 45 93 59 69z"/>
<path d="M6712 2175 c-45 -32 -69 -124 -40 -153 15 -15 72 -16 99 -2 23 13 26 65 4 78 -13 7 -11 10 10 20 21 10 26 18 23 40 -3 23 -8 27 -38 30 -20 1 -45 -4 -58 -13z m51 -25 c-6 -24 -33 -49 -33 -31 0 18 19 51 29 51 5 0 7 -9 4 -20z m-31 -95 c-2 -14 -8 -25 -13 -25 -10 0 -11 7 -3 37 8 31 23 20 16 -12z"/>
<path d="M6944 2162 c4 -15 0 -50 -9 -77 -20 -69 -19 -75 13 -75 25 0 31 6 40 39 11 36 50 96 58 89 2 -2 -3 -26 -11 -53 -8 -26 -15 -54 -15 -62 0 -21 64 -16 85 7 20 23 13 39 -9 21 -11 -9 -10 1 5 48 10 34 16 68 13 76 -9 23 -52 18 -80 -10 l-24 -24 6 24 c6 24 4 25 -36 25 -40 0 -41 -1 -36 -28z"/>
<path d="M7204 2171 c-18 -11 -39 -30 -48 -42 -19 -27 -21 -90 -4 -107 19 -19 90 -14 118 8 32 24 20 36 -21 21 -27 -9 -36 -9 -47 3 -18 18 -7 36 21 36 12 0 37 9 55 20 25 15 32 27 32 50 0 28 -2 30 -37 30 -21 0 -52 -9 -69 -19z m45 -23 c-7 -13 -17 -26 -23 -30 -22 -15 -26 -7 -11 22 9 17 22 30 31 30 12 0 13 -4 3 -22z"/>
<path d="M7334 2165 c9 -34 -32 -184 -57 -212 l-20 -23 56 0 c51 0 76 12 46 22 -6 2 -8 14 -4 31 6 22 13 27 40 27 62 0 109 62 103 136 l-3 39 -84 2 -83 3 6 -25z m110 -23 c16 -26 -41 -131 -63 -117 -9 5 9 91 23 114 8 13 33 15 40 3z"/>
<path d="M7574 2171 c-18 -11 -39 -30 -48 -42 -19 -27 -21 -90 -4 -107 19 -19 90 -14 118 8 32 24 20 36 -21 21 -27 -9 -36 -9 -47 3 -18 18 -7 36 21 36 12 0 37 9 55 20 25 15 32 27 32 50 0 28 -2 30 -37 30 -21 0 -52 -9 -69 -19z m45 -23 c-7 -13 -17 -26 -23 -30 -22 -15 -26 -7 -11 22 9 17 22 30 31 30 12 0 13 -4 3 -22z"/>
<path d="M7697 2184 c-3 -3 -1 -14 5 -23 8 -13 6 -32 -6 -73 -21 -74 -21 -78 13 -78 26 0 30 4 36 40 4 22 10 40 14 40 5 0 16 -18 26 -40 18 -39 19 -40 71 -40 60 0 69 9 94 105 13 49 24 65 46 65 8 0 6 -23 -7 -75 -11 -42 -17 -80 -14 -85 11 -17 61 -11 80 10 20 23 13 39 -9 21 -11 -10 -11 2 5 61 10 40 19 74 19 76 0 1 -34 2 -75 2 -70 0 -74 -1 -64 -18 9 -15 8 -30 -5 -69 -14 -43 -20 -50 -37 -46 -12 3 -24 0 -29 -6 -4 -8 -11 -2 -20 18 -7 17 -17 31 -22 31 -5 0 -4 9 2 20 6 12 21 20 35 20 20 0 25 5 25 25 0 38 -36 33 -61 -9 -11 -19 -28 -36 -38 -39 -17 -4 -18 -1 -10 27 5 17 9 34 9 38 0 9 -74 11 -83 2z"/>
<path d="M8097 2184 c-3 -3 -1 -14 5 -23 8 -13 6 -32 -6 -73 -21 -75 -21 -78 14 -78 25 0 30 4 36 35 9 47 24 55 24 12 0 -39 12 -47 70 -47 31 0 44 7 74 40 28 31 36 48 36 78 0 48 -14 62 -62 62 -28 0 -47 -8 -73 -31 -19 -17 -35 -37 -35 -45 0 -8 -5 -14 -11 -14 -6 0 -8 8 -5 18 21 71 21 72 -21 72 -22 0 -42 -3 -46 -6z m191 -66 c-10 -47 -21 -70 -41 -87 -23 -18 -28 11 -12 65 26 88 73 107 53 22z"/>
<path d="M8377 2184 c-4 -4 -3 -12 1 -18 3 -6 7 -29 7 -51 0 -39 1 -40 37 -43 33 -3 36 -6 35 -30 -2 -23 2 -27 29 -30 20 -2 36 4 49 18 21 23 13 39 -9 21 -12 -10 -11 1 4 56 11 37 20 71 20 75 0 5 -13 8 -30 8 -27 0 -31 -4 -41 -44 -6 -25 -17 -47 -25 -50 -18 -7 -18 1 1 53 l14 41 -43 0 c-23 0 -46 -3 -49 -6z"/>
<path d="M8616 2160 c-26 -32 -40 -80 -34 -121 3 -27 40 -38 64 -19 10 9 14 9 14 1 0 -17 61 -13 82 6 17 15 18 15 18 0 0 -12 9 -17 30 -17 25 0 30 4 36 35 9 47 24 55 24 12 0 -39 12 -47 70 -47 31 0 44 7 74 40 28 31 36 48 36 78 0 48 -14 62 -62 62 -28 0 -47 -8 -73 -31 -19 -17 -35 -37 -35 -45 0 -8 -5 -14 -11 -14 -6 0 -8 8 -5 18 21 71 21 72 -21 72 -46 0 -57 -8 -42 -26 8 -10 8 -27 0 -62 -9 -37 -16 -48 -31 -48 -24 0 -23 -3 -5 66 8 30 15 58 15 63 0 4 -27 7 -59 7 -54 0 -62 -3 -85 -30z m352 -42 c-10 -47 -21 -70 -41 -87 -23 -18 -28 11 -12 65 26 88 73 107 53 22z m-278 35 c-1 -27 -37 -103 -50 -103 -12 0 -5 35 16 88 14 34 34 43 34 15z"/>
<path d="M9077 2183 c-4 -3 -2 -12 4 -20 9 -10 7 -28 -5 -73 -10 -33 -14 -65 -11 -70 12 -20 53 -10 78 20 l26 30 -2 -27 c-2 -23 2 -29 24 -31 19 -2 33 5 52 28 l26 30 -2 -27 c-2 -22 3 -29 21 -31 18 -3 22 -10 22 -39 0 -48 24 -38 28 13 2 21 8 45 14 52 15 17 2 28 -16 13 -12 -10 -12 0 4 58 11 39 20 73 20 76 0 3 -13 5 -30 5 -25 0 -30 -5 -39 -35 -10 -36 -50 -99 -58 -92 -4 4 6 49 23 110 4 13 -1 17 -25 17 -26 0 -31 -5 -40 -35 -9 -34 -50 -100 -57 -93 -2 2 3 28 11 58 8 30 15 58 15 63 0 9 -74 10 -83 0z"/>
<path d="M9394 2164 c4 -15 0 -47 -9 -75 -9 -28 -14 -56 -11 -64 8 -22 46 -18 73 7 l23 21 0 -21 c0 -18 6 -22 33 -22 18 0 38 5 45 12 9 9 12 9 12 0 0 -21 46 -13 70 13 l24 26 13 -26 c17 -31 62 -34 88 -5 21 23 13 39 -10 20 -13 -11 -17 -7 -30 24 -20 47 -7 76 35 76 23 0 30 4 30 20 0 29 -44 26 -68 -5 l-19 -24 -11 24 c-9 20 -19 25 -47 25 -35 0 -47 -13 -22 -23 7 -3 18 -22 25 -43 9 -31 9 -42 -3 -61 -13 -19 -19 -20 -47 -13 -21 6 -36 6 -44 -1 -9 -7 -7 10 6 58 25 86 25 83 -8 83 -25 0 -31 -7 -51 -54 -26 -65 -57 -98 -45 -50 4 16 11 39 15 52 17 44 12 52 -32 52 -39 0 -41 -1 -35 -26z"/>
<path d="M9908 2183 c-22 -5 -22 -12 -3 -37 21 -28 21 -159 0 -176 -10 -9 -15 -9 -15 -1 0 6 -11 11 -25 11 -20 0 -25 -5 -25 -25 0 -21 5 -25 29 -25 22 0 40 12 76 52 59 66 105 144 105 181 0 22 -4 27 -25 27 -27 0 -35 -26 -14 -47 8 -8 5 -22 -12 -54 l-24 -42 -3 39 c-6 103 -12 111 -64 97z"/>
<path d="M10118 2175 c-49 -27 -77 -122 -46 -153 19 -19 83 -14 109 7 29 23 19 39 -16 23 -19 -9 -27 -8 -40 4 -8 9 -15 20 -15 25 0 23 30 78 48 88 17 9 19 7 14 -14 -4 -22 -1 -25 22 -25 24 0 27 4 24 28 -3 23 -8 27 -38 29 -19 2 -47 -4 -62 -12z"/>
<path d="M10244 2162 c4 -15 0 -50 -9 -77 -20 -69 -19 -75 14 -75 23 0 30 5 36 28 8 33 55 116 62 109 2 -3 -3 -29 -11 -58 -22 -72 -21 -79 13 -79 25 0 30 5 36 32 8 33 53 113 60 106 3 -2 -2 -28 -10 -58 -8 -30 -15 -61 -15 -67 0 -21 65 -16 85 7 20 23 13 39 -9 21 -11 -9 -10 1 5 48 10 34 16 68 13 76 -9 23 -45 18 -77 -12 -17 -16 -27 -23 -24 -16 12 20 -4 43 -30 43 -13 0 -35 -12 -49 -27 l-26 -28 7 28 c7 26 6 27 -35 27 -40 0 -41 -1 -36 -28z"/>
<path d="M10554 2165 c9 -34 -32 -184 -57 -212 l-20 -23 56 0 c51 0 76 12 46 22 -6 2 -8 14 -4 31 6 22 13 27 40 27 62 0 109 62 103 136 l-3 39 -84 2 -83 3 6 -25z m110 -23 c16 -26 -41 -131 -63 -117 -9 5 9 91 23 114 8 13 33 15 40 3z"/>
<path d="M10792 2176 c-34 -18 -62 -66 -62 -106 0 -45 15 -60 58 -60 67 0 122 55 122 122 0 19 -5 39 -12 46 -16 16 -77 15 -106 -2z m61 -13 c8 -14 -20 -103 -38 -123 -28 -31 -38 -3 -21 54 19 62 45 93 59 69z"/>
<path d="M10926 2181 c-4 -5 -1 -11 6 -13 9 -3 8 -19 -5 -66 -9 -33 -14 -68 -11 -76 9 -24 45 -19 74 9 l27 26 -1 -23 c-1 -32 52 -38 79 -8 21 23 13 39 -9 21 -12 -10 -12 0 4 58 11 39 20 73 20 76 0 3 -13 5 -30 5 -25 0 -31 -5 -39 -37 -10 -36 -60 -109 -61 -88 0 6 7 32 15 59 8 27 15 53 15 58 0 11 -77 10 -84 -1z"/>
<path d="M11198 2175 c-49 -27 -77 -122 -46 -153 19 -19 83 -14 109 7 29 23 19 39 -16 23 -19 -9 -27 -8 -40 4 -8 9 -15 20 -15 25 0 23 30 78 48 88 17 9 19 7 14 -14 -4 -22 -1 -25 22 -25 24 0 27 4 24 28 -3 23 -8 27 -38 29 -19 2 -47 -4 -62 -12z"/>
<path d="M11324 2162 c4 -15 0 -50 -9 -77 -20 -69 -19 -75 14 -75 23 0 30 5 36 28 8 33 55 116 62 109 2 -3 -3 -29 -11 -58 -22 -72 -21 -79 13 -79 25 0 30 5 36 32 8 33 53 113 60 106 3 -2 -2 -28 -10 -58 -8 -30 -15 -61 -15 -67 0 -21 65 -16 85 7 20 23 13 39 -9 21 -11 -9 -10 1 5 48 10 34 16 68 13 76 -9 23 -45 18 -77 -12 -17 -16 -27 -23 -24 -16 12 20 -4 43 -30 43 -13 0 -35 -12 -49 -27 l-26 -28 7 28 c7 26 6 27 -35 27 -40 0 -41 -1 -36 -28z"/>
<path d="M11662 2175 c-45 -32 -69 -124 -40 -153 15 -15 72 -16 99 -2 23 13 26 65 4 78 -13 7 -11 10 10 20 21 10 26 18 23 40 -3 23 -8 27 -38 30 -20 1 -45 -4 -58 -13z m51 -25 c-6 -24 -33 -49 -33 -31 0 18 19 51 29 51 5 0 7 -9 4 -20z m-31 -95 c-2 -14 -8 -25 -13 -25 -10 0 -11 7 -3 37 8 31 23 20 16 -12z"/>
<path d="M12673 2172 c12 -13 17 -36 17 -72 0 -36 -5 -59 -17 -72 -15 -17 -14 -18 33 -17 27 0 43 3 37 6 -21 8 -15 25 22 72 l35 44 0 -43 c0 -26 -7 -51 -17 -62 -15 -17 -14 -18 31 -18 43 0 46 1 32 16 -23 23 -22 132 2 150 15 12 11 13 -32 14 -42 0 -47 -2 -36 -15 10 -12 6 -23 -21 -59 l-34 -44 -3 45 c-2 34 1 48 15 59 16 12 13 13 -31 14 -47 0 -48 -1 -33 -18z"/>
<path d="M4527 1790 c-20 -4 -49 -17 -62 -30 -49 -46 -83 -188 -53 -218 17 -17 74 -15 104 4 32 22 54 64 54 107 0 42 -15 57 -60 57 -20 0 -41 -5 -48 -12 -7 -7 -12 -8 -12 -2 0 18 33 41 70 49 48 10 70 23 70 40 0 16 -5 17 -63 5z m-14 -145 c-9 -49 -43 -109 -55 -97 -11 11 15 116 35 140 15 19 27 -5 20 -43z"/>
<path d="M10556 1791 c-68 -8 -89 -38 -94 -134 -3 -62 -1 -76 18 -99 17 -23 29 -28 65 -28 35 0 48 5 64 26 47 60 13 154 -55 154 -20 0 -44 -5 -55 -10 -24 -13 -25 1 -1 30 11 14 33 23 62 27 45 6 70 18 70 34 0 5 -6 8 -12 7 -7 0 -35 -4 -62 -7z m4 -101 c40 -21 46 -121 9 -141 -59 -31 -108 107 -50 141 20 12 19 12 41 0z"/>
<path d="M35 1766 c-47 -47 -26 -100 56 -142 39 -19 50 -30 47 -46 -8 -53 -80 -44 -101 12 -17 44 -27 37 -27 -17 l0 -48 62 -3 c68 -3 103 13 118 53 16 42 -6 83 -59 110 -56 28 -74 47 -65 69 14 35 67 14 101 -40 10 -16 12 -13 12 26 l1 46 -60 2 c-53 2 -64 -1 -85 -22z"/>
<path d="M336 1782 c-2 -4 -23 -55 -46 -112 -23 -58 -49 -113 -57 -122 -15 -17 -13 -18 28 -18 37 1 41 3 28 13 -12 9 -14 18 -8 35 7 18 16 22 48 22 32 0 41 -4 47 -22 4 -15 1 -25 -12 -35 -15 -11 -9 -13 51 -13 64 0 67 1 53 18 -9 9 -37 68 -63 130 -44 104 -57 124 -69 104z m-3 -160 c-33 -5 -35 -1 -22 38 l12 33 18 -34 17 -34 -25 -3z"/>
<path d="M540 1709 c-34 -46 -60 -91 -60 -105 0 -22 4 -24 50 -24 47 0 50 -2 50 -25 0 -21 5 -25 30 -25 25 0 30 4 30 25 0 14 5 25 10 25 6 0 10 11 10 25 0 14 -4 25 -10 25 -6 0 -10 33 -10 80 0 73 -2 80 -20 80 -14 0 -40 -27 -80 -81z m40 -34 c0 -43 -1 -45 -30 -45 -16 0 -30 2 -30 5 0 7 52 85 56 85 2 0 4 -20 4 -45z"/>
<path d="M10068 1774 c20 -14 22 -23 22 -110 0 -81 -3 -97 -20 -114 l-20 -20 57 0 c55 0 56 1 35 16 -17 12 -22 25 -22 60 l0 44 48 0 c63 0 92 21 92 65 0 58 -29 75 -129 75 -80 0 -84 -1 -63 -16z m111 -5 c34 -12 51 -51 34 -77 -12 -19 -58 -36 -78 -28 -19 7 -21 102 -2 109 6 3 12 6 13 6 1 1 15 -4 33 -10z"/>
<path d="M794 1682 c4 -15 0 -50 -9 -77 -20 -69 -19 -75 13 -75 25 0 31 6 40 39 11 36 50 96 58 89 2 -2 -3 -26 -11 -53 -8 -26 -15 -54 -15 -62 0 -21 64 -16 85 7 20 23 13 39 -9 21 -11 -9 -10 1 5 48 10 34 16 68 13 76 -9 23 -52 18 -80 -10 l-24 -24 6 24 c6 24 4 25 -36 25 -40 0 -41 -1 -36 -28z"/>
<path d="M1014 1685 c9 -34 -32 -184 -57 -212 l-20 -23 56 0 c51 0 76 12 46 22 -6 2 -8 14 -4 31 6 22 13 27 40 27 62 0 109 62 103 136 l-3 39 -84 2 -83 3 6 -25z m110 -23 c16 -26 -41 -131 -63 -117 -9 5 9 91 23 114 8 13 33 15 40 3z"/>
<path d="M1204 1684 c4 -15 0 -47 -9 -75 -9 -28 -14 -56 -11 -64 8 -22 46 -18 73 7 l23 21 0 -21 c0 -18 6 -22 33 -22 21 0 41 8 52 20 21 23 13 39 -9 21 -12 -10 -11 1 4 56 25 86 25 83 -8 83 -25 0 -31 -7 -51 -54 -26 -65 -57 -98 -45 -50 4 16 11 39 15 52 17 44 12 52 -32 52 -39 0 -41 -1 -35 -26z"/>
<path d="M1524 1685 c9 -34 -32 -184 -57 -212 l-20 -23 56 0 c51 0 76 12 46 22 -6 2 -8 14 -4 31 6 22 13 27 40 27 62 0 109 62 103 136 l-3 39 -84 2 -83 3 6 -25z m110 -23 c16 -26 -41 -131 -63 -117 -9 5 9 91 23 114 8 13 33 15 40 3z"/>
<path d="M1736 1680 c-26 -32 -40 -80 -34 -121 3 -27 40 -38 64 -19 10 9 14 9 14 1 0 -16 61 -13 80 4 15 14 18 14 30 0 18 -21 83 -19 103 3 19 21 22 58 6 67 -6 5 -2 13 11 22 14 10 20 23 18 41 -3 25 -7 27 -60 30 -56 3 -58 2 -58 -23 0 -27 14 -34 24 -10 6 17 32 20 41 5 3 -5 -5 -21 -19 -34 -19 -20 -22 -27 -11 -36 14 -12 9 -44 -10 -60 -8 -7 -19 -4 -35 10 -13 12 -30 18 -37 16 -16 -7 -16 -4 2 64 8 30 15 58 15 63 0 4 -27 7 -59 7 -54 0 -62 -3 -85 -30z m74 -7 c-1 -27 -37 -103 -50 -103 -12 0 -5 35 16 88 14 34 34 43 34 15z"/>
<path d="M2091 1692 c9 -15 8 -30 -5 -69 -15 -45 -19 -50 -41 -45 -21 4 -25 1 -25 -22 0 -21 5 -26 25 -26 28 0 44 26 65 105 13 49 24 65 46 65 8 0 6 -23 -7 -75 -11 -42 -17 -80 -14 -85 11 -17 61 -11 80 10 20 23 13 39 -9 21 -11 -10 -11 2 5 61 10 40 19 74 19 76 0 1 -34 2 -75 2 -70 0 -74 -1 -64 -18z"/>
<path d="M2264 1684 c4 -15 0 -47 -9 -75 -9 -28 -14 -56 -11 -64 8 -22 46 -18 73 7 l23 21 0 -21 c0 -18 6 -22 33 -22 21 0 41 8 52 20 21 23 13 39 -9 21 -12 -10 -11 1 4 56 25 86 25 83 -8 83 -25 0 -31 -7 -51 -54 -26 -65 -57 -98 -45 -50 4 16 11 39 15 52 17 44 12 52 -32 52 -39 0 -41 -1 -35 -26z"/>
<path d="M2467 1704 c-4 -4 -3 -12 1 -18 3 -6 7 -29 7 -51 0 -39 1 -40 37 -43 33 -3 36 -6 35 -30 -2 -23 2 -27 29 -30 20 -2 36 4 49 18 21 23 13 39 -9 21 -12 -10 -11 1 4 56 11 37 20 71 20 75 0 5 -13 8 -30 8 -27 0 -31 -4 -41 -44 -6 -25 -17 -47 -25 -50 -18 -7 -18 1 1 53 l14 41 -43 0 c-23 0 -46 -3 -49 -6z"/>
<path d="M2696 1701 c-4 -5 -3 -16 0 -25 3 -8 -1 -39 -10 -70 -21 -72 -21 -76 12 -76 25 0 29 5 40 45 7 27 18 45 26 45 12 0 12 -7 5 -35 -6 -19 -7 -40 -4 -45 11 -17 61 -11 80 10 20 23 13 39 -9 21 -11 -10 -11 2 5 61 10 40 19 74 19 76 0 1 -13 2 -30 2 -26 0 -31 -5 -40 -40 -6 -22 -17 -40 -25 -40 -11 0 -12 7 -4 32 5 18 9 36 9 40 0 11 -68 10 -74 -1z"/>
<path d="M2887 1703 c-4 -3 -2 -12 4 -20 9 -10 8 -24 -1 -57 -6 -24 -10 -54 -8 -67 3 -21 9 -24 47 -27 58 -4 93 26 89 78 -3 30 -7 35 -31 38 -26 3 -28 6 -22 33 6 28 6 29 -33 29 -21 0 -42 -3 -45 -7z m72 -115 c-5 -18 -9 -34 -9 -35 0 -2 -4 -3 -10 -3 -13 0 -13 12 0 44 14 38 31 33 19 -6z"/>
<path d="M3046 1701 c-4 -5 0 -11 6 -13 10 -4 9 -20 -5 -72 -10 -37 -15 -71 -12 -76 9 -14 59 -12 73 2 9 9 12 9 12 0 0 -21 46 -13 70 13 l24 26 13 -26 c17 -31 62 -34 88 -5 21 23 13 39 -10 20 -13 -11 -17 -7 -30 24 -20 47 -7 76 35 76 23 0 30 4 30 20 0 29 -44 26 -68 -5 l-19 -24 -11 24 c-9 20 -19 25 -47 25 -35 0 -47 -13 -22 -23 7 -3 18 -22 25 -43 9 -31 9 -42 -3 -61 -13 -19 -19 -20 -47 -13 -20 6 -36 6 -43 0 -8 -7 -6 14 6 57 11 37 19 71 19 75 0 11 -78 10 -84 -1z"/>
<path d="M3498 1695 c-49 -27 -77 -122 -46 -153 19 -19 83 -14 109 7 29 23 19 39 -16 23 -19 -9 -27 -8 -40 4 -8 9 -15 20 -15 25 0 23 30 78 48 88 17 9 19 7 14 -14 -4 -22 -1 -25 22 -25 24 0 27 4 24 28 -3 23 -8 27 -38 29 -19 2 -47 -4 -62 -12z"/>
<path d="M3634 1682 c4 -15 0 -50 -9 -77 -20 -69 -19 -75 13 -75 25 0 31 6 40 39 11 36 50 96 58 89 2 -2 -3 -26 -11 -53 -8 -26 -15 -54 -15 -62 0 -21 64 -16 85 7 20 23 13 39 -9 21 -11 -9 -10 1 5 48 10 34 16 68 13 76 -9 23 -52 18 -80 -10 l-24 -24 6 24 c6 24 4 25 -36 25 -40 0 -41 -1 -36 -28z"/>
<path d="M3892 1696 c-34 -18 -62 -66 -62 -106 0 -45 15 -60 58 -60 67 0 122 55 122 122 0 19 -5 39 -12 46 -16 16 -77 15 -106 -2z m61 -13 c8 -14 -20 -103 -38 -123 -28 -31 -38 -3 -21 54 19 62 45 93 59 69z"/>
<path d="M4088 1695 c-49 -27 -77 -122 -46 -153 19 -19 83 -14 109 7 29 23 19 39 -16 23 -19 -9 -27 -8 -40 4 -8 9 -15 20 -15 25 0 23 30 78 48 88 17 9 19 7 14 -14 -4 -22 -1 -25 22 -25 24 0 27 4 24 28 -3 23 -8 27 -38 29 -19 2 -47 -4 -62 -12z"/>
<path d="M4262 1696 c-34 -18 -62 -66 -62 -106 0 -45 15 -60 58 -60 67 0 122 55 122 122 0 19 -5 39 -12 46 -16 16 -77 15 -106 -2z m61 -13 c8 -14 -20 -103 -38 -123 -28 -31 -38 -3 -21 54 19 62 45 93 59 69z"/>
<path d="M4626 1680 c-26 -32 -40 -80 -34 -121 3 -27 40 -38 64 -19 9 9 14 9 14 1 0 -6 23 -10 63 -10 51 1 66 5 88 25 l26 24 11 -25 c14 -31 61 -34 87 -5 21 23 13 39 -10 20 -13 -11 -17 -7 -30 24 -20 47 -7 76 35 76 23 0 30 4 30 20 0 29 -44 26 -68 -5 l-19 -24 -11 24 c-9 20 -19 25 -47 25 -35 0 -47 -13 -22 -23 7 -3 18 -22 25 -43 9 -31 9 -42 -3 -61 -13 -19 -19 -21 -41 -13 -14 6 -30 8 -35 4 -12 -7 -11 1 6 66 8 30 15 58 15 63 0 4 -27 7 -59 7 -54 0 -62 -3 -85 -30z m74 -7 c-1 -27 -37 -103 -50 -103 -12 0 -5 35 16 88 14 34 34 43 34 15z"/>
<path d="M5094 1685 c9 -34 -32 -184 -57 -212 l-20 -23 56 0 c51 0 76 12 46 22 -6 2 -8 14 -4 31 6 22 13 27 37 27 40 0 65 15 88 53 l20 32 0 -30 c0 -17 5 -36 12 -43 19 -19 90 -14 118 8 32 24 20 36 -21 21 -27 -9 -36 -9 -47 3 -18 18 -7 36 21 36 12 0 37 9 55 20 25 15 32 27 32 50 0 28 -3 30 -35 30 -44 0 -86 -21 -113 -55 l-21 -26 -3 38 -3 38 -84 2 -83 3 6 -25z m275 -17 c-7 -13 -17 -26 -23 -30 -22 -15 -26 -7 -11 22 9 17 22 30 31 30 12 0 13 -4 3 -22z m-165 -6 c16 -26 -41 -131 -63 -117 -9 5 9 91 23 114 8 13 33 15 40 3z"/>
<path d="M5480 1696 c-10 -14 -9 -16 8 -16 46 0 33 -28 -33 -73 -19 -14 -25 -26 -23 -45 3 -24 8 -27 43 -30 24 -2 48 3 60 12 25 18 14 32 -13 17 -15 -8 -23 -7 -32 4 -17 20 2 49 45 69 30 15 36 22 33 44 -3 23 -8 27 -39 30 -23 2 -40 -2 -49 -12z"/>
<path d="M5608 1703 c-22 -5 -22 -12 -3 -37 21 -28 21 -159 0 -176 -10 -9 -15 -9 -15 -1 0 6 -11 11 -25 11 -20 0 -25 -5 -25 -25 0 -21 5 -25 29 -25 22 0 40 12 76 52 59 66 105 144 105 181 0 22 -4 27 -25 27 -27 0 -35 -26 -14 -47 8 -8 5 -22 -12 -54 l-24 -42 -3 39 c-6 103 -12 111 -64 97z"/>
<path d="M5801 1692 c9 -15 8 -30 -5 -69 -15 -45 -19 -50 -41 -45 -21 4 -25 1 -25 -22 0 -21 5 -26 25 -26 28 0 44 26 65 105 13 49 24 65 46 65 8 0 6 -23 -7 -75 -11 -42 -17 -80 -14 -85 11 -17 61 -11 80 10 20 23 13 39 -9 21 -11 -10 -11 2 5 61 10 40 19 74 19 76 0 1 -34 2 -75 2 -70 0 -74 -1 -64 -18z"/>
<path d="M5974 1684 c4 -15 0 -47 -9 -75 -9 -28 -14 -56 -11 -64 8 -22 46 -18 73 7 l23 21 0 -21 c0 -18 6 -22 33 -22 21 0 41 8 52 20 21 23 13 39 -9 21 -12 -10 -11 1 4 56 25 86 25 83 -8 83 -25 0 -31 -7 -51 -54 -26 -65 -57 -98 -45 -50 4 16 11 39 15 52 17 44 12 52 -32 52 -39 0 -41 -1 -35 -26z"/>
<path d="M6184 1685 c9 -34 -32 -184 -57 -212 l-20 -23 56 0 c51 0 76 12 46 22 -6 2 -8 14 -4 31 6 22 13 27 40 27 62 0 109 62 103 136 l-3 39 -84 2 -83 3 6 -25z m110 -23 c16 -26 -41 -131 -63 -117 -9 5 9 91 23 114 8 13 33 15 40 3z"/>
<path d="M6432 1696 c-34 -18 -62 -66 -62 -106 0 -45 15 -60 58 -60 67 0 122 55 122 122 0 19 -5 39 -12 46 -16 16 -77 15 -106 -2z m61 -13 c8 -14 -20 -103 -38 -123 -28 -31 -38 -3 -21 54 19 62 45 93 59 69z"/>
<path d="M6612 1695 c-45 -32 -69 -124 -40 -153 15 -15 72 -16 99 -2 23 13 26 65 4 78 -13 7 -11 10 10 20 21 10 26 18 23 40 -3 23 -8 27 -38 30 -20 1 -45 -4 -58 -13z m51 -25 c-6 -24 -33 -49 -33 -31 0 18 19 51 29 51 5 0 7 -9 4 -20z m-31 -95 c-2 -14 -8 -25 -13 -25 -10 0 -11 7 -3 37 8 31 23 20 16 -12z"/>
<path d="M6766 1680 c-26 -32 -40 -80 -34 -121 3 -27 40 -38 64 -19 10 9 14 9 14 1 0 -18 65 -13 83 7 21 23 22 36 2 28 -18 -7 -18 -4 0 64 8 30 15 58 15 63 0 4 -27 7 -59 7 -54 0 -62 -3 -85 -30z m74 -7 c-1 -27 -37 -103 -50 -103 -12 0 -5 35 16 88 14 34 34 43 34 15z"/>
<path d="M6956 1701 c-4 -5 -3 -16 0 -25 3 -8 -1 -39 -10 -70 -21 -72 -21 -76 12 -76 25 0 29 5 40 45 7 27 18 45 26 45 12 0 12 -7 5 -35 -6 -19 -7 -40 -4 -45 11 -17 61 -11 80 10 20 23 13 39 -9 21 -11 -10 -11 2 5 61 10 40 19 74 19 76 0 1 -13 2 -30 2 -26 0 -31 -5 -40 -40 -6 -22 -17 -40 -25 -40 -11 0 -12 7 -4 32 5 18 9 36 9 40 0 11 -68 10 -74 -1z"/>
<path d="M7164 1684 c4 -15 0 -47 -9 -75 -9 -28 -14 -56 -11 -64 8 -22 46 -18 73 7 l23 21 0 -21 c0 -18 6 -22 33 -22 21 0 41 8 52 20 21 23 13 39 -9 21 -12 -10 -11 1 4 56 25 86 25 83 -8 83 -25 0 -31 -7 -51 -54 -26 -65 -57 -98 -45 -50 4 16 11 39 15 52 17 44 12 52 -32 52 -39 0 -41 -1 -35 -26z"/>
<path d="M7397 1699 c-14 -8 -18 -21 -16 -51 3 -33 -2 -47 -29 -79 l-33 -39 38 0 c31 0 43 6 65 32 l27 33 -2 -30 c-2 -27 1 -30 29 -33 20 -2 36 4 49 18 21 23 13 39 -9 21 -12 -10 -11 1 4 56 11 37 20 71 20 75 0 12 -123 9 -143 -3z m72 -42 c-5 -17 -9 -34 -9 -36 0 -2 -6 2 -14 9 -15 11 -12 33 7 57 16 22 26 4 16 -30z"/>
<path d="M7686 1701 c-4 -5 -3 -16 0 -25 3 -8 -1 -39 -10 -70 -21 -72 -21 -76 12 -76 25 0 29 5 40 45 7 27 18 45 26 45 12 0 12 -7 5 -35 -6 -19 -7 -40 -4 -45 11 -17 61 -11 80 10 20 23 13 39 -9 21 -11 -10 -11 2 5 61 10 40 19 74 19 76 0 1 -13 2 -30 2 -26 0 -31 -5 -40 -40 -6 -22 -17 -40 -25 -40 -11 0 -12 7 -4 32 5 18 9 36 9 40 0 11 -68 10 -74 -1z"/>
<path d="M7906 1680 c-26 -32 -40 -80 -34 -121 3 -27 40 -38 64 -19 10 9 14 9 14 1 0 -18 65 -13 83 7 21 23 22 36 2 28 -18 -7 -18 -4 0 64 8 30 15 58 15 63 0 4 -27 7 -59 7 -54 0 -62 -3 -85 -30z m74 -7 c-1 -27 -37 -103 -50 -103 -12 0 -5 35 16 88 14 34 34 43 34 15z"/>
<path d="M8084 1682 c4 -15 0 -50 -9 -77 -20 -69 -19 -75 13 -75 25 0 31 6 40 39 11 36 50 96 58 89 2 -2 -3 -26 -11 -53 -8 -26 -15 -54 -15 -62 0 -21 64 -16 85 7 20 23 13 39 -9 21 -11 -9 -10 1 5 48 10 34 16 68 13 76 -9 23 -52 18 -80 -10 l-24 -24 6 24 c6 24 4 25 -36 25 -40 0 -41 -1 -36 -28z"/>
<path d="M8304 1685 c9 -34 -32 -184 -57 -212 l-20 -23 56 0 c51 0 76 12 46 22 -6 2 -8 14 -4 31 6 22 13 27 40 27 62 0 109 62 103 136 l-3 39 -84 2 -83 3 6 -25z m110 -23 c16 -26 -41 -131 -63 -117 -9 5 9 91 23 114 8 13 33 15 40 3z"/>
<path d="M8517 1699 c-14 -8 -18 -21 -16 -51 3 -33 -2 -47 -29 -79 l-33 -39 38 0 c31 0 43 6 65 32 l27 33 -2 -30 c-2 -27 1 -30 29 -33 20 -2 36 4 49 18 21 23 13 39 -9 21 -12 -10 -11 1 4 56 11 37 20 71 20 75 0 12 -123 9 -143 -3z m72 -42 c-5 -17 -9 -34 -9 -36 0 -2 -6 2 -14 9 -15 11 -12 33 7 57 16 22 26 4 16 -30z"/>
<path d="M8710 1690 c-28 -21 -22 -37 9 -21 29 16 44 -14 30 -62 -10 -39 -29 -59 -29 -32 0 11 -7 15 -22 13 -17 -2 -24 -11 -26 -30 -3 -26 0 -28 30 -28 40 0 73 21 93 61 21 39 36 37 24 -3 -14 -50 -11 -58 20 -58 25 0 29 5 37 42 12 57 32 61 36 6 3 -40 5 -43 34 -46 32 -3 86 30 72 44 -4 4 -14 2 -21 -5 -34 -27 -46 47 -16 99 7 12 8 12 9 -3 0 -32 44 -17 48 16 3 25 0 27 -30 27 -36 0 -69 -22 -87 -57 -14 -27 -35 -31 -27 -5 2 9 7 27 11 40 6 19 3 22 -24 22 -27 0 -31 -5 -41 -40 -12 -44 -30 -54 -30 -16 0 13 -3 31 -6 40 -9 22 -63 20 -94 -4z"/>
<path d="M9104 1691 c-18 -11 -39 -30 -48 -42 -19 -27 -21 -90 -4 -107 19 -19 90 -14 118 8 32 24 20 36 -21 21 -27 -9 -36 -9 -47 3 -18 18 -7 36 21 36 12 0 37 9 55 20 25 15 32 27 32 50 0 28 -2 30 -37 30 -21 0 -52 -9 -69 -19z m45 -23 c-7 -13 -17 -26 -23 -30 -22 -15 -26 -7 -11 22 9 17 22 30 31 30 12 0 13 -4 3 -22z"/>
<path d="M9246 1701 c-4 -5 -3 -16 0 -25 3 -8 -1 -39 -10 -70 -21 -72 -21 -76 12 -76 25 0 29 5 40 45 7 27 18 45 26 45 12 0 12 -7 5 -35 -6 -19 -7 -40 -4 -45 11 -17 61 -11 80 10 20 23 13 39 -9 21 -11 -10 -11 2 5 61 10 40 19 74 19 76 0 1 -13 2 -30 2 -26 0 -31 -5 -40 -40 -6 -22 -17 -40 -25 -40 -11 0 -12 7 -4 32 5 18 9 36 9 40 0 11 -68 10 -74 -1z"/>
<path d="M9454 1684 c4 -15 0 -47 -9 -75 -9 -28 -14 -56 -11 -64 8 -22 46 -18 73 7 l23 21 0 -21 c0 -18 6 -22 33 -22 21 0 41 8 52 20 21 23 13 39 -9 21 -12 -10 -11 1 4 56 25 86 25 83 -8 83 -25 0 -31 -7 -51 -54 -26 -65 -57 -98 -45 -50 4 16 11 39 15 52 17 44 12 52 -32 52 -39 0 -41 -1 -35 -26z"/>
<path d="M9697 1699 c-14 -8 -18 -21 -16 -51 3 -33 -2 -47 -29 -79 l-33 -39 38 0 c31 0 43 6 65 32 l27 33 -2 -30 c-2 -27 1 -30 29 -33 20 -2 36 4 49 18 21 23 13 39 -9 21 -12 -10 -11 1 4 56 11 37 20 71 20 75 0 12 -123 9 -143 -3z m72 -42 c-5 -17 -9 -34 -9 -36 0 -2 -6 2 -14 9 -15 11 -12 33 7 57 16 22 26 4 16 -30z"/>
<path d="M10292 1698 c-17 -17 -15 -48 3 -48 8 0 15 6 15 14 0 7 6 19 14 25 11 9 18 8 30 -4 23 -24 21 -28 -35 -52 -49 -22 -50 -23 -47 -60 3 -35 6 -38 36 -41 18 -2 40 2 48 9 11 9 14 9 14 0 0 -16 52 -10 58 7 2 6 -3 12 -12 12 -12 0 -16 15 -18 73 l-3 72 -45 3 c-26 2 -50 -2 -58 -10z m78 -96 c0 -37 -44 -62 -59 -34 -11 21 -5 34 24 50 30 17 35 15 35 -16z"/>
<path d="M10665 1685 c-34 -33 -35 -102 -2 -133 33 -31 90 -30 122 3 32 31 34 91 4 129 -28 36 -89 37 -124 1z m84 -11 c42 -54 13 -159 -35 -126 -34 23 -46 109 -18 136 21 22 29 20 53 -10z"/>
<path d="M10843 1692 c10 -11 17 -35 17 -57 l0 -38 50 5 c45 5 50 3 50 -15 0 -11 -7 -29 -17 -39 -15 -17 -14 -18 32 -18 46 0 47 1 32 18 -24 27 -24 130 1 148 15 12 11 13 -32 14 -47 0 -48 -1 -33 -18 24 -26 21 -58 -5 -65 -43 -12 -63 30 -31 65 15 17 14 18 -32 18 -46 0 -47 -1 -32 -18z"/>
<path d="M11043 1692 c12 -13 17 -36 17 -72 0 -36 -5 -59 -17 -72 -15 -17 -14 -18 33 -17 27 0 43 3 37 6 -21 8 -15 25 22 72 l35 44 0 -43 c0 -26 -7 -51 -17 -62 -15 -17 -13 -18 67 -18 80 0 82 1 67 18 -11 12 -17 35 -17 68 l1 49 35 -69 c20 -38 39 -65 44 -60 4 5 20 36 34 69 l25 60 1 -49 c0 -32 -6 -56 -17 -68 -15 -17 -14 -18 32 -18 46 0 47 1 32 18 -24 27 -24 130 1 148 15 12 13 13 -18 14 -34 0 -36 -2 -60 -61 l-24 -61 -30 61 -30 61 -79 0 c-69 0 -78 -2 -67 -15 10 -12 6 -23 -21 -59 l-34 -44 -3 45 c-2 34 1 48 15 59 16 12 13 13 -31 14 -47 0 -48 -1 -33 -18z m206 -6 c19 -23 10 -127 -12 -140 -26 -16 -37 7 -37 81 0 57 5 69 31 72 4 1 12 -5 18 -13z"/>
<path d="M11580 1685 c0 -14 5 -25 10 -25 6 0 10 6 10 14 0 13 20 26 41 26 5 0 9 -30 9 -67 0 -48 -5 -72 -17 -85 -15 -17 -14 -18 33 -18 38 1 45 3 32 11 -25 14 -27 165 -2 155 9 -3 20 -6 25 -6 5 0 9 -7 9 -15 0 -8 5 -15 10 -15 6 0 10 11 10 25 0 25 -1 25 -85 25 -84 0 -85 0 -85 -25z"/>
<path d="M11785 1685 c-34 -33 -35 -102 -2 -133 33 -31 90 -30 122 3 32 31 34 91 4 129 -28 36 -89 37 -124 1z m84 -11 c42 -54 13 -159 -35 -126 -34 23 -46 109 -18 136 21 22 29 20 53 -10z"/>
<path d="M11963 1692 c12 -13 17 -36 17 -72 0 -36 -5 -59 -17 -72 -15 -17 -14 -18 32 -18 47 0 48 1 31 19 -10 11 -16 31 -14 48 3 27 4 27 31 -19 24 -42 32 -48 60 -48 27 1 30 3 17 13 -8 7 -26 27 -39 46 -19 27 -22 39 -15 60 6 16 18 27 32 29 31 5 28 32 -3 32 -19 0 -29 -9 -42 -35 -9 -19 -22 -36 -30 -39 -20 -8 -16 44 5 60 15 12 11 13 -32 14 -47 0 -48 -1 -33 -18z"/>
<path d="M12165 1685 c-34 -33 -35 -102 -2 -133 33 -31 90 -30 122 3 32 31 34 91 4 129 -28 36 -89 37 -124 1z m84 -11 c42 -54 13 -159 -35 -126 -34 23 -46 109 -18 136 21 22 29 20 53 -10z"/>
<path d="M12343 1692 c12 -13 17 -36 17 -72 0 -36 -5 -59 -17 -72 -15 -17 -14 -18 22 -18 36 0 37 1 22 18 -11 12 -17 35 -17 68 l1 49 35 -69 c20 -38 39 -65 44 -60 4 5 20 36 34 69 l25 60 1 -49 c0 -32 -6 -56 -17 -68 -15 -17 -14 -18 32 -18 46 0 47 1 32 18 -24 27 -24 130 1 148 15 12 13 13 -18 14 -34 0 -36 -2 -60 -61 l-24 -61 -30 61 c-28 57 -32 61 -65 61 -32 0 -33 -1 -18 -18z"/>
<path d="M9850 1559 c0 -27 3 -30 28 -27 21 2 28 9 30 31 3 24 0 27 -27 27 -28 0 -31 -3 -31 -31z"/>
<path d="M5046 1311 c-68 -8 -89 -38 -94 -134 -3 -62 -1 -76 18 -99 17 -23 29 -28 65 -28 35 0 48 5 64 26 47 60 13 154 -55 154 -20 0 -44 -5 -55 -10 -24 -13 -25 1 -1 30 11 14 33 23 62 27 45 6 70 18 70 34 0 5 -6 8 -12 7 -7 0 -35 -4 -62 -7z m4 -101 c40 -21 46 -121 9 -141 -59 -31 -108 107 -50 141 20 12 19 12 41 0z"/>
<path d="M6666 1311 c-68 -8 -89 -38 -94 -134 -3 -62 -1 -76 18 -99 17 -23 29 -28 65 -28 35 0 48 5 64 26 47 60 13 154 -55 154 -20 0 -44 -5 -55 -10 -24 -13 -25 1 -1 30 11 14 33 23 62 27 45 6 70 18 70 34 0 5 -6 8 -12 7 -7 0 -35 -4 -62 -7z m4 -101 c40 -21 46 -121 9 -141 -59 -31 -108 107 -50 141 20 12 19 12 41 0z"/>
<path d="M4548 1298 c21 -10 22 -17 22 -120 0 -103 -1 -109 -22 -118 -17 -6 -5 -9 47 -9 52 0 64 3 48 9 -22 9 -23 15 -23 118 0 103 1 110 23 120 18 9 9 11 -48 11 -57 0 -66 -2 -47 -11z"/>
<path d="M3742 1278 c2 -18 11 -24 37 -26 51 -5 81 5 81 28 0 26 -21 25 -44 -2 l-19 -22 -15 22 c-19 29 -44 29 -40 0z"/>
<path d="M23 1212 c23 -25 23 -119 0 -144 -15 -17 -14 -18 31 -18 43 0 46 1 32 16 -12 11 -16 35 -16 85 l0 69 40 0 40 0 0 -67 c0 -48 -5 -72 -17 -85 -15 -17 -14 -18 31 -18 43 0 46 1 32 16 -23 23 -22 132 2 150 14 11 2 13 -87 14 -100 0 -103 -1 -88 -18z"/>
<path d="M242 1207 c-30 -31 -31 -108 -2 -137 40 -40 130 -17 130 33 0 22 -6 21 -30 -3 -11 -11 -24 -20 -29 -20 -16 0 -49 34 -56 58 -6 21 -4 22 54 22 53 0 61 3 61 18 0 51 -89 71 -128 29z m69 -35 c-11 -2 -31 -2 -43 0 l-23 3 24 24 24 24 20 -24 c19 -24 19 -24 -2 -27z"/>
<path d="M408 1223 c-22 -6 -23 -19 -3 -27 23 -8 21 -182 -2 -208 -15 -17 -14 -18 32 -18 46 0 47 1 32 18 -10 10 -17 28 -17 40 0 19 6 22 39 22 31 0 44 6 60 26 25 32 28 100 5 132 -17 25 -71 31 -92 10 -9 -9 -12 -9 -12 0 0 12 -11 13 -42 5z m123 -62 c12 -29 -5 -87 -28 -95 -48 -19 -76 97 -31 128 25 18 44 8 59 -33z"/>
<path d="M612 1207 c-30 -31 -31 -108 -2 -137 40 -40 130 -17 130 33 0 22 -6 21 -30 -3 -11 -11 -24 -20 -29 -20 -16 0 -49 34 -56 58 -6 21 -4 22 54 22 53 0 61 3 61 18 0 51 -89 71 -128 29z m69 -35 c-11 -2 -31 -2 -43 0 l-23 3 24 24 24 24 20 -24 c19 -24 19 -24 -2 -27z"/>
<path d="M773 1212 c12 -13 17 -36 17 -72 0 -36 -5 -59 -17 -72 -15 -17 -14 -18 32 -18 47 0 48 1 31 19 -10 11 -16 31 -14 48 3 27 4 27 31 -19 24 -42 32 -48 60 -48 27 1 30 3 17 13 -8 7 -26 27 -39 46 -19 27 -22 39 -15 60 6 16 18 27 32 29 31 5 28 32 -3 32 -19 0 -29 -9 -42 -35 -9 -19 -22 -36 -30 -39 -20 -8 -16 44 5 60 15 12 11 13 -32 14 -47 0 -48 -1 -33 -18z"/>
<path d="M983 1212 c30 -33 19 -132 -14 -132 -11 0 -19 -7 -19 -15 0 -20 46 -20 54 1 3 9 6 47 6 85 l0 69 30 0 30 0 0 -67 c0 -48 -5 -72 -17 -85 -15 -17 -14 -18 31 -18 43 0 46 1 32 16 -23 23 -22 132 2 150 14 11 5 13 -67 14 -81 0 -83 -1 -68 -18z"/>
<path d="M1153 1212 c12 -13 17 -36 17 -72 0 -36 -5 -59 -17 -72 -15 -17 -14 -18 31 -18 43 0 46 1 32 16 -9 8 -16 29 -16 45 0 22 5 29 20 29 13 0 20 -7 20 -19 0 -10 9 -30 21 -45 29 -36 99 -37 134 -1 35 34 35 96 0 130 -34 35 -96 35 -130 0 -14 -13 -25 -31 -25 -40 0 -8 -9 -15 -20 -15 -26 0 -28 47 -2 66 15 12 11 13 -32 14 -47 0 -48 -1 -33 -18z m199 -12 c29 -22 42 -69 29 -104 -11 -27 -31 -37 -59 -29 -44 11 -64 112 -27 139 24 18 28 18 57 -6z"/>
<path d="M1443 1212 c10 -11 17 -35 17 -57 l0 -38 50 5 c45 5 50 3 50 -15 0 -11 -7 -29 -17 -39 -15 -17 -14 -18 32 -18 46 0 47 1 32 18 -24 27 -24 130 1 148 15 12 11 13 -32 14 -47 0 -48 -1 -33 -18 24 -26 21 -58 -5 -65 -43 -12 -63 30 -31 65 15 17 14 18 -32 18 -46 0 -47 -1 -32 -18z"/>
<path d="M1652 1218 c-17 -17 -15 -48 3 -48 8 0 15 6 15 14 0 7 6 19 14 25 11 9 18 8 30 -4 23 -24 21 -28 -35 -52 -49 -22 -50 -23 -47 -60 3 -35 6 -38 36 -41 18 -2 40 2 48 9 11 9 14 9 14 0 0 -16 52 -10 58 7 2 6 -3 12 -12 12 -12 0 -16 15 -18 73 l-3 72 -45 3 c-26 2 -50 -2 -58 -10z m78 -96 c0 -37 -44 -62 -59 -34 -11 21 -5 34 24 50 30 17 35 15 35 -16z"/>
<path d="M1832 1207 c-30 -31 -31 -108 -2 -137 40 -40 130 -17 130 33 0 22 -6 21 -30 -3 -11 -11 -24 -20 -29 -20 -16 0 -49 34 -56 58 -6 21 -4 22 54 22 53 0 61 3 61 18 0 51 -89 71 -128 29z m69 -35 c-11 -2 -31 -2 -43 0 l-23 3 24 24 24 24 20 -24 c19 -24 19 -24 -2 -27z"/>
<path d="M1983 1212 c12 -13 17 -36 17 -72 0 -36 -5 -59 -17 -72 -15 -17 -14 -18 22 -18 36 0 37 1 22 18 -11 12 -17 35 -17 68 l1 49 35 -69 c20 -38 39 -65 44 -60 4 5 20 36 34 69 l25 60 1 -49 c0 -32 -6 -56 -17 -68 -15 -17 -14 -18 32 -18 46 0 47 1 32 18 -24 27 -24 130 1 148 15 12 13 13 -18 14 -34 0 -36 -2 -60 -61 l-24 -61 -30 61 c-28 57 -32 61 -65 61 -32 0 -33 -1 -18 -18z"/>
<path d="M2233 1212 c12 -13 17 -36 17 -72 0 -36 -5 -59 -17 -72 -15 -17 -13 -18 53 -18 76 0 94 9 94 50 0 36 -17 50 -62 50 -34 0 -38 2 -38 26 0 15 8 33 18 40 15 12 11 13 -32 14 -47 0 -48 -1 -33 -18z m98 -92 l24 -20 -24 -20 c-32 -27 -45 -21 -49 23 -4 43 12 49 49 17z"/>
<path d="M2393 1212 c12 -13 17 -36 17 -72 0 -36 -5 -59 -17 -72 -15 -17 -14 -18 32 -18 46 0 47 1 32 18 -21 23 -24 137 -4 144 20 8 34 -1 62 -38 l26 -34 -30 -39 c-37 -47 -38 -51 -7 -51 18 0 23 4 19 18 -2 10 4 26 15 36 19 17 21 16 36 -5 11 -17 13 -26 4 -36 -8 -10 -1 -13 36 -13 l46 0 -41 52 -41 52 36 33 c20 18 36 35 36 38 0 3 -16 5 -36 5 -28 0 -34 -3 -26 -13 7 -8 6 -18 -4 -31 -14 -20 -14 -20 -29 0 -8 10 -15 25 -15 32 0 8 -23 12 -82 12 -78 0 -80 -1 -65 -18z"/>
<path d="M2784 1196 c43 -63 68 -139 57 -169 -8 -19 -18 -27 -36 -27 -16 0 -25 -6 -25 -15 0 -24 47 -18 64 8 7 12 28 63 47 112 18 50 39 98 47 108 14 16 13 17 -18 17 -25 0 -31 -3 -23 -11 8 -8 7 -23 -4 -55 -8 -24 -18 -44 -22 -44 -5 0 -15 19 -24 42 -12 31 -14 45 -6 55 9 10 3 13 -34 13 l-46 0 23 -34z"/>
<path d="M2992 1207 c-30 -31 -31 -108 -2 -137 40 -40 130 -17 130 33 0 22 -6 21 -30 -3 -25 -25 -32 -25 -61 -1 -30 24 -32 87 -4 107 20 15 45 3 45 -22 0 -8 9 -14 20 -14 23 0 27 29 8 48 -21 21 -82 14 -106 -11z"/>
<path d="M3130 1205 c0 -14 5 -25 10 -25 6 0 10 6 10 14 0 13 20 26 41 26 5 0 9 -30 9 -67 0 -48 -5 -72 -17 -85 -15 -17 -14 -18 33 -18 38 1 45 3 32 11 -25 14 -27 165 -2 155 9 -3 20 -6 25 -6 5 0 9 -7 9 -15 0 -18 17 -20 22 -3 2 6 10 8 16 4 20 -12 16 -185 -5 -208 -15 -17 -14 -18 32 -18 46 0 47 1 32 18 -10 10 -17 28 -17 40 0 19 6 22 39 22 31 0 44 6 60 26 25 32 28 100 5 132 -17 25 -71 31 -92 10 -7 -7 -12 -8 -12 -2 0 6 -46 11 -115 13 l-115 2 0 -26z m311 -44 c12 -29 -5 -87 -28 -95 -48 -19 -76 97 -31 128 25 18 44 8 59 -33z"/>
<path d="M3535 1205 c-34 -33 -35 -102 -2 -133 33 -31 90 -30 122 3 32 31 34 91 4 129 -28 36 -89 37 -124 1z m84 -11 c42 -54 13 -159 -35 -126 -34 23 -46 109 -18 136 21 22 29 20 53 -10z"/>
<path d="M3713 1212 c12 -13 17 -36 17 -72 0 -36 -5 -59 -17 -72 -15 -17 -14 -18 33 -17 27 0 43 3 37 6 -21 8 -15 25 22 72 l35 44 0 -43 c0 -26 -7 -51 -17 -62 -15 -17 -14 -18 31 -18 43 0 46 1 32 16 -23 23 -22 132 2 150 15 12 11 13 -32 14 -42 0 -47 -2 -36 -15 10 -12 6 -23 -21 -59 l-34 -44 -3 45 c-2 34 1 48 15 59 16 12 13 13 -31 14 -47 0 -48 -1 -33 -18z"/>
<path d="M3932 1207 c-30 -31 -31 -108 -2 -137 40 -40 130 -17 130 33 0 22 -6 21 -30 -3 -25 -25 -32 -25 -61 -1 -30 24 -32 87 -4 107 20 15 45 3 45 -22 0 -8 9 -14 20 -14 23 0 27 29 8 48 -21 21 -82 14 -106 -11z"/>
<path d="M4070 1205 c0 -14 5 -25 10 -25 6 0 10 6 10 14 0 13 20 26 41 26 5 0 9 -30 9 -67 0 -48 -5 -72 -17 -85 -15 -17 -14 -18 33 -18 38 1 45 3 32 11 -25 14 -27 165 -2 155 9 -3 20 -6 25 -6 5 0 9 -7 9 -15 0 -8 5 -15 10 -15 6 0 10 10 10 21 0 18 2 19 15 9 21 -18 20 -118 -2 -142 -15 -17 -13 -18 58 -18 45 0 80 5 87 12 18 18 15 65 -5 77 -10 6 -12 11 -5 11 15 0 16 52 0 68 -8 8 -59 12 -165 12 l-153 0 0 -25z m292 -8 c9 -13 -26 -47 -48 -47 -9 0 -14 12 -14 36 0 34 1 36 27 29 15 -3 31 -12 35 -18z m6 -85 c11 -14 10 -20 -9 -35 -34 -27 -53 -18 -57 27 -3 38 -3 38 25 32 15 -4 34 -15 41 -24z"/>
<path d="M5144 1196 c43 -63 68 -139 57 -169 -8 -19 -18 -27 -36 -27 -16 0 -25 -6 -25 -15 0 -24 47 -18 64 8 7 12 28 63 47 112 18 50 39 98 47 108 14 16 13 17 -18 17 -25 0 -31 -3 -23 -11 8 -8 7 -23 -4 -55 -8 -24 -18 -44 -22 -44 -5 0 -15 19 -24 42 -12 31 -14 45 -6 55 9 10 3 13 -34 13 l-46 0 23 -34z"/>
<path d="M5360 1220 c0 -5 4 -10 9 -10 28 0 11 -113 -20 -133 -13 -8 -19 -23 -19 -46 l0 -34 26 28 c22 24 31 27 71 22 33 -3 52 -12 64 -28 l19 -24 0 31 c0 17 -7 37 -15 44 -21 18 -20 118 2 142 15 17 13 18 -60 18 -45 0 -77 -4 -77 -10z m90 -64 c0 -84 -5 -96 -42 -96 -25 0 -29 3 -23 18 5 9 10 45 13 80 4 57 6 62 28 62 23 0 24 -3 24 -64z"/>
<path d="M5552 1207 c-30 -31 -31 -108 -2 -137 40 -40 130 -17 130 33 0 22 -6 21 -30 -3 -11 -11 -24 -20 -29 -20 -16 0 -49 34 -56 58 -6 21 -4 22 54 22 53 0 61 3 61 18 0 51 -89 71 -128 29z m69 -35 c-11 -2 -31 -2 -43 0 l-23 3 24 24 24 24 20 -24 c19 -24 19 -24 -2 -27z"/>
<path d="M5700 1205 c0 -14 5 -25 10 -25 6 0 10 6 10 14 0 13 20 26 41 26 5 0 9 -30 9 -67 0 -48 -5 -72 -17 -85 -15 -17 -14 -18 33 -18 38 1 45 3 32 11 -25 14 -27 165 -2 155 9 -3 20 -6 25 -6 5 0 9 -7 9 -15 0 -8 5 -15 10 -15 6 0 10 11 10 25 0 25 -1 25 -85 25 -84 0 -85 0 -85 -25z"/>
<path d="M5993 1212 c12 -13 17 -36 17 -72 0 -36 -5 -59 -17 -72 -15 -17 -14 -18 32 -18 46 0 47 1 32 18 -10 10 -17 31 -17 45 0 25 3 27 40 27 37 0 40 -2 40 -27 0 -14 -7 -35 -16 -44 -16 -18 -13 -18 67 -18 46 0 90 5 96 11 9 7 13 7 13 -1 0 -16 52 -10 58 7 2 6 -3 12 -12 12 -12 0 -16 15 -18 73 l-3 72 -43 3 c-24 2 -50 -2 -58 -9 -19 -15 -18 -49 1 -49 8 0 15 6 15 14 0 7 6 19 14 25 11 9 18 8 30 -4 23 -24 21 -28 -34 -52 -47 -20 -50 -24 -50 -59 0 -31 -2 -35 -15 -24 -21 18 -20 118 2 142 15 17 14 18 -32 18 -46 0 -47 -1 -32 -18 10 -10 17 -28 17 -40 0 -19 -6 -22 -40 -22 -34 0 -40 3 -40 22 0 12 7 30 17 40 15 17 14 18 -32 18 -46 0 -47 -1 -32 -18z m287 -90 c0 -37 -44 -62 -59 -34 -11 21 -5 34 24 50 30 17 35 15 35 -16z"/>
<path d="M6363 1212 c12 -13 17 -36 17 -72 0 -36 -5 -59 -17 -72 -15 -17 -14 -18 33 -17 27 0 43 3 37 6 -21 8 -15 25 22 72 l35 44 0 -43 c0 -26 -7 -51 -17 -62 -15 -17 -14 -18 31 -18 43 0 46 1 32 16 -23 23 -22 132 2 150 15 12 11 13 -32 14 -42 0 -47 -2 -36 -15 10 -12 6 -23 -21 -59 l-34 -44 -3 45 c-2 34 1 48 15 59 16 12 13 13 -31 14 -47 0 -48 -1 -33 -18z"/>
<path d="M6785 1205 c-34 -33 -35 -102 -2 -133 33 -31 90 -30 122 3 32 31 34 91 4 129 -28 36 -89 37 -124 1z m84 -11 c42 -54 13 -159 -35 -126 -34 23 -46 109 -18 136 21 22 29 20 53 -10z"/>
<path d="M6993 1212 c30 -33 19 -132 -14 -132 -11 0 -19 -7 -19 -15 0 -20 46 -20 54 1 3 9 6 47 6 85 l0 69 30 0 30 0 0 -67 c0 -48 -5 -72 -17 -85 -15 -17 -14 -18 31 -18 43 0 46 1 32 16 -23 23 -22 132 2 150 14 11 5 13 -67 14 -81 0 -83 -1 -68 -18z"/>
<path d="M7163 1212 c12 -13 17 -36 17 -72 0 -36 -5 -59 -17 -72 -15 -17 -13 -18 53 -18 76 0 94 9 94 50 0 36 -17 50 -62 50 -34 0 -38 2 -38 26 0 15 8 33 18 40 15 12 11 13 -32 14 -47 0 -48 -1 -33 -18z m98 -92 l24 -20 -24 -20 c-32 -27 -45 -21 -49 23 -4 43 12 49 49 17z"/>
<path d="M7343 1212 c12 -13 17 -36 17 -72 0 -36 -5 -59 -17 -72 -16 -17 -11 -18 132 -18 143 0 148 1 132 18 -24 27 -24 130 1 148 15 12 11 13 -32 14 -47 0 -48 -1 -33 -18 12 -13 17 -36 17 -73 0 -65 -9 -82 -41 -77 -22 3 -24 8 -27 67 -2 49 1 68 14 82 17 18 15 19 -31 19 -46 0 -47 -1 -32 -18 12 -13 17 -36 17 -73 0 -65 -9 -82 -41 -77 -22 3 -24 8 -27 72 -2 56 0 70 15 82 16 12 13 13 -31 14 -47 0 -48 -1 -33 -18z"/>
<path d="M7652 1207 c-30 -31 -31 -108 -2 -137 40 -40 130 -17 130 33 0 22 -6 21 -30 -3 -11 -11 -24 -20 -29 -20 -16 0 -49 34 -56 58 -6 21 -4 22 54 22 53 0 61 3 61 18 0 51 -89 71 -128 29z m69 -35 c-11 -2 -31 -2 -43 0 l-23 3 24 24 24 24 20 -24 c19 -24 19 -24 -2 -27z"/>
<path d="M7822 1207 c-30 -31 -31 -108 -2 -137 40 -40 130 -17 130 33 0 22 -6 21 -30 -3 -11 -11 -24 -20 -29 -20 -16 0 -49 34 -56 58 -6 21 -4 22 54 22 53 0 61 3 61 18 0 51 -89 71 -128 29z m69 -35 c-11 -2 -31 -2 -43 0 l-23 3 24 24 24 24 20 -24 c19 -24 19 -24 -2 -27z"/>
<path d="M8070 1205 c0 -30 4 -31 30 -5 11 11 26 17 35 14 22 -9 18 -39 -7 -57 l-23 -15 26 -10 c60 -24 28 -79 -34 -61 -41 12 -42 12 -27 -6 15 -18 101 -20 118 -3 21 21 15 66 -10 74 -19 6 -19 7 -5 16 20 11 22 49 5 66 -7 7 -34 12 -60 12 -45 0 -48 -2 -48 -25z"/>
<path d="M8233 1212 c12 -13 17 -36 17 -72 0 -36 -5 -59 -17 -72 -15 -17 -14 -18 32 -18 46 0 47 1 32 18 -10 10 -17 31 -17 45 0 25 3 27 40 27 37 0 40 -2 40 -27 0 -14 -7 -35 -17 -45 -15 -17 -14 -18 32 -18 46 0 47 1 32 18 -12 13 -17 36 -17 72 0 36 5 59 17 72 15 17 14 18 -32 18 -46 0 -47 -1 -32 -18 10 -10 17 -28 17 -40 0 -19 -6 -22 -40 -22 -34 0 -40 3 -40 22 0 12 7 30 17 40 15 17 14 18 -32 18 -46 0 -47 -1 -32 -18z"/>
<path d="M8452 1218 c-17 -17 -15 -48 3 -48 8 0 15 6 15 14 0 7 6 19 14 25 11 9 18 8 30 -4 23 -24 21 -28 -35 -52 -49 -22 -50 -23 -47 -60 3 -35 6 -38 36 -41 18 -2 40 2 48 9 11 9 14 9 14 0 0 -16 52 -10 58 7 2 6 -3 12 -12 12 -12 0 -16 15 -18 73 l-3 72 -45 3 c-26 2 -50 -2 -58 -10z m78 -96 c0 -37 -44 -62 -59 -34 -11 21 -5 34 24 50 30 17 35 15 35 -16z"/>
<path d="M8603 1212 c10 -11 17 -35 17 -57 l0 -38 50 5 c45 5 50 3 50 -15 0 -11 -7 -29 -17 -39 -15 -17 -14 -18 32 -18 46 0 47 1 32 18 -24 27 -24 130 1 148 15 12 11 13 -32 14 -47 0 -48 -1 -33 -18 24 -26 21 -58 -5 -65 -43 -12 -63 30 -31 65 15 17 14 18 -32 18 -46 0 -47 -1 -32 -18z"/>
<path d="M8822 1207 c-30 -31 -31 -108 -2 -137 40 -40 130 -17 130 33 0 22 -6 21 -30 -3 -11 -11 -24 -20 -29 -20 -16 0 -49 34 -56 58 -6 21 -4 22 54 22 53 0 61 3 61 18 0 51 -89 71 -128 29z m69 -35 c-11 -2 -31 -2 -43 0 l-23 3 24 24 24 24 20 -24 c19 -24 19 -24 -2 -27z"/>
<path d="M8983 1212 c12 -13 17 -36 17 -72 0 -36 -5 -59 -17 -72 -15 -17 -14 -18 32 -18 46 0 47 1 32 18 -10 10 -17 31 -17 45 0 25 3 27 40 27 37 0 40 -2 40 -27 0 -14 -7 -35 -17 -45 -15 -17 -14 -18 32 -18 46 0 47 1 32 18 -12 13 -17 36 -17 72 0 36 5 59 17 72 15 17 14 18 -32 18 -46 0 -47 -1 -32 -18 10 -10 17 -28 17 -40 0 -19 -6 -22 -40 -22 -34 0 -40 3 -40 22 0 12 7 30 17 40 15 17 14 18 -32 18 -46 0 -47 -1 -32 -18z"/>
<path d="M9193 1212 c12 -13 17 -36 17 -72 0 -36 -5 -59 -17 -72 -15 -17 -14 -18 33 -17 27 0 43 3 37 6 -21 8 -15 25 22 72 l35 44 0 -43 c0 -26 -7 -51 -17 -62 -15 -17 -14 -18 31 -18 43 0 46 1 32 16 -23 23 -22 132 2 150 15 12 11 13 -32 14 -42 0 -47 -2 -36 -15 10 -12 6 -23 -21 -59 l-34 -44 -3 45 c-2 34 1 48 15 59 16 12 13 13 -31 14 -47 0 -48 -1 -33 -18z"/>
<path d="M9412 1207 c-30 -31 -31 -108 -2 -137 40 -40 130 -17 130 33 0 22 -6 21 -30 -3 -11 -11 -24 -20 -29 -20 -16 0 -49 34 -56 58 -6 21 -4 22 54 22 53 0 61 3 61 18 0 51 -89 71 -128 29z m69 -35 c-11 -2 -31 -2 -43 0 l-23 3 24 24 24 24 20 -24 c19 -24 19 -24 -2 -27z"/>
<path d="M9650 1205 c0 -14 5 -25 10 -25 6 0 10 6 10 14 0 13 20 26 41 26 5 0 9 -30 9 -67 0 -48 -5 -72 -17 -85 -15 -17 -14 -18 33 -18 38 1 45 3 32 11 -25 14 -27 165 -2 155 9 -3 20 -6 25 -6 5 0 9 -7 9 -15 0 -8 5 -15 10 -15 6 0 10 11 10 25 0 25 -1 25 -85 25 -84 0 -85 0 -85 -25z"/>
<path d="M9845 1205 c-34 -33 -35 -102 -2 -133 33 -31 90 -30 122 3 32 31 34 91 4 129 -28 36 -89 37 -124 1z m84 -11 c42 -54 13 -159 -35 -126 -34 23 -46 109 -18 136 21 22 29 20 53 -10z"/>
<path d="M10033 1212 c12 -13 17 -36 17 -72 0 -36 -5 -59 -17 -72 -15 -17 -14 -18 32 -18 47 0 48 1 31 19 -10 11 -16 31 -14 48 3 27 4 27 31 -19 24 -42 32 -48 60 -48 27 1 30 3 17 13 -8 7 -26 27 -39 46 -19 27 -22 39 -15 60 6 16 18 27 32 29 31 5 28 32 -3 32 -19 0 -29 -9 -42 -35 -9 -19 -22 -36 -30 -39 -20 -8 -16 44 5 60 15 12 11 13 -32 14 -47 0 -48 -1 -33 -18z"/>
<path d="M10232 1218 c-17 -17 -15 -48 3 -48 8 0 15 6 15 14 0 7 6 19 14 25 11 9 18 8 30 -4 23 -24 21 -28 -35 -52 -49 -22 -50 -23 -47 -60 3 -35 6 -38 36 -41 18 -2 40 2 48 9 11 9 14 9 14 0 0 -16 52 -10 58 7 2 6 -3 12 -12 12 -12 0 -16 15 -18 73 l-3 72 -45 3 c-26 2 -50 -2 -58 -10z m78 -96 c0 -37 -44 -62 -59 -34 -11 21 -5 34 24 50 30 17 35 15 35 -16z"/>
<path d="M4698 1159 c-21 -12 -37 -67 -31 -103 7 -34 82 -93 130 -102 37 -7 57 2 27 12 -40 15 -45 25 -20 45 13 10 27 30 30 45 9 34 -10 91 -34 104 -24 13 -80 12 -102 -1z m82 -19 c24 -24 26 -77 4 -108 -35 -50 -92 -4 -81 66 6 33 28 62 49 62 4 0 17 -9 28 -20z"/>
<path d="M3356 821 c-68 -8 -89 -38 -94 -134 -3 -62 -1 -76 18 -99 17 -23 29 -28 65 -28 35 0 48 5 64 26 47 60 13 154 -55 154 -20 0 -44 -5 -55 -10 -24 -13 -25 1 -1 30 11 14 33 23 62 27 45 6 70 18 70 34 0 5 -6 8 -12 7 -7 0 -35 -4 -62 -7z m4 -101 c40 -21 46 -121 9 -141 -59 -31 -108 107 -50 141 20 12 19 12 41 0z"/>
<path d="M5568 823 c-22 -6 -23 -19 -3 -27 8 -3 15 -18 15 -34 0 -26 -2 -28 -34 -24 -44 5 -66 -25 -66 -88 0 -61 21 -90 66 -90 28 0 34 -4 34 -22 0 -12 -7 -30 -17 -40 -15 -17 -14 -18 33 -18 38 1 45 3 32 11 -11 6 -18 22 -18 39 0 26 4 30 29 30 39 0 61 32 61 90 0 61 -23 93 -61 88 -29 -4 -29 -4 -29 44 0 49 -3 51 -42 41z m-4 -109 c24 -24 22 -120 -3 -133 -14 -8 -22 -7 -32 6 -18 20 -17 106 0 127 16 20 16 20 35 0z m100 -62 c1 -56 -18 -89 -40 -71 -18 14 -19 120 -2 137 21 21 41 -11 42 -66z"/>
<path d="M11660 824 c0 -3 11 -19 25 -35 30 -36 39 -79 33 -164 -3 -55 -8 -69 -33 -95 -33 -34 -29 -49 7 -26 38 25 69 89 70 145 0 61 -8 87 -39 128 -23 31 -63 61 -63 47z"/>
<path d="M7409 780 c-23 -24 -41 -54 -45 -75 -10 -55 1 -133 23 -163 25 -34 71 -68 80 -59 4 4 -3 14 -15 23 -72 50 -78 209 -11 276 32 33 35 38 17 38 -6 0 -28 -18 -49 -40z"/>
<path d="M8195 796 c-47 -47 -26 -100 56 -142 39 -19 50 -30 47 -46 -8 -53 -80 -44 -101 12 -17 44 -27 37 -27 -17 l0 -48 62 -3 c68 -3 103 13 118 53 16 42 -6 83 -59 110 -56 28 -74 47 -65 69 14 35 67 14 101 -40 10 -16 12 -13 12 26 l1 46 -60 2 c-53 2 -64 -1 -85 -22z"/>
<path d="M8486 812 c-2 -4 -23 -55 -46 -112 -23 -58 -49 -113 -57 -122 -15 -17 -13 -18 28 -18 37 1 41 3 28 13 -12 9 -14 18 -8 35 7 18 16 22 48 22 32 0 41 -4 47 -22 4 -15 1 -25 -12 -35 -15 -11 5 -13 133 -13 l151 0 7 36 c8 43 2 52 -20 30 -9 -9 -33 -16 -53 -16 l-36 0 46 44 c56 54 69 96 41 135 -14 18 -31 27 -55 29 -29 3 -40 -2 -62 -28 -14 -17 -26 -36 -26 -41 0 -14 16 -11 30 6 19 22 49 18 61 -9 13 -29 -8 -74 -65 -136 -47 -53 -48 -52 -111 98 -44 104 -56 124 -69 104z m-3 -160 c-33 -5 -35 -1 -22 38 l12 33 18 -34 17 -34 -25 -3z"/>
<path d="M9228 808 c21 -10 22 -17 22 -120 0 -103 -1 -109 -22 -118 -17 -6 -5 -9 47 -9 52 0 64 3 48 9 -22 9 -23 15 -23 118 0 103 1 110 23 120 18 9 9 11 -48 11 -57 0 -66 -2 -47 -11z"/>
<path d="M10365 796 c-47 -47 -26 -100 56 -142 39 -19 50 -30 47 -46 -8 -53 -80 -44 -101 12 -17 44 -27 37 -27 -17 l0 -48 62 -3 c68 -3 103 13 118 53 16 42 -6 83 -59 110 -56 28 -74 47 -65 69 14 35 67 14 101 -40 10 -16 12 -13 12 26 l1 46 -60 2 c-53 2 -64 -1 -85 -22z"/>
<path d="M10666 812 c-2 -4 -23 -55 -46 -112 -23 -58 -49 -113 -57 -122 -15 -17 -13 -18 28 -18 37 1 41 3 28 13 -12 9 -14 18 -8 35 7 18 16 22 48 22 32 0 41 -4 47 -22 4 -15 1 -25 -12 -35 -15 -11 -9 -13 51 -13 64 0 67 1 53 18 -9 9 -37 68 -63 130 -44 104 -57 124 -69 104z m-3 -160 c-33 -5 -35 -1 -22 38 l12 33 18 -34 17 -34 -25 -3z"/>
<path d="M10870 739 c-34 -46 -60 -91 -60 -105 0 -22 4 -24 50 -24 47 0 50 -2 50 -25 0 -21 5 -25 30 -25 25 0 30 4 30 25 0 14 5 25 10 25 6 0 10 11 10 25 0 14 -4 25 -10 25 -6 0 -10 33 -10 80 0 73 -2 80 -20 80 -14 0 -40 -27 -80 -81z m40 -34 c0 -43 -1 -45 -30 -45 -16 0 -30 2 -30 5 0 7 52 85 56 85 2 0 4 -20 4 -45z"/>
<path d="M11408 808 c21 -10 22 -17 22 -120 0 -103 -1 -109 -22 -118 -17 -6 -5 -9 47 -9 52 0 64 3 48 9 -22 9 -23 15 -23 118 0 103 1 110 23 120 18 9 9 11 -48 11 -57 0 -66 -2 -47 -11z"/>
<path d="M2792 788 c2 -18 11 -24 37 -26 51 -5 81 5 81 28 0 26 -21 25 -44 -2 l-19 -22 -15 22 c-19 29 -44 29 -40 0z"/>
<path d="M32 717 c-30 -31 -31 -108 -2 -137 40 -40 130 -17 130 33 0 22 -6 21 -30 -3 -25 -25 -32 -25 -61 -1 -30 24 -32 87 -4 107 20 15 45 3 45 -22 0 -8 9 -14 20 -14 23 0 27 29 8 48 -21 21 -82 14 -106 -11z"/>
<path d="M215 715 c-34 -33 -35 -102 -2 -133 33 -31 90 -30 122 3 32 31 34 91 4 129 -28 36 -89 37 -124 1z m84 -11 c42 -54 13 -159 -35 -126 -34 23 -46 109 -18 136 21 22 29 20 53 -10z"/>
<path d="M405 715 c-34 -33 -35 -102 -2 -133 33 -31 90 -30 122 3 32 31 34 91 4 129 -28 36 -89 37 -124 1z m84 -11 c42 -54 13 -159 -35 -126 -34 23 -46 109 -18 136 21 22 29 20 53 -10z"/>
<path d="M570 715 c0 -14 5 -25 10 -25 6 0 10 6 10 14 0 13 20 26 41 26 5 0 9 -30 9 -67 0 -48 -5 -72 -17 -85 -15 -17 -14 -18 33 -18 38 1 45 3 32 11 -25 14 -27 165 -2 155 9 -3 20 -6 25 -6 5 0 9 -7 9 -15 0 -8 5 -15 10 -15 6 0 10 10 10 21 0 18 2 19 15 9 21 -18 20 -118 -2 -142 -15 -17 -13 -18 58 -18 45 0 80 5 87 12 18 18 15 65 -5 77 -10 6 -12 11 -5 11 15 0 16 52 0 68 -8 8 -59 12 -165 12 l-153 0 0 -25z m292 -8 c9 -13 -26 -47 -48 -47 -9 0 -14 12 -14 36 0 34 1 36 27 29 15 -3 31 -12 35 -18z m6 -85 c11 -14 10 -20 -9 -35 -34 -27 -53 -18 -57 27 -3 38 -3 38 25 32 15 -4 34 -15 41 -24z"/>
<path d="M952 717 c-30 -31 -31 -108 -2 -137 40 -40 130 -17 130 33 0 22 -6 21 -30 -3 -11 -11 -24 -20 -29 -20 -16 0 -49 34 -56 58 -6 21 -4 22 54 22 53 0 61 3 61 18 0 51 -89 71 -128 29z m69 -35 c-11 -2 -31 -2 -43 0 l-23 3 24 24 24 24 20 -24 c19 -24 19 -24 -2 -27z"/>
<path d="M1090 715 c0 -14 5 -25 10 -25 6 0 10 6 10 14 0 13 20 26 41 26 5 0 9 -30 9 -67 0 -48 -5 -72 -17 -85 -15 -17 -14 -18 33 -18 38 1 45 3 32 11 -25 14 -27 165 -2 155 9 -3 20 -6 25 -6 5 0 9 -7 9 -15 0 -8 5 -15 10 -15 6 0 10 11 10 25 0 25 -1 25 -85 25 -84 0 -85 0 -85 -25z"/>
<path d="M1292 717 c-30 -31 -31 -108 -2 -137 40 -40 130 -17 130 33 0 22 -6 21 -30 -3 -25 -25 -32 -25 -61 -1 -30 24 -32 87 -4 107 20 15 45 3 45 -22 0 -8 9 -14 20 -14 23 0 27 29 8 48 -21 21 -82 14 -106 -11z"/>
<path d="M1440 715 c0 -14 5 -25 10 -25 6 0 10 6 10 14 0 13 20 26 41 26 5 0 9 -30 9 -67 0 -48 -5 -72 -17 -85 -15 -17 -14 -18 33 -18 38 1 45 3 32 11 -25 14 -27 165 -2 155 9 -3 20 -6 25 -6 5 0 9 -7 9 -15 0 -8 5 -15 10 -15 6 0 10 10 10 21 0 18 2 19 15 9 21 -18 20 -118 -2 -142 -15 -17 -13 -18 58 -18 45 0 80 5 87 12 18 18 15 65 -5 77 -10 6 -12 11 -5 11 15 0 16 52 0 68 -8 8 -59 12 -165 12 l-153 0 0 -25z m292 -8 c9 -13 -26 -47 -48 -47 -9 0 -14 12 -14 36 0 34 1 36 27 29 15 -3 31 -12 35 -18z m6 -85 c11 -14 10 -20 -9 -35 -34 -27 -53 -18 -57 27 -3 38 -3 38 25 32 15 -4 34 -15 41 -24z"/>
<path d="M1804 706 c43 -63 68 -139 57 -169 -8 -19 -18 -27 -36 -27 -16 0 -25 -6 -25 -15 0 -24 47 -18 64 8 7 12 28 63 47 112 18 50 39 98 47 108 14 16 13 17 -18 17 -25 0 -31 -3 -23 -11 8 -8 7 -23 -4 -55 -8 -24 -18 -44 -22 -44 -5 0 -15 19 -24 42 -12 31 -14 45 -6 55 9 10 3 13 -34 13 l-46 0 23 -34z"/>
<path d="M1993 722 c12 -13 17 -36 17 -72 0 -36 -5 -59 -17 -72 -15 -17 -14 -18 31 -18 43 0 46 1 32 16 -9 8 -16 29 -16 45 0 22 5 29 20 29 13 0 20 -7 20 -19 0 -10 9 -30 21 -45 17 -21 29 -26 65 -26 61 0 94 32 94 90 0 56 -34 90 -90 90 -43 0 -90 -33 -90 -65 0 -8 -9 -15 -20 -15 -26 0 -28 47 -2 66 15 12 11 13 -32 14 -47 0 -48 -1 -33 -18z m199 -12 c29 -22 42 -69 29 -104 -11 -27 -31 -37 -59 -29 -44 11 -64 112 -27 139 24 18 28 18 57 -6z"/>
<path d="M2293 722 c23 -26 23 -124 0 -143 -14 -12 1 -15 111 -19 121 -5 128 -6 146 -30 l20 -25 0 31 c0 17 -7 37 -15 44 -23 19 -21 128 3 146 15 12 11 13 -32 14 -47 0 -48 -1 -33 -18 12 -13 17 -36 17 -73 0 -65 -9 -82 -41 -77 -22 3 -24 8 -27 67 -2 49 1 68 14 82 17 18 15 19 -31 19 -46 0 -47 -1 -32 -18 12 -13 17 -36 17 -73 0 -65 -9 -82 -41 -77 -22 3 -24 8 -27 72 -2 56 0 70 15 82 16 12 13 13 -31 14 -47 0 -48 -1 -33 -18z"/>
<path d="M2602 717 c-30 -31 -31 -108 -2 -137 40 -40 130 -17 130 33 0 22 -6 21 -30 -3 -11 -11 -24 -20 -29 -20 -16 0 -49 34 -56 58 -6 21 -4 22 54 22 53 0 61 3 61 18 0 51 -89 71 -128 29z m69 -35 c-11 -2 -31 -2 -43 0 l-23 3 24 24 24 24 20 -24 c19 -24 19 -24 -2 -27z"/>
<path d="M2763 722 c12 -13 17 -36 17 -72 0 -36 -5 -59 -17 -72 -15 -17 -14 -18 33 -17 27 0 43 3 37 6 -21 8 -15 25 22 72 l35 44 0 -43 c0 -26 -7 -51 -17 -62 -15 -17 -14 -18 31 -18 43 0 46 1 32 16 -23 23 -22 132 2 150 15 12 11 13 -32 14 -42 0 -47 -2 -36 -15 10 -12 6 -23 -21 -59 l-34 -44 -3 45 c-2 34 1 48 15 59 16 12 13 13 -31 14 -47 0 -48 -1 -33 -18z"/>
<path d="M3085 715 c-34 -33 -35 -102 -2 -133 33 -31 90 -30 122 3 32 31 34 91 4 129 -28 36 -89 37 -124 1z m84 -11 c42 -54 13 -159 -35 -126 -34 23 -46 109 -18 136 21 22 29 20 53 -10z"/>
<path d="M3453 722 c12 -13 17 -36 17 -72 0 -36 -5 -59 -17 -72 -15 -17 -14 -18 22 -18 36 0 37 1 22 18 -11 12 -17 35 -17 68 l1 49 35 -69 c20 -38 39 -65 44 -60 4 5 20 36 34 69 l25 60 1 -49 c0 -32 -6 -56 -17 -68 -15 -17 -14 -18 32 -18 46 0 47 1 32 18 -24 27 -24 130 1 148 15 12 13 13 -18 14 -34 0 -36 -2 -60 -61 l-24 -61 -30 61 c-28 57 -32 61 -65 61 -32 0 -33 -1 -18 -18z"/>
<path d="M3725 715 c-34 -33 -35 -102 -2 -133 33 -31 90 -30 122 3 32 31 34 91 4 129 -28 36 -89 37 -124 1z m84 -11 c42 -54 13 -159 -35 -126 -34 23 -46 109 -18 136 21 22 29 20 53 -10z"/>
<path d="M3890 715 c0 -14 5 -25 10 -25 6 0 10 6 10 14 0 13 20 26 41 26 5 0 9 -30 9 -67 0 -48 -5 -72 -17 -85 -15 -17 -14 -18 33 -18 38 1 45 3 32 11 -25 14 -27 165 -2 155 9 -3 20 -6 25 -6 5 0 9 -7 9 -15 0 -8 5 -15 10 -15 6 0 10 10 10 21 0 18 2 19 15 9 21 -18 20 -118 -2 -142 -15 -17 -14 -18 32 -18 47 0 48 1 31 19 -10 11 -16 31 -14 48 3 27 4 27 31 -19 24 -42 32 -48 60 -48 27 1 30 3 17 13 -8 7 -26 27 -39 46 -19 27 -22 39 -15 60 6 16 18 27 32 29 31 5 28 32 -3 32 -19 0 -29 -9 -42 -35 -9 -19 -22 -36 -30 -39 -20 -8 -16 44 5 60 14 11 -3 13 -115 14 l-133 0 0 -25z"/>
<path d="M4263 722 c12 -13 17 -36 17 -72 0 -36 -5 -59 -17 -72 -15 -17 -14 -18 33 -17 27 0 43 3 37 6 -21 8 -15 25 22 72 l35 44 0 -43 c0 -26 -7 -51 -17 -62 -15 -17 -14 -18 31 -18 43 0 46 1 32 16 -23 23 -22 132 2 150 15 12 11 13 -32 14 -42 0 -47 -2 -36 -15 10 -12 6 -23 -21 -59 l-34 -44 -3 45 c-2 34 1 48 15 59 16 12 13 13 -31 14 -47 0 -48 -1 -33 -18z"/>
<path d="M4550 715 c0 -14 5 -25 10 -25 6 0 10 6 10 14 0 13 20 26 41 26 5 0 9 -30 9 -67 0 -48 -5 -72 -17 -85 -15 -17 -14 -18 33 -18 38 1 45 3 32 11 -25 14 -27 165 -2 155 9 -3 20 -6 25 -6 5 0 9 -7 9 -15 0 -18 17 -20 22 -3 2 6 10 8 16 4 20 -12 16 -185 -5 -208 -15 -17 -14 -18 32 -18 46 0 47 1 32 18 -10 10 -17 28 -17 40 0 19 6 22 39 22 31 0 44 6 60 26 25 32 28 100 5 132 -17 25 -71 31 -92 10 -7 -7 -12 -8 -12 -2 0 6 -46 11 -115 13 l-115 2 0 -26z m311 -44 c12 -29 -5 -87 -28 -95 -48 -19 -76 97 -31 128 25 18 44 8 59 -33z"/>
<path d="M4942 728 c-17 -17 -15 -48 3 -48 8 0 15 6 15 14 0 7 6 19 14 25 11 9 18 8 30 -4 23 -24 21 -28 -35 -52 -49 -22 -50 -23 -47 -60 3 -35 6 -38 36 -41 18 -2 40 2 48 9 11 9 14 9 14 0 0 -16 52 -10 58 7 2 6 -3 12 -12 12 -12 0 -16 15 -18 73 l-3 72 -45 3 c-26 2 -50 -2 -58 -10z m78 -96 c0 -37 -44 -62 -59 -34 -11 21 -5 34 24 50 30 17 35 15 35 -16z"/>
<path d="M5103 722 c12 -13 17 -36 17 -72 0 -36 -5 -59 -17 -72 -15 -17 -14 -18 32 -18 46 0 47 1 32 18 -10 10 -17 31 -17 45 0 25 3 27 40 27 37 0 40 -2 40 -27 0 -14 -7 -35 -17 -45 -15 -17 -14 -18 32 -18 46 0 47 1 32 18 -12 13 -17 36 -17 72 0 36 5 59 17 72 15 17 14 18 -32 18 -46 0 -47 -1 -32 -18 10 -10 17 -28 17 -40 0 -19 -6 -22 -40 -22 -34 0 -40 3 -40 22 0 12 7 30 17 40 15 17 14 18 -32 18 -46 0 -47 -1 -32 -18z"/>
<path d="M5322 717 c-30 -31 -31 -108 -2 -137 40 -40 130 -17 130 33 0 22 -6 21 -30 -3 -25 -25 -32 -25 -61 -1 -30 24 -32 87 -4 107 20 15 45 3 45 -22 0 -8 9 -14 20 -14 23 0 27 29 8 48 -21 21 -82 14 -106 -11z"/>
<path d="M5745 715 c-34 -33 -35 -102 -2 -133 33 -31 90 -30 122 3 32 31 34 91 4 129 -28 36 -89 37 -124 1z m84 -11 c42 -54 13 -159 -35 -126 -34 23 -46 109 -18 136 21 22 29 20 53 -10z"/>
<path d="M5928 733 c-22 -6 -23 -19 -3 -27 23 -8 21 -182 -2 -208 -15 -17 -14 -18 32 -18 46 0 47 1 32 18 -10 10 -17 28 -17 40 0 19 6 22 39 22 31 0 44 6 60 26 25 32 28 100 5 132 -17 25 -71 31 -92 10 -9 -9 -12 -9 -12 0 0 12 -11 13 -42 5z m123 -62 c12 -29 -5 -87 -28 -95 -48 -19 -76 97 -31 128 25 18 44 8 59 -33z"/>
<path d="M6113 722 c12 -13 17 -36 17 -72 0 -36 -5 -59 -17 -72 -15 -17 -14 -18 22 -18 36 0 37 1 22 18 -11 12 -17 35 -17 68 l1 49 35 -69 c20 -38 39 -65 44 -60 4 5 20 36 34 69 l25 60 1 -49 c0 -32 -6 -56 -17 -68 -15 -17 -14 -18 32 -18 46 0 47 1 32 18 -24 27 -24 130 1 148 15 12 13 13 -18 14 -34 0 -36 -2 -60 -61 l-24 -61 -30 61 c-28 57 -32 61 -65 61 -32 0 -33 -1 -18 -18z"/>
<path d="M6382 728 c-17 -17 -15 -48 3 -48 8 0 15 6 15 14 0 7 6 19 14 25 11 9 18 8 30 -4 23 -24 21 -28 -35 -52 -49 -22 -50 -23 -47 -60 3 -35 6 -38 36 -41 18 -2 40 2 48 9 11 9 14 9 14 0 0 -16 52 -10 58 7 2 6 -3 12 -12 12 -12 0 -16 15 -18 73 l-3 72 -45 3 c-26 2 -50 -2 -58 -10z m78 -96 c0 -37 -44 -62 -59 -34 -11 21 -5 34 24 50 30 17 35 15 35 -16z"/>
<path d="M6520 715 c0 -14 5 -25 10 -25 6 0 10 6 10 14 0 13 20 26 41 26 5 0 9 -30 9 -67 0 -48 -5 -72 -17 -85 -15 -17 -14 -18 33 -18 38 1 45 3 32 11 -25 14 -27 165 -2 155 9 -3 20 -6 25 -6 5 0 9 -7 9 -15 0 -8 5 -15 10 -15 6 0 10 11 10 25 0 25 -1 25 -85 25 -84 0 -85 0 -85 -25z"/>
<path d="M6725 715 c-34 -33 -35 -102 -2 -133 33 -31 90 -30 122 3 32 31 34 91 4 129 -28 36 -89 37 -124 1z m84 -11 c42 -54 13 -159 -35 -126 -34 23 -46 109 -18 136 21 22 29 20 53 -10z"/>
<path d="M6908 733 c-22 -6 -23 -19 -3 -27 23 -8 21 -182 -2 -208 -15 -17 -14 -18 32 -18 46 0 47 1 32 18 -10 10 -17 28 -17 40 0 19 6 22 39 22 31 0 44 6 60 26 25 32 28 100 5 132 -17 25 -71 31 -92 10 -9 -9 -12 -9 -12 0 0 12 -11 13 -42 5z m123 -62 c12 -29 -5 -87 -28 -95 -48 -19 -76 97 -31 128 25 18 44 8 59 -33z"/>
<path d="M7112 728 c-17 -17 -15 -48 3 -48 8 0 15 6 15 14 0 7 6 19 14 25 11 9 18 8 30 -4 23 -24 21 -28 -35 -52 -49 -22 -50 -23 -47 -60 3 -35 6 -38 36 -41 18 -2 40 2 48 9 11 9 14 9 14 0 0 -16 52 -10 58 7 2 6 -3 12 -12 12 -12 0 -16 15 -18 73 l-3 72 -45 3 c-26 2 -50 -2 -58 -10z m78 -96 c0 -37 -44 -62 -59 -34 -11 21 -5 34 24 50 30 17 35 15 35 -16z"/>
<path d="M7520 730 c0 -5 4 -10 9 -10 28 0 11 -113 -20 -133 -13 -8 -19 -23 -19 -46 l0 -34 26 28 c22 24 31 27 71 22 33 -3 52 -12 64 -28 l19 -24 0 31 c0 17 -7 37 -15 44 -21 18 -20 118 2 142 15 17 13 18 -60 18 -45 0 -77 -4 -77 -10z m90 -64 c0 -84 -5 -96 -42 -96 -25 0 -29 3 -23 18 5 9 10 45 13 80 4 57 6 62 28 62 23 0 24 -3 24 -64z"/>
<path d="M7723 722 c30 -33 19 -132 -14 -132 -11 0 -19 -7 -19 -15 0 -20 46 -20 54 1 3 9 6 47 6 85 l0 69 30 0 30 0 0 -67 c0 -48 -5 -72 -17 -85 -15 -17 -13 -18 53 -18 l69 0 30 43 c28 39 30 40 33 19 2 -13 -4 -32 -14 -43 -17 -18 -16 -19 31 -19 46 0 47 1 32 18 -12 13 -17 36 -17 72 0 36 5 59 17 72 15 17 13 18 -48 18 -37 0 -70 -5 -77 -12 -17 -17 -15 -65 4 -76 19 -11 10 -35 -26 -67 -29 -26 -40 -8 -40 69 0 44 4 62 18 72 14 11 5 13 -67 14 -81 0 -83 -1 -68 -18z m255 -35 c3 -40 1 -42 -27 -27 -27 14 -33 37 -14 55 23 23 38 13 41 -28z"/>
<path d="M9700 730 c0 -5 4 -10 9 -10 28 0 11 -113 -20 -133 -13 -8 -19 -23 -19 -46 l0 -34 26 28 c22 24 31 27 71 22 33 -3 52 -12 64 -28 l19 -24 0 31 c0 17 -7 37 -15 44 -21 18 -20 118 2 142 15 17 13 18 -60 18 -45 0 -77 -4 -77 -10z m90 -64 c0 -84 -5 -96 -42 -96 -25 0 -29 3 -23 18 5 9 10 45 13 80 4 57 6 62 28 62 23 0 24 -3 24 -64z"/>
<path d="M9903 722 c30 -33 19 -132 -14 -132 -11 0 -19 -7 -19 -15 0 -20 46 -20 54 1 3 9 6 47 6 85 l0 69 30 0 30 0 0 -67 c0 -48 -5 -72 -17 -85 -15 -17 -13 -18 53 -18 l69 0 30 43 c28 39 30 40 33 19 2 -13 -4 -32 -14 -43 -17 -18 -16 -19 31 -19 46 0 47 1 32 18 -12 13 -17 36 -17 72 0 36 5 59 17 72 15 17 13 18 -48 18 -37 0 -70 -5 -77 -12 -17 -17 -15 -65 4 -76 19 -11 10 -35 -26 -67 -29 -26 -40 -8 -40 69 0 44 4 62 18 72 14 11 5 13 -67 14 -81 0 -83 -1 -68 -18z m255 -35 c3 -40 1 -42 -27 -27 -27 14 -33 37 -14 55 23 23 38 13 41 -28z"/>
<path d="M9374 675 c-17 -13 -17 -14 -1 -15 14 0 17 -10 17 -64 0 -42 -4 -66 -12 -69 -7 -3 5 -5 27 -5 22 0 34 2 28 5 -9 3 -13 30 -13 84 0 84 -7 94 -46 64z"/>
<path d="M11536 668 c-21 -29 -9 -44 14 -16 15 19 20 20 34 9 26 -22 19 -48 -26 -97 l-42 -45 60 3 c50 3 59 6 62 23 3 16 1 18 -9 8 -13 -13 -59 -18 -59 -7 0 4 14 22 30 41 47 53 37 103 -21 103 -17 0 -34 -8 -43 -22z"/>
<path d="M8920 660 c0 -6 40 -10 100 -10 60 0 100 4 100 10 0 6 -40 10 -100 10 -60 0 -100 -4 -100 -10z"/>
<path d="M11100 660 c0 -6 40 -10 100 -10 60 0 100 4 100 10 0 6 -40 10 -100 10 -60 0 -100 -4 -100 -10z"/>
<path d="M11806 591 c-10 -16 6 -42 23 -39 9 2 17 13 19 26 3 16 -2 22 -17 22 -11 0 -22 -4 -25 -9z"/>
<path d="M9490 576 c0 -9 11 -16 28 -18 l27 -3 -29 -27 c-19 -19 -24 -28 -14 -28 23 0 50 36 46 62 -2 17 -10 24 -30 26 -20 2 -28 -1 -28 -12z"/>
<path d="M646 341 c-68 -8 -89 -38 -94 -134 -3 -62 -1 -76 18 -99 17 -23 29 -28 65 -28 35 0 48 5 64 26 47 60 13 154 -55 154 -20 0 -44 -5 -55 -10 -24 -13 -25 1 -1 30 11 14 33 23 62 27 45 6 70 18 70 34 0 5 -6 8 -12 7 -7 0 -35 -4 -62 -7z m4 -101 c40 -21 46 -121 9 -141 -59 -31 -108 107 -50 141 20 12 19 12 41 0z"/>
<path d="M2956 341 c-68 -8 -89 -38 -94 -134 -3 -62 -1 -76 18 -99 17 -23 29 -28 65 -28 35 0 48 5 64 26 47 60 13 154 -55 154 -20 0 -44 -5 -55 -10 -24 -13 -25 1 -1 30 11 14 33 23 62 27 45 6 70 18 70 34 0 5 -6 8 -12 7 -7 0 -35 -4 -62 -7z m4 -101 c40 -21 46 -121 9 -141 -59 -31 -108 107 -50 141 20 12 19 12 41 0z"/>
<path d="M3458 320 c-37 -38 -31 -50 10 -20 24 18 33 20 51 11 34 -19 26 -57 -17 -80 -25 -13 -21 -31 8 -31 26 0 54 -43 45 -70 -9 -28 -40 -43 -64 -30 -24 12 -61 13 -61 1 0 -41 101 -39 137 4 28 32 30 88 5 113 -16 16 -17 22 -5 37 20 28 16 62 -9 79 -34 24 -66 19 -100 -14z"/>
<path d="M3774 338 c-30 -14 -58 -78 -36 -78 5 0 14 11 20 25 14 31 51 33 76 6 27 -30 12 -74 -50 -140 -30 -32 -54 -61 -54 -65 0 -3 36 -6 80 -6 78 0 81 1 91 26 12 33 5 42 -16 20 -11 -10 -33 -16 -63 -16 l-46 0 40 43 c23 23 48 53 58 67 48 73 -22 156 -100 118z"/>
<path d="M4278 320 c-37 -38 -31 -50 10 -20 24 18 33 20 51 11 34 -19 26 -57 -17 -80 -25 -13 -21 -31 8 -31 26 0 54 -43 45 -70 -9 -28 -40 -43 -64 -30 -24 12 -61 13 -61 1 0 -41 101 -39 137 4 28 32 30 88 5 113 -16 16 -17 22 -5 37 20 28 16 62 -9 79 -34 24 -66 19 -100 -14z"/>
<path d="M4635 336 c-80 -36 -119 -140 -80 -216 28 -55 85 -66 132 -26 23 20 28 32 28 71 0 58 -30 89 -82 83 -18 -2 -33 -1 -33 3 0 17 47 63 77 75 18 8 33 16 33 19 0 10 -45 4 -75 -9z m30 -181 c0 -58 -22 -80 -53 -51 -22 19 -36 74 -26 99 8 21 35 27 59 12 16 -10 20 -23 20 -60z"/>
<path d="M9676 341 c-68 -8 -89 -38 -94 -134 -3 -62 -1 -76 18 -99 17 -23 29 -28 65 -28 35 0 48 5 64 26 47 60 13 154 -55 154 -20 0 -44 -5 -55 -10 -24 -13 -25 1 -1 30 11 14 33 23 62 27 45 6 70 18 70 34 0 5 -6 8 -12 7 -7 0 -35 -4 -62 -7z m4 -101 c40 -21 46 -121 9 -141 -59 -31 -108 107 -50 141 20 12 19 12 41 0z"/>
<path d="M10178 320 c-37 -38 -31 -50 10 -20 24 18 33 20 51 11 34 -19 26 -57 -17 -80 -25 -13 -21 -31 8 -31 26 0 54 -43 45 -70 -9 -28 -40 -43 -64 -30 -24 12 -61 13 -61 1 0 -41 101 -39 137 4 28 32 30 88 5 113 -16 16 -17 22 -5 37 20 28 16 62 -9 79 -34 24 -66 19 -100 -14z"/>
<path d="M10494 338 c-46 -22 -60 -112 -23 -149 16 -16 30 -20 60 -17 l38 3 -17 -29 c-9 -16 -35 -38 -57 -50 -34 -18 -37 -21 -18 -24 33 -5 90 26 115 61 16 22 24 50 26 94 4 58 2 64 -26 93 -31 31 -61 37 -98 18z m72 -43 c20 -48 18 -82 -6 -95 -28 -15 -57 3 -65 40 -17 77 42 124 71 55z"/>
<path d="M19 321 c18 -18 21 -33 21 -111 0 -77 -3 -93 -20 -110 l-20 -20 100 0 c88 0 103 3 121 21 27 27 23 89 -8 104 -21 11 -21 11 -2 23 23 14 25 60 5 88 -12 16 -29 20 -116 22 l-102 4 21 -21z m130 -2 c44 -16 57 -43 32 -68 -21 -21 -83 -37 -100 -26 -15 9 -14 92 2 98 20 9 32 8 66 -4z m23 -125 c20 -6 32 -37 23 -63 -7 -24 -64 -44 -99 -35 -23 6 -26 11 -26 54 0 29 5 50 13 53 11 5 53 1 89 -9z"/>
<path d="M283 242 c12 -13 17 -36 17 -72 0 -36 -5 -59 -17 -72 -15 -17 -13 -18 53 -18 76 0 94 9 94 50 0 36 -17 50 -62 50 -34 0 -38 2 -38 26 0 15 8 33 18 40 15 12 11 13 -32 14 -47 0 -48 -1 -33 -18z m98 -92 l24 -20 -24 -20 c-32 -27 -45 -21 -49 23 -4 43 12 49 49 17z"/>
<path d="M443 242 c23 -25 23 -119 0 -144 -15 -17 -14 -18 32 -18 46 0 47 1 32 18 -24 27 -24 130 1 148 15 12 11 13 -32 14 -47 0 -48 -1 -33 -18z"/>
<path d="M738 253 c-22 -6 -23 -19 -3 -27 23 -8 21 -182 -2 -208 -15 -17 -14 -18 32 -18 46 0 47 1 32 18 -10 10 -17 28 -17 40 0 19 6 22 39 22 31 0 44 6 60 26 25 32 28 100 5 132 -17 25 -71 31 -92 10 -9 -9 -12 -9 -12 0 0 12 -11 13 -42 5z m123 -62 c12 -29 -5 -87 -28 -95 -48 -19 -76 97 -31 128 25 18 44 8 59 -33z"/>
<path d="M952 248 c-17 -17 -15 -48 3 -48 8 0 15 6 15 14 0 7 6 19 14 25 11 9 18 8 30 -4 23 -24 21 -28 -35 -52 -49 -22 -50 -23 -47 -60 3 -35 6 -38 36 -41 18 -2 40 2 48 9 11 9 14 9 14 0 0 -16 52 -10 58 7 2 6 -3 12 -12 12 -12 0 -16 15 -18 73 l-3 72 -45 3 c-26 2 -50 -2 -58 -10z m78 -96 c0 -37 -44 -62 -59 -34 -11 21 -5 34 24 50 30 17 35 15 35 -16z"/>
<path d="M1113 242 c12 -13 17 -36 17 -72 0 -36 -5 -59 -17 -72 -15 -17 -14 -18 32 -18 46 0 47 1 32 18 -10 10 -17 31 -17 45 0 25 3 27 40 27 37 0 40 -2 40 -27 0 -14 -7 -35 -17 -45 -15 -17 -14 -18 32 -18 46 0 47 1 32 18 -12 13 -17 36 -17 72 0 36 5 59 17 72 15 17 14 18 -32 18 -46 0 -47 -1 -32 -18 10 -10 17 -28 17 -40 0 -19 -6 -22 -40 -22 -34 0 -40 3 -40 22 0 12 7 30 17 40 15 17 14 18 -32 18 -46 0 -47 -1 -32 -18z"/>
<path d="M1323 242 c12 -13 17 -36 17 -72 0 -36 -5 -59 -17 -72 -15 -17 -14 -18 32 -18 46 0 47 1 32 18 -10 10 -17 31 -17 45 0 25 3 27 40 27 37 0 40 -2 40 -27 0 -14 -7 -35 -17 -45 -15 -17 -14 -18 32 -18 46 0 47 1 32 18 -12 13 -17 36 -17 72 0 36 5 59 17 72 15 17 14 18 -32 18 -46 0 -47 -1 -32 -18 10 -10 17 -28 17 -40 0 -19 -6 -22 -40 -22 -34 0 -40 3 -40 22 0 12 7 30 17 40 15 17 14 18 -32 18 -46 0 -47 -1 -32 -18z"/>
<path d="M1533 242 c12 -13 17 -36 17 -72 0 -36 -5 -59 -17 -72 -15 -17 -13 -18 53 -18 76 0 94 9 94 50 0 36 -17 50 -62 50 -34 0 -38 2 -38 26 0 15 8 33 18 40 15 12 11 13 -32 14 -47 0 -48 -1 -33 -18z m98 -92 l24 -20 -24 -20 c-32 -27 -45 -21 -49 23 -4 43 12 49 49 17z"/>
<path d="M1693 242 c12 -13 17 -36 17 -72 0 -36 -5 -59 -17 -72 -15 -17 -14 -18 32 -18 46 0 47 1 32 18 -24 27 -24 130 1 148 15 12 11 13 -32 14 -47 0 -48 -1 -33 -18z"/>
<path d="M1802 237 c-30 -31 -31 -108 -2 -137 40 -40 130 -17 130 33 0 22 -6 21 -30 -3 -11 -11 -24 -20 -29 -20 -16 0 -49 34 -56 58 -6 21 -4 22 54 22 53 0 61 3 61 18 0 51 -89 71 -128 29z m69 -35 c-11 -2 -31 -2 -43 0 l-23 3 24 24 24 24 20 -24 c19 -24 19 -24 -2 -27z"/>
<path d="M2063 242 c12 -13 17 -36 17 -72 0 -36 -5 -59 -17 -72 -15 -17 -14 -18 33 -17 27 0 43 3 37 6 -21 8 -15 25 22 72 l35 44 0 -43 c0 -26 -7 -51 -17 -62 -15 -17 -14 -18 31 -18 43 0 46 1 32 16 -23 23 -22 132 2 150 15 12 11 13 -32 14 -42 0 -47 -2 -36 -15 10 -12 6 -23 -21 -59 l-34 -44 -3 45 c-2 34 1 48 15 59 16 12 13 13 -31 14 -47 0 -48 -1 -33 -18z"/>
<path d="M2260 235 c0 -30 4 -31 30 -5 11 11 26 17 35 14 22 -9 18 -39 -7 -57 l-23 -15 26 -10 c60 -24 28 -79 -34 -61 -41 12 -42 12 -27 -6 15 -18 101 -20 118 -3 21 21 15 66 -10 74 -19 6 -19 7 -5 16 20 11 22 49 5 66 -7 7 -34 12 -60 12 -45 0 -48 -2 -48 -25z"/>
<path d="M2500 235 c0 -14 5 -25 10 -25 6 0 10 6 10 14 0 13 20 26 41 26 5 0 9 -30 9 -67 0 -48 -5 -72 -17 -85 -15 -17 -14 -18 33 -18 38 1 45 3 32 11 -25 14 -27 165 -2 155 9 -3 20 -6 25 -6 5 0 9 -7 9 -15 0 -8 5 -15 10 -15 6 0 10 11 10 25 0 25 -1 25 -85 25 -84 0 -85 0 -85 -25z"/>
<path d="M2702 248 c-17 -17 -15 -48 3 -48 8 0 15 6 15 14 0 7 6 19 14 25 11 9 18 8 30 -4 23 -24 21 -28 -35 -52 -49 -22 -50 -23 -47 -60 3 -35 6 -38 36 -41 18 -2 40 2 48 9 11 9 14 9 14 0 0 -16 52 -10 58 7 2 6 -3 12 -12 12 -12 0 -16 15 -18 73 l-3 72 -45 3 c-26 2 -50 -2 -58 -10z m78 -96 c0 -37 -44 -62 -59 -34 -11 21 -5 34 24 50 30 17 35 15 35 -16z"/>
<path d="M3083 242 c30 -33 19 -132 -14 -132 -11 0 -19 -7 -19 -15 0 -20 46 -20 54 1 3 9 6 47 6 85 l0 69 30 0 30 0 0 -67 c0 -48 -5 -72 -17 -85 -15 -17 -14 -18 31 -18 43 0 46 1 32 16 -23 23 -22 132 2 150 14 11 5 13 -67 14 -81 0 -83 -1 -68 -18z"/>
<path d="M4833 242 c12 -13 17 -36 17 -72 0 -36 -5 -59 -17 -72 -15 -17 -13 -18 58 -18 45 0 80 5 87 12 18 18 15 65 -5 77 -10 6 -12 11 -5 11 15 0 16 52 0 68 -7 7 -41 12 -82 12 -66 0 -68 -1 -53 -18z m109 -15 c9 -13 -26 -47 -48 -47 -9 0 -14 12 -14 36 0 34 1 36 27 29 15 -3 31 -12 35 -18z m6 -85 c11 -14 10 -20 -9 -35 -34 -27 -53 -18 -57 27 -3 38 -3 38 25 32 15 -4 34 -15 41 -24z"/>
<path d="M5042 237 c-30 -31 -31 -108 -2 -137 40 -40 130 -17 130 33 0 22 -6 21 -30 -3 -11 -11 -24 -20 -29 -20 -16 0 -49 34 -56 58 -6 21 -4 22 54 22 53 0 61 3 61 18 0 51 -89 71 -128 29z m69 -35 c-11 -2 -31 -2 -43 0 l-23 3 24 24 24 24 20 -24 c19 -24 19 -24 -2 -27z"/>
<path d="M5223 242 c30 -33 19 -132 -14 -132 -11 0 -19 -7 -19 -15 0 -20 46 -20 54 1 3 9 6 47 6 85 l0 69 30 0 30 0 0 -67 c0 -48 -5 -72 -17 -85 -15 -17 -14 -18 31 -18 43 0 46 1 32 16 -23 23 -22 132 2 150 14 11 5 13 -67 14 -81 0 -83 -1 -68 -18z"/>
<path d="M5393 242 c12 -13 17 -36 17 -72 0 -36 -5 -59 -17 -72 -15 -17 -14 -18 33 -17 27 0 43 3 37 6 -21 8 -15 25 22 72 l35 44 0 -43 c0 -26 -7 -51 -17 -62 -15 -17 -14 -18 31 -18 43 0 46 1 32 16 -23 22 -23 139 0 148 26 10 44 -13 44 -56 l0 -41 50 5 c45 5 50 3 50 -15 0 -11 -7 -29 -17 -39 -15 -17 -14 -18 32 -18 46 0 47 1 32 18 -24 27 -24 130 1 148 15 12 11 13 -32 14 -47 0 -48 -1 -33 -18 24 -26 21 -58 -5 -65 -43 -12 -63 30 -31 65 15 17 13 18 -77 18 -81 0 -91 -2 -80 -15 10 -12 6 -23 -21 -59 l-34 -44 -3 45 c-2 34 1 48 15 59 16 12 13 13 -31 14 -47 0 -48 -1 -33 -18z"/>
<path d="M5793 242 c12 -13 17 -36 17 -72 0 -36 -5 -59 -17 -72 -15 -17 -14 -18 33 -17 27 0 43 3 37 6 -21 8 -15 25 22 72 l35 44 0 -43 c0 -26 -7 -51 -17 -62 -15 -17 -14 -18 31 -18 43 0 46 1 32 16 -23 23 -22 132 2 150 15 12 11 13 -32 14 -42 0 -47 -2 -36 -15 10 -12 6 -23 -21 -59 l-34 -44 -3 45 c-2 34 1 48 15 59 16 12 13 13 -31 14 -47 0 -48 -1 -33 -18z"/>
<path d="M6003 242 c12 -13 17 -36 17 -72 0 -36 -5 -59 -17 -72 -15 -17 -14 -18 32 -18 46 0 47 1 32 18 -10 10 -17 31 -17 45 0 25 3 27 40 27 37 0 40 -2 40 -27 0 -14 -7 -35 -17 -45 -15 -17 -14 -18 32 -18 46 0 47 1 32 18 -12 13 -17 36 -17 72 0 36 5 59 17 72 15 17 14 18 -32 18 -46 0 -47 -1 -32 -18 10 -10 17 -28 17 -40 0 -19 -6 -22 -40 -22 -34 0 -40 3 -40 22 0 12 7 30 17 40 15 17 14 18 -32 18 -46 0 -47 -1 -32 -18z"/>
<path d="M6213 242 c12 -13 17 -36 17 -72 0 -36 -5 -59 -17 -72 -15 -17 -13 -18 53 -18 76 0 94 9 94 50 0 36 -17 50 -62 50 -34 0 -38 2 -38 26 0 15 8 33 18 40 15 12 11 13 -32 14 -47 0 -48 -1 -33 -18z m98 -92 l24 -20 -24 -20 c-32 -27 -45 -21 -49 23 -4 43 12 49 49 17z"/>
<path d="M6373 242 c12 -13 17 -36 17 -72 0 -36 -5 -59 -17 -72 -15 -17 -14 -18 32 -18 46 0 47 1 32 18 -24 27 -24 130 1 148 15 12 11 13 -32 14 -47 0 -48 -1 -33 -18z"/>
<path d="M6550 235 c0 -14 5 -25 10 -25 6 0 10 6 10 14 0 13 20 26 41 26 5 0 9 -30 9 -67 0 -48 -5 -72 -17 -85 -15 -17 -14 -18 33 -18 38 1 45 3 32 11 -25 14 -27 165 -2 155 9 -3 20 -6 25 -6 5 0 9 -7 9 -15 0 -8 5 -15 10 -15 6 0 10 11 10 25 0 25 -1 25 -85 25 -84 0 -85 0 -85 -25z"/>
<path d="M6755 235 c-34 -33 -35 -102 -2 -133 33 -31 90 -30 122 3 32 31 34 91 4 129 -28 36 -89 37 -124 1z m84 -11 c42 -54 13 -159 -35 -126 -34 23 -46 109 -18 136 21 22 29 20 53 -10z"/>
<path d="M6933 242 c12 -13 17 -36 17 -72 0 -36 -5 -59 -17 -72 -15 -17 -14 -18 32 -18 47 0 48 1 31 19 -10 11 -16 31 -14 48 3 27 4 27 31 -19 24 -42 32 -48 60 -48 27 1 30 3 17 13 -8 7 -26 27 -39 46 -19 27 -22 39 -15 60 6 16 18 27 32 29 31 5 28 32 -3 32 -19 0 -29 -9 -42 -35 -9 -19 -22 -36 -30 -39 -20 -8 -16 44 5 60 15 12 11 13 -32 14 -47 0 -48 -1 -33 -18z"/>
<path d="M7135 235 c-34 -33 -35 -102 -2 -133 33 -31 90 -30 122 3 32 31 34 91 4 129 -28 36 -89 37 -124 1z m84 -11 c42 -54 13 -159 -35 -126 -34 23 -46 109 -18 136 21 22 29 20 53 -10z"/>
<path d="M7313 242 c12 -13 17 -36 17 -72 0 -36 -5 -59 -17 -72 -15 -17 -13 -18 58 -18 45 0 80 5 87 12 18 18 15 65 -5 77 -10 6 -12 11 -5 11 15 0 16 52 0 68 -7 7 -41 12 -82 12 -66 0 -68 -1 -53 -18z m109 -15 c9 -13 -26 -47 -48 -47 -9 0 -14 12 -14 36 0 34 1 36 27 29 15 -3 31 -12 35 -18z m6 -85 c11 -14 10 -20 -9 -35 -34 -27 -53 -18 -57 27 -3 38 -3 38 25 32 15 -4 34 -15 41 -24z"/>
<path d="M7590 235 c0 -30 4 -31 30 -5 11 11 26 17 35 14 22 -9 18 -39 -7 -57 l-23 -15 26 -10 c60 -24 28 -79 -34 -61 -41 12 -42 12 -27 -6 15 -18 101 -20 118 -3 21 21 15 66 -10 74 -19 6 -19 7 -5 16 20 11 22 49 5 66 -7 7 -34 12 -60 12 -45 0 -48 -2 -48 -25z"/>
<path d="M7762 248 c-17 -17 -15 -48 3 -48 8 0 15 6 15 14 0 7 6 19 14 25 11 9 18 8 30 -4 23 -24 21 -28 -35 -52 -49 -22 -50 -23 -47 -60 3 -35 6 -38 36 -41 18 -2 40 2 48 9 11 9 14 9 14 0 0 -16 52 -10 58 7 2 6 -3 12 -12 12 -12 0 -16 15 -18 73 l-3 72 -45 3 c-26 2 -50 -2 -58 -10z m78 -96 c0 -37 -44 -62 -59 -34 -11 21 -5 34 24 50 30 17 35 15 35 -16z"/>
<path d="M7923 242 c12 -13 17 -36 17 -72 0 -36 -5 -59 -17 -72 -15 -17 -14 -18 32 -18 46 0 47 1 32 18 -10 10 -17 31 -17 45 0 25 3 27 40 27 37 0 40 -2 40 -27 0 -14 -7 -35 -17 -45 -15 -17 -14 -18 32 -18 46 0 47 1 32 18 -12 13 -17 36 -17 72 0 36 5 59 17 72 15 17 14 18 -32 18 -46 0 -47 -1 -32 -18 10 -10 17 -28 17 -40 0 -19 -6 -22 -40 -22 -34 0 -40 3 -40 22 0 12 7 30 17 40 15 17 14 18 -32 18 -46 0 -47 -1 -32 -18z"/>
<path d="M8142 237 c-30 -31 -31 -108 -2 -137 40 -40 130 -17 130 33 0 22 -6 21 -30 -3 -11 -11 -24 -20 -29 -20 -16 0 -49 34 -56 58 -6 21 -4 22 54 22 53 0 61 3 61 18 0 51 -89 71 -128 29z m69 -35 c-11 -2 -31 -2 -43 0 l-23 3 24 24 24 24 20 -24 c19 -24 19 -24 -2 -27z"/>
<path d="M8312 237 c-30 -31 -31 -108 -2 -137 40 -40 130 -17 130 33 0 22 -6 21 -30 -3 -25 -25 -32 -25 -61 -1 -30 24 -32 87 -4 107 20 15 45 3 45 -22 0 -8 9 -14 20 -14 23 0 27 29 8 48 -21 21 -82 14 -106 -11z"/>
<path d="M8460 235 c0 -14 5 -25 10 -25 6 0 10 6 10 14 0 13 20 26 41 26 5 0 9 -30 9 -67 0 -48 -5 -72 -17 -85 -15 -17 -14 -18 33 -18 38 1 45 3 32 11 -25 14 -27 165 -2 155 9 -3 20 -6 25 -6 5 0 9 -7 9 -15 0 -8 5 -15 10 -15 6 0 10 11 10 25 0 25 -1 25 -85 25 -84 0 -85 0 -85 -25z"/>
<path d="M8653 242 c12 -13 17 -36 17 -72 0 -36 -5 -59 -17 -72 -15 -17 -14 -18 33 -17 27 0 43 3 37 6 -21 8 -15 25 22 72 l35 44 0 -43 c0 -26 -7 -51 -17 -62 -15 -17 -14 -18 31 -18 43 0 46 1 32 16 -23 23 -22 132 2 150 15 12 11 13 -32 14 -42 0 -47 -2 -36 -15 10 -12 6 -23 -21 -59 l-34 -44 -3 45 c-2 34 1 48 15 59 16 12 13 13 -31 14 -47 0 -48 -1 -33 -18z"/>
<path d="M8943 242 c12 -13 17 -36 17 -72 0 -36 -5 -59 -17 -72 -15 -17 -13 -18 58 -18 45 0 80 5 87 12 18 18 15 65 -5 77 -10 6 -12 11 -5 11 15 0 16 52 0 68 -7 7 -41 12 -82 12 -66 0 -68 -1 -53 -18z m109 -15 c9 -13 -26 -47 -48 -47 -9 0 -14 12 -14 36 0 34 1 36 27 29 15 -3 31 -12 35 -18z m6 -85 c11 -14 10 -20 -9 -35 -34 -27 -53 -18 -57 27 -3 38 -3 38 25 32 15 -4 34 -15 41 -24z"/>
<path d="M9210 235 c0 -14 5 -25 10 -25 6 0 10 6 10 14 0 13 20 26 41 26 5 0 9 -30 9 -67 0 -48 -5 -72 -17 -85 -15 -17 -14 -18 33 -18 38 1 45 3 32 11 -25 14 -27 165 -2 155 9 -3 20 -6 25 -6 5 0 9 -7 9 -15 0 -8 5 -15 10 -15 6 0 10 11 10 25 0 25 -1 25 -85 25 -84 0 -85 0 -85 -25z"/>
<path d="M9412 248 c-17 -17 -15 -48 3 -48 8 0 15 6 15 14 0 7 6 19 14 25 11 9 18 8 30 -4 23 -24 21 -28 -35 -52 -49 -22 -50 -23 -47 -60 3 -35 6 -38 36 -41 18 -2 40 2 48 9 11 9 14 9 14 0 0 -16 52 -10 58 7 2 6 -3 12 -12 12 -12 0 -16 15 -18 73 l-3 72 -45 3 c-26 2 -50 -2 -58 -10z m78 -96 c0 -37 -44 -62 -59 -34 -11 21 -5 34 24 50 30 17 35 15 35 -16z"/>
<path d="M9793 242 c30 -33 19 -132 -14 -132 -11 0 -19 -7 -19 -15 0 -20 46 -20 54 1 3 9 6 47 6 85 l0 69 30 0 30 0 0 -67 c0 -48 -5 -72 -17 -85 -15 -17 -14 -18 31 -18 43 0 46 1 32 16 -23 23 -22 132 2 150 14 11 5 13 -67 14 -81 0 -83 -1 -68 -18z"/>
<path d="M4020 165 c0 -12 13 -15 55 -15 42 0 55 3 55 15 0 12 -13 15 -55 15 -42 0 -55 -3 -55 -15z"/>
<path d="M3646 111 c-10 -16 6 -42 23 -39 9 2 17 13 19 26 3 16 -2 22 -17 22 -11 0 -22 -4 -25 -9z"/>
<path d="M4456 111 c-10 -16 6 -42 23 -39 9 2 17 13 19 26 3 16 -2 22 -17 22 -11 0 -22 -4 -25 -9z"/>
<path d="M10366 111 c-10 -16 6 -42 23 -39 9 2 17 13 19 26 3 16 -2 22 -17 22 -11 0 -22 -4 -25 -9z"/>
<path d="M10656 111 c-10 -16 6 -42 23 -39 9 2 17 13 19 26 3 16 -2 22 -17 22 -11 0 -22 -4 -25 -9z"/>
<path d="M3260 95 c0 -8 7 -15 15 -15 8 0 15 7 15 15 0 8 -7 15 -15 15 -8 0 -15 -7 -15 -15z"/>
<path d="M9980 95 c0 -8 7 -15 15 -15 8 0 15 7 15 15 0 8 -7 15 -15 15 -8 0 -15 -7 -15 -15z"/>
</g>
</svg>