<?xml version="1.0" encoding="UTF-8" standalone="no"?>
<!DOCTYPE svg PUBLIC "-//W3C//DTD SVG 20010904//EN" "http://www.w3.org/TR/2001/REC-SVG-20010904/DTD/svg10.dtd">
<svg version="1.0" xmlns="http://www.w3.org/2000/svg" width="1198.000000pt" height="295.000000pt" viewBox="0 0 1198.000000 295.000000" preserveAspectRatio="xMidYMid meet">
<metadata>
Created by potrace 1.12, written by Peter Selinger 2001-2015
</metadata>
<g transform="translate(0.000000,295.000000) scale(0.100000,-0.100000)" fill="#000000" stroke="none">
<path d="M2113 2929 c-46 -29 -66 -79 -61 -153 6 -99 54 -146 151 -146 45 0 61 5 87 26 43 37 60 74 60 134 0 63 -29 124 -70 145 -42 22 -128 19 -167 -6z m121 -22 c47 -47 41 -210 -10 -244 -22 -14 -26 -14 -48 1 -54 34 -56 214 -3 251 28 20 34 19 61 -8z"/>
<path d="M2510 2943 c-79 -7 -110 -58 -110 -181 0 -66 18 -115 45 -126 39 -15 86 -6 110 20 29 32 34 107 10 153 -21 41 -72 54 -116 31 -29 -16 -24 5 7 29 15 12 41 21 59 21 18 0 39 8 48 18 20 22 22 43 5 40 -7 -1 -33 -3 -58 -5z m4 -204 c-2 -71 -18 -109 -37 -90 -13 13 -15 147 -4 175 7 19 9 19 25 2 13 -13 17 -33 16 -87z"/>
<path d="M3200 2943 c-79 -7 -110 -58 -110 -181 0 -66 18 -115 45 -126 39 -15 86 -6 110 20 29 32 34 107 10 153 -21 41 -72 54 -116 31 -29 -16 -24 5 7 29 15 12 41 21 59 21 18 0 39 8 48 18 20 22 22 43 5 40 -7 -1 -33 -3 -58 -5z m4 -204 c-2 -71 -18 -109 -37 -90 -13 13 -15 147 -4 175 7 19 9 19 25 2 13 -13 17 -33 16 -87z"/>
<path d="M2706 2843 c-4 -4 -27 -6 -51 -4 -27 1 -45 -2 -45 -8 0 -6 5 -11 10 -11 15 0 13 -243 -2 -258 -9 -9 0 -12 42 -12 42 0 51 3 42 12 -7 7 -12 26 -12 43 0 30 1 30 44 27 60 -5 86 27 86 108 0 73 -25 110 -74 110 -18 0 -36 -3 -40 -7z m48 -108 c0 -72 -13 -97 -42 -79 -24 16 -29 117 -7 151 16 23 18 24 33 9 11 -11 16 -34 16 -81z"/>
<path d="M2902 2834 c-14 -10 -22 -25 -22 -45 0 -26 3 -29 31 -29 30 0 31 1 26 34 -6 40 16 58 33 26 18 -33 11 -45 -40 -75 -50 -29 -65 -54 -58 -92 4 -21 57 -30 87 -14 13 7 22 8 26 1 9 -15 61 -12 74 4 9 10 8 15 -4 20 -12 4 -15 22 -15 79 0 59 -4 77 -18 90 -24 21 -90 22 -120 1z m67 -165 c-13 -8 -39 6 -39 21 0 4 10 20 23 36 l22 29 3 -39 c2 -24 -2 -42 -9 -47z"/>
<path d="M3352 2843 c-22 -9 -42 -61 -42 -111 0 -66 31 -102 90 -102 59 0 90 36 90 102 0 80 -29 118 -90 117 -19 0 -41 -3 -48 -6z m73 -49 c9 -49 -4 -141 -21 -148 -7 -3 -15 -2 -18 2 -12 21 -17 81 -11 128 5 43 10 54 25 54 13 0 20 -10 25 -36z"/>
<path d="M3879 2808 c-21 -41 -35 -58 -51 -58 -13 0 -9 65 4 78 9 9 0 12 -40 12 -29 0 -52 -4 -52 -10 0 -5 5 -10 10 -10 15 0 13 -153 -2 -168 -9 -9 0 -12 42 -12 42 0 51 3 42 12 -7 7 -12 30 -12 53 l1 40 32 -52 c30 -51 34 -53 74 -53 24 0 43 5 43 10 0 6 -4 10 -10 10 -5 0 -17 14 -25 31 -9 16 -25 39 -36 50 -18 18 -19 24 -9 50 13 31 30 39 30 14 0 -9 10 -15 26 -15 22 0 25 4 22 28 -2 22 -8 28 -35 30 -29 3 -34 -1 -54 -40z"/>
<path d="M4032 2834 c-14 -10 -22 -25 -22 -45 0 -26 3 -29 31 -29 30 0 31 1 26 34 -6 40 16 58 33 26 18 -33 11 -45 -40 -75 -50 -29 -65 -54 -58 -92 4 -21 57 -30 87 -14 13 7 22 8 26 1 9 -15 61 -12 74 4 9 10 8 15 -4 20 -12 4 -15 22 -15 79 0 59 -4 77 -18 90 -24 21 -90 22 -120 1z m67 -165 c-13 -8 -39 6 -39 21 0 4 10 20 23 36 l22 29 3 -39 c2 -24 -2 -42 -9 -47z"/>
<path d="M4426 2843 c-4 -4 -27 -6 -51 -4 -27 1 -45 -2 -45 -8 0 -6 5 -11 10 -11 15 0 13 -243 -2 -258 -9 -9 0 -12 42 -12 42 0 51 3 42 12 -7 7 -12 26 -12 43 0 30 1 30 44 27 60 -5 86 27 86 108 0 73 -25 110 -74 110 -18 0 -36 -3 -40 -7z m48 -108 c0 -72 -13 -97 -42 -79 -24 16 -29 117 -7 151 16 23 18 24 33 9 11 -11 16 -34 16 -81z"/>
<path d="M4609 2821 c-25 -26 -29 -37 -29 -86 0 -73 28 -105 92 -105 46 0 88 22 88 46 0 18 -5 18 -36 -3 -24 -15 -26 -15 -45 3 -10 11 -23 34 -28 52 l-10 32 60 0 c51 0 59 3 59 19 0 10 -9 30 -21 45 -30 38 -90 37 -130 -3z m85 -13 c9 -36 8 -38 -24 -38 -34 0 -34 -1 -20 34 12 32 36 34 44 4z"/>
<path d="M4780 2820 c0 -16 5 -30 10 -30 6 0 10 6 10 14 0 7 6 19 14 25 12 10 17 8 26 -9 12 -22 5 -60 -11 -60 -5 0 -9 -7 -9 -15 0 -8 4 -15 10 -15 21 0 29 -36 14 -59 -15 -21 -17 -21 -41 -6 -31 21 -42 12 -18 -15 23 -25 96 -28 119 -4 23 22 20 70 -4 87 -18 13 -19 16 -5 27 18 15 20 61 3 78 -7 7 -36 12 -65 12 -52 0 -53 0 -53 -30z"/>
<path d="M5912 2834 c-14 -10 -22 -25 -22 -45 0 -26 3 -29 31 -29 30 0 31 1 26 34 -6 40 16 58 33 26 18 -33 11 -45 -40 -75 -50 -29 -65 -54 -58 -92 4 -21 57 -30 87 -14 13 7 22 8 26 1 9 -15 61 -12 74 4 9 10 8 15 -4 20 -12 4 -15 22 -15 79 0 59 -4 77 -18 90 -24 21 -90 22 -120 1z m67 -165 c-13 -8 -39 6 -39 21 0 4 10 20 23 36 l22 29 3 -39 c2 -24 -2 -42 -9 -47z"/>
<path d="M6362 2843 c-22 -9 -42 -61 -42 -111 0 -66 31 -102 90 -102 59 0 90 36 90 102 0 80 -29 118 -90 117 -19 0 -41 -3 -48 -6z m73 -49 c9 -49 -4 -141 -21 -148 -7 -3 -15 -2 -18 2 -12 21 -17 81 -11 128 5 43 10 54 25 54 13 0 20 -10 25 -36z"/>
<path d="M6890 2820 c0 -37 2 -37 35 -4 23 22 29 24 40 13 7 -8 15 -28 18 -46 6 -29 4 -32 -21 -36 l-27 -4 28 -2 c27 -1 28 -3 22 -33 -11 -53 -27 -63 -66 -44 -39 19 -49 14 -24 -14 18 -20 75 -27 110 -14 25 10 45 58 45 108 0 33 -6 52 -26 75 -23 28 -32 31 -80 31 -53 0 -54 0 -54 -30z"/>
<path d="M7219 2808 c-21 -41 -35 -58 -51 -58 -13 0 -9 65 4 78 9 9 0 12 -40 12 -29 0 -52 -4 -52 -10 0 -5 5 -10 10 -10 15 0 13 -153 -2 -168 -9 -9 0 -12 42 -12 42 0 51 3 42 12 -7 7 -12 30 -12 53 l1 40 32 -52 c30 -51 34 -53 74 -53 24 0 43 5 43 10 0 6 -4 10 -10 10 -5 0 -17 14 -25 31 -9 16 -25 39 -36 50 -18 18 -19 24 -9 50 13 31 30 39 30 14 0 -9 10 -15 26 -15 22 0 25 4 22 28 -2 22 -8 28 -35 30 -29 3 -34 -1 -54 -40z"/>
<path d="M7366 2819 c-37 -43 -37 -129 -1 -164 40 -41 145 -26 145 21 0 18 -10 17 -34 -1 -17 -13 -22 -13 -38 2 -25 23 -41 86 -30 125 9 38 24 40 32 6 4 -16 14 -24 33 -26 23 -3 27 0 27 20 0 35 -18 48 -66 48 -35 0 -47 -5 -68 -31z"/>
<path d="M7819 2821 c-25 -26 -29 -37 -29 -86 0 -73 28 -105 92 -105 46 0 88 22 88 46 0 18 -5 18 -36 -3 -24 -15 -26 -15 -45 3 -10 11 -23 34 -28 52 l-10 32 60 0 c51 0 59 3 59 19 0 10 -9 30 -21 45 -30 38 -90 37 -130 -3z m85 -13 c9 -36 8 -38 -24 -38 -34 0 -34 -1 -20 34 12 32 36 34 44 4z"/>
<path d="M8086 2843 c-4 -4 -27 -6 -51 -4 -27 1 -45 -2 -45 -8 0 -6 5 -11 10 -11 15 0 13 -243 -2 -258 -9 -9 0 -12 42 -12 42 0 51 3 42 12 -7 7 -12 26 -12 43 0 30 1 30 44 27 60 -5 86 27 86 108 0 73 -25 110 -74 110 -18 0 -36 -3 -40 -7z m48 -108 c0 -72 -13 -97 -42 -79 -24 16 -29 117 -7 151 16 23 18 24 33 9 11 -11 16 -34 16 -81z"/>
<path d="M8819 2821 c-25 -26 -29 -37 -29 -86 0 -73 28 -105 92 -105 46 0 88 22 88 46 0 18 -5 18 -36 -3 -24 -15 -26 -15 -45 3 -10 11 -23 34 -28 52 l-10 32 60 0 c51 0 59 3 59 19 0 10 -9 30 -21 45 -30 38 -90 37 -130 -3z m85 -13 c9 -36 8 -38 -24 -38 -34 0 -34 -1 -20 34 12 32 36 34 44 4z"/>
<path d="M9512 2843 c-22 -9 -42 -61 -42 -111 0 -66 31 -102 90 -102 59 0 90 36 90 102 0 80 -29 118 -90 117 -19 0 -41 -3 -48 -6z m73 -49 c9 -49 -4 -141 -21 -148 -7 -3 -15 -2 -18 2 -12 21 -17 81 -11 128 5 43 10 54 25 54 13 0 20 -10 25 -36z"/>
<path d="M3530 2815 c0 -14 5 -25 10 -25 6 0 10 6 10 14 0 13 20 26 41 26 12 0 11 -147 -1 -171 -10 -18 -7 -19 42 -19 40 0 49 3 40 12 -14 14 -17 178 -3 178 21 0 41 -13 41 -26 0 -8 5 -14 10 -14 6 0 10 11 10 25 l0 25 -100 0 -100 0 0 -25z"/>
<path d="M4959 2813 c11 -16 36 -64 54 -109 33 -77 34 -81 19 -110 -16 -28 -17 -28 -20 -6 -3 17 -10 22 -33 22 -27 0 -30 -3 -27 -27 3 -24 8 -28 40 -31 44 -4 50 5 105 157 19 53 42 104 50 114 15 16 14 17 -20 17 -35 0 -51 -14 -26 -22 8 -3 8 -16 -2 -46 -6 -23 -15 -42 -18 -42 -3 0 -14 19 -23 42 -13 31 -15 45 -7 55 9 11 0 13 -50 13 l-62 0 20 -27z"/>
<path d="M5220 2830 c0 -5 5 -10 10 -10 11 0 13 -65 4 -122 -6 -37 -24 -54 -24 -23 0 9 -10 15 -26 15 -22 0 -25 -4 -22 -27 2 -22 9 -29 31 -31 48 -6 57 11 57 109 l0 89 35 0 35 0 0 -79 c0 -44 -4 -83 -10 -86 -24 -15 -6 -25 42 -25 40 0 49 3 40 12 -7 7 -12 42 -12 88 0 46 5 81 12 88 9 9 -8 12 -80 12 -55 0 -92 -4 -92 -10z"/>
<path d="M5420 2830 c0 -5 5 -10 10 -10 6 0 10 -31 10 -74 0 -41 -4 -78 -10 -81 -27 -17 -3 -25 71 -25 96 0 119 10 119 50 0 37 -32 60 -82 60 -37 0 -38 1 -38 35 0 19 5 35 10 35 6 0 10 5 10 10 0 6 -22 10 -50 10 -27 0 -50 -4 -50 -10z m131 -121 c7 -14 5 -23 -11 -39 -27 -27 -40 -18 -40 30 0 33 2 37 20 33 11 -3 25 -14 31 -24z"/>
<path d="M5660 2815 c0 -14 5 -25 10 -25 6 0 10 6 10 14 0 13 20 26 41 26 12 0 11 -147 -1 -171 -10 -18 -7 -19 42 -19 40 0 49 3 40 12 -14 14 -17 178 -3 178 21 0 41 -13 41 -26 0 -8 5 -14 10 -14 6 0 10 11 10 25 l0 25 -100 0 -100 0 0 -25z"/>
<path d="M6100 2815 c0 -14 5 -25 10 -25 6 0 10 6 10 14 0 13 20 26 41 26 12 0 11 -147 -1 -171 -10 -18 -7 -19 42 -19 40 0 49 3 40 12 -14 14 -17 178 -3 178 21 0 41 -13 41 -26 0 -8 5 -14 10 -14 6 0 10 11 10 25 l0 25 -100 0 -100 0 0 -25z"/>
<path d="M6540 2830 c0 -5 5 -10 10 -10 6 0 10 -31 10 -74 0 -41 -4 -78 -10 -81 -5 -3 -10 -10 -10 -16 0 -12 166 -12 191 1 26 15 25 64 -2 83 -13 9 -16 17 -10 22 19 11 13 63 -8 75 -25 13 -171 13 -171 0z m131 -26 c14 -17 -1 -39 -31 -47 -17 -4 -20 0 -20 33 0 33 3 37 20 33 10 -3 25 -11 31 -19z m10 -95 c7 -14 5 -23 -11 -39 -29 -29 -44 -21 -48 27 -3 39 -2 40 23 35 14 -2 30 -13 36 -23z"/>
<path d="M7530 2830 c0 -5 5 -10 10 -10 15 0 13 -153 -2 -168 -9 -9 0 -12 42 -12 42 0 51 3 42 12 -7 7 -12 44 -12 95 l0 83 35 0 35 0 0 -76 c0 -41 -5 -84 -10 -95 -10 -18 -7 -19 42 -19 40 0 49 3 40 12 -15 15 -17 168 -2 168 6 0 10 5 10 10 0 6 -45 10 -115 10 -70 0 -115 -4 -115 -10z"/>
<path d="M8238 2828 c15 -15 16 -142 2 -169 -10 -18 -7 -19 41 -19 40 0 49 3 41 13 -7 8 0 30 24 72 l34 60 0 -60 c0 -34 -5 -66 -12 -73 -9 -9 0 -12 42 -12 42 0 51 3 42 12 -7 7 -12 42 -12 88 0 46 5 81 12 88 9 9 0 12 -40 12 -45 0 -69 -12 -43 -22 4 -1 -7 -30 -25 -63 l-34 -60 0 61 c0 33 5 65 12 72 9 9 0 12 -42 12 -42 0 -51 -3 -42 -12z"/>
<path d="M8490 2830 c0 -5 5 -10 10 -10 13 0 13 -136 0 -161 -9 -17 -7 -19 17 -19 21 0 24 3 15 12 -7 7 -12 38 -11 73 l1 60 35 -72 c19 -40 40 -73 47 -73 6 0 28 33 48 73 l37 72 0 -53 c1 -29 -4 -62 -9 -73 -10 -18 -7 -19 42 -19 40 0 49 3 40 12 -7 7 -12 42 -12 88 0 46 5 81 12 88 9 9 3 12 -31 12 -42 0 -42 0 -71 -62 l-29 -63 -28 63 -28 62 -42 0 c-24 0 -43 -4 -43 -10z"/>
<path d="M8990 2830 c0 -5 5 -10 10 -10 13 0 13 -136 0 -161 -10 -18 -7 -19 42 -19 40 0 49 3 40 12 -7 7 -12 29 -12 50 0 37 1 38 35 38 34 0 35 -1 35 -38 0 -21 -5 -43 -12 -50 -9 -9 0 -12 42 -12 42 0 51 3 42 12 -7 7 -12 42 -12 88 0 46 5 81 12 88 9 9 0 12 -40 12 -29 0 -52 -4 -52 -10 0 -5 5 -10 10 -10 6 0 10 -16 10 -35 0 -33 -2 -35 -35 -35 -33 0 -35 2 -35 33 0 18 5 38 12 45 9 9 0 12 -40 12 -29 0 -52 -4 -52 -10z"/>
<path d="M9250 2815 c0 -14 5 -25 10 -25 6 0 10 6 10 14 0 13 20 26 41 26 12 0 11 -147 -1 -171 -10 -18 -7 -19 42 -19 40 0 49 3 40 12 -14 14 -17 178 -3 178 21 0 41 -13 41 -26 0 -8 5 -14 10 -14 6 0 10 11 10 25 l0 25 -100 0 -100 0 0 -25z"/>
<path d="M9690 2830 c0 -5 5 -10 10 -10 6 0 10 -31 10 -74 0 -41 -4 -78 -10 -81 -5 -3 -10 -10 -10 -16 0 -12 166 -12 191 1 26 15 25 64 -2 83 -13 9 -16 17 -10 22 19 11 13 63 -8 75 -25 13 -171 13 -171 0z m131 -26 c14 -17 -1 -39 -31 -47 -17 -4 -20 0 -20 33 0 33 3 37 20 33 10 -3 25 -11 31 -19z m10 -95 c7 -14 5 -23 -11 -39 -29 -29 -44 -21 -48 27 -3 39 -2 40 23 35 14 -2 30 -13 36 -23z"/>
<path d="M394 1898 c-82 -56 -118 -163 -79 -237 18 -35 32 -41 98 -41 67 0 116 32 157 103 41 72 42 137 1 178 -43 43 -111 41 -177 -3z m122 8 c42 -31 2 -189 -62 -245 -41 -36 -48 -37 -74 -11 -24 24 -24 29 -5 105 20 74 53 133 85 151 32 17 32 17 56 0z"/>
<path d="M1360 1926 c0 -3 14 -18 30 -34 37 -37 40 -72 8 -72 -57 0 -118 -71 -118 -135 0 -52 13 -65 66 -65 75 0 134 69 134 155 0 55 -18 93 -60 129 -27 23 -60 35 -60 22z m55 -193 c-8 -27 -25 -62 -36 -77 -18 -23 -24 -25 -35 -14 -12 12 -12 22 1 65 8 27 25 62 36 77 18 23 24 25 35 14 12 -12 12 -22 -1 -65z"/>
<path d="M627 1814 c-3 -3 -1 -14 5 -23 7 -12 5 -35 -11 -85 -27 -86 -27 -86 7 -86 25 0 31 6 40 38 11 37 80 128 89 118 3 -3 -5 -34 -17 -70 -12 -36 -19 -70 -15 -76 10 -17 61 -11 78 8 21 23 22 36 2 28 -8 -3 -15 -4 -15 -3 0 1 9 30 20 64 11 35 17 70 14 78 -10 26 -62 18 -95 -14 -32 -33 -33 -33 -19 3 9 25 9 26 -34 26 -23 0 -45 -3 -49 -6z"/>
<path d="M877 1813 c-4 -3 -2 -12 5 -20 8 -10 3 -40 -22 -124 -19 -61 -40 -113 -47 -116 -30 -12 -9 -23 42 -23 49 0 73 12 44 22 -8 3 -9 15 -4 36 6 29 10 32 42 32 82 0 148 103 117 184 -7 19 -64 22 -82 4 -9 -9 -12 -9 -12 0 0 13 -71 17 -83 5z m126 -76 c-12 -64 -66 -127 -79 -92 -9 22 24 123 44 134 26 15 42 -5 35 -42z"/>
<path d="M1152 1800 c-18 -11 -41 -34 -52 -52 -22 -37 -26 -98 -8 -116 27 -27 158 -3 158 29 0 10 -20 8 -71 -7 -18 -5 -52 22 -44 35 2 5 22 11 43 15 52 8 94 48 90 84 -3 24 -8 27 -43 30 -26 2 -51 -4 -73 -18z m61 -18 c-9 -25 -44 -62 -60 -62 -11 0 -11 5 -2 23 27 53 78 85 62 39z"/>
<path d="M1572 1800 c-18 -11 -41 -34 -52 -52 -22 -37 -26 -98 -8 -116 15 -15 93 -16 121 -1 16 9 22 9 25 0 5 -15 47 -14 61 2 6 8 20 45 32 83 22 74 38 98 62 92 12 -2 11 -15 -8 -82 -13 -43 -21 -85 -18 -92 7 -20 57 -17 76 4 21 23 22 36 2 28 -19 -7 -19 -5 5 79 11 38 20 71 20 72 0 2 -36 3 -80 3 -75 0 -79 -1 -69 -18 9 -14 7 -31 -7 -76 l-19 -58 -50 -3 c-27 -1 -57 -6 -66 -9 -17 -8 -53 20 -44 33 2 5 22 11 43 15 52 8 94 48 90 84 -3 24 -8 27 -43 30 -26 2 -51 -4 -73 -18z m61 -18 c-9 -25 -44 -62 -60 -62 -11 0 -11 5 -2 23 27 53 78 85 62 39z"/>
<path d="M1992 1800 c-18 -11 -41 -34 -52 -52 -22 -37 -26 -98 -8 -116 27 -27 158 -3 158 29 0 10 -20 8 -71 -7 -18 -5 -52 22 -44 35 2 5 22 11 43 15 52 8 94 48 90 84 -3 24 -8 27 -43 30 -26 2 -51 -4 -73 -18z m61 -18 c-9 -25 -44 -62 -60 -62 -11 0 -11 5 -2 23 27 53 78 85 62 39z"/>
<path d="M2156 1811 c-4 -5 -3 -16 0 -24 3 -8 -4 -45 -15 -82 -27 -85 -27 -85 8 -85 27 0 30 4 42 50 11 42 17 50 36 50 26 0 28 -7 13 -44 -5 -14 -7 -33 -4 -41 8 -21 57 -19 77 3 21 23 22 36 2 28 -19 -7 -19 -4 5 74 25 82 25 80 -9 80 -25 0 -30 -5 -41 -45 -11 -38 -17 -45 -37 -45 -20 0 -24 4 -18 18 3 9 9 29 12 45 5 25 3 27 -30 27 -20 0 -38 -4 -41 -9z"/>
<path d="M2384 1796 c3 -13 -3 -54 -15 -90 -11 -37 -17 -71 -14 -76 13 -21 66 -10 95 19 l29 28 -6 -28 c-5 -27 -4 -29 29 -29 21 0 41 7 51 18 21 23 22 36 2 28 -19 -7 -19 -4 5 74 25 82 25 80 -10 80 -25 0 -31 -5 -40 -38 -10 -37 -73 -122 -83 -112 -3 3 5 38 18 78 l23 72 -45 0 c-43 0 -45 -1 -39 -24z"/>
<path d="M2682 1800 c-18 -11 -41 -34 -52 -52 -22 -37 -26 -98 -8 -116 27 -27 158 -3 158 29 0 10 -20 8 -71 -7 -18 -5 -52 22 -44 35 2 5 22 11 43 15 52 8 94 48 90 84 -3 24 -8 27 -43 30 -26 2 -51 -4 -73 -18z m61 -18 c-9 -25 -44 -62 -60 -62 -11 0 -11 5 -2 23 27 53 78 85 62 39z"/>
<path d="M2977 1799 c-15 -12 -34 -34 -42 -50 -18 -34 -20 -100 -3 -117 17 -17 100 -15 126 4 26 18 31 71 7 80 -12 5 -10 10 11 26 18 14 24 28 22 47 -3 23 -8 26 -48 28 -33 2 -52 -3 -73 -18z m66 -32 c-18 -29 -43 -48 -43 -30 0 4 9 23 20 41 26 42 48 32 23 -11z m-20 -63 c9 -9 -13 -62 -29 -68 -17 -7 -22 24 -9 62 5 12 27 16 38 6z"/>
<path d="M3192 1800 c-18 -11 -41 -34 -52 -52 -22 -37 -26 -98 -8 -116 17 -17 93 -15 128 3 27 14 30 14 30 0 0 -19 43 -20 59 -2 6 8 20 45 32 83 22 74 38 98 62 92 12 -2 11 -15 -8 -82 -13 -43 -21 -85 -18 -92 7 -20 57 -17 76 4 21 23 22 36 2 28 -19 -7 -19 -5 5 79 11 38 20 71 20 72 0 2 -36 3 -80 3 -75 0 -79 -1 -69 -18 9 -14 7 -31 -7 -76 l-19 -58 -55 -3 c-30 -1 -62 -6 -71 -9 -17 -8 -53 20 -44 33 2 5 22 11 43 15 52 8 94 48 90 84 -3 24 -8 27 -43 30 -26 2 -51 -4 -73 -18z m61 -18 c-9 -25 -44 -62 -60 -62 -11 0 -11 5 -2 23 27 53 78 85 62 39z"/>
<path d="M3574 1796 c3 -13 -3 -54 -15 -90 -11 -37 -17 -71 -14 -76 13 -21 66 -10 95 19 l29 28 -6 -28 c-5 -27 -4 -29 29 -29 21 0 41 7 51 18 21 23 22 36 2 28 -19 -7 -19 -4 5 74 25 82 25 80 -10 80 -25 0 -31 -5 -40 -38 -10 -37 -73 -122 -83 -112 -3 3 5 38 18 78 l23 72 -45 0 c-43 0 -45 -1 -39 -24z"/>
<path d="M3807 1814 c-4 -4 -3 -12 1 -18 4 -6 7 -31 7 -56 l0 -45 46 0 c45 0 46 -1 37 -24 -5 -14 -7 -30 -4 -38 8 -19 60 -16 79 5 21 23 22 36 2 28 -8 -3 -15 -4 -15 -3 0 1 9 34 20 72 11 38 20 73 20 77 0 5 -13 8 -29 8 -27 0 -30 -4 -42 -49 -8 -34 -19 -51 -31 -55 -26 -6 -33 16 -20 64 l10 40 -37 0 c-21 0 -41 -3 -44 -6z"/>
<path d="M4044 1796 c3 -13 -3 -54 -15 -90 -11 -37 -17 -71 -14 -76 13 -21 66 -10 95 19 l29 28 -6 -28 c-5 -27 -4 -29 29 -29 21 0 41 7 51 18 21 23 22 36 2 28 -19 -7 -19 -4 5 74 25 82 25 80 -10 80 -25 0 -31 -5 -40 -38 -10 -37 -73 -122 -83 -112 -3 3 5 38 18 78 l23 72 -45 0 c-43 0 -45 -1 -39 -24z"/>
<path d="M4306 1811 c-4 -5 -3 -16 0 -24 3 -8 -4 -45 -15 -82 -27 -85 -27 -85 8 -85 27 0 30 4 42 50 11 42 17 50 36 50 26 0 28 -7 13 -44 -5 -14 -7 -33 -4 -41 8 -21 57 -19 77 3 21 23 22 36 2 28 -19 -7 -19 -4 5 74 25 82 25 80 -9 80 -25 0 -30 -5 -41 -45 -11 -38 -17 -45 -37 -45 -20 0 -24 4 -18 18 3 9 9 29 12 45 5 25 3 27 -30 27 -20 0 -38 -4 -41 -9z"/>
<path d="M4687 1799 c-15 -12 -34 -34 -42 -50 -18 -34 -20 -100 -3 -117 17 -17 100 -15 126 4 26 18 31 71 7 80 -12 5 -10 10 11 26 18 14 24 28 22 47 -3 23 -8 26 -48 28 -33 2 -52 -3 -73 -18z m66 -32 c-18 -29 -43 -48 -43 -30 0 4 9 23 20 41 26 42 48 32 23 -11z m-20 -63 c9 -9 -13 -62 -29 -68 -17 -7 -22 24 -9 62 5 12 27 16 38 6z"/>
<path d="M4847 1813 c-4 -3 -2 -12 4 -19 7 -8 5 -32 -7 -77 -22 -81 -13 -97 53 -97 60 0 96 34 91 88 -3 35 -5 37 -39 37 -34 0 -36 2 -28 23 17 43 12 52 -29 52 -21 0 -42 -3 -45 -7z m82 -125 c-5 -18 -16 -39 -25 -48 -15 -14 -16 -12 -11 23 6 41 24 70 37 62 5 -3 4 -20 -1 -37z"/>
<path d="M5025 1810 c-3 -5 -1 -10 4 -10 16 0 13 -27 -8 -95 -10 -33 -16 -65 -14 -72 9 -23 58 -15 84 13 l24 27 -22 -6 c-21 -5 -22 -2 -16 21 3 15 12 44 20 66 20 60 18 66 -26 66 -22 0 -43 -4 -46 -10z"/>
<path d="M5196 1801 c-15 -10 -37 -32 -47 -47 -21 -33 -25 -104 -7 -122 17 -17 93 -15 128 3 41 21 39 38 -2 30 -18 -4 -35 -7 -38 -7 -40 -1 -55 30 -36 75 14 35 62 80 76 72 4 -2 5 -16 2 -31 -4 -22 -2 -25 19 -22 19 2 24 9 24 33 0 28 -2 30 -45 33 -31 2 -54 -3 -74 -17z"/>
<path d="M5357 1814 c-3 -3 -1 -14 5 -24 8 -13 7 -29 -6 -65 -9 -27 -16 -61 -16 -77 0 -24 4 -28 29 -28 20 0 37 9 55 31 l26 31 0 -31 c0 -28 3 -31 29 -31 19 0 40 10 60 30 l30 30 -2 -27 c-2 -24 2 -28 26 -31 17 -2 37 4 48 14 23 20 25 38 4 30 -8 -3 -15 -4 -15 -3 0 1 9 34 20 72 11 38 20 73 20 77 0 5 -13 8 -29 8 -25 0 -31 -5 -36 -30 -6 -29 -82 -136 -91 -128 -2 3 5 36 16 74 25 87 25 84 -9 84 -23 0 -30 -5 -36 -27 -8 -33 -63 -123 -76 -123 -4 0 -1 21 7 48 32 101 31 102 -13 102 -22 0 -42 -3 -46 -6z"/>
<path d="M5724 1796 c3 -13 -3 -54 -15 -90 -11 -37 -17 -71 -14 -76 13 -21 66 -10 95 19 l29 28 -6 -28 c-5 -27 -4 -29 29 -29 21 0 41 7 51 18 21 23 22 36 2 28 -19 -7 -19 -4 5 74 25 82 25 80 -10 80 -25 0 -31 -5 -40 -38 -10 -37 -73 -122 -83 -112 -3 3 5 38 18 78 l23 72 -45 0 c-43 0 -45 -1 -39 -24z"/>
<path d="M5965 1810 c-3 -5 -1 -10 5 -10 6 0 20 -21 31 -46 l21 -46 -21 -22 c-16 -16 -29 -21 -51 -18 -27 4 -30 1 -30 -22 0 -22 4 -26 29 -26 22 0 36 8 52 32 l23 31 15 -31 c18 -38 59 -44 91 -12 21 21 26 40 11 40 -6 0 -13 -4 -16 -10 -12 -19 -26 -10 -41 25 -20 49 -6 75 41 75 31 0 35 3 35 25 0 34 -38 34 -70 0 l-24 -26 -13 26 c-11 19 -21 25 -48 25 -18 0 -37 -4 -40 -10z"/>
<path d="M6325 1806 c-25 -18 -14 -32 13 -17 15 8 23 7 31 -2 15 -19 -11 -53 -60 -78 -36 -18 -40 -24 -37 -52 3 -31 5 -32 53 -34 32 -2 57 2 69 12 26 20 15 28 -20 15 -24 -9 -31 -8 -41 6 -16 22 4 47 60 76 34 17 38 23 35 51 -3 30 -6 32 -43 35 -24 2 -48 -3 -60 -12z"/>
<path d="M6501 1804 c-34 -24 -62 -90 -59 -137 3 -38 6 -42 31 -45 16 -2 35 2 43 9 10 8 14 8 14 0 0 -18 65 -13 83 7 21 23 22 36 2 28 -19 -7 -19 -4 5 72 11 35 20 68 20 72 0 15 -116 10 -139 -6z m60 -16 c4 -46 -32 -128 -56 -128 -19 0 -19 8 1 67 17 51 31 73 45 73 5 0 10 -6 10 -12z"/>
<path d="M6687 1813 c-4 -3 -2 -12 5 -20 8 -10 3 -40 -22 -124 -19 -61 -40 -113 -47 -116 -30 -12 -9 -23 42 -23 49 0 73 12 44 22 -8 3 -9 15 -4 36 6 29 10 32 42 32 82 0 148 103 117 184 -7 19 -64 22 -82 4 -9 -9 -12 -9 -12 0 0 13 -71 17 -83 5z m126 -76 c-12 -64 -66 -127 -79 -92 -9 22 24 123 44 134 26 15 42 -5 35 -42z"/>
<path d="M6946 1811 c-4 -5 -4 -15 -1 -23 3 -7 -3 -38 -12 -68 -17 -51 -20 -55 -46 -52 -23 3 -27 0 -27 -22 0 -21 5 -26 24 -26 31 0 40 12 64 85 l21 60 0 -57 c1 -59 8 -88 21 -88 4 0 24 25 44 56 41 62 53 65 37 9 -5 -20 -7 -43 -4 -51 7 -20 57 -17 76 4 21 23 22 36 2 28 -19 -7 -19 0 4 84 l20 70 -32 0 c-28 0 -37 -8 -68 -56 l-36 -56 -7 56 c-7 56 -8 56 -41 56 -19 0 -36 -4 -39 -9z"/>
<path d="M7266 1801 c-42 -28 -66 -70 -66 -116 0 -51 14 -65 62 -65 51 0 91 22 117 63 28 45 29 112 2 127 -30 16 -83 12 -115 -9z m69 -68 c-8 -27 -25 -62 -36 -77 -18 -23 -24 -25 -35 -14 -12 12 -12 22 1 65 8 27 25 62 36 77 18 23 24 25 35 14 12 -12 12 -22 -1 -65z"/>
<path d="M7456 1811 c-4 -5 -3 -16 0 -24 3 -8 -4 -45 -15 -82 -27 -85 -27 -85 8 -85 27 0 30 4 42 50 11 42 17 50 36 50 26 0 28 -7 13 -44 -5 -14 -7 -33 -4 -41 8 -21 57 -19 77 3 21 23 22 36 2 28 -19 -7 -19 -4 5 74 25 82 25 80 -9 80 -25 0 -30 -5 -41 -45 -11 -38 -17 -45 -37 -45 -20 0 -24 4 -18 18 3 9 9 29 12 45 5 25 3 27 -30 27 -20 0 -38 -4 -41 -9z"/>
<path d="M7694 1796 c3 -13 -3 -54 -15 -90 -11 -37 -17 -71 -14 -76 13 -21 66 -10 95 19 l29 28 -6 -28 c-5 -27 -4 -29 29 -29 21 0 41 7 51 18 21 23 22 36 2 28 -19 -7 -19 -4 5 74 25 82 25 80 -10 80 -25 0 -31 -5 -40 -38 -10 -37 -73 -122 -83 -112 -3 3 5 38 18 78 l23 72 -45 0 c-43 0 -45 -1 -39 -24z"/>
<path d="M7937 1814 c-3 -3 -1 -14 5 -23 7 -12 5 -35 -11 -85 -27 -86 -27 -86 8 -86 26 0 30 5 41 48 l12 47 20 -47 c20 -46 22 -48 61 -48 37 0 39 1 25 18 -9 9 -19 27 -22 39 -4 13 -14 29 -22 38 -21 21 2 55 38 55 23 0 28 4 28 26 0 22 -4 25 -27 22 -20 -2 -34 -13 -48 -40 -21 -39 -53 -64 -40 -31 3 10 9 30 12 46 5 26 4 27 -34 27 -22 0 -42 -3 -46 -6z"/>
<path d="M8267 1814 c-3 -3 -1 -14 5 -23 7 -12 5 -35 -11 -85 -27 -86 -27 -86 7 -86 25 0 31 6 40 38 11 37 80 128 89 118 3 -3 -5 -34 -17 -70 -12 -36 -19 -70 -15 -76 10 -17 61 -11 78 8 21 23 22 36 2 28 -8 -3 -15 -4 -15 -3 0 1 9 30 20 64 11 35 17 70 14 78 -10 26 -62 18 -95 -14 -32 -33 -33 -33 -19 3 9 25 9 26 -34 26 -23 0 -45 -3 -49 -6z"/>
<path d="M8562 1800 c-18 -11 -41 -34 -52 -52 -22 -37 -26 -98 -8 -116 27 -27 158 -3 158 29 0 10 -20 8 -71 -7 -18 -5 -52 22 -44 35 2 5 22 11 43 15 52 8 94 48 90 84 -3 24 -8 27 -43 30 -26 2 -51 -4 -73 -18z m61 -18 c-9 -25 -44 -62 -60 -62 -11 0 -11 5 -2 23 27 53 78 85 62 39z"/>
<path d="M8707 1813 c-4 -3 -2 -12 5 -20 8 -10 3 -40 -22 -124 -19 -61 -40 -113 -47 -116 -30 -12 -9 -23 42 -23 49 0 73 12 44 22 -8 3 -9 15 -4 36 6 29 10 32 42 32 82 0 148 103 117 184 -7 19 -64 22 -82 4 -9 -9 -12 -9 -12 0 0 13 -71 17 -83 5z m126 -76 c-12 -64 -66 -127 -79 -92 -9 22 24 123 44 134 26 15 42 -5 35 -42z"/>
<path d="M8977 1799 c-15 -12 -34 -34 -42 -50 -18 -34 -20 -100 -3 -117 17 -17 100 -15 126 4 26 18 31 71 7 80 -12 5 -10 10 11 26 18 14 24 28 22 47 -3 23 -8 26 -48 28 -33 2 -52 -3 -73 -18z m66 -32 c-18 -29 -43 -48 -43 -30 0 4 9 23 20 41 26 42 48 32 23 -11z m-20 -63 c9 -9 -13 -62 -29 -68 -17 -7 -22 24 -9 62 5 12 27 16 38 6z"/>
<path d="M9134 1796 c3 -13 -3 -54 -15 -90 -11 -37 -17 -71 -14 -76 13 -21 66 -10 95 19 l29 28 -6 -28 c-5 -27 -4 -29 29 -29 21 0 41 7 51 18 21 23 22 36 2 28 -19 -7 -19 -4 5 74 25 82 25 80 -10 80 -25 0 -31 -5 -40 -38 -10 -37 -73 -122 -83 -112 -3 3 5 38 18 78 l23 72 -45 0 c-43 0 -45 -1 -39 -24z"/>
<path d="M9377 1814 c-4 -4 -3 -12 1 -18 4 -6 7 -31 7 -56 l0 -45 46 0 c45 0 46 -1 37 -24 -5 -14 -7 -30 -4 -38 8 -19 60 -16 79 5 21 23 22 36 2 28 -8 -3 -15 -4 -15 -3 0 1 9 34 20 72 11 38 20 73 20 77 0 5 -13 8 -29 8 -27 0 -30 -4 -42 -49 -8 -34 -19 -51 -31 -55 -26 -6 -33 16 -20 64 l10 40 -37 0 c-21 0 -41 -3 -44 -6z"/>
<path d="M9626 1811 c-4 -5 -3 -16 0 -24 3 -8 -4 -45 -15 -82 -27 -85 -27 -85 8 -85 27 0 30 4 42 50 11 42 17 50 36 50 26 0 28 -7 13 -44 -5 -14 -7 -33 -4 -41 8 -21 57 -19 77 3 21 23 22 36 2 28 -19 -7 -19 -4 5 74 25 82 25 80 -9 80 -25 0 -30 -5 -41 -45 -11 -38 -17 -45 -37 -45 -20 0 -24 4 -18 18 3 9 9 29 12 45 5 25 3 27 -30 27 -20 0 -38 -4 -41 -9z"/>
<path d="M9906 1801 c-42 -28 -66 -70 -66 -116 0 -51 14 -65 62 -65 51 0 91 22 117 63 28 45 29 112 2 127 -30 16 -83 12 -115 -9z m69 -68 c-8 -27 -25 -62 -36 -77 -18 -23 -24 -25 -35 -14 -12 12 -12 22 1 65 8 27 25 62 36 77 18 23 24 25 35 14 12 -12 12 -22 -1 -65z"/>
<path d="M10105 1806 c-25 -18 -14 -32 13 -17 15 8 23 7 31 -2 15 -19 -11 -53 -60 -78 -36 -18 -40 -24 -37 -52 3 -31 5 -32 53 -34 32 -2 57 2 69 12 26 20 15 28 -20 15 -24 -9 -31 -8 -41 6 -16 22 4 47 60 76 34 17 38 23 35 51 -3 30 -6 32 -43 35 -24 2 -48 -3 -60 -12z"/>
<path d="M10296 1801 c-42 -28 -66 -70 -66 -116 0 -51 14 -65 62 -65 51 0 91 22 117 63 28 45 29 112 2 127 -30 16 -83 12 -115 -9z m69 -68 c-8 -27 -25 -62 -36 -77 -18 -23 -24 -25 -35 -14 -12 12 -12 22 1 65 8 27 25 62 36 77 18 23 24 25 35 14 12 -12 12 -22 -1 -65z"/>
<path d="M10575 1810 c-3 -6 0 -13 8 -16 12 -4 11 -18 -9 -82 -13 -42 -24 -80 -24 -84 0 -5 13 -8 28 -8 24 0 31 6 41 38 12 37 75 121 85 111 3 -3 -3 -34 -14 -70 -25 -81 -25 -79 8 -79 25 0 31 6 40 38 12 40 75 122 86 111 3 -3 -3 -32 -14 -65 -11 -32 -18 -64 -16 -71 8 -19 61 -16 79 5 21 23 22 36 2 28 -18 -7 -18 -9 1 47 22 65 16 101 -17 105 -19 2 -36 -6 -60 -30 -18 -18 -30 -25 -26 -15 20 53 -46 65 -94 18 -32 -33 -33 -33 -19 3 9 25 9 26 -35 26 -24 0 -47 -5 -50 -10z"/>
<path d="M10966 1801 c-42 -28 -66 -70 -66 -116 0 -51 14 -65 62 -65 51 0 91 22 117 63 28 45 29 112 2 127 -30 16 -83 12 -115 -9z m69 -68 c-8 -27 -25 -62 -36 -77 -18 -23 -24 -25 -35 -14 -12 12 -12 22 1 65 8 27 25 62 36 77 18 23 24 25 35 14 12 -12 12 -22 -1 -65z"/>
<path d="M11157 1814 c-3 -3 -1 -14 5 -23 7 -12 5 -35 -11 -85 -27 -86 -27 -86 8 -86 26 0 30 5 41 48 l12 47 20 -47 c20 -46 22 -48 61 -48 37 0 39 1 25 18 -9 9 -19 27 -22 39 -4 13 -14 29 -22 38 -21 21 2 55 38 55 23 0 28 4 28 26 0 22 -4 25 -27 22 -20 -2 -34 -13 -48 -40 -21 -39 -53 -64 -40 -31 3 10 9 30 12 46 5 26 4 27 -34 27 -22 0 -42 -3 -46 -6z"/>
<path d="M11411 1804 c-34 -24 -62 -90 -59 -137 3 -38 6 -42 31 -45 16 -2 35 2 43 9 10 8 14 8 14 0 0 -18 65 -13 83 7 21 23 22 36 2 28 -19 -7 -19 -4 5 72 11 35 20 68 20 72 0 15 -116 10 -139 -6z m60 -16 c4 -46 -32 -128 -56 -128 -19 0 -19 8 1 67 17 51 31 73 45 73 5 0 10 -6 10 -12z"/>
<path d="M11550 1649 c0 -27 3 -30 28 -27 21 2 28 9 30 31 3 24 0 27 -27 27 -28 0 -31 -3 -31 -31z"/>
<path d="M68 1413 c-92 -58 -92 -239 1 -288 60 -30 146 -15 177 32 22 35 9 41 -24 11 -15 -14 -37 -29 -49 -32 -34 -11 -89 20 -105 57 -17 42 -15 125 5 164 17 33 66 56 95 46 25 -9 62 -44 62 -60 0 -7 5 -13 11 -13 6 0 9 19 7 47 l-3 47 -75 3 c-57 2 -81 -1 -102 -14z"/>
<path d="M316 1289 c-36 -42 -37 -115 -1 -153 19 -21 33 -26 69 -26 37 0 48 5 70 31 30 35 35 93 11 138 -17 33 -33 41 -85 41 -30 0 -44 -6 -64 -31z m91 -11 c54 -61 25 -171 -37 -138 -40 21 -48 128 -11 150 23 13 25 13 48 -12z"/>
<path d="M776 1289 c-36 -42 -37 -115 -1 -153 19 -21 33 -26 69 -26 37 0 48 5 70 31 30 35 35 93 11 138 -17 33 -33 41 -85 41 -30 0 -44 -6 -64 -31z m91 -11 c54 -61 25 -171 -37 -138 -40 21 -48 128 -11 150 23 13 25 13 48 -12z"/>
<path d="M1012 1313 c-22 -9 -42 -60 -42 -108 0 -35 6 -52 25 -70 33 -34 87 -34 120 0 25 24 34 65 15 65 -5 0 -10 -4 -10 -10 0 -5 -11 -17 -24 -25 -34 -23 -71 -6 -86 39 -13 39 -3 68 28 85 21 11 36 4 45 -21 3 -10 16 -18 27 -18 27 0 28 45 1 60 -20 10 -76 12 -99 3z"/>
<path d="M1398 1309 c-26 -14 -24 -59 2 -59 11 0 20 6 20 14 0 7 6 19 14 25 11 9 18 8 30 -4 9 -9 16 -19 16 -23 -1 -4 -24 -18 -53 -32 -45 -22 -52 -29 -55 -58 -2 -18 2 -40 9 -48 16 -19 58 -18 81 3 17 15 18 15 18 0 0 -20 40 -23 58 -5 17 17 15 39 -3 32 -13 -5 -15 6 -15 68 0 44 -5 79 -12 86 -15 15 -86 15 -110 1z m80 -110 c-2 -19 -12 -38 -25 -46 -20 -13 -23 -12 -34 8 -10 20 -8 26 15 46 37 31 48 29 44 -8z"/>
<path d="M2528 1313 c-19 -5 -26 -63 -8 -63 6 0 10 7 10 15 0 39 69 38 84 -1 11 -28 7 -34 -24 -34 -16 0 -30 -4 -30 -10 0 -5 16 -10 36 -10 29 0 35 -3 30 -16 -3 -9 -6 -20 -6 -25 0 -5 -11 -16 -25 -25 -22 -14 -27 -15 -56 0 -39 19 -49 13 -24 -14 13 -14 31 -20 61 -20 59 0 94 41 94 109 0 80 -56 117 -142 94z"/>
<path d="M2962 1313 c-22 -9 -42 -60 -42 -108 0 -35 6 -52 25 -70 33 -34 87 -34 120 0 25 24 34 65 15 65 -5 0 -10 -4 -10 -10 0 -5 -11 -17 -24 -25 -34 -23 -71 -6 -86 39 -13 39 -3 68 28 85 21 11 36 4 45 -21 3 -10 16 -18 27 -18 27 0 28 45 1 60 -20 10 -76 12 -99 3z"/>
<path d="M3385 1295 c-21 -20 -25 -34 -25 -80 0 -46 4 -60 25 -80 35 -36 96 -35 124 1 22 27 28 64 12 64 -5 0 -12 -9 -16 -19 -14 -44 -86 -27 -105 25 -6 14 -10 27 -10 30 0 2 32 4 70 4 63 0 70 2 70 20 0 58 -98 82 -145 35z m74 -5 c10 -5 21 -16 25 -25 4 -12 -3 -15 -39 -15 -48 0 -62 19 -27 39 21 13 20 13 41 1z"/>
<path d="M3558 1313 c-22 -6 -23 -19 -3 -27 23 -8 22 -212 -2 -238 -15 -17 -14 -18 37 -18 51 0 52 1 37 18 -10 10 -17 30 -17 43 0 22 3 24 45 21 41 -4 46 -2 65 30 32 52 24 145 -14 170 -19 13 -59 9 -78 -9 -17 -15 -18 -15 -18 0 0 17 -16 20 -52 10z m136 -83 c7 -36 -10 -86 -32 -95 -47 -18 -74 108 -30 139 20 14 24 14 39 0 9 -8 19 -28 23 -44z"/>
<path d="M4325 1295 c-21 -20 -25 -34 -25 -80 0 -46 4 -60 25 -80 35 -36 96 -35 124 1 22 27 28 64 12 64 -5 0 -12 -9 -16 -19 -14 -44 -86 -27 -105 25 -6 14 -10 27 -10 30 0 2 32 4 70 4 63 0 70 2 70 20 0 58 -98 82 -145 35z m74 -5 c10 -5 21 -16 25 -25 4 -12 -3 -15 -39 -15 -48 0 -62 19 -27 39 21 13 20 13 41 1z"/>
<path d="M4958 1309 c-26 -14 -24 -59 2 -59 11 0 20 6 20 14 0 7 6 19 14 25 11 9 18 8 30 -4 9 -9 16 -19 16 -23 -1 -4 -24 -18 -53 -32 -45 -22 -52 -29 -55 -58 -2 -18 2 -40 9 -48 16 -19 58 -18 81 3 17 15 18 15 18 0 0 -20 40 -23 58 -5 9 9 12 9 12 0 0 -7 10 -12 23 -12 38 0 47 19 47 102 l0 78 35 0 35 0 0 -67 c0 -48 -5 -72 -17 -85 -15 -17 -14 -18 36 -18 48 0 51 1 37 16 -24 23 -22 142 2 160 14 11 3 13 -76 14 l-93 0 15 -22 c17 -24 20 -56 10 -107 -6 -28 -9 -31 -45 -29 l-39 1 0 72 c0 42 -5 76 -12 83 -15 15 -86 15 -110 1z m80 -110 c-2 -19 -12 -38 -25 -46 -20 -13 -23 -12 -34 8 -10 20 -8 26 15 46 37 31 48 29 44 -8z"/>
<path d="M6105 1295 c-21 -20 -25 -34 -25 -80 0 -46 4 -60 25 -80 35 -36 96 -35 124 1 22 27 28 64 12 64 -5 0 -12 -9 -16 -19 -14 -44 -86 -27 -105 25 -6 14 -10 27 -10 30 0 2 32 4 70 4 63 0 70 2 70 20 0 58 -98 82 -145 35z m74 -5 c10 -5 21 -16 25 -25 4 -12 -3 -15 -39 -15 -48 0 -62 19 -27 39 21 13 20 13 41 1z"/>
<path d="M6398 1313 c-22 -6 -23 -19 -3 -27 23 -8 22 -212 -2 -238 -15 -17 -14 -18 37 -18 51 0 52 1 37 18 -10 10 -17 30 -17 43 0 22 3 24 45 21 41 -4 46 -2 65 30 32 52 24 145 -14 170 -19 13 -59 9 -78 -9 -17 -15 -18 -15 -18 0 0 17 -16 20 -52 10z m136 -83 c7 -36 -10 -86 -32 -95 -47 -18 -74 108 -30 139 20 14 24 14 39 0 9 -8 19 -28 23 -44z"/>
<path d="M6635 1295 c-21 -20 -25 -34 -25 -80 0 -46 4 -60 25 -80 35 -36 96 -35 124 1 22 27 28 64 12 64 -5 0 -12 -9 -16 -19 -14 -44 -86 -27 -105 25 -6 14 -10 27 -10 30 0 2 32 4 70 4 63 0 70 2 70 20 0 58 -98 82 -145 35z m74 -5 c10 -5 21 -16 25 -25 4 -12 -3 -15 -39 -15 -48 0 -62 19 -27 39 21 13 20 13 41 1z"/>
<path d="M6838 1313 c-19 -5 -26 -63 -8 -63 6 0 10 6 10 14 0 21 28 46 45 40 23 -9 25 -32 4 -58 -18 -23 -19 -27 -4 -32 29 -11 36 -40 17 -64 -18 -22 -19 -22 -51 -6 -40 21 -55 11 -22 -15 29 -24 93 -25 116 -3 24 24 16 76 -14 90 -23 12 -23 12 -2 19 24 7 29 53 9 73 -12 12 -65 14 -100 5z"/>
<path d="M7858 1309 c-26 -14 -24 -59 2 -59 11 0 20 6 20 14 0 7 6 19 14 25 11 9 18 8 30 -4 9 -9 16 -19 16 -23 -1 -4 -24 -18 -53 -32 -45 -22 -52 -29 -55 -58 -2 -18 2 -40 9 -48 16 -19 58 -18 81 3 17 15 18 15 18 0 0 -20 40 -23 58 -5 17 17 15 39 -3 32 -13 -5 -15 6 -15 68 0 44 -5 79 -12 86 -15 15 -86 15 -110 1z m80 -110 c-2 -19 -12 -38 -25 -46 -20 -13 -23 -12 -34 8 -10 20 -8 26 15 46 37 31 48 29 44 -8z"/>
<path d="M8672 1313 c-22 -9 -42 -60 -42 -108 0 -35 6 -52 25 -70 33 -34 87 -34 120 0 25 24 34 65 15 65 -5 0 -10 -4 -10 -10 0 -5 -11 -17 -24 -25 -34 -23 -71 -6 -86 39 -13 39 -3 68 28 85 21 11 36 4 45 -21 3 -10 16 -18 27 -18 27 0 28 45 1 60 -20 10 -76 12 -99 3z"/>
<path d="M9155 1295 c-23 -22 -25 -23 -25 -5 0 19 -7 20 -100 20 l-100 0 0 -25 c0 -29 6 -31 26 -10 9 8 24 15 35 15 17 0 19 -7 19 -67 0 -48 -5 -72 -17 -85 -15 -17 -14 -18 38 -18 42 1 50 3 37 11 -15 8 -18 24 -18 86 l0 75 26 -6 c41 -11 54 -30 54 -81 0 -61 32 -95 89 -95 31 0 44 6 60 26 22 27 28 64 12 64 -5 0 -12 -9 -16 -19 -14 -44 -86 -27 -105 25 -6 14 -10 27 -10 30 0 2 32 4 70 4 63 0 70 2 70 20 0 58 -98 82 -145 35z m74 -5 c10 -5 21 -16 25 -25 4 -12 -3 -15 -39 -15 -48 0 -62 19 -27 39 21 13 20 13 41 1z"/>
<path d="M9356 1289 c-36 -42 -37 -115 -1 -153 19 -21 33 -26 69 -26 37 0 48 5 70 31 30 35 35 93 11 138 -17 33 -33 41 -85 41 -30 0 -44 -6 -64 -31z m91 -11 c54 -61 25 -171 -37 -138 -40 21 -48 128 -11 150 23 13 25 13 48 -12z"/>
<path d="M9558 1313 c-22 -6 -23 -19 -3 -27 23 -8 22 -212 -2 -238 -15 -17 -14 -18 37 -18 51 0 52 1 37 18 -10 10 -17 30 -17 43 0 22 3 24 45 21 41 -4 46 -2 65 30 32 52 24 145 -14 170 -19 13 -59 9 -78 -9 -17 -15 -18 -15 -18 0 0 17 -16 20 -52 10z m136 -83 c7 -36 -10 -86 -32 -95 -47 -18 -74 108 -30 139 20 14 24 14 39 0 9 -8 19 -28 23 -44z"/>
<path d="M9795 1295 c-21 -20 -25 -34 -25 -80 0 -46 4 -60 25 -80 35 -36 96 -35 124 1 22 27 28 64 12 64 -5 0 -12 -9 -16 -19 -14 -44 -86 -27 -105 25 -6 14 -10 27 -10 30 0 2 32 4 70 4 63 0 70 2 70 20 0 58 -98 82 -145 35z m74 -5 c10 -5 21 -16 25 -25 4 -12 -3 -15 -39 -15 -48 0 -62 19 -27 39 21 13 20 13 41 1z"/>
<path d="M10645 1295 c-21 -20 -25 -34 -25 -80 0 -46 4 -60 25 -80 35 -36 96 -35 124 1 22 27 28 64 12 64 -5 0 -12 -9 -16 -19 -14 -44 -86 -27 -105 25 -6 14 -10 27 -10 30 0 2 32 4 70 4 63 0 70 2 70 20 0 58 -98 82 -145 35z m74 -5 c10 -5 21 -16 25 -25 4 -12 -3 -15 -39 -15 -48 0 -62 19 -27 39 21 13 20 13 41 1z"/>
<path d="M10862 1313 c-22 -9 -42 -60 -42 -108 0 -35 6 -52 25 -70 33 -34 87 -34 120 0 25 24 34 65 15 65 -5 0 -10 -4 -10 -10 0 -5 -11 -17 -24 -25 -34 -23 -71 -6 -86 39 -13 39 -3 68 28 85 21 11 36 4 45 -21 3 -10 16 -18 27 -18 27 0 28 45 1 60 -20 10 -76 12 -99 3z"/>
<path d="M523 1292 c23 -26 23 -128 0 -154 -15 -17 -14 -18 36 -18 48 0 51 1 37 16 -12 11 -16 35 -16 85 l0 69 45 0 45 0 0 -66 c0 -36 -5 -74 -10 -85 -10 -17 -7 -19 35 -19 42 0 45 1 31 16 -24 23 -22 142 2 160 14 11 -1 13 -102 14 -115 0 -118 -1 -103 -18z"/>
<path d="M1160 1285 c0 -29 6 -31 26 -10 9 8 24 15 35 15 17 0 19 -7 19 -67 0 -48 -5 -72 -17 -85 -15 -17 -14 -18 38 -18 42 1 50 3 37 11 -15 8 -18 24 -18 86 l0 75 28 -7 c15 -3 29 -11 30 -16 7 -19 22 -8 22 16 l0 25 -100 0 -100 0 0 -25z"/>
<path d="M1573 1292 c12 -13 17 -37 17 -77 0 -40 -5 -64 -17 -77 -15 -17 -13 -18 56 -18 40 0 81 5 92 10 26 14 25 64 -1 83 -18 12 -18 15 -5 20 18 7 20 48 3 65 -7 7 -42 12 -87 12 -71 0 -73 -1 -58 -18z m109 -21 c11 -9 -4 -27 -29 -35 -21 -7 -23 -4 -23 24 0 28 3 31 23 25 12 -4 25 -10 29 -14z m-3 -78 c25 -21 16 -41 -19 -45 -22 -3 -25 2 -28 30 -4 37 13 42 47 15z"/>
<path d="M1783 1292 c12 -13 17 -37 17 -77 0 -40 -5 -64 -17 -77 -15 -17 -14 -18 37 -18 51 0 52 1 37 18 -16 17 -14 21 28 62 l45 44 0 -43 c0 -23 -5 -51 -10 -62 -10 -17 -7 -19 35 -19 42 0 45 1 31 16 -18 18 -23 154 -6 154 6 0 10 -7 10 -15 0 -8 3 -15 6 -15 3 0 12 7 20 15 9 8 24 15 35 15 17 0 19 -7 19 -67 0 -48 -5 -72 -17 -85 -15 -17 -14 -18 38 -18 42 1 50 3 37 11 -15 8 -18 24 -18 86 l0 75 28 -7 c15 -3 29 -11 30 -16 7 -19 22 -8 22 16 l0 25 -140 0 c-134 0 -152 -4 -130 -26 7 -7 -5 -25 -35 -54 l-45 -44 0 48 c0 35 5 53 18 62 15 12 10 13 -37 14 -52 0 -53 -1 -38 -18z"/>
<path d="M2213 1292 c12 -13 17 -37 17 -77 0 -40 -5 -64 -17 -77 -15 -17 -13 -18 56 -18 91 0 111 10 111 55 0 40 -20 55 -74 55 -32 0 -36 3 -36 26 0 15 8 33 18 40 15 12 10 13 -37 14 -52 0 -53 -1 -38 -18z m106 -99 c25 -21 16 -41 -19 -45 -22 -3 -25 2 -28 30 -4 37 13 42 47 15z"/>
<path d="M2713 1292 c12 -13 17 -37 17 -77 0 -40 -5 -64 -17 -77 -15 -17 -14 -18 37 -18 52 0 53 1 36 19 -11 12 -16 31 -14 53 l3 33 30 -52 c28 -50 32 -53 69 -53 l39 0 -24 24 c-51 52 -67 80 -58 104 6 15 17 22 34 22 18 0 25 5 25 20 0 35 -47 26 -71 -14 -11 -19 -26 -37 -34 -40 -22 -8 -19 43 3 60 15 12 10 13 -37 14 -52 0 -53 -1 -38 -18z"/>
<path d="M3133 1292 c12 -13 17 -37 17 -77 0 -40 -5 -64 -17 -77 -15 -17 -14 -18 36 -18 48 0 51 1 37 16 -12 11 -16 35 -16 85 l0 69 45 0 45 0 0 -66 c0 -36 -5 -74 -10 -85 -10 -17 -7 -19 35 -19 42 0 45 1 31 16 -24 23 -22 142 2 160 14 11 -1 13 -102 14 -115 0 -118 -1 -103 -18z"/>
<path d="M3793 1292 c12 -13 17 -37 17 -77 0 -40 -5 -64 -17 -77 -15 -17 -14 -18 37 -18 51 0 52 1 37 18 -16 17 -14 21 28 62 l45 44 0 -43 c0 -23 -5 -51 -10 -62 -10 -18 -7 -19 71 -19 79 0 81 1 66 18 -12 13 -17 36 -16 73 l0 54 34 -73 c21 -45 40 -72 47 -70 7 3 24 33 38 69 l25 64 3 -49 c2 -35 -2 -53 -14 -67 -17 -18 -15 -19 36 -19 51 0 52 1 37 18 -24 27 -24 140 1 158 15 12 12 13 -23 14 l-40 0 -26 -66 -26 -67 -28 67 -29 66 -83 0 c-80 0 -94 -5 -73 -26 7 -7 -5 -25 -35 -54 l-45 -44 0 48 c0 35 5 53 18 62 15 12 10 13 -37 14 -52 0 -53 -1 -38 -18z m236 -6 c19 -23 10 -136 -12 -150 -26 -16 -37 8 -37 86 0 62 5 74 31 77 4 1 12 -5 18 -13z"/>
<path d="M4503 1292 c12 -13 17 -37 17 -77 0 -40 -5 -64 -17 -77 -15 -17 -14 -18 37 -18 51 0 52 1 37 18 -10 10 -17 31 -17 45 0 25 3 27 45 27 42 0 45 -2 45 -26 0 -14 -5 -34 -10 -45 -10 -18 -7 -19 36 -19 45 0 46 1 31 18 -23 25 -24 134 -2 152 13 10 15 9 15 -9 0 -25 6 -26 26 -6 9 8 24 15 35 15 17 0 19 -7 19 -67 0 -48 -5 -72 -17 -85 -15 -17 -14 -18 38 -18 42 1 50 3 37 11 -15 8 -18 24 -18 86 l0 75 28 -7 c15 -3 29 -11 30 -16 7 -19 22 -8 22 16 l0 25 -145 0 c-90 0 -145 -4 -145 -10 0 -5 5 -10 10 -10 6 0 10 -13 10 -30 0 -29 -2 -30 -45 -30 -40 0 -45 3 -45 22 0 12 7 30 17 40 15 17 14 18 -37 18 -51 0 -52 -1 -37 -18z"/>
<path d="M5353 1292 c12 -13 17 -37 17 -77 0 -40 -5 -64 -17 -77 -15 -17 -13 -18 56 -18 91 0 111 10 111 55 0 40 -20 55 -74 55 -32 0 -36 3 -36 26 0 15 8 33 18 40 15 12 10 13 -37 14 -52 0 -53 -1 -38 -18z m106 -99 c25 -21 16 -41 -19 -45 -22 -3 -25 2 -28 30 -4 37 13 42 47 15z"/>
<path d="M5553 1292 c12 -13 17 -37 17 -77 0 -40 -5 -64 -17 -77 -15 -17 -14 -18 37 -18 51 0 52 1 37 18 -10 10 -17 31 -17 45 0 25 3 27 45 27 42 0 45 -2 45 -26 0 -14 -5 -34 -10 -45 -10 -18 -7 -19 36 -19 45 0 46 1 31 18 -12 13 -17 37 -17 77 0 40 5 64 17 77 15 17 14 18 -30 18 -26 0 -47 -4 -47 -10 0 -5 5 -10 10 -10 6 0 10 -13 10 -30 0 -29 -2 -30 -45 -30 -40 0 -45 3 -45 22 0 12 7 30 17 40 15 17 14 18 -37 18 -51 0 -52 -1 -37 -18z"/>
<path d="M5793 1292 c12 -13 17 -37 17 -77 0 -40 -5 -64 -17 -77 -15 -17 -13 -18 56 -18 91 0 111 10 111 55 0 40 -20 55 -74 55 -32 0 -36 3 -36 26 0 15 8 33 18 40 15 12 10 13 -37 14 -52 0 -53 -1 -38 -18z m106 -99 c25 -21 16 -41 -19 -45 -22 -3 -25 2 -28 30 -4 37 13 42 47 15z"/>
<path d="M5973 1292 c12 -13 17 -37 17 -77 0 -40 -5 -64 -17 -77 -15 -17 -14 -18 37 -18 51 0 52 1 37 18 -24 27 -24 140 1 158 15 12 10 13 -37 14 -52 0 -53 -1 -38 -18z"/>
<path d="M6970 1305 c0 -3 7 -13 16 -23 8 -10 33 -50 54 -89 38 -71 38 -71 20 -100 -15 -25 -23 -29 -49 -25 -26 4 -31 1 -31 -17 0 -16 6 -21 28 -21 39 0 51 16 119 158 l58 122 -29 0 c-22 0 -26 -3 -18 -13 7 -9 5 -26 -10 -60 -11 -26 -24 -47 -27 -47 -4 0 -17 21 -29 46 -18 36 -20 49 -11 60 10 12 3 14 -40 14 -28 0 -51 -2 -51 -5z"/>
<path d="M7244 1288 c17 -24 20 -56 10 -107 -5 -24 -12 -31 -30 -31 -17 0 -24 -6 -24 -20 0 -14 7 -20 23 -20 38 0 47 19 47 102 l0 78 35 0 35 0 0 -67 c0 -48 -5 -72 -17 -85 -15 -17 -14 -18 36 -18 48 0 51 1 37 16 -24 23 -22 142 2 160 14 11 3 13 -76 14 l-93 0 15 -22z"/>
<path d="M7443 1292 c12 -13 17 -37 17 -77 0 -40 -5 -64 -17 -77 -15 -17 -13 -18 56 -18 91 0 111 10 111 55 0 40 -20 55 -74 55 -32 0 -36 3 -36 26 0 15 8 33 18 40 15 12 10 13 -37 14 -52 0 -53 -1 -38 -18z m106 -99 c25 -21 16 -41 -19 -45 -22 -3 -25 2 -28 30 -4 37 13 42 47 15z"/>
<path d="M7620 1285 c0 -29 6 -31 26 -10 9 8 24 15 35 15 17 0 19 -7 19 -67 0 -48 -5 -72 -17 -85 -15 -17 -14 -18 38 -18 42 1 50 3 37 11 -15 8 -18 24 -18 86 l0 75 28 -7 c15 -3 29 -11 30 -16 7 -19 22 -8 22 16 l0 25 -100 0 -100 0 0 -25z"/>
<path d="M8010 1285 c0 -29 6 -31 26 -10 9 8 24 15 35 15 17 0 19 -7 19 -67 0 -48 -5 -72 -17 -85 -15 -17 -14 -18 38 -18 42 1 50 3 37 11 -15 8 -18 24 -18 86 l0 75 28 -7 c15 -3 29 -11 30 -16 7 -19 22 -8 22 16 l0 25 -100 0 -100 0 0 -25z"/>
<path d="M8233 1292 c12 -13 17 -37 17 -77 0 -40 -5 -64 -17 -77 -15 -17 -13 -18 56 -18 91 0 111 10 111 55 0 40 -20 55 -74 55 -32 0 -36 3 -36 26 0 15 8 33 18 40 15 12 10 13 -37 14 -52 0 -53 -1 -38 -18z m106 -99 c25 -21 16 -41 -19 -45 -22 -3 -25 2 -28 30 -4 37 13 42 47 15z"/>
<path d="M8413 1292 c12 -13 17 -37 17 -77 0 -40 -5 -64 -17 -77 -15 -17 -14 -18 37 -18 51 0 52 1 37 18 -24 27 -24 140 1 158 15 12 10 13 -37 14 -52 0 -53 -1 -38 -18z"/>
<path d="M9960 1285 c0 -29 6 -31 26 -10 9 8 24 15 35 15 17 0 19 -7 19 -67 0 -48 -5 -72 -17 -85 -15 -17 -14 -18 38 -18 42 1 50 3 37 11 -15 8 -18 24 -18 86 l0 75 28 -7 c15 -3 29 -11 30 -16 7 -17 22 -9 22 12 0 18 2 19 15 9 22 -18 21 -127 -2 -152 -15 -17 -14 -18 37 -18 51 0 52 1 37 18 -16 17 -14 21 28 62 l45 44 0 -43 c0 -23 -5 -51 -10 -62 -10 -17 -7 -19 35 -19 42 0 45 1 31 16 -23 23 -23 149 0 158 26 10 44 -13 44 -56 l0 -40 55 4 c53 4 55 4 55 -20 0 -14 -7 -34 -17 -44 -15 -17 -14 -18 37 -18 51 0 52 1 37 18 -24 27 -24 140 1 158 15 12 11 13 -30 14 -27 0 -48 -4 -48 -10 0 -5 5 -10 10 -10 6 0 10 -13 10 -29 0 -21 -6 -30 -22 -34 -12 -4 -28 -1 -35 5 -16 13 -17 50 -1 66 9 9 -8 12 -80 12 -89 0 -103 -5 -82 -26 7 -7 -5 -25 -35 -54 l-45 -44 0 48 c0 35 5 53 18 62 14 11 -7 13 -135 14 l-153 0 0 -25z"/>
<path d="M11033 1292 c12 -13 17 -37 17 -77 0 -40 -5 -64 -17 -77 -15 -17 -14 -18 37 -18 52 0 53 1 36 19 -11 12 -16 31 -14 53 l3 33 30 -52 30 -53 89 0 c85 0 88 1 73 18 -16 17 -14 21 28 62 l45 44 0 -43 c0 -23 -5 -51 -10 -62 -10 -17 -7 -19 35 -19 42 0 45 1 31 16 -24 23 -22 142 2 160 15 12 11 13 -30 14 -48 0 -57 -7 -38 -26 7 -7 -5 -25 -35 -54 l-45 -44 0 48 c0 35 5 53 18 62 15 12 10 13 -37 14 -52 0 -53 -1 -38 -18 22 -24 24 -134 3 -151 -16 -13 -56 1 -56 19 0 4 -11 21 -24 37 -30 36 -20 73 19 73 18 0 25 5 25 20 0 35 -47 26 -71 -14 -11 -19 -26 -37 -34 -40 -22 -8 -19 43 3 60 15 12 10 13 -37 14 -52 0 -53 -1 -38 -18z"/>
<path d="M11483 1292 c12 -13 17 -37 17 -77 0 -40 -5 -64 -17 -77 -15 -17 -14 -18 22 -18 36 0 37 1 22 18 -12 13 -17 36 -16 73 l0 54 34 -73 c21 -45 40 -72 47 -70 7 3 24 33 38 69 l25 64 3 -49 c2 -35 -2 -53 -14 -67 -17 -18 -15 -19 36 -19 51 0 52 1 37 18 -24 27 -24 140 1 158 15 12 12 13 -23 14 l-40 0 -26 -66 -26 -67 -28 67 c-29 65 -30 66 -69 66 -37 0 -38 -1 -23 -18z"/>
<path d="M11763 1292 c12 -13 17 -37 17 -77 0 -40 -5 -64 -17 -77 -15 -17 -14 -18 37 -18 51 0 52 1 37 18 -16 17 -14 21 28 62 l45 44 0 -43 c0 -23 -5 -51 -10 -62 -10 -17 -7 -19 35 -19 42 0 45 1 31 16 -24 23 -22 142 2 160 15 12 11 13 -30 14 -48 0 -57 -7 -38 -26 7 -7 -5 -25 -35 -54 l-45 -44 0 48 c0 35 5 53 18 62 15 12 10 13 -37 14 -52 0 -53 -1 -38 -18z"/>
<path d="M1098 789 c-26 -14 -24 -59 2 -59 11 0 20 6 20 14 0 7 6 19 14 25 11 9 18 8 30 -4 9 -9 16 -19 16 -23 -1 -4 -24 -18 -53 -32 -45 -22 -52 -29 -55 -58 -2 -18 2 -40 9 -48 16 -19 58 -18 81 3 17 15 18 15 18 0 0 -20 40 -23 58 -5 17 17 15 39 -3 32 -13 -5 -15 6 -15 68 0 44 -5 79 -12 86 -15 15 -86 15 -110 1z m80 -110 c-2 -19 -12 -38 -25 -46 -20 -13 -23 -12 -34 8 -10 20 -8 26 15 46 37 31 48 29 44 -8z"/>
<path d="M3036 769 c-36 -42 -37 -115 -1 -153 19 -21 33 -26 69 -26 37 0 48 5 70 31 30 35 35 93 11 138 -17 33 -33 41 -85 41 -30 0 -44 -6 -64 -31z m91 -11 c54 -61 25 -171 -37 -138 -40 21 -48 128 -11 150 23 13 25 13 48 -12z"/>
<path d="M3915 775 c-21 -20 -25 -34 -25 -80 0 -46 4 -60 25 -80 35 -36 96 -35 124 1 22 27 28 64 12 64 -5 0 -12 -9 -16 -19 -14 -44 -86 -27 -105 25 -6 14 -10 27 -10 30 0 2 32 4 70 4 63 0 70 2 70 20 0 58 -98 82 -145 35z m74 -5 c10 -5 21 -16 25 -25 4 -12 -3 -15 -39 -15 -48 0 -62 19 -27 39 21 13 20 13 41 1z"/>
<path d="M6745 775 c-21 -20 -25 -34 -25 -80 0 -46 4 -60 25 -80 35 -36 96 -35 124 1 22 27 28 64 12 64 -5 0 -12 -9 -16 -19 -14 -44 -86 -27 -105 25 -6 14 -10 27 -10 30 0 2 32 4 70 4 63 0 70 2 70 20 0 58 -98 82 -145 35z m74 -5 c10 -5 21 -16 25 -25 4 -12 -3 -15 -39 -15 -48 0 -62 19 -27 39 21 13 20 13 41 1z"/>
<path d="M6958 789 c-26 -14 -24 -59 2 -59 11 0 20 6 20 14 0 7 6 19 14 25 11 9 18 8 30 -4 9 -9 16 -19 16 -23 -1 -4 -24 -18 -53 -32 -45 -22 -52 -29 -55 -58 -2 -18 2 -40 9 -48 16 -19 58 -18 81 3 17 15 18 15 18 0 0 -20 40 -23 58 -5 9 9 12 9 12 0 0 -7 10 -12 23 -12 38 0 47 19 47 102 l0 78 35 0 35 0 0 -67 c0 -48 -5 -72 -17 -85 -15 -17 -14 -18 36 -18 48 0 51 1 37 16 -24 23 -22 142 2 160 14 11 3 13 -76 14 l-93 0 15 -22 c17 -24 20 -56 10 -107 -6 -28 -9 -31 -45 -29 l-39 1 0 72 c0 42 -5 76 -12 83 -15 15 -86 15 -110 1z m80 -110 c-2 -19 -12 -38 -25 -46 -20 -13 -23 -12 -34 8 -10 20 -8 26 15 46 37 31 48 29 44 -8z"/>
<path d="M7806 769 c-36 -42 -37 -115 -1 -153 19 -21 33 -26 69 -26 37 0 48 5 70 31 30 35 35 93 11 138 -17 33 -33 41 -85 41 -30 0 -44 -6 -64 -31z m91 -11 c54 -61 25 -171 -37 -138 -40 21 -48 128 -11 150 23 13 25 13 48 -12z"/>
<path d="M8216 769 c-36 -42 -37 -115 -1 -153 19 -21 33 -26 69 -26 37 0 48 5 70 31 30 35 35 93 11 138 -17 33 -33 41 -85 41 -30 0 -44 -6 -64 -31z m91 -11 c54 -61 25 -171 -37 -138 -40 21 -48 128 -11 150 23 13 25 13 48 -12z"/>
<path d="M9161 790 c-116 -4 -132 -7 -118 -19 24 -19 24 -127 0 -153 -15 -17 -14 -18 36 -18 48 0 51 1 37 16 -12 11 -16 35 -16 85 l0 69 45 0 45 0 0 -66 c0 -36 -5 -74 -10 -85 -10 -17 -7 -19 35 -19 42 0 45 1 31 16 -12 11 -16 35 -16 84 0 71 9 86 43 68 25 -13 26 -212 0 -240 -15 -17 -14 -18 37 -18 51 0 52 1 37 18 -10 10 -17 30 -17 43 0 22 3 24 45 21 41 -4 46 -2 65 30 32 52 24 145 -14 170 -19 13 -59 9 -78 -9 -17 -15 -18 -15 -18 0 0 10 -7 16 -17 15 -10 -1 -78 -5 -152 -8z m253 -80 c7 -36 -10 -86 -32 -95 -47 -18 -74 108 -30 139 20 14 24 14 39 0 9 -8 19 -28 23 -44z"/>
<path d="M10425 775 c-23 -22 -25 -23 -25 -5 0 19 -8 20 -145 20 -80 0 -145 -4 -145 -8 0 -4 4 -12 10 -18 7 -7 -5 -25 -35 -54 l-45 -44 0 48 c0 35 5 53 18 62 15 12 10 13 -37 14 -52 0 -53 -1 -38 -18 12 -13 17 -37 17 -77 0 -40 -5 -64 -17 -77 -15 -17 -14 -18 37 -18 51 0 52 1 37 18 -16 17 -14 21 28 62 l45 44 0 -43 c0 -23 -5 -51 -10 -62 -10 -17 -7 -19 35 -19 42 0 45 1 31 16 -22 22 -23 149 -1 158 10 4 15 -1 15 -14 0 -24 6 -25 26 -5 9 8 24 15 35 15 17 0 19 -7 19 -67 0 -48 -5 -72 -17 -85 -15 -17 -14 -18 38 -18 42 1 50 3 37 11 -15 8 -18 24 -18 86 l0 75 26 -6 c41 -11 54 -30 54 -81 0 -61 32 -95 89 -95 31 0 44 6 60 26 22 27 28 64 12 64 -5 0 -12 -9 -16 -19 -14 -44 -86 -27 -105 25 -6 14 -10 27 -10 30 0 2 32 4 70 4 63 0 70 2 70 20 0 58 -98 82 -145 35z m74 -5 c10 -5 21 -16 25 -25 4 -12 -3 -15 -39 -15 -48 0 -62 19 -27 39 21 13 20 13 41 1z"/>
<path d="M870 784 c0 -3 7 -12 15 -20 22 -23 -3 -127 -36 -144 -20 -11 -28 -70 -9 -70 6 0 10 7 10 15 0 42 140 44 172 3 l18 -23 0 31 c0 17 -7 37 -15 44 -22 18 -21 127 2 152 15 17 13 18 -70 18 -48 0 -87 -3 -87 -6z m100 -73 c0 -82 -5 -91 -51 -91 l-38 0 15 35 c7 19 14 53 14 75 0 38 2 40 30 40 30 0 30 0 30 -59z"/>
<path d="M1273 772 c12 -13 17 -37 17 -77 0 -40 -5 -64 -17 -77 -15 -17 -14 -18 37 -18 51 0 52 1 37 18 -10 10 -17 31 -17 45 0 25 3 27 45 27 42 0 45 -2 45 -26 0 -14 -5 -34 -10 -45 -10 -18 -7 -19 86 -19 93 0 96 1 81 18 -10 10 -17 31 -17 45 0 25 3 27 45 27 42 0 45 -2 45 -26 0 -14 -5 -34 -10 -45 -10 -18 -7 -19 36 -19 45 0 46 1 31 18 -12 13 -17 37 -17 77 0 40 5 64 17 77 15 17 14 18 -30 18 -26 0 -47 -4 -47 -10 0 -5 5 -10 10 -10 6 0 10 -13 10 -30 0 -29 -2 -30 -45 -30 -40 0 -45 3 -45 22 0 12 7 30 17 40 15 17 12 18 -80 18 -58 0 -97 -4 -97 -10 0 -5 5 -10 10 -10 6 0 10 -13 10 -30 0 -29 -2 -30 -45 -30 -40 0 -45 3 -45 22 0 12 7 30 17 40 15 17 14 18 -37 18 -51 0 -52 -1 -37 -18z m235 -4 c18 -18 16 -133 -3 -148 -28 -23 -45 5 -45 74 0 55 11 86 30 86 3 0 11 -5 18 -12z"/>
<path d="M1743 772 c12 -13 17 -37 17 -77 0 -40 -5 -64 -17 -77 -15 -17 -13 -18 56 -18 91 0 111 10 111 55 0 40 -20 55 -74 55 -32 0 -36 3 -36 26 0 15 8 33 18 40 15 12 10 13 -37 14 -52 0 -53 -1 -38 -18z m106 -99 c25 -21 16 -41 -19 -45 -22 -3 -25 2 -28 30 -4 37 13 42 47 15z"/>
<path d="M1923 772 c12 -13 17 -37 17 -77 0 -40 -5 -64 -17 -77 -15 -17 -14 -18 37 -18 51 0 52 1 37 18 -24 27 -24 140 1 158 15 12 10 13 -37 14 -52 0 -53 -1 -38 -18z"/>
<path d="M2043 772 c12 -13 17 -37 17 -77 0 -40 -5 -64 -17 -77 -15 -17 -14 -18 22 -18 36 0 37 1 22 18 -12 13 -17 36 -16 73 l0 54 34 -73 c21 -45 40 -72 47 -70 7 3 24 33 38 69 l25 64 3 -49 c2 -35 -2 -53 -14 -67 -17 -18 -15 -19 36 -19 51 0 52 1 37 18 -24 27 -24 140 1 158 15 12 12 13 -23 14 l-40 0 -26 -66 -26 -67 -28 67 c-29 65 -30 66 -69 66 -37 0 -38 -1 -23 -18z"/>
<path d="M2323 772 c12 -13 17 -37 17 -77 0 -40 -5 -64 -17 -77 -15 -17 -14 -18 37 -18 51 0 52 1 37 18 -16 17 -14 21 28 62 l45 44 0 -43 c0 -23 -5 -51 -10 -62 -10 -17 -7 -19 35 -19 42 0 45 1 31 16 -24 23 -22 142 2 160 15 12 11 13 -30 14 -48 0 -57 -7 -38 -26 7 -7 -5 -25 -35 -54 l-45 -44 0 48 c0 35 5 53 18 62 15 12 10 13 -37 14 -52 0 -53 -1 -38 -18z"/>
<path d="M2783 772 c12 -13 17 -37 17 -77 0 -40 -5 -64 -17 -77 -15 -17 -14 -18 36 -18 48 0 51 1 37 16 -12 11 -16 35 -16 85 l0 69 45 0 45 0 0 -66 c0 -36 -5 -74 -10 -85 -10 -17 -7 -19 35 -19 42 0 45 1 31 16 -24 23 -22 142 2 160 14 11 -1 13 -102 14 -115 0 -118 -1 -103 -18z"/>
<path d="M3264 768 c17 -24 20 -56 10 -107 -5 -24 -12 -31 -30 -31 -17 0 -24 -6 -24 -20 0 -14 7 -20 23 -20 38 0 47 19 47 102 l0 78 35 0 35 0 0 -67 c0 -48 -5 -72 -17 -85 -15 -17 -14 -18 36 -18 48 0 51 1 37 16 -22 22 -23 149 -1 158 20 7 37 -14 85 -101 38 -71 38 -71 20 -100 -15 -25 -23 -29 -49 -25 -26 4 -31 1 -31 -17 0 -16 6 -21 28 -21 39 0 51 16 119 158 l58 122 -29 0 c-22 0 -26 -3 -18 -13 7 -9 5 -26 -10 -60 -11 -26 -24 -47 -27 -47 -4 0 -17 21 -29 46 -18 36 -20 49 -11 60 10 12 -10 14 -130 14 l-142 0 15 -22z"/>
<path d="M3673 772 c10 -11 17 -35 17 -57 l0 -37 55 4 c53 4 55 4 55 -20 0 -14 -7 -34 -17 -44 -15 -17 -14 -18 37 -18 51 0 52 1 37 18 -24 27 -24 140 1 158 15 12 11 13 -30 14 -27 0 -48 -4 -48 -10 0 -5 5 -10 10 -10 6 0 10 -13 10 -29 0 -21 -6 -30 -22 -34 -12 -4 -28 -1 -35 5 -16 13 -17 50 -1 66 9 9 1 12 -37 12 -46 0 -47 -1 -32 -18z"/>
<path d="M4103 772 c12 -13 17 -37 17 -77 0 -40 -5 -64 -17 -77 -15 -17 -14 -18 37 -18 51 0 52 1 37 18 -10 10 -17 31 -17 45 0 25 3 27 45 27 42 0 45 -2 45 -26 0 -14 -5 -34 -10 -45 -10 -18 -7 -19 36 -19 45 0 46 1 31 18 -12 13 -17 37 -17 77 0 40 5 64 17 77 15 17 14 18 -30 18 -26 0 -47 -4 -47 -10 0 -5 5 -10 10 -10 6 0 10 -13 10 -30 0 -29 -2 -30 -45 -30 -40 0 -45 3 -45 22 0 12 7 30 17 40 15 17 14 18 -37 18 -51 0 -52 -1 -37 -18z"/>
<path d="M4343 772 c12 -13 17 -37 17 -77 0 -40 -5 -64 -17 -77 -15 -17 -14 -18 37 -18 51 0 52 1 37 18 -10 10 -17 31 -17 45 0 25 3 27 45 27 42 0 45 -2 45 -26 0 -14 -5 -34 -10 -45 -10 -18 -7 -19 36 -19 45 0 46 1 31 18 -12 13 -17 37 -17 77 0 40 5 64 17 77 15 17 14 18 -30 18 -26 0 -47 -4 -47 -10 0 -5 5 -10 10 -10 6 0 10 -13 10 -30 0 -29 -2 -30 -45 -30 -40 0 -45 3 -45 22 0 12 7 30 17 40 15 17 14 18 -37 18 -51 0 -52 -1 -37 -18z"/>
<path d="M4583 772 c12 -13 17 -37 17 -77 0 -40 -5 -64 -17 -77 -15 -17 -13 -18 56 -18 91 0 111 10 111 55 0 40 -20 55 -74 55 -32 0 -36 3 -36 26 0 15 8 33 18 40 15 12 10 13 -37 14 -52 0 -53 -1 -38 -18z m106 -99 c25 -21 16 -41 -19 -45 -22 -3 -25 2 -28 30 -4 37 13 42 47 15z"/>
<path d="M4763 772 c12 -13 17 -37 17 -77 0 -40 -5 -64 -17 -77 -15 -17 -14 -18 37 -18 51 0 52 1 37 18 -24 27 -24 140 1 158 15 12 10 13 -37 14 -52 0 -53 -1 -38 -18z"/>
<path d="M4883 772 c12 -13 17 -37 17 -77 0 -40 -5 -64 -17 -77 -15 -17 -14 -18 22 -18 36 0 37 1 22 18 -12 13 -17 36 -16 73 l0 54 34 -73 c21 -45 40 -72 47 -70 7 3 24 33 38 69 l25 64 3 -49 c2 -35 -2 -53 -14 -67 -17 -18 -15 -19 36 -19 51 0 52 1 37 18 -24 27 -24 140 1 158 15 12 12 13 -23 14 l-40 0 -26 -66 -26 -67 -28 67 c-29 65 -30 66 -69 66 -37 0 -38 -1 -23 -18z"/>
<path d="M5163 772 c12 -13 17 -37 17 -77 0 -40 -5 -64 -17 -77 -15 -17 -14 -18 37 -18 51 0 52 1 37 18 -16 17 -14 21 28 62 l45 44 0 -43 c0 -23 -5 -51 -10 -62 -10 -17 -7 -19 35 -19 42 0 45 1 31 16 -24 23 -22 142 2 160 15 12 11 13 -30 14 -48 0 -57 -7 -38 -26 7 -7 -5 -25 -35 -54 l-45 -44 0 48 c0 35 5 53 18 62 15 12 10 13 -37 14 -52 0 -53 -1 -38 -18z"/>
<path d="M5540 784 c0 -3 7 -12 15 -20 22 -23 -3 -127 -36 -144 -20 -11 -28 -70 -9 -70 6 0 10 7 10 15 0 42 140 44 172 3 l18 -23 0 23 c0 16 6 22 23 22 38 0 47 19 47 102 l0 78 35 0 35 0 0 -67 c0 -48 -5 -72 -17 -85 -15 -17 -14 -18 36 -18 48 0 51 1 37 16 -24 23 -22 142 2 160 14 11 3 13 -76 14 l-93 0 15 -22 c17 -24 20 -56 10 -107 -5 -24 -12 -31 -30 -31 -13 0 -24 -5 -24 -11 0 -8 -5 -8 -15 1 -22 18 -21 127 2 152 15 17 13 18 -70 18 -48 0 -87 -3 -87 -6z m100 -73 c0 -82 -5 -91 -51 -91 l-38 0 15 35 c7 19 14 53 14 75 0 38 2 40 30 40 30 0 30 0 30 -59z"/>
<path d="M5982 778 c-19 -19 -14 -64 9 -79 20 -14 20 -15 -16 -56 l-37 -43 30 0 c25 0 35 8 59 45 15 25 31 45 36 45 14 0 7 -53 -10 -72 -15 -17 -14 -18 37 -18 51 0 52 1 37 18 -12 13 -17 37 -17 77 0 40 5 64 17 77 15 17 13 18 -58 18 -45 0 -80 -5 -87 -12z m86 -41 c3 -40 1 -42 -27 -27 -27 14 -33 37 -14 55 23 23 38 13 41 -28z"/>
<path d="M6273 772 c12 -13 17 -37 17 -77 0 -40 -5 -64 -17 -77 -15 -17 -14 -18 37 -18 51 0 52 1 37 18 -16 17 -14 21 28 62 l45 44 0 -43 c0 -23 -5 -51 -10 -62 -10 -17 -7 -19 35 -19 42 0 45 1 31 16 -24 23 -22 142 2 160 15 12 11 13 -30 14 -48 0 -57 -7 -38 -26 7 -7 -5 -25 -35 -54 l-45 -44 0 48 c0 35 5 53 18 62 15 12 10 13 -37 14 -52 0 -53 -1 -38 -18z"/>
<path d="M6540 784 c0 -3 7 -12 15 -20 22 -23 -3 -127 -36 -144 -20 -11 -28 -70 -9 -70 6 0 10 7 10 15 0 42 140 44 172 3 l18 -23 0 31 c0 17 -7 37 -15 44 -22 18 -21 127 2 152 15 17 13 18 -70 18 -48 0 -87 -3 -87 -6z m100 -73 c0 -82 -5 -91 -51 -91 l-38 0 15 35 c7 19 14 53 14 75 0 38 2 40 30 40 30 0 30 0 30 -59z"/>
<path d="M7353 772 c12 -13 17 -37 17 -77 0 -40 -5 -64 -17 -77 -15 -17 -13 -18 56 -18 91 0 111 10 111 55 0 40 -20 55 -74 55 -32 0 -36 3 -36 26 0 15 8 33 18 40 15 12 10 13 -37 14 -52 0 -53 -1 -38 -18z m106 -99 c25 -21 16 -41 -19 -45 -22 -3 -25 2 -28 30 -4 37 13 42 47 15z"/>
<path d="M7563 772 c12 -13 17 -37 17 -77 0 -40 -5 -64 -17 -77 -15 -17 -14 -18 37 -18 51 0 52 1 37 18 -10 10 -17 31 -17 45 0 25 3 27 45 27 42 0 45 -2 45 -26 0 -14 -5 -34 -10 -45 -10 -18 -7 -19 36 -19 45 0 46 1 31 18 -12 13 -17 37 -17 77 0 40 5 64 17 77 15 17 14 18 -30 18 -26 0 -47 -4 -47 -10 0 -5 5 -10 10 -10 6 0 10 -13 10 -30 0 -29 -2 -30 -45 -30 -40 0 -45 3 -45 22 0 12 7 30 17 40 15 17 14 18 -37 18 -51 0 -52 -1 -37 -18z"/>
<path d="M8023 772 c12 -13 17 -37 17 -77 0 -40 -5 -64 -17 -77 -15 -17 -14 -18 36 -18 48 0 51 1 37 16 -12 11 -16 35 -16 86 l0 71 37 -6 c21 -4 39 -11 41 -17 7 -20 22 -10 22 15 0 25 -1 25 -87 25 -83 0 -85 -1 -70 -18z"/>
<path d="M8533 772 c12 -13 17 -37 17 -77 0 -40 -5 -64 -17 -77 -15 -17 -13 -18 56 -18 40 0 81 5 92 10 26 14 25 64 -1 83 -18 12 -18 15 -5 20 18 7 20 48 3 65 -7 7 -42 12 -87 12 -71 0 -73 -1 -58 -18z m109 -21 c11 -9 -4 -27 -29 -35 -21 -7 -23 -4 -23 24 0 28 3 31 23 25 12 -4 25 -10 29 -14z m-3 -78 c25 -21 16 -41 -19 -45 -22 -3 -25 2 -28 30 -4 37 13 42 47 15z"/>
<path d="M8743 772 c12 -13 17 -37 17 -77 0 -40 -5 -64 -17 -77 -15 -17 -13 -18 56 -18 91 0 111 10 111 55 0 40 -20 55 -74 55 -32 0 -36 3 -36 26 0 15 8 33 18 40 15 12 10 13 -37 14 -52 0 -53 -1 -38 -18z m106 -99 c25 -21 16 -41 -19 -45 -22 -3 -25 2 -28 30 -4 37 13 42 47 15z"/>
<path d="M8923 772 c12 -13 17 -37 17 -77 0 -40 -5 -64 -17 -77 -15 -17 -14 -18 37 -18 51 0 52 1 37 18 -24 27 -24 140 1 158 15 12 10 13 -37 14 -52 0 -53 -1 -38 -18z"/>
<path d="M9522 778 c-19 -19 -14 -64 9 -79 20 -14 20 -15 -16 -56 l-37 -43 30 0 c25 0 35 8 59 45 15 25 31 45 36 45 14 0 7 -53 -10 -72 -15 -17 -14 -18 37 -18 51 0 52 1 37 18 -12 13 -17 37 -17 77 0 40 5 64 17 77 15 17 13 18 -58 18 -45 0 -80 -5 -87 -12z m86 -41 c3 -40 1 -42 -27 -27 -27 14 -33 37 -14 55 23 23 38 13 41 -28z"/>
<path d="M9703 772 c12 -13 17 -37 17 -77 0 -40 -5 -64 -17 -77 -15 -17 -14 -18 22 -18 36 0 37 1 22 18 -12 13 -17 36 -16 73 l0 54 34 -73 c21 -45 40 -72 47 -70 7 3 24 33 38 69 l25 64 3 -49 c2 -35 -2 -53 -14 -67 -17 -18 -15 -19 36 -19 51 0 52 1 37 18 -24 27 -24 140 1 158 15 12 12 13 -23 14 l-40 0 -26 -66 -26 -67 -28 67 c-29 65 -30 66 -69 66 -37 0 -38 -1 -23 -18z"/>
<path d="M10634 768 c17 -24 20 -56 10 -107 -5 -24 -12 -31 -30 -31 -17 0 -24 -6 -24 -20 0 -14 7 -20 23 -20 38 0 47 19 47 102 l0 78 35 0 35 0 0 -67 c0 -48 -5 -72 -17 -85 -15 -17 -14 -18 36 -18 48 0 51 1 37 16 -24 23 -22 142 2 160 14 11 3 13 -76 14 l-93 0 15 -22z"/>
<path d="M10862 778 c-19 -19 -14 -64 9 -79 20 -14 20 -15 -16 -56 l-37 -43 30 0 c25 0 35 8 59 45 15 25 31 45 36 45 14 0 7 -53 -10 -72 -15 -17 -14 -18 37 -18 51 0 52 1 37 18 -12 13 -17 37 -17 77 0 40 5 64 17 77 15 17 13 18 -58 18 -45 0 -80 -5 -87 -12z m86 -41 c3 -40 1 -42 -27 -27 -27 14 -33 37 -14 55 23 23 38 13 41 -28z"/>
<path d="M2560 611 c0 -17 6 -21 30 -21 28 0 30 -2 19 -21 -6 -12 -20 -24 -30 -26 -21 -6 -26 -23 -6 -23 7 0 23 7 35 16 18 12 22 24 20 52 -3 34 -6 37 -35 40 -28 3 -33 0 -33 -17z"/>
<path d="M11050 610 c0 -13 7 -20 20 -20 13 0 20 7 20 20 0 13 -7 20 -20 20 -13 0 -20 -7 -20 -20z"/>
<path d="M3850 358 c0 -40 14 -51 23 -18 6 23 49 42 73 33 8 -3 20 -17 25 -30 12 -32 -4 -62 -42 -75 -37 -13 -37 -26 2 -40 36 -12 53 -47 39 -82 -17 -46 -61 -54 -103 -18 -9 8 -20 12 -25 8 -4 -4 6 -19 21 -32 37 -31 103 -33 141 -3 20 15 26 29 26 58 0 41 -23 81 -47 81 -11 0 -8 6 11 21 33 26 37 88 6 119 -17 17 -32 20 -85 18 l-65 -2 0 -38z"/>
<path d="M6445 393 c-27 -3 -58 -11 -67 -20 -54 -49 -66 -217 -18 -268 36 -38 99 -36 134 6 41 48 29 154 -19 173 -30 11 -80 6 -103 -10 l-23 -16 14 34 c16 39 48 58 98 58 36 0 59 14 59 37 0 7 -6 12 -12 11 -7 -1 -35 -3 -63 -5z m4 -144 c53 -57 22 -171 -39 -139 -40 21 -48 128 -11 150 23 13 28 12 50 -11z"/>
<path d="M7612 374 c-30 -20 -30 -79 -1 -110 l21 -23 -21 -27 c-26 -33 -27 -85 -3 -107 24 -21 90 -22 120 -1 33 23 31 87 -5 120 l-26 24 21 23 c27 29 29 78 4 100 -23 21 -81 22 -110 1z m73 -17 c12 -19 13 -30 4 -56 -9 -27 -14 -30 -26 -19 -28 23 -35 59 -17 79 21 24 20 24 39 -4z m10 -188 c13 -24 13 -30 -4 -50 -15 -19 -21 -21 -34 -11 -21 18 -29 56 -17 87 9 23 13 25 26 14 8 -7 22 -25 29 -40z"/>
<path d="M7931 359 c-16 -47 -14 -53 15 -30 26 21 114 31 114 13 0 -4 -20 -59 -45 -122 -25 -63 -45 -118 -45 -122 0 -5 8 -8 18 -8 13 0 30 33 70 138 29 75 52 143 52 150 0 8 -24 12 -84 12 l-84 0 -11 -31z"/>
<path d="M4108 279 c-26 -14 -24 -59 2 -59 11 0 20 6 20 14 0 7 6 19 14 25 11 9 18 8 30 -4 9 -9 16 -19 16 -23 -1 -4 -24 -18 -53 -32 -45 -22 -52 -29 -55 -58 -2 -18 2 -40 9 -48 16 -19 58 -18 81 3 17 15 18 15 18 0 0 -17 39 -24 53 -10 4 4 33 5 64 4 52 -2 55 -1 40 14 -13 12 -17 35 -17 86 l0 69 45 0 45 0 0 -66 c0 -36 -5 -74 -10 -85 -10 -17 -7 -19 35 -19 42 0 45 1 31 16 -24 23 -22 142 2 160 14 11 -1 13 -102 14 -115 0 -118 -1 -103 -18 23 -25 24 -134 2 -152 -12 -10 -15 -10 -15 3 0 10 -6 14 -15 11 -13 -5 -15 6 -15 68 0 44 -5 79 -12 86 -15 15 -86 15 -110 1z m80 -110 c-2 -19 -12 -38 -25 -46 -20 -13 -23 -12 -34 8 -10 20 -8 26 15 46 37 31 48 29 44 -8z"/>
<path d="M4526 259 c-36 -42 -37 -115 -1 -153 19 -21 33 -26 69 -26 37 0 48 5 70 31 30 35 35 93 11 138 -17 33 -33 41 -85 41 -30 0 -44 -6 -64 -31z m91 -11 c54 -61 25 -171 -37 -138 -40 21 -48 128 -11 150 23 13 25 13 48 -12z"/>
<path d="M6158 279 c-26 -14 -24 -59 2 -59 11 0 20 6 20 14 0 7 6 19 14 25 11 9 18 8 30 -4 9 -9 16 -19 16 -23 -1 -4 -24 -18 -53 -32 -45 -22 -52 -29 -55 -58 -2 -18 2 -40 9 -48 16 -19 58 -18 81 3 17 15 18 15 18 0 0 -20 40 -23 58 -5 17 17 15 39 -3 32 -13 -5 -15 6 -15 68 0 44 -5 79 -12 86 -15 15 -86 15 -110 1z m80 -110 c-2 -19 -12 -38 -25 -46 -20 -13 -23 -12 -34 8 -10 20 -8 26 15 46 37 31 48 29 44 -8z"/>
<path d="M4754 258 c17 -24 20 -56 10 -107 -5 -24 -12 -31 -30 -31 -17 0 -24 -6 -24 -20 0 -14 7 -20 23 -20 38 0 47 19 47 102 l0 78 35 0 35 0 0 -67 c0 -48 -5 -72 -17 -85 -15 -17 -14 -18 36 -18 48 0 51 1 37 16 -24 23 -22 142 2 160 14 11 3 13 -76 14 l-93 0 15 -22z"/>
<path d="M4963 262 c12 -13 17 -37 17 -77 0 -40 -5 -64 -17 -77 -15 -17 -14 -18 37 -18 51 0 52 1 37 18 -10 10 -17 31 -17 45 0 25 3 27 45 27 42 0 45 -2 45 -26 0 -14 -5 -34 -10 -45 -10 -18 -7 -19 86 -19 93 0 96 1 81 18 -16 17 -14 21 28 62 l45 44 0 -43 c0 -23 -5 -51 -10 -62 -10 -17 -7 -19 35 -19 42 0 45 1 31 16 -22 22 -23 149 -1 158 10 4 15 -1 15 -14 0 -24 6 -25 26 -5 9 8 24 15 35 15 17 0 19 -7 19 -67 0 -48 -5 -72 -17 -85 -15 -17 -14 -18 38 -18 42 1 50 3 37 11 -15 8 -18 24 -18 86 l0 75 28 -7 c15 -3 29 -11 30 -16 7 -17 22 -9 22 12 0 18 2 19 15 9 22 -18 21 -127 -2 -152 -15 -17 -13 -18 56 -18 91 0 111 10 111 55 0 40 -20 55 -74 55 -32 0 -36 3 -36 26 0 15 8 33 18 40 14 11 -14 13 -180 14 -109 0 -198 -4 -198 -8 0 -4 4 -12 10 -18 7 -7 -5 -25 -35 -54 l-45 -44 0 48 c0 35 5 53 18 62 14 11 3 13 -80 14 -59 0 -98 -4 -98 -10 0 -5 5 -10 10 -10 6 0 10 -13 10 -30 0 -29 -2 -30 -45 -30 -40 0 -45 3 -45 22 0 12 7 30 17 40 15 17 14 18 -37 18 -51 0 -52 -1 -37 -18z m235 -4 c18 -18 16 -133 -3 -148 -28 -23 -45 5 -45 74 0 74 19 103 48 74z m531 -95 c25 -21 16 -41 -19 -45 -22 -3 -25 2 -28 30 -4 37 13 42 47 15z"/>
<path d="M5920 255 c0 -29 6 -31 26 -10 9 8 24 15 35 15 17 0 19 -7 19 -67 0 -48 -5 -72 -17 -85 -15 -17 -14 -18 38 -18 42 1 50 3 37 11 -15 8 -18 24 -18 86 l0 75 28 -7 c15 -3 29 -11 30 -16 7 -19 22 -8 22 16 l0 25 -100 0 -100 0 0 -25z"/>
<path d="M6584 258 c17 -24 20 -56 10 -107 -5 -24 -12 -31 -30 -31 -17 0 -24 -6 -24 -20 0 -14 7 -20 23 -20 38 0 47 19 47 102 l0 78 35 0 35 0 0 -67 c0 -48 -5 -72 -17 -85 -15 -17 -14 -18 36 -18 48 0 51 1 37 16 -24 23 -22 142 2 160 14 11 3 13 -76 14 l-93 0 15 -22z"/>
<path d="M6783 262 c12 -13 17 -37 17 -77 0 -40 -5 -64 -17 -77 -15 -17 -14 -18 37 -18 51 0 52 1 37 18 -16 17 -14 21 28 62 l45 44 0 -43 c0 -23 -5 -51 -10 -62 -10 -17 -7 -19 35 -19 42 0 45 1 31 16 -24 23 -22 142 2 160 15 12 11 13 -30 14 -48 0 -57 -7 -38 -26 7 -7 -5 -25 -35 -54 l-45 -44 0 48 c0 35 5 53 18 62 15 12 10 13 -37 14 -52 0 -53 -1 -38 -18z"/>
<path d="M7023 262 c12 -13 17 -37 17 -77 0 -40 -5 -64 -17 -77 -15 -17 -13 -18 60 -18 109 0 147 -17 147 -67 0 -19 6 -23 28 -23 39 0 51 16 119 158 l58 122 -29 0 c-22 0 -26 -3 -18 -13 7 -9 5 -26 -10 -60 -11 -26 -24 -47 -27 -47 -4 0 -17 21 -29 46 -18 36 -20 49 -11 60 10 12 -2 14 -75 14 -51 0 -86 -4 -86 -10 0 -5 5 -10 10 -10 12 0 13 -119 1 -138 -5 -8 -22 -12 -42 -10 l-34 3 -3 69 c-2 56 0 70 15 82 16 12 12 13 -36 14 -52 0 -53 -1 -38 -18z m242 -54 c15 -29 36 -67 46 -84 18 -29 18 -31 -1 -61 -15 -25 -23 -30 -44 -26 -22 5 -26 11 -26 38 0 20 -6 35 -15 39 -11 4 -15 22 -15 76 0 87 15 92 55 18z"/>
<path d="M8154 126 c-9 -24 4 -48 23 -44 12 2 18 12 18 28 0 29 -32 41 -41 16z"/>
<path d="M7820 100 c0 -13 7 -20 20 -20 13 0 20 7 20 20 0 13 -7 20 -20 20 -13 0 -20 -7 -20 -20z"/>
</g>
</svg>