<?xml version="1.0" encoding="UTF-8" standalone="no"?>
<!DOCTYPE svg PUBLIC "-//W3C//DTD SVG 20010904//EN" "http://www.w3.org/TR/2001/REC-SVG-20010904/DTD/svg10.dtd">
<svg version="1.0" xmlns="http://www.w3.org/2000/svg" width="1256.000000pt" height="91.000000pt" viewBox="0 0 1256.000000 91.000000" preserveAspectRatio="xMidYMid meet">
<metadata>
Created by potrace 1.12, written by Peter Selinger 2001-2015
</metadata>
<g transform="translate(0.000000,91.000000) scale(0.100000,-0.100000)" fill="#000000" stroke="none">
<path d="M574 891 c-40 -25 -64 -77 -64 -141 0 -99 53 -160 138 -160 85 0 134 51 140 146 5 73 -22 135 -68 159 -40 21 -108 19 -146 -4z m128 -28 c22 -19 40 -106 32 -152 -18 -102 -107 -131 -150 -49 -24 45 -24 147 0 182 30 46 78 54 118 19z"/>
<path d="M951 790 c-116 -4 -132 -7 -118 -19 24 -19 24 -127 0 -153 -15 -17 -14 -18 36 -18 48 0 51 1 37 16 -12 11 -16 35 -16 85 l0 69 45 0 45 0 0 -66 c0 -36 -5 -74 -10 -85 -10 -17 -7 -19 35 -19 42 0 45 1 31 16 -12 11 -16 35 -16 84 0 71 9 86 43 68 25 -13 26 -212 0 -240 -15 -17 -14 -18 37 -18 51 0 52 1 37 18 -10 10 -17 30 -17 43 0 22 3 24 45 21 41 -4 46 -2 65 30 32 52 24 145 -14 170 -19 13 -59 9 -78 -9 -17 -15 -18 -15 -18 0 0 10 -7 16 -17 15 -10 -1 -78 -5 -152 -8z m253 -80 c7 -36 -10 -86 -32 -95 -47 -18 -74 108 -30 139 20 14 24 14 39 0 9 -8 19 -28 23 -44z"/>
<path d="M1305 775 c-21 -20 -25 -34 -25 -80 0 -46 4 -60 25 -80 35 -36 96 -35 124 1 22 27 28 64 12 64 -5 0 -12 -9 -16 -19 -14 -44 -86 -27 -105 25 -6 14 -10 27 -10 30 0 2 32 4 70 4 63 0 70 2 70 20 0 58 -98 82 -145 35z m74 -5 c10 -5 21 -16 25 -25 4 -12 -3 -15 -39 -15 -48 0 -62 19 -27 39 21 13 20 13 41 1z"/>
<path d="M1725 775 c-21 -20 -25 -34 -25 -80 0 -46 4 -60 25 -80 35 -36 96 -35 124 1 22 27 28 64 12 64 -5 0 -12 -9 -16 -19 -14 -44 -86 -27 -105 25 -6 14 -10 27 -10 30 0 2 32 4 70 4 63 0 70 2 70 20 0 58 -98 82 -145 35z m74 -5 c10 -5 21 -16 25 -25 4 -12 -3 -15 -39 -15 -48 0 -62 19 -27 39 21 13 20 13 41 1z"/>
<path d="M3118 789 c-26 -14 -24 -59 2 -59 11 0 20 6 20 14 0 7 6 19 14 25 11 9 18 8 30 -4 9 -9 16 -19 16 -23 -1 -4 -24 -18 -53 -32 -45 -22 -52 -29 -55 -58 -2 -18 2 -40 9 -48 16 -19 58 -18 81 3 17 15 18 15 18 0 0 -20 40 -23 58 -5 17 17 15 39 -3 32 -13 -5 -15 6 -15 68 0 44 -5 79 -12 86 -15 15 -86 15 -110 1z m80 -110 c-2 -19 -12 -38 -25 -46 -20 -13 -23 -12 -34 8 -10 20 -8 26 15 46 37 31 48 29 44 -8z"/>
<path d="M3526 769 c-36 -42 -37 -115 -1 -153 19 -21 33 -26 69 -26 37 0 48 5 70 31 30 35 35 93 11 138 -17 33 -33 41 -85 41 -30 0 -44 -6 -64 -31z m91 -11 c54 -61 25 -171 -37 -138 -40 21 -48 128 -11 150 23 13 25 13 48 -12z"/>
<path d="M3745 775 c-21 -20 -25 -34 -25 -80 0 -46 4 -60 25 -80 35 -36 96 -35 124 1 22 27 28 64 12 64 -5 0 -12 -9 -16 -19 -14 -44 -86 -27 -105 25 -6 14 -10 27 -10 30 0 2 32 4 70 4 63 0 70 2 70 20 0 58 -98 82 -145 35z m74 -5 c10 -5 21 -16 25 -25 4 -12 -3 -15 -39 -15 -48 0 -62 19 -27 39 21 13 20 13 41 1z"/>
<path d="M5395 775 c-21 -20 -25 -34 -25 -80 0 -46 4 -60 25 -80 35 -36 96 -35 124 1 22 27 28 64 12 64 -5 0 -12 -9 -16 -19 -14 -44 -86 -27 -105 25 -6 14 -10 27 -10 30 0 2 32 4 70 4 63 0 70 2 70 20 0 58 -98 82 -145 35z m74 -5 c10 -5 21 -16 25 -25 4 -12 -3 -15 -39 -15 -48 0 -62 19 -27 39 21 13 20 13 41 1z"/>
<path d="M5706 769 c-36 -42 -37 -115 -1 -153 19 -21 33 -26 69 -26 37 0 48 5 70 31 30 35 35 93 11 138 -17 33 -33 41 -85 41 -30 0 -44 -6 -64 -31z m91 -11 c54 -61 25 -171 -37 -138 -40 21 -48 128 -11 150 23 13 25 13 48 -12z"/>
<path d="M6158 789 c-26 -14 -24 -59 2 -59 11 0 20 6 20 14 0 7 6 19 14 25 11 9 18 8 30 -4 9 -9 16 -19 16 -23 -1 -4 -24 -18 -53 -32 -45 -22 -52 -29 -55 -58 -2 -18 2 -40 9 -48 16 -19 58 -18 81 3 17 15 18 15 18 0 0 -20 40 -23 58 -5 17 17 15 39 -3 32 -13 -5 -15 6 -15 68 0 44 -5 79 -12 86 -15 15 -86 15 -110 1z m80 -110 c-2 -19 -12 -38 -25 -46 -20 -13 -23 -12 -34 8 -10 20 -8 26 15 46 37 31 48 29 44 -8z"/>
<path d="M6348 793 c-19 -5 -26 -63 -8 -63 6 0 10 6 10 14 0 21 28 46 45 40 23 -9 25 -32 4 -58 -18 -23 -19 -27 -4 -32 29 -11 36 -40 17 -64 -18 -22 -19 -22 -51 -6 -40 21 -55 11 -22 -15 29 -24 93 -25 116 -3 24 24 16 76 -14 90 -23 12 -23 12 -2 19 24 7 29 53 9 73 -12 12 -65 14 -100 5z"/>
<path d="M7038 789 c-26 -14 -24 -59 2 -59 11 0 20 6 20 14 0 7 6 19 14 25 11 9 18 8 30 -4 9 -9 16 -19 16 -23 -1 -4 -24 -18 -53 -32 -45 -22 -52 -29 -55 -58 -2 -18 2 -40 9 -48 16 -19 58 -18 81 3 17 15 18 15 18 0 0 -20 40 -23 58 -5 17 17 15 39 -3 32 -13 -5 -15 6 -15 68 0 44 -5 79 -12 86 -15 15 -86 15 -110 1z m80 -110 c-2 -19 -12 -38 -25 -46 -20 -13 -23 -12 -34 8 -10 20 -8 26 15 46 37 31 48 29 44 -8z"/>
<path d="M7225 775 c-21 -20 -25 -34 -25 -80 0 -46 4 -60 25 -80 35 -36 96 -35 124 1 22 27 28 64 12 64 -5 0 -12 -9 -16 -19 -14 -44 -86 -27 -105 25 -6 14 -10 27 -10 30 0 2 32 4 70 4 63 0 70 2 70 20 0 58 -98 82 -145 35z m74 -5 c10 -5 21 -16 25 -25 4 -12 -3 -15 -39 -15 -48 0 -62 19 -27 39 21 13 20 13 41 1z"/>
<path d="M7813 793 c-113 -4 -113 -4 -113 -28 0 -29 6 -31 26 -10 9 8 24 15 35 15 17 0 19 -7 19 -67 0 -48 -5 -72 -17 -85 -15 -17 -14 -18 38 -18 42 1 50 3 37 11 -15 8 -18 24 -18 86 l0 75 28 -7 c15 -3 29 -11 30 -16 6 -15 22 -10 22 7 0 8 5 12 10 9 6 -3 10 -52 10 -112 0 -85 -3 -110 -17 -125 -15 -17 -14 -18 37 -18 51 0 52 1 37 18 -10 10 -17 30 -17 43 0 22 3 24 45 21 41 -4 46 -2 65 30 32 52 24 145 -14 170 -19 13 -59 9 -78 -9 -17 -15 -18 -15 -18 0 0 10 -7 16 -17 15 -10 -1 -69 -4 -130 -5z m231 -83 c7 -36 -10 -86 -32 -95 -47 -18 -74 108 -30 139 20 14 24 14 39 0 9 -8 19 -28 23 -44z"/>
<path d="M8158 789 c-26 -14 -24 -59 2 -59 11 0 20 6 20 14 0 7 6 19 14 25 11 9 18 8 30 -4 9 -9 16 -19 16 -23 -1 -4 -24 -18 -53 -32 -45 -22 -52 -29 -55 -58 -2 -18 2 -40 9 -48 16 -19 58 -18 81 3 17 15 18 15 18 0 0 -20 40 -23 58 -5 17 17 15 39 -3 32 -13 -5 -15 6 -15 68 0 44 -5 79 -12 86 -15 15 -86 15 -110 1z m80 -110 c-2 -19 -12 -38 -25 -46 -20 -13 -23 -12 -34 8 -10 20 -8 26 15 46 37 31 48 29 44 -8z"/>
<path d="M8602 793 c-22 -9 -42 -60 -42 -108 0 -35 6 -52 25 -70 33 -34 87 -34 120 0 25 24 34 65 15 65 -5 0 -10 -4 -10 -10 0 -5 -11 -17 -24 -25 -34 -23 -71 -6 -86 39 -13 39 -3 68 28 85 21 11 36 4 45 -21 3 -10 16 -18 27 -18 27 0 28 45 1 60 -20 10 -76 12 -99 3z"/>
<path d="M9016 769 c-36 -42 -37 -115 -1 -153 19 -21 33 -26 69 -26 37 0 48 5 70 31 30 35 35 93 11 138 -17 33 -33 41 -85 41 -30 0 -44 -6 -64 -31z m91 -11 c54 -61 25 -171 -37 -138 -40 21 -48 128 -11 150 23 13 25 13 48 -12z"/>
<path d="M9238 793 c-19 -5 -26 -63 -8 -63 6 0 10 6 10 14 0 21 28 46 45 40 23 -9 25 -32 4 -58 -18 -23 -19 -27 -4 -32 29 -11 36 -40 17 -64 -18 -22 -19 -22 -51 -6 -40 21 -55 11 -22 -15 29 -24 93 -25 116 -3 24 24 16 76 -14 90 -23 12 -23 12 -2 19 24 7 29 53 9 73 -12 12 -65 14 -100 5z"/>
<path d="M10656 769 c-36 -42 -37 -115 -1 -153 19 -21 33 -26 69 -26 37 0 48 5 70 31 30 35 35 93 11 138 -17 33 -33 41 -85 41 -30 0 -44 -6 -64 -31z m91 -11 c54 -61 25 -171 -37 -138 -40 21 -48 128 -11 150 23 13 25 13 48 -12z"/>
<path d="M10878 793 c-19 -5 -26 -63 -8 -63 6 0 10 6 10 14 0 21 28 46 45 40 23 -9 25 -32 4 -58 -18 -23 -19 -27 -4 -32 29 -11 36 -40 17 -64 -18 -22 -19 -22 -51 -6 -40 21 -55 11 -22 -15 29 -24 93 -25 116 -3 24 24 16 76 -14 90 -23 12 -23 12 -2 19 24 7 29 53 9 73 -12 12 -65 14 -100 5z"/>
<path d="M1520 784 c0 -3 7 -12 15 -20 22 -23 -3 -127 -36 -144 -20 -11 -28 -70 -9 -70 6 0 10 7 10 15 0 42 140 44 172 3 l18 -23 0 31 c0 17 -7 37 -15 44 -22 18 -21 127 2 152 15 17 13 18 -70 18 -48 0 -87 -3 -87 -6z m100 -73 c0 -82 -5 -91 -51 -91 l-38 0 15 35 c7 19 14 53 14 75 0 38 2 40 30 40 30 0 30 0 30 -59z"/>
<path d="M1934 768 c17 -24 20 -56 10 -107 -5 -24 -12 -31 -30 -31 -17 0 -24 -6 -24 -20 0 -14 7 -20 23 -20 38 0 47 19 47 102 l0 78 35 0 35 0 0 -67 c0 -48 -5 -72 -17 -85 -15 -17 -14 -18 36 -18 48 0 51 1 37 16 -24 23 -22 142 2 160 14 11 3 13 -76 14 l-93 0 15 -22z"/>
<path d="M2133 772 c12 -13 17 -37 17 -77 0 -40 -5 -64 -17 -77 -15 -17 -14 -18 37 -18 51 0 52 1 37 18 -16 17 -14 21 28 62 l45 44 0 -43 c0 -23 -5 -51 -10 -62 -10 -17 -7 -19 35 -19 42 0 45 1 31 16 -22 22 -23 149 -1 158 10 4 15 -1 15 -14 0 -24 6 -25 26 -5 9 8 24 15 35 15 17 0 19 -7 19 -67 0 -48 -5 -72 -17 -85 -15 -17 -14 -18 38 -18 42 1 50 3 37 11 -15 8 -18 24 -18 86 l0 75 28 -7 c15 -3 29 -11 30 -16 7 -17 22 -9 22 12 0 18 2 19 15 9 22 -18 21 -127 -2 -152 -15 -17 -13 -18 56 -18 91 0 111 10 111 55 0 40 -20 55 -74 55 -32 0 -36 3 -36 26 0 15 8 33 18 40 14 11 -14 13 -180 14 -109 0 -198 -4 -198 -8 0 -4 4 -12 10 -18 7 -7 -5 -25 -35 -54 l-45 -44 0 48 c0 35 5 53 18 62 15 12 10 13 -37 14 -52 0 -53 -1 -38 -18z m536 -99 c25 -21 16 -41 -19 -45 -22 -3 -25 2 -28 30 -4 37 13 42 47 15z"/>
<path d="M2883 772 c12 -13 17 -37 17 -77 0 -40 -5 -64 -17 -77 -15 -17 -14 -18 37 -18 52 0 53 1 36 19 -11 12 -16 31 -14 53 l3 33 30 -52 c28 -50 32 -53 69 -53 l39 0 -24 24 c-51 52 -67 80 -58 104 6 15 17 22 34 22 18 0 25 5 25 20 0 35 -47 26 -71 -14 -11 -19 -26 -37 -34 -40 -22 -8 -19 43 3 60 15 12 10 13 -37 14 -52 0 -53 -1 -38 -18z"/>
<path d="M3293 772 c12 -13 17 -37 17 -77 0 -40 -5 -64 -17 -77 -15 -17 -14 -18 37 -18 52 0 53 1 36 19 -11 12 -16 31 -14 53 l3 33 30 -52 c28 -50 32 -53 69 -53 l39 0 -24 24 c-51 52 -67 80 -58 104 6 15 17 22 34 22 18 0 25 5 25 20 0 35 -47 26 -71 -14 -11 -19 -26 -37 -34 -40 -22 -8 -19 43 3 60 15 12 10 13 -37 14 -52 0 -53 -1 -38 -18z"/>
<path d="M4043 772 c12 -13 17 -37 17 -77 0 -40 -5 -64 -17 -77 -15 -17 -13 -18 56 -18 40 0 81 5 92 10 26 14 25 64 -1 83 -18 12 -18 15 -5 20 18 7 20 48 3 65 -7 7 -42 12 -87 12 -71 0 -73 -1 -58 -18z m109 -21 c11 -9 -4 -27 -29 -35 -21 -7 -23 -4 -23 24 0 28 3 31 23 25 12 -4 25 -10 29 -14z m-3 -78 c25 -21 16 -41 -19 -45 -22 -3 -25 2 -28 30 -4 37 13 42 47 15z"/>
<path d="M4274 768 c17 -24 20 -56 10 -107 -5 -24 -12 -31 -30 -31 -17 0 -24 -6 -24 -20 0 -14 7 -20 23 -20 38 0 47 19 47 102 l0 78 35 0 35 0 0 -67 c0 -48 -5 -72 -17 -85 -15 -17 -14 -18 36 -18 48 0 51 1 37 16 -24 23 -22 142 2 160 14 11 3 13 -76 14 l-93 0 15 -22z"/>
<path d="M4473 772 c12 -13 17 -37 17 -77 0 -40 -5 -64 -17 -77 -15 -17 -14 -18 37 -18 51 0 52 1 37 18 -16 17 -14 21 28 62 l45 44 0 -43 c0 -23 -5 -51 -10 -62 -10 -18 -7 -19 59 -19 l69 0 29 45 c15 25 31 45 36 45 14 0 7 -53 -10 -72 -15 -17 -14 -18 37 -18 51 0 52 1 37 18 -12 13 -17 37 -17 77 0 40 5 64 17 77 15 17 13 18 -58 18 -45 0 -80 -5 -87 -12 -19 -19 -14 -64 9 -79 20 -14 20 -15 -15 -54 -44 -50 -56 -39 -56 54 0 49 4 67 18 77 15 12 11 13 -30 14 -48 0 -57 -7 -38 -26 7 -7 -5 -25 -35 -54 l-45 -44 0 48 c0 35 5 53 18 62 15 12 10 13 -37 14 -52 0 -53 -1 -38 -18z m335 -35 c3 -40 1 -42 -27 -27 -27 14 -33 37 -14 55 23 23 38 13 41 -28z"/>
<path d="M4913 772 c12 -13 17 -37 17 -77 0 -40 -5 -64 -17 -77 -15 -17 -14 -18 37 -18 51 0 52 1 37 18 -10 10 -17 31 -17 45 0 25 3 27 45 27 42 0 45 -2 45 -26 0 -14 -5 -34 -10 -45 -10 -18 -7 -19 36 -19 45 0 46 1 31 18 -12 13 -17 37 -17 77 0 40 5 64 17 77 15 17 14 18 -30 18 -26 0 -47 -4 -47 -10 0 -5 5 -10 10 -10 6 0 10 -13 10 -30 0 -29 -2 -30 -45 -30 -40 0 -45 3 -45 22 0 12 7 30 17 40 15 17 14 18 -37 18 -51 0 -52 -1 -37 -18z"/>
<path d="M5153 772 c12 -13 17 -37 17 -77 0 -40 -5 -64 -17 -77 -15 -17 -14 -18 37 -18 51 0 52 1 37 18 -16 17 -14 21 28 62 l45 44 0 -43 c0 -23 -5 -51 -10 -62 -10 -17 -7 -19 35 -19 42 0 45 1 31 16 -24 23 -22 142 2 160 15 12 11 13 -30 14 -48 0 -57 -7 -38 -26 7 -7 -5 -25 -35 -54 l-45 -44 0 48 c0 35 5 53 18 62 15 12 10 13 -37 14 -52 0 -53 -1 -38 -18z"/>
<path d="M5913 772 c12 -13 17 -37 17 -77 0 -40 -5 -64 -17 -77 -15 -17 -14 -18 37 -18 52 0 53 1 36 19 -11 12 -16 31 -14 53 l3 33 30 -52 c28 -50 32 -53 69 -53 l39 0 -24 24 c-51 52 -67 80 -58 104 6 15 17 22 34 22 18 0 25 5 25 20 0 35 -47 26 -71 -14 -11 -19 -26 -37 -34 -40 -22 -8 -19 43 3 60 15 12 10 13 -37 14 -52 0 -53 -1 -38 -18z"/>
<path d="M6503 772 c12 -13 17 -37 17 -77 0 -40 -5 -64 -17 -77 -15 -17 -13 -18 56 -18 91 0 111 10 111 55 0 40 -20 55 -74 55 -32 0 -36 3 -36 26 0 15 8 33 18 40 15 12 10 13 -37 14 -52 0 -53 -1 -38 -18z m106 -99 c25 -21 16 -41 -19 -45 -22 -3 -25 2 -28 30 -4 37 13 42 47 15z"/>
<path d="M6683 772 c12 -13 17 -37 17 -77 0 -40 -5 -64 -17 -77 -15 -17 -14 -18 37 -18 51 0 52 1 37 18 -24 27 -24 140 1 158 15 12 10 13 -37 14 -52 0 -53 -1 -38 -18z"/>
<path d="M6803 772 c12 -13 17 -37 17 -77 0 -40 -5 -64 -17 -77 -15 -17 -13 -18 56 -18 40 0 81 5 92 10 26 14 25 64 -1 83 -18 12 -18 15 -5 20 18 7 20 48 3 65 -7 7 -42 12 -87 12 -71 0 -73 -1 -58 -18z m109 -21 c11 -9 -4 -27 -29 -35 -21 -7 -23 -4 -23 24 0 28 3 31 23 25 12 -4 25 -10 29 -14z m-3 -78 c25 -21 16 -41 -19 -45 -22 -3 -25 2 -28 30 -4 37 13 42 47 15z"/>
<path d="M7390 765 c0 -29 6 -31 26 -10 9 8 24 15 35 15 17 0 19 -7 19 -67 0 -48 -5 -72 -17 -85 -15 -17 -14 -18 38 -18 42 1 50 3 37 11 -15 8 -18 24 -18 86 l0 75 28 -7 c15 -3 29 -11 30 -16 7 -19 22 -8 22 16 l0 25 -100 0 -100 0 0 -25z"/>
<path d="M8333 772 c12 -13 17 -37 17 -77 0 -40 -5 -64 -17 -77 -15 -17 -14 -18 37 -18 51 0 52 1 37 18 -10 10 -17 31 -17 45 0 25 3 27 45 27 42 0 45 -2 45 -26 0 -14 -5 -34 -10 -45 -10 -18 -7 -19 36 -19 45 0 46 1 31 18 -12 13 -17 37 -17 77 0 40 5 64 17 77 15 17 14 18 -30 18 -26 0 -47 -4 -47 -10 0 -5 5 -10 10 -10 6 0 10 -13 10 -30 0 -29 -2 -30 -45 -30 -40 0 -45 3 -45 22 0 12 7 30 17 40 15 17 14 18 -37 18 -51 0 -52 -1 -37 -18z"/>
<path d="M8773 772 c12 -13 17 -37 17 -77 0 -40 -5 -64 -17 -77 -15 -17 -14 -18 36 -18 48 0 51 1 37 16 -12 11 -16 35 -16 85 l0 69 45 0 45 0 0 -66 c0 -36 -5 -74 -10 -85 -10 -17 -7 -19 35 -19 42 0 45 1 31 16 -24 23 -22 142 2 160 14 11 -1 13 -102 14 -115 0 -118 -1 -103 -18z"/>
<path d="M9403 772 c12 -13 17 -37 17 -77 0 -40 -5 -64 -17 -77 -15 -17 -14 -18 37 -18 51 0 52 1 37 18 -16 17 -14 21 28 62 l45 44 0 -43 c0 -23 -5 -51 -10 -62 -10 -17 -7 -19 35 -19 42 0 45 1 31 16 -24 23 -22 142 2 160 15 12 11 13 -30 14 -48 0 -57 -7 -38 -26 7 -7 -5 -25 -35 -54 l-45 -44 0 48 c0 35 5 53 18 62 15 12 10 13 -37 14 -52 0 -53 -1 -38 -18z"/>
<path d="M9643 772 c12 -13 17 -37 17 -77 0 -40 -5 -64 -17 -77 -15 -17 -13 -18 60 -18 82 0 123 -11 143 -38 12 -15 13 -13 14 19 0 24 -5 39 -15 43 -23 9 -21 134 3 152 15 12 11 13 -30 14 -27 0 -48 -4 -48 -10 0 -5 5 -10 10 -10 12 0 13 -119 1 -138 -5 -8 -22 -12 -42 -10 l-34 3 -3 69 c-2 56 0 70 15 82 16 12 12 13 -36 14 -52 0 -53 -1 -38 -18z"/>
<path d="M9883 772 c12 -13 17 -37 17 -77 0 -40 -5 -64 -17 -77 -15 -17 -14 -18 37 -18 51 0 52 1 37 18 -16 17 -14 21 28 62 l45 44 0 -43 c0 -23 -5 -51 -10 -62 -10 -18 -7 -19 59 -19 l69 0 29 45 c15 25 31 45 36 45 14 0 7 -53 -10 -72 -15 -17 -14 -18 37 -18 51 0 52 1 37 18 -12 13 -17 37 -17 77 0 40 5 64 17 77 15 17 13 18 -58 18 -45 0 -80 -5 -87 -12 -19 -19 -14 -64 9 -79 20 -14 20 -15 -15 -54 -44 -50 -56 -39 -56 54 0 49 4 67 18 77 15 12 11 13 -30 14 -48 0 -57 -7 -38 -26 7 -7 -5 -25 -35 -54 l-45 -44 0 48 c0 35 5 53 18 62 15 12 10 13 -37 14 -52 0 -53 -1 -38 -18z m335 -35 c3 -40 1 -42 -27 -27 -27 14 -33 37 -14 55 23 23 38 13 41 -28z"/>
<path d="M10433 772 c12 -13 17 -37 17 -77 0 -40 -5 -64 -17 -77 -15 -17 -13 -18 56 -18 40 0 81 5 92 10 26 14 25 64 -1 83 -18 12 -18 15 -5 20 18 7 20 48 3 65 -7 7 -42 12 -87 12 -71 0 -73 -1 -58 -18z m109 -21 c11 -9 -4 -27 -29 -35 -21 -7 -23 -4 -23 24 0 28 3 31 23 25 12 -4 25 -10 29 -14z m-3 -78 c25 -21 16 -41 -19 -45 -22 -3 -25 2 -28 30 -4 37 13 42 47 15z"/>
<path d="M11070 784 c0 -3 7 -12 15 -20 22 -23 -3 -127 -36 -144 -20 -11 -28 -70 -9 -70 6 0 10 7 10 15 0 42 140 44 172 3 10 -13 18 -31 18 -40 0 -24 52 -24 72 0 9 9 42 72 75 140 l58 122 -29 0 c-22 0 -26 -3 -18 -13 7 -9 5 -26 -10 -60 -11 -26 -24 -47 -27 -47 -4 0 -17 21 -29 46 -18 36 -20 49 -11 60 10 12 -9 14 -120 14 -72 0 -131 -3 -131 -6z m100 -73 c0 -82 -5 -91 -51 -91 l-38 0 15 35 c7 19 14 53 14 75 0 38 2 40 30 40 30 0 30 0 30 -59z m105 7 c15 -29 36 -67 46 -84 18 -29 18 -31 0 -60 -16 -26 -24 -30 -50 -26 -26 4 -31 9 -31 32 0 15 -7 33 -15 40 -15 13 -22 129 -8 143 16 16 32 4 58 -45z"/>
<path d="M11493 772 c12 -13 17 -37 17 -77 0 -40 -5 -64 -17 -77 -16 -17 -10 -18 147 -18 157 0 163 1 147 18 -24 27 -24 140 1 158 15 12 11 13 -30 14 -27 0 -48 -4 -48 -10 0 -5 5 -10 10 -10 12 0 13 -119 1 -138 -4 -8 -19 -12 -32 -10 -22 3 -24 8 -27 67 -2 49 1 68 14 82 17 18 15 19 -36 19 -51 0 -52 -1 -37 -18 12 -13 17 -36 17 -73 0 -65 -9 -82 -41 -77 -22 3 -24 8 -27 72 -2 56 0 70 15 82 16 12 12 13 -36 14 -52 0 -53 -1 -38 -18z"/>
<path d="M11833 772 c12 -13 17 -37 17 -77 0 -40 -5 -64 -17 -77 -15 -17 -14 -18 37 -18 51 0 52 1 37 18 -10 10 -17 31 -17 45 0 25 3 27 45 27 42 0 45 -2 45 -26 0 -14 -5 -34 -10 -45 -10 -18 -6 -19 105 -19 136 0 155 7 155 55 0 40 -20 55 -74 55 -32 0 -36 3 -36 26 0 15 8 33 18 40 14 11 3 13 -80 14 -59 0 -98 -4 -98 -10 0 -5 5 -10 10 -10 6 0 10 -13 10 -30 0 -29 -2 -30 -45 -30 -40 0 -45 3 -45 22 0 12 7 30 17 40 15 17 14 18 -37 18 -51 0 -52 -1 -37 -18z m235 -4 c18 -18 16 -133 -3 -148 -28 -23 -45 5 -45 74 0 55 11 86 30 86 3 0 11 -5 18 -12z m101 -95 c25 -21 16 -41 -19 -45 -22 -3 -25 2 -28 30 -4 37 13 42 47 15z"/>
<path d="M12243 772 c12 -13 17 -37 17 -77 0 -40 -5 -64 -17 -77 -15 -17 -14 -18 37 -18 51 0 52 1 37 18 -24 27 -24 140 1 158 15 12 10 13 -37 14 -52 0 -53 -1 -38 -18z"/>
<path d="M12362 767 c14 -13 33 -35 42 -50 17 -25 17 -27 -11 -62 -15 -19 -31 -35 -35 -35 -5 0 -8 -4 -8 -10 0 -5 13 -10 29 -10 23 0 28 4 25 18 -2 9 3 26 12 37 15 20 15 20 35 -4 15 -18 17 -27 8 -37 -9 -12 -2 -14 45 -14 l57 0 -34 35 c-18 19 -39 45 -47 59 -12 23 -11 28 5 46 10 11 26 22 36 25 33 11 20 25 -22 25 -36 0 -40 -2 -29 -15 10 -12 10 -18 0 -30 -11 -14 -14 -13 -27 5 -8 11 -11 25 -8 30 4 6 -14 10 -46 10 l-52 0 25 -23z"/>
<path d="M990 362 c0 -29 21 -42 68 -42 53 0 82 14 82 40 0 25 -25 26 -42 2 -23 -32 -37 -34 -60 -7 -25 29 -48 33 -48 7z"/>
<path d="M1568 279 c-26 -14 -24 -59 2 -59 11 0 20 6 20 14 0 7 6 19 14 25 11 9 18 8 30 -4 9 -9 16 -19 16 -23 -1 -4 -24 -18 -53 -32 -45 -22 -52 -29 -55 -58 -2 -18 2 -40 9 -48 16 -19 58 -18 81 3 17 15 18 15 18 0 0 -20 40 -23 58 -5 17 17 15 39 -3 32 -13 -5 -15 6 -15 68 0 44 -5 79 -12 86 -15 15 -86 15 -110 1z m80 -110 c-2 -19 -12 -38 -25 -46 -20 -13 -23 -12 -34 8 -10 20 -8 26 15 46 37 31 48 29 44 -8z"/>
<path d="M2106 259 c-36 -42 -37 -115 -1 -153 19 -21 33 -26 69 -26 37 0 48 5 70 31 30 35 35 93 11 138 -17 33 -33 41 -85 41 -30 0 -44 -6 -64 -31z m91 -11 c54 -61 25 -171 -37 -138 -40 21 -48 128 -11 150 23 13 25 13 48 -12z"/>
<path d="M2558 279 c-26 -14 -24 -59 2 -59 11 0 20 6 20 14 0 7 6 19 14 25 11 9 18 8 30 -4 9 -9 16 -19 16 -23 -1 -4 -24 -18 -53 -32 -45 -22 -52 -29 -55 -58 -2 -18 2 -40 9 -48 16 -19 58 -18 81 3 17 15 18 15 18 0 0 -22 43 -23 60 -2 11 13 15 13 33 0 28 -20 91 -19 112 1 24 24 16 76 -14 90 -23 12 -23 12 -2 19 15 4 21 15 21 34 0 35 -17 51 -55 51 -57 0 -75 -10 -75 -41 0 -16 5 -29 10 -29 6 0 10 6 10 14 0 21 28 46 45 40 23 -9 25 -32 4 -58 -19 -25 -19 -25 0 -35 28 -15 32 -37 12 -62 -17 -21 -18 -21 -50 -5 -17 9 -41 14 -51 11 -19 -6 -20 -1 -20 67 0 44 -5 79 -12 86 -15 15 -86 15 -110 1z m80 -110 c-2 -19 -12 -38 -25 -46 -20 -13 -23 -12 -34 8 -10 20 -8 26 15 46 37 31 48 29 44 -8z"/>
<path d="M2928 279 c-26 -14 -24 -59 2 -59 11 0 20 6 20 14 0 7 6 19 14 25 11 9 18 8 30 -4 9 -9 16 -19 16 -23 -1 -4 -24 -18 -53 -32 -45 -22 -52 -29 -55 -58 -2 -18 2 -40 9 -48 16 -19 58 -18 81 3 17 15 18 15 18 0 0 -20 40 -23 58 -5 17 17 15 39 -3 32 -13 -5 -15 6 -15 68 0 44 -5 79 -12 86 -15 15 -86 15 -110 1z m80 -110 c-2 -19 -12 -38 -25 -46 -20 -13 -23 -12 -34 8 -10 20 -8 26 15 46 37 31 48 29 44 -8z"/>
<path d="M3305 265 c-23 -22 -25 -23 -25 -5 0 19 -7 20 -100 20 l-100 0 0 -25 c0 -29 6 -31 26 -10 9 8 24 15 35 15 17 0 19 -7 19 -67 0 -48 -5 -72 -17 -85 -15 -17 -14 -18 38 -18 42 1 50 3 37 11 -15 8 -18 24 -18 86 l0 75 26 -6 c41 -11 54 -30 54 -81 0 -61 32 -95 89 -95 31 0 44 6 60 26 22 27 28 64 12 64 -5 0 -12 -9 -16 -19 -14 -44 -86 -27 -105 25 -6 14 -10 27 -10 30 0 2 32 4 70 4 63 0 70 2 70 20 0 58 -98 82 -145 35z m74 -5 c10 -5 21 -16 25 -25 4 -12 -3 -15 -39 -15 -48 0 -62 19 -27 39 21 13 20 13 41 1z"/>
<path d="M4298 279 c-26 -14 -24 -59 2 -59 11 0 20 6 20 14 0 7 6 19 14 25 11 9 18 8 30 -4 9 -9 16 -19 16 -23 -1 -4 -24 -18 -53 -32 -45 -22 -52 -29 -55 -58 -2 -18 2 -40 9 -48 16 -19 58 -18 81 3 17 15 18 15 18 0 0 -20 40 -23 58 -5 17 17 15 39 -3 32 -13 -5 -15 6 -15 68 0 44 -5 79 -12 86 -15 15 -86 15 -110 1z m80 -110 c-2 -19 -12 -38 -25 -46 -20 -13 -23 -12 -34 8 -10 20 -8 26 15 46 37 31 48 29 44 -8z"/>
<path d="M4715 265 c-21 -20 -25 -34 -25 -80 0 -46 4 -60 25 -80 35 -36 96 -35 124 1 22 27 28 64 12 64 -5 0 -12 -9 -16 -19 -14 -44 -86 -27 -105 25 -6 14 -10 27 -10 30 0 2 32 4 70 4 63 0 70 2 70 20 0 58 -98 82 -145 35z m74 -5 c10 -5 21 -16 25 -25 4 -12 -3 -15 -39 -15 -48 0 -62 19 -27 39 21 13 20 13 41 1z"/>
<path d="M4922 283 c-22 -9 -42 -60 -42 -108 0 -35 6 -52 25 -70 33 -34 87 -34 120 0 25 24 34 65 15 65 -5 0 -10 -4 -10 -10 0 -5 -11 -17 -24 -25 -34 -23 -71 -6 -86 39 -13 39 -3 68 28 85 21 11 36 4 45 -21 3 -10 16 -18 27 -18 27 0 28 45 1 60 -20 10 -76 12 -99 3z"/>
<path d="M5518 279 c-26 -14 -24 -59 2 -59 11 0 20 6 20 14 0 7 6 19 14 25 11 9 18 8 30 -4 9 -9 16 -19 16 -23 -1 -4 -24 -18 -53 -32 -45 -22 -52 -29 -55 -58 -2 -18 2 -40 9 -48 16 -19 58 -18 81 3 17 15 18 15 18 0 0 -20 40 -23 58 -5 17 17 15 39 -3 32 -13 -5 -15 6 -15 68 0 44 -5 79 -12 86 -15 15 -86 15 -110 1z m80 -110 c-2 -19 -12 -38 -25 -46 -20 -13 -23 -12 -34 8 -10 20 -8 26 15 46 37 31 48 29 44 -8z"/>
<path d="M5808 283 c-19 -5 -26 -63 -8 -63 6 0 10 7 10 15 0 39 69 38 84 -1 11 -28 7 -34 -24 -34 -16 0 -30 -4 -30 -10 0 -5 16 -10 36 -10 29 0 35 -3 30 -16 -3 -9 -6 -20 -6 -25 0 -5 -11 -16 -25 -25 -22 -14 -27 -15 -56 0 -39 19 -49 13 -24 -14 13 -14 31 -20 61 -20 59 0 94 41 94 109 0 80 -56 117 -142 94z"/>
<path d="M6235 265 c-21 -20 -25 -34 -25 -80 0 -46 4 -60 25 -80 35 -36 96 -35 124 1 22 27 28 64 12 64 -5 0 -12 -9 -16 -19 -14 -44 -86 -27 -105 25 -6 14 -10 27 -10 30 0 2 32 4 70 4 63 0 70 2 70 20 0 58 -98 82 -145 35z m74 -5 c10 -5 21 -16 25 -25 4 -12 -3 -15 -39 -15 -48 0 -62 19 -27 39 21 13 20 13 41 1z"/>
<path d="M6723 283 c-113 -4 -113 -4 -113 -28 0 -29 6 -31 26 -10 9 8 24 15 35 15 17 0 19 -7 19 -67 0 -48 -5 -72 -17 -85 -15 -17 -14 -18 38 -18 42 1 50 3 37 11 -15 8 -18 24 -18 86 l0 75 28 -7 c15 -3 29 -11 30 -16 6 -15 22 -10 22 7 0 8 5 12 10 9 6 -3 10 -52 10 -112 0 -85 -3 -110 -17 -125 -15 -17 -14 -18 37 -18 51 0 52 1 37 18 -10 10 -17 30 -17 43 0 22 3 24 45 21 41 -4 46 -2 65 30 32 52 24 145 -14 170 -19 13 -59 9 -78 -9 -17 -15 -18 -15 -18 0 0 10 -7 16 -17 15 -10 -1 -69 -4 -130 -5z m231 -83 c7 -36 -10 -86 -32 -95 -47 -18 -74 108 -30 139 20 14 24 14 39 0 9 -8 19 -28 23 -44z"/>
<path d="M7066 259 c-36 -42 -37 -115 -1 -153 19 -21 33 -26 69 -26 37 0 48 5 70 31 30 35 35 93 11 138 -17 33 -33 41 -85 41 -30 0 -44 -6 -64 -31z m91 -11 c54 -61 25 -171 -37 -138 -40 21 -48 128 -11 150 23 13 25 13 48 -12z"/>
<path d="M7278 283 c-19 -5 -26 -63 -8 -63 6 0 10 7 10 15 0 39 69 38 84 -1 11 -28 7 -34 -24 -34 -16 0 -30 -4 -30 -10 0 -5 16 -10 36 -10 29 0 35 -3 30 -16 -3 -9 -6 -20 -6 -25 0 -5 -11 -16 -25 -25 -22 -14 -27 -15 -56 0 -39 19 -49 13 -24 -14 13 -14 31 -20 61 -20 59 0 94 41 94 109 0 80 -56 117 -142 94z"/>
<path d="M7715 265 c-21 -20 -25 -34 -25 -80 0 -46 4 -60 25 -80 35 -36 96 -35 124 1 22 27 28 64 12 64 -5 0 -12 -9 -16 -19 -14 -44 -86 -27 -105 25 -6 14 -10 27 -10 30 0 2 32 4 70 4 63 0 70 2 70 20 0 58 -98 82 -145 35z m74 -5 c10 -5 21 -16 25 -25 4 -12 -3 -15 -39 -15 -48 0 -62 19 -27 39 21 13 20 13 41 1z"/>
<path d="M7888 283 c-22 -6 -23 -19 -3 -27 23 -8 22 -212 -2 -238 -15 -17 -14 -18 37 -18 51 0 52 1 37 18 -10 10 -17 30 -17 43 0 22 3 24 45 21 41 -4 46 -2 65 30 32 52 24 145 -14 170 -19 13 -59 9 -78 -9 -17 -15 -18 -15 -18 0 0 17 -16 20 -52 10z m136 -83 c7 -36 -10 -86 -32 -95 -47 -18 -74 108 -30 139 20 14 24 14 39 0 9 -8 19 -28 23 -44z"/>
<path d="M44 258 c17 -24 20 -56 10 -107 -5 -24 -12 -31 -30 -31 -17 0 -24 -6 -24 -20 0 -14 7 -20 23 -20 38 0 47 19 47 102 l0 78 35 0 35 0 0 -67 c0 -48 -5 -72 -17 -85 -15 -17 -14 -18 36 -18 48 0 51 1 37 16 -24 23 -22 142 2 160 14 11 3 13 -76 14 l-93 0 15 -22z"/>
<path d="M253 262 c23 -26 23 -128 0 -154 -15 -17 -14 -18 37 -18 51 0 52 1 37 18 -16 17 -14 21 28 62 l45 44 0 -43 c0 -23 -5 -51 -10 -62 -10 -18 -7 -19 86 -19 93 0 96 1 81 18 -10 10 -17 31 -17 45 0 25 3 27 45 27 42 0 45 -2 45 -26 0 -14 -5 -34 -10 -45 -10 -18 -7 -19 36 -19 45 0 46 1 31 18 -12 13 -17 37 -17 77 0 40 5 64 17 77 15 17 14 18 -30 18 -26 0 -47 -4 -47 -10 0 -5 5 -10 10 -10 6 0 10 -13 10 -30 0 -29 -2 -30 -45 -30 -40 0 -45 3 -45 22 0 12 7 30 17 40 15 17 12 18 -80 18 -93 0 -108 -5 -87 -26 7 -7 -5 -25 -35 -54 l-45 -44 0 48 c0 35 5 53 18 62 15 12 10 13 -37 14 -52 0 -53 -1 -38 -18z m236 -6 c19 -23 10 -136 -12 -150 -26 -16 -37 8 -37 86 0 62 5 74 31 77 4 1 12 -5 18 -13z"/>
<path d="M723 262 c12 -13 17 -37 17 -77 0 -40 -5 -64 -17 -77 -15 -17 -14 -18 37 -18 51 0 52 1 37 18 -16 17 -14 21 28 62 l45 44 0 -43 c0 -23 -5 -51 -10 -62 -10 -17 -7 -19 35 -19 42 0 45 1 31 16 -24 23 -22 142 2 160 15 12 11 13 -30 14 -48 0 -57 -7 -38 -26 7 -7 -5 -25 -35 -54 l-45 -44 0 48 c0 35 5 53 18 62 15 12 10 13 -37 14 -52 0 -53 -1 -38 -18z"/>
<path d="M963 262 c12 -13 17 -37 17 -77 0 -40 -5 -64 -17 -77 -15 -17 -14 -18 37 -18 51 0 52 1 37 18 -16 17 -14 21 28 62 l45 44 0 -43 c0 -23 -5 -51 -10 -62 -10 -17 -7 -19 35 -19 42 0 45 1 31 16 -24 23 -22 142 2 160 15 12 11 13 -30 14 -48 0 -57 -7 -38 -26 7 -7 -5 -25 -35 -54 l-45 -44 0 48 c0 35 5 53 18 62 15 12 10 13 -37 14 -52 0 -53 -1 -38 -18z"/>
<path d="M1313 262 c12 -13 17 -37 17 -77 0 -40 -5 -64 -17 -77 -15 -17 -14 -18 37 -18 51 0 52 1 37 18 -10 10 -17 31 -17 45 0 25 3 27 45 27 42 0 45 -2 45 -26 0 -14 -5 -34 -10 -45 -10 -18 -7 -19 36 -19 45 0 46 1 31 18 -23 26 -23 128 0 154 15 17 14 18 -30 18 -26 0 -47 -4 -47 -10 0 -5 5 -10 10 -10 6 0 10 -13 10 -30 0 -29 -2 -30 -45 -30 -40 0 -45 3 -45 22 0 12 7 30 17 40 15 17 14 18 -37 18 -51 0 -52 -1 -37 -18z"/>
<path d="M1853 262 c12 -13 17 -37 17 -77 0 -40 -5 -64 -17 -77 -15 -17 -14 -18 36 -18 48 0 51 1 37 16 -12 11 -16 35 -16 85 l0 69 45 0 45 0 0 -66 c0 -36 -5 -74 -10 -85 -10 -17 -7 -19 35 -19 42 0 45 1 31 16 -24 23 -22 142 2 160 14 11 -1 13 -102 14 -115 0 -118 -1 -103 -18z"/>
<path d="M2313 262 c12 -13 17 -37 17 -77 0 -40 -5 -64 -17 -77 -15 -17 -14 -18 37 -18 52 0 53 1 36 19 -11 12 -16 31 -14 53 l3 33 30 -52 c28 -50 32 -53 69 -53 l39 0 -24 24 c-51 52 -67 80 -58 104 6 15 17 22 34 22 18 0 25 5 25 20 0 35 -47 26 -71 -14 -11 -19 -26 -37 -34 -40 -22 -8 -19 43 3 60 15 12 10 13 -37 14 -52 0 -53 -1 -38 -18z"/>
<path d="M3514 258 c17 -24 20 -56 10 -107 -5 -24 -12 -31 -30 -31 -17 0 -24 -6 -24 -20 0 -14 7 -20 23 -20 38 0 47 19 47 102 l0 78 35 0 35 0 0 -67 c0 -48 -5 -72 -17 -85 -15 -17 -14 -18 36 -18 48 0 51 1 37 16 -24 23 -22 142 2 160 14 11 3 13 -76 14 l-93 0 15 -22z"/>
<path d="M3713 262 c12 -13 17 -37 17 -77 0 -40 -5 -64 -17 -77 -15 -17 -14 -18 37 -18 51 0 52 1 37 18 -16 17 -14 21 28 62 l45 44 0 -43 c0 -23 -5 -51 -10 -62 -10 -17 -7 -19 35 -19 42 0 45 1 31 16 -24 23 -22 142 2 160 15 12 11 13 -30 14 -48 0 -57 -7 -38 -26 7 -7 -5 -25 -35 -54 l-45 -44 0 48 c0 35 5 53 18 62 15 12 10 13 -37 14 -52 0 -53 -1 -38 -18z"/>
<path d="M4063 262 c12 -13 17 -37 17 -77 0 -40 -5 -64 -17 -77 -15 -17 -14 -18 37 -18 52 0 53 1 36 19 -11 12 -16 31 -14 53 l3 33 30 -52 c28 -50 32 -53 69 -53 l39 0 -24 24 c-51 52 -67 80 -58 104 6 15 17 22 34 22 18 0 25 5 25 20 0 35 -47 26 -71 -14 -11 -19 -26 -37 -34 -40 -22 -8 -19 43 3 60 15 12 10 13 -37 14 -52 0 -53 -1 -38 -18z"/>
<path d="M4463 262 c10 -11 17 -35 17 -57 l0 -37 55 4 c53 4 55 4 55 -20 0 -14 -7 -34 -17 -44 -15 -17 -14 -18 37 -18 51 0 52 1 37 18 -24 27 -24 140 1 158 15 12 11 13 -30 14 -27 0 -48 -4 -48 -10 0 -5 5 -10 10 -10 6 0 10 -13 10 -29 0 -21 -6 -30 -22 -34 -12 -4 -28 -1 -35 5 -16 13 -17 50 -1 66 9 9 1 12 -37 12 -46 0 -47 -1 -32 -18z"/>
<path d="M5070 255 c0 -29 6 -31 26 -10 9 8 24 15 35 15 17 0 19 -7 19 -67 0 -48 -5 -72 -17 -85 -15 -17 -14 -18 38 -18 42 1 50 3 37 11 -15 8 -18 24 -18 86 l0 75 28 -7 c15 -3 29 -11 30 -16 7 -17 22 -9 22 12 0 18 2 19 15 9 22 -18 21 -127 -2 -152 -15 -17 -13 -18 56 -18 40 0 81 5 92 10 26 14 25 64 -1 83 -18 12 -18 15 -5 20 18 7 20 48 3 65 -8 8 -64 12 -185 12 l-173 0 0 -25z m322 -14 c11 -9 -4 -27 -29 -35 -21 -7 -23 -4 -23 24 0 28 3 31 23 25 12 -4 25 -10 29 -14z m-3 -78 c25 -21 16 -41 -19 -45 -22 -3 -25 2 -28 30 -4 37 13 42 47 15z"/>
<path d="M6014 258 c17 -24 20 -56 10 -107 -5 -24 -12 -31 -30 -31 -17 0 -24 -6 -24 -20 0 -14 7 -20 23 -20 38 0 47 19 47 102 l0 78 35 0 35 0 0 -67 c0 -48 -5 -72 -17 -85 -15 -17 -14 -18 36 -18 48 0 51 1 37 16 -24 23 -22 142 2 160 14 11 3 13 -76 14 l-93 0 15 -22z"/>
<path d="M6413 262 c12 -13 17 -37 17 -77 0 -40 -5 -64 -17 -77 -15 -17 -14 -18 37 -18 52 0 53 1 36 19 -11 12 -16 31 -14 53 l3 33 30 -52 c28 -50 32 -53 69 -53 l39 0 -24 24 c-51 52 -67 80 -58 104 6 15 17 22 34 22 18 0 25 5 25 20 0 35 -47 26 -71 -14 -11 -19 -26 -37 -34 -40 -22 -8 -19 43 3 60 15 12 10 13 -37 14 -52 0 -53 -1 -38 -18z"/>
<path d="M7463 262 c12 -13 17 -37 17 -77 0 -40 -5 -64 -17 -77 -15 -17 -14 -18 37 -18 51 0 52 1 37 18 -10 10 -17 31 -17 45 0 25 3 27 45 27 42 0 45 -2 45 -26 0 -14 -5 -34 -10 -45 -10 -18 -7 -19 36 -19 45 0 46 1 31 18 -12 13 -17 37 -17 77 0 40 5 64 17 77 15 17 14 18 -30 18 -26 0 -47 -4 -47 -10 0 -5 5 -10 10 -10 6 0 10 -13 10 -30 0 -29 -2 -30 -45 -30 -40 0 -45 3 -45 22 0 12 7 30 17 40 15 17 14 18 -37 18 -51 0 -52 -1 -37 -18z"/>
<path d="M8123 262 c12 -13 17 -37 17 -77 0 -40 -5 -64 -17 -77 -15 -17 -14 -18 36 -18 48 0 51 1 37 16 -12 11 -16 35 -16 86 l0 71 37 -6 c21 -4 39 -11 41 -17 7 -20 22 -10 22 15 0 25 -1 25 -87 25 -83 0 -85 -1 -70 -18z"/>
<path d="M8303 262 c12 -13 17 -37 17 -77 0 -40 -5 -64 -17 -77 -15 -17 -14 -18 37 -18 51 0 52 1 37 18 -16 17 -14 21 28 62 l45 44 0 -43 c0 -23 -5 -51 -10 -62 -10 -17 -7 -19 35 -19 42 0 45 1 31 16 -24 23 -22 142 2 160 15 12 11 13 -30 14 -48 0 -57 -7 -38 -26 7 -7 -5 -25 -35 -54 l-45 -44 0 48 c0 35 5 53 18 62 15 12 10 13 -37 14 -52 0 -53 -1 -38 -18z"/>
<path d="M8543 262 c12 -13 17 -37 17 -77 0 -40 -5 -64 -17 -77 -15 -17 -14 -18 37 -18 51 0 52 1 37 18 -16 17 -14 21 28 62 l45 44 0 -43 c0 -23 -5 -51 -10 -62 -10 -17 -7 -19 35 -19 42 0 45 1 31 16 -24 23 -22 142 2 160 15 12 11 13 -30 14 -48 0 -57 -7 -38 -26 7 -7 -5 -25 -35 -54 l-45 -44 0 48 c0 35 5 53 18 62 15 12 10 13 -37 14 -52 0 -53 -1 -38 -18z"/>
<path d="M8780 100 c0 -13 7 -20 20 -20 13 0 20 7 20 20 0 13 -7 20 -20 20 -13 0 -20 -7 -20 -20z"/>
</g>
</svg>