<?xml version="1.0" encoding="UTF-8" standalone="no"?>
<!DOCTYPE svg PUBLIC "-//W3C//DTD SVG 20010904//EN" "http://www.w3.org/TR/2001/REC-SVG-20010904/DTD/svg10.dtd">
<svg version="1.0" xmlns="http://www.w3.org/2000/svg" width="1305.000000pt" height="637.000000pt" viewBox="0 0 1305.000000 637.000000" preserveAspectRatio="xMidYMid meet">
<metadata>
Created by potrace 1.12, written by Peter Selinger 2001-2015
</metadata>
<g transform="translate(0.000000,637.000000) scale(0.100000,-0.100000)" fill="#000000" stroke="none">
<path d="M0 6361 c0 -5 9 -11 20 -14 18 -5 20 -14 20 -115 0 -103 -1 -110 -22 -120 -19 -9 -8 -11 57 -11 65 0 76 2 58 11 -22 10 -23 17 -23 120 0 101 2 110 20 115 44 12 16 23 -55 23 -41 0 -75 -4 -75 -9z"/>
<path d="M160 6361 c0 -5 9 -11 20 -14 18 -5 20 -14 20 -115 0 -103 -1 -110 -22 -120 -18 -8 13 -11 132 -11 119 0 150 3 133 11 -22 10 -23 17 -23 120 0 101 2 110 20 115 54 14 5 23 -130 23 -82 0 -150 -4 -150 -9z m188 -128 c2 -105 1 -112 -18 -118 -11 -3 -29 -3 -40 0 -18 6 -20 15 -20 114 0 59 3 111 7 115 4 4 21 6 38 4 l30 -3 3 -112z"/>
<path d="M1170 6349 c-61 -24 -100 -85 -100 -154 0 -64 33 -95 102 -95 53 0 102 20 111 45 8 19 9 19 -38 -5 -51 -26 -61 -25 -91 6 -22 21 -25 31 -19 62 16 85 82 155 125 132 12 -6 25 -22 30 -36 5 -13 14 -24 19 -24 7 0 21 45 21 71 0 12 -129 10 -160 -2z"/>
<path d="M10152 6338 c4 -32 66 -38 93 -8 19 21 13 42 -7 22 -15 -15 -48 -16 -48 -2 0 6 -9 10 -21 10 -15 0 -20 -5 -17 -22z"/>
<path d="M1382 6266 c-34 -18 -62 -66 -62 -106 0 -45 15 -60 58 -60 67 0 122 55 122 122 0 19 -5 39 -12 46 -16 16 -77 15 -106 -2z m61 -13 c8 -14 -20 -103 -38 -123 -28 -31 -38 -3 -21 54 19 62 45 93 59 69z"/>
<path d="M1534 6252 c4 -15 0 -50 -9 -77 -20 -69 -19 -75 13 -75 25 0 31 6 40 39 11 36 50 96 58 89 2 -2 -3 -26 -11 -53 -8 -26 -15 -54 -15 -62 0 -21 64 -16 85 7 20 23 13 39 -9 21 -11 -9 -10 1 5 48 10 34 16 68 13 76 -9 23 -52 18 -80 -10 l-24 -24 6 24 c6 24 4 25 -36 25 -40 0 -41 -1 -36 -28z"/>
<path d="M1792 6266 c-34 -18 -62 -66 -62 -106 0 -45 15 -60 58 -60 67 0 122 55 122 122 0 19 -5 39 -12 46 -16 16 -77 15 -106 -2z m61 -13 c8 -14 -20 -103 -38 -123 -28 -31 -38 -3 -21 54 19 62 45 93 59 69z"/>
<path d="M1988 6265 c-49 -27 -77 -122 -46 -153 19 -19 83 -14 109 7 29 23 19 39 -16 23 -19 -9 -27 -8 -40 4 -8 9 -15 20 -15 25 0 23 30 78 48 88 17 9 19 7 14 -14 -4 -22 -1 -25 22 -25 24 0 27 4 24 28 -3 23 -8 27 -38 29 -19 2 -47 -4 -62 -12z"/>
<path d="M2114 6252 c4 -15 0 -50 -9 -77 -20 -69 -19 -75 14 -75 23 0 30 5 36 28 8 33 55 116 62 109 2 -3 -3 -29 -11 -58 -22 -72 -21 -79 13 -79 25 0 30 5 36 32 8 33 53 113 60 106 3 -2 -2 -28 -10 -58 -8 -30 -15 -61 -15 -67 0 -21 65 -16 85 7 20 23 13 39 -9 21 -11 -9 -10 1 5 48 10 34 16 68 13 76 -9 23 -45 18 -77 -12 -17 -16 -27 -23 -24 -16 12 20 -4 43 -30 43 -13 0 -35 -12 -49 -27 l-26 -28 7 28 c7 26 6 27 -35 27 -40 0 -41 -1 -36 -28z"/>
<path d="M2446 6250 c-26 -32 -40 -80 -34 -121 3 -27 40 -38 64 -19 10 9 14 9 14 1 0 -18 65 -13 83 7 21 23 22 36 2 28 -18 -7 -18 -4 0 64 8 30 15 58 15 63 0 4 -27 7 -59 7 -54 0 -62 -3 -85 -30z m74 -7 c-1 -27 -37 -103 -50 -103 -12 0 -5 35 16 88 14 34 34 43 34 15z"/>
<path d="M2652 6265 c-45 -32 -69 -124 -40 -153 15 -15 72 -16 99 -2 23 13 26 65 4 78 -13 7 -11 10 10 20 21 10 26 18 23 40 -3 23 -8 27 -38 30 -20 1 -45 -4 -58 -13z m51 -25 c-6 -24 -33 -49 -33 -31 0 18 19 51 29 51 5 0 7 -9 4 -20z m-31 -95 c-2 -14 -8 -25 -13 -25 -10 0 -11 7 -3 37 8 31 23 20 16 -12z"/>
<path d="M2811 6262 c9 -15 8 -30 -5 -69 -15 -45 -19 -50 -41 -45 -21 4 -25 1 -25 -22 0 -21 5 -26 25 -26 28 0 44 26 65 105 13 49 24 65 46 65 8 0 6 -23 -7 -75 -11 -42 -17 -80 -14 -85 11 -17 61 -11 80 10 20 23 13 39 -9 21 -11 -10 -11 2 5 61 10 40 19 74 19 76 0 1 -34 2 -75 2 -70 0 -74 -1 -64 -18z"/>
<path d="M3024 6261 c-18 -11 -39 -30 -48 -42 -19 -27 -21 -90 -4 -107 19 -19 90 -14 118 8 32 24 20 36 -21 21 -27 -9 -36 -9 -47 3 -18 18 -7 36 21 36 12 0 37 9 55 20 25 15 32 27 32 50 0 28 -2 30 -37 30 -21 0 -52 -9 -69 -19z m45 -23 c-7 -13 -17 -26 -23 -30 -22 -15 -26 -7 -11 22 9 17 22 30 31 30 12 0 13 -4 3 -22z"/>
<path d="M3176 6271 c-4 -5 -3 -16 0 -25 3 -8 -1 -39 -10 -70 -21 -72 -21 -76 12 -76 25 0 29 5 40 45 7 27 18 45 26 45 12 0 12 -7 5 -35 -6 -19 -7 -40 -4 -45 11 -17 61 -11 80 10 20 23 13 39 -9 21 -11 -10 -11 2 5 61 10 40 19 74 19 76 0 1 -13 2 -30 2 -26 0 -31 -5 -40 -40 -6 -22 -17 -40 -25 -40 -11 0 -12 7 -4 32 5 18 9 36 9 40 0 11 -68 10 -74 -1z"/>
<path d="M3374 6254 c4 -15 0 -47 -9 -75 -9 -28 -14 -56 -11 -64 8 -22 46 -18 73 7 l23 21 0 -21 c0 -18 6 -22 33 -22 21 0 41 8 52 20 21 23 13 39 -9 21 -12 -10 -11 1 4 56 25 86 25 83 -8 83 -25 0 -31 -7 -51 -54 -26 -65 -57 -98 -45 -50 4 16 11 39 15 52 17 44 12 52 -32 52 -39 0 -41 -1 -35 -26z"/>
<path d="M3634 6261 c-18 -11 -39 -30 -48 -42 -19 -27 -21 -90 -4 -107 19 -19 90 -14 118 8 32 24 20 36 -21 21 -27 -9 -36 -9 -47 3 -18 18 -7 36 21 36 12 0 37 9 55 20 25 15 32 27 32 50 0 28 -2 30 -37 30 -21 0 -52 -9 -69 -19z m45 -23 c-7 -13 -17 -26 -23 -30 -22 -15 -26 -7 -11 22 9 17 22 30 31 30 12 0 13 -4 3 -22z"/>
<path d="M3958 6265 c-49 -27 -77 -122 -46 -153 19 -19 83 -14 109 7 29 23 19 39 -16 23 -19 -9 -27 -8 -40 4 -8 9 -15 20 -15 25 0 23 30 78 48 88 17 9 19 7 14 -14 -4 -22 -1 -25 22 -25 24 0 27 4 24 28 -3 23 -8 27 -38 29 -19 2 -47 -4 -62 -12z"/>
<path d="M4084 6252 c4 -15 0 -50 -9 -77 -20 -69 -19 -75 14 -75 23 0 30 5 36 28 8 33 55 116 62 109 2 -3 -3 -29 -11 -58 -22 -72 -21 -79 13 -79 25 0 30 5 36 32 8 33 53 113 60 106 3 -2 -2 -28 -10 -58 -8 -30 -15 -61 -15 -67 0 -18 65 -16 80 2 12 14 15 14 30 0 23 -21 90 -19 120 5 32 24 20 36 -21 21 -27 -9 -36 -9 -47 3 -18 18 -7 36 21 36 12 0 37 9 55 20 25 15 32 27 32 50 0 28 -3 30 -35 30 -64 0 -135 -55 -135 -104 0 -12 -8 -26 -19 -33 -18 -11 -18 -10 0 48 10 32 16 66 13 74 -9 23 -45 18 -77 -12 -17 -16 -27 -23 -24 -16 12 20 -4 43 -30 43 -13 0 -35 -12 -49 -27 l-26 -28 7 28 c7 26 6 27 -35 27 -40 0 -41 -1 -36 -28z m385 -14 c-7 -13 -17 -26 -23 -30 -22 -15 -26 -7 -11 22 9 17 22 30 31 30 12 0 13 -4 3 -22z"/>
<path d="M4564 6252 c4 -15 0 -50 -9 -77 -20 -69 -19 -75 13 -75 25 0 31 6 40 39 11 36 50 96 58 89 2 -2 -3 -26 -11 -53 -8 -26 -15 -54 -15 -62 0 -21 64 -16 85 7 20 23 13 39 -9 21 -11 -9 -10 1 5 48 10 34 16 68 13 76 -9 23 -52 18 -80 -10 l-24 -24 6 24 c6 24 4 25 -36 25 -40 0 -41 -1 -36 -28z"/>
<path d="M4814 6261 c-18 -11 -39 -30 -48 -42 -19 -27 -21 -90 -4 -107 19 -19 90 -14 118 8 32 24 20 36 -21 21 -27 -9 -36 -9 -47 3 -18 18 -7 36 21 36 12 0 37 9 55 20 25 15 32 27 32 50 0 28 -2 30 -37 30 -21 0 -52 -9 -69 -19z m45 -23 c-7 -13 -17 -26 -23 -30 -22 -15 -26 -7 -11 22 9 17 22 30 31 30 12 0 13 -4 3 -22z"/>
<path d="M4966 6271 c-4 -5 -3 -16 0 -25 3 -8 -1 -39 -10 -70 -21 -72 -21 -76 12 -76 25 0 29 5 40 45 7 27 18 45 26 45 12 0 12 -7 5 -35 -6 -19 -7 -40 -4 -45 11 -17 61 -11 80 10 20 23 13 39 -9 21 -11 -10 -11 2 5 61 10 40 19 74 19 76 0 1 -13 2 -30 2 -26 0 -31 -5 -40 -40 -6 -22 -17 -40 -25 -40 -11 0 -12 7 -4 32 5 18 9 36 9 40 0 11 -68 10 -74 -1z"/>
<path d="M5164 6254 c4 -15 0 -47 -9 -75 -9 -28 -14 -56 -11 -64 8 -22 46 -18 73 7 l23 21 0 -21 c0 -18 6 -22 33 -22 21 0 41 8 52 20 21 23 13 39 -9 21 -12 -10 -11 1 4 56 25 86 25 83 -8 83 -25 0 -31 -7 -51 -54 -26 -65 -57 -98 -45 -50 4 16 11 39 15 52 17 44 12 52 -32 52 -39 0 -41 -1 -35 -26z"/>
<path d="M5546 6271 c-4 -5 -3 -16 0 -25 3 -8 -1 -39 -10 -70 -21 -72 -21 -76 12 -76 25 0 29 5 40 45 7 27 18 45 26 45 12 0 12 -7 5 -35 -6 -19 -7 -40 -4 -45 11 -17 61 -11 80 10 20 23 13 39 -9 21 -11 -10 -11 2 5 61 10 40 19 74 19 76 0 1 -13 2 -30 2 -26 0 -31 -5 -40 -40 -6 -22 -17 -40 -25 -40 -11 0 -12 7 -4 32 5 18 9 36 9 40 0 11 -68 10 -74 -1z"/>
<path d="M5784 6261 c-18 -11 -39 -30 -48 -42 -19 -27 -21 -90 -4 -107 19 -19 90 -14 118 8 32 24 20 36 -21 21 -27 -9 -36 -9 -47 3 -18 18 -7 36 21 36 12 0 37 9 55 20 25 15 32 27 32 50 0 28 -2 30 -37 30 -21 0 -52 -9 -69 -19z m45 -23 c-7 -13 -17 -26 -23 -30 -22 -15 -26 -7 -11 22 9 17 22 30 31 30 12 0 13 -4 3 -22z"/>
<path d="M5968 6265 c-49 -27 -77 -122 -46 -153 19 -19 83 -14 109 7 29 23 19 39 -16 23 -19 -9 -27 -8 -40 4 -8 9 -15 20 -15 25 0 23 30 78 48 88 17 9 19 7 14 -14 -4 -22 -1 -25 22 -25 24 0 27 4 24 28 -3 23 -8 27 -38 29 -19 2 -47 -4 -62 -12z"/>
<path d="M6094 6254 c4 -15 0 -47 -9 -75 -9 -28 -14 -56 -11 -64 8 -22 46 -18 73 7 l23 21 0 -21 c0 -18 6 -22 33 -22 21 0 41 8 52 20 21 23 13 39 -9 21 -12 -10 -11 1 4 56 25 86 25 83 -8 83 -25 0 -31 -7 -51 -54 -26 -65 -57 -98 -45 -50 4 16 11 39 15 52 17 44 12 52 -32 52 -39 0 -41 -1 -35 -26z"/>
<path d="M6345 6270 c-3 -5 -3 -15 0 -20 4 -6 2 -33 -5 -59 -10 -43 -14 -48 -36 -43 -20 4 -24 1 -24 -22 0 -21 5 -26 24 -26 19 0 27 9 40 40 9 22 17 48 18 58 1 9 4 -7 7 -37 3 -30 11 -56 17 -58 6 -2 26 19 44 47 18 28 34 49 36 47 2 -2 -1 -20 -7 -40 -5 -21 -7 -42 -4 -47 9 -14 59 -12 73 2 9 9 12 9 12 0 0 -7 11 -12 24 -12 19 0 27 9 40 40 9 22 17 48 18 58 1 9 4 -7 7 -37 3 -30 11 -56 17 -58 6 -2 26 19 44 47 18 28 34 49 36 47 2 -2 -1 -20 -7 -40 -5 -21 -7 -42 -4 -47 11 -17 61 -11 80 10 20 23 13 39 -9 21 -11 -10 -11 2 5 61 10 40 19 74 19 76 0 1 -13 2 -30 2 -24 0 -35 -8 -57 -41 -23 -35 -28 -38 -34 -23 -4 11 -8 29 -8 42 -1 21 -5 23 -38 20 -31 -2 -38 -7 -36 -23 2 -11 -2 -41 -8 -66 -9 -41 -13 -46 -35 -41 -13 2 -30 -1 -38 -7 -11 -10 -10 4 5 61 10 40 19 74 19 76 0 1 -13 2 -30 2 -24 0 -35 -8 -57 -41 -23 -35 -28 -38 -34 -23 -4 11 -8 29 -8 42 -1 18 -7 22 -35 22 -19 0 -38 -4 -41 -10z"/>
<path d="M6884 6261 c-18 -11 -39 -30 -48 -42 -19 -27 -21 -90 -4 -107 19 -19 90 -14 118 8 32 24 20 36 -21 21 -27 -9 -36 -9 -47 3 -18 18 -7 36 21 36 12 0 37 9 55 20 25 15 32 27 32 50 0 28 -2 30 -37 30 -21 0 -52 -9 -69 -19z m45 -23 c-7 -13 -17 -26 -23 -30 -22 -15 -26 -7 -11 22 9 17 22 30 31 30 12 0 13 -4 3 -22z"/>
<path d="M7014 6252 c4 -15 0 -50 -9 -77 -20 -69 -19 -75 14 -75 23 0 30 5 36 28 8 33 55 116 62 109 2 -3 -3 -29 -11 -58 -22 -72 -21 -79 13 -79 25 0 30 5 36 32 8 33 53 113 60 106 3 -2 -2 -28 -10 -58 -8 -30 -15 -61 -15 -67 0 -21 65 -16 85 7 20 23 13 39 -9 21 -11 -9 -10 1 5 48 10 34 16 68 13 76 -9 23 -45 18 -77 -12 -17 -16 -27 -23 -24 -16 12 20 -4 43 -30 43 -13 0 -35 -12 -49 -27 l-26 -28 7 28 c7 26 6 27 -35 27 -40 0 -41 -1 -36 -28z"/>
<path d="M7324 6255 c9 -34 -32 -184 -57 -212 l-20 -23 56 0 c51 0 76 12 46 22 -6 2 -8 14 -4 31 6 22 13 27 40 27 62 0 109 62 103 136 l-3 39 -84 2 -83 3 6 -25z m110 -23 c16 -26 -41 -131 -63 -117 -9 5 9 91 23 114 8 13 33 15 40 3z"/>
<path d="M7514 6254 c4 -15 0 -47 -9 -75 -9 -28 -14 -56 -11 -64 8 -22 46 -18 73 7 l23 21 0 -21 c0 -18 6 -22 33 -22 21 0 41 8 52 20 21 23 13 39 -9 21 -12 -10 -11 1 4 56 25 86 25 83 -8 83 -25 0 -31 -7 -51 -54 -26 -65 -57 -98 -45 -50 4 16 11 39 15 52 17 44 12 52 -32 52 -39 0 -41 -1 -35 -26z"/>
<path d="M7724 6254 c4 -15 0 -47 -9 -75 -9 -28 -14 -56 -11 -64 8 -22 46 -18 73 7 l23 21 0 -21 c0 -18 6 -22 33 -22 21 0 41 8 52 20 21 23 13 39 -9 21 -12 -10 -11 1 4 56 25 86 25 83 -8 83 -25 0 -31 -7 -51 -54 -26 -65 -57 -98 -45 -50 4 16 11 39 15 52 17 44 12 52 -32 52 -39 0 -41 -1 -35 -26z"/>
<path d="M8106 6271 c-4 -5 -3 -16 0 -25 3 -8 -1 -39 -10 -70 -21 -72 -21 -76 12 -76 25 0 29 5 40 45 7 27 18 45 26 45 12 0 12 -7 5 -35 -6 -19 -7 -40 -4 -45 11 -17 61 -11 80 10 20 23 13 39 -9 21 -11 -10 -11 2 5 61 10 40 19 74 19 76 0 1 -13 2 -30 2 -26 0 -31 -5 -40 -40 -6 -22 -17 -40 -25 -40 -11 0 -12 7 -4 32 5 18 9 36 9 40 0 11 -68 10 -74 -1z"/>
<path d="M8336 6250 c-26 -32 -40 -80 -34 -121 3 -27 40 -38 64 -19 10 9 14 9 14 1 0 -17 61 -13 82 6 17 15 18 15 18 0 0 -12 9 -17 28 -17 25 0 31 6 40 39 11 36 50 96 58 89 2 -2 -3 -26 -11 -53 -8 -26 -15 -54 -15 -62 0 -21 64 -16 85 7 20 23 13 39 -9 21 -11 -9 -10 1 5 48 10 34 16 68 13 76 -9 23 -52 18 -80 -10 l-24 -24 6 24 c6 24 4 25 -36 25 -40 0 -42 -1 -36 -25 4 -14 1 -44 -4 -68 -9 -32 -16 -43 -31 -43 -23 0 -22 -3 -4 66 8 30 15 58 15 63 0 4 -27 7 -59 7 -54 0 -62 -3 -85 -30z m74 -7 c-1 -27 -37 -103 -50 -103 -12 0 -5 35 16 88 14 34 34 43 34 15z"/>
<path d="M8724 6255 c9 -34 -32 -184 -57 -212 l-20 -23 56 0 c51 0 76 12 46 22 -6 2 -8 14 -4 31 6 22 13 27 40 27 62 0 109 62 103 136 l-3 39 -84 2 -83 3 6 -25z m110 -23 c16 -26 -41 -131 -63 -117 -9 5 9 91 23 114 8 13 33 15 40 3z"/>
<path d="M8937 6269 c-14 -8 -18 -21 -16 -51 3 -33 -2 -47 -29 -79 l-33 -39 38 0 c31 0 43 6 65 32 l27 33 -2 -30 c-2 -27 1 -30 29 -33 20 -2 36 4 49 18 21 23 13 39 -9 21 -12 -10 -11 1 4 56 11 37 20 71 20 75 0 12 -123 9 -143 -3z m72 -42 c-5 -17 -9 -34 -9 -36 0 -2 -6 2 -14 9 -15 11 -12 33 7 57 16 22 26 4 16 -30z"/>
<path d="M9130 6260 c-28 -21 -22 -37 9 -21 29 16 44 -14 30 -62 -10 -39 -29 -59 -29 -32 0 11 -7 15 -22 13 -17 -2 -24 -11 -26 -30 -3 -26 0 -28 30 -28 40 0 73 21 93 61 21 39 36 37 24 -3 -14 -50 -11 -58 20 -58 25 0 29 5 37 42 12 57 32 61 36 6 3 -40 5 -43 34 -46 32 -3 86 30 72 44 -4 4 -14 2 -21 -5 -34 -27 -46 47 -16 99 7 12 8 12 9 -3 0 -32 44 -17 48 16 3 25 0 27 -30 27 -36 0 -69 -22 -87 -57 -14 -27 -35 -31 -27 -5 2 9 7 27 11 40 6 19 3 22 -24 22 -27 0 -31 -5 -41 -40 -12 -44 -30 -54 -30 -16 0 13 -3 31 -6 40 -9 22 -63 20 -94 -4z"/>
<path d="M9524 6261 c-18 -11 -39 -30 -48 -42 -19 -27 -21 -90 -4 -107 19 -19 90 -14 118 8 32 24 20 36 -21 21 -27 -9 -36 -9 -47 3 -18 18 -7 36 21 36 12 0 37 9 55 20 25 15 32 27 32 50 0 28 -2 30 -37 30 -21 0 -52 -9 -69 -19z m45 -23 c-7 -13 -17 -26 -23 -30 -22 -15 -26 -7 -11 22 9 17 22 30 31 30 12 0 13 -4 3 -22z"/>
<path d="M9666 6271 c-4 -5 -3 -16 0 -25 3 -8 -1 -39 -10 -70 -21 -72 -21 -76 12 -76 25 0 29 5 40 45 7 27 18 45 26 45 12 0 12 -7 5 -35 -6 -19 -7 -40 -4 -45 11 -17 61 -11 80 10 20 23 13 39 -9 21 -11 -10 -11 2 5 61 10 40 19 74 19 76 0 1 -13 2 -30 2 -26 0 -31 -5 -40 -40 -6 -22 -17 -40 -25 -40 -11 0 -12 7 -4 32 5 18 9 36 9 40 0 11 -68 10 -74 -1z"/>
<path d="M9874 6254 c4 -15 0 -47 -9 -75 -9 -28 -14 -56 -11 -64 8 -22 46 -18 73 7 l23 21 0 -21 c0 -18 6 -22 33 -22 21 0 41 8 52 20 21 23 13 39 -9 21 -12 -10 -11 1 4 56 25 86 25 83 -8 83 -25 0 -31 -7 -51 -54 -26 -65 -57 -98 -45 -50 4 16 11 39 15 52 17 44 12 52 -32 52 -39 0 -41 -1 -35 -26z"/>
<path d="M10086 6271 c-4 -5 -1 -11 6 -13 9 -3 8 -19 -5 -66 -9 -33 -14 -68 -11 -76 9 -24 45 -19 74 9 l27 26 -1 -23 c-1 -32 52 -38 79 -8 21 23 13 39 -9 21 -12 -10 -12 0 4 58 11 39 20 73 20 76 0 3 -13 5 -30 5 -25 0 -31 -5 -39 -37 -10 -36 -60 -109 -61 -88 0 6 7 32 15 59 8 27 15 53 15 58 0 11 -77 10 -84 -1z"/>
<path d="M10454 6252 c4 -15 0 -50 -9 -77 -20 -69 -19 -75 13 -75 25 0 31 6 40 39 11 36 50 96 58 89 2 -2 -3 -26 -11 -53 -8 -26 -15 -54 -15 -62 0 -21 64 -16 85 7 20 23 13 39 -9 21 -11 -9 -10 1 5 48 10 34 16 68 13 76 -9 23 -52 18 -80 -10 l-24 -24 6 24 c6 24 4 25 -36 25 -40 0 -41 -1 -36 -28z"/>
<path d="M10674 6255 c9 -34 -32 -184 -57 -212 l-20 -23 56 0 c51 0 76 12 46 22 -6 2 -8 14 -4 31 6 22 13 27 40 27 62 0 109 62 103 136 l-3 39 -84 2 -83 3 6 -25z m110 -23 c16 -26 -41 -131 -63 -117 -9 5 9 91 23 114 8 13 33 15 40 3z"/>
<path d="M10864 6254 c4 -15 0 -47 -9 -75 -9 -28 -14 -56 -11 -64 8 -22 46 -18 73 7 l23 21 0 -21 c0 -18 6 -22 33 -22 21 0 41 8 52 20 21 23 13 39 -9 21 -12 -10 -11 1 4 56 25 86 25 83 -8 83 -25 0 -31 -7 -51 -54 -26 -65 -57 -98 -45 -50 4 16 11 39 15 52 17 44 12 52 -32 52 -39 0 -41 -1 -35 -26z"/>
<path d="M11224 6255 c9 -34 -32 -184 -57 -212 l-20 -23 56 0 c51 0 76 12 46 22 -6 2 -8 14 -4 31 6 22 13 27 40 27 62 0 109 62 103 136 l-3 39 -84 2 -83 3 6 -25z m110 -23 c16 -26 -41 -131 -63 -117 -9 5 9 91 23 114 8 13 33 15 40 3z"/>
<path d="M11446 6250 c-26 -32 -40 -80 -34 -121 3 -27 40 -38 64 -19 10 9 14 9 14 1 0 -15 63 -14 78 1 9 9 15 9 24 0 19 -19 82 -15 101 6 19 21 22 58 6 67 -6 5 -2 13 11 22 14 10 20 23 18 41 -3 25 -7 27 -60 30 -56 3 -58 2 -58 -23 0 -27 14 -34 24 -10 6 17 32 20 41 5 3 -5 -5 -21 -19 -34 -19 -20 -22 -27 -11 -36 15 -12 9 -44 -10 -60 -10 -8 -18 -6 -33 11 -11 11 -25 18 -31 14 -14 -8 -14 -1 4 65 8 30 15 58 15 63 0 4 -27 7 -59 7 -54 0 -62 -3 -85 -30z m74 -7 c-1 -27 -37 -103 -50 -103 -12 0 -5 35 16 88 14 34 34 43 34 15z"/>
<path d="M11801 6262 c9 -15 8 -30 -5 -69 -15 -45 -19 -50 -41 -45 -21 4 -25 1 -25 -22 0 -21 5 -26 25 -26 28 0 44 26 65 105 13 49 24 65 46 65 8 0 6 -23 -7 -75 -11 -42 -17 -80 -14 -85 11 -17 61 -11 80 10 20 23 13 39 -9 21 -11 -10 -11 2 5 61 10 40 19 74 19 76 0 1 -34 2 -75 2 -70 0 -74 -1 -64 -18z"/>
<path d="M11974 6254 c4 -15 0 -47 -9 -75 -9 -28 -14 -56 -11 -64 8 -22 46 -18 73 7 l23 21 0 -21 c0 -18 6 -22 33 -22 21 0 41 8 52 20 21 23 13 39 -9 21 -12 -10 -11 1 4 56 25 86 25 83 -8 83 -25 0 -31 -7 -51 -54 -26 -65 -57 -98 -45 -50 4 16 11 39 15 52 17 44 12 52 -32 52 -39 0 -41 -1 -35 -26z"/>
<path d="M12177 6274 c-4 -4 -3 -12 1 -18 3 -6 7 -29 7 -51 0 -39 1 -40 37 -43 33 -3 36 -6 35 -30 -2 -23 2 -27 29 -30 20 -2 36 4 49 18 21 23 13 39 -9 21 -12 -10 -11 1 4 56 11 37 20 71 20 75 0 5 -13 8 -30 8 -27 0 -31 -4 -41 -44 -6 -25 -17 -47 -25 -50 -18 -7 -18 1 1 53 l14 41 -43 0 c-23 0 -46 -3 -49 -6z"/>
<path d="M12406 6271 c-4 -5 -3 -16 0 -25 3 -8 -1 -39 -10 -70 -21 -72 -21 -76 12 -76 25 0 29 5 40 45 7 27 18 45 26 45 12 0 12 -7 5 -35 -6 -19 -7 -40 -4 -45 11 -17 61 -11 80 10 20 23 13 39 -9 21 -11 -10 -11 2 5 61 10 40 19 74 19 76 0 1 -13 2 -30 2 -26 0 -31 -5 -40 -40 -6 -22 -17 -40 -25 -40 -11 0 -12 7 -4 32 5 18 9 36 9 40 0 11 -68 10 -74 -1z"/>
<path d="M12597 6273 c-4 -3 -2 -12 4 -20 9 -10 8 -24 -1 -57 -6 -24 -10 -54 -8 -67 3 -21 9 -24 47 -27 58 -4 93 26 89 78 -3 30 -7 35 -31 38 -26 3 -28 6 -22 33 6 28 6 29 -33 29 -21 0 -42 -3 -45 -7z m72 -115 c-5 -18 -9 -34 -9 -35 0 -2 -4 -3 -10 -3 -13 0 -13 12 0 44 14 38 31 33 19 -6z"/>
<path d="M12756 6271 c-4 -5 0 -11 6 -13 10 -4 9 -20 -5 -72 -10 -37 -15 -71 -12 -76 9 -14 59 -12 73 2 9 9 12 9 12 0 0 -21 46 -13 70 13 l24 26 13 -26 c17 -31 62 -34 88 -5 21 23 13 39 -10 20 -13 -11 -17 -7 -30 24 -20 47 -7 76 35 76 23 0 30 4 30 20 0 29 -44 26 -68 -5 l-19 -24 -11 24 c-9 20 -19 25 -47 25 -35 0 -47 -13 -22 -23 7 -3 18 -22 25 -43 9 -31 9 -42 -3 -61 -13 -19 -19 -20 -47 -13 -20 6 -36 6 -43 0 -8 -7 -6 14 6 57 11 37 19 71 19 75 0 11 -78 10 -84 -1z"/>
<path d="M475 6140 c-14 -43 44 -69 65 -31 15 29 2 51 -30 51 -20 0 -31 -6 -35 -20z"/>
<path d="M2147 5910 c-20 -4 -49 -17 -62 -30 -49 -46 -83 -188 -53 -218 17 -17 74 -15 104 4 32 22 54 64 54 107 0 42 -15 57 -60 57 -20 0 -41 -5 -48 -12 -7 -7 -12 -8 -12 -2 0 18 33 41 70 49 48 10 70 23 70 40 0 16 -5 17 -63 5z m-14 -145 c-9 -49 -43 -109 -55 -97 -11 11 15 116 35 140 15 19 27 -5 20 -43z"/>
<path d="M3180 5915 c0 -3 9 -15 20 -27 29 -32 25 -52 -12 -63 -59 -18 -103 -126 -66 -163 16 -16 79 -15 102 3 74 56 76 189 4 239 -22 16 -48 21 -48 11z m39 -161 c-18 -63 -39 -99 -50 -83 -12 20 9 104 34 137 18 23 27 -11 16 -54z"/>
<path d="M5350 5915 c0 -3 9 -15 20 -27 29 -32 25 -52 -12 -63 -59 -18 -103 -126 -66 -163 16 -16 79 -15 102 3 74 56 76 189 4 239 -22 16 -48 21 -48 11z m39 -161 c-18 -63 -39 -99 -50 -83 -12 20 9 104 34 137 18 23 27 -11 16 -54z"/>
<path d="M6004 5908 c-4 -6 -3 -13 3 -15 7 -3 8 -14 4 -31 -6 -21 -14 -28 -39 -30 -47 -5 -92 -61 -92 -115 0 -48 13 -67 47 -67 29 0 29 -19 2 -54 l-20 -26 62 0 c52 0 60 2 47 13 -12 8 -15 21 -11 40 4 23 10 27 38 27 49 0 95 56 95 113 0 50 -13 67 -51 67 l-27 0 14 45 13 45 -39 0 c-21 0 -42 -5 -46 -12z m70 -163 c-9 -33 -22 -67 -31 -75 -14 -13 -15 -10 -11 30 7 58 35 127 48 114 6 -6 4 -32 -6 -69z m-89 28 c-9 -52 -32 -103 -45 -103 -11 0 -7 24 12 90 13 44 17 50 30 50 6 0 8 -13 3 -37z"/>
<path d="M10624 5908 c-4 -6 -3 -13 3 -15 7 -3 8 -14 4 -31 -6 -21 -14 -28 -39 -30 -47 -5 -92 -61 -92 -115 0 -48 13 -67 47 -67 29 0 29 -19 2 -54 l-20 -26 62 0 c52 0 60 2 47 13 -12 8 -15 21 -11 40 4 23 10 27 38 27 49 0 95 56 95 113 0 50 -13 67 -51 67 l-27 0 14 45 13 45 -39 0 c-21 0 -42 -5 -46 -12z m70 -163 c-9 -33 -22 -67 -31 -75 -14 -13 -15 -10 -11 30 7 58 35 127 48 114 6 -6 4 -32 -6 -69z m-89 28 c-9 -52 -32 -103 -45 -103 -11 0 -7 24 12 90 13 44 17 50 30 50 6 0 8 -13 3 -37z"/>
<path d="M11602 5888 c4 -32 66 -38 93 -8 19 21 13 42 -7 22 -15 -15 -48 -16 -48 -2 0 6 -9 10 -21 10 -15 0 -20 -5 -17 -22z"/>
<path d="M1118 5815 c-49 -27 -77 -122 -46 -153 19 -19 83 -14 109 7 29 23 19 39 -16 23 -19 -9 -27 -8 -40 4 -8 9 -15 20 -15 25 0 23 30 78 48 88 17 9 19 7 14 -14 -4 -22 -1 -25 22 -25 24 0 27 4 24 28 -3 23 -8 27 -38 29 -19 2 -47 -4 -62 -12z"/>
<path d="M1254 5802 c4 -15 0 -50 -9 -77 -20 -69 -19 -75 13 -75 25 0 31 6 40 39 11 36 50 96 58 89 2 -2 -3 -26 -11 -53 -8 -26 -15 -54 -15 -62 0 -21 64 -16 85 7 20 23 13 39 -9 21 -11 -9 -10 1 5 48 10 34 16 68 13 76 -9 23 -52 18 -80 -10 l-24 -24 6 24 c6 24 4 25 -36 25 -40 0 -41 -1 -36 -28z"/>
<path d="M1512 5816 c-34 -18 -62 -66 -62 -106 0 -45 15 -60 58 -60 67 0 122 55 122 122 0 19 -5 39 -12 46 -16 16 -77 15 -106 -2z m61 -13 c8 -14 -20 -103 -38 -123 -28 -31 -38 -3 -21 54 19 62 45 93 59 69z"/>
<path d="M1708 5815 c-49 -27 -77 -122 -46 -153 19 -19 83 -14 109 7 29 23 19 39 -16 23 -19 -9 -27 -8 -40 4 -8 9 -15 20 -15 25 0 23 30 78 48 88 17 9 19 7 14 -14 -4 -22 -1 -25 22 -25 24 0 27 4 24 28 -3 23 -8 27 -38 29 -19 2 -47 -4 -62 -12z"/>
<path d="M1882 5816 c-34 -18 -62 -66 -62 -106 0 -45 15 -60 58 -60 67 0 122 55 122 122 0 19 -5 39 -12 46 -16 16 -77 15 -106 -2z m61 -13 c8 -14 -20 -103 -38 -123 -28 -31 -38 -3 -21 54 19 62 45 93 59 69z"/>
<path d="M2246 5800 c-26 -32 -40 -80 -34 -121 3 -27 40 -38 64 -19 9 9 14 9 14 1 0 -6 23 -10 63 -10 51 1 66 5 88 25 l26 24 11 -25 c14 -31 61 -34 87 -5 21 23 13 39 -10 20 -13 -11 -17 -7 -30 24 -20 47 -7 76 35 76 23 0 30 4 30 20 0 29 -44 26 -68 -5 l-19 -24 -11 24 c-9 20 -19 25 -47 25 -35 0 -47 -13 -22 -23 7 -3 18 -22 25 -43 9 -31 9 -42 -3 -61 -13 -19 -19 -21 -41 -13 -14 6 -30 8 -35 4 -12 -7 -11 1 6 66 8 30 15 58 15 63 0 4 -27 7 -59 7 -54 0 -62 -3 -85 -30z m74 -7 c-1 -27 -37 -103 -50 -103 -12 0 -5 35 16 88 14 34 34 43 34 15z"/>
<path d="M2714 5802 c4 -15 0 -50 -9 -77 -20 -69 -19 -75 13 -75 25 0 31 6 40 39 11 36 50 96 58 89 2 -2 -3 -26 -11 -53 -8 -26 -15 -54 -15 -62 0 -21 64 -16 85 7 20 23 13 39 -9 21 -11 -9 -10 1 5 48 10 34 16 68 13 76 -9 23 -52 18 -80 -10 l-24 -24 6 24 c6 24 4 25 -36 25 -40 0 -41 -1 -36 -28z"/>
<path d="M2972 5816 c-34 -18 -62 -66 -62 -106 0 -45 15 -60 58 -60 67 0 122 55 122 122 0 19 -5 39 -12 46 -16 16 -77 15 -106 -2z m61 -13 c8 -14 -20 -103 -38 -123 -28 -31 -38 -3 -21 54 19 62 45 93 59 69z"/>
<path d="M3307 5824 c-3 -3 -1 -14 5 -23 8 -13 6 -32 -6 -73 -21 -74 -21 -78 13 -78 26 0 30 4 36 40 4 22 10 40 14 40 5 0 16 -18 26 -40 18 -39 19 -40 71 -40 60 0 69 9 94 105 13 49 24 65 46 65 8 0 6 -23 -7 -75 -11 -42 -17 -80 -14 -85 11 -17 61 -11 80 10 20 23 13 39 -9 21 -11 -10 -11 2 5 61 10 40 19 74 19 76 0 1 -34 2 -75 2 -70 0 -74 -1 -64 -18 9 -15 8 -30 -5 -69 -14 -43 -20 -50 -37 -46 -12 3 -24 0 -29 -6 -4 -8 -11 -2 -20 18 -7 17 -17 31 -22 31 -5 0 -4 9 2 20 6 12 21 20 35 20 20 0 25 5 25 25 0 38 -36 33 -61 -9 -11 -19 -28 -36 -38 -39 -17 -4 -18 -1 -10 27 5 17 9 34 9 38 0 9 -74 11 -83 2z"/>
<path d="M3707 5824 c-3 -3 -1 -14 5 -23 8 -13 6 -32 -6 -73 -21 -75 -21 -78 14 -78 25 0 30 4 36 35 9 47 24 55 24 12 0 -39 12 -47 70 -47 31 0 44 7 74 40 28 31 36 48 36 78 0 48 -14 62 -62 62 -28 0 -47 -8 -73 -31 -19 -17 -35 -37 -35 -45 0 -8 -5 -14 -11 -14 -6 0 -8 8 -5 18 21 71 21 72 -21 72 -22 0 -42 -3 -46 -6z m191 -66 c-10 -47 -21 -70 -41 -87 -23 -18 -28 11 -12 65 26 88 73 107 53 22z"/>
<path d="M3987 5824 c-4 -4 -3 -12 1 -18 3 -6 7 -29 7 -51 0 -39 1 -40 37 -43 33 -3 36 -6 35 -30 -2 -23 2 -27 29 -30 20 -2 36 4 49 18 21 23 13 39 -9 21 -12 -10 -11 1 4 56 11 37 20 71 20 75 0 5 -13 8 -30 8 -27 0 -31 -4 -41 -44 -6 -25 -17 -47 -25 -50 -18 -7 -18 1 1 53 l14 41 -43 0 c-23 0 -46 -3 -49 -6z"/>
<path d="M4234 5811 c-18 -11 -39 -30 -48 -42 -19 -27 -21 -90 -4 -107 19 -19 90 -14 118 8 32 24 20 36 -21 21 -27 -9 -36 -9 -47 3 -18 18 -7 36 21 36 12 0 37 9 55 20 25 15 32 27 32 50 0 28 -2 30 -37 30 -21 0 -52 -9 -69 -19z m45 -23 c-7 -13 -17 -26 -23 -30 -22 -15 -26 -7 -11 22 9 17 22 30 31 30 12 0 13 -4 3 -22z"/>
<path d="M4376 5821 c-4 -5 -3 -16 0 -25 3 -8 -1 -39 -10 -70 -21 -72 -21 -76 12 -76 25 0 29 5 40 45 7 27 18 45 26 45 12 0 12 -7 5 -35 -6 -19 -7 -40 -4 -45 11 -17 61 -11 80 10 20 23 13 39 -9 21 -11 -10 -11 2 5 61 10 40 19 74 19 76 0 1 -13 2 -30 2 -26 0 -31 -5 -40 -40 -6 -22 -17 -40 -25 -40 -11 0 -12 7 -4 32 5 18 9 36 9 40 0 11 -68 10 -74 -1z"/>
<path d="M4584 5804 c4 -15 0 -47 -9 -75 -9 -28 -14 -56 -11 -64 8 -22 46 -18 73 7 l23 21 0 -21 c0 -18 6 -22 33 -22 21 0 41 8 52 20 21 23 13 39 -9 21 -12 -10 -11 1 4 56 25 86 25 83 -8 83 -25 0 -31 -7 -51 -54 -26 -65 -57 -98 -45 -50 4 16 11 39 15 52 17 44 12 52 -32 52 -39 0 -41 -1 -35 -26z"/>
<path d="M4827 5819 c-14 -8 -18 -21 -16 -51 3 -33 -2 -47 -29 -79 l-33 -39 38 0 c31 0 43 6 65 32 l27 33 -2 -30 c-2 -27 1 -30 29 -33 20 -2 36 4 49 18 21 23 13 39 -9 21 -12 -10 -11 1 4 56 11 37 20 71 20 75 0 12 -123 9 -143 -3z m72 -42 c-5 -17 -9 -34 -9 -36 0 -2 -6 2 -14 9 -15 11 -12 33 7 57 16 22 26 4 16 -30z"/>
<path d="M5142 5816 c-34 -18 -62 -66 -62 -106 0 -45 15 -60 58 -60 42 0 84 24 106 60 19 33 21 91 4 108 -16 16 -77 15 -106 -2z m61 -13 c8 -14 -20 -103 -38 -123 -28 -31 -38 -3 -21 54 19 62 45 93 59 69z"/>
<path d="M5496 5821 c-4 -5 -3 -16 0 -25 3 -8 -1 -39 -10 -70 -21 -72 -21 -76 12 -76 25 0 29 5 40 45 7 27 18 45 26 45 12 0 12 -7 5 -35 -6 -19 -7 -40 -4 -45 11 -17 61 -11 80 10 20 23 13 39 -9 21 -11 -10 -11 2 5 61 10 40 19 74 19 76 0 1 -13 2 -30 2 -26 0 -31 -5 -40 -40 -6 -22 -17 -40 -25 -40 -11 0 -12 7 -4 32 5 18 9 36 9 40 0 11 -68 10 -74 -1z"/>
<path d="M5752 5816 c-34 -18 -62 -66 -62 -106 0 -45 15 -60 58 -60 42 0 84 24 106 60 19 33 21 91 4 108 -16 16 -77 15 -106 -2z m61 -13 c8 -14 -20 -103 -38 -123 -28 -31 -38 -3 -21 54 19 62 45 93 59 69z"/>
<path d="M6196 5800 c-26 -32 -40 -80 -34 -121 3 -27 40 -38 64 -19 10 9 14 9 14 1 0 -16 61 -13 80 4 15 14 18 14 30 0 18 -21 83 -19 103 3 19 21 22 58 6 67 -6 5 -2 13 11 22 14 10 20 23 18 41 -3 25 -7 27 -60 30 -56 3 -58 2 -58 -23 0 -27 14 -34 24 -10 6 17 32 20 41 5 3 -5 -5 -21 -19 -34 -19 -20 -22 -27 -11 -36 14 -12 9 -44 -10 -60 -8 -7 -19 -4 -35 10 -13 12 -30 18 -37 16 -16 -7 -16 -4 2 64 8 30 15 58 15 63 0 4 -27 7 -59 7 -54 0 -62 -3 -85 -30z m74 -7 c-1 -27 -37 -103 -50 -103 -12 0 -5 35 16 88 14 34 34 43 34 15z"/>
<path d="M6536 5821 c-4 -5 -3 -16 0 -25 3 -8 -1 -39 -10 -70 -21 -72 -21 -76 12 -76 25 0 29 5 40 45 7 27 18 45 26 45 12 0 12 -7 5 -35 -6 -19 -7 -40 -4 -45 11 -17 61 -11 80 10 20 23 13 39 -9 21 -11 -10 -11 2 5 61 10 40 19 74 19 76 0 1 -13 2 -30 2 -26 0 -31 -5 -40 -40 -6 -22 -17 -40 -25 -40 -11 0 -12 7 -4 32 5 18 9 36 9 40 0 11 -68 10 -74 -1z"/>
<path d="M6782 5816 c-34 -18 -62 -66 -62 -106 0 -45 15 -60 58 -60 42 0 84 24 106 60 19 33 21 91 4 108 -16 16 -77 15 -106 -2z m61 -13 c8 -14 -20 -103 -38 -123 -28 -31 -38 -3 -21 54 19 62 45 93 59 69z"/>
<path d="M6960 5816 c-10 -14 -9 -16 8 -16 46 0 33 -28 -33 -73 -19 -14 -25 -26 -23 -45 3 -24 8 -27 43 -30 24 -2 48 3 60 12 25 18 14 32 -13 17 -15 -8 -23 -7 -32 4 -17 20 2 49 45 69 30 15 36 22 33 44 -3 23 -8 27 -39 30 -23 2 -40 -2 -49 -12z"/>
<path d="M7122 5816 c-34 -18 -62 -66 -62 -106 0 -45 15 -60 58 -60 42 0 84 24 106 60 19 33 21 91 4 108 -16 16 -77 15 -106 -2z m61 -13 c8 -14 -20 -103 -38 -123 -28 -31 -38 -3 -21 54 19 62 45 93 59 69z"/>
<path d="M7364 5802 c4 -15 0 -50 -9 -77 -20 -69 -19 -75 13 -75 25 0 31 6 40 39 11 36 50 96 58 89 2 -2 -3 -26 -11 -53 -8 -26 -15 -54 -15 -62 0 -21 64 -16 85 7 20 23 13 39 -9 21 -11 -9 -10 1 5 48 10 34 16 68 13 76 -9 23 -52 18 -80 -10 l-24 -24 6 24 c6 24 4 25 -36 25 -40 0 -41 -1 -36 -28z"/>
<path d="M7584 5805 c9 -34 -32 -184 -57 -212 l-20 -23 56 0 c51 0 76 12 46 22 -6 2 -8 14 -4 31 6 22 13 27 40 27 62 0 109 62 103 136 l-3 39 -84 2 -83 3 6 -25z m110 -23 c16 -26 -41 -131 -63 -117 -9 5 9 91 23 114 8 13 33 15 40 3z"/>
<path d="M7774 5804 c4 -15 0 -47 -9 -75 -9 -28 -14 -56 -11 -64 8 -22 46 -18 73 7 l23 21 0 -21 c0 -18 6 -22 33 -22 21 0 41 8 52 20 21 23 13 39 -9 21 -12 -10 -11 1 4 56 25 86 25 83 -8 83 -25 0 -31 -7 -51 -54 -26 -65 -57 -98 -45 -50 4 16 11 39 15 52 17 44 12 52 -32 52 -39 0 -41 -1 -35 -26z"/>
<path d="M8034 5811 c-18 -11 -39 -30 -48 -42 -19 -27 -21 -90 -4 -107 19 -19 90 -14 118 8 32 24 20 36 -21 21 -27 -9 -36 -9 -47 3 -18 18 -7 36 21 36 12 0 37 9 55 20 25 15 32 27 32 50 0 28 -2 30 -37 30 -21 0 -52 -9 -69 -19z m45 -23 c-7 -13 -17 -26 -23 -30 -22 -15 -26 -7 -11 22 9 17 22 30 31 30 12 0 13 -4 3 -22z"/>
<path d="M8195 5820 c-3 -5 -3 -15 0 -20 4 -6 2 -33 -5 -59 -10 -43 -14 -48 -36 -43 -20 4 -24 1 -24 -22 0 -21 5 -26 24 -26 19 0 27 9 40 40 9 22 17 48 18 58 1 9 4 -7 7 -37 3 -30 11 -56 17 -58 6 -2 26 19 44 47 18 28 34 49 36 47 2 -2 -1 -20 -7 -40 -5 -21 -7 -42 -4 -47 11 -17 61 -11 80 10 20 23 13 39 -9 21 -11 -10 -11 2 5 61 10 40 19 74 19 76 0 1 -13 2 -30 2 -24 0 -35 -8 -57 -41 -23 -35 -28 -38 -34 -23 -4 11 -8 29 -8 42 -1 18 -7 22 -35 22 -19 0 -38 -4 -41 -10z"/>
<path d="M8446 5821 c-4 -5 -3 -16 0 -25 3 -8 -1 -39 -10 -70 -21 -72 -21 -76 12 -76 25 0 29 5 40 45 7 27 18 45 26 45 12 0 12 -7 5 -35 -6 -19 -7 -40 -4 -45 11 -17 61 -11 80 10 20 23 13 39 -9 21 -11 -10 -11 2 5 61 10 40 19 74 19 76 0 1 -13 2 -30 2 -26 0 -31 -5 -40 -40 -6 -22 -17 -40 -25 -40 -11 0 -12 7 -4 32 5 18 9 36 9 40 0 11 -68 10 -74 -1z"/>
<path d="M8654 5804 c4 -15 0 -47 -9 -75 -9 -28 -14 -56 -11 -64 8 -22 46 -18 73 7 l23 21 0 -21 c0 -18 6 -22 33 -22 21 0 41 8 52 20 21 23 13 39 -9 21 -12 -10 -11 1 4 56 25 86 25 83 -8 83 -25 0 -31 -7 -51 -54 -26 -65 -57 -98 -45 -50 4 16 11 39 15 52 17 44 12 52 -32 52 -39 0 -41 -1 -35 -26z"/>
<path d="M8857 5824 c-3 -3 -1 -14 5 -23 8 -13 6 -32 -6 -73 -21 -74 -21 -78 13 -78 26 0 30 4 36 40 4 22 10 40 14 40 5 0 16 -18 26 -40 16 -37 21 -40 56 -40 l38 0 -24 38 c-14 20 -29 42 -34 48 -14 17 7 44 34 44 20 0 25 5 25 25 0 38 -36 33 -61 -9 -11 -19 -28 -36 -38 -39 -17 -4 -18 -1 -10 27 5 17 9 34 9 38 0 9 -74 11 -83 2z"/>
<path d="M9086 5800 c-26 -32 -40 -80 -34 -121 3 -27 40 -38 64 -19 10 9 14 9 14 1 0 -18 65 -13 83 7 21 23 22 36 2 28 -18 -7 -18 -4 0 64 8 30 15 58 15 63 0 4 -27 7 -59 7 -54 0 -62 -3 -85 -30z m74 -7 c-1 -27 -37 -103 -50 -103 -12 0 -5 35 16 88 14 34 34 43 34 15z"/>
<path d="M9347 5824 c-3 -3 -1 -14 5 -23 8 -13 6 -32 -6 -73 -21 -74 -21 -78 13 -78 26 0 30 4 36 40 4 22 10 40 14 40 5 0 16 -18 26 -40 16 -37 21 -40 56 -40 l38 0 -24 38 c-14 20 -29 42 -34 48 -14 17 7 44 34 44 20 0 25 5 25 25 0 38 -36 33 -61 -9 -11 -19 -28 -36 -38 -39 -17 -4 -18 -1 -10 27 5 17 9 34 9 38 0 9 -74 11 -83 2z"/>
<path d="M9644 5802 c4 -15 0 -50 -9 -77 -20 -69 -19 -75 14 -75 23 0 30 5 36 28 8 33 55 116 62 109 2 -3 -3 -29 -11 -58 -22 -72 -21 -79 13 -79 25 0 30 5 36 32 8 33 53 113 60 106 3 -2 -2 -28 -10 -58 -8 -30 -15 -61 -15 -67 0 -21 65 -16 85 7 20 23 13 39 -9 21 -11 -9 -10 1 5 48 10 34 16 68 13 76 -9 23 -45 18 -77 -12 -17 -16 -27 -23 -24 -16 12 20 -4 43 -30 43 -13 0 -35 -12 -49 -27 l-26 -28 7 28 c7 26 6 27 -35 27 -40 0 -41 -1 -36 -28z"/>
<path d="M9954 5805 c9 -34 -32 -184 -57 -212 l-20 -23 56 0 c51 0 76 12 46 22 -6 2 -8 14 -4 31 6 22 13 27 37 27 40 0 65 15 88 53 l20 32 0 -30 c0 -17 5 -36 12 -43 17 -17 84 -15 113 4 23 15 25 15 25 0 0 -25 43 -19 70 9 l24 26 13 -26 c17 -31 62 -34 88 -5 21 23 13 39 -10 20 -13 -11 -17 -7 -30 24 -20 47 -7 76 35 76 23 0 30 4 30 20 0 29 -44 26 -68 -5 l-19 -24 -11 24 c-9 20 -19 25 -47 25 -35 0 -47 -13 -22 -23 7 -3 18 -22 25 -43 9 -31 9 -42 -3 -60 -13 -20 -19 -21 -54 -13 -26 6 -50 5 -67 -1 -21 -8 -31 -8 -42 4 -18 18 -8 36 21 36 12 0 37 9 55 20 25 15 32 27 32 50 0 28 -3 30 -35 30 -44 0 -86 -21 -113 -55 l-21 -26 -3 38 -3 38 -84 2 -83 3 6 -25z m275 -17 c-7 -13 -17 -26 -23 -30 -22 -15 -26 -7 -11 22 9 17 22 30 31 30 12 0 13 -4 3 -22z m-165 -6 c16 -26 -41 -131 -63 -117 -9 5 9 91 23 114 8 13 33 15 40 3z"/>
<path d="M10806 5800 c-26 -32 -40 -80 -34 -121 3 -27 40 -38 64 -19 10 9 14 9 14 1 0 -16 61 -13 80 4 15 14 18 14 30 0 18 -21 83 -19 103 3 19 21 22 58 6 67 -6 5 -2 13 11 22 14 10 20 23 18 41 -3 25 -7 27 -60 30 -56 3 -58 2 -58 -23 0 -27 14 -34 24 -10 6 17 32 20 41 5 3 -5 -5 -21 -19 -34 -19 -20 -22 -27 -11 -36 14 -12 9 -44 -10 -60 -8 -7 -19 -4 -35 10 -13 12 -30 18 -37 16 -16 -7 -16 -4 2 64 8 30 15 58 15 63 0 4 -27 7 -59 7 -54 0 -62 -3 -85 -30z m74 -7 c-1 -27 -37 -103 -50 -103 -12 0 -5 35 16 88 14 34 34 43 34 15z"/>
<path d="M11146 5821 c-4 -5 -3 -16 0 -25 3 -8 -1 -39 -10 -70 -21 -72 -21 -76 12 -76 25 0 29 5 40 45 7 27 18 45 26 45 12 0 12 -7 5 -35 -6 -19 -7 -40 -4 -45 11 -17 61 -11 80 10 20 23 13 39 -9 21 -11 -10 -11 2 5 61 10 40 19 74 19 76 0 1 -13 2 -30 2 -26 0 -31 -5 -40 -40 -6 -22 -17 -40 -25 -40 -11 0 -12 7 -4 32 5 18 9 36 9 40 0 11 -68 10 -74 -1z"/>
<path d="M11402 5816 c-34 -18 -62 -66 -62 -106 0 -45 15 -60 58 -60 67 0 122 55 122 122 0 19 -5 39 -12 46 -16 16 -77 15 -106 -2z m61 -13 c8 -14 -20 -103 -38 -123 -28 -31 -38 -3 -21 54 19 62 45 93 59 69z"/>
<path d="M11536 5821 c-4 -5 -1 -11 6 -13 9 -3 8 -19 -5 -66 -9 -33 -14 -68 -11 -76 9 -24 45 -19 74 9 l27 26 -1 -23 c-1 -32 52 -38 79 -8 21 23 13 39 -9 21 -12 -10 -12 0 4 58 11 39 20 73 20 76 0 3 -13 5 -30 5 -25 0 -31 -5 -39 -37 -10 -36 -60 -109 -61 -88 0 6 7 32 15 59 8 27 15 53 15 58 0 11 -77 10 -84 -1z"/>
<path d="M11908 5815 c-49 -27 -77 -122 -46 -153 19 -19 83 -14 109 7 29 23 19 39 -16 23 -19 -9 -27 -8 -40 4 -8 9 -15 20 -15 25 0 23 30 78 48 88 17 9 19 7 14 -14 -4 -22 -1 -25 22 -25 24 0 27 4 24 28 -3 23 -8 27 -38 29 -19 2 -47 -4 -62 -12z"/>
<path d="M12074 5811 c-18 -11 -39 -30 -48 -42 -19 -27 -21 -90 -4 -107 19 -19 90 -14 118 8 32 24 20 36 -21 21 -27 -9 -36 -9 -47 3 -18 18 -7 36 21 36 12 0 37 9 55 20 25 15 32 27 32 50 0 28 -2 30 -37 30 -21 0 -52 -9 -69 -19z m45 -23 c-7 -13 -17 -26 -23 -30 -22 -15 -26 -7 -11 22 9 17 22 30 31 30 12 0 13 -4 3 -22z"/>
<path d="M12204 5802 c4 -15 0 -50 -9 -77 -20 -69 -19 -75 14 -75 23 0 30 5 36 28 8 33 55 116 62 109 2 -3 -3 -29 -11 -58 -22 -72 -21 -79 13 -79 25 0 30 5 36 32 8 33 53 113 60 106 3 -2 -2 -28 -10 -58 -8 -30 -15 -61 -15 -67 0 -21 65 -16 85 7 20 23 13 39 -9 21 -11 -9 -10 1 5 48 10 34 16 68 13 76 -9 23 -45 18 -77 -12 -17 -16 -27 -23 -24 -16 12 20 -4 43 -30 43 -13 0 -35 -12 -49 -27 l-26 -28 7 28 c7 26 6 27 -35 27 -40 0 -41 -1 -36 -28z"/>
<path d="M12514 5804 c4 -15 0 -47 -9 -75 -9 -28 -14 -56 -11 -64 8 -22 46 -18 73 7 l23 21 0 -21 c0 -18 6 -22 33 -22 21 0 41 8 52 20 21 23 13 39 -9 21 -12 -10 -11 1 4 56 25 86 25 83 -8 83 -25 0 -31 -7 -51 -54 -26 -65 -57 -98 -45 -50 4 16 11 39 15 52 17 44 12 52 -32 52 -39 0 -41 -1 -35 -26z"/>
<path d="M12700 5679 c0 -27 3 -30 28 -27 21 2 28 9 30 31 3 24 0 27 -27 27 -28 0 -31 -3 -31 -31z"/>
<path d="M3476 5471 c-68 -8 -89 -38 -94 -134 -3 -62 -1 -76 18 -99 17 -23 29 -28 65 -28 35 0 48 5 64 26 47 60 13 154 -55 154 -20 0 -44 -5 -55 -10 -24 -13 -25 1 -1 30 11 14 33 23 62 27 45 6 70 18 70 34 0 5 -6 8 -12 7 -7 0 -35 -4 -62 -7z m4 -101 c40 -21 46 -121 9 -141 -59 -31 -108 107 -50 141 20 12 19 12 41 0z"/>
<path d="M4603 5463 c-36 -18 -45 -38 -13 -28 19 6 20 2 20 -100 0 -100 -1 -106 -22 -115 -17 -6 -7 -9 42 -9 49 0 59 3 43 9 -22 9 -23 14 -23 135 0 69 -3 125 -7 124 -5 0 -23 -8 -40 -16z"/>
<path d="M4974 5468 c-30 -14 -58 -78 -36 -78 5 0 14 11 20 25 14 31 51 33 76 6 27 -30 12 -74 -50 -140 -30 -32 -54 -61 -54 -65 0 -3 36 -6 80 -6 78 0 81 1 91 26 12 33 5 42 -16 20 -11 -10 -33 -16 -63 -16 l-46 0 40 43 c23 23 48 53 58 67 48 73 -22 156 -100 118z"/>
<path d="M1068 5450 c19 -18 22 -31 22 -110 0 -79 -3 -92 -22 -110 l-22 -20 57 0 57 0 -20 20 c-17 17 -20 33 -20 125 l0 105 65 0 65 0 0 -105 c0 -94 -2 -106 -22 -125 l-22 -20 57 0 57 0 -20 20 c-17 17 -20 33 -20 114 0 86 2 95 23 109 20 15 12 16 -117 16 l-140 1 22 -20z"/>
<path d="M1365 5365 c-34 -33 -35 -102 -2 -133 33 -31 90 -30 122 3 32 31 34 91 4 129 -28 36 -89 37 -124 1z m84 -11 c42 -54 13 -159 -35 -126 -34 23 -46 109 -18 136 21 22 29 20 53 -10z"/>
<path d="M1670 5380 c0 -5 4 -10 9 -10 28 0 11 -113 -20 -133 -13 -8 -19 -23 -19 -46 l0 -34 26 28 c22 24 31 27 71 22 33 -3 52 -12 64 -28 l19 -24 0 31 c0 17 -7 37 -15 44 -21 18 -20 118 2 142 15 17 13 18 -60 18 -45 0 -77 -4 -77 -10z m90 -64 c0 -84 -5 -96 -42 -96 -25 0 -29 3 -23 18 5 9 10 45 13 80 4 57 6 62 28 62 23 0 24 -3 24 -64z"/>
<path d="M1862 5378 c-17 -17 -15 -48 3 -48 8 0 15 6 15 14 0 7 6 19 14 25 11 9 18 8 30 -4 23 -24 21 -28 -35 -52 -49 -22 -50 -23 -47 -60 3 -35 6 -38 36 -41 18 -2 40 2 48 9 11 9 14 9 14 0 0 -16 52 -10 58 7 2 6 -3 12 -12 12 -12 0 -16 15 -18 73 l-3 72 -45 3 c-26 2 -50 -2 -58 -10z m78 -96 c0 -37 -44 -62 -59 -34 -11 21 -5 34 24 50 30 17 35 15 35 -16z"/>
<path d="M2023 5372 c12 -13 17 -36 17 -72 0 -36 -5 -59 -17 -72 -15 -17 -14 -18 32 -18 46 0 47 1 32 18 -10 10 -17 31 -17 45 0 25 3 27 40 27 37 0 40 -2 40 -27 0 -14 -7 -35 -17 -45 -15 -17 -14 -18 32 -18 46 0 47 1 32 18 -12 13 -17 36 -17 72 0 36 5 59 17 72 15 17 14 18 -32 18 -46 0 -47 -1 -32 -18 10 -10 17 -28 17 -40 0 -19 -6 -22 -40 -22 -34 0 -40 3 -40 22 0 12 7 30 17 40 15 17 14 18 -32 18 -46 0 -47 -1 -32 -18z"/>
<path d="M2233 5372 c12 -13 17 -36 17 -72 0 -36 -5 -59 -17 -72 -15 -17 -14 -18 32 -18 46 0 47 1 32 18 -10 10 -17 31 -17 45 0 25 3 27 40 27 37 0 40 -2 40 -27 0 -14 -7 -35 -17 -45 -15 -17 -12 -18 98 -18 124 0 139 5 139 50 0 36 -17 50 -62 50 -34 0 -38 2 -38 26 0 15 8 33 18 40 14 11 3 13 -77 14 -91 0 -93 -1 -78 -18 10 -10 17 -28 17 -40 0 -19 -6 -22 -40 -22 -34 0 -40 3 -40 22 0 12 7 30 17 40 15 17 14 18 -32 18 -46 0 -47 -1 -32 -18z m205 -4 c18 -18 15 -123 -3 -138 -12 -10 -18 -10 -30 0 -29 24 -16 150 15 150 3 0 11 -5 18 -12z m93 -88 l24 -20 -24 -20 c-32 -27 -45 -21 -49 23 -4 43 12 49 49 17z"/>
<path d="M2593 5372 c12 -13 17 -36 17 -72 0 -36 -5 -59 -17 -72 -15 -17 -14 -18 32 -18 46 0 47 1 32 18 -24 27 -24 130 1 148 15 12 11 13 -32 14 -47 0 -48 -1 -33 -18z"/>
<path d="M2693 5372 c12 -13 17 -36 17 -72 0 -36 -5 -59 -17 -72 -15 -17 -14 -18 22 -18 36 0 37 1 22 18 -11 12 -17 35 -17 68 l1 49 35 -69 c20 -38 39 -65 44 -60 4 5 20 36 34 69 l25 60 1 -49 c0 -32 -6 -56 -17 -68 -15 -17 -14 -18 32 -18 46 0 47 1 32 18 -24 27 -24 130 1 148 15 12 13 13 -18 14 -34 0 -36 -2 -60 -61 l-24 -61 -30 61 c-28 57 -32 61 -65 61 -32 0 -33 -1 -18 -18z"/>
<path d="M3020 5365 c0 -14 5 -25 10 -25 6 0 10 6 10 14 0 13 20 26 41 26 5 0 9 -30 9 -67 0 -48 -5 -72 -17 -85 -15 -17 -14 -18 33 -18 38 1 45 3 32 11 -25 14 -27 165 -2 155 9 -3 20 -6 25 -6 5 0 9 -7 9 -15 0 -8 5 -15 10 -15 6 0 10 11 10 25 0 25 -1 25 -85 25 -84 0 -85 0 -85 -25z"/>
<path d="M3222 5378 c-17 -17 -15 -48 3 -48 8 0 15 6 15 14 0 7 6 19 14 25 11 9 18 8 30 -4 23 -24 21 -28 -35 -52 -49 -22 -50 -23 -47 -60 3 -35 6 -38 36 -41 18 -2 40 2 48 9 11 9 14 9 14 0 0 -16 52 -10 58 7 2 6 -3 12 -12 12 -12 0 -16 15 -18 73 l-3 72 -45 3 c-26 2 -50 -2 -58 -10z m78 -96 c0 -37 -44 -62 -59 -34 -11 21 -5 34 24 50 30 17 35 15 35 -16z"/>
<path d="M3603 5372 c30 -33 19 -132 -14 -132 -11 0 -19 -7 -19 -15 0 -20 46 -20 54 1 3 9 6 47 6 85 l0 69 30 0 30 0 0 -67 c0 -48 -5 -72 -17 -85 -15 -17 -14 -18 31 -18 43 0 46 1 32 16 -23 23 -22 132 2 150 14 11 5 13 -67 14 -81 0 -83 -1 -68 -18z"/>
<path d="M3773 5372 c12 -13 17 -36 17 -72 0 -36 -5 -59 -17 -72 -15 -17 -14 -18 33 -17 27 0 43 3 37 6 -21 8 -15 25 22 72 l35 44 0 -43 c0 -26 -7 -51 -17 -62 -15 -17 -14 -18 31 -18 43 0 46 1 32 16 -23 23 -22 132 2 150 15 12 11 13 -32 14 -42 0 -47 -2 -36 -15 10 -12 6 -23 -21 -59 l-34 -44 -3 45 c-2 34 1 48 15 59 16 12 13 13 -31 14 -47 0 -48 -1 -33 -18z"/>
<path d="M3983 5372 c23 -26 23 -124 0 -143 -14 -12 -6 -15 66 -19 73 -5 85 -9 102 -30 l19 -25 0 28 c0 16 -7 35 -15 43 -22 23 -21 133 3 150 15 12 11 13 -32 14 -47 0 -48 -1 -33 -18 18 -20 24 -116 8 -140 -5 -8 -21 -12 -37 -10 -28 3 -29 4 -32 72 -2 56 0 70 15 82 16 12 13 13 -31 14 -47 0 -48 -1 -33 -18z"/>
<path d="M4193 5372 c12 -13 17 -36 17 -72 0 -36 -5 -59 -17 -72 -15 -17 -13 -18 53 -18 76 0 94 9 94 50 0 36 -17 50 -62 50 -34 0 -38 2 -38 26 0 15 8 33 18 40 15 12 11 13 -32 14 -47 0 -48 -1 -33 -18z m98 -92 l24 -20 -24 -20 c-32 -27 -45 -21 -49 23 -4 43 12 49 49 17z"/>
<path d="M4353 5372 c12 -13 17 -36 17 -72 0 -36 -5 -59 -17 -72 -15 -17 -14 -18 32 -18 46 0 47 1 32 18 -24 27 -24 130 1 148 15 12 11 13 -32 14 -47 0 -48 -1 -33 -18z"/>
<path d="M4740 5231 c0 -11 8 -24 17 -30 14 -8 15 -11 4 -25 -21 -25 -5 -30 19 -6 31 31 24 74 -12 78 -22 3 -28 -1 -28 -17z"/>
<path d="M5356 5001 c-68 -8 -89 -38 -94 -134 -3 -62 -1 -76 18 -99 17 -23 29 -28 65 -28 35 0 48 5 64 26 47 60 13 154 -55 154 -20 0 -44 -5 -55 -10 -24 -13 -25 1 -1 30 11 14 33 23 62 27 45 6 70 18 70 34 0 5 -6 8 -12 7 -7 0 -35 -4 -62 -7z m4 -101 c40 -21 46 -121 9 -141 -59 -31 -108 107 -50 141 20 12 19 12 41 0z"/>
<path d="M6432 4968 c2 -18 11 -24 37 -26 51 -5 81 5 81 28 0 26 -21 25 -44 -2 l-19 -22 -15 22 c-19 29 -44 29 -40 0z"/>
<path d="M587 4902 c-23 -25 -22 -85 1 -105 25 -23 85 -22 105 1 21 23 22 71 1 100 -20 28 -83 31 -107 4z"/>
<path d="M1068 4913 c-22 -6 -23 -19 -3 -27 23 -8 21 -182 -2 -208 -15 -17 -14 -18 32 -18 46 0 47 1 32 18 -10 10 -17 28 -17 40 0 19 6 22 39 22 31 0 44 6 60 26 25 32 28 100 5 132 -17 25 -71 31 -92 10 -9 -9 -12 -9 -12 0 0 12 -11 13 -42 5z m123 -62 c12 -29 -5 -87 -28 -95 -48 -19 -76 97 -31 128 25 18 44 8 59 -33z"/>
<path d="M1282 4908 c-17 -17 -15 -48 3 -48 8 0 15 6 15 14 0 7 6 19 14 25 11 9 18 8 30 -4 23 -24 21 -28 -35 -52 -49 -22 -50 -23 -47 -60 3 -35 6 -38 36 -41 18 -2 40 2 48 9 11 9 14 9 14 0 0 -16 52 -10 58 7 2 6 -3 12 -12 12 -12 0 -16 15 -18 73 l-3 72 -45 3 c-26 2 -50 -2 -58 -10z m78 -96 c0 -37 -44 -62 -59 -34 -11 21 -5 34 24 50 30 17 35 15 35 -16z"/>
<path d="M1452 4897 c-30 -31 -31 -108 -2 -137 40 -40 130 -17 130 33 0 22 -6 21 -30 -3 -25 -25 -32 -25 -61 -1 -30 24 -32 87 -4 107 20 15 45 3 45 -22 0 -8 9 -14 20 -14 23 0 27 29 8 48 -21 21 -82 14 -106 -11z"/>
<path d="M1632 4897 c-30 -31 -31 -108 -2 -137 40 -40 130 -17 130 33 0 22 -6 21 -30 -3 -25 -25 -32 -25 -61 -1 -30 24 -32 87 -4 107 20 15 45 3 45 -22 0 -8 9 -14 20 -14 23 0 27 29 8 48 -21 21 -82 14 -106 -11z"/>
<path d="M1783 4902 c10 -11 17 -35 17 -57 l0 -38 50 5 c45 5 50 3 50 -15 0 -11 -7 -29 -17 -39 -15 -17 -14 -18 32 -18 46 0 47 1 32 18 -24 27 -24 130 1 148 15 12 11 13 -32 14 -47 0 -48 -1 -33 -18 24 -26 21 -58 -5 -65 -43 -12 -63 30 -31 65 15 17 14 18 -32 18 -46 0 -47 -1 -32 -18z"/>
<path d="M1983 4902 c12 -13 17 -36 17 -72 0 -36 -5 -59 -17 -72 -15 -17 -14 -18 33 -17 27 0 43 3 37 6 -21 8 -15 25 22 72 l35 44 0 -43 c0 -26 -7 -51 -17 -62 -15 -17 -14 -18 31 -18 43 0 46 1 32 16 -22 21 -23 139 -1 148 10 4 15 -1 15 -14 0 -11 5 -20 10 -20 6 0 10 6 10 14 0 13 20 26 41 26 5 0 9 -30 9 -67 0 -48 -5 -72 -17 -85 -15 -17 -14 -18 33 -18 38 1 45 3 32 11 -25 14 -27 165 -2 155 9 -3 20 -6 25 -6 5 0 9 -7 9 -15 0 -8 5 -15 10 -15 6 0 10 11 10 25 l0 25 -131 0 c-116 0 -130 -2 -119 -15 10 -12 6 -23 -21 -59 l-34 -44 -3 45 c-2 34 1 48 15 59 16 12 13 13 -31 14 -47 0 -48 -1 -33 -18z"/>
<path d="M2372 4908 c-17 -17 -15 -48 3 -48 8 0 15 6 15 14 0 7 6 19 14 25 11 9 18 8 30 -4 23 -24 21 -28 -35 -52 -49 -22 -50 -23 -47 -60 3 -35 6 -38 36 -41 18 -2 40 2 48 9 11 9 14 9 14 0 0 -16 52 -10 58 7 2 6 -3 12 -12 12 -12 0 -16 15 -18 73 l-3 72 -45 3 c-26 2 -50 -2 -58 -10z m78 -96 c0 -37 -44 -62 -59 -34 -11 21 -5 34 24 50 30 17 35 15 35 -16z"/>
<path d="M2520 4895 c0 -14 5 -25 10 -25 6 0 10 6 10 14 0 13 20 26 41 26 5 0 9 -30 9 -67 0 -48 -5 -72 -17 -85 -15 -17 -14 -18 33 -18 38 1 45 3 32 11 -25 14 -27 165 -2 155 9 -3 20 -6 25 -6 5 0 9 -7 9 -15 0 -8 5 -15 10 -15 6 0 10 11 10 25 0 25 -1 25 -85 25 -84 0 -85 0 -85 -25z"/>
<path d="M2713 4902 c12 -13 17 -36 17 -72 0 -36 -5 -59 -17 -72 -15 -17 -13 -18 53 -18 76 0 94 9 94 50 0 36 -17 50 -62 50 -34 0 -38 2 -38 26 0 15 8 33 18 40 15 12 11 13 -32 14 -47 0 -48 -1 -33 -18z m98 -92 l24 -20 -24 -20 c-32 -27 -45 -21 -49 23 -4 43 12 49 49 17z"/>
<path d="M2983 4902 c12 -13 17 -36 17 -72 0 -36 -5 -59 -17 -72 -15 -17 -14 -18 32 -18 46 0 47 1 32 18 -10 10 -17 31 -17 45 0 25 3 27 40 27 37 0 40 -2 40 -27 0 -14 -7 -35 -17 -45 -15 -17 -14 -18 32 -18 46 0 47 1 32 18 -12 13 -17 36 -17 72 0 36 5 59 17 72 15 17 14 18 -32 18 -46 0 -47 -1 -32 -18 10 -10 17 -28 17 -40 0 -19 -6 -22 -40 -22 -34 0 -40 3 -40 22 0 12 7 30 17 40 15 17 14 18 -32 18 -46 0 -47 -1 -32 -18z"/>
<path d="M3202 4908 c-17 -17 -15 -48 3 -48 8 0 15 6 15 14 0 7 6 19 14 25 11 9 18 8 30 -4 23 -24 21 -28 -35 -52 -49 -22 -50 -23 -47 -60 3 -35 6 -38 36 -41 18 -2 40 2 48 9 11 9 14 9 14 0 0 -16 52 -10 58 7 2 6 -3 12 -12 12 -12 0 -16 15 -18 73 l-3 72 -45 3 c-26 2 -50 -2 -58 -10z m78 -96 c0 -37 -44 -62 -59 -34 -11 21 -5 34 24 50 30 17 35 15 35 -16z"/>
<path d="M3363 4902 c23 -25 23 -118 0 -144 -15 -17 -14 -18 31 -18 43 0 46 1 32 16 -12 11 -16 35 -16 85 l0 69 40 0 40 0 0 -67 c0 -48 -5 -72 -17 -85 -15 -17 -14 -18 31 -18 43 0 46 1 32 16 -11 11 -16 35 -16 79 0 68 11 83 42 56 25 -22 26 -185 1 -213 -15 -17 -14 -18 32 -18 46 0 47 1 32 18 -10 10 -17 28 -17 40 0 19 6 22 39 22 31 0 44 6 60 26 25 32 28 100 5 132 -17 25 -71 31 -92 10 -7 -7 -12 -8 -12 -2 0 7 -50 11 -132 13 -129 2 -132 2 -115 -17z m328 -51 c12 -29 -5 -87 -28 -95 -48 -19 -76 97 -31 128 25 18 44 8 59 -33z"/>
<path d="M3772 4908 c-17 -17 -15 -67 3 -74 21 -8 19 -18 -10 -52 -31 -37 -31 -42 -2 -42 14 0 32 15 52 43 28 39 30 40 33 19 2 -13 -4 -32 -14 -43 -17 -18 -16 -19 31 -19 46 0 47 1 32 18 -12 13 -17 36 -17 72 0 36 5 59 17 72 15 17 13 18 -48 18 -37 0 -70 -5 -77 -12z m76 -41 c3 -40 1 -42 -27 -27 -27 14 -33 37 -14 55 23 23 38 13 41 -28z"/>
<path d="M3930 4905 c0 -8 9 -15 20 -15 12 0 25 -10 31 -24 9 -20 7 -31 -12 -65 -12 -23 -26 -41 -31 -41 -4 0 -8 -4 -8 -10 0 -5 11 -10 25 -10 19 0 29 10 45 39 11 22 24 42 30 46 16 10 12 -38 -6 -63 -15 -22 -15 -22 32 -22 45 0 46 1 31 18 -18 19 -23 62 -9 62 5 0 18 -18 31 -40 17 -31 28 -40 48 -40 24 0 25 1 11 18 -52 58 -58 132 -12 132 15 0 24 6 24 15 0 9 -9 15 -25 15 -19 0 -29 -9 -42 -35 -21 -43 -43 -54 -43 -19 0 13 7 27 15 30 30 12 14 24 -30 24 -49 0 -53 -4 -30 -26 19 -19 20 -55 2 -48 -8 3 -21 20 -30 39 -13 26 -23 35 -42 35 -16 0 -25 -6 -25 -15z"/>
<path d="M4222 4897 c-30 -31 -31 -108 -2 -137 40 -40 130 -17 130 33 0 22 -6 21 -30 -3 -11 -11 -24 -20 -29 -20 -16 0 -49 34 -56 58 -6 21 -4 22 54 22 53 0 61 3 61 18 0 51 -89 71 -128 29z m69 -35 c-11 -2 -31 -2 -43 0 l-23 3 24 24 24 24 20 -24 c19 -24 19 -24 -2 -27z"/>
<path d="M4383 4902 c12 -13 17 -36 17 -72 0 -36 -5 -59 -17 -72 -15 -17 -14 -18 32 -18 46 0 47 1 32 18 -10 10 -17 31 -17 45 0 25 3 27 40 27 37 0 40 -2 40 -27 0 -14 -7 -35 -17 -45 -15 -17 -14 -18 32 -18 46 0 47 1 32 18 -12 13 -17 36 -17 72 0 36 5 59 17 72 15 17 14 18 -32 18 -46 0 -47 -1 -32 -18 10 -10 17 -28 17 -40 0 -19 -6 -22 -40 -22 -34 0 -40 3 -40 22 0 12 7 30 17 40 15 17 14 18 -32 18 -46 0 -47 -1 -32 -18z"/>
<path d="M4593 4902 c12 -13 17 -36 17 -72 0 -36 -5 -59 -17 -72 -15 -17 -14 -18 33 -17 27 0 43 3 37 6 -21 8 -15 25 22 72 l35 44 0 -43 c0 -26 -7 -51 -17 -62 -15 -17 -13 -18 53 -18 l69 0 30 43 c28 39 30 40 33 19 2 -13 -4 -32 -14 -43 -17 -18 -16 -19 31 -19 46 0 47 1 32 18 -12 13 -17 36 -17 72 0 36 5 59 17 72 15 17 13 18 -48 18 -37 0 -70 -5 -77 -12 -17 -17 -15 -65 4 -76 19 -11 10 -35 -26 -67 -29 -26 -40 -8 -40 69 0 44 4 62 18 72 15 12 11 13 -32 14 -42 0 -47 -2 -36 -15 10 -12 6 -23 -21 -59 l-34 -44 -3 45 c-2 34 1 48 15 59 16 12 13 13 -31 14 -47 0 -48 -1 -33 -18z m295 -35 c3 -40 1 -42 -27 -27 -27 14 -33 37 -14 55 23 23 38 13 41 -28z"/>
<path d="M5085 4895 c-34 -33 -35 -102 -2 -133 33 -31 90 -30 122 3 32 31 34 91 4 129 -28 36 -89 37 -124 1z m84 -11 c42 -54 13 -159 -35 -126 -34 23 -46 109 -18 136 21 22 29 20 53 -10z"/>
<path d="M5458 4913 c-22 -6 -23 -19 -3 -27 23 -8 21 -182 -2 -208 -15 -17 -14 -18 32 -18 46 0 47 1 32 18 -10 10 -17 28 -17 40 0 19 6 22 39 22 31 0 44 6 60 26 25 32 28 100 5 132 -17 25 -71 31 -92 10 -9 -9 -12 -9 -12 0 0 12 -11 13 -42 5z m123 -62 c12 -29 -5 -87 -28 -95 -48 -19 -76 97 -31 128 25 18 44 8 59 -33z"/>
<path d="M5672 4908 c-17 -17 -15 -48 3 -48 8 0 15 6 15 14 0 7 6 19 14 25 11 9 18 8 30 -4 23 -24 21 -28 -35 -52 -49 -22 -50 -23 -47 -60 3 -35 6 -38 36 -41 18 -2 40 2 48 9 11 9 14 9 14 0 0 -16 52 -10 58 7 2 6 -3 12 -12 12 -12 0 -16 15 -18 73 l-3 72 -45 3 c-26 2 -50 -2 -58 -10z m78 -96 c0 -37 -44 -62 -59 -34 -11 21 -5 34 24 50 30 17 35 15 35 -16z"/>
<path d="M5810 4895 c0 -14 5 -25 10 -25 6 0 10 6 10 14 0 13 20 26 41 26 5 0 9 -30 9 -67 0 -48 -5 -72 -17 -85 -15 -17 -14 -18 33 -18 38 1 45 3 32 11 -25 14 -27 165 -2 155 9 -3 20 -6 25 -6 5 0 9 -7 9 -15 0 -8 5 -15 10 -15 6 0 10 11 10 25 0 25 -1 25 -85 25 -84 0 -85 0 -85 -25z"/>
<path d="M6003 4902 c12 -13 17 -36 17 -72 0 -36 -5 -59 -17 -72 -15 -17 -14 -18 32 -18 46 0 47 1 32 18 -10 10 -17 31 -17 45 0 25 3 27 40 27 37 0 40 -2 40 -27 0 -14 -7 -35 -17 -45 -15 -17 -14 -18 32 -18 46 0 47 1 32 18 -12 13 -17 36 -17 72 0 36 5 59 17 72 15 17 14 18 -32 18 -46 0 -47 -1 -32 -18 10 -10 17 -28 17 -40 0 -19 -6 -22 -40 -22 -34 0 -40 3 -40 22 0 12 7 30 17 40 15 17 14 18 -32 18 -46 0 -47 -1 -32 -18z"/>
<path d="M6225 4895 c-34 -33 -35 -102 -2 -133 33 -31 90 -30 122 3 32 31 34 91 4 129 -28 36 -89 37 -124 1z m84 -11 c42 -54 13 -159 -35 -126 -34 23 -46 109 -18 136 21 22 29 20 53 -10z"/>
<path d="M6403 4902 c12 -13 17 -36 17 -72 0 -36 -5 -59 -17 -72 -15 -17 -14 -18 33 -17 27 0 43 3 37 6 -21 8 -15 25 22 72 l35 44 0 -43 c0 -26 -7 -51 -17 -62 -15 -17 -14 -18 31 -18 43 0 46 1 32 16 -23 23 -22 132 2 150 15 12 11 13 -32 14 -42 0 -47 -2 -36 -15 10 -12 6 -23 -21 -59 l-34 -44 -3 45 c-2 34 1 48 15 59 16 12 13 13 -31 14 -47 0 -48 -1 -33 -18z"/>
<path d="M6703 4902 c12 -13 17 -36 17 -72 0 -36 -5 -59 -17 -72 -15 -17 -14 -18 31 -18 43 0 46 1 32 16 -12 11 -16 35 -16 85 l0 69 40 0 40 0 0 -67 c0 -48 -5 -72 -17 -85 -15 -17 -14 -18 31 -18 43 0 46 1 32 16 -23 23 -22 132 2 150 14 11 2 13 -87 14 -100 0 -103 -1 -88 -18z"/>
<path d="M6925 4895 c-34 -33 -35 -102 -2 -133 33 -31 90 -30 122 3 32 31 34 91 4 129 -28 36 -89 37 -124 1z m84 -11 c42 -54 13 -159 -35 -126 -34 23 -46 109 -18 136 21 22 29 20 53 -10z"/>
<path d="M7122 4897 c-30 -31 -31 -108 -2 -137 40 -40 130 -17 130 33 0 22 -6 21 -30 -3 -25 -25 -32 -25 -61 -1 -30 24 -32 87 -4 107 20 15 45 3 45 -22 0 -8 9 -14 20 -14 23 0 27 29 8 48 -21 21 -82 14 -106 -11z"/>
<path d="M7303 4902 c30 -33 19 -132 -14 -132 -11 0 -19 -7 -19 -15 0 -20 46 -20 54 1 3 9 6 47 6 85 l0 69 30 0 30 0 0 -67 c0 -48 -5 -72 -17 -85 -15 -17 -14 -18 31 -18 43 0 46 1 32 16 -23 23 -22 132 2 150 14 11 5 13 -67 14 -81 0 -83 -1 -68 -18z"/>
<path d="M7492 4897 c-30 -31 -31 -108 -2 -137 40 -40 130 -17 130 33 0 22 -6 21 -30 -3 -11 -11 -24 -20 -29 -20 -16 0 -49 34 -56 58 -6 21 -4 22 54 22 53 0 61 3 61 18 0 51 -89 71 -128 29z m69 -35 c-11 -2 -31 -2 -43 0 l-23 3 24 24 24 24 20 -24 c19 -24 19 -24 -2 -27z"/>
<path d="M7660 4910 c0 -5 4 -10 9 -10 28 0 11 -113 -20 -133 -13 -8 -19 -23 -19 -46 l0 -34 26 28 c22 24 31 27 71 22 33 -3 52 -12 64 -28 l19 -24 0 31 c0 17 -7 37 -15 44 -21 18 -20 118 2 142 15 17 13 18 -60 18 -45 0 -77 -4 -77 -10z m90 -64 c0 -84 -5 -96 -42 -96 -25 0 -29 3 -23 18 5 9 10 45 13 80 4 57 6 62 28 62 23 0 24 -3 24 -64z"/>
<path d="M7855 4895 c-34 -33 -35 -102 -2 -133 33 -31 90 -30 122 3 32 31 34 91 4 129 -28 36 -89 37 -124 1z m84 -11 c42 -54 13 -159 -35 -126 -34 23 -46 109 -18 136 21 22 29 20 53 -10z"/>
<path d="M8033 4902 c12 -13 17 -36 17 -72 0 -36 -5 -59 -17 -72 -15 -17 -13 -18 58 -18 45 0 80 5 87 12 18 18 15 65 -5 77 -10 6 -12 11 -5 11 15 0 16 52 0 68 -7 7 -41 12 -82 12 -66 0 -68 -1 -53 -18z m109 -15 c9 -13 -26 -47 -48 -47 -9 0 -14 12 -14 36 0 34 1 36 27 29 15 -3 31 -12 35 -18z m6 -85 c11 -14 10 -20 -9 -35 -34 -27 -53 -18 -57 27 -3 38 -3 38 25 32 15 -4 34 -15 41 -24z"/>
<path d="M8232 4908 c-17 -17 -15 -48 3 -48 8 0 15 6 15 14 0 7 6 19 14 25 11 9 18 8 30 -4 23 -24 21 -28 -35 -52 -49 -22 -50 -23 -47 -60 3 -35 6 -38 36 -41 18 -2 40 2 48 9 11 9 14 9 14 0 0 -16 52 -10 58 7 2 6 -3 12 -12 12 -12 0 -16 15 -18 73 l-3 72 -45 3 c-26 2 -50 -2 -58 -10z m78 -96 c0 -37 -44 -62 -59 -34 -11 21 -5 34 24 50 30 17 35 15 35 -16z"/>
<path d="M8380 4895 c0 -14 5 -25 10 -25 6 0 10 6 10 14 0 13 20 26 41 26 5 0 9 -30 9 -67 0 -48 -5 -72 -17 -85 -15 -17 -14 -18 33 -18 38 1 45 3 32 11 -25 14 -27 165 -2 155 9 -3 20 -6 25 -6 5 0 9 -7 9 -15 0 -8 5 -15 10 -15 6 0 10 -20 10 -45 0 -58 25 -85 78 -85 41 0 72 23 72 53 0 22 -6 21 -30 -3 -11 -11 -24 -20 -29 -20 -16 0 -49 34 -56 58 -6 21 -4 22 54 22 53 0 61 3 61 18 0 50 -85 70 -127 30 l-23 -21 0 21 c0 21 -4 22 -85 22 -84 0 -85 0 -85 -25z m261 -33 c-11 -2 -31 -2 -43 0 l-23 3 24 24 24 24 20 -24 c19 -24 19 -24 -2 -27z"/>
<path d="M8763 4902 c30 -33 19 -132 -14 -132 -11 0 -19 -7 -19 -15 0 -20 46 -20 54 1 3 9 6 47 6 85 l0 69 30 0 30 0 0 -67 c0 -48 -5 -72 -17 -85 -15 -17 -14 -18 31 -18 43 0 46 1 32 16 -23 23 -22 132 2 150 14 11 5 13 -67 14 -81 0 -83 -1 -68 -18z"/>
<path d="M8933 4902 c12 -13 17 -36 17 -72 0 -36 -5 -59 -17 -72 -15 -17 -13 -18 53 -18 76 0 94 9 94 50 0 36 -17 50 -62 50 -34 0 -38 2 -38 26 0 15 8 33 18 40 15 12 11 13 -32 14 -47 0 -48 -1 -33 -18z m98 -92 l24 -20 -24 -20 c-32 -27 -45 -21 -49 23 -4 43 12 49 49 17z"/>
<path d="M9113 4902 c12 -13 17 -36 17 -72 0 -36 -5 -59 -17 -72 -15 -17 -14 -18 32 -18 46 0 47 1 32 18 -10 10 -17 31 -17 45 0 25 3 27 40 27 37 0 40 -2 40 -27 0 -14 -7 -35 -17 -45 -15 -17 -14 -18 32 -18 46 0 47 1 32 18 -12 13 -17 36 -17 72 0 36 5 59 17 72 15 17 14 18 -32 18 -46 0 -47 -1 -32 -18 10 -10 17 -28 17 -40 0 -19 -6 -22 -40 -22 -34 0 -40 3 -40 22 0 12 7 30 17 40 15 17 14 18 -32 18 -46 0 -47 -1 -32 -18z"/>
<path d="M9335 4895 c-34 -33 -35 -102 -2 -133 33 -31 90 -30 122 3 32 31 34 91 4 129 -28 36 -89 37 -124 1z m84 -11 c42 -54 13 -159 -35 -126 -34 23 -46 109 -18 136 21 22 29 20 53 -10z"/>
<path d="M9522 4897 c-30 -31 -31 -108 -2 -137 40 -40 130 -17 130 33 0 22 -6 21 -30 -3 -25 -25 -32 -25 -61 -1 -30 24 -32 87 -4 107 20 15 45 3 45 -22 0 -8 9 -14 20 -14 23 0 27 29 8 48 -21 21 -82 14 -106 -11z"/>
<path d="M9660 4895 c0 -14 5 -25 10 -25 6 0 10 6 10 14 0 13 20 26 41 26 5 0 9 -30 9 -67 0 -48 -5 -72 -17 -85 -15 -17 -14 -18 33 -18 38 1 45 3 32 11 -25 14 -27 165 -2 155 9 -3 20 -6 25 -6 5 0 9 -7 9 -15 0 -8 5 -15 10 -15 6 0 10 11 10 25 0 25 -1 25 -85 25 -84 0 -85 0 -85 -25z"/>
<path d="M9853 4902 c12 -13 17 -36 17 -72 0 -36 -5 -59 -17 -72 -15 -17 -14 -18 33 -17 27 0 43 3 37 6 -21 8 -15 25 22 72 l35 44 0 -43 c0 -26 -7 -51 -17 -62 -15 -17 -14 -18 31 -18 43 0 46 1 32 16 -23 23 -22 132 2 150 15 12 11 13 -32 14 -42 0 -47 -2 -36 -15 10 -12 6 -23 -21 -59 l-34 -44 -3 45 c-2 34 1 48 15 59 16 12 13 13 -31 14 -47 0 -48 -1 -33 -18z"/>
<path d="M200 3890 l0 -310 5970 0 5970 0 0 310 0 310 -5970 0 -5970 0 0 -310z m8330 0 l0 -290 -4155 0 -4155 0 0 290 0 290 4155 0 4155 0 0 -290z m3580 0 l0 -290 -1780 0 -1780 0 0 290 0 290 1780 0 1780 0 0 -290z"/>
<path d="M1978 3973 c-49 -52 -59 -105 -32 -173 16 -40 69 -88 82 -75 4 4 0 12 -9 18 -29 21 -39 55 -39 126 0 60 3 74 26 100 33 40 9 42 -28 4z"/>
<path d="M4960 3995 c0 -3 9 -19 21 -34 18 -25 21 -40 17 -111 -2 -65 -7 -85 -22 -95 -10 -8 -16 -19 -14 -25 7 -21 66 44 78 87 17 55 6 106 -32 148 -27 31 -48 44 -48 30z"/>
<path d="M370 3980 c0 -5 7 -10 15 -10 12 0 15 -15 15 -79 0 -74 2 -81 26 -100 37 -29 89 -27 119 4 22 21 25 33 25 100 0 60 3 75 15 75 8 0 15 5 15 10 0 6 -18 10 -40 10 -40 0 -53 -13 -25 -24 25 -9 21 -130 -5 -156 -24 -24 -38 -25 -68 -4 -19 13 -22 24 -22 90 0 59 3 74 15 74 8 0 15 5 15 10 0 6 -22 10 -50 10 -27 0 -50 -4 -50 -10z"/>
<path d="M1392 3965 c-44 -55 -33 -155 21 -185 24 -13 30 -13 55 0 76 43 54 210 -28 210 -19 0 -35 -9 -48 -25z m77 -26 c22 -62 5 -149 -29 -149 -20 0 -40 45 -40 90 0 45 20 90 40 90 11 0 22 -12 29 -31z"/>
<path d="M1666 3971 c-39 -26 -55 -57 -56 -109 0 -33 6 -49 25 -67 49 -49 115 -19 115 53 0 47 -14 62 -57 62 -18 0 -33 4 -33 8 0 13 42 50 70 61 l25 10 -30 0 c-16 1 -43 -8 -59 -18z m45 -108 c18 -48 -20 -96 -48 -60 -14 17 -23 56 -16 73 10 25 52 17 64 -13z"/>
<path d="M1792 3974 c-12 -8 -22 -25 -21 -37 l0 -22 16 23 c17 24 42 29 61 10 23 -23 12 -58 -33 -107 -25 -26 -45 -51 -45 -55 0 -3 29 -6 65 -6 59 0 67 2 74 23 10 26 5 35 -11 19 -7 -7 -28 -12 -47 -12 l-35 0 31 33 c56 59 67 101 35 130 -23 21 -61 22 -90 1z"/>
<path d="M2040 3980 c0 -5 7 -10 15 -10 12 0 15 -15 15 -79 0 -74 2 -81 26 -100 37 -29 89 -27 119 4 22 21 25 33 25 100 0 60 3 75 15 75 8 0 15 5 15 10 0 6 -18 10 -40 10 -40 0 -53 -13 -25 -24 25 -9 21 -130 -5 -156 -24 -24 -38 -25 -68 -4 -19 13 -22 24 -22 90 0 59 3 74 15 74 8 0 15 5 15 10 0 6 -22 10 -50 10 -27 0 -50 -4 -50 -10z"/>
<path d="M3560 3980 c0 -5 7 -10 15 -10 12 0 15 -15 15 -79 0 -74 2 -81 26 -100 37 -29 89 -27 119 4 22 21 25 33 25 100 0 60 3 75 15 75 8 0 15 5 15 10 0 6 -18 10 -40 10 -40 0 -53 -13 -25 -24 25 -9 21 -130 -5 -156 -24 -24 -38 -25 -68 -4 -19 13 -22 24 -22 90 0 59 3 74 15 74 8 0 15 5 15 10 0 6 -22 10 -50 10 -27 0 -50 -4 -50 -10z"/>
<path d="M1132 3908 c-7 -7 -12 -19 -12 -27 0 -13 2 -13 17 1 15 15 19 15 45 2 16 -8 41 -14 55 -12 28 3 53 32 39 45 -4 4 -12 0 -17 -10 -9 -15 -13 -16 -46 -2 -43 18 -65 19 -81 3z"/>
<path d="M684 3862 c-52 -41 -60 -121 -18 -171 30 -35 53 -42 30 -9 -22 31 -21 136 0 166 20 29 15 35 -12 14z"/>
<path d="M930 3874 c0 -4 8 -12 17 -19 11 -8 18 -32 21 -74 4 -53 1 -67 -18 -93 -20 -27 -20 -29 -4 -26 10 2 29 19 42 38 32 47 26 109 -14 151 -26 28 -44 37 -44 23z"/>
<path d="M2380 3871 c0 -6 4 -12 9 -16 10 -5 -17 -95 -38 -132 -10 -17 -10 -17 -11 0 0 9 -7 17 -15 17 -8 0 -15 -9 -15 -20 0 -15 7 -20 25 -20 27 0 41 22 69 108 15 44 21 52 42 52 13 0 24 -4 24 -8 0 -25 -43 -129 -57 -139 -14 -11 -10 -13 28 -13 30 0 40 3 30 9 -13 8 -12 18 4 70 10 34 24 66 32 72 26 22 12 29 -57 29 -38 0 -70 -4 -70 -9z"/>
<path d="M2610 3871 c0 -5 5 -11 11 -13 14 -5 -17 -114 -39 -140 -14 -17 -12 -18 24 -18 26 0 34 3 25 9 -11 7 -11 15 -1 45 10 32 15 36 47 36 28 0 34 -3 29 -16 -3 -9 -6 -20 -6 -25 0 -5 -9 -18 -20 -29 l-20 -20 66 0 c43 0 63 4 59 10 -11 18 15 40 46 40 32 0 37 -11 13 -34 -14 -15 -12 -16 22 -16 30 0 34 2 25 14 -8 10 -10 39 -6 93 l6 78 -23 -26 c-13 -14 -44 -53 -70 -87 -27 -34 -55 -62 -63 -62 -19 0 -19 2 4 74 10 33 26 65 35 71 25 19 19 25 -24 25 -37 0 -55 -13 -29 -22 6 -2 8 -14 4 -31 -6 -23 -13 -27 -41 -27 -40 0 -45 19 -14 50 27 27 26 30 -20 30 -22 0 -40 -4 -40 -9z m250 -76 c0 -19 -5 -25 -20 -25 -20 0 -20 1 -3 25 22 30 23 30 23 0z"/>
<path d="M2950 3871 c0 -5 4 -11 10 -13 13 -4 -18 -117 -38 -140 -14 -17 -12 -18 24 -18 27 0 35 3 25 9 -18 11 -7 26 50 72 l39 30 -15 -43 c-9 -24 -23 -49 -32 -55 -14 -11 2 -13 89 -13 93 0 107 2 123 20 26 29 10 74 -28 78 -29 4 -30 5 -21 40 8 29 54 32 54 2 0 -24 15 -27 24 -4 15 38 8 44 -53 44 -54 0 -88 -13 -60 -22 12 -4 -15 -110 -34 -135 -9 -13 -47 -18 -47 -7 0 20 35 122 46 135 21 24 17 29 -21 29 -32 0 -48 -14 -25 -22 6 -2 -12 -26 -40 -53 l-51 -50 16 45 c8 24 23 52 32 62 15 17 14 18 -25 18 -23 0 -42 -4 -42 -9z m255 -122 c0 -17 -8 -26 -27 -33 -36 -13 -42 -5 -28 38 10 30 14 34 33 27 14 -5 22 -17 22 -32z"/>
<path d="M3900 3871 c0 -6 4 -12 9 -16 10 -5 -17 -95 -38 -132 -10 -17 -10 -17 -11 0 0 9 -7 17 -15 17 -8 0 -15 -9 -15 -20 0 -15 7 -20 25 -20 27 0 41 22 69 108 15 44 21 52 42 52 13 0 24 -4 24 -8 0 -25 -43 -129 -57 -139 -14 -11 -10 -13 28 -13 30 0 40 3 30 9 -13 8 -12 18 4 70 10 34 24 66 32 72 26 22 12 29 -57 29 -38 0 -70 -4 -70 -9z"/>
<path d="M4120 3871 c0 -5 5 -11 11 -13 14 -5 -17 -114 -39 -140 -14 -17 -12 -18 24 -18 26 0 34 3 25 9 -11 7 -11 15 -1 45 10 32 15 36 47 36 28 0 34 -3 29 -16 -3 -9 -6 -20 -6 -25 0 -5 -9 -18 -20 -29 l-20 -20 43 0 c27 0 37 3 29 9 -12 7 -11 19 4 67 9 33 26 66 36 76 26 24 23 28 -22 28 -37 0 -55 -13 -29 -22 6 -2 8 -14 4 -31 -6 -23 -13 -27 -41 -27 -40 0 -45 19 -14 50 27 27 26 30 -20 30 -22 0 -40 -4 -40 -9z"/>
<path d="M4354 3818 c-26 -35 -59 -75 -72 -90 l-26 -28 28 0 c16 0 25 4 21 10 -11 18 15 40 46 40 32 0 37 -11 13 -34 -14 -15 -12 -16 22 -16 30 0 34 2 25 14 -8 10 -10 38 -5 90 4 42 4 76 1 76 -3 0 -27 -28 -53 -62z m26 -23 c0 -19 -5 -25 -20 -25 -20 0 -20 1 -3 25 22 30 23 30 23 0z"/>
<path d="M4470 3871 c0 -5 4 -11 10 -13 13 -4 -18 -117 -38 -140 -14 -17 -12 -18 24 -18 27 0 35 3 25 9 -18 11 -7 26 50 72 l39 30 -15 -43 c-9 -24 -23 -49 -32 -55 -14 -11 -4 -13 58 -13 41 0 68 4 62 8 -10 6 -10 17 1 53 14 46 20 42 31 -23 3 -21 10 -38 15 -38 4 0 27 23 50 50 24 28 44 49 47 46 7 -6 -26 -79 -40 -88 -7 -4 5 -8 28 -8 28 0 36 3 28 11 -13 13 21 127 43 145 19 15 18 24 -3 24 -10 0 -45 -33 -77 -72 -66 -79 -67 -79 -81 18 l-7 52 -59 1 c-32 0 -59 -3 -59 -8 0 -5 5 -11 10 -13 6 -2 -12 -26 -40 -53 l-51 -50 16 45 c8 24 23 52 32 62 15 17 14 18 -25 18 -23 0 -42 -4 -42 -9z m185 -43 c-13 -59 -31 -102 -48 -112 -26 -17 -29 -2 -11 60 18 66 30 84 51 84 11 0 13 -7 8 -32z"/>
<path d="M3360 3860 c0 -6 35 -10 85 -10 50 0 85 4 85 10 0 6 -35 10 -85 10 -50 0 -85 -4 -85 -10z"/>
<path d="M776 3838 c-20 -28 -12 -36 14 -13 16 14 22 15 35 5 24 -20 18 -37 -27 -86 l-42 -45 60 3 c50 3 59 6 62 23 3 16 1 18 -9 8 -7 -7 -24 -13 -37 -13 -23 0 -23 0 7 37 47 57 38 103 -20 103 -17 0 -34 -8 -43 -22z"/>
<path d="M1132 3848 c-7 -7 -12 -19 -12 -27 0 -13 2 -13 17 1 15 15 19 15 45 2 16 -8 41 -14 55 -12 28 3 53 32 39 45 -4 4 -12 0 -17 -10 -9 -15 -13 -16 -46 -2 -43 18 -65 19 -81 3z"/>
<path d="M5200 3841 c0 -11 8 -24 17 -30 14 -8 15 -11 4 -25 -21 -25 -5 -30 19 -6 31 31 24 74 -12 78 -22 3 -28 -1 -28 -17z"/>
<path d="M1534 3815 c-10 -25 4 -47 28 -43 17 2 24 11 26 31 3 23 0 27 -23 27 -14 0 -28 -7 -31 -15z"/>
<path d="M11600 4073 c-43 -36 -60 -79 -60 -151 0 -46 6 -67 26 -98 27 -41 61 -70 72 -60 3 3 -4 16 -15 29 -35 37 -43 63 -43 131 0 72 11 110 42 143 32 34 16 38 -22 6z"/>
<path d="M11712 4011 c-34 -50 -62 -97 -62 -105 0 -13 12 -16 55 -16 54 0 55 0 55 -30 0 -23 4 -30 20 -30 16 0 20 7 20 30 0 23 4 30 20 30 11 0 20 7 20 15 0 8 -9 15 -20 15 -19 0 -20 7 -20 90 0 67 -3 90 -13 90 -7 0 -41 -40 -75 -89z m45 -88 c-3 -2 -21 -3 -41 -1 l-37 3 38 54 38 54 3 -52 c2 -29 1 -55 -1 -58z"/>
<path d="M11860 4094 c0 -3 11 -19 25 -35 30 -36 39 -79 33 -164 -3 -55 -8 -69 -33 -95 -33 -34 -29 -49 7 -26 38 25 69 89 70 145 0 61 -8 87 -39 128 -23 31 -63 61 -63 47z"/>
<path d="M3828 3023 c-22 -6 -23 -19 -3 -27 8 -3 15 -18 15 -34 0 -26 -2 -28 -34 -24 -44 5 -66 -25 -66 -88 0 -61 21 -90 66 -90 28 0 34 -4 34 -22 0 -12 -7 -30 -17 -40 -15 -17 -14 -18 33 -18 38 1 45 3 32 11 -11 6 -18 22 -18 39 0 26 4 30 29 30 39 0 61 32 61 90 0 61 -23 93 -61 88 -29 -4 -29 -4 -29 44 0 49 -3 51 -42 41z m-4 -109 c24 -24 22 -120 -3 -133 -14 -8 -22 -7 -32 6 -18 20 -17 106 0 127 16 20 16 20 35 0z m100 -62 c1 -56 -18 -89 -40 -71 -18 14 -19 120 -2 137 21 21 41 -11 42 -66z"/>
<path d="M4078 3023 c-22 -6 -23 -19 -3 -27 8 -3 15 -18 15 -34 0 -26 -2 -28 -34 -24 -44 5 -66 -25 -66 -88 0 -61 21 -90 66 -90 28 0 34 -4 34 -22 0 -12 -7 -30 -17 -40 -15 -17 -14 -18 33 -18 38 1 45 3 32 11 -11 6 -18 22 -18 39 0 26 4 30 29 30 39 0 61 32 61 90 0 61 -23 93 -61 88 -29 -4 -29 -4 -29 44 0 49 -3 51 -42 41z m-4 -109 c24 -24 22 -120 -3 -133 -14 -8 -22 -7 -32 6 -18 20 -17 106 0 127 16 20 16 20 35 0z m100 -62 c1 -56 -18 -89 -40 -71 -18 14 -19 120 -2 137 21 21 41 -11 42 -66z"/>
<path d="M11826 3021 c-68 -8 -89 -38 -94 -134 -3 -62 -1 -76 18 -99 17 -23 29 -28 65 -28 35 0 48 5 64 26 47 60 13 154 -55 154 -20 0 -44 -5 -55 -10 -24 -13 -25 1 -1 30 11 14 33 23 62 27 45 6 70 18 70 34 0 5 -6 8 -12 7 -7 0 -35 -4 -62 -7z m4 -101 c40 -21 46 -121 9 -141 -59 -31 -108 107 -50 141 20 12 19 12 41 0z"/>
<path d="M12892 2988 c2 -18 11 -24 37 -26 51 -5 81 5 81 28 0 26 -21 25 -44 -2 l-19 -22 -15 22 c-19 29 -44 29 -40 0z"/>
<path d="M587 2922 c-23 -25 -22 -85 1 -105 25 -23 85 -22 105 1 21 23 22 71 1 100 -20 28 -83 31 -107 4z"/>
<path d="M1068 2933 c-22 -6 -23 -19 -3 -27 23 -8 21 -182 -2 -208 -15 -17 -14 -18 32 -18 46 0 47 1 32 18 -10 10 -17 28 -17 40 0 19 6 22 39 22 31 0 44 6 60 26 25 32 28 100 5 132 -17 25 -71 31 -92 10 -9 -9 -12 -9 -12 0 0 12 -11 13 -42 5z m123 -62 c12 -29 -5 -87 -28 -95 -48 -19 -76 97 -31 128 25 18 44 8 59 -33z"/>
<path d="M1282 2928 c-17 -17 -15 -48 3 -48 8 0 15 6 15 14 0 7 6 19 14 25 11 9 18 8 30 -4 23 -24 21 -28 -35 -52 -49 -22 -50 -23 -47 -60 3 -35 6 -38 36 -41 18 -2 40 2 48 9 11 9 14 9 14 0 0 -16 52 -10 58 7 2 6 -3 12 -12 12 -12 0 -16 15 -18 73 l-3 72 -45 3 c-26 2 -50 -2 -58 -10z m78 -96 c0 -37 -44 -62 -59 -34 -11 21 -5 34 24 50 30 17 35 15 35 -16z"/>
<path d="M1452 2917 c-30 -31 -31 -108 -2 -137 40 -40 130 -17 130 33 0 22 -6 21 -30 -3 -25 -25 -32 -25 -61 -1 -30 24 -32 87 -4 107 20 15 45 3 45 -22 0 -8 9 -14 20 -14 23 0 27 29 8 48 -21 21 -82 14 -106 -11z"/>
<path d="M1632 2917 c-30 -31 -31 -108 -2 -137 40 -40 130 -17 130 33 0 22 -6 21 -30 -3 -25 -25 -32 -25 -61 -1 -30 24 -32 87 -4 107 20 15 45 3 45 -22 0 -8 9 -14 20 -14 23 0 27 29 8 48 -21 21 -82 14 -106 -11z"/>
<path d="M1783 2922 c10 -11 17 -35 17 -57 l0 -38 50 5 c45 5 50 3 50 -15 0 -11 -7 -29 -17 -39 -15 -17 -14 -18 32 -18 46 0 47 1 32 18 -24 27 -24 130 1 148 15 12 11 13 -32 14 -47 0 -48 -1 -33 -18 24 -26 21 -58 -5 -65 -43 -12 -63 30 -31 65 15 17 14 18 -32 18 -46 0 -47 -1 -32 -18z"/>
<path d="M1983 2922 c12 -13 17 -36 17 -72 0 -36 -5 -59 -17 -72 -15 -17 -14 -18 33 -17 27 0 43 3 37 6 -21 8 -15 25 22 72 l35 44 0 -43 c0 -26 -7 -51 -17 -62 -15 -17 -14 -18 31 -18 43 0 46 1 32 16 -22 21 -23 139 -1 148 10 4 15 -1 15 -14 0 -11 5 -20 10 -20 6 0 10 6 10 14 0 13 20 26 41 26 5 0 9 -30 9 -67 0 -48 -5 -72 -17 -85 -15 -17 -14 -18 33 -18 38 1 45 3 32 11 -25 14 -27 165 -2 155 9 -3 20 -6 25 -6 5 0 9 -7 9 -15 0 -8 5 -15 10 -15 6 0 10 11 10 25 l0 25 -131 0 c-116 0 -130 -2 -119 -15 10 -12 6 -23 -21 -59 l-34 -44 -3 45 c-2 34 1 48 15 59 16 12 13 13 -31 14 -47 0 -48 -1 -33 -18z"/>
<path d="M2372 2928 c-17 -17 -15 -48 3 -48 8 0 15 6 15 14 0 7 6 19 14 25 11 9 18 8 30 -4 23 -24 21 -28 -35 -52 -49 -22 -50 -23 -47 -60 3 -35 6 -38 36 -41 18 -2 40 2 48 9 11 9 14 9 14 0 0 -16 52 -10 58 7 2 6 -3 12 -12 12 -12 0 -16 15 -18 73 l-3 72 -45 3 c-26 2 -50 -2 -58 -10z m78 -96 c0 -37 -44 -62 -59 -34 -11 21 -5 34 24 50 30 17 35 15 35 -16z"/>
<path d="M2520 2915 c0 -14 5 -25 10 -25 6 0 10 6 10 14 0 13 20 26 41 26 5 0 9 -30 9 -67 0 -48 -5 -72 -17 -85 -15 -17 -14 -18 33 -18 38 1 45 3 32 11 -25 14 -27 165 -2 155 9 -3 20 -6 25 -6 5 0 9 -7 9 -15 0 -8 5 -15 10 -15 6 0 10 11 10 25 0 25 -1 25 -85 25 -84 0 -85 0 -85 -25z"/>
<path d="M2713 2922 c12 -13 17 -36 17 -72 0 -36 -5 -59 -17 -72 -15 -17 -13 -18 53 -18 76 0 94 9 94 50 0 36 -17 50 -62 50 -34 0 -38 2 -38 26 0 15 8 33 18 40 15 12 11 13 -32 14 -47 0 -48 -1 -33 -18z m98 -92 l24 -20 -24 -20 c-32 -27 -45 -21 -49 23 -4 43 12 49 49 17z"/>
<path d="M3193 2922 c12 -13 17 -36 17 -72 0 -36 -5 -59 -17 -72 -15 -17 -14 -18 32 -18 47 0 48 1 31 19 -10 11 -16 31 -14 48 3 27 4 27 31 -19 24 -42 32 -48 60 -48 27 1 30 3 17 13 -8 7 -26 27 -39 46 -19 27 -22 39 -15 60 6 16 18 27 32 29 31 5 28 32 -3 32 -19 0 -29 -9 -42 -35 -9 -19 -22 -36 -30 -39 -20 -8 -16 44 5 60 15 12 11 13 -32 14 -47 0 -48 -1 -33 -18z"/>
<path d="M3395 2915 c-34 -33 -35 -102 -2 -133 33 -31 90 -30 122 3 32 31 34 91 4 129 -28 36 -89 37 -124 1z m84 -11 c42 -54 13 -159 -35 -126 -34 23 -46 109 -18 136 21 22 29 20 53 -10z"/>
<path d="M3580 2910 c0 -16 5 -30 10 -30 6 0 10 7 10 15 0 25 34 36 58 19 32 -22 28 -52 -5 -57 -26 -4 -26 -4 5 -6 17 0 32 -3 32 -5 0 -1 -5 -17 -11 -34 -13 -39 -33 -46 -72 -27 -35 18 -51 10 -23 -11 11 -8 37 -14 57 -14 49 0 79 36 79 95 0 58 -30 85 -93 85 -46 0 -47 -1 -47 -30z"/>
<path d="M4243 2922 c12 -13 17 -36 17 -72 0 -36 -5 -59 -17 -72 -15 -17 -14 -18 33 -17 27 0 43 3 37 6 -21 8 -15 25 22 72 l35 44 0 -43 c0 -26 -7 -51 -17 -62 -15 -17 -14 -18 31 -18 43 0 46 1 32 16 -23 23 -22 132 2 150 15 12 11 13 -32 14 -42 0 -47 -2 -36 -15 10 -12 6 -23 -21 -59 l-34 -44 -3 45 c-2 34 1 48 15 59 16 12 13 13 -31 14 -47 0 -48 -1 -33 -18z"/>
<path d="M4453 2922 c23 -26 23 -124 0 -143 -14 -12 -6 -15 66 -19 73 -5 85 -9 102 -30 l19 -25 0 28 c0 16 -7 35 -15 43 -22 23 -21 133 3 150 15 12 11 13 -32 14 -47 0 -48 -1 -33 -18 18 -20 24 -116 8 -140 -5 -8 -21 -12 -37 -10 -28 3 -29 4 -32 72 -2 56 0 70 15 82 16 12 13 13 -31 14 -47 0 -48 -1 -33 -18z"/>
<path d="M4663 2922 c12 -13 17 -36 17 -72 0 -36 -5 -59 -17 -72 -15 -17 -14 -18 33 -17 27 0 43 3 37 6 -21 8 -15 25 22 72 l35 44 0 -43 c0 -26 -7 -51 -17 -62 -15 -17 -14 -18 31 -18 43 0 46 1 32 16 -23 23 -22 132 2 150 15 12 11 13 -32 14 -42 0 -47 -2 -36 -15 10 -12 6 -23 -21 -59 l-34 -44 -3 45 c-2 34 1 48 15 59 16 12 13 13 -31 14 -47 0 -48 -1 -33 -18z"/>
<path d="M4882 2917 c-30 -31 -31 -108 -2 -137 40 -40 130 -17 130 33 0 22 -6 21 -30 -3 -11 -11 -24 -20 -29 -20 -16 0 -49 34 -56 58 -6 21 -4 22 54 22 53 0 61 3 61 18 0 51 -89 71 -128 29z m69 -35 c-11 -2 -31 -2 -43 0 l-23 3 24 24 24 24 20 -24 c19 -24 19 -24 -2 -27z"/>
<path d="M5043 2922 c12 -13 17 -36 17 -72 0 -36 -5 -59 -17 -72 -15 -17 -14 -18 32 -18 46 0 47 1 32 18 -10 10 -17 31 -17 45 0 25 3 27 40 27 37 0 40 -2 40 -27 0 -14 -7 -35 -17 -45 -15 -17 -14 -18 32 -18 46 0 47 1 32 18 -22 24 -23 124 -2 142 13 10 15 9 15 -9 0 -11 5 -21 10 -21 6 0 10 6 10 14 0 13 20 26 41 26 5 0 9 -30 9 -67 0 -48 -5 -72 -17 -85 -15 -17 -14 -18 33 -18 38 1 45 3 32 11 -25 14 -27 165 -2 155 9 -3 20 -6 25 -6 5 0 9 -7 9 -15 0 -8 5 -15 10 -15 6 0 10 10 10 21 0 18 2 19 15 9 21 -18 20 -118 -2 -142 -15 -17 -13 -18 53 -18 76 0 94 9 94 50 0 36 -17 50 -62 50 -34 0 -38 2 -38 26 0 15 8 33 18 40 14 11 -11 13 -162 14 -173 0 -179 -1 -163 -18 10 -10 17 -28 17 -40 0 -19 -6 -22 -40 -22 -34 0 -40 3 -40 22 0 12 7 30 17 40 15 17 14 18 -32 18 -46 0 -47 -1 -32 -18z m468 -92 l24 -20 -24 -20 c-32 -27 -45 -21 -49 23 -4 43 12 49 49 17z"/>
<path d="M5573 2922 c12 -13 17 -36 17 -72 0 -36 -5 -59 -17 -72 -15 -17 -14 -18 32 -18 46 0 47 1 32 18 -24 27 -24 130 1 148 15 12 11 13 -32 14 -47 0 -48 -1 -33 -18z"/>
<path d="M5993 2922 c12 -13 17 -36 17 -72 0 -36 -5 -59 -17 -72 -15 -17 -14 -18 32 -18 46 0 47 1 32 18 -10 10 -17 31 -17 45 0 25 3 27 40 27 37 0 40 -2 40 -27 0 -14 -7 -35 -17 -45 -15 -17 -14 -18 32 -18 46 0 47 1 32 18 -12 13 -17 36 -17 72 0 36 5 59 17 72 15 17 14 18 -32 18 -46 0 -47 -1 -32 -18 10 -10 17 -28 17 -40 0 -19 -6 -22 -40 -22 -34 0 -40 3 -40 22 0 12 7 30 17 40 15 17 14 18 -32 18 -46 0 -47 -1 -32 -18z"/>
<path d="M6212 2917 c-30 -31 -31 -108 -2 -137 40 -40 130 -17 130 33 0 22 -6 21 -30 -3 -11 -11 -24 -20 -29 -20 -16 0 -49 34 -56 58 -6 21 -4 22 54 22 53 0 61 3 61 18 0 51 -89 71 -128 29z m69 -35 c-11 -2 -31 -2 -43 0 l-23 3 24 24 24 24 20 -24 c19 -24 19 -24 -2 -27z"/>
<path d="M6382 2917 c-30 -31 -31 -108 -2 -137 40 -40 130 -17 130 33 0 22 -6 21 -30 -3 -25 -25 -32 -25 -61 -1 -30 24 -32 87 -4 107 20 15 45 3 45 -22 0 -8 9 -14 20 -14 23 0 27 29 8 48 -21 21 -82 14 -106 -11z"/>
<path d="M6543 2922 c12 -13 17 -36 17 -72 0 -36 -5 -59 -17 -72 -15 -17 -14 -18 33 -17 27 0 43 3 37 6 -21 8 -15 25 22 72 l35 44 0 -43 c0 -26 -7 -51 -17 -62 -15 -17 -14 -18 31 -18 43 0 46 1 32 16 -23 23 -22 132 2 150 15 12 11 13 -32 14 -42 0 -47 -2 -36 -15 10 -12 6 -23 -21 -59 l-34 -44 -3 45 c-2 34 1 48 15 59 16 12 13 13 -31 14 -47 0 -48 -1 -33 -18z"/>
<path d="M6753 2922 c12 -13 17 -36 17 -72 0 -36 -5 -59 -17 -72 -15 -17 -14 -18 22 -18 36 0 37 1 22 18 -11 12 -17 35 -17 68 l1 49 35 -69 c20 -38 39 -65 44 -60 4 5 20 36 34 69 l25 60 1 -49 c0 -32 -6 -56 -17 -68 -15 -17 -13 -18 67 -18 80 0 82 1 67 18 -11 12 -17 35 -17 68 l1 49 35 -69 c20 -38 39 -65 44 -60 4 5 20 36 34 69 l25 60 1 -49 c0 -32 -6 -56 -17 -68 -15 -17 -14 -18 32 -18 46 0 47 1 32 18 -24 27 -24 130 1 148 15 12 13 13 -18 14 -34 0 -36 -2 -60 -61 l-24 -61 -30 61 -30 61 -66 0 -65 0 -25 -61 -24 -61 -30 61 c-28 57 -32 61 -65 61 -32 0 -33 -1 -18 -18z m245 -4 c18 -18 15 -123 -3 -138 -12 -10 -18 -10 -30 0 -19 16 -21 136 -2 143 19 8 22 8 35 -5z"/>
<path d="M7262 2917 c-30 -31 -31 -108 -2 -137 40 -40 130 -17 130 33 0 22 -6 21 -30 -3 -11 -11 -24 -20 -29 -20 -16 0 -49 34 -56 58 -6 21 -4 22 54 22 53 0 61 3 61 18 0 51 -89 71 -128 29z m69 -35 c-11 -2 -31 -2 -43 0 l-23 3 24 24 24 24 20 -24 c19 -24 19 -24 -2 -27z"/>
<path d="M7400 2915 c0 -14 5 -25 10 -25 6 0 10 6 10 14 0 13 20 26 41 26 5 0 9 -30 9 -67 0 -48 -5 -72 -17 -85 -15 -17 -14 -18 33 -18 38 1 45 3 32 11 -25 14 -27 165 -2 155 9 -3 20 -6 25 -6 5 0 9 -7 9 -15 0 -18 17 -20 22 -3 2 6 10 8 16 4 20 -12 16 -185 -5 -208 -15 -17 -14 -18 32 -18 46 0 47 1 32 18 -10 10 -17 28 -17 40 0 19 6 22 39 22 31 0 44 6 60 26 25 32 28 100 5 132 -17 25 -71 31 -92 10 -7 -7 -12 -8 -12 -2 0 6 -46 11 -115 13 l-115 2 0 -26z m311 -44 c12 -29 -5 -87 -28 -95 -48 -19 -76 97 -31 128 25 18 44 8 59 -33z"/>
<path d="M7783 2922 c12 -13 17 -36 17 -72 0 -36 -5 -59 -17 -72 -15 -17 -14 -18 33 -17 27 0 43 3 37 6 -21 8 -15 25 22 72 l35 44 0 -43 c0 -26 -7 -51 -17 -62 -15 -17 -14 -18 31 -18 43 0 46 1 32 16 -23 23 -22 132 2 150 15 12 11 13 -32 14 -42 0 -47 -2 -36 -15 10 -12 6 -23 -21 -59 l-34 -44 -3 45 c-2 34 1 48 15 59 16 12 13 13 -31 14 -47 0 -48 -1 -33 -18z"/>
<path d="M7993 2922 c12 -13 17 -36 17 -72 0 -36 -5 -59 -17 -72 -15 -17 -14 -18 33 -17 27 0 43 3 37 6 -21 8 -15 25 22 72 l35 44 0 -43 c0 -26 -7 -51 -17 -62 -15 -17 -14 -18 31 -18 43 0 46 1 32 16 -23 23 -22 132 2 150 15 12 11 13 -32 14 -42 0 -47 -2 -36 -15 10 -12 6 -23 -21 -59 l-34 -44 -3 45 c-2 34 1 48 15 59 16 12 13 13 -31 14 -47 0 -48 -1 -33 -18z"/>
<path d="M8513 2922 c12 -13 17 -36 17 -72 0 -36 -5 -59 -17 -72 -15 -17 -14 -18 32 -18 46 0 47 1 32 18 -10 10 -17 31 -17 45 0 25 3 27 40 27 37 0 40 -2 40 -27 0 -14 -7 -35 -17 -45 -15 -17 -14 -18 32 -18 46 0 47 1 32 18 -12 13 -17 36 -17 72 0 36 5 59 17 72 15 17 14 18 -32 18 -46 0 -47 -1 -32 -18 10 -10 17 -28 17 -40 0 -19 -6 -22 -40 -22 -34 0 -40 3 -40 22 0 12 7 30 17 40 15 17 14 18 -32 18 -46 0 -47 -1 -32 -18z"/>
<path d="M8732 2928 c-17 -17 -15 -48 3 -48 8 0 15 6 15 14 0 7 6 19 14 25 11 9 18 8 30 -4 23 -24 21 -28 -35 -52 -49 -22 -50 -23 -47 -60 3 -35 6 -38 36 -41 18 -2 40 2 48 9 11 9 14 9 14 0 0 -16 52 -10 58 7 2 6 -3 12 -12 12 -12 0 -16 15 -18 73 l-3 72 -45 3 c-26 2 -50 -2 -58 -10z m78 -96 c0 -37 -44 -62 -59 -34 -11 21 -5 34 24 50 30 17 35 15 35 -16z"/>
<path d="M8893 2922 c23 -25 23 -118 0 -144 -15 -17 -14 -18 31 -18 43 0 46 1 32 16 -12 11 -16 35 -16 85 l0 69 40 0 40 0 0 -67 c0 -48 -5 -72 -17 -85 -15 -17 -14 -18 31 -18 43 0 46 1 32 16 -11 11 -16 35 -16 79 0 68 11 83 42 56 25 -22 26 -185 1 -213 -15 -17 -14 -18 32 -18 46 0 47 1 32 18 -10 10 -17 28 -17 40 0 19 6 22 39 22 31 0 44 6 60 26 25 32 28 100 5 132 -17 25 -71 31 -92 10 -7 -7 -12 -8 -12 -2 0 7 -50 11 -132 13 -129 2 -132 2 -115 -17z m328 -51 c12 -29 -5 -87 -28 -95 -48 -19 -76 97 -31 128 25 18 44 8 59 -33z"/>
<path d="M9302 2928 c-17 -17 -15 -67 3 -74 21 -8 19 -18 -10 -52 -31 -37 -31 -42 -2 -42 14 0 32 15 52 43 28 39 30 40 33 19 2 -13 -4 -32 -14 -43 -17 -18 -16 -19 31 -19 46 0 47 1 32 18 -12 13 -17 36 -17 72 0 36 5 59 17 72 15 17 13 18 -48 18 -37 0 -70 -5 -77 -12z m76 -41 c3 -40 1 -42 -27 -27 -27 14 -33 37 -14 55 23 23 38 13 41 -28z"/>
<path d="M9460 2925 c0 -8 9 -15 20 -15 12 0 25 -10 31 -24 9 -20 7 -31 -12 -65 -12 -23 -26 -41 -31 -41 -4 0 -8 -4 -8 -10 0 -5 11 -10 25 -10 19 0 29 10 45 39 11 22 24 42 30 46 16 10 12 -38 -6 -63 -15 -22 -15 -22 32 -22 45 0 46 1 31 18 -18 19 -23 62 -9 62 5 0 18 -18 31 -40 17 -31 28 -40 48 -40 24 0 25 1 11 18 -52 58 -58 132 -12 132 15 0 24 6 24 15 0 9 -9 15 -25 15 -19 0 -29 -9 -42 -35 -21 -43 -43 -54 -43 -19 0 13 7 27 15 30 30 12 14 24 -30 24 -49 0 -53 -4 -30 -26 19 -19 20 -55 2 -48 -8 3 -21 20 -30 39 -13 26 -23 35 -42 35 -16 0 -25 -6 -25 -15z"/>
<path d="M9752 2917 c-30 -31 -31 -108 -2 -137 40 -40 130 -17 130 33 0 22 -6 21 -30 -3 -11 -11 -24 -20 -29 -20 -16 0 -49 34 -56 58 -6 21 -4 22 54 22 53 0 61 3 61 18 0 51 -89 71 -128 29z m69 -35 c-11 -2 -31 -2 -43 0 l-23 3 24 24 24 24 20 -24 c19 -24 19 -24 -2 -27z"/>
<path d="M9913 2922 c12 -13 17 -36 17 -72 0 -36 -5 -59 -17 -72 -15 -17 -14 -18 32 -18 46 0 47 1 32 18 -10 10 -17 31 -17 45 0 25 3 27 40 27 37 0 40 -2 40 -27 0 -14 -7 -35 -17 -45 -15 -17 -14 -18 32 -18 46 0 47 1 32 18 -12 13 -17 36 -17 72 0 36 5 59 17 72 15 17 14 18 -32 18 -46 0 -47 -1 -32 -18 10 -10 17 -28 17 -40 0 -19 -6 -22 -40 -22 -34 0 -40 3 -40 22 0 12 7 30 17 40 15 17 14 18 -32 18 -46 0 -47 -1 -32 -18z"/>
<path d="M10123 2922 c12 -13 17 -36 17 -72 0 -36 -5 -59 -17 -72 -15 -17 -14 -18 33 -17 27 0 43 3 37 6 -21 8 -15 25 22 72 l35 44 0 -43 c0 -26 -7 -51 -17 -62 -15 -17 -13 -18 53 -18 l69 0 30 43 c28 39 30 40 33 19 2 -13 -4 -32 -14 -43 -17 -18 -16 -19 31 -19 46 0 47 1 32 18 -12 13 -17 36 -17 72 0 36 5 59 17 72 15 17 13 18 -48 18 -37 0 -70 -5 -77 -12 -17 -17 -15 -65 4 -76 19 -11 10 -35 -26 -67 -29 -26 -40 -8 -40 69 0 44 4 62 18 72 15 12 11 13 -32 14 -42 0 -47 -2 -36 -15 10 -12 6 -23 -21 -59 l-34 -44 -3 45 c-2 34 1 48 15 59 16 12 13 13 -31 14 -47 0 -48 -1 -33 -18z m295 -35 c3 -40 1 -42 -27 -27 -27 14 -33 37 -14 55 23 23 38 13 41 -28z"/>
<path d="M10813 2922 c12 -13 17 -36 17 -72 0 -36 -5 -59 -17 -72 -15 -17 -14 -18 31 -18 43 0 46 1 32 16 -12 11 -16 35 -16 85 l0 69 40 0 40 0 0 -67 c0 -48 -5 -72 -17 -85 -15 -17 -14 -18 31 -18 43 0 46 1 32 16 -23 23 -22 132 2 150 14 11 2 13 -87 14 -100 0 -103 -1 -88 -18z"/>
<path d="M11035 2915 c-34 -33 -35 -102 -2 -133 33 -31 90 -30 122 3 32 31 34 91 4 129 -28 36 -89 37 -124 1z m84 -11 c42 -54 13 -159 -35 -126 -34 23 -46 109 -18 136 21 22 29 20 53 -10z"/>
<path d="M11545 2915 c-34 -33 -35 -102 -2 -133 33 -31 90 -30 122 3 32 31 34 91 4 129 -28 36 -89 37 -124 1z m84 -11 c42 -54 13 -159 -35 -126 -34 23 -46 109 -18 136 21 22 29 20 53 -10z"/>
<path d="M11918 2933 c-22 -6 -23 -19 -3 -27 23 -8 21 -182 -2 -208 -15 -17 -14 -18 32 -18 46 0 47 1 32 18 -10 10 -17 28 -17 40 0 19 6 22 39 22 31 0 44 6 60 26 25 32 28 100 5 132 -17 25 -71 31 -92 10 -9 -9 -12 -9 -12 0 0 12 -11 13 -42 5z m123 -62 c12 -29 -5 -87 -28 -95 -48 -19 -76 97 -31 128 25 18 44 8 59 -33z"/>
<path d="M12132 2928 c-17 -17 -15 -48 3 -48 8 0 15 6 15 14 0 7 6 19 14 25 11 9 18 8 30 -4 23 -24 21 -28 -35 -52 -49 -22 -50 -23 -47 -60 3 -35 6 -38 36 -41 18 -2 40 2 48 9 11 9 14 9 14 0 0 -16 52 -10 58 7 2 6 -3 12 -12 12 -12 0 -16 15 -18 73 l-3 72 -45 3 c-26 2 -50 -2 -58 -10z m78 -96 c0 -37 -44 -62 -59 -34 -11 21 -5 34 24 50 30 17 35 15 35 -16z"/>
<path d="M12270 2915 c0 -14 5 -25 10 -25 6 0 10 6 10 14 0 13 20 26 41 26 5 0 9 -30 9 -67 0 -48 -5 -72 -17 -85 -15 -17 -14 -18 33 -18 38 1 45 3 32 11 -25 14 -27 165 -2 155 9 -3 20 -6 25 -6 5 0 9 -7 9 -15 0 -8 5 -15 10 -15 6 0 10 11 10 25 0 25 -1 25 -85 25 -84 0 -85 0 -85 -25z"/>
<path d="M12463 2922 c12 -13 17 -36 17 -72 0 -36 -5 -59 -17 -72 -15 -17 -14 -18 32 -18 46 0 47 1 32 18 -10 10 -17 31 -17 45 0 25 3 27 40 27 37 0 40 -2 40 -27 0 -14 -7 -35 -17 -45 -15 -17 -14 -18 32 -18 46 0 47 1 32 18 -12 13 -17 36 -17 72 0 36 5 59 17 72 15 17 14 18 -32 18 -46 0 -47 -1 -32 -18 10 -10 17 -28 17 -40 0 -19 -6 -22 -40 -22 -34 0 -40 3 -40 22 0 12 7 30 17 40 15 17 14 18 -32 18 -46 0 -47 -1 -32 -18z"/>
<path d="M12685 2915 c-34 -33 -35 -102 -2 -133 33 -31 90 -30 122 3 32 31 34 91 4 129 -28 36 -89 37 -124 1z m84 -11 c42 -54 13 -159 -35 -126 -34 23 -46 109 -18 136 21 22 29 20 53 -10z"/>
<path d="M12863 2922 c12 -13 17 -36 17 -72 0 -36 -5 -59 -17 -72 -15 -17 -14 -18 33 -17 27 0 43 3 37 6 -21 8 -15 25 22 72 l35 44 0 -43 c0 -26 -7 -51 -17 -62 -15 -17 -14 -18 31 -18 43 0 46 1 32 16 -23 23 -22 132 2 150 15 12 11 13 -32 14 -42 0 -47 -2 -36 -15 10 -12 6 -23 -21 -59 l-34 -44 -3 45 c-2 34 1 48 15 59 16 12 13 13 -31 14 -47 0 -48 -1 -33 -18z"/>
<path d="M1073 2472 c12 -13 17 -36 17 -72 0 -36 -5 -59 -17 -72 -15 -17 -14 -18 31 -18 43 0 46 1 32 16 -12 11 -16 35 -16 85 l0 69 40 0 40 0 0 -67 c0 -48 -5 -72 -17 -85 -15 -17 -14 -18 31 -18 43 0 46 1 32 16 -23 23 -22 132 2 150 14 11 2 13 -87 14 -100 0 -103 -1 -88 -18z"/>
<path d="M1295 2465 c-34 -33 -35 -102 -2 -133 33 -31 90 -30 122 3 32 31 34 91 4 129 -28 36 -89 37 -124 1z m84 -11 c42 -54 13 -159 -35 -126 -34 23 -46 109 -18 136 21 22 29 20 53 -10z"/>
<path d="M1492 2467 c-30 -31 -31 -108 -2 -137 40 -40 130 -17 130 33 0 22 -6 21 -30 -3 -25 -25 -32 -25 -61 -1 -30 24 -32 87 -4 107 20 15 45 3 45 -22 0 -8 9 -14 20 -14 23 0 27 29 8 48 -21 21 -82 14 -106 -11z"/>
<path d="M1673 2472 c30 -33 19 -132 -14 -132 -11 0 -19 -7 -19 -15 0 -20 46 -20 54 1 3 9 6 47 6 85 l0 69 30 0 30 0 0 -67 c0 -48 -5 -72 -17 -85 -15 -17 -14 -18 31 -18 43 0 46 1 32 16 -23 23 -22 132 2 150 14 11 5 13 -67 14 -81 0 -83 -1 -68 -18z"/>
<path d="M1862 2467 c-30 -31 -31 -108 -2 -137 40 -40 130 -17 130 33 0 22 -6 21 -30 -3 -11 -11 -24 -20 -29 -20 -16 0 -49 34 -56 58 -6 21 -4 22 54 22 53 0 61 3 61 18 0 51 -89 71 -128 29z m69 -35 c-11 -2 -31 -2 -43 0 l-23 3 24 24 24 24 20 -24 c19 -24 19 -24 -2 -27z"/>
<path d="M2040 2480 c0 -5 4 -10 9 -10 28 0 11 -113 -20 -133 -13 -8 -19 -23 -19 -46 l0 -34 26 28 c22 24 31 27 71 22 33 -3 52 -12 64 -28 l19 -24 0 31 c0 17 -7 37 -15 44 -21 18 -20 118 2 142 15 17 13 18 -60 18 -45 0 -77 -4 -77 -10z m90 -64 c0 -84 -5 -96 -42 -96 -25 0 -29 3 -23 18 5 9 10 45 13 80 4 57 6 62 28 62 23 0 24 -3 24 -64z"/>
<path d="M2225 2465 c-34 -33 -35 -102 -2 -133 33 -31 90 -30 122 3 32 31 34 91 4 129 -28 36 -89 37 -124 1z m84 -11 c42 -54 13 -159 -35 -126 -34 23 -46 109 -18 136 21 22 29 20 53 -10z"/>
<path d="M2403 2472 c12 -13 17 -36 17 -72 0 -36 -5 -59 -17 -72 -15 -17 -13 -18 58 -18 45 0 80 5 87 12 18 18 15 65 -5 77 -10 6 -12 11 -5 11 15 0 16 52 0 68 -7 7 -41 12 -82 12 -66 0 -68 -1 -53 -18z m109 -15 c9 -13 -26 -47 -48 -47 -9 0 -14 12 -14 36 0 34 1 36 27 29 15 -3 31 -12 35 -18z m6 -85 c11 -14 10 -20 -9 -35 -34 -27 -53 -18 -57 27 -3 38 -3 38 25 32 15 -4 34 -15 41 -24z"/>
<path d="M2602 2478 c-17 -17 -15 -48 3 -48 8 0 15 6 15 14 0 7 6 19 14 25 11 9 18 8 30 -4 23 -24 21 -28 -35 -52 -49 -22 -50 -23 -47 -60 3 -35 6 -38 36 -41 18 -2 40 2 48 9 11 9 14 9 14 0 0 -16 52 -10 58 7 2 6 -3 12 -12 12 -12 0 -16 15 -18 73 l-3 72 -45 3 c-26 2 -50 -2 -58 -10z m78 -96 c0 -37 -44 -62 -59 -34 -11 21 -5 34 24 50 30 17 35 15 35 -16z"/>
<path d="M2750 2465 c0 -14 5 -25 10 -25 6 0 10 6 10 14 0 13 20 26 41 26 5 0 9 -30 9 -67 0 -48 -5 -72 -17 -85 -15 -17 -14 -18 33 -18 38 1 45 3 32 11 -25 14 -27 165 -2 155 9 -3 20 -6 25 -6 5 0 9 -7 9 -15 0 -8 5 -15 10 -15 6 0 10 11 10 25 0 25 -1 25 -85 25 -84 0 -85 0 -85 -25z"/>
<path d="M2952 2467 c-30 -31 -31 -108 -2 -137 40 -40 130 -17 130 33 0 22 -6 21 -30 -3 -11 -11 -24 -20 -29 -20 -16 0 -49 34 -56 58 -6 21 -4 22 54 22 53 0 61 3 61 18 0 51 -89 71 -128 29z m69 -35 c-11 -2 -31 -2 -43 0 l-23 3 24 24 24 24 20 -24 c19 -24 19 -24 -2 -27z"/>
<path d="M3133 2472 c30 -33 19 -132 -14 -132 -11 0 -19 -7 -19 -15 0 -20 46 -20 54 1 3 9 6 47 6 85 l0 69 30 0 30 0 0 -67 c0 -48 -5 -72 -17 -85 -15 -17 -14 -18 31 -18 43 0 46 1 32 16 -23 23 -22 132 2 150 14 11 5 13 -67 14 -81 0 -83 -1 -68 -18z"/>
<path d="M3303 2472 c12 -13 17 -36 17 -72 0 -36 -5 -59 -17 -72 -15 -17 -13 -18 53 -18 76 0 94 9 94 50 0 36 -17 50 -62 50 -34 0 -38 2 -38 26 0 15 8 33 18 40 15 12 11 13 -32 14 -47 0 -48 -1 -33 -18z m98 -92 l24 -20 -24 -20 c-32 -27 -45 -21 -49 23 -4 43 12 49 49 17z"/>
<path d="M3483 2472 c12 -13 17 -36 17 -72 0 -36 -5 -59 -17 -72 -15 -17 -14 -18 32 -18 46 0 47 1 32 18 -10 10 -17 31 -17 45 0 25 3 27 40 27 37 0 40 -2 40 -27 0 -14 -7 -35 -17 -45 -15 -17 -14 -18 32 -18 46 0 47 1 32 18 -12 13 -17 36 -17 72 0 36 5 59 17 72 15 17 14 18 -32 18 -46 0 -47 -1 -32 -18 10 -10 17 -28 17 -40 0 -19 -6 -22 -40 -22 -34 0 -40 3 -40 22 0 12 7 30 17 40 15 17 14 18 -32 18 -46 0 -47 -1 -32 -18z"/>
<path d="M3705 2465 c-34 -33 -35 -102 -2 -133 33 -31 90 -30 122 3 32 31 34 91 4 129 -28 36 -89 37 -124 1z m84 -11 c42 -54 13 -159 -35 -126 -34 23 -46 109 -18 136 21 22 29 20 53 -10z"/>
<path d="M3892 2467 c-30 -31 -31 -108 -2 -137 40 -40 130 -17 130 33 0 22 -6 21 -30 -3 -25 -25 -32 -25 -61 -1 -30 24 -32 87 -4 107 20 15 45 3 45 -22 0 -8 9 -14 20 -14 23 0 27 29 8 48 -21 21 -82 14 -106 -11z"/>
<path d="M4030 2465 c0 -14 5 -25 10 -25 6 0 10 6 10 14 0 13 20 26 41 26 5 0 9 -30 9 -67 0 -48 -5 -72 -17 -85 -15 -17 -14 -18 33 -18 38 1 45 3 32 11 -25 14 -27 165 -2 155 9 -3 20 -6 25 -6 5 0 9 -7 9 -15 0 -8 5 -15 10 -15 6 0 10 11 10 25 0 25 -1 25 -85 25 -84 0 -85 0 -85 -25z"/>
<path d="M4223 2472 c12 -13 17 -36 17 -72 0 -36 -5 -59 -17 -72 -15 -17 -14 -18 33 -17 27 0 43 3 37 6 -21 8 -15 25 22 72 l35 44 0 -43 c0 -26 -7 -51 -17 -62 -15 -17 -14 -18 31 -18 43 0 46 1 32 16 -23 23 -22 132 2 150 15 12 11 13 -32 14 -42 0 -47 -2 -36 -15 10 -12 6 -23 -21 -59 l-34 -44 -3 45 c-2 34 1 48 15 59 16 12 13 13 -31 14 -47 0 -48 -1 -33 -18z"/>
<path d="M200 1335 l0 -435 5965 0 5965 0 0 435 0 435 -5965 0 -5965 0 0 -435z m8320 5 l0 -410 -4150 0 -4150 0 0 410 0 410 4150 0 4150 0 0 -410z m3590 0 l0 -410 -1780 0 -1780 0 0 410 0 410 1780 0 1780 0 0 -410z"/>
<path d="M1358 1648 c7 -7 12 -38 12 -70 0 -68 22 -98 70 -98 48 0 70 30 70 98 0 32 5 63 12 70 9 9 4 12 -22 12 -26 0 -31 -3 -22 -12 7 -7 12 -38 12 -70 0 -52 -3 -60 -25 -70 -39 -17 -55 3 -55 71 0 31 5 62 12 69 9 9 2 12 -32 12 -34 0 -41 -3 -32 -12z"/>
<path d="M1586 1557 c-20 -21 -26 -36 -26 -72 0 -36 6 -51 26 -72 14 -14 28 -23 31 -20 3 4 -2 13 -11 22 -22 22 -22 112 1 137 26 29 7 33 -21 5z"/>
<path d="M1810 1575 c0 -4 7 -13 15 -21 21 -22 20 -117 -1 -139 -9 -9 -13 -19 -9 -23 4 -4 18 6 31 21 26 30 33 92 14 127 -10 19 -50 47 -50 35z"/>
<path d="M1676 1554 c-16 -16 -21 -34 -10 -34 4 0 12 7 19 17 7 9 17 13 23 9 22 -13 12 -50 -20 -84 l-33 -33 49 3 c27 2 51 8 53 14 2 7 -8 9 -29 6 l-33 -4 28 29 c15 16 27 38 27 49 0 41 -44 58 -74 28z"/>
<path d="M2745 1459 c-5 -6 -26 -8 -60 -4 -47 6 -54 5 -69 -16 -20 -29 -21 -63 -1 -79 23 -19 64 3 78 40 6 17 15 30 19 30 13 0 10 -9 -33 -82 -38 -64 -45 -89 -21 -74 9 6 112 181 112 191 0 9 -19 5 -25 -6z m-65 -37 c0 -11 -9 -27 -20 -37 -19 -17 -20 -17 -20 -1 0 23 18 56 30 56 6 0 10 -8 10 -18z"/>
<path d="M390 1440 c0 -5 5 -10 10 -10 15 0 13 -137 -2 -143 -7 -3 17 -6 54 -6 l67 -1 -30 32 c-16 18 -29 36 -29 40 0 4 14 14 30 23 38 19 38 25 1 25 -21 0 -31 -6 -37 -22 -6 -19 -8 -14 -11 25 -4 42 -7 47 -29 47 -13 0 -24 -4 -24 -10z m64 -135 c3 -8 1 -15 -4 -15 -6 0 -10 7 -10 15 0 8 2 15 4 15 2 0 6 -7 10 -15z"/>
<path d="M2204 1435 c-17 -13 -17 -14 -1 -15 14 0 17 -10 17 -64 0 -42 -4 -66 -12 -69 -7 -3 5 -5 27 -5 22 0 34 2 28 5 -9 3 -13 30 -13 84 0 84 -7 94 -46 64z"/>
<path d="M2314 1415 c-7 -19 -14 -43 -14 -54 0 -91 96 -122 118 -38 l8 32 11 -32 c23 -66 93 -66 111 0 19 69 -9 127 -60 127 -24 0 -32 -7 -48 -42 -16 -37 -19 -40 -19 -17 -1 33 -30 59 -65 59 -21 0 -30 -7 -42 -35z m76 -49 c0 -58 -11 -82 -34 -73 -23 9 -27 107 -4 134 20 24 38 -5 38 -61z m130 0 c0 -58 -11 -82 -34 -73 -23 9 -27 107 -4 134 20 24 38 -5 38 -61z"/>
<path d="M890 1380 c0 -6 30 -10 70 -10 40 0 70 4 70 10 0 6 -30 10 -70 10 -40 0 -70 -4 -70 -10z"/>
<path d="M2731 1361 c-35 -35 -22 -91 20 -91 25 0 60 49 57 79 -4 35 -48 41 -77 12z m59 -20 c0 -20 -29 -56 -38 -47 -7 8 19 66 29 66 5 0 9 -9 9 -19z"/>
<path d="M536 1344 c-16 -16 -21 -34 -10 -34 4 0 12 7 19 17 7 9 17 13 23 9 22 -13 12 -50 -20 -84 l-33 -33 49 3 c27 2 51 8 53 14 2 7 -8 9 -29 6 l-33 -4 28 29 c15 16 27 38 27 49 0 41 -44 58 -74 28z"/>
<path d="M610 1350 c0 -5 5 -10 10 -10 6 0 10 -25 10 -55 0 -50 3 -57 26 -67 21 -10 31 -9 52 3 23 12 27 22 30 67 2 29 7 52 13 52 5 0 9 5 9 10 0 6 -13 10 -30 10 -16 0 -30 -4 -30 -10 0 -5 5 -10 11 -10 6 0 9 -21 7 -52 -3 -49 -5 -53 -28 -53 -24 0 -25 2 -25 63 0 61 0 62 -27 62 -16 0 -28 -4 -28 -10z"/>
<path d="M1120 1350 c0 -7 177 -10 510 -10 333 0 510 3 510 10 0 7 -177 10 -510 10 -333 0 -510 -3 -510 -10z"/>
<path d="M890 1320 c0 -6 30 -10 70 -10 40 0 70 4 70 10 0 6 -30 10 -70 10 -40 0 -70 -4 -70 -10z"/>
<path d="M1118 1228 c7 -7 12 -38 12 -70 0 -68 22 -98 70 -98 48 0 70 30 70 98 0 32 5 63 12 70 9 9 4 12 -22 12 -26 0 -31 -3 -22 -12 7 -7 12 -38 12 -70 0 -52 -3 -60 -25 -70 -39 -17 -55 3 -55 71 0 31 5 62 12 69 9 9 2 12 -32 12 -34 0 -41 -3 -32 -12z"/>
<path d="M1355 1118 c0 -24 -8 -58 -17 -75 l-16 -33 31 0 c18 0 27 4 20 8 -6 4 -9 19 -6 35 4 22 11 27 35 27 28 0 30 -2 23 -27 -3 -15 -12 -31 -18 -35 -7 -4 4 -7 23 -7 19 0 30 3 23 5 -9 4 -8 18 4 57 8 29 19 56 24 62 16 17 9 25 -21 25 -29 0 -42 -14 -19 -22 21 -7 -3 -38 -31 -38 -23 0 -27 4 -23 20 3 11 9 20 14 20 5 0 9 5 9 10 0 6 -12 10 -27 10 -26 0 -28 -3 -28 -42z"/>
<path d="M1540 1147 c-14 -7 -34 -29 -45 -49 -16 -30 -17 -40 -7 -62 9 -20 19 -26 42 -26 44 0 70 16 86 55 16 38 6 78 -21 89 -22 8 -26 8 -55 -7z m58 -34 c7 -46 -47 -107 -78 -88 -19 12 -11 65 15 91 30 30 59 28 63 -3z"/>
<path d="M1640 1151 c0 -5 5 -11 10 -13 13 -4 -17 -110 -34 -120 -6 -5 1 -8 16 -8 20 0 25 4 22 18 -2 9 0 31 4 47 9 29 9 29 16 -17 4 -27 11 -48 16 -48 5 0 21 16 37 36 29 39 45 29 19 -11 -16 -25 -16 -25 16 -24 18 0 28 3 22 5 -14 6 7 99 25 117 15 15 14 27 -3 27 -8 0 -34 -27 -59 -60 l-44 -60 -12 60 c-10 49 -16 60 -32 60 -10 0 -19 -4 -19 -9z"/>
<path d="M1994 1143 c4 -9 -1 -37 -9 -64 -13 -38 -19 -46 -35 -42 -14 4 -20 0 -20 -11 0 -10 9 -16 24 -16 23 0 37 25 61 108 3 12 12 22 20 22 11 0 11 -9 0 -56 -7 -31 -19 -60 -26 -65 -10 -6 -3 -9 19 -9 20 0 31 4 27 10 -9 14 14 120 26 120 5 0 9 5 9 10 0 6 -23 10 -51 10 -43 0 -50 -2 -45 -17z"/>
<path d="M11590 1643 c-43 -36 -60 -79 -60 -151 0 -46 6 -67 26 -98 27 -41 61 -70 72 -60 3 3 -4 16 -15 29 -35 37 -43 63 -43 131 0 72 11 110 42 143 32 34 16 38 -22 6z"/>
<path d="M11754 1662 c-49 -3 -51 -4 -72 -48 -12 -24 -22 -46 -22 -48 0 -1 17 -8 38 -14 71 -21 97 -81 55 -124 -19 -19 -22 -19 -52 -4 -33 17 -51 14 -51 -9 0 -28 64 -34 110 -10 36 19 50 43 50 87 0 43 -24 76 -66 94 -47 20 -42 34 10 34 36 0 46 4 51 21 8 25 10 25 -51 21z"/>
<path d="M11850 1664 c0 -3 11 -19 25 -35 30 -36 39 -79 33 -164 -3 -55 -8 -69 -33 -95 -33 -34 -29 -49 7 -26 38 25 69 89 70 145 0 61 -8 87 -39 128 -23 31 -63 61 -63 47z"/>
<path d="M6506 341 c-68 -8 -89 -38 -94 -134 -3 -62 -1 -76 18 -99 17 -23 29 -28 65 -28 35 0 48 5 64 26 47 60 13 154 -55 154 -20 0 -44 -5 -55 -10 -24 -13 -25 1 -1 30 11 14 33 23 62 27 45 6 70 18 70 34 0 5 -6 8 -12 7 -7 0 -35 -4 -62 -7z m4 -101 c40 -21 46 -121 9 -141 -59 -31 -108 107 -50 141 20 12 19 12 41 0z"/>
<path d="M7018 320 c-37 -38 -31 -50 10 -20 24 18 33 20 51 11 34 -19 26 -57 -17 -80 -25 -13 -21 -31 8 -31 26 0 54 -43 45 -70 -9 -28 -40 -43 -64 -30 -24 12 -61 13 -61 1 0 -41 101 -39 137 4 28 32 30 88 5 113 -16 16 -17 22 -5 37 20 28 16 62 -9 79 -34 24 -66 19 -100 -14z"/>
<path d="M1068 324 c20 -14 22 -23 22 -110 0 -81 -3 -97 -20 -114 l-20 -20 57 0 c55 0 56 1 35 16 -17 12 -22 25 -22 60 l0 44 48 0 c63 0 92 21 92 65 0 58 -29 75 -129 75 -80 0 -84 -1 -63 -16z m111 -5 c34 -12 51 -51 34 -77 -12 -19 -58 -36 -78 -28 -19 7 -21 102 -2 109 6 3 12 6 13 6 1 1 15 -4 33 -10z"/>
<path d="M587 242 c-23 -25 -22 -85 1 -105 25 -23 85 -22 105 1 21 23 22 71 1 100 -20 28 -83 31 -107 4z"/>
<path d="M1302 237 c-30 -31 -31 -108 -2 -137 40 -40 130 -17 130 33 0 22 -6 21 -30 -3 -11 -11 -24 -20 -29 -20 -16 0 -49 34 -56 58 -6 21 -4 22 54 22 53 0 61 3 61 18 0 51 -89 71 -128 29z m69 -35 c-11 -2 -31 -2 -43 0 l-23 3 24 24 24 24 20 -24 c19 -24 19 -24 -2 -27z"/>
<path d="M1450 235 c0 -30 4 -31 30 -5 11 11 26 17 35 14 22 -9 18 -39 -7 -57 l-23 -15 26 -10 c60 -24 28 -79 -34 -61 -41 12 -42 12 -27 -6 15 -18 101 -20 118 -3 21 21 15 66 -10 74 -19 6 -19 7 -5 16 20 11 22 49 5 66 -7 7 -34 12 -60 12 -45 0 -48 -2 -48 -25z"/>
<path d="M1614 226 c43 -63 68 -139 57 -169 -8 -19 -18 -27 -36 -27 -16 0 -25 -6 -25 -15 0 -24 47 -18 64 8 7 12 28 62 47 112 18 50 39 98 47 108 14 16 13 17 -18 17 -25 0 -31 -3 -23 -11 8 -8 7 -23 -4 -55 -8 -24 -18 -44 -22 -44 -5 0 -15 19 -24 42 -12 31 -14 45 -6 55 9 10 3 13 -34 13 l-46 0 23 -34z"/>
<path d="M1833 242 c30 -33 19 -132 -14 -132 -11 0 -19 -7 -19 -15 0 -20 46 -20 54 1 3 9 6 47 6 85 l0 69 30 0 30 0 0 -67 c0 -48 -5 -72 -17 -85 -15 -17 -14 -18 31 -18 43 0 46 1 32 16 -23 23 -22 132 2 150 14 11 5 13 -67 14 -81 0 -83 -1 -68 -18z"/>
<path d="M2003 242 c12 -13 17 -36 17 -72 0 -36 -5 -59 -17 -72 -15 -17 -13 -18 53 -18 76 0 94 9 94 50 0 36 -17 50 -62 50 -34 0 -38 2 -38 26 0 15 8 33 18 40 15 12 11 13 -32 14 -47 0 -48 -1 -33 -18z m98 -92 l24 -20 -24 -20 c-32 -27 -45 -21 -49 23 -4 43 12 49 49 17z"/>
<path d="M2160 235 c0 -14 5 -25 10 -25 6 0 10 6 10 14 0 13 20 26 41 26 5 0 9 -30 9 -67 0 -48 -5 -72 -17 -85 -15 -17 -14 -18 33 -18 38 1 45 3 32 11 -25 14 -27 165 -2 155 9 -3 20 -6 25 -6 5 0 9 -7 9 -15 0 -8 5 -15 10 -15 6 0 10 11 10 25 0 25 -1 25 -85 25 -84 0 -85 0 -85 -25z"/>
<path d="M2362 248 c-17 -17 -15 -48 3 -48 8 0 15 6 15 14 0 7 6 19 14 25 11 9 18 8 30 -4 23 -24 21 -28 -35 -52 -49 -22 -50 -23 -47 -60 3 -35 6 -38 36 -41 18 -2 40 2 48 9 11 9 14 9 14 0 0 -16 52 -10 58 7 2 6 -3 12 -12 12 -12 0 -16 15 -18 73 l-3 72 -45 3 c-26 2 -50 -2 -58 -10z m78 -96 c0 -37 -44 -62 -59 -34 -11 21 -5 34 24 50 30 17 35 15 35 -16z"/>
<path d="M2500 235 c0 -14 5 -25 10 -25 6 0 10 6 10 14 0 13 20 26 41 26 5 0 9 -30 9 -67 0 -48 -5 -72 -17 -85 -15 -17 -14 -18 33 -18 38 1 45 3 32 11 -25 14 -27 165 -2 155 9 -3 20 -6 25 -6 5 0 9 -7 9 -15 0 -8 5 -15 10 -15 6 0 10 11 10 25 0 25 -1 25 -85 25 -84 0 -85 0 -85 -25z"/>
<path d="M2693 242 c12 -13 17 -36 17 -72 0 -36 -5 -59 -17 -72 -15 -17 -13 -18 53 -18 76 0 94 9 94 50 0 36 -17 50 -62 50 -34 0 -38 2 -38 26 0 15 8 33 18 40 15 12 11 13 -32 14 -47 0 -48 -1 -33 -18z m98 -92 l24 -20 -24 -20 c-32 -27 -45 -21 -49 23 -4 43 12 49 49 17z"/>
<path d="M2853 242 c12 -13 17 -36 17 -72 0 -36 -5 -59 -17 -72 -15 -17 -14 -18 32 -18 46 0 47 1 32 18 -24 27 -24 130 1 148 15 12 11 13 -32 14 -47 0 -48 -1 -33 -18z"/>
<path d="M3048 253 c-22 -6 -23 -19 -3 -27 23 -8 21 -182 -2 -208 -15 -17 -14 -18 32 -18 46 0 47 1 32 18 -10 10 -17 28 -17 40 0 19 6 22 39 22 31 0 44 6 60 26 25 32 28 100 5 132 -17 25 -71 31 -92 10 -9 -9 -12 -9 -12 0 0 12 -11 13 -42 5z m123 -62 c12 -29 -5 -87 -28 -95 -48 -19 -76 97 -31 128 25 18 44 8 59 -33z"/>
<path d="M3262 248 c-17 -17 -15 -48 3 -48 8 0 15 6 15 14 0 7 6 19 14 25 11 9 18 8 30 -4 23 -24 21 -28 -35 -52 -49 -22 -50 -23 -47 -60 3 -35 6 -38 36 -41 18 -2 40 2 48 9 11 9 14 9 14 0 0 -16 52 -10 58 7 2 6 -3 12 -12 12 -12 0 -16 15 -18 73 l-3 72 -45 3 c-26 2 -50 -2 -58 -10z m78 -96 c0 -37 -44 -62 -59 -34 -11 21 -5 34 24 50 30 17 35 15 35 -16z"/>
<path d="M3432 237 c-30 -31 -31 -108 -2 -137 40 -40 130 -17 130 33 0 22 -6 21 -30 -3 -25 -25 -32 -25 -61 -1 -30 24 -32 87 -4 107 20 15 45 3 45 -22 0 -8 9 -14 20 -14 23 0 27 29 8 48 -21 21 -82 14 -106 -11z"/>
<path d="M3583 242 c10 -11 17 -35 17 -57 l0 -38 50 5 c45 5 50 3 50 -15 0 -11 -7 -29 -17 -39 -15 -17 -14 -18 32 -18 46 0 47 1 32 18 -24 27 -24 130 1 148 15 12 11 13 -32 14 -47 0 -48 -1 -33 -18 24 -26 21 -58 -5 -65 -43 -12 -63 30 -31 65 15 17 14 18 -32 18 -46 0 -47 -1 -32 -18z"/>
<path d="M3802 237 c-30 -31 -31 -108 -2 -137 40 -40 130 -17 130 33 0 22 -6 21 -30 -3 -11 -11 -24 -20 -29 -20 -16 0 -49 34 -56 58 -6 21 -4 22 54 22 53 0 61 3 61 18 0 51 -89 71 -128 29z m69 -35 c-11 -2 -31 -2 -43 0 l-23 3 24 24 24 24 20 -24 c19 -24 19 -24 -2 -27z"/>
<path d="M3940 235 c0 -14 5 -25 10 -25 6 0 10 6 10 14 0 13 20 26 41 26 5 0 9 -30 9 -67 0 -48 -5 -72 -17 -85 -15 -17 -14 -18 33 -18 38 1 45 3 32 11 -25 14 -27 165 -2 155 9 -3 20 -6 25 -6 5 0 9 -7 9 -15 0 -8 5 -15 10 -15 6 0 10 11 10 25 0 25 -1 25 -85 25 -84 0 -85 0 -85 -25z"/>
<path d="M4145 235 c-34 -33 -35 -102 -2 -133 33 -31 90 -30 122 3 32 31 34 91 4 129 -28 36 -89 37 -124 1z m84 -11 c42 -54 13 -159 -35 -126 -34 23 -46 109 -18 136 21 22 29 20 53 -10z"/>
<path d="M4323 242 c12 -13 17 -36 17 -72 0 -36 -5 -59 -17 -72 -15 -17 -13 -18 58 -18 45 0 80 5 87 12 18 18 15 65 -5 77 -10 6 -12 11 -5 11 15 0 16 52 0 68 -7 7 -41 12 -82 12 -66 0 -68 -1 -53 -18z m109 -15 c9 -13 -26 -47 -48 -47 -9 0 -14 12 -14 36 0 34 1 36 27 29 15 -3 31 -12 35 -18z m6 -85 c11 -14 10 -20 -9 -35 -34 -27 -53 -18 -57 27 -3 38 -3 38 25 32 15 -4 34 -15 41 -24z"/>
<path d="M4622 237 c-30 -31 -31 -108 -2 -137 40 -40 130 -17 130 33 0 22 -6 21 -30 -3 -25 -25 -32 -25 -61 -1 -30 24 -32 87 -4 107 20 15 45 3 45 -22 0 -8 9 -14 20 -14 23 0 27 29 8 48 -21 21 -82 14 -106 -11z"/>
<path d="M4773 242 c12 -13 17 -36 17 -72 0 -36 -5 -59 -17 -72 -15 -17 -13 -18 58 -18 45 0 80 5 87 12 18 18 15 65 -5 77 -10 6 -12 11 -5 11 15 0 16 52 0 68 -7 7 -41 12 -82 12 -66 0 -68 -1 -53 -18z m109 -15 c9 -13 -26 -47 -48 -47 -9 0 -14 12 -14 36 0 34 1 36 27 29 15 -3 31 -12 35 -18z m6 -85 c11 -14 10 -20 -9 -35 -34 -27 -53 -18 -57 27 -3 38 -3 38 25 32 15 -4 34 -15 41 -24z"/>
<path d="M4972 237 c-30 -31 -31 -108 -2 -137 40 -40 130 -17 130 33 0 22 -6 21 -30 -3 -11 -11 -24 -20 -29 -20 -16 0 -49 34 -56 58 -6 21 -4 22 54 22 53 0 61 3 61 18 0 51 -89 71 -128 29z m69 -35 c-11 -2 -31 -2 -43 0 l-23 3 24 24 24 24 20 -24 c19 -24 19 -24 -2 -27z"/>
<path d="M5152 237 c-30 -31 -31 -108 -2 -137 40 -40 130 -17 130 33 0 22 -6 21 -30 -3 -25 -25 -32 -25 -61 -1 -30 24 -32 87 -4 107 20 15 45 3 45 -22 0 -8 9 -14 20 -14 23 0 27 29 8 48 -21 21 -82 14 -106 -11z"/>
<path d="M5290 235 c0 -14 5 -25 10 -25 6 0 10 6 10 14 0 13 20 26 41 26 5 0 9 -30 9 -67 0 -48 -5 -72 -17 -85 -15 -17 -14 -18 33 -18 38 1 45 3 32 11 -25 14 -27 165 -2 155 9 -3 20 -6 25 -6 5 0 9 -7 9 -15 0 -8 5 -15 10 -15 6 0 10 11 10 25 0 25 -1 25 -85 25 -84 0 -85 0 -85 -25z"/>
<path d="M5483 242 c12 -13 17 -36 17 -72 0 -36 -5 -59 -17 -72 -15 -17 -14 -18 33 -17 27 0 43 3 37 6 -21 8 -15 25 22 72 l35 44 0 -43 c0 -26 -7 -51 -17 -62 -15 -17 -14 -18 31 -18 43 0 46 1 32 16 -23 23 -22 132 2 150 15 12 11 13 -32 14 -42 0 -47 -2 -36 -15 10 -12 6 -23 -21 -59 l-34 -44 -3 45 c-2 34 1 48 15 59 16 12 13 13 -31 14 -47 0 -48 -1 -33 -18z"/>
<path d="M5783 242 c12 -13 17 -36 17 -72 0 -36 -5 -59 -17 -72 -15 -17 -13 -18 58 -18 45 0 80 5 87 12 18 18 15 65 -5 77 -10 6 -12 11 -5 11 15 0 16 52 0 68 -7 7 -41 12 -82 12 -66 0 -68 -1 -53 -18z m109 -15 c9 -13 -26 -47 -48 -47 -9 0 -14 12 -14 36 0 34 1 36 27 29 15 -3 31 -12 35 -18z m6 -85 c11 -14 10 -20 -9 -35 -34 -27 -53 -18 -57 27 -3 38 -3 38 25 32 15 -4 34 -15 41 -24z"/>
<path d="M6050 235 c0 -14 5 -25 10 -25 6 0 10 6 10 14 0 13 20 26 41 26 5 0 9 -30 9 -67 0 -48 -5 -72 -17 -85 -15 -17 -14 -18 33 -18 38 1 45 3 32 11 -25 14 -27 165 -2 155 9 -3 20 -6 25 -6 5 0 9 -7 9 -15 0 -8 5 -15 10 -15 6 0 10 11 10 25 0 25 -1 25 -85 25 -84 0 -85 0 -85 -25z"/>
<path d="M6252 248 c-17 -17 -15 -48 3 -48 8 0 15 6 15 14 0 7 6 19 14 25 11 9 18 8 30 -4 23 -24 21 -28 -35 -52 -49 -22 -50 -23 -47 -60 3 -35 6 -38 36 -41 18 -2 40 2 48 9 11 9 14 9 14 0 0 -16 52 -10 58 7 2 6 -3 12 -12 12 -12 0 -16 15 -18 73 l-3 72 -45 3 c-26 2 -50 -2 -58 -10z m78 -96 c0 -37 -44 -62 -59 -34 -11 21 -5 34 24 50 30 17 35 15 35 -16z"/>
<path d="M6633 242 c30 -33 19 -132 -14 -132 -11 0 -19 -7 -19 -15 0 -20 46 -20 54 1 3 9 6 47 6 85 l0 69 30 0 30 0 0 -67 c0 -48 -5 -72 -17 -85 -15 -17 -14 -18 31 -18 43 0 46 1 32 16 -23 23 -22 132 2 150 14 11 5 13 -67 14 -81 0 -83 -1 -68 -18z"/>
<path d="M7206 111 c-10 -16 6 -42 23 -39 9 2 17 13 19 26 3 16 -2 22 -17 22 -11 0 -22 -4 -25 -9z"/>
<path d="M6810 95 c0 -8 7 -15 15 -15 8 0 15 7 15 15 0 8 -7 15 -15 15 -8 0 -15 -7 -15 -15z"/>
</g>
</svg>