<?xml version="1.0" encoding="UTF-8" standalone="no"?>
<!DOCTYPE svg PUBLIC "-//W3C//DTD SVG 20010904//EN" "http://www.w3.org/TR/2001/REC-SVG-20010904/DTD/svg10.dtd">
<svg version="1.0" xmlns="http://www.w3.org/2000/svg" width="1282.000000pt" height="628.000000pt" viewBox="0 0 1282.000000 628.000000" preserveAspectRatio="xMidYMid meet">
<metadata>
Created by potrace 1.12, written by Peter Selinger 2001-2015
</metadata>
<g transform="translate(0.000000,628.000000) scale(0.100000,-0.100000)" fill="#000000" stroke="none">
<path d="M546 6259 c-14 -11 -26 -30 -26 -41 0 -20 2 -19 25 6 20 22 28 25 44 16 11 -5 23 -15 26 -20 12 -19 -15 -76 -55 -115 -22 -22 -40 -43 -40 -47 0 -4 32 -8 70 -8 39 0 70 4 70 9 0 5 3 18 6 28 6 15 4 16 -7 6 -7 -7 -30 -13 -52 -13 l-39 0 41 46 c49 56 57 112 19 138 -30 21 -50 20 -82 -5z"/>
<path d="M4376 6170 c-21 -61 -43 -109 -49 -107 -6 2 -28 23 -49 48 l-37 44 22 45 c18 36 26 44 45 42 15 -2 22 2 22 12 0 11 -9 16 -30 16 -24 0 -33 -6 -42 -27 -13 -32 -47 -73 -60 -73 -15 0 -8 63 9 82 15 17 14 18 -32 18 -46 0 -47 -1 -32 -18 13 -14 17 -38 17 -92 0 -54 -4 -78 -17 -92 -15 -17 -14 -18 32 -18 46 0 47 1 32 18 -18 19 -24 82 -8 82 5 0 24 -22 42 -50 31 -45 37 -50 74 -50 l40 0 38 108 c39 113 42 122 29 122 -4 0 -24 -50 -46 -110z"/>
<path d="M5792 6273 c-36 -4 -46 -10 -62 -36 -25 -40 -27 -132 -4 -165 20 -29 85 -31 114 -2 24 24 26 77 4 109 -15 20 -23 23 -65 19 -44 -5 -47 -3 -38 13 5 10 25 21 47 24 20 3 43 10 51 14 20 10 26 31 9 29 -7 -1 -32 -3 -56 -5z m13 -103 c35 -39 13 -120 -28 -104 -9 3 -21 21 -27 40 -10 29 -9 39 4 59 20 30 28 31 51 5z"/>
<path d="M1033 6252 c24 -26 24 -158 0 -184 -15 -17 -14 -18 32 -18 46 0 47 1 32 18 -10 10 -17 35 -17 55 l0 37 50 0 50 0 0 -37 c0 -20 -7 -45 -17 -55 -15 -17 -14 -18 32 -18 46 0 47 1 32 18 -24 26 -24 158 0 184 15 17 14 18 -32 18 -46 0 -47 -1 -32 -18 10 -10 17 -33 17 -50 0 -32 -1 -32 -50 -32 -49 0 -50 0 -50 32 0 17 7 40 17 50 15 17 14 18 -32 18 -46 0 -47 -1 -32 -18z"/>
<path d="M3443 6252 c13 -14 17 -38 17 -92 0 -54 -4 -78 -17 -92 -15 -17 -14 -18 32 -18 46 0 47 1 32 18 -13 14 -17 39 -17 105 l0 87 50 0 50 0 0 -87 c0 -66 -4 -91 -17 -105 -15 -17 -14 -18 32 -18 46 0 47 1 32 18 -13 14 -17 38 -17 92 0 54 4 78 17 92 15 17 12 18 -97 18 -109 0 -112 -1 -97 -18z"/>
<path d="M3660 6260 c0 -5 7 -10 15 -10 16 0 95 -127 95 -153 0 -12 -8 -17 -30 -17 -21 0 -30 -5 -30 -16 0 -11 8 -14 32 -12 31 3 35 9 75 98 23 52 49 96 58 98 29 6 15 22 -21 22 -30 0 -34 -3 -29 -19 3 -10 -2 -39 -12 -64 l-18 -46 -29 50 c-22 40 -25 53 -16 64 11 13 5 15 -39 15 -28 0 -51 -4 -51 -10z"/>
<path d="M3940 6241 c-26 -25 -30 -37 -30 -81 0 -44 4 -56 29 -81 25 -24 38 -29 78 -29 40 0 54 5 73 25 28 29 19 46 -10 20 -11 -10 -34 -18 -50 -18 -81 0 -106 122 -35 169 23 15 27 15 51 -1 15 -9 29 -26 31 -36 9 -34 24 -20 21 19 l-3 37 -63 3 c-58 3 -64 1 -92 -27z"/>
<path d="M4480 6241 c-26 -25 -30 -37 -30 -81 0 -44 4 -56 29 -81 25 -24 38 -29 78 -29 40 0 54 5 73 25 28 29 19 46 -10 20 -11 -10 -34 -18 -50 -18 -81 0 -106 122 -35 169 23 15 27 15 51 -1 15 -9 29 -26 31 -36 9 -34 24 -20 21 19 l-3 37 -63 3 c-58 3 -64 1 -92 -27z"/>
<path d="M4670 6243 l0 -27 20 22 c12 12 30 22 40 22 18 0 20 -7 20 -87 0 -66 -4 -91 -17 -105 -15 -17 -14 -18 31 -18 43 0 46 1 32 16 -12 12 -16 37 -16 105 0 82 2 89 20 89 10 0 28 -10 40 -22 l20 -22 0 27 0 27 -95 0 -95 0 0 -27z"/>
<path d="M4899 6241 c-25 -25 -29 -37 -29 -81 0 -44 4 -56 29 -81 25 -25 37 -29 81 -29 44 0 56 4 81 29 24 25 29 38 29 79 0 41 -5 55 -29 81 -25 27 -36 31 -81 31 -44 0 -56 -4 -81 -29z m117 -5 c24 -20 28 -31 28 -76 0 -45 -4 -56 -28 -76 -15 -13 -31 -24 -36 -24 -5 0 -21 11 -36 24 -24 20 -28 31 -28 76 0 45 4 56 28 76 15 13 31 24 36 24 5 0 21 -11 36 -24z"/>
<path d="M5123 6252 c13 -14 17 -38 17 -92 0 -54 -4 -78 -17 -92 -15 -17 -14 -18 32 -18 46 0 47 1 32 18 -13 14 -17 39 -17 105 l0 87 50 0 50 0 0 -87 c0 -66 -4 -91 -17 -105 -15 -17 -14 -18 32 -18 46 0 47 1 32 18 -13 14 -17 38 -17 92 0 54 4 78 17 92 15 17 12 18 -97 18 -109 0 -112 -1 -97 -18z"/>
<path d="M5654 6255 c-72 -50 -70 -212 3 -260 35 -23 40 -11 10 24 -45 54 -44 173 3 216 35 32 22 48 -16 20z"/>
<path d="M6473 6252 c13 -14 17 -38 17 -92 0 -54 -4 -78 -17 -92 -15 -17 -14 -18 31 -18 43 0 46 1 32 16 -9 8 -16 31 -16 50 0 33 1 34 38 34 46 0 62 14 62 56 0 50 -21 64 -97 64 -63 0 -65 -1 -50 -18z m91 -8 c22 -22 20 -61 -4 -74 -29 -15 -40 -5 -40 39 0 53 15 65 44 35z"/>
<path d="M6663 6252 c13 -14 17 -38 17 -92 0 -54 -4 -78 -17 -92 -15 -17 -14 -18 32 -18 46 0 47 1 32 18 -10 10 -17 35 -17 55 l0 37 50 0 50 0 0 -37 c0 -20 -7 -45 -17 -55 -15 -17 -14 -18 32 -18 46 0 47 1 32 18 -13 14 -17 38 -17 92 0 54 4 78 17 92 15 17 14 18 -32 18 -46 0 -47 -1 -32 -18 10 -10 17 -33 17 -50 0 -32 -1 -32 -50 -32 -49 0 -50 0 -50 32 0 17 7 40 17 50 15 17 14 18 -32 18 -46 0 -47 -1 -32 -18z"/>
<path d="M6890 6264 c0 -3 11 -19 24 -34 44 -53 42 -166 -5 -216 -27 -29 -19 -43 14 -21 48 31 73 134 48 199 -14 38 -81 97 -81 72z"/>
<path d="M1283 6194 c-18 -8 -16 -44 1 -44 7 0 16 10 20 22 5 22 6 22 23 4 10 -10 14 -20 8 -22 -5 -2 -25 -13 -43 -24 -27 -16 -33 -26 -30 -48 l3 -27 96 -2 96 -2 18 37 c15 29 19 33 23 18 2 -10 -1 -23 -7 -29 -19 -19 -12 -27 24 -27 32 0 35 2 25 19 -12 24 -13 41 -1 41 5 0 14 -13 21 -30 10 -23 19 -30 41 -30 l29 0 -31 43 c-32 46 -31 77 2 77 11 0 19 7 19 16 0 24 -42 13 -56 -14 -19 -39 -34 -49 -34 -25 0 12 5 25 10 28 21 13 9 25 -25 25 -34 0 -46 -12 -25 -25 6 -3 10 -16 10 -28 0 -24 -15 -14 -34 25 -14 27 -56 38 -56 14 0 -9 8 -16 19 -16 30 0 31 -35 3 -76 -14 -21 -27 -33 -30 -26 -2 7 -10 12 -17 12 -10 0 -15 17 -17 58 l-3 57 -35 2 c-19 1 -41 0 -47 -3z m57 -84 c0 -22 -22 -36 -40 -25 -8 5 -6 13 6 26 22 25 34 24 34 -1z"/>
<path d="M1663 6194 c-18 -8 -16 -44 1 -44 7 0 16 10 20 22 5 22 6 22 23 4 10 -10 14 -20 8 -22 -5 -2 -25 -13 -43 -24 -27 -16 -33 -26 -30 -48 3 -26 5 -27 67 -27 43 0 66 4 69 13 2 6 -3 12 -12 12 -11 0 -16 14 -18 58 l-3 57 -35 2 c-19 1 -41 0 -47 -3z m57 -84 c0 -22 -22 -36 -40 -25 -8 5 -6 13 6 26 22 25 34 24 34 -1z"/>
<path d="M1780 6180 c0 -23 15 -27 24 -5 3 8 12 15 21 15 11 0 15 -12 15 -51 0 -28 -5 -59 -10 -70 -10 -17 -7 -19 27 -19 29 0 34 3 25 12 -14 14 -16 128 -3 128 5 0 17 -8 27 -17 13 -13 19 -14 22 -5 2 6 8 12 13 12 12 0 11 -87 -1 -111 -10 -18 -7 -19 39 -19 67 0 81 7 81 40 0 29 -15 40 -56 40 -18 0 -24 5 -24 23 0 13 5 28 12 35 9 9 -13 12 -100 12 -105 0 -112 -1 -112 -20z m235 -77 c16 -16 16 -17 0 -30 -23 -16 -35 -8 -35 23 0 28 12 31 35 7z"/>
<path d="M2170 6190 c0 -5 5 -10 10 -10 13 0 13 -86 0 -111 -10 -17 -7 -19 27 -19 29 0 34 3 25 12 -7 7 -12 26 -12 43 l0 30 23 -40 c16 -29 30 -41 50 -43 l28 -3 -31 43 c-33 47 -32 78 1 78 11 0 19 7 19 16 0 24 -43 13 -55 -13 -5 -13 -15 -25 -22 -27 -17 -7 -17 26 -1 42 9 9 4 12 -25 12 -20 0 -37 -4 -37 -10z"/>
<path d="M2330 6190 c0 -5 5 -10 10 -10 13 0 13 -86 0 -111 -10 -17 -7 -19 27 -19 29 0 34 3 25 12 -7 7 -12 22 -12 35 0 19 5 23 30 23 32 0 38 -16 20 -51 -10 -17 -7 -19 27 -19 29 0 34 3 25 12 -7 7 -12 35 -12 63 0 28 5 56 12 63 9 9 4 12 -25 12 -20 0 -37 -4 -37 -10 0 -5 5 -10 10 -10 6 0 10 -11 10 -25 0 -21 -5 -25 -30 -25 -25 0 -30 4 -30 23 0 13 5 28 12 35 9 9 4 12 -25 12 -20 0 -37 -4 -37 -10z"/>
<path d="M2526 6178 c-22 -31 -20 -91 2 -111 28 -25 87 -22 106 5 22 31 20 91 -2 111 -28 25 -87 22 -106 -5z m84 -32 c15 -47 -5 -91 -36 -79 -18 7 -36 66 -28 89 17 43 48 38 64 -10z"/>
<path d="M2680 6190 c0 -5 5 -10 10 -10 13 0 13 -86 0 -111 -10 -17 -7 -19 27 -19 29 0 34 3 25 12 -7 7 -12 38 -12 70 0 58 0 58 30 58 29 0 30 -1 30 -51 0 -28 -5 -59 -10 -70 -10 -17 -7 -19 27 -19 29 0 34 3 25 12 -7 7 -12 35 -12 63 0 28 5 56 12 63 9 9 -6 12 -70 12 -48 0 -82 -4 -82 -10z"/>
<path d="M2860 6190 c0 -5 5 -10 10 -10 13 0 13 -86 0 -111 -10 -17 -7 -19 27 -19 29 0 34 3 25 12 -7 7 -12 26 -12 43 l0 30 23 -40 c16 -29 30 -41 50 -43 l28 -3 -31 43 c-33 47 -32 78 1 78 11 0 19 7 19 16 0 24 -43 13 -55 -13 -5 -13 -15 -25 -22 -27 -17 -7 -17 26 -1 42 9 9 4 12 -25 12 -20 0 -37 -4 -37 -10z"/>
<path d="M3020 6191 c0 -5 4 -11 9 -13 5 -1 22 -30 39 -63 34 -70 30 -105 -13 -105 -16 0 -25 -6 -25 -15 0 -18 43 -20 58 -2 6 6 25 48 42 92 17 44 39 88 47 98 15 16 14 17 -17 17 -25 0 -30 -3 -23 -12 7 -9 5 -25 -6 -52 l-17 -39 -17 44 c-13 33 -14 45 -4 51 7 4 -6 8 -30 8 -24 0 -43 -4 -43 -9z"/>
<path d="M3296 6166 c-14 -19 -26 -38 -26 -43 1 -14 58 -78 65 -71 4 3 -1 21 -10 39 -16 30 -16 35 -1 66 18 39 19 43 7 43 -5 0 -20 -15 -35 -34z"/>
<path d="M3366 6166 c-14 -19 -26 -38 -26 -43 1 -14 58 -78 65 -71 4 3 -1 21 -10 39 -16 30 -16 35 -1 66 18 39 19 43 7 43 -5 0 -20 -15 -35 -34z"/>
<path d="M5360 6195 c0 -2 7 -20 16 -38 15 -31 15 -36 -1 -66 -9 -18 -14 -36 -10 -39 7 -7 64 57 65 71 0 12 -51 77 -61 77 -5 0 -9 -2 -9 -5z"/>
<path d="M5430 6195 c0 -2 7 -20 16 -38 15 -31 15 -36 -1 -66 -9 -18 -14 -36 -10 -39 7 -7 64 57 65 71 0 12 -51 77 -61 77 -5 0 -9 -2 -9 -5z"/>
<path d="M5900 6190 c0 -5 5 -10 10 -10 11 0 13 -42 4 -77 -4 -14 -14 -23 -25 -23 -11 0 -19 -7 -19 -16 0 -11 8 -14 28 -12 26 3 27 5 30 71 3 64 4 67 27 67 23 0 25 -4 25 -51 0 -28 -5 -59 -10 -70 -10 -17 -7 -19 27 -19 29 0 34 3 25 12 -7 7 -12 35 -12 63 0 28 5 56 12 63 9 9 -3 12 -55 12 -38 0 -67 -4 -67 -10z"/>
<path d="M6066 6178 c-22 -31 -20 -91 2 -111 28 -25 87 -22 106 5 22 31 20 91 -2 111 -28 25 -87 22 -106 -5z m84 -32 c15 -47 -5 -91 -36 -79 -18 7 -36 66 -28 89 17 43 48 38 64 -10z"/>
<path d="M6210 6190 c0 -5 5 -10 10 -10 13 0 13 -86 0 -111 -10 -17 -7 -19 27 -19 29 0 34 3 25 12 -7 7 -12 26 -12 43 l0 30 23 -40 c16 -29 30 -41 50 -43 l28 -3 -31 43 c-33 47 -32 78 1 78 11 0 19 7 19 16 0 24 -43 13 -55 -13 -5 -13 -15 -25 -22 -27 -17 -7 -17 26 -1 42 9 9 4 12 -25 12 -20 0 -37 -4 -37 -10z"/>
<path d="M703 6074 c-8 -21 13 -42 28 -27 13 13 5 43 -11 43 -6 0 -13 -7 -17 -16z"/>
<path d="M543 5624 c-29 -29 -23 -47 6 -20 11 10 28 16 38 14 28 -5 28 -43 -1 -66 l-26 -20 29 -12 c37 -15 45 -43 21 -73 -16 -19 -22 -20 -39 -9 -30 18 -53 15 -49 -5 4 -21 43 -28 81 -14 53 20 71 86 33 123 -11 12 -11 17 0 33 18 25 18 31 -6 55 -27 27 -56 25 -87 -6z"/>
<path d="M11272 5643 c-36 -4 -46 -10 -62 -36 -25 -40 -27 -132 -4 -165 20 -29 85 -31 114 -2 24 24 26 77 4 109 -15 20 -23 23 -65 19 -44 -5 -47 -3 -38 13 5 10 25 21 47 24 20 3 43 10 51 14 20 10 26 31 9 29 -7 -1 -32 -3 -56 -5z m13 -103 c35 -39 13 -120 -28 -104 -9 3 -21 21 -27 40 -10 29 -9 39 4 59 20 30 28 31 51 5z"/>
<path d="M1033 5622 c24 -26 24 -158 0 -184 -15 -17 -14 -18 32 -18 46 0 47 1 32 18 -13 14 -17 39 -17 105 l0 87 50 0 50 0 0 -87 c0 -66 -4 -91 -17 -105 -15 -17 -14 -18 32 -18 46 0 47 1 32 18 -24 26 -24 158 0 184 15 17 12 18 -97 18 -109 0 -112 -1 -97 -18z"/>
<path d="M9963 5622 c13 -14 17 -38 17 -92 0 -54 -4 -78 -17 -92 -15 -17 -13 -18 69 -18 70 0 88 3 101 18 23 26 21 68 -3 85 -18 12 -18 15 -5 20 20 8 20 61 -1 81 -11 12 -36 16 -96 16 -78 0 -80 -1 -65 -18z m105 -3 c17 -6 33 -16 36 -24 8 -23 -18 -47 -54 -48 -33 -2 -35 0 -38 32 -3 27 7 48 24 51 1 0 15 -5 32 -11z m29 -111 c21 -17 11 -51 -20 -66 -43 -21 -67 -8 -67 37 0 21 3 41 7 45 10 10 62 -1 80 -16z"/>
<path d="M10183 5622 c13 -14 17 -38 17 -92 0 -54 -4 -78 -17 -92 -15 -17 -14 -18 32 -18 46 0 47 1 32 18 -18 19 -24 82 -8 82 5 0 24 -22 42 -50 l34 -49 62 -1 c82 0 93 14 93 127 l0 83 30 0 30 0 0 -87 c0 -66 -4 -91 -17 -105 -15 -17 -14 -18 32 -18 46 0 47 1 32 18 -13 14 -17 38 -17 92 0 54 4 78 17 92 15 17 13 18 -72 18 -87 0 -88 0 -70 -20 15 -17 17 -31 12 -86 -7 -71 -19 -96 -44 -87 -8 3 -19 0 -23 -7 -10 -17 -26 -5 -70 50 l-29 36 22 45 c18 35 27 43 45 41 15 -2 22 2 22 12 0 11 -9 16 -30 16 -24 0 -33 -6 -42 -27 -13 -32 -47 -73 -60 -73 -15 0 -8 63 9 82 15 17 14 18 -32 18 -46 0 -47 -1 -32 -18z"/>
<path d="M12103 5622 c13 -14 17 -38 17 -92 0 -54 -4 -78 -17 -92 -15 -17 -14 -18 31 -18 43 0 46 1 32 16 -9 8 -16 31 -16 50 0 33 1 34 38 34 46 0 62 14 62 56 0 50 -21 64 -97 64 -63 0 -65 -1 -50 -18z m91 -8 c22 -22 20 -61 -4 -74 -29 -15 -40 -5 -40 39 0 53 15 65 44 35z"/>
<path d="M12280 5613 l0 -27 20 22 c12 12 30 22 40 22 18 0 20 -7 20 -87 0 -66 -4 -91 -17 -105 -15 -17 -14 -18 31 -18 43 0 46 1 32 16 -12 12 -16 37 -16 105 0 82 2 89 20 89 10 0 28 -10 40 -22 l20 -22 0 27 0 27 -95 0 -95 0 0 -27z"/>
<path d="M1276 5548 c-22 -31 -20 -91 2 -111 28 -25 87 -22 106 5 22 31 20 91 -2 111 -28 25 -87 22 -106 -5z m84 -32 c15 -47 -5 -91 -36 -79 -18 7 -36 66 -28 89 17 43 48 38 64 -10z"/>
<path d="M1450 5562 c0 -4 4 -12 10 -18 13 -13 -5 -85 -24 -100 -9 -6 -16 -23 -16 -38 l0 -27 26 20 c34 27 74 27 109 -1 l28 -22 -7 35 c-16 74 -18 130 -6 144 11 13 3 15 -54 15 -36 0 -66 -4 -66 -8z m78 -64 l-3 -63 -34 -3 c-29 -3 -33 -1 -26 15 5 10 10 39 13 66 3 42 6 47 28 47 24 0 25 -2 22 -62z"/>
<path d="M1623 5564 c-18 -8 -16 -44 1 -44 7 0 16 10 20 22 5 22 6 22 23 4 10 -10 14 -20 8 -22 -5 -2 -25 -13 -43 -24 -27 -16 -33 -26 -30 -48 3 -26 5 -27 67 -27 43 0 66 4 69 13 2 6 -3 12 -12 12 -11 0 -16 14 -18 58 l-3 57 -35 2 c-19 1 -41 0 -47 -3z m57 -84 c0 -22 -22 -36 -40 -25 -8 5 -6 13 6 26 22 25 34 24 34 -1z"/>
<path d="M1740 5550 c0 -23 15 -27 24 -5 3 8 12 15 21 15 11 0 15 -12 15 -51 0 -28 -5 -59 -10 -70 -10 -17 -7 -19 27 -19 29 0 34 3 25 12 -14 14 -16 128 -3 128 5 0 17 -8 27 -17 13 -13 19 -14 22 -5 2 6 8 12 13 12 12 0 11 -87 -1 -111 -10 -18 -7 -19 39 -19 67 0 81 7 81 40 0 29 -15 40 -56 40 -18 0 -24 5 -24 23 0 13 5 28 12 35 9 9 -13 12 -100 12 -105 0 -112 -1 -112 -20z m235 -77 c16 -16 16 -17 0 -30 -23 -16 -35 -8 -35 23 0 28 12 31 35 7z"/>
<path d="M2130 5560 c0 -5 5 -10 10 -10 13 0 13 -86 0 -111 -10 -17 -7 -19 27 -19 29 0 34 3 25 12 -7 7 -12 22 -12 35 0 19 5 23 30 23 32 0 38 -16 20 -51 -10 -17 -7 -19 27 -19 29 0 34 3 25 12 -7 7 -12 35 -12 63 0 28 5 56 12 63 9 9 4 12 -25 12 -20 0 -37 -4 -37 -10 0 -5 5 -10 10 -10 6 0 10 -11 10 -25 0 -21 -5 -25 -30 -25 -25 0 -30 4 -30 23 0 13 5 28 12 35 9 9 4 12 -25 12 -20 0 -37 -4 -37 -10z"/>
<path d="M2333 5564 c-18 -8 -16 -44 1 -44 7 0 16 10 20 22 5 22 6 22 23 4 10 -10 14 -20 8 -22 -5 -2 -25 -13 -43 -24 -27 -16 -33 -26 -30 -48 3 -26 5 -27 67 -27 43 0 66 4 69 13 2 6 -3 12 -12 12 -11 0 -16 14 -18 58 l-3 57 -35 2 c-19 1 -41 0 -47 -3z m57 -84 c0 -22 -22 -36 -40 -25 -8 5 -6 13 6 26 22 25 34 24 34 -1z"/>
<path d="M2460 5560 c0 -5 5 -10 10 -10 13 0 13 -86 0 -111 -10 -17 -7 -19 27 -19 29 0 34 3 25 12 -7 7 -12 38 -12 70 0 58 0 58 30 58 29 0 30 -1 30 -51 0 -28 -5 -59 -10 -70 -10 -17 -7 -19 27 -19 29 0 34 3 25 12 -7 7 -12 35 -12 63 0 28 5 56 12 63 9 9 -6 12 -70 12 -48 0 -82 -4 -82 -10z"/>
<path d="M2640 5560 c-12 -7 -12 -12 -2 -22 15 -15 16 -141 2 -169 -10 -17 -7 -19 27 -19 29 0 34 3 25 12 -7 7 -12 22 -12 35 0 19 5 23 33 23 20 0 41 8 50 18 19 21 22 83 7 113 -12 22 -59 26 -78 7 -9 -9 -12 -9 -12 0 0 14 -19 15 -40 2z m103 -70 c0 -17 -7 -39 -17 -48 -16 -16 -18 -16 -32 2 -20 28 -18 83 4 95 24 14 45 -10 45 -49z"/>
<path d="M2817 5563 c-12 -12 -7 -50 8 -63 12 -10 11 -17 -11 -46 l-26 -34 23 0 c16 0 32 12 49 37 18 26 26 32 28 20 2 -9 -2 -25 -8 -36 -10 -19 -8 -21 27 -21 29 0 34 3 25 12 -7 7 -12 35 -12 63 0 28 5 56 12 63 9 9 -1 12 -48 12 -34 0 -64 -3 -67 -7z m73 -39 c0 -28 -12 -31 -35 -7 -16 16 -16 17 0 30 23 16 35 8 35 -23z"/>
<path d="M2960 5556 c0 -9 8 -16 19 -16 32 0 32 -36 0 -80 l-29 -40 28 0 c23 0 32 7 47 38 14 29 19 33 23 18 2 -10 -1 -23 -7 -29 -19 -19 -12 -27 24 -27 32 0 35 2 25 19 -12 24 -13 41 -1 41 5 0 14 -13 21 -30 10 -23 19 -30 41 -30 l29 0 -31 43 c-32 46 -31 77 2 77 11 0 19 7 19 16 0 24 -42 13 -56 -14 -19 -39 -34 -49 -34 -25 0 12 5 25 10 28 21 13 9 25 -25 25 -34 0 -46 -12 -25 -25 6 -3 10 -16 10 -28 0 -24 -15 -14 -34 25 -14 27 -56 38 -56 14z"/>
<path d="M3207 5552 c-22 -24 -22 -95 -1 -116 18 -19 75 -21 92 -4 7 7 12 20 12 31 0 17 -2 17 -22 3 -28 -20 -33 -20 -52 0 -30 29 -20 44 29 44 37 0 45 3 45 18 0 10 -5 23 -12 30 -18 18 -73 14 -91 -6z m67 -18 c4 -10 -3 -14 -24 -14 -32 0 -37 9 -19 27 14 14 35 7 43 -13z"/>
<path d="M3330 5560 c0 -5 5 -10 10 -10 13 0 13 -86 0 -111 -10 -17 -7 -19 27 -19 29 0 34 3 25 12 -7 7 -12 22 -12 35 0 19 5 23 30 23 32 0 38 -16 20 -51 -10 -17 -7 -19 27 -19 29 0 34 3 25 12 -7 7 -12 35 -12 63 0 28 5 56 12 63 9 9 4 12 -25 12 -20 0 -37 -4 -37 -10 0 -5 5 -10 10 -10 6 0 10 -11 10 -25 0 -21 -5 -25 -30 -25 -25 0 -30 4 -30 23 0 13 5 28 12 35 9 9 4 12 -25 12 -20 0 -37 -4 -37 -10z"/>
<path d="M3510 5560 c0 -5 5 -10 10 -10 13 0 13 -86 0 -111 -10 -17 -7 -19 26 -19 28 0 34 3 26 13 -8 9 -2 21 19 45 l29 32 0 -25 c0 -15 -5 -35 -10 -46 -10 -17 -7 -19 27 -19 29 0 34 3 25 12 -7 7 -12 35 -12 63 0 28 5 56 12 63 9 9 4 12 -26 12 -31 0 -37 -3 -32 -16 4 -9 -4 -28 -19 -46 l-25 -30 0 34 c0 19 5 39 12 46 9 9 4 12 -25 12 -20 0 -37 -4 -37 -10z"/>
<path d="M3707 5552 c-22 -24 -22 -95 -1 -116 18 -19 75 -21 92 -4 7 7 12 20 12 31 0 17 -2 17 -22 3 -28 -20 -33 -20 -52 0 -30 29 -20 44 29 44 37 0 45 3 45 18 0 10 -5 23 -12 30 -18 18 -73 14 -91 -6z m67 -18 c4 -10 -3 -14 -24 -14 -32 0 -37 9 -19 27 14 14 35 7 43 -13z"/>
<path d="M3920 5560 c0 -5 5 -10 10 -10 13 0 13 -86 0 -111 -10 -17 -7 -19 27 -19 29 0 34 3 25 12 -7 7 -12 22 -12 35 0 19 5 23 30 23 32 0 38 -16 20 -51 -10 -17 -7 -19 27 -19 29 0 34 3 25 12 -7 7 -12 35 -12 63 0 28 5 56 12 63 9 9 4 12 -25 12 -20 0 -37 -4 -37 -10 0 -5 5 -10 10 -10 6 0 10 -11 10 -25 0 -21 -5 -25 -30 -25 -25 0 -30 4 -30 23 0 13 5 28 12 35 9 9 4 12 -25 12 -20 0 -37 -4 -37 -10z"/>
<path d="M4123 5564 c-18 -8 -16 -44 1 -44 7 0 16 10 20 22 5 22 6 22 23 4 10 -10 14 -20 8 -22 -5 -2 -25 -13 -43 -24 -27 -16 -33 -26 -30 -48 3 -26 5 -27 67 -27 43 0 66 4 69 13 2 6 -3 12 -12 12 -11 0 -16 14 -18 58 l-3 57 -35 2 c-19 1 -41 0 -47 -3z m57 -84 c0 -22 -22 -36 -40 -25 -8 5 -6 13 6 26 22 25 34 24 34 -1z"/>
<path d="M4320 5550 c0 -23 15 -27 24 -5 3 8 12 15 21 15 11 0 15 -12 15 -51 0 -28 -5 -59 -10 -70 -10 -17 -7 -19 27 -19 29 0 34 3 25 12 -14 14 -17 128 -4 128 24 0 52 -39 52 -73 0 -44 22 -67 64 -67 36 0 56 15 56 43 0 17 -2 17 -22 3 -28 -20 -33 -20 -52 0 -30 29 -20 44 29 44 37 0 45 3 45 18 0 42 -66 58 -102 25 -17 -15 -18 -15 -18 0 0 14 -12 17 -75 17 -68 0 -75 -2 -75 -20z m234 -16 c4 -10 -3 -14 -24 -14 -32 0 -37 9 -19 27 14 14 35 7 43 -13z"/>
<path d="M4620 5560 c-12 -7 -12 -12 -2 -22 15 -15 16 -141 2 -169 -10 -17 -7 -19 27 -19 29 0 34 3 25 12 -7 7 -12 22 -12 35 0 19 5 23 33 23 20 0 41 8 50 18 19 21 22 83 7 113 -12 22 -59 26 -78 7 -9 -9 -12 -9 -12 0 0 14 -19 15 -40 2z m103 -70 c0 -17 -7 -39 -17 -48 -16 -16 -18 -16 -32 2 -20 28 -18 83 4 95 24 14 45 -10 45 -49z"/>
<path d="M4790 5560 c0 -5 5 -10 10 -10 13 0 13 -86 0 -111 -9 -17 -7 -19 16 -19 22 0 24 3 15 14 -7 8 -11 32 -9 53 l3 38 19 -52 c11 -29 25 -53 31 -53 6 0 20 24 31 53 18 50 19 51 22 20 2 -18 -2 -41 -8 -53 -10 -18 -8 -20 27 -20 29 0 34 3 25 12 -7 7 -12 35 -12 63 0 28 5 56 12 63 9 9 5 12 -19 12 -27 0 -32 -5 -50 -50 l-19 -51 -18 51 c-16 44 -21 50 -47 50 -16 0 -29 -4 -29 -10z"/>
<path d="M5016 5548 c-22 -31 -20 -91 2 -111 28 -25 87 -22 106 5 22 31 20 91 -2 111 -28 25 -87 22 -106 -5z m84 -32 c15 -47 -5 -91 -36 -79 -18 7 -36 66 -28 89 17 43 48 38 64 -10z"/>
<path d="M5160 5560 c-12 -7 -12 -12 -2 -22 15 -15 16 -141 2 -169 -10 -17 -7 -19 27 -19 29 0 34 3 25 12 -7 7 -12 22 -12 35 0 19 5 23 33 23 20 0 41 8 50 18 19 21 22 83 7 113 -12 22 -59 26 -78 7 -9 -9 -12 -9 -12 0 0 14 -19 15 -40 2z m103 -70 c0 -17 -7 -39 -17 -48 -16 -16 -18 -16 -32 2 -20 28 -18 83 4 95 24 14 45 -10 45 -49z"/>
<path d="M5347 5552 c-22 -24 -22 -95 -1 -116 18 -19 75 -21 92 -4 7 7 12 20 12 31 0 17 -2 17 -22 3 -28 -20 -33 -20 -52 0 -30 29 -20 44 29 44 37 0 45 3 45 18 0 10 -5 23 -12 30 -18 18 -73 14 -91 -6z m67 -18 c4 -10 -3 -14 -24 -14 -32 0 -37 9 -19 27 14 14 35 7 43 -13z"/>
<path d="M5480 5560 c0 -5 5 -10 10 -10 13 0 13 -86 0 -111 -10 -17 -7 -19 27 -19 29 0 34 3 25 12 -7 7 -12 38 -12 70 0 61 13 74 44 43 20 -20 26 -19 26 5 0 18 -7 20 -60 20 -33 0 -60 -4 -60 -10z"/>
<path d="M5610 5561 c0 -5 4 -11 9 -13 5 -1 22 -30 39 -63 34 -70 30 -105 -13 -105 -16 0 -25 -6 -25 -15 0 -18 43 -20 58 -2 6 6 25 48 42 92 17 44 39 88 47 98 15 16 14 17 -17 17 -25 0 -30 -3 -23 -12 7 -9 5 -25 -6 -52 l-17 -39 -17 44 c-13 33 -14 45 -4 51 7 4 -6 8 -30 8 -24 0 -43 -4 -43 -9z"/>
<path d="M5800 5560 c0 -5 5 -10 10 -10 11 0 13 -42 4 -77 -4 -14 -14 -23 -25 -23 -11 0 -19 -7 -19 -16 0 -11 8 -14 28 -12 26 3 27 5 30 71 3 64 4 67 27 67 23 0 25 -4 25 -51 0 -28 -5 -59 -10 -70 -10 -17 -7 -19 27 -19 29 0 34 3 25 12 -7 7 -12 35 -12 63 0 28 5 56 12 63 9 9 -3 12 -55 12 -38 0 -67 -4 -67 -10z"/>
<path d="M5967 5563 c-12 -12 -7 -50 8 -63 12 -10 11 -17 -11 -46 l-26 -34 23 0 c16 0 32 12 49 37 18 26 26 32 28 20 2 -9 -2 -25 -8 -36 -10 -19 -8 -21 27 -21 29 0 34 3 25 12 -14 14 -16 114 -2 123 6 3 10 -1 10 -9 0 -20 16 -21 24 -1 3 8 12 15 21 15 11 0 15 -12 15 -51 0 -28 -5 -59 -10 -70 -10 -17 -7 -19 27 -19 29 0 34 3 25 12 -14 14 -16 128 -3 128 5 0 16 -7 25 -15 20 -20 26 -19 26 5 0 19 -7 20 -133 20 -74 0 -137 -3 -140 -7z m73 -39 c0 -28 -12 -31 -35 -7 -16 16 -16 17 0 30 23 16 35 8 35 -23z"/>
<path d="M6266 5548 c-22 -31 -20 -91 2 -111 28 -25 87 -22 106 5 22 31 20 91 -2 111 -28 25 -87 22 -106 -5z m84 -32 c15 -47 -5 -91 -36 -79 -18 7 -36 66 -28 89 17 43 48 38 64 -10z"/>
<path d="M6410 5560 c-12 -7 -12 -12 -2 -22 15 -15 16 -141 2 -169 -10 -17 -7 -19 27 -19 29 0 34 3 25 12 -7 7 -12 22 -12 35 0 19 5 23 33 23 20 0 41 8 50 18 19 21 22 83 7 113 -12 22 -59 26 -78 7 -9 -9 -12 -9 -12 0 0 14 -19 15 -40 2z m103 -70 c0 -17 -7 -39 -17 -48 -16 -16 -18 -16 -32 2 -20 28 -18 83 4 95 24 14 45 -10 45 -49z"/>
<path d="M6750 5560 c0 -5 5 -10 10 -10 13 0 13 -86 0 -111 -10 -17 -7 -19 27 -19 29 0 34 3 25 12 -7 7 -12 26 -12 43 l0 30 23 -40 c22 -39 24 -40 77 -40 l55 0 3 68 c3 64 4 67 27 67 23 0 25 -4 25 -51 0 -28 -5 -59 -10 -70 -10 -17 -7 -19 27 -19 29 0 34 3 25 12 -7 7 -12 35 -12 63 0 28 5 56 12 63 9 9 -3 12 -55 12 -38 0 -67 -4 -67 -10 0 -5 5 -10 10 -10 11 0 13 -42 4 -77 -4 -13 -14 -23 -24 -23 -10 0 -20 -6 -22 -12 -3 -7 -17 6 -32 28 -29 44 -27 74 5 74 11 0 19 7 19 16 0 24 -43 13 -55 -13 -5 -13 -15 -25 -22 -27 -17 -7 -17 26 -1 42 9 9 4 12 -25 12 -20 0 -37 -4 -37 -10z"/>
<path d="M7103 5564 c-18 -8 -16 -44 1 -44 7 0 16 10 20 22 5 22 6 22 23 4 10 -10 14 -20 8 -22 -5 -2 -25 -13 -43 -24 -27 -16 -33 -26 -30 -48 3 -26 5 -27 67 -27 43 0 66 4 69 13 2 6 -3 12 -12 12 -11 0 -16 14 -18 58 l-3 57 -35 2 c-19 1 -41 0 -47 -3z m57 -84 c0 -22 -22 -36 -40 -25 -8 5 -6 13 6 26 22 25 34 24 34 -1z"/>
<path d="M7220 5560 c0 -5 5 -10 10 -10 13 0 13 -86 -1 -111 -10 -19 -7 -20 53 -17 58 3 63 5 66 27 3 15 -3 30 -14 38 -10 8 -13 13 -5 13 8 0 11 11 9 33 -3 32 -4 32 -60 35 -36 2 -58 -1 -58 -8z m84 -34 c-3 -8 -12 -17 -20 -20 -10 -4 -14 3 -14 25 0 26 2 29 20 19 11 -6 17 -17 14 -24z m1 -53 c16 -16 16 -17 0 -30 -23 -16 -35 -8 -35 23 0 28 12 31 35 7z"/>
<path d="M7380 5560 c0 -5 5 -10 10 -10 13 0 13 -86 0 -111 -10 -17 -7 -19 26 -19 28 0 34 3 26 13 -8 9 -2 21 19 45 l29 32 0 -25 c0 -15 -5 -35 -10 -46 -10 -17 -7 -19 27 -19 29 0 34 3 25 12 -7 7 -12 35 -12 63 0 28 5 56 12 63 9 9 4 12 -26 12 -31 0 -37 -3 -32 -16 4 -9 -4 -28 -19 -46 l-25 -30 0 34 c0 19 5 39 12 46 9 9 4 12 -25 12 -20 0 -37 -4 -37 -10z"/>
<path d="M7560 5560 c0 -5 5 -10 10 -10 13 0 13 -86 0 -111 -10 -18 -6 -19 107 -19 91 0 114 3 105 12 -7 7 -12 35 -12 63 0 28 5 56 12 63 9 9 4 12 -25 12 -20 0 -37 -4 -37 -10 0 -5 5 -10 10 -10 7 0 10 -22 8 -57 -3 -50 -6 -58 -23 -58 -17 0 -20 8 -23 53 -2 31 2 60 9 68 9 12 5 14 -25 14 -20 0 -36 -4 -36 -10 0 -5 5 -10 10 -10 12 0 13 -90 1 -109 -5 -8 -16 -11 -25 -8 -20 8 -23 106 -4 125 9 9 4 12 -25 12 -20 0 -37 -4 -37 -10z"/>
<path d="M7810 5561 c0 -5 4 -11 9 -13 5 -1 22 -30 39 -63 34 -70 30 -105 -13 -105 -16 0 -25 -6 -25 -15 0 -18 43 -20 58 -2 6 6 25 48 42 92 17 44 39 88 47 98 15 16 14 17 -17 17 -25 0 -30 -3 -23 -12 7 -9 5 -25 -6 -52 l-17 -39 -17 44 c-13 33 -14 45 -4 51 7 4 -6 8 -30 8 -24 0 -43 -4 -43 -9z"/>
<path d="M8060 5560 c0 -5 5 -10 10 -10 13 0 13 -86 -1 -111 -10 -19 -7 -20 53 -17 58 3 63 5 66 27 3 15 -3 30 -14 38 -10 8 -13 13 -5 13 8 0 11 11 9 33 -3 32 -4 32 -60 35 -36 2 -58 -1 -58 -8z m84 -34 c-3 -8 -12 -17 -20 -20 -10 -4 -14 3 -14 25 0 26 2 29 20 19 11 -6 17 -17 14 -24z m1 -53 c16 -16 16 -17 0 -30 -23 -16 -35 -8 -35 23 0 28 12 31 35 7z"/>
<path d="M8300 5560 c0 -5 5 -10 10 -10 13 0 13 -86 0 -111 -10 -17 -7 -19 27 -19 29 0 34 3 25 12 -7 7 -12 38 -12 70 0 58 0 58 30 58 29 0 30 -1 30 -51 0 -28 -5 -59 -10 -70 -10 -17 -7 -19 27 -19 29 0 34 3 25 12 -7 7 -12 35 -12 63 0 28 5 56 12 63 9 9 -6 12 -70 12 -48 0 -82 -4 -82 -10z"/>
<path d="M8496 5548 c-22 -31 -20 -91 2 -111 28 -25 87 -22 106 5 22 31 20 91 -2 111 -28 25 -87 22 -106 -5z m84 -32 c15 -47 -5 -91 -36 -79 -18 7 -36 66 -28 89 17 43 48 38 64 -10z"/>
<path d="M8670 5560 c0 -5 5 -10 10 -10 11 0 13 -42 4 -77 -4 -14 -14 -23 -25 -23 -11 0 -19 -7 -19 -16 0 -11 8 -14 28 -12 26 3 27 5 30 71 3 64 4 67 27 67 23 0 25 -4 25 -51 0 -28 -5 -59 -10 -70 -10 -17 -7 -19 27 -19 29 0 34 3 25 12 -7 7 -12 35 -12 63 0 28 5 56 12 63 9 9 -3 12 -55 12 -38 0 -67 -4 -67 -10z"/>
<path d="M8836 5548 c-22 -31 -20 -91 2 -111 28 -25 87 -22 106 5 22 31 20 91 -2 111 -28 25 -87 22 -106 -5z m84 -32 c15 -47 -5 -91 -36 -79 -18 7 -36 66 -28 89 17 43 48 38 64 -10z"/>
<path d="M8980 5556 c0 -9 8 -16 19 -16 32 0 32 -36 0 -80 l-29 -40 28 0 c23 0 32 7 47 38 14 29 19 33 23 18 2 -10 -1 -23 -7 -29 -19 -19 -12 -27 24 -27 32 0 35 2 25 19 -12 24 -13 41 -1 41 5 0 14 -13 21 -30 10 -23 19 -30 41 -30 l29 0 -31 43 c-32 46 -31 77 2 77 11 0 19 7 19 16 0 24 -42 13 -56 -14 -19 -39 -34 -49 -34 -25 0 12 5 25 10 28 21 13 9 25 -25 25 -34 0 -46 -12 -25 -25 6 -3 10 -16 10 -28 0 -24 -15 -14 -34 25 -14 27 -56 38 -56 14z"/>
<path d="M9227 5552 c-22 -24 -22 -95 -1 -116 18 -19 75 -21 92 -4 7 7 12 20 12 31 0 17 -2 17 -22 3 -28 -20 -33 -20 -52 0 -30 29 -20 44 29 44 37 0 45 3 45 18 0 10 -5 23 -12 30 -18 18 -73 14 -91 -6z m67 -18 c4 -10 -3 -14 -24 -14 -32 0 -37 9 -19 27 14 14 35 7 43 -13z"/>
<path d="M9360 5560 c0 -5 5 -10 10 -10 13 0 13 -86 0 -111 -10 -17 -7 -19 27 -19 29 0 34 3 25 12 -7 7 -12 22 -12 35 0 19 5 23 30 23 32 0 38 -16 20 -51 -10 -17 -7 -19 27 -19 29 0 34 3 25 12 -7 7 -12 35 -12 63 0 28 5 56 12 63 9 9 4 12 -25 12 -20 0 -37 -4 -37 -10 0 -5 5 -10 10 -10 6 0 10 -11 10 -25 0 -21 -5 -25 -30 -25 -25 0 -30 4 -30 23 0 13 5 28 12 35 9 9 4 12 -25 12 -20 0 -37 -4 -37 -10z"/>
<path d="M9540 5560 c0 -5 5 -10 10 -10 13 0 13 -86 0 -111 -10 -17 -7 -19 26 -19 28 0 34 3 26 13 -8 9 -2 21 19 45 l29 32 0 -25 c0 -15 -5 -35 -10 -46 -10 -17 -7 -19 27 -19 29 0 34 3 25 12 -7 7 -12 35 -12 63 0 28 5 56 12 63 9 9 4 12 -26 12 -31 0 -37 -3 -32 -16 4 -9 -4 -28 -19 -46 l-25 -30 0 34 c0 19 5 39 12 46 9 9 4 12 -25 12 -20 0 -37 -4 -37 -10z"/>
<path d="M9737 5552 c-22 -24 -22 -95 -1 -116 18 -19 75 -21 92 -4 7 7 12 20 12 31 0 17 -2 17 -22 3 -28 -20 -33 -20 -52 0 -30 29 -20 44 29 44 37 0 45 3 45 18 0 10 -5 23 -12 30 -18 18 -73 14 -91 -6z m67 -18 c4 -10 -3 -14 -24 -14 -32 0 -37 9 -19 27 14 14 35 7 43 -13z"/>
<path d="M10780 5560 c0 -5 5 -10 10 -10 13 0 13 -86 0 -111 -10 -17 -7 -19 27 -19 29 0 34 3 25 12 -7 7 -12 22 -12 35 0 19 5 23 30 23 32 0 38 -16 20 -51 -10 -17 -7 -19 27 -19 29 0 34 3 25 12 -7 7 -12 35 -12 63 0 28 5 56 12 63 9 9 4 12 -25 12 -20 0 -37 -4 -37 -10 0 -5 5 -10 10 -10 6 0 10 -11 10 -25 0 -21 -5 -25 -30 -25 -25 0 -30 4 -30 23 0 13 5 28 12 35 9 9 4 12 -25 12 -20 0 -37 -4 -37 -10z"/>
<path d="M10983 5564 c-18 -8 -16 -44 1 -44 7 0 16 10 20 22 5 22 6 22 23 4 10 -10 14 -20 8 -22 -5 -2 -25 -13 -43 -24 -27 -16 -33 -26 -30 -48 3 -26 5 -27 67 -27 43 0 66 4 69 13 2 6 -3 12 -12 12 -11 0 -16 14 -18 58 l-3 57 -35 2 c-19 1 -41 0 -47 -3z m57 -84 c0 -22 -22 -36 -40 -25 -8 5 -6 13 6 26 22 25 34 24 34 -1z"/>
<path d="M11380 5560 c0 -5 5 -10 10 -10 11 0 13 -42 4 -77 -4 -14 -14 -23 -25 -23 -11 0 -19 -7 -19 -16 0 -11 8 -14 28 -12 26 3 27 5 30 71 3 64 4 67 27 67 23 0 25 -4 25 -51 0 -28 -5 -59 -10 -70 -10 -17 -7 -19 27 -19 29 0 34 3 25 12 -7 7 -12 35 -12 63 0 28 5 56 12 63 9 9 -3 12 -55 12 -38 0 -67 -4 -67 -10z"/>
<path d="M11546 5548 c-22 -31 -20 -91 2 -111 28 -25 87 -22 106 5 22 31 20 91 -2 111 -28 25 -87 22 -106 -5z m84 -32 c15 -47 -5 -91 -36 -79 -18 7 -36 66 -28 89 17 43 48 38 64 -10z"/>
<path d="M11700 5560 c0 -5 5 -10 10 -10 13 0 13 -86 0 -111 -10 -17 -7 -19 27 -19 29 0 34 3 25 12 -7 7 -12 26 -12 43 l0 30 23 -40 c16 -29 30 -41 50 -43 l28 -3 -31 43 c-33 47 -32 78 1 78 11 0 19 7 19 16 0 24 -43 13 -55 -13 -5 -13 -15 -25 -22 -27 -17 -7 -17 26 -1 42 9 9 4 12 -25 12 -20 0 -37 -4 -37 -10z"/>
<path d="M11877 5552 c-22 -24 -22 -95 -1 -116 18 -19 75 -21 92 -4 7 7 12 20 12 31 0 17 -2 17 -22 3 -28 -20 -33 -20 -52 0 -30 29 -20 44 29 44 37 0 45 3 45 18 0 10 -5 23 -12 30 -18 18 -73 14 -91 -6z m67 -18 c4 -10 -3 -14 -24 -14 -32 0 -37 9 -19 27 14 14 35 7 43 -13z"/>
<path d="M703 5444 c-8 -21 13 -42 28 -27 13 13 5 43 -11 43 -6 0 -13 -7 -17 -16z"/>
<path d="M6580 5435 c0 -9 9 -15 22 -15 l21 0 -23 -25 c-17 -18 -19 -25 -9 -25 23 0 39 21 39 52 0 23 -4 28 -25 28 -16 0 -25 -6 -25 -15z"/>
<path d="M10630 5435 c0 -8 7 -15 15 -15 8 0 15 7 15 15 0 8 -7 15 -15 15 -8 0 -15 -7 -15 -15z"/>
<path d="M12490 5435 c0 -8 7 -15 15 -15 8 0 15 7 15 15 0 8 -7 15 -15 15 -8 0 -15 -7 -15 -15z"/>
<path d="M563 5186 c-66 -94 -67 -106 -8 -106 41 0 45 -2 45 -25 0 -18 5 -25 20 -25 15 0 20 7 20 25 0 16 6 25 15 25 8 0 15 7 15 15 0 8 -7 15 -15 15 -12 0 -15 15 -15 75 0 53 -4 75 -12 75 -7 0 -37 -34 -65 -74z m34 -73 c-3 -2 -17 -3 -31 -1 l-26 3 27 40 28 40 3 -39 c2 -21 1 -40 -1 -43z"/>
<path d="M2478 5253 c-22 -6 -23 -19 -3 -27 8 -3 15 -15 15 -26 0 -16 -7 -20 -30 -20 -35 0 -50 -23 -50 -75 0 -52 15 -75 50 -75 32 0 38 -16 20 -51 -10 -17 -7 -19 27 -19 29 0 34 3 25 12 -7 7 -12 22 -12 35 0 19 5 23 30 23 35 0 50 23 50 75 0 52 -15 75 -50 75 -28 0 -30 2 -30 40 0 40 -4 43 -42 33z m12 -148 c0 -55 -25 -80 -40 -40 -5 14 -10 32 -10 40 0 8 5 26 10 40 15 40 40 15 40 -40z m74 1 c1 -49 -6 -61 -29 -53 -18 8 -21 87 -3 105 19 19 31 -2 32 -52z"/>
<path d="M8787 5237 c-30 -25 -57 -83 -57 -124 1 -36 31 -103 59 -127 30 -27 39 -11 10 20 -21 23 -24 35 -24 104 0 66 4 83 23 110 29 39 25 46 -11 17z"/>
<path d="M8940 5255 c0 -3 10 -20 23 -36 18 -26 22 -43 22 -109 0 -69 -3 -81 -24 -104 -34 -36 -17 -46 19 -11 55 53 63 140 20 211 -19 30 -60 64 -60 49z"/>
<path d="M1050 5221 c-26 -25 -30 -37 -30 -81 0 -44 4 -56 29 -81 25 -24 38 -29 78 -29 40 0 54 5 73 25 28 29 19 46 -10 20 -11 -10 -34 -18 -50 -18 -81 0 -106 122 -35 169 23 15 27 15 51 -1 15 -9 29 -26 31 -36 9 -34 24 -20 21 19 l-3 37 -63 3 c-58 3 -64 1 -92 -27z"/>
<path d="M8520 5220 c0 -34 15 -40 25 -10 4 13 15 20 31 20 24 0 24 -1 24 -90 0 -74 -3 -91 -17 -99 -14 -8 -5 -10 37 -10 42 0 51 2 38 10 -15 8 -18 25 -18 99 l0 90 26 0 c17 0 28 -6 31 -20 8 -30 23 -24 23 10 l0 30 -100 0 -100 0 0 -30z"/>
<path d="M8850 5197 c-16 -21 -20 -32 -12 -35 8 -2 12 -25 12 -62 0 -38 5 -62 15 -70 17 -14 51 -5 59 16 5 12 2 15 -11 10 -22 -9 -33 10 -33 62 0 35 3 42 20 42 11 0 20 5 20 10 0 6 -9 10 -19 10 -13 0 -21 8 -23 23 -3 23 -3 23 -28 -6z"/>
<path d="M1250 5170 c0 -5 5 -10 10 -10 13 0 13 -86 0 -111 -10 -17 -7 -19 27 -19 29 0 34 3 25 12 -7 7 -12 22 -12 35 0 19 5 23 30 23 32 0 38 -16 20 -51 -10 -17 -7 -19 27 -19 29 0 34 3 25 12 -7 7 -12 35 -12 63 0 28 5 56 12 63 9 9 4 12 -25 12 -20 0 -37 -4 -37 -10 0 -5 5 -10 10 -10 6 0 10 -11 10 -25 0 -21 -5 -25 -30 -25 -25 0 -30 4 -30 23 0 13 5 28 12 35 9 9 4 12 -25 12 -20 0 -37 -4 -37 -10z"/>
<path d="M1447 5173 c-12 -12 -7 -50 8 -63 12 -10 11 -17 -11 -46 l-26 -34 23 0 c16 0 32 12 49 37 18 26 26 32 28 20 2 -9 -2 -25 -8 -36 -10 -19 -8 -21 27 -21 29 0 34 3 25 12 -14 14 -16 114 -2 123 6 3 10 -1 10 -9 0 -20 16 -21 24 -1 3 8 12 15 21 15 11 0 15 -12 15 -51 0 -28 -5 -59 -10 -70 -10 -17 -7 -19 27 -19 29 0 34 3 25 12 -14 14 -16 128 -3 128 5 0 16 -7 25 -15 20 -20 26 -19 26 5 0 19 -7 20 -133 20 -74 0 -137 -3 -140 -7z m73 -39 c0 -28 -12 -31 -35 -7 -16 16 -16 17 0 30 23 16 35 8 35 -23z"/>
<path d="M1730 5170 c0 -5 5 -10 10 -10 13 0 13 -86 0 -111 -10 -18 -7 -19 39 -19 67 0 81 7 81 40 0 29 -15 40 -56 40 -18 0 -24 5 -24 23 0 13 5 28 12 35 9 9 4 12 -25 12 -20 0 -37 -4 -37 -10z m85 -87 c16 -16 16 -17 0 -30 -23 -16 -35 -8 -35 23 0 28 12 31 35 7z"/>
<path d="M1960 5170 c0 -5 5 -10 10 -10 13 0 13 -86 0 -111 -10 -17 -7 -19 27 -19 29 0 34 3 25 12 -7 7 -12 38 -12 70 0 61 13 74 44 43 20 -20 26 -19 26 5 0 18 -7 20 -60 20 -33 0 -60 -4 -60 -10z"/>
<path d="M2100 5170 c-12 -7 -12 -12 -2 -22 15 -15 16 -141 2 -169 -10 -17 -7 -19 27 -19 29 0 34 3 25 12 -7 7 -12 22 -12 35 0 19 5 23 33 23 20 0 41 8 50 18 19 21 22 83 7 113 -12 22 -59 26 -78 7 -9 -9 -12 -9 -12 0 0 14 -19 15 -40 2z m103 -70 c0 -17 -7 -39 -17 -48 -16 -16 -18 -16 -32 2 -20 28 -18 83 4 95 24 14 45 -10 45 -49z"/>
<path d="M2293 5174 c-18 -8 -16 -44 1 -44 7 0 16 10 20 22 5 22 6 22 23 4 10 -10 14 -20 8 -22 -5 -2 -25 -13 -43 -24 -27 -16 -33 -26 -30 -48 3 -26 5 -27 67 -27 43 0 66 4 69 13 2 6 -3 12 -12 12 -11 0 -16 14 -18 58 l-3 57 -35 2 c-19 1 -41 0 -47 -3z m57 -84 c0 -22 -22 -36 -40 -25 -8 5 -6 13 6 26 22 25 34 24 34 -1z"/>
<path d="M2630 5170 c0 -5 5 -10 10 -10 13 0 13 -86 0 -111 -10 -17 -7 -19 26 -19 28 0 34 3 26 13 -8 9 -2 21 19 45 l29 32 0 -25 c0 -15 -5 -35 -10 -46 -10 -17 -7 -19 27 -19 29 0 34 3 25 12 -7 7 -12 35 -12 63 0 28 5 56 12 63 9 9 4 12 -26 12 -31 0 -37 -3 -32 -16 4 -9 -4 -28 -19 -46 l-25 -30 0 34 c0 19 5 39 12 46 9 9 4 12 -25 12 -20 0 -37 -4 -37 -10z"/>
<path d="M2810 5170 c0 -5 5 -10 10 -10 13 0 13 -86 0 -111 -10 -17 -7 -19 27 -19 29 0 34 3 25 12 -7 7 -12 26 -12 43 l0 30 23 -40 c16 -29 30 -41 50 -43 l28 -3 -31 43 c-33 47 -32 78 1 78 11 0 19 7 19 16 0 24 -43 13 -55 -13 -5 -13 -15 -25 -22 -27 -17 -7 -17 26 -1 42 9 9 4 12 -25 12 -20 0 -37 -4 -37 -10z"/>
<path d="M3050 5156 c0 -31 11 -33 28 -5 11 17 16 18 28 8 13 -10 13 -15 0 -34 -13 -20 -12 -24 7 -40 19 -17 20 -18 3 -31 -13 -9 -25 -10 -43 -3 -29 11 -45 3 -23 -11 17 -11 71 -13 94 -4 20 8 21 53 1 60 -12 5 -13 10 -4 20 6 7 9 23 7 36 -3 20 -10 23 -50 26 -46 3 -48 2 -48 -22z"/>
<path d="M3203 5174 c-18 -8 -16 -44 1 -44 7 0 16 10 20 22 5 22 6 22 23 4 10 -10 14 -20 8 -22 -5 -2 -25 -13 -43 -24 -27 -16 -33 -26 -30 -48 3 -26 5 -27 67 -27 43 0 66 4 69 13 2 6 -3 12 -12 12 -11 0 -16 14 -18 58 l-3 57 -35 2 c-19 1 -41 0 -47 -3z m57 -84 c0 -22 -22 -36 -40 -25 -8 5 -6 13 6 26 22 25 34 24 34 -1z"/>
<path d="M3330 5170 c0 -5 5 -10 10 -10 13 0 13 -86 -1 -111 -10 -19 -7 -20 53 -17 58 3 63 5 66 27 3 15 -3 30 -14 38 -10 8 -13 13 -5 13 8 0 11 11 9 33 -3 32 -4 32 -60 35 -36 2 -58 -1 -58 -8z m84 -34 c-3 -8 -12 -17 -20 -20 -10 -4 -14 3 -14 25 0 26 2 29 20 19 11 -6 17 -17 14 -24z m1 -53 c16 -16 16 -17 0 -30 -23 -16 -35 -8 -35 23 0 28 12 31 35 7z"/>
<path d="M3490 5170 c0 -5 5 -10 10 -10 13 0 13 -86 0 -111 -10 -17 -7 -19 26 -19 28 0 34 3 26 13 -8 9 -2 21 19 45 l29 32 0 -25 c0 -15 -5 -35 -10 -46 -10 -17 -7 -19 27 -19 29 0 34 3 25 12 -7 7 -12 35 -12 63 0 28 5 56 12 63 9 9 4 12 -26 12 -31 0 -37 -3 -32 -16 4 -9 -4 -28 -19 -46 l-25 -30 0 34 c0 19 5 39 12 46 9 9 4 12 -25 12 -20 0 -37 -4 -37 -10z"/>
<path d="M3677 5162 c-23 -26 -22 -94 1 -115 29 -27 80 -22 94 8 14 31 4 43 -17 21 -20 -20 -29 -20 -49 0 -23 22 -20 71 4 84 15 8 21 6 30 -10 6 -11 17 -20 25 -20 16 0 18 9 9 34 -9 23 -76 21 -97 -2z"/>
<path d="M3810 5170 c0 -5 5 -10 10 -10 13 0 13 -86 0 -111 -10 -17 -7 -19 26 -19 28 0 34 3 26 13 -8 9 -2 21 19 45 l29 32 0 -25 c0 -15 -5 -35 -10 -46 -10 -17 -7 -19 27 -19 29 0 34 3 25 12 -7 7 -12 35 -12 63 0 28 5 56 12 63 9 9 4 12 -26 12 -31 0 -37 -3 -32 -16 4 -9 -4 -28 -19 -46 l-25 -30 0 34 c0 19 5 39 12 46 9 9 4 12 -25 12 -20 0 -37 -4 -37 -10z"/>
<path d="M3990 5170 c0 -5 5 -10 10 -10 13 0 13 -86 0 -111 -9 -17 -7 -19 16 -19 22 0 24 3 15 14 -7 8 -11 32 -9 53 l3 38 19 -52 c11 -29 25 -53 31 -53 6 0 20 24 31 53 18 50 19 51 22 20 2 -18 -2 -41 -8 -53 -10 -18 -8 -20 27 -20 29 0 34 3 25 12 -7 7 -12 35 -12 63 0 28 5 56 12 63 9 9 5 12 -19 12 -27 0 -32 -5 -50 -50 l-19 -51 -18 51 c-16 44 -21 50 -47 50 -16 0 -29 -4 -29 -10z"/>
<path d="M4216 5158 c-22 -31 -20 -91 2 -111 28 -25 87 -22 106 5 22 31 20 91 -2 111 -28 25 -87 22 -106 -5z m84 -32 c15 -47 -5 -91 -36 -79 -18 7 -36 66 -28 89 17 43 48 38 64 -10z"/>
<path d="M4387 5162 c-23 -26 -22 -94 1 -115 29 -27 80 -22 94 8 14 31 4 43 -17 21 -20 -20 -29 -20 -49 0 -23 22 -20 71 4 84 15 8 21 6 30 -10 6 -11 17 -20 25 -20 16 0 18 9 9 34 -9 23 -76 21 -97 -2z"/>
<path d="M4500 5160 c0 -23 15 -27 24 -5 3 8 12 15 21 15 11 0 15 -12 15 -51 0 -28 -5 -59 -10 -70 -10 -17 -7 -19 27 -19 29 0 34 3 25 12 -14 14 -16 128 -3 128 5 0 16 -7 25 -15 20 -20 26 -19 26 5 0 18 -7 20 -75 20 -68 0 -75 -2 -75 -20z"/>
<path d="M4660 5170 c0 -5 5 -10 10 -10 13 0 13 -86 0 -111 -10 -17 -7 -19 26 -19 28 0 34 3 26 13 -8 9 -2 21 19 45 l29 32 0 -25 c0 -15 -5 -35 -10 -46 -10 -17 -7 -19 27 -19 29 0 34 3 25 12 -7 7 -12 35 -12 63 0 28 5 56 12 63 9 9 4 12 -26 12 -31 0 -37 -3 -32 -16 4 -9 -4 -28 -19 -46 l-25 -30 0 34 c0 19 5 39 12 46 9 9 4 12 -25 12 -20 0 -37 -4 -37 -10z"/>
<path d="M4910 5160 c0 -23 15 -27 24 -5 3 8 12 15 21 15 11 0 15 -12 15 -51 0 -28 -5 -59 -10 -70 -10 -17 -7 -19 27 -19 29 0 34 3 25 12 -14 14 -16 128 -3 128 5 0 16 -7 25 -15 20 -20 26 -19 26 5 0 18 -7 20 -75 20 -68 0 -75 -2 -75 -20z"/>
<path d="M5087 5162 c-22 -24 -22 -95 -1 -116 18 -19 75 -21 92 -4 7 7 12 20 12 31 0 17 -2 17 -22 3 -28 -20 -33 -20 -52 0 -30 29 -20 44 29 44 37 0 45 3 45 18 0 10 -5 23 -12 30 -18 18 -73 14 -91 -6z m67 -18 c4 -10 -3 -14 -24 -14 -32 0 -37 9 -19 27 14 14 35 7 43 -13z"/>
<path d="M5220 5170 c0 -5 5 -10 10 -10 13 0 13 -86 0 -111 -9 -17 -7 -19 16 -19 22 0 24 3 15 14 -7 8 -11 32 -9 53 l3 38 19 -52 c11 -29 25 -53 31 -53 6 0 20 24 31 53 18 50 19 51 22 20 2 -18 -2 -41 -8 -53 -10 -18 -8 -20 27 -20 29 0 34 3 25 12 -7 7 -12 35 -12 63 0 28 5 56 12 63 9 9 5 12 -19 12 -27 0 -32 -5 -50 -50 l-19 -51 -18 51 c-16 44 -21 50 -47 50 -16 0 -29 -4 -29 -10z"/>
<path d="M5430 5170 c0 -5 5 -10 10 -10 13 0 13 -86 0 -111 -10 -17 -7 -19 27 -19 29 0 34 3 25 12 -7 7 -12 38 -12 70 0 58 0 58 30 58 29 0 30 -1 30 -51 0 -28 -5 -59 -10 -70 -10 -17 -7 -19 27 -19 29 0 34 3 25 12 -7 7 -12 35 -12 63 0 28 5 56 12 63 9 9 -6 12 -70 12 -48 0 -82 -4 -82 -10z"/>
<path d="M5627 5162 c-22 -24 -22 -95 -1 -116 18 -19 75 -21 92 -4 7 7 12 20 12 31 0 17 -2 17 -22 3 -28 -20 -33 -20 -52 0 -30 29 -20 44 29 44 37 0 45 3 45 18 0 10 -5 23 -12 30 -18 18 -73 14 -91 -6z m67 -18 c4 -10 -3 -14 -24 -14 -32 0 -37 9 -19 27 14 14 35 7 43 -13z"/>
<path d="M5750 5170 c-12 -7 -12 -12 -2 -22 15 -15 16 -141 2 -169 -10 -17 -7 -19 27 -19 29 0 34 3 25 12 -7 7 -12 22 -12 35 0 19 5 23 33 23 20 0 41 8 50 18 19 21 22 83 7 113 -12 22 -59 26 -78 7 -9 -9 -12 -9 -12 0 0 14 -19 15 -40 2z m103 -70 c0 -17 -7 -39 -17 -48 -16 -16 -18 -16 -32 2 -20 28 -18 83 4 95 24 14 45 -10 45 -49z"/>
<path d="M5943 5174 c-18 -8 -16 -44 1 -44 7 0 16 10 20 22 5 22 6 22 23 4 10 -10 14 -20 8 -22 -5 -2 -25 -13 -43 -24 -27 -16 -33 -26 -30 -48 3 -26 5 -27 67 -27 43 0 66 4 69 13 2 6 -3 12 -12 12 -11 0 -16 14 -18 58 l-3 57 -35 2 c-19 1 -41 0 -47 -3z m57 -84 c0 -22 -22 -36 -40 -25 -8 5 -6 13 6 26 22 25 34 24 34 -1z"/>
<path d="M6060 5160 c0 -23 15 -27 24 -5 3 8 12 15 21 15 11 0 15 -12 15 -51 0 -28 -5 -59 -10 -70 -10 -17 -7 -19 27 -19 29 0 34 3 25 12 -14 14 -16 128 -3 128 5 0 17 -7 26 -17 14 -13 18 -14 25 -2 11 17 11 17 48 -56 34 -70 30 -105 -13 -105 -16 0 -25 -6 -25 -15 0 -18 43 -20 58 -2 6 6 24 48 42 92 39 99 39 98 56 84 17 -14 20 -140 4 -170 -10 -17 -7 -19 27 -19 29 0 34 3 25 12 -7 7 -12 22 -12 35 0 19 5 23 33 23 20 0 41 8 50 18 19 21 22 83 7 113 -12 22 -59 26 -78 7 -8 -8 -12 -8 -12 -1 0 6 -22 11 -51 12 -39 0 -49 -2 -41 -12 6 -8 4 -25 -7 -51 l-17 -39 -17 44 c-13 33 -14 45 -4 51 6 4 -41 8 -105 8 -111 0 -118 -1 -118 -20z m423 -60 c0 -17 -7 -39 -17 -48 -16 -16 -18 -16 -32 2 -20 28 -18 83 4 95 24 14 45 -10 45 -49z"/>
<path d="M6530 5170 c0 -5 5 -10 10 -10 13 0 13 -86 0 -111 -10 -18 -7 -19 39 -19 67 0 81 7 81 40 0 29 -15 40 -56 40 -18 0 -24 5 -24 23 0 13 5 28 12 35 9 9 4 12 -25 12 -20 0 -37 -4 -37 -10z m85 -87 c16 -16 16 -17 0 -30 -23 -16 -35 -8 -35 23 0 28 12 31 35 7z"/>
<path d="M6670 5170 c0 -5 5 -10 10 -10 13 0 13 -86 0 -111 -10 -17 -7 -19 27 -19 29 0 34 3 25 12 -7 7 -12 35 -12 63 0 28 5 56 12 63 9 9 4 12 -25 12 -20 0 -37 -4 -37 -10z"/>
<path d="M6866 5158 c-22 -31 -20 -91 2 -111 28 -25 87 -22 106 5 22 31 20 91 -2 111 -28 25 -87 22 -106 -5z m84 -32 c15 -47 -5 -91 -36 -79 -18 7 -36 66 -28 89 17 43 48 38 64 -10z"/>
<path d="M7010 5160 c0 -23 15 -27 24 -5 3 8 12 15 21 15 11 0 15 -12 15 -51 0 -28 -5 -59 -10 -70 -10 -17 -7 -19 27 -19 29 0 34 3 25 12 -14 14 -16 128 -3 128 5 0 16 -7 25 -15 20 -20 26 -19 26 5 0 18 -7 20 -75 20 -68 0 -75 -2 -75 -20z"/>
<path d="M7250 5170 c0 -5 5 -10 10 -10 13 0 13 -86 -1 -111 -10 -19 -7 -20 53 -17 58 3 63 5 66 27 3 15 -3 30 -14 38 -10 8 -13 13 -5 13 8 0 11 11 9 33 -3 32 -4 32 -60 35 -36 2 -58 -1 -58 -8z m84 -34 c-3 -8 -12 -17 -20 -20 -10 -4 -14 3 -14 25 0 26 2 29 20 19 11 -6 17 -17 14 -24z m1 -53 c16 -16 16 -17 0 -30 -23 -16 -35 -8 -35 23 0 28 12 31 35 7z"/>
<path d="M7400 5170 c-12 -7 -12 -12 -2 -22 15 -15 16 -141 2 -169 -10 -17 -7 -19 27 -19 29 0 34 3 25 12 -7 7 -12 22 -12 35 0 19 5 23 33 23 20 0 41 8 50 18 19 21 22 83 7 113 -12 22 -59 26 -78 7 -9 -9 -12 -9 -12 0 0 14 -19 15 -40 2z m103 -70 c0 -17 -7 -39 -17 -48 -16 -16 -18 -16 -32 2 -20 28 -18 83 4 95 24 14 45 -10 45 -49z"/>
<path d="M7587 5162 c-22 -24 -22 -95 -1 -116 18 -19 75 -21 92 -4 7 7 12 20 12 31 0 17 -2 17 -22 3 -28 -20 -33 -20 -52 0 -30 29 -20 44 29 44 37 0 45 3 45 18 0 10 -5 23 -12 30 -18 18 -73 14 -91 -6z m67 -18 c4 -10 -3 -14 -24 -14 -32 0 -37 9 -19 27 14 14 35 7 43 -13z"/>
<path d="M7720 5170 c0 -5 5 -10 10 -10 13 0 13 -86 0 -111 -9 -17 -7 -19 16 -19 22 0 24 3 15 14 -7 8 -11 32 -9 53 l3 38 19 -52 c11 -29 25 -53 31 -53 6 0 20 24 31 53 18 50 19 51 22 20 2 -18 -2 -41 -8 -53 -10 -18 -8 -20 27 -20 29 0 34 3 25 12 -7 7 -12 35 -12 63 0 28 5 56 12 63 9 9 5 12 -19 12 -27 0 -32 -5 -50 -50 l-19 -51 -18 51 c-16 44 -21 50 -47 50 -16 0 -29 -4 -29 -10z"/>
<path d="M7947 5162 c-22 -24 -22 -95 -1 -116 18 -19 75 -21 92 -4 7 7 12 20 12 31 0 17 -2 17 -22 3 -28 -20 -33 -20 -52 0 -30 29 -20 44 29 44 37 0 45 3 45 18 0 10 -5 23 -12 30 -18 18 -73 14 -91 -6z m67 -18 c4 -10 -3 -14 -24 -14 -32 0 -37 9 -19 27 14 14 35 7 43 -13z"/>
<path d="M8080 5170 c0 -5 5 -10 10 -10 13 0 13 -86 0 -111 -10 -17 -7 -19 27 -19 29 0 34 3 25 12 -7 7 -12 22 -12 35 0 19 5 23 30 23 32 0 38 -16 20 -51 -10 -17 -7 -19 27 -19 29 0 34 3 25 12 -7 7 -12 35 -12 63 0 28 5 56 12 63 9 9 4 12 -25 12 -20 0 -37 -4 -37 -10 0 -5 5 -10 10 -10 6 0 10 -11 10 -25 0 -21 -5 -25 -30 -25 -25 0 -30 4 -30 23 0 13 5 28 12 35 9 9 4 12 -25 12 -20 0 -37 -4 -37 -10z"/>
<path d="M8260 5170 c0 -5 5 -10 10 -10 13 0 13 -86 0 -111 -10 -17 -7 -19 26 -19 28 0 34 3 26 13 -8 9 -2 21 19 45 l29 32 0 -25 c0 -15 -5 -35 -10 -46 -10 -17 -7 -19 27 -19 29 0 34 3 25 12 -7 7 -12 35 -12 63 0 28 5 56 12 63 9 9 4 12 -26 12 -31 0 -37 -3 -32 -16 4 -9 -4 -28 -19 -46 l-25 -30 0 34 c0 19 5 39 12 46 9 9 4 12 -25 12 -20 0 -37 -4 -37 -10z"/>
<path d="M703 5054 c-8 -21 13 -42 28 -27 13 13 5 43 -11 43 -6 0 -13 -7 -17 -16z"/>
<path d="M604 4873 c-35 -3 -43 -9 -57 -39 -21 -43 -21 -54 -2 -54 9 0 29 -7 45 -15 24 -13 30 -22 30 -50 0 -38 -32 -67 -53 -46 -18 18 -49 13 -45 -6 5 -24 80 -23 107 1 44 40 30 119 -25 142 -45 19 -43 34 5 34 26 0 41 5 45 16 8 20 8 24 -1 22 -5 -1 -26 -3 -49 -5z"/>
<path d="M3128 4873 c-22 -6 -23 -19 -3 -27 8 -3 15 -15 15 -26 0 -16 -7 -20 -30 -20 -35 0 -50 -23 -50 -75 0 -52 15 -75 50 -75 32 0 38 -16 20 -51 -10 -17 -7 -19 27 -19 29 0 34 3 25 12 -7 7 -12 22 -12 35 0 19 5 23 30 23 35 0 50 23 50 75 0 52 -15 75 -50 75 -28 0 -30 2 -30 40 0 40 -4 43 -42 33z m12 -148 c0 -55 -25 -80 -40 -40 -5 14 -10 32 -10 40 0 8 5 26 10 40 15 40 40 15 40 -40z m74 1 c1 -49 -6 -61 -29 -53 -18 8 -21 87 -3 105 19 19 31 -2 32 -52z"/>
<path d="M10017 4857 c-30 -25 -57 -83 -57 -124 1 -36 31 -103 59 -127 30 -27 39 -11 10 20 -21 23 -24 35 -24 104 0 66 4 83 23 110 29 39 25 46 -11 17z"/>
<path d="M1033 4852 c24 -26 24 -158 0 -184 -15 -17 -14 -18 32 -18 45 0 47 1 32 18 -14 16 -11 22 34 75 l49 59 0 -58 c0 -39 -5 -63 -17 -76 -15 -17 -14 -18 32 -18 46 0 47 1 32 18 -24 26 -24 158 0 184 15 17 14 18 -32 18 -45 0 -47 -1 -32 -17 14 -17 11 -23 -34 -76 l-49 -59 0 58 c0 39 5 63 17 76 15 17 14 18 -32 18 -46 0 -47 -1 -32 -18z"/>
<path d="M5442 4848 c5 -39 98 -37 98 2 0 26 -17 25 -41 -2 l-19 -23 -6 23 c-3 12 -13 22 -21 22 -9 0 -13 -8 -11 -22z"/>
<path d="M7192 4848 c5 -39 98 -37 98 2 0 26 -17 25 -41 -2 l-19 -23 -6 23 c-3 12 -13 22 -21 22 -9 0 -13 -8 -11 -22z"/>
<path d="M9750 4840 c0 -34 15 -40 25 -10 4 13 15 20 31 20 24 0 24 -1 24 -90 0 -74 -3 -91 -17 -99 -14 -8 -5 -10 37 -10 42 0 51 2 38 10 -15 8 -18 25 -18 99 l0 90 26 0 c17 0 28 -6 31 -20 8 -30 23 -24 23 10 l0 30 -100 0 -100 0 0 -30z"/>
<path d="M10170 4864 c0 -3 11 -19 24 -34 44 -53 42 -166 -5 -216 -27 -29 -19 -43 14 -21 48 31 73 134 48 199 -14 38 -81 97 -81 72z"/>
<path d="M10080 4817 c-16 -21 -20 -32 -12 -35 8 -2 12 -25 12 -62 0 -38 5 -62 15 -70 17 -14 51 -5 59 16 5 12 2 15 -11 10 -22 -9 -33 10 -33 62 0 35 3 42 20 42 11 0 20 5 20 10 0 6 -9 10 -19 10 -13 0 -21 8 -23 23 -3 23 -3 23 -28 -6z"/>
<path d="M1277 4782 c-23 -26 -22 -94 1 -115 29 -27 80 -22 94 8 14 31 4 43 -17 21 -20 -20 -29 -20 -49 0 -23 22 -20 71 4 84 15 8 21 6 30 -10 6 -11 17 -20 25 -20 16 0 18 9 9 34 -9 23 -76 21 -97 -2z"/>
<path d="M1410 4790 c0 -5 5 -10 10 -10 13 0 13 -86 0 -111 -10 -17 -7 -19 27 -19 29 0 34 3 25 12 -7 7 -12 38 -12 70 0 58 0 58 30 58 29 0 30 -1 30 -51 0 -28 -5 -59 -10 -70 -10 -17 -7 -19 27 -19 29 0 34 3 25 12 -7 7 -12 35 -12 63 0 28 5 56 12 63 9 9 -6 12 -70 12 -48 0 -82 -4 -82 -10z"/>
<path d="M1606 4778 c-22 -31 -20 -91 2 -111 28 -25 87 -22 106 5 22 31 20 91 -2 111 -28 25 -87 22 -106 -5z m84 -32 c15 -47 -5 -91 -36 -79 -18 7 -36 66 -28 89 17 43 48 38 64 -10z"/>
<path d="M1780 4790 c0 -5 5 -10 10 -10 11 0 13 -42 4 -77 -4 -14 -14 -23 -25 -23 -11 0 -19 -7 -19 -16 0 -11 8 -14 28 -12 26 3 27 5 30 71 3 64 4 67 27 67 23 0 25 -4 25 -51 0 -28 -5 -59 -10 -70 -10 -17 -7 -19 27 -19 29 0 34 3 25 12 -7 7 -12 35 -12 63 0 28 5 56 12 63 9 9 -3 12 -55 12 -38 0 -67 -4 -67 -10z"/>
<path d="M1920 4790 c0 -5 5 -10 10 -10 13 0 13 -86 0 -111 -10 -18 -7 -19 39 -19 67 0 81 7 81 40 0 29 -15 40 -56 40 -18 0 -24 5 -24 23 0 13 5 28 12 35 9 9 4 12 -25 12 -20 0 -37 -4 -37 -10z m85 -87 c16 -16 16 -17 0 -30 -23 -16 -35 -8 -35 23 0 28 12 31 35 7z"/>
<path d="M2080 4776 c0 -31 11 -33 28 -5 11 17 16 18 28 8 13 -10 13 -15 0 -34 -13 -20 -12 -24 7 -40 19 -17 20 -18 3 -31 -13 -9 -25 -10 -43 -3 -29 11 -45 3 -23 -11 17 -11 71 -13 94 -4 20 8 21 53 1 60 -12 5 -13 10 -4 20 6 7 9 23 7 36 -3 20 -10 23 -50 26 -46 3 -48 2 -48 -22z"/>
<path d="M2200 4791 c0 -5 4 -11 9 -13 5 -1 22 -30 39 -63 34 -70 30 -105 -13 -105 -16 0 -25 -6 -25 -15 0 -18 43 -20 58 -2 6 6 25 48 42 92 17 44 39 88 47 98 15 16 14 17 -17 17 -25 0 -30 -3 -23 -12 7 -9 5 -25 -6 -52 l-17 -39 -17 44 c-13 33 -14 45 -4 51 7 4 -6 8 -30 8 -24 0 -43 -4 -43 -9z"/>
<path d="M2387 4793 c-12 -12 -7 -50 8 -63 12 -10 11 -17 -11 -46 l-26 -34 23 0 c16 0 32 12 49 37 18 26 26 32 28 20 2 -9 -2 -25 -8 -36 -10 -19 -8 -21 27 -21 29 0 34 3 25 12 -7 7 -12 35 -12 63 0 28 5 56 12 63 9 9 -1 12 -48 12 -34 0 -64 -3 -67 -7z m73 -39 c0 -28 -12 -31 -35 -7 -16 16 -16 17 0 30 23 16 35 8 35 -23z"/>
<path d="M2610 4790 c0 -5 5 -10 10 -10 13 0 13 -86 0 -111 -10 -17 -7 -19 27 -19 29 0 34 3 25 12 -7 7 -12 38 -12 70 0 62 13 74 44 43 8 -9 21 -14 28 -13 17 4 24 -133 8 -162 -10 -18 -8 -20 27 -20 29 0 34 3 25 12 -7 7 -12 22 -12 35 0 19 5 23 33 23 20 0 41 8 50 18 19 21 22 83 7 113 -12 22 -59 26 -78 7 -7 -7 -12 -8 -12 -2 0 6 -35 11 -85 13 -53 1 -85 -2 -85 -9z m233 -70 c0 -17 -7 -39 -17 -48 -16 -16 -18 -16 -32 2 -20 28 -18 83 4 95 24 14 45 -10 45 -49z"/>
<path d="M2933 4794 c-18 -8 -16 -44 1 -44 7 0 16 10 20 22 5 22 6 22 23 4 10 -10 14 -20 8 -22 -5 -2 -25 -13 -43 -24 -27 -16 -33 -26 -30 -48 3 -26 5 -27 67 -27 43 0 66 4 69 13 2 6 -3 12 -12 12 -11 0 -16 14 -18 58 l-3 57 -35 2 c-19 1 -41 0 -47 -3z m57 -84 c0 -22 -22 -36 -40 -25 -8 5 -6 13 6 26 22 25 34 24 34 -1z"/>
<path d="M3270 4790 c0 -5 5 -10 10 -10 13 0 13 -86 0 -111 -10 -17 -7 -19 26 -19 28 0 34 3 26 13 -8 9 -2 21 19 45 l29 32 0 -25 c0 -15 -5 -35 -10 -46 -10 -17 -7 -19 27 -19 29 0 34 3 25 12 -7 7 -12 35 -12 63 0 28 5 56 12 63 9 9 4 12 -26 12 -31 0 -37 -3 -32 -16 4 -9 -4 -28 -19 -46 l-25 -30 0 34 c0 19 5 39 12 46 9 9 4 12 -25 12 -20 0 -37 -4 -37 -10z"/>
<path d="M3460 4790 c0 -5 5 -10 10 -10 13 0 13 -86 0 -111 -10 -17 -7 -19 27 -19 29 0 34 3 25 12 -7 7 -12 26 -12 43 l0 30 23 -40 c16 -29 30 -41 50 -43 l28 -3 -31 43 c-33 47 -32 78 1 78 11 0 19 7 19 16 0 24 -43 13 -55 -13 -5 -13 -15 -25 -22 -27 -17 -7 -17 26 -1 42 9 9 4 12 -25 12 -20 0 -37 -4 -37 -10z"/>
<path d="M3700 4790 c0 -5 5 -10 10 -10 13 0 13 -86 -1 -111 -10 -19 -7 -20 53 -17 58 3 63 5 66 27 3 15 -3 30 -14 38 -10 8 -13 13 -5 13 8 0 11 11 9 33 -3 32 -4 32 -60 35 -36 2 -58 -1 -58 -8z m84 -34 c-3 -8 -12 -17 -20 -20 -10 -4 -14 3 -14 25 0 26 2 29 20 19 11 -6 17 -17 14 -24z m1 -53 c16 -16 16 -17 0 -30 -23 -16 -35 -8 -35 23 0 28 12 31 35 7z"/>
<path d="M3850 4790 c0 -5 5 -10 10 -10 13 0 13 -86 0 -111 -10 -18 -7 -19 39 -19 67 0 81 7 81 40 0 29 -15 40 -56 40 -18 0 -24 5 -24 23 0 13 5 28 12 35 9 9 4 12 -25 12 -20 0 -37 -4 -37 -10z m85 -87 c16 -16 16 -17 0 -30 -23 -16 -35 -8 -35 23 0 28 12 31 35 7z"/>
<path d="M3990 4790 c0 -5 5 -10 10 -10 13 0 13 -86 0 -111 -10 -17 -7 -19 27 -19 29 0 34 3 25 12 -16 16 -16 110 0 126 9 9 4 12 -25 12 -20 0 -37 -4 -37 -10z"/>
<path d="M4080 4790 c0 -5 5 -10 10 -10 6 0 10 -16 10 -35 0 -34 1 -35 40 -35 41 0 47 -8 30 -41 -10 -17 -7 -19 27 -19 29 0 34 3 25 12 -7 7 -12 35 -12 63 0 28 5 56 12 63 9 9 4 12 -25 12 -20 0 -37 -4 -37 -10 0 -5 5 -10 10 -10 6 0 10 -11 10 -24 0 -24 -23 -41 -41 -30 -13 8 -11 48 3 62 9 9 4 12 -25 12 -20 0 -37 -4 -37 -10z"/>
<path d="M4250 4790 c0 -5 5 -10 10 -10 13 0 13 -86 0 -111 -10 -17 -7 -19 26 -19 28 0 34 3 26 13 -8 9 -2 21 19 45 l29 32 0 -25 c0 -15 -5 -35 -10 -46 -10 -17 -7 -19 27 -19 29 0 34 3 25 12 -7 7 -12 35 -12 63 0 28 5 56 12 63 9 9 4 12 -26 12 -31 0 -37 -3 -32 -16 4 -9 -4 -28 -19 -46 l-25 -30 0 34 c0 19 5 39 12 46 9 9 4 12 -25 12 -20 0 -37 -4 -37 -10z"/>
<path d="M4447 4782 c-23 -26 -22 -94 1 -115 29 -27 80 -22 94 8 14 31 4 43 -17 21 -20 -20 -29 -20 -49 0 -23 22 -20 71 4 84 15 8 21 6 30 -10 6 -11 17 -20 25 -20 16 0 18 9 9 34 -9 23 -76 21 -97 -2z"/>
<path d="M4590 4790 c0 -5 5 -10 10 -10 11 0 13 -42 4 -77 -4 -14 -14 -23 -25 -23 -11 0 -19 -7 -19 -16 0 -11 8 -14 28 -12 26 3 27 5 30 71 3 64 4 67 27 67 23 0 25 -4 25 -51 0 -28 -5 -59 -10 -70 -10 -17 -7 -19 27 -19 29 0 34 3 25 12 -7 7 -12 35 -12 63 0 28 5 56 12 63 9 9 -3 12 -55 12 -38 0 -67 -4 -67 -10z"/>
<path d="M4757 4782 c-22 -24 -22 -95 -1 -116 18 -19 75 -21 92 -4 7 7 12 20 12 31 0 17 -2 17 -22 3 -28 -20 -33 -20 -52 0 -30 29 -20 44 29 44 37 0 45 3 45 18 0 10 -5 23 -12 30 -18 18 -73 14 -91 -6z m67 -18 c4 -10 -3 -14 -24 -14 -32 0 -37 9 -19 27 14 14 35 7 43 -13z"/>
<path d="M4890 4790 c0 -5 5 -10 10 -10 13 0 13 -86 0 -111 -10 -17 -7 -19 27 -19 29 0 34 3 25 12 -7 7 -12 22 -12 35 0 19 5 23 30 23 32 0 38 -16 20 -51 -10 -17 -7 -19 27 -19 29 0 34 3 25 12 -7 7 -12 35 -12 63 0 28 5 56 12 63 9 9 4 12 -25 12 -20 0 -37 -4 -37 -10 0 -5 5 -10 10 -10 6 0 10 -11 10 -25 0 -21 -5 -25 -30 -25 -25 0 -30 4 -30 23 0 13 5 28 12 35 9 9 4 12 -25 12 -20 0 -37 -4 -37 -10z"/>
<path d="M5070 4790 c0 -5 5 -10 10 -10 13 0 13 -86 0 -111 -10 -17 -7 -19 27 -19 29 0 34 3 25 12 -7 7 -12 22 -12 35 0 19 5 23 30 23 32 0 38 -16 20 -51 -10 -17 -7 -19 27 -19 29 0 34 3 25 12 -7 7 -12 35 -12 63 0 28 5 56 12 63 9 9 4 12 -25 12 -20 0 -37 -4 -37 -10 0 -5 5 -10 10 -10 6 0 10 -11 10 -25 0 -21 -5 -25 -30 -25 -25 0 -30 4 -30 23 0 13 5 28 12 35 9 9 4 12 -25 12 -20 0 -37 -4 -37 -10z"/>
<path d="M5266 4778 c-22 -31 -20 -91 2 -111 28 -25 87 -22 106 5 22 31 20 91 -2 111 -28 25 -87 22 -106 -5z m84 -32 c15 -47 -5 -91 -36 -79 -18 7 -36 66 -28 89 17 43 48 38 64 -10z"/>
<path d="M5410 4790 c0 -5 5 -10 10 -10 13 0 13 -86 0 -111 -10 -17 -7 -19 26 -19 28 0 34 3 26 13 -8 9 -2 21 19 45 l29 32 0 -25 c0 -15 -5 -35 -10 -46 -10 -17 -7 -19 27 -19 29 0 34 3 25 12 -7 7 -12 35 -12 63 0 28 5 56 12 63 9 9 4 12 -26 12 -31 0 -37 -3 -32 -16 4 -9 -4 -28 -19 -46 l-25 -30 0 34 c0 19 5 39 12 46 9 9 4 12 -25 12 -20 0 -37 -4 -37 -10z"/>
<path d="M5680 4790 c0 -5 5 -10 10 -10 13 0 13 -86 0 -111 -10 -17 -7 -19 27 -19 29 0 34 3 25 12 -7 7 -12 38 -12 70 0 58 0 58 30 58 29 0 30 -1 30 -51 0 -28 -5 -59 -10 -70 -10 -17 -7 -19 27 -19 29 0 34 3 25 12 -7 7 -12 35 -12 63 0 28 5 56 12 63 9 9 -6 12 -70 12 -48 0 -82 -4 -82 -10z"/>
<path d="M5877 4782 c-22 -24 -22 -95 -1 -116 18 -19 75 -21 92 -4 7 7 12 20 12 31 0 17 -2 17 -22 3 -28 -20 -33 -20 -52 0 -30 29 -20 44 29 44 37 0 45 3 45 18 0 10 -5 23 -12 30 -18 18 -73 14 -91 -6z m67 -18 c4 -10 -3 -14 -24 -14 -32 0 -37 9 -19 27 14 14 35 7 43 -13z"/>
<path d="M6000 4790 c-12 -7 -12 -12 -2 -22 15 -15 16 -141 2 -169 -10 -17 -7 -19 27 -19 29 0 34 3 25 12 -7 7 -12 22 -12 35 0 19 5 23 33 23 20 0 41 8 50 18 19 21 22 83 7 113 -12 22 -59 26 -78 7 -9 -9 -12 -9 -12 0 0 14 -19 15 -40 2z m103 -70 c0 -17 -7 -39 -17 -48 -16 -16 -18 -16 -32 2 -20 28 -18 83 4 95 24 14 45 -10 45 -49z"/>
<path d="M6187 4782 c-22 -24 -22 -95 -1 -116 18 -19 75 -21 92 -4 7 7 12 20 12 31 0 17 -2 17 -22 3 -28 -20 -33 -20 -52 0 -30 29 -20 44 29 44 37 0 45 3 45 18 0 10 -5 23 -12 30 -18 18 -73 14 -91 -6z m67 -18 c4 -10 -3 -14 -24 -14 -32 0 -37 9 -19 27 14 14 35 7 43 -13z"/>
<path d="M6320 4795 c0 -3 11 -18 25 -33 14 -15 25 -32 25 -38 0 -6 -11 -21 -25 -34 -32 -30 -32 -40 0 -40 16 0 23 5 19 13 -2 7 2 21 9 32 14 18 15 18 26 -3 7 -13 9 -27 6 -32 -4 -6 9 -10 31 -10 l36 0 -24 33 c-41 54 -41 55 -6 87 l32 30 -38 0 c-32 0 -36 -2 -27 -14 8 -10 9 -16 1 -21 -13 -8 -30 3 -30 21 0 9 -11 14 -30 14 -16 0 -30 -2 -30 -5z"/>
<path d="M6506 4778 c-22 -31 -20 -91 2 -111 28 -25 87 -22 106 5 22 31 20 91 -2 111 -28 25 -87 22 -106 -5z m84 -32 c15 -47 -5 -91 -36 -79 -18 7 -36 66 -28 89 17 43 48 38 64 -10z"/>
<path d="M6670 4792 c0 -4 4 -12 10 -18 13 -13 -5 -85 -24 -100 -9 -6 -16 -23 -16 -38 l0 -27 26 20 c34 27 74 27 109 -1 l28 -22 -7 35 c-16 74 -18 130 -6 144 11 13 3 15 -54 15 -36 0 -66 -4 -66 -8z m78 -64 l-3 -63 -34 -3 c-29 -3 -33 -1 -26 15 5 10 10 39 13 66 3 42 6 47 28 47 24 0 25 -2 22 -62z"/>
<path d="M6820 4790 c0 -5 5 -10 10 -10 13 0 13 -86 0 -111 -10 -17 -7 -19 27 -19 29 0 34 3 25 12 -7 7 -12 22 -12 35 0 19 5 23 30 23 32 0 38 -16 20 -51 -10 -17 -7 -19 27 -19 29 0 34 3 25 12 -7 7 -12 35 -12 63 0 28 5 56 12 63 9 9 4 12 -25 12 -20 0 -37 -4 -37 -10 0 -5 5 -10 10 -10 6 0 10 -11 10 -25 0 -21 -5 -25 -30 -25 -25 0 -30 4 -30 23 0 13 5 28 12 35 9 9 4 12 -25 12 -20 0 -37 -4 -37 -10z"/>
<path d="M7016 4778 c-22 -31 -20 -91 2 -111 28 -25 87 -22 106 5 22 31 20 91 -2 111 -28 25 -87 22 -106 -5z m84 -32 c15 -47 -5 -91 -36 -79 -18 7 -36 66 -28 89 17 43 48 38 64 -10z"/>
<path d="M7160 4790 c0 -5 5 -10 10 -10 13 0 13 -86 0 -111 -10 -17 -7 -19 26 -19 28 0 34 3 26 13 -8 9 -2 21 19 45 l29 32 0 -25 c0 -15 -5 -35 -10 -46 -10 -17 -7 -19 27 -19 29 0 34 3 25 12 -7 7 -12 35 -12 63 0 28 5 56 12 63 9 9 4 12 -26 12 -31 0 -37 -3 -32 -16 4 -9 -4 -28 -19 -46 l-25 -30 0 34 c0 19 5 39 12 46 9 9 4 12 -25 12 -20 0 -37 -4 -37 -10z"/>
<path d="M7420 4795 c0 -3 11 -18 25 -33 14 -15 25 -32 25 -38 0 -6 -11 -21 -25 -34 -32 -30 -32 -40 0 -40 16 0 23 5 19 13 -2 7 2 21 9 32 14 18 15 18 26 -3 7 -13 9 -27 6 -32 -4 -6 9 -10 31 -10 l36 0 -24 33 c-41 54 -41 55 -6 87 l32 30 -38 0 c-32 0 -36 -2 -27 -14 8 -10 9 -16 1 -21 -13 -8 -30 3 -30 21 0 9 -11 14 -30 14 -16 0 -30 -2 -30 -5z"/>
<path d="M7613 4794 c-18 -8 -16 -44 1 -44 7 0 16 10 20 22 5 22 6 22 23 4 10 -10 14 -20 8 -22 -5 -2 -25 -13 -43 -24 -27 -16 -33 -26 -30 -48 3 -26 5 -27 67 -27 43 0 66 4 69 13 2 6 -3 12 -12 12 -11 0 -16 14 -18 58 l-3 57 -35 2 c-19 1 -41 0 -47 -3z m57 -84 c0 -22 -22 -36 -40 -25 -8 5 -6 13 6 26 22 25 34 24 34 -1z"/>
<path d="M7740 4790 c-12 -7 -12 -12 -2 -22 15 -15 16 -141 2 -169 -10 -17 -7 -19 27 -19 29 0 34 3 25 12 -7 7 -12 22 -12 35 0 19 5 23 33 23 20 0 41 8 50 18 19 21 22 83 7 113 -12 22 -59 26 -78 7 -9 -9 -12 -9 -12 0 0 14 -19 15 -40 2z m103 -70 c0 -17 -7 -39 -17 -48 -16 -16 -18 -16 -32 2 -20 28 -18 83 4 95 24 14 45 -10 45 -49z"/>
<path d="M7923 4794 c-18 -8 -16 -44 1 -44 7 0 16 10 20 22 5 22 6 22 23 4 10 -10 14 -20 8 -22 -5 -2 -25 -13 -43 -24 -27 -16 -33 -26 -30 -48 3 -26 5 -27 67 -27 43 0 66 4 69 13 2 6 -3 12 -12 12 -11 0 -16 14 -18 58 l-3 57 -35 2 c-19 1 -41 0 -47 -3z m57 -84 c0 -22 -22 -36 -40 -25 -8 5 -6 13 6 26 22 25 34 24 34 -1z"/>
<path d="M8050 4790 c0 -5 5 -10 10 -10 13 0 13 -86 0 -111 -10 -17 -7 -19 27 -19 29 0 34 3 25 12 -7 7 -12 26 -12 43 l0 30 23 -40 c16 -29 30 -41 50 -43 l28 -3 -31 43 c-33 47 -32 78 1 78 11 0 19 7 19 16 0 24 -43 13 -55 -13 -5 -13 -15 -25 -22 -27 -17 -7 -17 26 -1 42 9 9 4 12 -25 12 -20 0 -37 -4 -37 -10z"/>
<path d="M8200 4780 c0 -23 15 -27 24 -5 3 8 12 15 21 15 11 0 15 -12 15 -51 0 -28 -5 -59 -10 -70 -10 -17 -7 -19 27 -19 29 0 34 3 25 12 -14 14 -16 128 -3 128 5 0 16 -7 25 -15 20 -20 26 -19 26 5 0 18 -7 20 -75 20 -68 0 -75 -2 -75 -20z"/>
<path d="M8377 4782 c-22 -24 -22 -95 -1 -116 18 -19 75 -21 92 -4 7 7 12 20 12 31 0 17 -2 17 -22 3 -28 -20 -33 -20 -52 0 -30 29 -20 44 29 44 37 0 45 3 45 18 0 10 -5 23 -12 30 -18 18 -73 14 -91 -6z m67 -18 c4 -10 -3 -14 -24 -14 -32 0 -37 9 -19 27 14 14 35 7 43 -13z"/>
<path d="M8510 4790 c-12 -7 -12 -12 -2 -22 15 -15 16 -141 2 -169 -10 -17 -7 -19 27 -19 29 0 34 3 25 12 -7 7 -12 22 -12 35 0 19 5 23 33 23 20 0 41 8 50 18 19 21 22 83 7 113 -12 22 -59 26 -78 7 -9 -9 -12 -9 -12 0 0 14 -19 15 -40 2z m103 -70 c0 -17 -7 -39 -17 -48 -16 -16 -18 -16 -32 2 -20 28 -18 83 4 95 24 14 45 -10 45 -49z"/>
<path d="M8670 4790 c0 -5 5 -10 10 -10 13 0 13 -86 0 -111 -10 -17 -7 -19 26 -19 28 0 34 3 26 13 -8 9 -2 21 19 45 l29 32 0 -25 c0 -15 -5 -35 -10 -46 -10 -17 -7 -19 27 -19 29 0 34 3 25 12 -7 7 -12 35 -12 63 0 28 5 56 12 63 9 9 4 12 -26 12 -31 0 -37 -3 -32 -16 4 -9 -4 -28 -19 -46 l-25 -30 0 34 c0 19 5 39 12 46 9 9 4 12 -25 12 -20 0 -37 -4 -37 -10z"/>
<path d="M8867 4782 c-23 -26 -22 -94 1 -115 29 -27 80 -22 94 8 14 31 4 43 -17 21 -20 -20 -29 -20 -49 0 -23 22 -20 71 4 84 15 8 21 6 30 -10 6 -11 17 -20 25 -20 16 0 18 9 9 34 -9 23 -76 21 -97 -2z"/>
<path d="M8990 4780 c0 -23 15 -27 24 -5 3 8 12 15 21 15 11 0 15 -12 15 -51 0 -28 -5 -59 -10 -70 -10 -17 -7 -19 27 -19 29 0 34 3 25 12 -14 14 -16 128 -3 128 5 0 16 -7 25 -15 20 -20 26 -19 26 5 0 18 -7 20 -75 20 -68 0 -75 -2 -75 -20z"/>
<path d="M9150 4790 c0 -5 5 -10 10 -10 13 0 13 -86 0 -111 -10 -17 -7 -19 26 -19 28 0 34 3 26 13 -8 9 -2 21 19 45 l29 32 0 -25 c0 -15 -5 -35 -10 -46 -10 -17 -7 -19 27 -19 29 0 34 3 25 12 -7 7 -12 35 -12 63 0 28 5 56 12 63 9 9 4 12 -26 12 -31 0 -37 -3 -32 -16 4 -9 -4 -28 -19 -46 l-25 -30 0 34 c0 19 5 39 12 46 9 9 4 12 -25 12 -20 0 -37 -4 -37 -10z"/>
<path d="M9330 4790 c0 -5 5 -10 10 -10 13 0 13 -86 0 -111 -10 -17 -7 -19 27 -19 29 0 34 3 25 12 -7 7 -12 26 -12 43 l0 30 23 -40 c16 -29 30 -41 50 -43 l28 -3 -31 43 c-33 47 -32 78 1 78 11 0 19 7 19 16 0 24 -43 13 -55 -13 -5 -13 -15 -25 -22 -27 -17 -7 -17 26 -1 42 9 9 4 12 -25 12 -20 0 -37 -4 -37 -10z"/>
<path d="M9490 4790 c0 -5 5 -10 10 -10 13 0 13 -86 0 -111 -10 -17 -7 -19 26 -19 28 0 34 3 26 13 -8 9 -2 21 19 45 l29 32 0 -25 c0 -15 -5 -35 -10 -46 -10 -17 -7 -19 27 -19 29 0 34 3 25 12 -7 7 -12 35 -12 63 0 28 5 56 12 63 9 9 4 12 -26 12 -31 0 -37 -3 -32 -16 4 -9 -4 -28 -19 -46 l-25 -30 0 34 c0 19 5 39 12 46 9 9 4 12 -25 12 -20 0 -37 -4 -37 -10z"/>
<path d="M10360 4790 c0 -5 5 -10 10 -10 13 0 13 -86 0 -111 -10 -17 -7 -19 26 -19 28 0 34 3 26 13 -8 9 -2 21 19 45 l29 32 0 -25 c0 -15 -5 -35 -10 -46 -10 -17 -7 -19 27 -19 29 0 34 3 25 12 -7 7 -12 35 -12 63 0 28 5 56 12 63 9 9 4 12 -26 12 -31 0 -37 -3 -32 -16 4 -9 -4 -28 -19 -46 l-25 -30 0 34 c0 19 5 39 12 46 9 9 4 12 -25 12 -20 0 -37 -4 -37 -10z"/>
<path d="M10620 4790 c-12 -7 -12 -12 -2 -22 15 -15 16 -141 2 -169 -10 -17 -7 -19 27 -19 29 0 34 3 25 12 -7 7 -12 22 -12 35 0 19 5 23 33 23 20 0 41 8 50 18 19 21 22 83 7 113 -12 22 -59 26 -78 7 -9 -9 -12 -9 -12 0 0 14 -19 15 -40 2z m103 -70 c0 -17 -7 -39 -17 -48 -16 -16 -18 -16 -32 2 -20 28 -18 83 4 95 24 14 45 -10 45 -49z"/>
<path d="M10780 4791 c0 -5 4 -11 9 -13 5 -1 22 -30 39 -63 34 -70 30 -105 -13 -105 -16 0 -25 -6 -25 -15 0 -18 43 -20 58 -2 6 6 25 48 42 92 36 92 46 106 66 98 17 -6 19 -84 4 -114 -10 -17 -7 -19 27 -19 29 0 34 3 25 12 -7 7 -12 26 -12 42 l0 31 23 -40 c16 -29 30 -41 50 -43 l28 -3 -31 43 c-33 47 -32 78 1 78 11 0 19 7 19 16 0 24 -43 13 -55 -13 -5 -13 -15 -25 -22 -27 -17 -7 -17 26 -1 42 9 9 -3 12 -56 12 -53 0 -66 -3 -59 -12 7 -9 5 -25 -6 -52 l-17 -39 -17 44 c-13 33 -14 45 -4 51 7 4 -6 8 -30 8 -24 0 -43 -4 -43 -9z"/>
<path d="M11136 4778 c-22 -31 -20 -91 2 -111 28 -25 87 -22 106 5 22 31 20 91 -2 111 -28 25 -87 22 -106 -5z m84 -32 c15 -47 -5 -91 -36 -79 -18 7 -36 66 -28 89 17 43 48 38 64 -10z"/>
<path d="M11280 4790 c0 -5 5 -10 10 -10 13 0 13 -86 -1 -111 -10 -19 -7 -20 53 -17 58 3 63 5 66 27 3 15 -3 30 -14 38 -10 8 -13 13 -5 13 8 0 11 11 9 33 -3 32 -4 32 -60 35 -36 2 -58 -1 -58 -8z m84 -34 c-3 -8 -12 -17 -20 -20 -10 -4 -14 3 -14 25 0 26 2 29 20 19 11 -6 17 -17 14 -24z m1 -53 c16 -16 16 -17 0 -30 -23 -16 -35 -8 -35 23 0 28 12 31 35 7z"/>
<path d="M11456 4778 c-22 -31 -20 -91 2 -111 28 -25 87 -22 106 5 22 31 20 91 -2 111 -28 25 -87 22 -106 -5z m84 -32 c15 -47 -5 -91 -36 -79 -18 7 -36 66 -28 89 17 43 48 38 64 -10z"/>
<path d="M11630 4792 c0 -4 4 -12 10 -18 13 -13 -5 -85 -24 -100 -9 -6 -16 -23 -16 -38 l0 -27 26 20 c34 27 74 27 109 -1 l28 -22 -7 35 c-16 74 -18 130 -6 144 11 13 3 15 -54 15 -36 0 -66 -4 -66 -8z m78 -64 l-3 -63 -34 -3 c-29 -3 -33 -1 -26 15 5 10 10 39 13 66 3 42 6 47 28 47 24 0 25 -2 22 -62z"/>
<path d="M11797 4782 c-23 -26 -22 -94 1 -115 29 -27 80 -22 94 8 14 31 4 43 -17 21 -20 -20 -29 -20 -49 0 -23 22 -20 71 4 84 15 8 21 6 30 -10 6 -11 17 -20 25 -20 16 0 18 9 9 34 -9 23 -76 21 -97 -2z"/>
<path d="M11910 4780 c0 -23 15 -27 24 -5 3 8 12 15 21 15 11 0 15 -12 15 -51 0 -28 -5 -59 -10 -70 -10 -17 -7 -19 27 -19 29 0 34 3 25 12 -14 14 -16 128 -3 128 5 0 16 -7 25 -15 20 -20 26 -19 26 5 0 18 -7 20 -75 20 -68 0 -75 -2 -75 -20z"/>
<path d="M12070 4790 c0 -5 5 -10 10 -10 13 0 13 -86 -1 -111 -10 -19 -7 -20 53 -17 58 3 63 5 66 27 3 15 -3 30 -14 38 -10 8 -13 13 -5 13 8 0 11 11 9 33 -3 32 -4 32 -60 35 -36 2 -58 -1 -58 -8z m84 -34 c-3 -8 -12 -17 -20 -20 -10 -4 -14 3 -14 25 0 26 2 29 20 19 11 -6 17 -17 14 -24z m1 -53 c16 -16 16 -17 0 -30 -23 -16 -35 -8 -35 23 0 28 12 31 35 7z"/>
<path d="M12220 4791 c0 -5 4 -11 9 -13 5 -1 22 -30 39 -63 34 -70 30 -105 -13 -105 -16 0 -25 -6 -25 -15 0 -18 43 -20 58 -2 6 6 25 48 42 92 17 44 39 88 47 98 15 16 14 17 -17 17 -25 0 -30 -3 -23 -12 7 -9 5 -25 -6 -52 l-17 -39 -17 44 c-13 33 -14 45 -4 51 7 4 -6 8 -30 8 -24 0 -43 -4 -43 -9z"/>
<path d="M12407 4793 c-12 -12 -7 -50 8 -63 12 -10 11 -17 -11 -46 l-26 -34 23 0 c16 0 32 12 49 37 18 26 26 32 28 20 2 -9 -2 -25 -8 -36 -10 -19 -8 -21 27 -21 29 0 34 3 25 12 -7 7 -12 35 -12 63 0 28 5 56 12 63 9 9 -1 12 -48 12 -34 0 -64 -3 -67 -7z m73 -39 c0 -28 -12 -31 -35 -7 -16 16 -16 17 0 30 23 16 35 8 35 -23z"/>
<path d="M12557 4782 c-23 -26 -22 -94 1 -115 29 -27 80 -22 94 8 14 31 4 43 -17 21 -20 -20 -29 -20 -49 0 -23 22 -20 71 4 84 15 8 21 6 30 -10 6 -11 17 -20 25 -20 16 0 18 9 9 34 -9 23 -76 21 -97 -2z"/>
<path d="M12690 4790 c0 -5 5 -10 10 -10 13 0 13 -86 0 -111 -10 -18 -7 -19 39 -19 67 0 81 7 81 40 0 29 -15 40 -56 40 -18 0 -24 5 -24 23 0 13 5 28 12 35 9 9 4 12 -25 12 -20 0 -37 -4 -37 -10z m85 -87 c16 -16 16 -17 0 -30 -23 -16 -35 -8 -35 23 0 28 12 31 35 7z"/>
<path d="M703 4674 c-8 -21 13 -42 28 -27 13 13 5 43 -11 43 -6 0 -13 -7 -17 -16z"/>
<path d="M1876 4479 c-14 -11 -26 -30 -26 -41 0 -20 2 -19 25 6 20 22 28 25 44 16 11 -5 23 -15 26 -20 12 -19 -15 -76 -55 -115 -22 -22 -40 -43 -40 -47 0 -4 32 -8 70 -8 39 0 70 4 70 9 0 5 3 18 6 28 6 15 4 16 -7 6 -7 -7 -30 -13 -52 -13 l-39 0 41 46 c49 56 57 112 19 138 -30 21 -50 20 -82 -5z"/>
<path d="M1617 4472 c-27 -29 -21 -49 6 -23 14 12 30 19 40 16 27 -11 28 -35 1 -60 l-26 -24 25 -12 c34 -15 40 -46 15 -71 -14 -14 -23 -17 -31 -9 -16 16 -47 13 -47 -4 0 -24 85 -20 110 5 24 24 27 82 5 100 -11 9 -13 16 -5 24 14 14 13 49 -2 64 -18 18 -73 14 -91 -6z"/>
<path d="M6990 4420 c-18 -11 -4 -42 17 -38 10 2 19 10 21 19 4 19 -19 31 -38 19z"/>
<path d="M1020 4410 c-12 -7 -12 -12 -2 -22 15 -15 16 -141 2 -169 -10 -17 -7 -19 27 -19 29 0 34 3 25 12 -7 7 -12 22 -12 35 0 19 5 23 33 23 20 0 41 8 50 18 19 21 22 83 7 113 -12 22 -59 26 -78 7 -9 -9 -12 -9 -12 0 0 14 -19 15 -40 2z m103 -70 c0 -17 -7 -39 -17 -48 -16 -16 -18 -16 -32 2 -20 28 -18 83 4 95 24 14 45 -10 45 -49z"/>
<path d="M1190 4410 c0 -5 5 -10 10 -10 13 0 13 -86 0 -111 -10 -17 -7 -19 26 -19 28 0 34 3 26 13 -8 9 -2 21 19 45 l29 32 0 -25 c0 -15 -5 -35 -10 -46 -10 -17 -7 -19 27 -19 29 0 34 3 25 12 -7 7 -12 35 -12 63 0 28 5 56 12 63 9 9 4 12 -26 12 -31 0 -37 -3 -32 -16 4 -9 -4 -28 -19 -46 l-25 -30 0 34 c0 19 5 39 12 46 9 9 4 12 -25 12 -20 0 -37 -4 -37 -10z"/>
<path d="M1387 4402 c-23 -26 -22 -94 1 -115 29 -27 80 -22 94 8 14 31 4 43 -17 21 -20 -20 -29 -20 -49 0 -23 22 -20 71 4 84 15 8 21 6 30 -10 6 -11 17 -20 25 -20 16 0 18 9 9 34 -9 23 -76 21 -97 -2z"/>
<path d="M2180 4410 c0 -5 5 -10 10 -10 13 0 13 -86 -1 -111 -10 -19 -7 -20 53 -17 58 3 63 5 66 27 3 15 -3 30 -14 38 -10 8 -13 13 -5 13 8 0 11 11 9 33 -3 32 -4 32 -60 35 -36 2 -58 -1 -58 -8z m84 -34 c-3 -8 -12 -17 -20 -20 -10 -4 -14 3 -14 25 0 26 2 29 20 19 11 -6 17 -17 14 -24z m1 -53 c16 -16 16 -17 0 -30 -23 -16 -35 -8 -35 23 0 28 12 31 35 7z"/>
<path d="M2330 4410 c0 -5 5 -10 10 -10 13 0 13 -86 0 -111 -10 -18 -7 -19 39 -19 67 0 81 7 81 40 0 29 -15 40 -56 40 -18 0 -24 5 -24 23 0 13 5 28 12 35 9 9 4 12 -25 12 -20 0 -37 -4 -37 -10z m85 -87 c16 -16 16 -17 0 -30 -23 -16 -35 -8 -35 23 0 28 12 31 35 7z"/>
<path d="M2470 4410 c0 -5 5 -10 10 -10 13 0 13 -86 0 -111 -10 -17 -7 -19 27 -19 29 0 34 3 25 12 -7 7 -12 35 -12 63 0 28 5 56 12 63 9 9 4 12 -25 12 -20 0 -37 -4 -37 -10z"/>
<path d="M2560 4410 c0 -5 5 -10 10 -10 6 0 10 -16 10 -35 0 -34 1 -35 40 -35 41 0 47 -8 30 -41 -10 -17 -7 -19 27 -19 29 0 34 3 25 12 -7 7 -12 35 -12 63 0 28 5 56 12 63 9 9 4 12 -25 12 -20 0 -37 -4 -37 -10 0 -5 5 -10 10 -10 6 0 10 -11 10 -24 0 -24 -23 -41 -41 -30 -13 8 -11 48 3 62 9 9 4 12 -25 12 -20 0 -37 -4 -37 -10z"/>
<path d="M2730 4410 c0 -5 5 -10 10 -10 13 0 13 -86 0 -111 -10 -17 -7 -19 26 -19 28 0 34 3 26 13 -8 9 -2 21 19 45 l29 32 0 -25 c0 -15 -5 -35 -10 -46 -10 -17 -7 -19 27 -19 29 0 34 3 25 12 -7 7 -12 35 -12 63 0 28 5 56 12 63 9 9 4 12 -26 12 -31 0 -37 -3 -32 -16 4 -9 -4 -28 -19 -46 l-25 -30 0 34 c0 19 5 39 12 46 9 9 4 12 -25 12 -20 0 -37 -4 -37 -10z"/>
<path d="M2927 4402 c-23 -26 -22 -94 1 -115 29 -27 80 -22 94 8 14 31 4 43 -17 21 -20 -20 -29 -20 -49 0 -23 22 -20 71 4 84 15 8 21 6 30 -10 6 -11 17 -20 25 -20 16 0 18 9 9 34 -9 23 -76 21 -97 -2z"/>
<path d="M3080 4410 c0 -5 5 -10 10 -10 11 0 13 -42 4 -77 -4 -14 -14 -23 -25 -23 -11 0 -19 -7 -19 -16 0 -11 8 -14 28 -12 26 3 27 5 30 71 3 64 4 67 27 67 23 0 25 -4 25 -51 0 -28 -5 -59 -10 -70 -10 -17 -7 -19 27 -19 29 0 34 3 25 12 -7 7 -12 35 -12 63 0 28 5 56 12 63 9 9 -3 12 -55 12 -38 0 -67 -4 -67 -10z"/>
<path d="M3220 4410 c0 -5 5 -10 10 -10 13 0 13 -86 0 -111 -10 -17 -7 -19 26 -19 28 0 34 3 26 13 -8 9 -2 21 19 45 l29 32 0 -25 c0 -15 -5 -35 -10 -46 -10 -17 -7 -19 27 -19 29 0 34 3 25 12 -7 7 -12 35 -12 63 0 28 5 56 12 63 9 9 4 12 -26 12 -31 0 -37 -3 -32 -16 4 -9 -4 -28 -19 -46 l-25 -30 0 34 c0 19 5 39 12 46 9 9 4 12 -25 12 -20 0 -37 -4 -37 -10z"/>
<path d="M3390 4400 c0 -23 15 -27 24 -5 3 8 12 15 21 15 11 0 15 -12 15 -51 0 -28 -5 -59 -10 -70 -10 -17 -7 -19 27 -19 29 0 34 3 25 12 -14 14 -16 128 -3 128 5 0 16 -7 25 -15 20 -20 26 -19 26 5 0 18 -7 20 -75 20 -68 0 -75 -2 -75 -20z"/>
<path d="M3550 4410 c0 -5 5 -10 10 -10 13 0 13 -86 0 -111 -10 -18 -7 -19 39 -19 67 0 81 7 81 40 0 29 -15 40 -56 40 -18 0 -24 5 -24 23 0 13 5 28 12 35 9 9 4 12 -25 12 -20 0 -37 -4 -37 -10z m85 -87 c16 -16 16 -17 0 -30 -23 -16 -35 -8 -35 23 0 28 12 31 35 7z"/>
<path d="M3790 4410 c0 -5 5 -10 10 -10 13 0 13 -86 0 -111 -10 -17 -7 -19 27 -19 29 0 34 3 25 12 -7 7 -12 38 -12 70 0 58 0 58 30 58 29 0 30 -1 30 -51 0 -28 -5 -59 -10 -70 -10 -17 -7 -19 27 -19 29 0 34 3 25 12 -7 7 -12 35 -12 63 0 28 5 56 12 63 9 9 -6 12 -70 12 -48 0 -82 -4 -82 -10z"/>
<path d="M3993 4414 c-18 -8 -16 -44 1 -44 7 0 16 10 20 22 5 22 6 22 23 4 10 -10 14 -20 8 -22 -5 -2 -25 -13 -43 -24 -27 -16 -33 -26 -30 -48 3 -26 5 -27 67 -27 43 0 66 4 69 13 2 6 -3 12 -12 12 -11 0 -16 14 -18 58 l-3 57 -35 2 c-19 1 -41 0 -47 -3z m57 -84 c0 -22 -22 -36 -40 -25 -8 5 -6 13 6 26 22 25 34 24 34 -1z"/>
<path d="M4110 4410 c-12 -7 -12 -12 -2 -22 15 -15 16 -141 2 -169 -10 -17 -7 -19 27 -19 29 0 34 3 25 12 -7 7 -12 22 -12 35 0 19 5 23 33 23 20 0 41 8 50 18 19 21 22 83 7 113 -12 22 -59 26 -78 7 -9 -9 -12 -9 -12 0 0 14 -19 15 -40 2z m103 -70 c0 -17 -7 -39 -17 -48 -16 -16 -18 -16 -32 2 -20 28 -18 83 4 95 24 14 45 -10 45 -49z"/>
<path d="M4303 4414 c-18 -8 -16 -44 1 -44 7 0 16 10 20 22 5 22 6 22 23 4 10 -10 14 -20 8 -22 -5 -2 -25 -13 -43 -24 -27 -16 -33 -26 -30 -48 3 -26 5 -27 67 -27 43 0 66 4 69 13 2 6 -3 12 -12 12 -11 0 -16 14 -18 58 l-3 57 -35 2 c-19 1 -41 0 -47 -3z m57 -84 c0 -22 -22 -36 -40 -25 -8 5 -6 13 6 26 22 25 34 24 34 -1z"/>
<path d="M4430 4410 c0 -5 5 -10 10 -10 13 0 13 -86 0 -111 -9 -17 -7 -19 16 -19 22 0 24 3 15 14 -7 8 -11 32 -9 53 l3 38 19 -52 c11 -29 25 -53 31 -53 6 0 20 24 31 53 18 50 19 51 22 20 2 -18 -2 -41 -8 -53 -10 -18 -8 -20 27 -20 29 0 34 3 25 12 -7 7 -12 35 -12 63 0 28 5 56 12 63 9 9 5 12 -19 12 -27 0 -32 -5 -50 -50 l-19 -51 -18 51 c-16 44 -21 50 -47 50 -16 0 -29 -4 -29 -10z"/>
<path d="M4657 4402 c-22 -24 -22 -95 -1 -116 18 -19 75 -21 92 -4 7 7 12 20 12 31 0 17 -2 17 -22 3 -28 -20 -33 -20 -52 0 -30 29 -20 44 29 44 37 0 45 3 45 18 0 10 -5 23 -12 30 -18 18 -73 14 -91 -6z m67 -18 c4 -10 -3 -14 -24 -14 -32 0 -37 9 -19 27 14 14 35 7 43 -13z"/>
<path d="M4770 4400 c0 -23 15 -27 24 -5 3 8 12 15 21 15 11 0 15 -12 15 -51 0 -28 -5 -59 -10 -70 -10 -17 -7 -19 27 -19 29 0 34 3 25 12 -14 14 -16 128 -3 128 5 0 16 -7 25 -15 8 -9 21 -14 28 -13 17 4 24 -133 8 -162 -10 -18 -8 -20 27 -20 29 0 34 3 25 12 -7 7 -12 22 -12 35 0 19 5 23 33 23 20 0 41 8 50 18 19 21 22 83 7 113 -12 22 -59 26 -78 7 -7 -7 -12 -8 -12 -2 0 7 -39 12 -100 13 -95 2 -100 1 -100 -19z m263 -60 c0 -17 -7 -39 -17 -48 -16 -16 -18 -16 -32 2 -20 28 -18 83 4 95 24 14 45 -10 45 -49z"/>
<path d="M5090 4410 c0 -5 5 -10 10 -10 13 0 13 -86 0 -111 -10 -18 -7 -19 39 -19 67 0 81 7 81 40 0 29 -15 40 -56 40 -18 0 -24 5 -24 23 0 13 5 28 12 35 9 9 4 12 -25 12 -20 0 -37 -4 -37 -10z m85 -87 c16 -16 16 -17 0 -30 -23 -16 -35 -8 -35 23 0 28 12 31 35 7z"/>
<path d="M5230 4410 c0 -5 5 -10 10 -10 13 0 13 -86 0 -111 -10 -17 -7 -19 27 -19 29 0 34 3 25 12 -7 7 -12 35 -12 63 0 28 5 56 12 63 9 9 4 12 -25 12 -20 0 -37 -4 -37 -10z"/>
<path d="M5400 4410 c-12 -7 -12 -12 -2 -22 15 -15 16 -141 2 -169 -10 -17 -7 -19 27 -19 29 0 34 3 25 12 -7 7 -12 22 -12 35 0 19 5 23 33 23 20 0 41 8 50 18 19 21 22 83 7 113 -12 22 -59 26 -78 7 -9 -9 -12 -9 -12 0 0 14 -19 15 -40 2z m103 -70 c0 -17 -7 -39 -17 -48 -16 -16 -18 -16 -32 2 -20 28 -18 83 4 95 24 14 45 -10 45 -49z"/>
<path d="M5587 4402 c-22 -24 -22 -95 -1 -116 18 -19 75 -21 92 -4 7 7 12 20 12 31 0 17 -2 17 -22 3 -28 -20 -33 -20 -52 0 -30 29 -20 44 29 44 37 0 45 3 45 18 0 10 -5 23 -12 30 -18 18 -73 14 -91 -6z m67 -18 c4 -10 -3 -14 -24 -14 -32 0 -37 9 -19 27 14 14 35 7 43 -13z"/>
<path d="M5720 4410 c0 -5 5 -10 10 -10 13 0 13 -86 0 -111 -10 -17 -7 -19 27 -19 29 0 34 3 25 12 -7 7 -12 38 -12 70 0 61 13 74 44 43 20 -20 26 -19 26 5 0 18 -7 20 -60 20 -33 0 -60 -4 -60 -10z"/>
<path d="M5850 4411 c0 -5 4 -11 9 -13 5 -1 22 -30 39 -63 34 -70 30 -105 -13 -105 -16 0 -25 -6 -25 -15 0 -18 43 -20 58 -2 6 6 25 48 42 92 17 44 39 88 47 98 15 16 14 17 -17 17 -25 0 -30 -3 -23 -12 7 -9 5 -25 -6 -52 l-17 -39 -17 44 c-13 33 -14 45 -4 51 7 4 -6 8 -30 8 -24 0 -43 -4 -43 -9z"/>
<path d="M6040 4410 c0 -5 5 -10 10 -10 11 0 13 -42 4 -77 -4 -14 -14 -23 -25 -23 -11 0 -19 -7 -19 -16 0 -11 8 -14 28 -12 26 3 27 5 30 71 3 64 4 67 27 67 23 0 25 -4 25 -51 0 -28 -5 -59 -10 -70 -10 -17 -7 -19 27 -19 29 0 34 3 25 12 -7 7 -12 35 -12 63 0 28 5 56 12 63 9 9 -3 12 -55 12 -38 0 -67 -4 -67 -10z"/>
<path d="M6207 4413 c-12 -12 -7 -50 8 -63 12 -10 11 -17 -11 -46 l-26 -34 23 0 c16 0 32 12 49 37 18 26 26 32 28 20 2 -9 -2 -25 -8 -36 -10 -19 -8 -21 27 -21 29 0 34 3 25 12 -14 14 -16 114 -2 123 6 3 10 -1 10 -9 0 -20 16 -21 24 -1 3 8 12 15 21 15 11 0 15 -12 15 -51 0 -28 -5 -59 -10 -70 -10 -17 -7 -19 27 -19 29 0 34 3 25 12 -14 14 -16 128 -3 128 5 0 16 -7 25 -15 20 -20 26 -19 26 5 0 19 -7 20 -133 20 -74 0 -137 -3 -140 -7z m73 -39 c0 -28 -12 -31 -35 -7 -16 16 -16 17 0 30 23 16 35 8 35 -23z"/>
<path d="M6506 4398 c-22 -31 -20 -91 2 -111 28 -25 87 -22 106 5 22 31 20 91 -2 111 -28 25 -87 22 -106 -5z m84 -32 c15 -47 -5 -91 -36 -79 -18 7 -36 66 -28 89 17 43 48 38 64 -10z"/>
<path d="M6650 4410 c-12 -7 -12 -12 -2 -22 15 -15 16 -141 2 -169 -10 -17 -7 -19 27 -19 29 0 34 3 25 12 -7 7 -12 22 -12 35 0 19 5 23 33 23 20 0 41 8 50 18 19 21 22 83 7 113 -12 22 -59 26 -78 7 -9 -9 -12 -9 -12 0 0 14 -19 15 -40 2z m103 -70 c0 -17 -7 -39 -17 -48 -16 -16 -18 -16 -32 2 -20 28 -18 83 4 95 24 14 45 -10 45 -49z"/>
<path d="M6843 4414 c-18 -8 -16 -44 1 -44 7 0 16 10 20 22 5 22 6 22 23 4 10 -10 14 -20 8 -22 -5 -2 -25 -13 -43 -24 -27 -16 -33 -26 -30 -48 3 -26 5 -27 67 -27 43 0 66 4 69 13 2 6 -3 12 -12 12 -11 0 -16 14 -18 58 l-3 57 -35 2 c-19 1 -41 0 -47 -3z m57 -84 c0 -22 -22 -36 -40 -25 -8 5 -6 13 6 26 22 25 34 24 34 -1z"/>
<path d="M6984 4295 c-4 -9 -2 -21 4 -27 15 -15 44 -1 40 19 -4 23 -36 29 -44 8z"/>
<path d="M1530 4285 c0 -8 7 -15 15 -15 8 0 15 7 15 15 0 8 -7 15 -15 15 -8 0 -15 -7 -15 -15z"/>
<path d="M1780 4285 c0 -8 7 -15 15 -15 8 0 15 7 15 15 0 8 -7 15 -15 15 -8 0 -15 -7 -15 -15z"/>
<path d="M2020 4285 c0 -9 9 -15 22 -15 l21 0 -23 -25 c-17 -18 -19 -25 -9 -25 23 0 39 21 39 52 0 23 -4 28 -25 28 -16 0 -25 -6 -25 -15z"/>
<path d="M63 3423 c-4 -10 -13 -22 -21 -27 -10 -6 -11 -10 -3 -15 9 -6 9 -20 0 -58 -7 -28 -9 -58 -6 -67 8 -21 60 -21 77 -1 18 21 6 29 -21 15 -22 -12 -22 -12 -16 39 8 64 12 71 43 71 13 0 24 5 24 10 0 6 -12 10 -26 10 -21 0 -24 4 -19 20 8 26 -23 28 -32 3z"/>
<path d="M893 3423 c-4 -10 -13 -22 -21 -27 -10 -6 -11 -10 -3 -15 9 -6 9 -20 0 -58 -7 -28 -9 -58 -6 -67 8 -21 60 -21 77 -1 18 21 6 29 -21 15 -22 -12 -22 -12 -16 39 8 64 12 71 43 71 13 0 24 5 24 10 0 6 -12 10 -26 10 -21 0 -24 4 -19 20 8 26 -23 28 -32 3z"/>
<path d="M1524 3386 c-25 -19 -9 -34 17 -17 30 18 33 9 19 -49 -7 -27 -9 -57 -6 -65 7 -18 47 -20 64 -3 19 19 14 30 -9 23 -21 -7 -21 -5 -14 41 9 61 11 64 41 64 13 0 24 5 24 10 0 16 -113 12 -136 -4z"/>
<path d="M520 3360 c0 -6 42 -10 105 -10 63 0 105 4 105 10 0 6 -42 10 -105 10 -63 0 -105 -4 -105 -10z"/>
<path d="M345 3328 c-11 -6 -27 -14 -35 -18 -21 -10 -36 -74 -24 -108 7 -21 17 -28 44 -30 37 -4 60 16 60 52 0 34 -16 49 -49 49 -41 0 -40 14 1 25 18 4 34 16 36 25 4 19 -4 21 -33 5z m10 -88 c7 -22 -2 -60 -14 -60 -18 0 -33 31 -27 55 8 30 32 33 41 5z"/>
<path d="M1200 3330 c0 -6 42 -10 105 -10 63 0 105 4 105 10 0 6 -42 10 -105 10 -63 0 -105 -4 -105 -10z"/>
<path d="M1008 3312 c-32 -19 -37 -36 -8 -27 18 6 20 2 20 -45 0 -43 -3 -52 -22 -60 -18 -7 -11 -9 32 -9 42 0 51 2 38 10 -15 8 -18 24 -18 79 0 39 -3 70 -7 70 -5 0 -20 -8 -35 -18z"/>
<path d="M520 3300 c0 -6 42 -10 105 -10 63 0 105 4 105 10 0 6 -42 10 -105 10 -63 0 -105 -4 -105 -10z"/>
<path d="M154 3255 c-12 -18 -14 -31 -7 -52 8 -23 16 -29 47 -31 47 -4 66 11 66 52 0 41 -16 56 -57 56 -24 0 -37 -7 -49 -25z m64 3 c26 -26 10 -78 -24 -78 -13 0 -23 53 -14 71 12 22 21 24 38 7z"/>
<path d="M956 2675 c-35 -32 -46 -64 -46 -131 0 -80 41 -144 92 -144 24 0 23 17 -2 25 -71 22 -71 228 0 250 11 3 20 11 20 16 0 18 -37 9 -64 -16z"/>
<path d="M2030 2691 c0 -5 9 -13 20 -16 70 -22 70 -228 0 -250 -25 -8 -26 -25 -2 -25 97 0 127 223 38 285 -23 17 -56 20 -56 6z"/>
<path d="M2236 2557 c-31 -79 -56 -147 -56 -151 0 -4 7 -6 16 -4 10 2 35 52 70 141 30 77 54 143 54 148 0 5 -6 9 -14 9 -9 0 -35 -53 -70 -143z"/>
<path d="M28 2678 c5 -7 13 -57 17 -110 9 -121 24 -128 73 -38 19 33 48 83 67 110 l34 50 -41 0 c-34 0 -39 -2 -29 -14 10 -12 5 -28 -26 -81 l-38 -67 -3 67 c-2 41 2 72 9 81 10 12 4 14 -31 14 -33 0 -40 -3 -32 -12z"/>
<path d="M1034 2665 c-9 -37 2 -42 31 -15 14 13 28 21 31 17 10 -10 -27 -160 -44 -179 -14 -17 -12 -18 28 -18 33 0 40 3 33 13 -7 8 -4 39 9 97 11 47 21 86 23 88 7 8 35 -12 35 -25 0 -24 23 -9 31 20 l7 27 -89 0 c-87 0 -89 -1 -95 -25z"/>
<path d="M1744 2665 c-9 -37 2 -42 31 -15 14 13 28 21 31 17 10 -10 -27 -160 -44 -179 -14 -17 -12 -18 28 -18 33 0 40 3 33 13 -7 8 -4 39 9 97 11 47 21 86 23 88 7 8 35 -12 35 -25 0 -24 23 -9 31 20 l7 27 -89 0 c-87 0 -89 -1 -95 -25z"/>
<path d="M3073 2673 c-4 -10 -21 -54 -40 -98 -18 -44 -33 -85 -33 -92 0 -10 24 -13 90 -13 63 0 90 4 90 12 0 7 -14 56 -32 110 -25 76 -36 98 -50 98 -10 0 -22 -8 -25 -17z m48 -120 l18 -53 -50 0 c-57 0 -57 -1 -16 90 12 29 21 40 25 30 3 -8 13 -39 23 -67z"/>
<path d="M3208 2678 c18 -23 42 -120 36 -147 -4 -14 -14 -34 -22 -43 -14 -17 -12 -18 28 -18 32 0 41 3 33 11 -19 19 3 76 56 144 l51 65 -36 0 c-29 0 -34 -3 -30 -17 6 -19 -39 -82 -50 -71 -4 4 -7 25 -8 48 -1 39 -2 40 -35 40 -25 0 -31 -3 -23 -12z"/>
<path d="M2393 2653 c-4 -10 -13 -22 -21 -27 -10 -6 -11 -10 -3 -15 9 -6 9 -20 0 -58 -7 -28 -9 -58 -6 -67 8 -21 60 -21 77 -1 18 21 6 29 -21 15 -22 -12 -22 -12 -16 39 8 64 12 71 43 71 13 0 24 5 24 10 0 6 -12 10 -26 10 -21 0 -24 4 -19 20 8 26 -23 28 -32 3z"/>
<path d="M560 2590 c0 -6 42 -10 105 -10 63 0 105 4 105 10 0 6 -42 10 -105 10 -63 0 -105 -4 -105 -10z"/>
<path d="M2860 2580 c0 -13 7 -20 20 -20 13 0 20 7 20 20 0 13 -7 20 -20 20 -13 0 -20 -7 -20 -20z"/>
<path d="M385 2558 c-11 -6 -27 -14 -35 -18 -21 -10 -36 -74 -24 -108 7 -21 17 -28 44 -30 37 -4 60 16 60 52 0 34 -16 49 -49 49 -41 0 -40 14 1 25 18 4 34 16 36 25 4 19 -4 21 -33 5z m10 -88 c7 -22 -2 -60 -14 -60 -18 0 -33 31 -27 55 8 30 32 33 41 5z"/>
<path d="M1420 2560 c0 -6 42 -10 105 -10 63 0 105 4 105 10 0 6 -42 10 -105 10 -63 0 -105 -4 -105 -10z"/>
<path d="M2634 2554 c3 -9 -1 -45 -9 -80 -8 -36 -15 -67 -15 -70 0 -2 20 -4 45 -4 36 0 48 5 60 24 9 14 15 39 13 58 -3 29 -6 33 -33 33 -28 0 -30 3 -27 28 4 22 1 27 -18 27 -16 0 -20 -4 -16 -16z m66 -82 c0 -21 -27 -62 -41 -62 -15 0 -11 43 7 68 17 24 34 21 34 -6z"/>
<path d="M1213 2553 c-15 -5 -18 -33 -4 -33 6 0 13 5 16 10 3 6 13 10 21 10 25 0 15 -41 -21 -83 -19 -22 -35 -44 -35 -49 0 -4 25 -8 55 -8 48 0 55 2 55 20 0 11 -4 20 -10 20 -5 0 -10 -4 -10 -10 0 -5 -12 -10 -26 -10 l-26 0 36 40 c20 22 36 49 36 60 0 30 -49 49 -87 33z"/>
<path d="M1928 2542 c-32 -19 -37 -36 -8 -27 18 6 20 2 20 -45 0 -43 -3 -52 -22 -60 -18 -7 -11 -9 32 -9 42 0 51 2 38 10 -15 8 -18 24 -18 79 0 39 -3 70 -7 70 -5 0 -20 -8 -35 -18z"/>
<path d="M560 2530 c0 -6 42 -10 105 -10 63 0 105 4 105 10 0 6 -42 10 -105 10 -63 0 -105 -4 -105 -10z"/>
<path d="M2491 2494 c-37 -48 -25 -94 24 -94 38 0 62 19 71 57 9 35 -7 57 -43 61 -23 2 -36 -3 -52 -24z m64 -32 c-8 -38 -31 -60 -46 -45 -15 15 -2 71 19 82 24 14 35 -2 27 -37z"/>
<path d="M194 2485 c-12 -18 -14 -31 -7 -52 8 -23 16 -29 47 -31 47 -4 66 11 66 52 0 41 -16 56 -57 56 -24 0 -37 -7 -49 -25z m64 3 c26 -26 10 -78 -24 -78 -13 0 -23 53 -14 71 12 22 21 24 38 7z"/>
<path d="M803 1845 c-24 -36 -43 -69 -43 -75 0 -5 20 -10 45 -10 48 0 51 -4 35 -44 -9 -25 -8 -26 27 -26 29 0 34 3 25 12 -20 20 -15 58 8 58 11 0 20 7 20 16 0 11 -6 14 -20 9 -19 -6 -20 -2 -20 59 0 88 -20 89 -77 1z m47 -25 c0 -36 -2 -40 -25 -40 -14 0 -25 2 -25 5 0 6 44 75 48 75 1 0 2 -18 2 -40z"/>
<path d="M24 1836 c-25 -19 -9 -34 17 -17 30 18 33 9 19 -49 -7 -27 -9 -57 -6 -65 7 -18 47 -20 64 -3 19 19 14 30 -9 23 -21 -7 -21 -5 -14 41 9 61 11 64 41 64 13 0 24 5 24 10 0 16 -113 12 -136 -4z"/>
<path d="M1184 1836 c-25 -19 -9 -34 17 -17 30 18 33 9 19 -49 -7 -27 -9 -57 -6 -65 7 -18 47 -20 64 -3 19 19 14 30 -9 23 -21 -7 -21 -5 -14 41 9 61 11 64 41 64 13 0 24 5 24 10 0 16 -113 12 -136 -4z"/>
<path d="M430 1810 c0 -6 42 -10 105 -10 63 0 105 4 105 10 0 6 -42 10 -105 10 -63 0 -105 -4 -105 -10z"/>
<path d="M1030 1800 c0 -13 7 -20 20 -20 13 0 20 7 20 20 0 13 -7 20 -20 20 -13 0 -20 -7 -20 -20z"/>
<path d="M430 1750 c0 -6 42 -10 105 -10 63 0 105 4 105 10 0 6 -42 10 -105 10 -63 0 -105 -4 -105 -10z"/>
<path d="M185 1685 c0 -50 2 -55 22 -55 14 0 21 5 18 13 -2 6 7 21 22 31 l26 19 -5 -32 c-4 -26 -1 -31 16 -31 19 0 21 6 21 55 0 50 -2 55 -22 55 -13 0 -22 -5 -20 -11 1 -6 -9 -18 -22 -27 -24 -16 -24 -16 -19 11 4 22 2 27 -16 27 -19 0 -21 -6 -21 -55z"/>
<path d="M60 1123 c5 -10 16 -34 24 -55 l14 -36 -50 -56 -50 -56 36 0 c24 0 34 4 31 13 -2 6 6 25 20 41 l24 30 6 -27 c4 -15 5 -34 1 -42 -4 -12 3 -15 29 -15 40 0 39 -2 21 36 -32 65 -31 79 13 127 23 24 41 47 41 51 0 3 -13 6 -30 6 -21 0 -30 -5 -30 -16 0 -9 -9 -27 -19 -40 l-19 -24 -6 24 c-3 14 -3 32 0 40 5 13 -1 16 -30 16 -32 0 -35 -2 -26 -17z"/>
<path d="M853 1133 c-18 -7 -16 -43 1 -43 8 0 16 7 20 15 7 20 33 19 45 -2 12 -22 1 -50 -43 -108 -51 -66 -48 -75 24 -75 57 0 60 1 60 25 0 25 -15 35 -22 14 -2 -6 -16 -9 -31 -7 l-27 3 40 50 c41 52 52 99 28 123 -12 12 -71 15 -95 5z"/>
<path d="M1778 1128 c5 -7 13 -57 17 -110 9 -121 24 -128 73 -38 19 33 48 83 67 110 l34 50 -41 0 c-34 0 -39 -2 -29 -14 10 -12 5 -28 -26 -81 l-38 -67 -3 67 c-2 41 2 72 9 81 10 12 4 14 -31 14 -33 0 -40 -3 -32 -12z"/>
<path d="M1244 1066 c-25 -19 -9 -34 17 -17 30 18 33 9 19 -49 -7 -27 -9 -57 -6 -65 7 -18 47 -20 64 -3 19 19 14 30 -9 23 -21 -7 -21 -5 -14 41 9 61 11 64 41 64 13 0 24 5 24 10 0 16 -113 12 -136 -4z"/>
<path d="M490 1040 c0 -6 42 -10 105 -10 63 0 105 4 105 10 0 6 -42 10 -105 10 -63 0 -105 -4 -105 -10z"/>
<path d="M1090 1030 c0 -13 7 -20 20 -20 13 0 20 7 20 20 0 13 -7 20 -20 20 -13 0 -20 -7 -20 -20z"/>
<path d="M1630 1030 c0 -13 7 -20 20 -20 13 0 20 7 20 20 0 13 -7 20 -20 20 -13 0 -20 -7 -20 -20z"/>
<path d="M2104 1014 c3 -9 -1 -45 -9 -80 -8 -36 -15 -67 -15 -70 0 -2 20 -4 45 -4 36 0 48 5 60 24 9 14 15 39 13 58 -3 29 -6 33 -33 33 -28 0 -30 3 -27 28 4 22 1 27 -18 27 -16 0 -20 -4 -16 -16z m66 -82 c0 -21 -27 -62 -41 -62 -15 0 -11 43 7 68 17 24 34 21 34 -6z"/>
<path d="M490 980 c0 -6 42 -10 105 -10 63 0 105 4 105 10 0 6 -42 10 -105 10 -63 0 -105 -4 -105 -10z"/>
<path d="M231 967 c-14 -17 -2 -30 15 -16 10 8 9 -3 -1 -48 -19 -80 -19 -93 5 -93 15 0 19 6 17 23 -2 17 4 23 25 25 46 5 79 62 62 106 -7 19 -45 21 -62 4 -9 -9 -12 -9 -12 0 0 16 -35 15 -49 -1z m94 -50 c-8 -30 -30 -51 -44 -43 -12 8 -3 46 17 69 20 23 35 8 27 -26z"/>
<path d="M1961 954 c-37 -48 -25 -94 24 -94 38 0 62 19 71 57 9 35 -7 57 -43 61 -23 2 -36 -3 -52 -24z m64 -32 c-8 -38 -31 -60 -46 -45 -15 15 -2 71 19 82 24 14 35 -2 27 -37z"/>
<path d="M1395 915 c0 -50 2 -55 22 -55 14 0 21 5 18 13 -2 6 7 21 22 31 l26 19 -5 -32 c-4 -26 -1 -31 16 -31 19 0 21 6 21 55 0 50 -2 55 -22 55 -13 0 -22 -5 -20 -11 1 -6 -9 -18 -22 -27 -24 -16 -24 -16 -19 11 4 22 2 27 -16 27 -19 0 -21 -6 -21 -55z"/>
<path d="M1320 190 l0 -150 43 1 c29 2 34 3 15 6 l-28 4 0 139 0 139 28 4 c19 3 14 4 -15 6 l-43 1 0 -150z"/>
<path d="M2718 333 l-48 -4 0 -59 0 -59 34 6 c27 4 36 1 45 -15 25 -47 -27 -96 -59 -57 -18 22 -32 18 -28 -7 2 -19 10 -24 47 -26 54 -4 81 17 81 64 0 40 -22 64 -61 64 -26 0 -29 3 -29 30 0 28 2 30 40 30 33 0 40 3 40 20 0 11 -3 19 -7 18 -5 -1 -29 -3 -55 -5z"/>
<path d="M2843 333 l27 -4 0 -139 0 -139 -27 -4 c-20 -3 -15 -4 15 -6 l42 -1 0 150 0 150 -42 -1 c-30 -2 -35 -3 -15 -6z"/>
<path d="M1436 308 c-11 -15 -16 -45 -16 -88 0 -82 17 -110 65 -110 41 0 62 20 71 66 8 46 0 120 -16 139 -20 24 -86 19 -104 -7z m74 -13 c18 -22 18 -128 1 -149 -31 -38 -61 -2 -61 74 0 75 30 112 60 75z"/>
<path d="M1703 309 c-41 -26 -43 -43 -3 -34 l30 7 0 -60 c0 -73 -6 -92 -31 -92 -10 0 -19 -4 -19 -10 0 -6 28 -10 65 -10 37 0 65 4 65 10 0 6 -11 10 -25 10 l-25 0 0 100 c0 110 -3 114 -57 79z"/>
<path d="M2236 308 c-11 -15 -16 -45 -16 -88 0 -82 17 -110 65 -110 41 0 62 20 71 66 8 46 0 120 -16 139 -20 24 -86 19 -104 -7z m74 -13 c18 -22 18 -128 1 -149 -31 -38 -61 -2 -61 74 0 75 30 112 60 75z"/>
<path d="M2493 323 c-18 -7 -16 -43 1 -43 8 0 16 7 20 15 7 20 33 19 45 -2 12 -22 1 -50 -43 -108 -51 -66 -48 -75 24 -75 57 0 60 1 60 25 0 25 -15 35 -22 14 -2 -6 -16 -9 -31 -7 l-27 3 40 50 c41 52 52 99 28 123 -12 12 -71 15 -95 5z"/>
<path d="M24 256 c-25 -19 -9 -34 17 -17 30 18 33 9 19 -49 -7 -27 -9 -57 -6 -65 7 -18 47 -20 64 -3 19 19 14 30 -9 23 -21 -7 -21 -5 -14 41 9 61 11 64 41 64 13 0 24 5 24 10 0 16 -113 12 -136 -4z"/>
<path d="M764 256 c-25 -19 -9 -34 17 -17 30 18 33 9 19 -49 -7 -27 -9 -57 -6 -65 7 -18 47 -20 64 -3 19 19 14 30 -9 23 -21 -7 -21 -5 -14 41 9 61 11 64 41 64 13 0 24 5 24 10 0 16 -113 12 -136 -4z"/>
<path d="M420 230 c0 -6 42 -10 105 -10 63 0 105 4 105 10 0 6 -42 10 -105 10 -63 0 -105 -4 -105 -10z"/>
<path d="M1150 220 c0 -13 7 -20 20 -20 13 0 20 7 20 20 0 13 -7 20 -20 20 -13 0 -20 -7 -20 -20z"/>
<path d="M420 170 c0 -6 42 -10 105 -10 63 0 105 4 105 10 0 6 -42 10 -105 10 -63 0 -105 -4 -105 -10z"/>
<path d="M214 134 c7 -18 -19 -84 -33 -84 -6 0 -11 -11 -11 -25 0 -30 15 -33 30 -5 15 27 65 27 80 0 15 -28 30 -25 30 5 0 14 -5 25 -11 25 -7 0 -10 18 -7 50 l3 50 -44 0 c-35 0 -42 -3 -37 -16z m46 -39 c0 -39 -3 -45 -21 -45 -15 0 -19 5 -15 18 3 9 8 29 12 45 10 42 24 32 24 -18z"/>
<path d="M915 95 c0 -50 2 -55 22 -55 14 0 21 5 18 13 -2 6 7 21 22 31 l26 19 -5 -32 c-4 -26 -1 -31 16 -31 19 0 21 6 21 55 0 50 -2 55 -22 55 -13 0 -22 -5 -20 -11 1 -6 -9 -18 -22 -27 -24 -16 -24 -16 -19 11 4 22 2 27 -16 27 -19 0 -21 -6 -21 -55z"/>
<path d="M1600 130 c0 -11 7 -20 15 -20 8 0 15 9 15 20 0 11 -7 20 -15 20 -8 0 -15 -9 -15 -20z"/>
<path d="M1930 130 c0 -11 7 -20 15 -20 8 0 15 9 15 20 0 11 -7 20 -15 20 -8 0 -15 -9 -15 -20z"/>
<path d="M2010 130 c0 -11 7 -20 15 -20 8 0 15 9 15 20 0 11 -7 20 -15 20 -8 0 -15 -9 -15 -20z"/>
<path d="M2090 130 c0 -11 7 -20 15 -20 8 0 15 9 15 20 0 11 -7 20 -15 20 -8 0 -15 -9 -15 -20z"/>
<path d="M2400 130 c0 -11 7 -20 15 -20 8 0 15 9 15 20 0 11 -7 20 -15 20 -8 0 -15 -9 -15 -20z"/>
</g>
</svg>