<?xml version="1.0" encoding="UTF-8" standalone="no"?>
<!DOCTYPE svg PUBLIC "-//W3C//DTD SVG 20010904//EN" "http://www.w3.org/TR/2001/REC-SVG-20010904/DTD/svg10.dtd">
<svg version="1.0" xmlns="http://www.w3.org/2000/svg" width="1164.000000pt" height="565.000000pt" viewBox="0 0 1164.000000 565.000000" preserveAspectRatio="xMidYMid meet">
<metadata>
Created by potrace 1.12, written by Peter Selinger 2001-2015
</metadata>
<g transform="translate(0.000000,565.000000) scale(0.100000,-0.100000)" fill="#000000" stroke="none">
<path d="M12 5625 c-6 -13 -7 -27 -3 -30 5 -3 11 2 15 10 6 16 86 22 86 7 0 -5 -13 -48 -30 -97 -30 -90 -31 -101 -7 -92 10 4 77 195 77 221 0 3 -29 6 -63 6 -58 0 -65 -2 -75 -25z"/>
<path d="M523 5632 c24 -26 24 -158 0 -184 -15 -17 -14 -18 32 -18 45 0 47 1 32 18 -14 16 -11 22 34 75 l49 59 0 -58 c0 -39 -5 -63 -17 -76 -15 -17 -14 -18 32 -18 46 0 47 1 32 18 -24 26 -24 158 0 184 15 17 14 18 -32 18 -45 0 -47 -1 -32 -17 14 -17 11 -23 -34 -76 l-49 -59 0 58 c0 39 5 63 17 76 15 17 14 18 -32 18 -46 0 -47 -1 -32 -18z"/>
<path d="M4953 5639 c14 -8 17 -25 17 -99 0 -74 -3 -91 -17 -99 -14 -8 -5 -10 37 -10 42 0 51 2 38 10 -12 6 -18 22 -18 44 0 31 3 35 26 35 28 0 65 16 76 34 4 6 8 23 8 38 0 42 -33 58 -115 58 -52 -1 -66 -3 -52 -11z m115 -21 c26 -26 11 -63 -31 -73 -26 -7 -27 -6 -27 39 0 41 2 46 23 46 13 0 28 -5 35 -12z"/>
<path d="M7170 5623 l0 -27 20 22 c12 12 30 22 40 22 18 0 20 -7 20 -87 0 -66 -4 -91 -17 -105 -15 -17 -14 -18 31 -18 43 0 46 1 32 16 -12 12 -16 37 -16 105 0 82 2 89 20 89 10 0 28 -10 40 -22 l20 -22 0 27 0 27 -95 0 -95 0 0 -27z"/>
<path d="M8814 5635 c-72 -50 -70 -212 3 -260 35 -23 40 -11 10 24 -45 54 -44 173 3 216 35 32 22 48 -16 20z"/>
<path d="M8870 5641 c0 -5 7 -11 15 -15 22 -8 21 -153 -2 -178 -15 -17 -13 -18 55 -18 80 0 102 13 102 60 0 40 -24 60 -71 60 l-39 0 0 45 c0 41 2 45 25 45 14 0 34 -9 45 -20 26 -26 30 -25 30 5 0 25 -1 25 -80 25 -44 0 -80 -4 -80 -9z m128 -128 c6 -9 12 -20 12 -23 0 -16 -28 -40 -50 -42 -23 -3 -25 0 -28 46 l-3 48 28 -6 c15 -4 34 -14 41 -23z"/>
<path d="M9653 5632 c13 -14 17 -38 17 -92 0 -54 -4 -78 -17 -92 -15 -17 -14 -18 32 -18 45 0 47 1 32 18 -14 16 -11 22 34 75 l49 59 0 -58 c0 -39 -5 -63 -17 -76 -15 -17 -14 -18 32 -18 46 0 47 1 32 18 -13 14 -17 38 -17 92 0 54 4 78 17 92 15 17 14 18 -32 18 -45 0 -47 -1 -32 -17 14 -17 11 -23 -34 -76 l-49 -59 0 58 c0 39 5 63 17 76 15 17 14 18 -32 18 -46 0 -47 -1 -32 -18z"/>
<path d="M9893 5632 c13 -14 17 -38 17 -92 0 -54 -4 -78 -17 -92 -15 -17 -14 -18 32 -18 46 0 47 1 32 18 -13 14 -17 39 -17 105 l0 87 50 0 50 0 0 -87 c0 -66 -4 -91 -17 -105 -15 -17 -14 -18 32 -18 46 0 47 1 32 18 -13 14 -17 38 -17 92 0 54 4 78 17 92 15 17 12 18 -97 18 -109 0 -112 -1 -97 -18z"/>
<path d="M10168 5643 c-22 -6 -23 -19 -3 -27 22 -8 21 -143 -2 -168 -15 -17 -14 -18 33 -18 38 1 45 3 32 11 -15 8 -18 25 -18 109 0 103 0 104 -42 93z"/>
<path d="M10418 5643 c-22 -6 -23 -19 -3 -27 22 -8 21 -143 -2 -168 -15 -17 -14 -18 33 -18 38 1 45 3 32 11 -15 8 -18 25 -18 109 0 103 0 104 -42 93z"/>
<path d="M10540 5644 c0 -3 11 -19 24 -34 44 -53 42 -166 -5 -216 -27 -29 -19 -43 14 -21 48 31 73 134 48 199 -14 38 -81 97 -81 72z"/>
<path d="M11003 5639 c14 -8 17 -24 17 -90 0 -72 3 -82 25 -104 15 -16 36 -25 54 -25 76 0 101 35 101 146 0 49 4 65 18 73 13 8 6 10 -33 10 -39 0 -46 -2 -32 -10 14 -8 17 -24 17 -89 0 -70 -2 -81 -22 -94 -30 -21 -44 -20 -68 4 -28 28 -30 163 -2 179 13 8 4 10 -38 10 -42 0 -51 -2 -37 -10z"/>
<path d="M750 5556 c0 -31 11 -33 28 -5 11 17 16 18 28 8 13 -10 13 -15 0 -34 -13 -20 -12 -24 7 -40 19 -17 20 -18 3 -31 -13 -9 -25 -10 -43 -3 -29 11 -45 3 -23 -11 17 -11 71 -13 94 -4 20 8 21 53 1 60 -12 5 -13 10 -4 20 6 7 9 23 7 36 -3 20 -10 23 -50 26 -46 3 -48 2 -48 -22z"/>
<path d="M890 5570 c0 -5 5 -10 10 -10 13 0 13 -86 0 -111 -9 -17 -7 -19 16 -19 22 0 24 3 15 14 -7 8 -11 32 -9 53 l3 38 19 -52 c11 -29 25 -53 31 -53 6 0 20 24 31 53 18 50 19 51 22 20 2 -18 -2 -41 -8 -53 -10 -18 -8 -20 27 -20 29 0 34 3 25 12 -7 7 -12 35 -12 63 0 28 5 56 12 63 9 9 5 12 -19 12 -27 0 -32 -5 -50 -50 l-19 -51 -18 51 c-16 44 -21 50 -47 50 -16 0 -29 -4 -29 -10z"/>
<path d="M1117 5562 c-22 -24 -22 -95 -1 -116 18 -19 75 -21 92 -4 7 7 12 20 12 31 0 17 -2 17 -22 3 -28 -20 -33 -20 -52 0 -30 29 -20 44 29 44 37 0 45 3 45 18 0 10 -5 23 -12 30 -18 18 -73 14 -91 -6z m67 -18 c4 -10 -3 -14 -24 -14 -32 0 -37 9 -19 27 14 14 35 7 43 -13z"/>
<path d="M1240 5570 c-12 -7 -12 -12 -2 -22 15 -15 16 -141 2 -169 -10 -17 -7 -19 27 -19 29 0 34 3 25 12 -7 7 -12 22 -12 35 0 19 5 23 33 23 20 0 41 8 50 18 19 21 22 83 7 113 -12 22 -59 26 -78 7 -9 -9 -12 -9 -12 0 0 14 -19 15 -40 2z m103 -70 c0 -17 -7 -39 -17 -48 -16 -16 -18 -16 -32 2 -20 28 -18 83 4 95 24 14 45 -10 45 -49z"/>
<path d="M1410 5570 c0 -5 5 -10 10 -10 13 0 13 -86 0 -111 -10 -17 -7 -19 26 -19 28 0 34 3 26 13 -8 9 -2 21 19 45 l29 32 0 -25 c0 -15 -5 -35 -10 -46 -10 -17 -7 -19 27 -19 29 0 34 3 25 12 -7 7 -12 35 -12 63 0 28 5 56 12 63 9 9 4 12 -26 12 -31 0 -37 -3 -32 -16 4 -9 -4 -28 -19 -46 l-25 -30 0 34 c0 19 5 39 12 46 9 9 4 12 -25 12 -20 0 -37 -4 -37 -10z"/>
<path d="M1580 5560 c0 -23 15 -27 24 -5 3 8 12 15 21 15 11 0 15 -12 15 -51 0 -28 -5 -59 -10 -70 -10 -17 -7 -19 27 -19 29 0 34 3 25 12 -14 14 -16 128 -3 128 5 0 16 -7 25 -15 20 -20 26 -19 26 5 0 18 -7 20 -75 20 -68 0 -75 -2 -75 -20z"/>
<path d="M1740 5570 c0 -5 5 -10 10 -10 13 0 13 -86 0 -111 -10 -18 -7 -19 39 -19 67 0 81 7 81 40 0 29 -15 40 -56 40 -18 0 -24 5 -24 23 0 13 5 28 12 35 9 9 4 12 -25 12 -20 0 -37 -4 -37 -10z m85 -87 c16 -16 16 -17 0 -30 -23 -16 -35 -8 -35 23 0 28 12 31 35 7z"/>
<path d="M1993 5574 c-18 -8 -16 -44 1 -44 7 0 16 10 20 22 5 22 6 22 23 4 10 -10 14 -20 8 -22 -5 -2 -25 -13 -43 -24 -27 -16 -33 -26 -30 -48 3 -26 5 -27 67 -27 43 0 66 4 69 13 2 6 -3 12 -12 12 -11 0 -16 14 -18 58 l-3 57 -35 2 c-19 1 -41 0 -47 -3z m57 -84 c0 -22 -22 -36 -40 -25 -8 5 -6 13 6 26 22 25 34 24 34 -1z"/>
<path d="M2120 5570 c0 -5 5 -10 10 -10 13 0 13 -86 0 -111 -10 -17 -7 -19 27 -19 29 0 34 3 25 12 -7 7 -12 26 -12 43 l0 30 23 -40 c16 -29 30 -41 50 -43 l28 -3 -31 43 c-33 47 -32 78 1 78 11 0 19 7 19 16 0 24 -43 13 -55 -13 -5 -13 -15 -25 -22 -27 -17 -7 -17 26 -1 42 9 9 4 12 -25 12 -20 0 -37 -4 -37 -10z"/>
<path d="M2270 5560 c0 -23 15 -27 24 -5 3 8 12 15 21 15 11 0 15 -12 15 -51 0 -28 -5 -59 -10 -70 -10 -17 -7 -19 27 -19 29 0 34 3 25 12 -14 14 -16 128 -3 128 5 0 16 -7 25 -15 20 -20 26 -19 26 5 0 18 -7 20 -75 20 -68 0 -75 -2 -75 -20z"/>
<path d="M2430 5570 c0 -5 5 -10 10 -10 13 0 13 -86 0 -111 -10 -17 -7 -19 26 -19 28 0 34 3 26 13 -8 9 -2 21 19 45 l29 32 0 -25 c0 -15 -5 -35 -10 -46 -10 -17 -7 -19 27 -19 29 0 34 3 25 12 -7 7 -12 35 -12 63 0 28 5 56 12 63 9 9 4 12 -26 12 -31 0 -37 -3 -32 -16 4 -9 -4 -28 -19 -46 l-25 -30 0 34 c0 19 5 39 12 46 9 9 4 12 -25 12 -20 0 -37 -4 -37 -10z"/>
<path d="M2610 5570 c0 -5 5 -10 10 -10 13 0 13 -86 -1 -111 -10 -19 -7 -20 53 -17 58 3 63 5 66 27 3 15 -3 30 -14 38 -10 8 -13 13 -5 13 8 0 11 11 9 33 -3 32 -4 32 -60 35 -36 2 -58 -1 -58 -8z m84 -34 c-3 -8 -12 -17 -20 -20 -10 -4 -14 3 -14 25 0 26 2 29 20 19 11 -6 17 -17 14 -24z m1 -53 c16 -16 16 -17 0 -30 -23 -16 -35 -8 -35 23 0 28 12 31 35 7z"/>
<path d="M2760 5570 c0 -5 5 -10 10 -10 13 0 13 -86 0 -111 -10 -17 -7 -19 27 -19 29 0 34 3 25 12 -7 7 -12 22 -12 35 0 19 5 23 30 23 32 0 38 -16 20 -51 -10 -17 -7 -19 27 -19 29 0 34 3 25 12 -7 7 -12 35 -12 63 0 28 5 56 12 63 9 9 4 12 -25 12 -20 0 -37 -4 -37 -10 0 -5 5 -10 10 -10 6 0 10 -11 10 -25 0 -21 -5 -25 -30 -25 -25 0 -30 4 -30 23 0 13 5 28 12 35 9 9 4 12 -25 12 -20 0 -37 -4 -37 -10z"/>
<path d="M2930 5571 c0 -5 4 -11 9 -13 5 -1 22 -30 39 -63 34 -70 30 -105 -13 -105 -16 0 -25 -6 -25 -15 0 -18 43 -20 58 -2 6 6 25 48 42 92 38 97 47 110 66 94 16 -13 18 -82 4 -110 -10 -17 -7 -19 27 -19 29 0 34 3 25 12 -20 20 -15 58 8 58 13 0 20 -7 20 -18 0 -50 95 -73 124 -30 9 12 16 39 16 59 0 48 -26 71 -77 67 -32 -2 -40 -8 -53 -35 -18 -39 -50 -45 -50 -10 0 13 5 28 12 35 9 9 -3 12 -56 12 -53 0 -66 -3 -59 -12 7 -9 5 -25 -6 -52 l-17 -39 -17 44 c-13 33 -14 45 -4 51 7 4 -6 8 -30 8 -24 0 -43 -4 -43 -9z m365 -58 c7 -31 -18 -75 -40 -67 -8 3 -20 24 -26 45 -11 34 -10 42 6 59 17 18 20 19 36 4 9 -8 20 -27 24 -41z"/>
<path d="M3430 5570 c0 -5 5 -10 10 -10 13 0 13 -86 0 -111 -9 -17 -7 -19 16 -19 22 0 24 3 15 14 -7 8 -11 32 -9 53 l3 38 19 -52 c11 -29 25 -53 31 -53 6 0 20 24 31 53 18 50 19 51 22 20 2 -18 -2 -41 -8 -53 -10 -18 -8 -20 27 -20 29 0 34 3 25 12 -7 7 -12 35 -12 63 0 28 5 56 12 63 9 9 5 12 -19 12 -27 0 -32 -5 -50 -50 l-19 -51 -18 51 c-16 44 -21 50 -47 50 -16 0 -29 -4 -29 -10z"/>
<path d="M3656 5558 c-22 -31 -20 -91 2 -111 28 -25 87 -22 106 5 22 31 20 91 -2 111 -28 25 -87 22 -106 -5z m84 -32 c15 -47 -5 -91 -36 -79 -18 7 -36 66 -28 89 17 43 48 38 64 -10z"/>
<path d="M3810 5570 c0 -5 5 -10 10 -10 13 0 13 -86 0 -110 -9 -17 -3 -18 90 -22 85 -3 101 -6 114 -23 15 -19 15 -19 16 7 0 15 -4 30 -10 33 -14 9 -12 109 2 123 9 9 4 12 -25 12 -20 0 -37 -4 -37 -10 0 -5 5 -10 10 -10 7 0 10 -22 8 -57 -3 -50 -6 -58 -23 -58 -17 0 -20 8 -23 53 -2 31 2 60 9 68 9 12 5 14 -25 14 -20 0 -36 -4 -36 -10 0 -5 5 -10 10 -10 12 0 13 -90 1 -109 -5 -8 -16 -11 -25 -8 -20 8 -23 106 -4 125 9 9 4 12 -25 12 -20 0 -37 -4 -37 -10z"/>
<path d="M4070 5570 c0 -5 5 -10 10 -10 13 0 13 -86 0 -111 -10 -17 -7 -19 27 -19 29 0 34 3 25 12 -7 7 -12 22 -12 35 0 19 5 23 30 23 32 0 38 -16 20 -51 -10 -17 -7 -19 27 -19 29 0 34 3 25 12 -7 7 -12 35 -12 63 0 28 5 56 12 63 9 9 4 12 -25 12 -20 0 -37 -4 -37 -10 0 -5 5 -10 10 -10 6 0 10 -11 10 -25 0 -21 -5 -25 -30 -25 -25 0 -30 4 -30 23 0 13 5 28 12 35 9 9 4 12 -25 12 -20 0 -37 -4 -37 -10z"/>
<path d="M4266 5558 c-22 -31 -20 -91 2 -111 28 -25 87 -22 106 5 22 31 20 91 -2 111 -28 25 -87 22 -106 -5z m84 -32 c15 -47 -5 -91 -36 -79 -18 7 -36 66 -28 89 17 43 48 38 64 -10z"/>
<path d="M4437 5562 c-23 -26 -22 -94 1 -115 29 -27 80 -22 94 8 14 31 4 43 -17 21 -20 -20 -29 -20 -49 0 -23 22 -20 71 4 84 15 8 21 6 30 -10 6 -11 17 -20 25 -20 16 0 18 9 9 34 -9 23 -76 21 -97 -2z"/>
<path d="M4550 5560 c0 -23 15 -27 24 -5 3 8 12 15 21 15 11 0 15 -12 15 -51 0 -28 -5 -59 -10 -70 -10 -17 -7 -19 27 -19 29 0 34 3 25 12 -14 14 -16 128 -3 128 5 0 16 -7 25 -15 20 -20 26 -19 26 5 0 18 -7 20 -75 20 -68 0 -75 -2 -75 -20z"/>
<path d="M4710 5570 c0 -5 5 -10 10 -10 13 0 13 -86 0 -111 -10 -18 -7 -19 39 -19 67 0 81 7 81 40 0 29 -15 40 -56 40 -18 0 -24 5 -24 23 0 13 5 28 12 35 9 9 4 12 -25 12 -20 0 -37 -4 -37 -10z m85 -87 c16 -16 16 -17 0 -30 -23 -16 -35 -8 -35 23 0 28 12 31 35 7z"/>
<path d="M5290 5560 c0 -23 15 -27 24 -5 3 8 12 15 21 15 11 0 15 -12 15 -51 0 -28 -5 -59 -10 -70 -10 -17 -7 -19 27 -19 29 0 34 3 25 12 -14 14 -16 128 -3 128 5 0 16 -7 25 -15 20 -20 26 -19 26 5 0 18 -7 20 -75 20 -68 0 -75 -2 -75 -20z"/>
<path d="M5467 5562 c-22 -24 -22 -95 -1 -116 18 -19 75 -21 92 -4 7 7 12 20 12 31 0 17 -2 17 -22 3 -28 -20 -33 -20 -52 0 -30 29 -20 44 29 44 37 0 45 3 45 18 0 10 -5 23 -12 30 -18 18 -73 14 -91 -6z m67 -18 c4 -10 -3 -14 -24 -14 -32 0 -37 9 -19 27 14 14 35 7 43 -13z"/>
<path d="M5600 5570 c0 -5 5 -10 10 -10 13 0 13 -86 0 -111 -9 -17 -7 -19 16 -19 22 0 24 3 15 14 -7 8 -11 32 -9 53 l3 38 19 -52 c11 -29 25 -53 31 -53 6 0 20 24 31 53 18 50 19 51 22 20 2 -18 -2 -41 -8 -53 -10 -18 -8 -20 27 -20 29 0 34 3 25 12 -7 7 -12 35 -12 63 0 28 5 56 12 63 9 9 5 12 -19 12 -27 0 -32 -5 -50 -50 l-19 -51 -18 51 c-16 44 -21 50 -47 50 -16 0 -29 -4 -29 -10z"/>
<path d="M5810 5570 c0 -5 5 -10 10 -10 13 0 13 -86 0 -111 -10 -17 -7 -19 27 -19 29 0 34 3 25 12 -7 7 -12 38 -12 70 0 58 0 58 30 58 29 0 30 -1 30 -51 0 -28 -5 -59 -10 -70 -10 -17 -7 -19 27 -19 29 0 34 3 25 12 -7 7 -12 35 -12 63 0 28 5 56 12 63 9 9 -6 12 -70 12 -48 0 -82 -4 -82 -10z"/>
<path d="M6007 5562 c-22 -24 -22 -95 -1 -116 18 -19 75 -21 92 -4 7 7 12 20 12 31 0 17 -2 17 -22 3 -28 -20 -33 -20 -52 0 -30 29 -20 44 29 44 37 0 45 3 45 18 0 10 -5 23 -12 30 -18 18 -73 14 -91 -6z m67 -18 c4 -10 -3 -14 -24 -14 -32 0 -37 9 -19 27 14 14 35 7 43 -13z"/>
<path d="M6130 5570 c-12 -7 -12 -12 -2 -22 15 -15 16 -141 2 -169 -10 -17 -7 -19 27 -19 29 0 34 3 25 12 -7 7 -12 22 -12 35 0 19 5 23 33 23 20 0 41 8 50 18 19 21 22 83 7 113 -12 22 -59 26 -78 7 -9 -9 -12 -9 -12 0 0 14 -19 15 -40 2z m103 -70 c0 -17 -7 -39 -17 -48 -16 -16 -18 -16 -32 2 -20 28 -18 83 4 95 24 14 45 -10 45 -49z"/>
<path d="M6323 5574 c-18 -8 -16 -44 1 -44 7 0 16 10 20 22 5 22 6 22 23 4 10 -10 14 -20 8 -22 -5 -2 -25 -13 -43 -24 -27 -16 -33 -26 -30 -48 3 -26 5 -27 67 -27 43 0 66 4 69 13 2 6 -3 12 -12 12 -11 0 -16 14 -18 58 l-3 57 -35 2 c-19 1 -41 0 -47 -3z m57 -84 c0 -22 -22 -36 -40 -25 -8 5 -6 13 6 26 22 25 34 24 34 -1z"/>
<path d="M6440 5560 c0 -23 15 -27 24 -5 3 8 12 15 21 15 11 0 15 -12 15 -51 0 -28 -5 -59 -10 -70 -10 -17 -7 -19 27 -19 29 0 34 3 25 12 -14 14 -16 128 -3 128 5 0 17 -7 26 -17 14 -13 18 -14 25 -2 11 17 11 17 48 -56 34 -70 30 -105 -13 -105 -16 0 -25 -6 -25 -15 0 -24 47 -18 64 8 7 12 26 55 41 95 16 40 33 71 39 69 15 -5 20 -142 6 -167 -10 -18 -8 -20 27 -20 29 0 34 3 25 12 -7 7 -12 22 -12 35 0 19 5 23 33 23 20 0 41 8 50 18 19 21 22 83 7 113 -12 22 -59 26 -78 7 -9 -9 -12 -9 -12 0 0 8 -17 12 -46 12 -36 0 -44 -3 -37 -12 7 -9 5 -25 -6 -52 l-17 -39 -17 44 c-13 33 -14 45 -4 51 6 4 -41 8 -105 8 -111 0 -118 -1 -118 -20z m413 -60 c0 -17 -7 -39 -17 -48 -16 -16 -18 -16 -32 2 -20 28 -18 83 4 95 24 14 45 -10 45 -49z"/>
<path d="M6920 5571 c0 -5 4 -11 9 -13 5 -1 22 -30 39 -63 34 -70 30 -105 -13 -105 -16 0 -25 -6 -25 -15 0 -18 43 -20 58 -2 6 6 25 48 42 92 17 44 39 88 47 98 15 16 14 17 -17 17 -25 0 -30 -3 -23 -12 7 -9 5 -25 -6 -52 l-17 -39 -17 44 c-13 33 -14 45 -4 51 7 4 -6 8 -30 8 -24 0 -43 -4 -43 -9z"/>
<path d="M7460 5570 c0 -5 5 -10 10 -10 13 0 13 -86 0 -111 -10 -17 -7 -19 27 -19 29 0 34 3 25 12 -7 7 -12 22 -12 35 0 19 5 23 30 23 32 0 38 -16 20 -51 -10 -17 -7 -19 27 -19 29 0 34 3 25 12 -7 7 -12 35 -12 63 0 28 5 56 12 63 9 9 4 12 -25 12 -20 0 -37 -4 -37 -10 0 -5 5 -10 10 -10 6 0 10 -11 10 -25 0 -21 -5 -25 -30 -25 -25 0 -30 4 -30 23 0 13 5 28 12 35 9 9 4 12 -25 12 -20 0 -37 -4 -37 -10z"/>
<path d="M7663 5574 c-18 -8 -16 -44 1 -44 7 0 16 10 20 22 5 22 6 22 23 4 10 -10 14 -20 8 -22 -5 -2 -25 -13 -43 -24 -27 -16 -33 -26 -30 -48 3 -26 5 -27 67 -27 43 0 66 4 69 13 2 6 -3 12 -12 12 -11 0 -16 14 -18 58 l-3 57 -35 2 c-19 1 -41 0 -47 -3z m57 -84 c0 -22 -22 -36 -40 -25 -8 5 -6 13 6 26 22 25 34 24 34 -1z"/>
<path d="M7870 5570 c0 -5 5 -10 10 -10 13 0 13 -86 -1 -111 -10 -19 -7 -20 53 -17 58 3 63 5 66 27 3 15 -3 30 -14 38 -10 8 -13 13 -5 13 8 0 11 11 9 33 -3 32 -4 32 -60 35 -36 2 -58 -1 -58 -8z m84 -34 c-3 -8 -12 -17 -20 -20 -10 -4 -14 3 -14 25 0 26 2 29 20 19 11 -6 17 -17 14 -24z m1 -53 c16 -16 16 -17 0 -30 -23 -16 -35 -8 -35 23 0 28 12 31 35 7z"/>
<path d="M8030 5575 c0 -3 11 -18 25 -33 14 -15 25 -32 25 -38 0 -6 -11 -21 -25 -34 -32 -30 -32 -40 0 -40 16 0 23 5 19 13 -2 7 2 21 9 32 14 18 15 18 26 -3 7 -13 9 -27 6 -32 -4 -6 9 -10 31 -10 l36 0 -24 33 c-41 54 -41 55 -6 87 l32 30 -38 0 c-32 0 -36 -2 -27 -14 8 -10 9 -16 1 -21 -13 -8 -30 3 -30 21 0 9 -11 14 -30 14 -16 0 -30 -2 -30 -5z"/>
<path d="M8216 5558 c-22 -31 -20 -91 2 -111 28 -25 87 -22 106 5 22 31 20 91 -2 111 -28 25 -87 22 -106 -5z m84 -32 c15 -47 -5 -91 -36 -79 -18 7 -36 66 -28 89 17 43 48 38 64 -10z"/>
<path d="M8380 5572 c0 -4 4 -12 10 -18 13 -13 -5 -85 -24 -100 -9 -6 -16 -23 -16 -38 l0 -27 26 20 c34 27 74 27 109 -1 l28 -22 -7 35 c-16 74 -18 130 -6 144 11 13 3 15 -54 15 -36 0 -66 -4 -66 -8z m78 -64 l-3 -63 -34 -3 c-29 -3 -33 -1 -26 15 5 10 10 39 13 66 3 42 6 47 28 47 24 0 25 -2 22 -62z"/>
<path d="M8547 5562 c-22 -24 -22 -95 -1 -116 18 -19 75 -21 92 -4 7 7 12 20 12 31 0 17 -2 17 -22 3 -28 -20 -33 -20 -52 0 -30 29 -20 44 29 44 37 0 45 3 45 18 0 10 -5 23 -12 30 -18 18 -73 14 -91 -6z m67 -18 c4 -10 -3 -14 -24 -14 -32 0 -37 9 -19 27 14 14 35 7 43 -13z"/>
<path d="M9080 5570 c0 -5 5 -10 10 -10 11 0 13 -42 4 -77 -4 -14 -14 -23 -25 -23 -11 0 -19 -7 -19 -16 0 -11 8 -14 28 -12 26 3 27 5 30 71 3 64 4 67 27 67 23 0 25 -4 25 -51 0 -28 -5 -59 -10 -70 -10 -17 -7 -19 27 -19 29 0 34 3 25 12 -7 7 -12 35 -12 63 0 28 5 56 12 63 9 9 -3 12 -55 12 -38 0 -67 -4 -67 -10z"/>
<path d="M9246 5558 c-22 -31 -20 -91 2 -111 28 -25 87 -22 106 5 22 31 20 91 -2 111 -28 25 -87 22 -106 -5z m84 -32 c15 -47 -5 -91 -36 -79 -18 7 -36 66 -28 89 17 43 48 38 64 -10z"/>
<path d="M9400 5570 c0 -5 5 -10 10 -10 13 0 13 -86 0 -111 -10 -17 -7 -19 27 -19 29 0 34 3 25 12 -7 7 -12 26 -12 43 l0 30 23 -40 c16 -29 30 -41 50 -43 l28 -3 -31 43 c-33 47 -32 78 1 78 11 0 19 7 19 16 0 24 -43 13 -55 -13 -5 -13 -15 -25 -22 -27 -17 -7 -17 26 -1 42 9 9 4 12 -25 12 -20 0 -37 -4 -37 -10z"/>
<path d="M10730 5570 c0 -5 5 -10 10 -10 13 0 13 -86 0 -111 -10 -17 -7 -19 26 -19 28 0 34 3 26 13 -8 9 -2 21 19 45 l29 32 0 -25 c0 -15 -5 -35 -10 -46 -10 -17 -7 -19 27 -19 29 0 34 3 25 12 -7 7 -12 35 -12 63 0 28 5 56 12 63 9 9 4 12 -26 12 -31 0 -37 -3 -32 -16 4 -9 -4 -28 -19 -46 l-25 -30 0 34 c0 19 5 39 12 46 9 9 4 12 -25 12 -20 0 -37 -4 -37 -10z"/>
<path d="M11320 5570 c0 -5 5 -10 10 -10 13 0 13 -86 0 -111 -10 -17 -7 -19 27 -19 29 0 34 3 25 12 -7 7 -12 22 -12 35 0 19 5 23 30 23 32 0 38 -16 20 -51 -10 -17 -7 -19 27 -19 29 0 34 3 25 12 -7 7 -12 35 -12 63 0 28 5 56 12 63 9 9 4 12 -25 12 -20 0 -37 -4 -37 -10 0 -5 5 -10 10 -10 6 0 10 -11 10 -25 0 -21 -5 -25 -30 -25 -25 0 -30 4 -30 23 0 13 5 28 12 35 9 9 4 12 -25 12 -20 0 -37 -4 -37 -10z"/>
<path d="M11523 5574 c-18 -8 -16 -44 1 -44 7 0 16 10 20 22 5 22 6 22 23 4 10 -10 14 -20 8 -22 -5 -2 -25 -13 -43 -24 -27 -16 -33 -26 -30 -48 3 -26 5 -27 67 -27 43 0 66 4 69 13 2 6 -3 12 -12 12 -11 0 -16 14 -18 58 l-3 57 -35 2 c-19 1 -41 0 -47 -3z m57 -84 c0 -22 -22 -36 -40 -25 -8 5 -6 13 6 26 22 25 34 24 34 -1z"/>
<path d="M193 5454 c-8 -21 13 -42 28 -27 13 13 5 43 -11 43 -6 0 -13 -7 -17 -16z"/>
<path d="M5140 5445 c0 -9 9 -15 22 -15 l21 0 -23 -25 c-17 -18 -19 -25 -9 -25 23 0 39 21 39 52 0 23 -4 28 -25 28 -16 0 -25 -6 -25 -15z"/>
<path d="M10300 5445 c0 -8 7 -15 15 -15 8 0 15 7 15 15 0 8 -7 15 -15 15 -8 0 -15 -7 -15 -15z"/>
<path d="M1684 5255 c-72 -50 -70 -212 3 -260 35 -23 40 -11 10 24 -45 54 -44 173 3 216 35 32 22 48 -16 20z"/>
<path d="M1740 5261 c0 -5 7 -11 15 -15 22 -8 21 -153 -2 -178 -15 -17 -13 -18 55 -18 80 0 102 13 102 60 0 40 -24 60 -71 60 l-39 0 0 45 c0 41 2 45 25 45 14 0 34 -9 45 -20 26 -26 30 -25 30 5 0 25 -1 25 -80 25 -44 0 -80 -4 -80 -9z m128 -128 c6 -9 12 -20 12 -23 0 -16 -28 -40 -50 -42 -23 -3 -25 0 -28 46 l-3 48 28 -6 c15 -4 34 -14 41 -23z"/>
<path d="M2523 5252 c13 -14 17 -38 17 -92 0 -54 -4 -78 -17 -92 -15 -17 -14 -18 32 -18 45 0 47 1 32 18 -14 16 -11 22 34 75 l49 59 0 -58 c0 -39 -5 -63 -17 -76 -15 -17 -14 -18 32 -18 46 0 47 1 32 18 -13 14 -17 38 -17 92 0 54 4 78 17 92 15 17 14 18 -32 18 -45 0 -47 -1 -32 -17 14 -17 11 -23 -34 -76 l-49 -59 0 58 c0 39 5 63 17 76 15 17 14 18 -32 18 -46 0 -47 -1 -32 -18z"/>
<path d="M2763 5252 c13 -14 17 -38 17 -92 0 -54 -4 -78 -17 -92 -15 -17 -14 -18 32 -18 46 0 47 1 32 18 -13 14 -17 39 -17 105 l0 87 50 0 50 0 0 -87 c0 -66 -4 -91 -17 -105 -15 -17 -14 -18 32 -18 46 0 47 1 32 18 -13 14 -17 38 -17 92 0 54 4 78 17 92 15 17 12 18 -97 18 -109 0 -112 -1 -97 -18z"/>
<path d="M3038 5263 c-22 -6 -23 -19 -3 -27 22 -8 21 -143 -2 -168 -15 -17 -14 -18 33 -18 38 1 45 3 32 11 -15 8 -18 25 -18 109 0 103 0 104 -42 93z"/>
<path d="M3257 5252 c-10 -10 -17 -26 -17 -36 0 -16 2 -16 26 3 26 20 53 17 69 -9 9 -14 -29 -81 -64 -114 -17 -17 -31 -33 -31 -38 0 -4 29 -8 64 -8 57 0 65 3 71 21 9 27 1 33 -23 20 -12 -6 -31 -11 -43 -11 -22 0 -22 1 8 33 79 83 72 157 -15 157 -16 0 -36 -8 -45 -18z"/>
<path d="M3410 5264 c0 -3 11 -19 24 -34 44 -53 42 -166 -5 -216 -27 -29 -19 -43 14 -21 48 31 73 134 48 199 -14 38 -81 97 -81 72z"/>
<path d="M510 5190 c0 -5 5 -10 10 -10 13 0 13 -86 -1 -111 -10 -19 -7 -20 53 -17 58 3 63 5 66 27 3 15 -3 30 -14 38 -10 8 -13 13 -5 13 8 0 11 11 9 33 -3 32 -4 32 -60 35 -36 2 -58 -1 -58 -8z m84 -34 c-3 -8 -12 -17 -20 -20 -10 -4 -14 3 -14 25 0 26 2 29 20 19 11 -6 17 -17 14 -24z m1 -53 c16 -16 16 -17 0 -30 -23 -16 -35 -8 -35 23 0 28 12 31 35 7z"/>
<path d="M660 5190 c0 -5 5 -10 10 -10 13 0 13 -86 0 -111 -10 -18 -7 -19 39 -19 67 0 81 7 81 40 0 29 -15 40 -56 40 -18 0 -24 5 -24 23 0 13 5 28 12 35 9 9 4 12 -25 12 -20 0 -37 -4 -37 -10z m85 -87 c16 -16 16 -17 0 -30 -23 -16 -35 -8 -35 23 0 28 12 31 35 7z"/>
<path d="M800 5190 c0 -5 5 -10 10 -10 13 0 13 -86 0 -111 -10 -17 -7 -19 27 -19 29 0 34 3 25 12 -16 16 -16 110 0 126 9 9 4 12 -25 12 -20 0 -37 -4 -37 -10z"/>
<path d="M890 5195 c0 -3 11 -18 25 -33 14 -15 25 -32 25 -38 0 -6 -11 -21 -25 -34 -32 -30 -32 -40 0 -40 16 0 23 5 19 13 -2 7 2 21 9 32 14 18 15 18 26 -3 7 -13 9 -27 6 -32 -4 -6 9 -10 31 -10 l36 0 -24 33 c-41 54 -41 55 -6 87 l32 30 -38 0 c-32 0 -36 -2 -27 -14 8 -10 9 -16 1 -21 -13 -8 -30 3 -30 21 0 9 -11 14 -30 14 -16 0 -30 -2 -30 -5z"/>
<path d="M1076 5178 c-22 -31 -20 -91 2 -111 28 -25 87 -22 106 5 22 31 20 91 -2 111 -28 25 -87 22 -106 -5z m84 -32 c15 -47 -5 -91 -36 -79 -18 7 -36 66 -28 89 17 43 48 38 64 -10z"/>
<path d="M1250 5192 c0 -4 4 -12 10 -18 13 -13 -5 -85 -24 -100 -9 -6 -16 -23 -16 -38 l0 -27 26 20 c34 27 74 27 109 -1 l28 -22 -7 35 c-16 74 -18 130 -6 144 11 13 3 15 -54 15 -36 0 -66 -4 -66 -8z m78 -64 l-3 -63 -34 -3 c-29 -3 -33 -1 -26 15 5 10 10 39 13 66 3 42 6 47 28 47 24 0 25 -2 22 -62z"/>
<path d="M1417 5182 c-22 -24 -22 -95 -1 -116 18 -19 75 -21 92 -4 7 7 12 20 12 31 0 17 -2 17 -22 3 -28 -20 -33 -20 -52 0 -30 29 -20 44 29 44 37 0 45 3 45 18 0 10 -5 23 -12 30 -18 18 -73 14 -91 -6z m67 -18 c4 -10 -3 -14 -24 -14 -32 0 -37 9 -19 27 14 14 35 7 43 -13z"/>
<path d="M1950 5190 c0 -5 5 -10 10 -10 11 0 13 -42 4 -77 -4 -14 -14 -23 -25 -23 -11 0 -19 -7 -19 -16 0 -11 8 -14 28 -12 26 3 27 5 30 71 3 64 4 67 27 67 23 0 25 -4 25 -51 0 -28 -5 -59 -10 -70 -10 -17 -7 -19 27 -19 29 0 34 3 25 12 -7 7 -12 35 -12 63 0 28 5 56 12 63 9 9 -3 12 -55 12 -38 0 -67 -4 -67 -10z"/>
<path d="M2116 5178 c-22 -31 -20 -91 2 -111 28 -25 87 -22 106 5 22 31 20 91 -2 111 -28 25 -87 22 -106 -5z m84 -32 c15 -47 -5 -91 -36 -79 -18 7 -36 66 -28 89 17 43 48 38 64 -10z"/>
<path d="M2260 5190 c0 -5 5 -10 10 -10 13 0 13 -86 0 -111 -10 -17 -7 -19 27 -19 29 0 34 3 25 12 -7 7 -12 26 -12 43 l0 30 23 -40 c16 -29 30 -41 50 -43 l28 -3 -31 43 c-33 47 -32 78 1 78 11 0 19 7 19 16 0 24 -43 13 -55 -13 -5 -13 -15 -25 -22 -27 -17 -7 -17 26 -1 42 9 9 4 12 -25 12 -20 0 -37 -4 -37 -10z"/>
<path d="M3170 5065 c0 -8 7 -15 15 -15 8 0 15 7 15 15 0 8 -7 15 -15 15 -8 0 -15 -7 -15 -15z"/>
<path d="M3520 5065 c0 -9 9 -15 22 -15 l21 0 -23 -25 c-17 -18 -19 -25 -9 -25 23 0 39 21 39 52 0 23 -4 28 -25 28 -16 0 -25 -6 -25 -15z"/>
<path d="M42 4884 c-27 -18 -29 -60 -5 -86 11 -13 14 -22 7 -26 -37 -24 -36 -91 1 -106 77 -29 140 49 84 105 -19 19 -19 22 -5 38 50 55 -19 119 -82 75z m63 -39 c0 -23 -5 -30 -19 -30 -24 0 -41 27 -33 49 4 11 15 16 29 14 18 -2 23 -9 23 -33z m0 -105 c19 -21 15 -47 -10 -56 -21 -8 -45 14 -45 41 0 40 26 47 55 15z"/>
<path d="M5592 4893 c-36 -4 -46 -10 -62 -36 -25 -40 -27 -132 -4 -165 20 -29 85 -31 114 -2 24 24 26 77 4 109 -15 20 -23 23 -65 19 -44 -5 -47 -3 -38 13 5 10 25 21 47 24 20 3 43 10 51 14 20 10 26 31 9 29 -7 -1 -32 -3 -56 -5z m13 -103 c35 -39 13 -120 -28 -104 -9 3 -21 21 -27 40 -10 29 -9 39 4 59 20 30 28 31 51 5z"/>
<path d="M523 4872 c24 -26 24 -158 0 -184 -15 -17 -14 -18 31 -18 43 0 46 1 32 16 -9 8 -16 31 -16 50 0 33 1 34 38 34 46 0 62 14 62 56 0 50 -21 64 -97 64 -63 0 -65 -1 -50 -18z m91 -8 c22 -22 20 -61 -4 -74 -29 -15 -40 -5 -40 39 0 53 15 65 44 35z"/>
<path d="M3582 4868 c5 -39 98 -37 98 2 0 26 -17 25 -41 -2 l-19 -23 -6 23 c-3 12 -13 22 -21 22 -9 0 -13 -8 -11 -22z"/>
<path d="M6498 4883 c-22 -6 -23 -19 -3 -27 22 -8 21 -143 -2 -168 -15 -17 -14 -18 33 -18 38 1 45 3 32 11 -15 8 -18 25 -18 109 0 103 0 104 -42 93z"/>
<path d="M717 4802 c-22 -24 -22 -95 -1 -116 18 -19 75 -21 92 -4 7 7 12 20 12 31 0 17 -2 17 -22 3 -28 -20 -33 -20 -52 0 -30 29 -20 44 29 44 37 0 45 3 45 18 0 10 -5 23 -12 30 -18 18 -73 14 -91 -6z m67 -18 c4 -10 -3 -14 -24 -14 -32 0 -37 9 -19 27 14 14 35 7 43 -13z"/>
<path d="M850 4796 c0 -31 11 -33 28 -5 11 17 16 18 28 8 13 -10 13 -15 0 -34 -13 -20 -12 -24 7 -40 19 -17 20 -18 3 -31 -13 -9 -25 -10 -43 -3 -29 11 -45 3 -23 -11 17 -11 71 -13 94 -4 20 8 21 53 1 60 -12 5 -13 10 -4 20 6 7 9 23 7 36 -3 20 -10 23 -50 26 -46 3 -48 2 -48 -22z"/>
<path d="M970 4811 c0 -5 4 -11 9 -13 5 -1 22 -30 39 -63 34 -70 30 -105 -13 -105 -16 0 -25 -6 -25 -15 0 -18 43 -20 58 -2 6 6 25 48 42 92 17 44 39 88 47 98 15 16 14 17 -17 17 -25 0 -30 -3 -23 -12 7 -9 5 -25 -6 -52 l-17 -39 -17 44 c-13 33 -14 45 -4 51 7 4 -6 8 -30 8 -24 0 -43 -4 -43 -9z"/>
<path d="M1160 4810 c0 -5 5 -10 10 -10 11 0 13 -42 4 -77 -4 -14 -14 -23 -25 -23 -11 0 -19 -7 -19 -16 0 -11 8 -14 28 -12 26 3 27 5 30 71 3 64 4 67 27 67 23 0 25 -4 25 -51 0 -28 -5 -59 -10 -70 -10 -17 -7 -19 27 -19 29 0 34 3 25 12 -7 7 -12 35 -12 63 0 28 5 56 12 63 9 9 -3 12 -55 12 -38 0 -67 -4 -67 -10z"/>
<path d="M1310 4810 c0 -5 5 -10 10 -10 13 0 13 -86 0 -111 -10 -18 -7 -19 39 -19 67 0 81 7 81 40 0 29 -15 40 -56 40 -18 0 -24 5 -24 23 0 13 5 28 12 35 9 9 4 12 -25 12 -20 0 -37 -4 -37 -10z m85 -87 c16 -16 16 -17 0 -30 -23 -16 -35 -8 -35 23 0 28 12 31 35 7z"/>
<path d="M1450 4800 c0 -23 15 -27 24 -5 3 8 12 15 21 15 11 0 15 -12 15 -51 0 -28 -5 -59 -10 -70 -10 -17 -7 -19 27 -19 29 0 34 3 25 12 -14 14 -16 128 -3 128 5 0 16 -7 25 -15 20 -20 26 -19 26 5 0 18 -7 20 -75 20 -68 0 -75 -2 -75 -20z"/>
<path d="M1633 4814 c-18 -8 -16 -44 1 -44 7 0 16 10 20 22 5 22 6 22 23 4 10 -10 14 -20 8 -22 -5 -2 -25 -13 -43 -24 -27 -16 -33 -26 -30 -48 3 -26 5 -27 67 -27 43 0 66 4 69 13 2 6 -3 12 -12 12 -11 0 -16 14 -18 58 l-3 57 -35 2 c-19 1 -41 0 -47 -3z m57 -84 c0 -22 -22 -36 -40 -25 -8 5 -6 13 6 26 22 25 34 24 34 -1z"/>
<path d="M1740 4800 c0 -23 15 -27 24 -5 3 8 12 15 21 15 11 0 15 -12 15 -51 0 -28 -5 -59 -10 -70 -10 -17 -7 -19 27 -19 29 0 34 3 25 12 -14 14 -16 128 -3 128 5 0 17 -8 27 -17 13 -13 19 -14 22 -5 2 6 8 12 13 12 12 0 11 -87 -1 -111 -10 -18 -7 -19 39 -19 67 0 81 7 81 40 0 29 -15 40 -56 40 -18 0 -24 5 -24 23 0 13 5 28 12 35 9 9 -13 12 -100 12 -105 0 -112 -1 -112 -20z m235 -77 c16 -16 16 -17 0 -30 -23 -16 -35 -8 -35 23 0 28 12 31 35 7z"/>
<path d="M2030 4810 c0 -5 5 -10 10 -10 13 0 13 -86 0 -111 -10 -17 -7 -19 27 -19 29 0 34 3 25 12 -7 7 -12 35 -12 63 0 28 5 56 12 63 9 9 4 12 -25 12 -20 0 -37 -4 -37 -10z"/>
<path d="M2210 4810 c0 -5 5 -10 10 -10 13 0 13 -86 0 -111 -10 -17 -7 -19 26 -19 28 0 34 3 26 13 -8 9 -2 21 19 45 l29 32 0 -25 c0 -15 -5 -35 -10 -46 -10 -17 -7 -19 27 -19 29 0 34 3 25 12 -7 7 -12 35 -12 63 0 28 5 56 12 63 9 9 4 12 -26 12 -31 0 -37 -3 -32 -16 4 -9 -4 -28 -19 -46 l-25 -30 0 34 c0 19 5 39 12 46 9 9 4 12 -25 12 -20 0 -37 -4 -37 -10z"/>
<path d="M2390 4796 c0 -31 11 -33 28 -5 11 17 16 18 28 8 13 -10 13 -15 0 -34 -13 -20 -12 -24 7 -40 19 -17 20 -18 3 -31 -13 -9 -25 -10 -43 -3 -29 11 -45 3 -23 -11 17 -11 71 -13 94 -4 20 8 21 53 1 60 -12 5 -13 10 -4 20 6 7 9 23 7 36 -3 20 -10 23 -50 26 -46 3 -48 2 -48 -22z"/>
<path d="M2520 4810 c0 -5 5 -10 10 -10 13 0 13 -86 0 -111 -9 -17 -7 -19 16 -19 22 0 24 3 15 14 -7 8 -11 32 -9 53 l3 38 19 -52 c11 -29 25 -53 31 -53 6 0 20 24 31 53 18 50 19 51 22 20 2 -18 -2 -41 -8 -53 -10 -18 -8 -20 27 -20 29 0 34 3 25 12 -7 7 -12 35 -12 63 0 28 5 56 12 63 9 9 5 12 -19 12 -27 0 -32 -5 -50 -50 l-19 -51 -18 51 c-16 44 -21 50 -47 50 -16 0 -29 -4 -29 -10z"/>
<path d="M2747 4802 c-22 -24 -22 -95 -1 -116 18 -19 75 -21 92 -4 7 7 12 20 12 31 0 17 -2 17 -22 3 -28 -20 -33 -20 -52 0 -30 29 -20 44 29 44 37 0 45 3 45 18 0 10 -5 23 -12 30 -18 18 -73 14 -91 -6z m67 -18 c4 -10 -3 -14 -24 -14 -32 0 -37 9 -19 27 14 14 35 7 43 -13z"/>
<path d="M2880 4810 c-12 -7 -12 -12 -2 -22 15 -15 16 -141 2 -169 -10 -17 -7 -19 27 -19 29 0 34 3 25 12 -7 7 -12 22 -12 35 0 19 5 23 33 23 20 0 41 8 50 18 19 21 22 83 7 113 -12 22 -59 26 -78 7 -9 -9 -12 -9 -12 0 0 14 -19 15 -40 2z m103 -70 c0 -17 -7 -39 -17 -48 -16 -16 -18 -16 -32 2 -20 28 -18 83 4 95 24 14 45 -10 45 -49z"/>
<path d="M3057 4802 c-22 -24 -22 -95 -1 -116 18 -19 75 -21 92 -4 7 7 12 20 12 31 0 17 -2 17 -22 3 -28 -20 -33 -20 -52 0 -30 29 -20 44 29 44 37 0 45 3 45 18 0 10 -5 23 -12 30 -18 18 -73 14 -91 -6z m67 -18 c4 -10 -3 -14 -24 -14 -32 0 -37 9 -19 27 14 14 35 7 43 -13z"/>
<path d="M3190 4810 c0 -5 5 -10 10 -10 13 0 13 -86 0 -111 -10 -17 -7 -19 27 -19 29 0 34 3 25 12 -7 7 -12 22 -12 35 0 19 5 23 30 23 32 0 38 -16 20 -51 -10 -17 -7 -19 27 -19 29 0 34 3 25 12 -7 7 -12 35 -12 63 0 28 5 56 12 63 9 9 4 12 -25 12 -20 0 -37 -4 -37 -10 0 -5 5 -10 10 -10 6 0 10 -11 10 -25 0 -21 -5 -25 -30 -25 -25 0 -30 4 -30 23 0 13 5 28 12 35 9 9 4 12 -25 12 -20 0 -37 -4 -37 -10z"/>
<path d="M3370 4810 c0 -5 5 -10 10 -10 13 0 13 -86 0 -111 -10 -17 -7 -19 26 -19 28 0 34 3 26 13 -8 9 -2 21 19 45 l29 32 0 -25 c0 -15 -5 -35 -10 -46 -10 -17 -7 -19 27 -19 29 0 34 3 25 12 -7 7 -12 35 -12 63 0 28 5 56 12 63 9 9 4 12 -26 12 -31 0 -37 -3 -32 -16 4 -9 -4 -28 -19 -46 l-25 -30 0 34 c0 19 5 39 12 46 9 9 4 12 -25 12 -20 0 -37 -4 -37 -10z"/>
<path d="M3550 4810 c0 -5 5 -10 10 -10 13 0 13 -86 0 -111 -10 -17 -7 -19 26 -19 28 0 34 3 26 13 -8 9 -2 21 19 45 l29 32 0 -25 c0 -15 -5 -35 -10 -46 -10 -17 -7 -19 27 -19 29 0 34 3 25 12 -7 7 -12 35 -12 63 0 28 5 56 12 63 9 9 4 12 -26 12 -31 0 -37 -3 -32 -16 4 -9 -4 -28 -19 -46 l-25 -30 0 34 c0 19 5 39 12 46 9 9 4 12 -25 12 -20 0 -37 -4 -37 -10z"/>
<path d="M3810 4796 c0 -31 11 -33 28 -5 11 17 16 18 28 8 13 -10 13 -15 0 -34 -13 -20 -12 -24 7 -40 19 -17 20 -18 3 -31 -13 -9 -25 -10 -43 -3 -29 11 -45 3 -23 -11 17 -11 71 -13 94 -4 20 8 21 53 1 60 -12 5 -13 10 -4 20 6 7 9 23 7 36 -3 20 -10 23 -50 26 -46 3 -48 2 -48 -22z"/>
<path d="M3963 4814 c-18 -8 -16 -44 1 -44 7 0 16 10 20 22 5 22 6 22 23 4 10 -10 14 -20 8 -22 -5 -2 -25 -13 -43 -24 -27 -16 -33 -26 -30 -48 3 -26 5 -27 67 -27 43 0 66 4 69 13 2 6 -3 12 -12 12 -11 0 -16 14 -18 58 l-3 57 -35 2 c-19 1 -41 0 -47 -3z m57 -84 c0 -22 -22 -36 -40 -25 -8 5 -6 13 6 26 22 25 34 24 34 -1z"/>
<path d="M4090 4810 c0 -5 5 -10 10 -10 13 0 13 -86 0 -111 -10 -17 -7 -19 27 -19 29 0 34 3 25 12 -7 7 -12 22 -12 35 0 19 5 23 30 23 32 0 38 -16 20 -51 -10 -17 -7 -19 27 -19 29 0 34 3 25 12 -7 7 -12 35 -12 63 0 28 5 56 12 63 9 9 4 12 -25 12 -20 0 -37 -4 -37 -10 0 -5 5 -10 10 -10 6 0 10 -11 10 -25 0 -21 -5 -25 -30 -25 -25 0 -30 4 -30 23 0 13 5 28 12 35 9 9 4 12 -25 12 -20 0 -37 -4 -37 -10z"/>
<path d="M4287 4802 c-22 -24 -22 -95 -1 -116 18 -19 75 -21 92 -4 7 7 12 20 12 31 0 17 -2 17 -22 3 -28 -20 -33 -20 -52 0 -30 29 -20 44 29 44 37 0 45 3 45 18 0 10 -5 23 -12 30 -18 18 -73 14 -91 -6z m67 -18 c4 -10 -3 -14 -24 -14 -32 0 -37 9 -19 27 14 14 35 7 43 -13z"/>
<path d="M4437 4802 c-23 -26 -22 -94 1 -115 29 -27 80 -22 94 8 14 31 4 43 -17 21 -20 -20 -29 -20 -49 0 -23 22 -20 71 4 84 15 8 21 6 30 -10 6 -11 17 -20 25 -20 16 0 18 9 9 34 -9 23 -76 21 -97 -2z"/>
<path d="M4550 4800 c0 -23 15 -27 24 -5 3 8 12 15 21 15 11 0 15 -12 15 -51 0 -28 -5 -59 -10 -70 -10 -17 -7 -19 27 -19 29 0 34 3 25 12 -14 14 -16 128 -3 128 5 0 16 -7 25 -15 20 -20 26 -19 26 5 0 18 -7 20 -75 20 -68 0 -75 -2 -75 -20z"/>
<path d="M4710 4810 c0 -5 5 -10 10 -10 13 0 13 -86 0 -111 -10 -17 -7 -19 26 -19 28 0 34 3 26 13 -8 9 -2 21 19 45 l29 32 0 -25 c0 -15 -5 -35 -10 -46 -10 -17 -7 -19 27 -19 29 0 34 3 25 12 -7 7 -12 35 -12 63 0 28 5 56 12 63 9 9 4 12 -26 12 -31 0 -37 -3 -32 -16 4 -9 -4 -28 -19 -46 l-25 -30 0 34 c0 19 5 39 12 46 9 9 4 12 -25 12 -20 0 -37 -4 -37 -10z"/>
<path d="M4970 4810 c0 -5 5 -10 10 -10 13 0 13 -86 -1 -111 -10 -19 -7 -20 53 -17 58 3 63 5 66 27 3 15 -3 30 -14 38 -10 8 -13 13 -5 13 8 0 11 11 9 33 -3 32 -4 32 -60 35 -36 2 -58 -1 -58 -8z m84 -34 c-3 -8 -12 -17 -20 -20 -10 -4 -14 3 -14 25 0 26 2 29 20 19 11 -6 17 -17 14 -24z m1 -53 c16 -16 16 -17 0 -30 -23 -16 -35 -8 -35 23 0 28 12 31 35 7z"/>
<path d="M5200 4800 c0 -23 15 -27 24 -5 3 8 12 15 21 15 11 0 15 -12 15 -51 0 -28 -5 -59 -10 -70 -10 -17 -7 -19 27 -19 29 0 34 3 25 12 -14 14 -16 128 -3 128 5 0 16 -7 25 -15 20 -20 26 -19 26 5 0 18 -7 20 -75 20 -68 0 -75 -2 -75 -20z"/>
<path d="M5383 4814 c-18 -8 -16 -44 1 -44 7 0 16 10 20 22 5 22 6 22 23 4 10 -10 14 -20 8 -22 -5 -2 -25 -13 -43 -24 -27 -16 -33 -26 -30 -48 3 -26 5 -27 67 -27 43 0 66 4 69 13 2 6 -3 12 -12 12 -11 0 -16 14 -18 58 l-3 57 -35 2 c-19 1 -41 0 -47 -3z m57 -84 c0 -22 -22 -36 -40 -25 -8 5 -6 13 6 26 22 25 34 24 34 -1z"/>
<path d="M5700 4810 c0 -5 5 -10 10 -10 11 0 13 -42 4 -77 -4 -14 -14 -23 -25 -23 -11 0 -19 -7 -19 -16 0 -11 8 -14 28 -12 26 3 27 5 30 71 3 64 4 67 27 67 23 0 25 -4 25 -51 0 -28 -5 -59 -10 -70 -10 -17 -7 -19 27 -19 29 0 34 3 25 12 -7 7 -12 35 -12 63 0 28 5 56 12 63 9 9 -3 12 -55 12 -38 0 -67 -4 -67 -10z"/>
<path d="M5840 4810 c0 -5 5 -10 10 -10 13 0 13 -86 0 -111 -10 -17 -7 -19 26 -19 28 0 34 3 26 13 -8 9 -2 21 19 45 l29 32 0 -25 c0 -15 -5 -35 -10 -46 -10 -17 -7 -19 27 -19 29 0 34 3 25 12 -7 7 -12 35 -12 63 0 28 5 56 12 63 9 9 4 12 -26 12 -31 0 -37 -3 -32 -16 4 -9 -4 -28 -19 -46 l-25 -30 0 34 c0 19 5 39 12 46 9 9 4 12 -25 12 -20 0 -37 -4 -37 -10z"/>
<path d="M6020 4810 c0 -5 5 -10 10 -10 13 0 13 -86 0 -111 -10 -18 -7 -19 43 -19 40 0 61 -6 81 -21 l26 -20 0 25 c0 14 -4 28 -10 31 -14 9 -12 109 2 123 9 9 4 12 -25 12 -20 0 -37 -4 -37 -10 0 -5 5 -10 10 -10 7 0 10 -22 8 -57 -3 -54 -5 -58 -28 -58 -23 0 -25 4 -28 53 -2 31 2 60 9 68 9 12 5 14 -25 14 -20 0 -36 -4 -36 -10z"/>
<path d="M6200 4811 c0 -5 4 -11 9 -13 5 -1 22 -30 39 -63 34 -70 30 -105 -13 -105 -16 0 -25 -6 -25 -15 0 -18 43 -20 58 -2 6 6 25 48 42 92 17 44 39 88 47 98 15 16 14 17 -17 17 -25 0 -30 -3 -23 -12 7 -9 5 -25 -6 -52 l-17 -39 -17 44 c-13 33 -14 45 -4 51 7 4 -6 8 -30 8 -24 0 -43 -4 -43 -9z"/>
<path d="M193 4694 c-8 -21 13 -42 28 -27 13 13 5 43 -11 43 -6 0 -13 -7 -17 -16z"/>
<path d="M1510 3130 l0 -1200 4490 0 4490 0 0 1200 0 1200 -4490 0 -4490 0 0 -1200z m1790 990 l0 -190 -885 0 -885 0 0 190 0 190 885 0 885 0 0 -190z m1830 0 l0 -190 -905 0 -905 0 0 190 0 190 905 0 905 0 0 -190z m1830 0 l0 -190 -905 0 -905 0 0 190 0 190 905 0 905 0 0 -190z m1750 0 l0 -190 -865 0 -865 0 0 190 0 190 865 0 865 0 0 -190z m1760 0 l0 -190 -865 0 -865 0 0 190 0 190 865 0 865 0 0 -190z m-7170 -395 l0 -185 -885 0 -885 0 0 185 0 185 885 0 885 0 0 -185z m1830 0 l0 -185 -905 0 -905 0 0 185 0 185 905 0 905 0 0 -185z m1830 0 l0 -185 -905 0 -905 0 0 185 0 185 905 0 905 0 0 -185z m1750 0 l0 -185 -865 0 -865 0 0 185 0 185 865 0 865 0 0 -185z m1760 0 l0 -185 -865 0 -865 0 0 185 0 185 865 0 865 0 0 -185z m-7170 -400 l0 -185 -885 0 -885 0 0 185 0 185 885 0 885 0 0 -185z m1830 0 l0 -185 -905 0 -905 0 0 185 0 185 905 0 905 0 0 -185z m1830 0 l0 -185 -905 0 -905 0 0 185 0 185 905 0 905 0 0 -185z m1750 0 l0 -185 -865 0 -865 0 0 185 0 185 865 0 865 0 0 -185z m1760 0 l0 -185 -865 0 -865 0 0 185 0 185 865 0 865 0 0 -185z m-7170 -395 l0 -190 -885 0 -885 0 0 190 0 190 885 0 885 0 0 -190z m1830 0 l0 -190 -905 0 -905 0 0 190 0 190 905 0 905 0 0 -190z m1830 0 l0 -190 -905 0 -905 0 0 190 0 190 905 0 905 0 0 -190z m1750 0 l0 -190 -865 0 -865 0 0 190 0 190 865 0 865 0 0 -190z m1760 0 l0 -190 -865 0 -865 0 0 190 0 190 865 0 865 0 0 -190z m-7170 -395 l0 -185 -885 0 -885 0 0 185 0 185 885 0 885 0 0 -185z m1830 0 l0 -185 -905 0 -905 0 0 185 0 185 905 0 905 0 0 -185z m1830 0 l0 -185 -905 0 -905 0 0 185 0 185 905 0 905 0 0 -185z m1750 0 l0 -185 -865 0 -865 0 0 185 0 185 865 0 865 0 0 -185z m1760 0 l0 -185 -865 0 -865 0 0 185 0 185 865 0 865 0 0 -185z m-7170 -400 l0 -185 -885 0 -885 0 0 185 0 185 885 0 885 0 0 -185z m1830 0 l0 -185 -905 0 -905 0 0 185 0 185 905 0 905 0 0 -185z m1830 0 l0 -185 -905 0 -905 0 0 185 0 185 905 0 905 0 0 -185z m1750 0 l0 -185 -865 0 -865 0 0 185 0 185 865 0 865 0 0 -185z m1760 0 l0 -185 -865 0 -865 0 0 185 0 185 865 0 865 0 0 -185z"/>
<path d="M1930 4232 c0 -6 7 -12 15 -16 11 -4 15 -21 15 -65 0 -72 -6 -91 -31 -91 -13 0 -19 -7 -19 -21 0 -17 5 -20 33 -17 l32 3 5 77 5 77 44 -80 c25 -43 48 -79 53 -79 4 0 8 41 8 90 0 89 0 90 25 90 19 0 25 5 25 21 0 17 -5 20 -32 17 -33 -3 -33 -3 -38 -67 l-5 -64 -35 64 c-31 56 -39 64 -68 67 -17 2 -32 -1 -32 -6z"/>
<path d="M2127 4163 c-13 -12 -7 -70 7 -82 8 -7 27 -11 43 -9 24 2 28 8 31 36 2 18 -2 40 -9 48 -12 14 -60 19 -72 7z m52 -35 c10 -26 6 -38 -13 -38 -14 0 -29 38 -20 52 9 15 25 8 33 -14z"/>
<path d="M2320 4160 c0 -5 5 -10 10 -10 13 0 13 -86 0 -111 -10 -17 -7 -19 26 -19 28 0 34 3 26 13 -8 9 -2 21 19 45 l29 32 0 -25 c0 -15 -5 -35 -10 -46 -10 -17 -7 -19 27 -19 29 0 34 3 25 12 -7 7 -12 35 -12 63 0 28 5 56 12 63 9 9 4 12 -26 12 -31 0 -37 -3 -32 -16 4 -9 -4 -28 -19 -46 l-25 -30 0 34 c0 19 5 39 12 46 9 9 4 12 -25 12 -20 0 -37 -4 -37 -10z"/>
<path d="M2500 4146 c0 -31 11 -33 28 -5 11 17 16 18 28 8 13 -10 13 -15 0 -34 -13 -20 -12 -24 7 -40 19 -17 20 -18 3 -31 -13 -9 -25 -10 -43 -3 -29 11 -45 3 -23 -11 17 -11 71 -13 94 -4 20 8 21 53 1 60 -12 5 -13 10 -4 20 6 7 9 23 7 36 -3 20 -10 23 -50 26 -46 3 -48 2 -48 -22z"/>
<path d="M2630 4160 c0 -5 5 -10 10 -10 13 0 13 -86 0 -111 -9 -17 -7 -19 16 -19 22 0 24 3 15 14 -7 8 -11 32 -9 53 l3 38 19 -52 c11 -29 25 -53 31 -53 6 0 20 24 31 53 18 50 19 51 22 20 2 -18 -2 -41 -8 -53 -10 -18 -8 -20 27 -20 29 0 34 3 25 12 -7 7 -12 35 -12 63 0 28 5 56 12 63 9 9 5 12 -19 12 -27 0 -32 -5 -50 -50 l-19 -51 -18 51 c-16 44 -21 50 -47 50 -16 0 -29 -4 -29 -10z"/>
<path d="M2850 4035 c0 -8 7 -15 15 -15 8 0 15 7 15 15 0 8 -7 15 -15 15 -8 0 -15 -7 -15 -15z"/>
<path d="M2120 4030 c0 -5 20 -10 45 -10 25 0 45 5 45 10 0 6 -20 10 -45 10 -25 0 -45 -4 -45 -10z"/>
<path d="M4262 4241 c-8 -5 -12 -22 -10 -42 3 -32 5 -34 43 -34 43 0 52 14 41 61 -5 18 -13 24 -34 24 -15 0 -33 -4 -40 -9z m47 -47 c-9 -11 -15 -12 -25 -3 -11 9 -12 15 -3 25 9 11 15 12 25 3 11 -9 12 -15 3 -25z"/>
<path d="M4434 4230 c-12 -5 -31 -21 -43 -36 -26 -33 -29 -113 -5 -149 16 -24 61 -45 96 -45 29 0 88 30 88 45 0 9 -11 7 -39 -7 -35 -17 -43 -18 -68 -6 -59 28 -69 122 -18 165 35 30 51 29 87 -7 16 -16 31 -30 34 -30 2 0 4 17 4 38 l0 37 -58 2 c-31 1 -67 -2 -78 -7z"/>
<path d="M3860 4200 c0 -34 15 -40 25 -10 4 13 15 20 31 20 24 0 24 -1 24 -90 0 -74 -3 -91 -17 -99 -14 -8 -5 -10 37 -10 42 0 51 2 38 10 -15 8 -18 25 -18 99 l0 90 26 0 c17 0 28 -6 31 -20 8 -30 23 -24 23 10 l0 30 -100 0 -100 0 0 -30z"/>
<path d="M4077 4038 c-2 -7 3 -21 11 -31 14 -16 14 -19 2 -27 -8 -5 -11 -12 -7 -16 10 -10 47 26 47 46 0 32 -43 55 -53 28z"/>
<path d="M5753 4229 c14 -8 17 -24 17 -90 0 -72 3 -82 25 -104 15 -16 36 -25 54 -25 76 0 101 35 101 146 0 49 4 65 18 73 13 8 6 10 -33 10 -39 0 -46 -2 -32 -10 14 -8 17 -24 17 -89 0 -70 -2 -81 -22 -94 -30 -21 -44 -20 -68 4 -28 28 -30 163 -2 179 13 8 4 10 -38 10 -42 0 -51 -2 -37 -10z"/>
<path d="M6173 4222 c13 -14 17 -38 17 -92 0 -54 -4 -78 -17 -92 -15 -17 -13 -18 69 -18 70 0 88 3 101 18 23 26 21 68 -3 85 -18 12 -18 15 -5 20 20 8 20 61 -1 81 -11 12 -36 16 -96 16 -78 0 -80 -1 -65 -18z m105 -3 c17 -6 33 -16 36 -24 8 -23 -18 -47 -54 -48 -33 -2 -35 0 -38 32 -3 27 7 48 24 51 1 0 15 -5 32 -11z m29 -111 c21 -17 11 -51 -20 -66 -43 -21 -67 -8 -67 37 0 21 3 41 7 45 10 10 62 -1 80 -16z"/>
<path d="M5999 4018 c-1 -2 -2 -17 -4 -35 -2 -23 1 -30 11 -26 16 6 28 39 19 53 -5 9 -23 14 -26 8z"/>
<path d="M7503 4229 c14 -8 17 -25 17 -99 0 -74 -3 -91 -17 -99 -14 -8 -5 -10 37 -10 42 0 51 2 38 10 -12 6 -18 22 -18 44 0 31 3 35 26 35 28 0 65 16 76 34 4 6 8 23 8 38 0 42 -33 58 -115 58 -52 -1 -66 -3 -52 -11z m115 -21 c26 -26 11 -63 -31 -73 -26 -7 -27 -6 -27 39 0 41 2 46 23 46 13 0 28 -5 35 -12z"/>
<path d="M7863 4222 c13 -14 17 -38 17 -92 0 -54 -4 -78 -17 -92 -15 -17 -13 -18 69 -18 70 0 88 3 101 18 23 26 21 68 -3 85 -18 12 -18 15 -5 20 20 8 20 61 -1 81 -11 12 -36 16 -96 16 -78 0 -80 -1 -65 -18z m105 -3 c17 -6 33 -16 36 -24 8 -23 -18 -47 -54 -48 -33 -2 -35 0 -38 32 -3 27 7 48 24 51 1 0 15 -5 32 -11z m29 -111 c21 -17 11 -51 -20 -66 -43 -21 -67 -8 -67 37 0 21 3 41 7 45 10 10 62 -1 80 -16z"/>
<path d="M8060 4150 c0 -23 15 -27 24 -5 3 8 12 15 21 15 11 0 15 -12 15 -51 0 -28 -5 -59 -10 -70 -10 -17 -7 -19 27 -19 29 0 34 3 25 12 -14 14 -16 128 -3 128 5 0 16 -7 25 -15 20 -20 26 -19 26 5 0 18 -7 20 -75 20 -68 0 -75 -2 -75 -20z"/>
<path d="M7680 4035 c0 -9 9 -15 22 -15 l21 0 -23 -25 c-17 -18 -19 -25 -9 -25 23 0 39 21 39 52 0 23 -4 28 -25 28 -16 0 -25 -6 -25 -15z"/>
<path d="M9420 4187 c-16 -21 -20 -32 -12 -35 8 -2 12 -25 12 -62 0 -38 5 -62 15 -70 17 -14 51 -5 59 16 5 12 2 15 -11 10 -22 -9 -33 10 -33 62 0 35 3 42 20 42 11 0 20 5 20 10 0 6 -9 10 -19 10 -13 0 -21 8 -23 23 -3 23 -3 23 -28 -6z"/>
<path d="M9715 4170 c-33 -13 -48 -38 -48 -82 0 -72 61 -101 110 -52 30 30 25 42 -9 20 -22 -14 -26 -14 -46 0 -37 25 -26 104 14 104 7 0 16 -9 19 -20 7 -22 30 -27 41 -8 8 12 -30 48 -50 47 -6 0 -20 -4 -31 -9z"/>
<path d="M9507 4048 c-2 -7 3 -21 11 -31 14 -16 14 -19 2 -27 -8 -5 -11 -12 -7 -16 10 -10 47 26 47 46 0 32 -43 55 -53 28z"/>
<path d="M2390 3829 c-30 -15 -32 -18 -12 -19 21 0 22 -4 22 -85 0 -69 -3 -86 -17 -94 -14 -8 -7 -10 31 -11 42 0 47 2 33 13 -13 9 -17 33 -19 114 l-3 101 -35 -19z"/>
<path d="M9561 3833 c-29 -24 -44 -91 -32 -145 17 -75 76 -100 122 -52 21 22 24 35 24 96 0 64 -2 72 -28 94 -33 28 -57 30 -86 7z m69 -29 c22 -57 6 -174 -24 -174 -27 0 -40 31 -40 100 0 69 13 100 40 100 8 0 19 -12 24 -26z"/>
<path d="M2366 3429 c-14 -11 -26 -30 -26 -41 0 -20 2 -19 25 6 20 22 28 25 44 16 11 -5 23 -15 26 -20 12 -19 -15 -76 -55 -115 -22 -22 -40 -43 -40 -47 0 -4 32 -8 70 -8 39 0 70 4 70 9 0 5 3 18 6 28 6 15 4 16 -7 6 -7 -7 -30 -13 -52 -13 l-39 0 41 46 c49 56 57 112 19 138 -30 21 -50 20 -82 -5z"/>
<path d="M9476 3429 c-14 -11 -26 -30 -26 -41 0 -20 2 -19 25 6 20 22 28 25 44 16 11 -5 23 -15 26 -20 12 -19 -15 -76 -55 -115 -22 -22 -40 -43 -40 -47 0 -4 32 -8 70 -8 39 0 70 4 70 9 0 5 3 18 6 28 6 15 4 16 -7 6 -7 -7 -30 -13 -52 -13 l-39 0 41 46 c49 56 57 112 19 138 -30 21 -50 20 -82 -5z"/>
<path d="M9641 3433 c-29 -24 -44 -91 -32 -145 17 -75 76 -100 122 -52 21 22 24 35 24 96 0 64 -2 72 -28 94 -33 28 -57 30 -86 7z m69 -29 c22 -57 6 -174 -24 -174 -27 0 -40 31 -40 100 0 69 13 100 40 100 8 0 19 -12 24 -26z"/>
<path d="M2363 3024 c-29 -29 -23 -47 6 -20 11 10 28 16 38 14 28 -5 28 -43 -1 -66 l-26 -20 29 -12 c37 -15 45 -43 21 -73 -16 -19 -22 -20 -39 -9 -30 18 -53 15 -49 -5 4 -21 43 -28 81 -14 53 20 71 86 33 123 -11 12 -11 17 0 33 18 25 18 31 -6 55 -27 27 -56 25 -87 -6z"/>
<path d="M9493 2976 c-66 -94 -67 -106 -8 -106 41 0 45 -2 45 -25 0 -18 5 -25 20 -25 15 0 20 7 20 25 0 16 6 25 15 25 8 0 15 7 15 15 0 8 -7 15 -15 15 -12 0 -15 15 -15 75 0 53 -4 75 -12 75 -7 0 -37 -34 -65 -74z m34 -73 c-3 -2 -17 -3 -31 -1 l-26 3 27 40 28 40 3 -39 c2 -21 1 -40 -1 -43z"/>
<path d="M9641 3033 c-29 -24 -44 -91 -32 -145 17 -75 76 -100 122 -52 21 22 24 35 24 96 0 64 -2 72 -28 94 -33 28 -57 30 -86 7z m69 -29 c22 -57 6 -174 -24 -174 -27 0 -40 31 -40 100 0 69 13 100 40 100 8 0 19 -12 24 -26z"/>
<path d="M2290 2445 c0 -8 7 -15 15 -15 8 0 15 7 15 15 0 8 -7 15 -15 15 -8 0 -15 -7 -15 -15z"/>
<path d="M2400 2445 c0 -8 7 -15 15 -15 8 0 15 7 15 15 0 8 -7 15 -15 15 -8 0 -15 -7 -15 -15z"/>
<path d="M2510 2445 c0 -8 7 -15 15 -15 8 0 15 7 15 15 0 8 -7 15 -15 15 -8 0 -15 -7 -15 -15z"/>
<path d="M9480 2445 c0 -8 7 -15 15 -15 8 0 15 7 15 15 0 8 -7 15 -15 15 -8 0 -15 -7 -15 -15z"/>
<path d="M9590 2445 c0 -8 7 -15 15 -15 8 0 15 7 15 15 0 8 -7 15 -15 15 -8 0 -15 -7 -15 -15z"/>
<path d="M9700 2445 c0 -8 7 -15 15 -15 8 0 15 7 15 15 0 8 -7 15 -15 15 -8 0 -15 -7 -15 -15z"/>
<path d="M2310 2239 c-30 -15 -32 -18 -12 -19 21 0 22 -4 22 -85 0 -69 -3 -86 -17 -94 -14 -8 -7 -10 31 -11 42 0 47 2 33 13 -13 9 -17 33 -19 114 l-3 101 -35 -19z"/>
<path d="M2451 2243 c-29 -24 -44 -91 -32 -145 17 -75 76 -100 122 -52 21 22 24 35 24 96 0 64 -2 72 -28 94 -33 28 -57 30 -86 7z m69 -29 c22 -57 6 -174 -24 -174 -27 0 -40 31 -40 100 0 69 13 100 40 100 8 0 19 -12 24 -26z"/>
<path d="M9410 2239 c-30 -15 -32 -18 -12 -19 21 0 22 -4 22 -85 0 -69 -3 -86 -17 -94 -14 -8 -7 -10 31 -11 42 0 47 2 33 13 -13 9 -17 33 -19 114 l-3 101 -35 -19z"/>
<path d="M9562 2244 c-27 -18 -29 -60 -5 -86 11 -13 14 -22 7 -26 -37 -24 -36 -91 1 -106 77 -29 140 49 84 105 -19 19 -19 22 -5 38 50 55 -19 119 -82 75z m63 -39 c0 -23 -5 -30 -19 -30 -24 0 -41 27 -33 49 4 11 15 16 29 14 18 -2 23 -9 23 -33z m0 -105 c19 -21 15 -47 -10 -56 -21 -8 -45 14 -45 41 0 40 26 47 55 15z"/>
<path d="M9731 2243 c-29 -24 -44 -91 -32 -145 17 -75 76 -100 122 -52 21 22 24 35 24 96 0 64 -2 72 -28 94 -33 28 -57 30 -86 7z m69 -29 c22 -57 6 -174 -24 -174 -27 0 -40 31 -40 100 0 69 13 100 40 100 8 0 19 -12 24 -26z"/>
<path d="M3690 1041 c0 -5 7 -11 14 -14 10 -4 16 -24 18 -59 l3 -53 53 0 c49 1 52 -1 52 -24 0 -13 -7 -33 -17 -43 -15 -17 -14 -18 32 -18 46 0 47 1 32 18 -13 14 -17 38 -17 92 0 54 4 78 17 92 15 17 14 18 -30 18 -46 0 -62 -12 -32 -24 10 -3 15 -19 15 -45 0 -34 -3 -39 -27 -44 -48 -10 -73 55 -36 95 15 17 14 18 -30 18 -26 0 -47 -4 -47 -9z"/>
<path d="M4617 1032 c-10 -10 -17 -26 -17 -36 0 -16 2 -16 26 3 26 20 53 17 69 -9 9 -14 -29 -81 -64 -114 -17 -17 -31 -33 -31 -38 0 -4 29 -8 64 -8 57 0 65 3 71 21 9 27 1 33 -23 20 -12 -6 -31 -11 -43 -11 -22 0 -22 1 8 33 79 83 72 157 -15 157 -16 0 -36 -8 -45 -18z"/>
<path d="M4967 1031 c17 -16 20 -28 16 -68 -7 -60 -27 -111 -48 -119 -9 -4 -15 -19 -15 -40 0 -39 11 -44 25 -11 6 14 24 25 48 31 50 13 109 -2 122 -31 5 -13 13 -23 17 -23 14 0 8 61 -7 76 -22 23 -21 161 2 186 15 17 12 18 -82 18 -98 0 -99 0 -78 -19z m113 -79 c0 -55 -4 -92 -12 -100 -7 -7 -31 -12 -55 -12 l-44 0 16 31 c9 17 19 62 22 100 l6 69 33 0 34 0 0 -88z"/>
<path d="M3943 974 c-18 -8 -16 -44 1 -44 7 0 16 10 20 22 5 22 6 22 23 4 10 -10 14 -20 8 -22 -5 -2 -25 -13 -43 -24 -27 -16 -33 -26 -30 -48 3 -26 5 -27 67 -27 43 0 66 4 69 13 2 6 -3 12 -12 12 -11 0 -16 14 -18 58 l-3 57 -35 2 c-19 1 -41 0 -47 -3z m57 -84 c0 -22 -22 -36 -40 -25 -8 5 -6 13 6 26 22 25 34 24 34 -1z"/>
<path d="M4087 962 c-23 -26 -22 -94 1 -115 29 -27 80 -22 94 8 14 31 4 43 -17 21 -20 -20 -29 -20 -49 0 -23 22 -20 71 4 84 15 8 21 6 30 -10 6 -11 17 -20 25 -20 16 0 18 9 9 34 -9 23 -76 21 -97 -2z"/>
<path d="M4200 960 c0 -23 15 -27 24 -5 3 8 12 15 21 15 11 0 15 -12 15 -51 0 -28 -5 -59 -10 -70 -10 -17 -7 -19 27 -19 29 0 34 3 25 12 -14 14 -16 128 -3 128 5 0 16 -7 25 -15 20 -20 26 -19 26 5 0 18 -7 20 -75 20 -68 0 -75 -2 -75 -20z"/>
<path d="M4360 970 c0 -5 5 -10 10 -10 13 0 13 -86 0 -111 -10 -18 -7 -19 39 -19 67 0 81 7 81 40 0 29 -15 40 -56 40 -18 0 -24 5 -24 23 0 13 5 28 12 35 9 9 4 12 -25 12 -20 0 -37 -4 -37 -10z m85 -87 c16 -16 16 -17 0 -30 -23 -16 -35 -8 -35 23 0 28 12 31 35 7z"/>
<path d="M5160 970 c0 -5 5 -10 10 -10 13 0 13 -86 0 -111 -10 -17 -7 -19 26 -19 28 0 34 3 26 13 -8 9 -2 21 19 45 l29 32 0 -25 c0 -15 -5 -35 -10 -46 -10 -17 -7 -19 27 -19 29 0 34 3 25 12 -7 7 -12 35 -12 63 0 28 5 56 12 63 9 9 4 12 -26 12 -31 0 -37 -3 -32 -16 4 -9 -4 -28 -19 -46 l-25 -30 0 34 c0 19 5 39 12 46 9 9 4 12 -25 12 -20 0 -37 -4 -37 -10z"/>
<path d="M5357 962 c-23 -26 -22 -94 1 -115 29 -27 80 -22 94 8 14 31 4 43 -17 21 -20 -20 -29 -20 -49 0 -23 22 -20 71 4 84 15 8 21 6 30 -10 6 -11 17 -20 25 -20 16 0 18 9 9 34 -9 23 -76 21 -97 -2z"/>
<path d="M5480 970 c0 -5 5 -10 10 -10 13 0 13 -86 0 -111 -10 -17 -7 -19 27 -19 29 0 34 3 25 12 -7 7 -12 26 -12 42 l0 31 23 -40 c16 -29 30 -41 50 -43 l28 -3 -31 43 c-33 47 -32 78 1 78 11 0 19 7 19 16 0 24 -43 13 -55 -13 -5 -13 -15 -25 -22 -27 -17 -7 -17 26 -1 42 9 9 4 12 -25 12 -20 0 -37 -4 -37 -10z"/>
<path d="M5650 970 c-12 -7 -12 -12 -2 -22 15 -15 16 -141 2 -169 -10 -17 -7 -19 27 -19 29 0 34 3 25 12 -7 7 -12 22 -12 35 0 19 5 23 33 23 20 0 41 8 50 18 19 21 22 83 7 113 -12 22 -59 26 -78 7 -9 -9 -12 -9 -12 0 0 14 -19 15 -40 2z m103 -70 c0 -17 -7 -39 -17 -48 -16 -16 -18 -16 -32 2 -20 28 -18 83 4 95 24 14 45 -10 45 -49z"/>
<path d="M5827 962 c-22 -24 -22 -95 -1 -116 18 -19 75 -21 92 -4 7 7 12 20 12 31 0 17 -2 17 -22 3 -28 -20 -33 -20 -52 0 -30 29 -20 44 29 44 37 0 45 3 45 18 0 10 -5 23 -12 30 -18 18 -73 14 -91 -6z m67 -18 c4 -10 -3 -14 -24 -14 -32 0 -37 9 -19 27 14 14 35 7 43 -13z"/>
<path d="M5950 960 c0 -23 15 -27 24 -5 3 8 12 15 21 15 11 0 15 -12 15 -51 0 -28 -5 -59 -10 -70 -10 -17 -7 -19 27 -19 29 0 34 3 25 12 -14 14 -16 128 -3 128 5 0 16 -7 25 -15 20 -20 26 -19 26 5 0 18 -7 20 -75 20 -68 0 -75 -2 -75 -20z"/>
<path d="M6110 970 c0 -5 5 -10 10 -10 13 0 13 -86 0 -111 -10 -17 -7 -19 27 -19 29 0 34 3 25 12 -7 7 -12 22 -12 35 0 19 5 23 30 23 32 0 38 -16 20 -51 -10 -17 -7 -19 27 -19 29 0 34 3 25 12 -7 7 -12 35 -12 63 0 28 5 56 12 63 9 9 4 12 -25 12 -20 0 -37 -4 -37 -10 0 -5 5 -10 10 -10 6 0 10 -11 10 -25 0 -21 -5 -25 -30 -25 -25 0 -30 4 -30 23 0 13 5 28 12 35 9 9 4 12 -25 12 -20 0 -37 -4 -37 -10z"/>
<path d="M6306 958 c-22 -31 -20 -91 2 -111 28 -25 87 -22 106 5 22 31 20 91 -2 111 -28 25 -87 22 -106 -5z m84 -32 c15 -47 -5 -91 -36 -79 -18 7 -36 66 -28 89 17 43 48 38 64 -10z"/>
<path d="M6467 962 c-22 -24 -22 -95 -1 -116 18 -19 75 -21 92 -4 7 7 12 20 12 31 0 17 -2 17 -22 3 -28 -20 -33 -20 -52 0 -30 29 -20 44 29 44 37 0 45 3 45 18 0 10 -5 23 -12 30 -18 18 -73 14 -91 -6z m67 -18 c4 -10 -3 -14 -24 -14 -32 0 -37 9 -19 27 14 14 35 7 43 -13z"/>
<path d="M6680 971 c0 -5 4 -11 9 -13 5 -1 22 -30 39 -63 34 -70 30 -105 -13 -105 -16 0 -25 -6 -25 -15 0 -18 43 -20 58 -2 5 6 25 50 44 97 41 101 68 120 68 45 0 -25 -5 -55 -10 -66 -10 -17 -7 -19 27 -19 29 0 34 3 25 12 -7 7 -12 38 -12 70 0 58 0 58 30 58 29 0 30 -1 30 -51 0 -28 -5 -59 -10 -70 -10 -17 -7 -19 27 -19 29 0 34 3 25 12 -7 7 -12 35 -12 63 0 28 5 56 12 63 9 9 -12 12 -96 12 -85 0 -106 -3 -99 -12 7 -9 5 -25 -6 -52 l-17 -39 -17 44 c-13 33 -14 45 -4 51 7 4 -6 8 -30 8 -24 0 -43 -4 -43 -9z"/>
<path d="M7030 970 c-12 -7 -12 -12 -2 -22 15 -15 16 -141 2 -169 -10 -17 -7 -19 27 -19 29 0 34 3 25 12 -7 7 -12 22 -12 35 0 19 5 23 33 23 20 0 41 8 50 18 19 21 22 83 7 113 -12 22 -59 26 -78 7 -9 -9 -12 -9 -12 0 0 14 -19 15 -40 2z m103 -70 c0 -17 -7 -39 -17 -48 -16 -16 -18 -16 -32 2 -20 28 -18 83 4 95 24 14 45 -10 45 -49z"/>
<path d="M7213 974 c-18 -8 -16 -44 1 -44 7 0 16 10 20 22 5 22 6 22 23 4 10 -10 14 -20 8 -22 -5 -2 -25 -13 -43 -24 -27 -16 -33 -26 -30 -48 3 -26 5 -27 67 -27 43 0 66 4 69 13 2 6 -3 12 -12 12 -11 0 -16 14 -18 58 l-3 57 -35 2 c-19 1 -41 0 -47 -3z m57 -84 c0 -22 -22 -36 -40 -25 -8 5 -6 13 6 26 22 25 34 24 34 -1z"/>
<path d="M7340 970 c0 -5 5 -10 10 -10 13 0 13 -86 -1 -111 -10 -19 -7 -20 53 -17 58 3 63 5 66 27 3 15 -3 30 -14 38 -10 8 -13 13 -5 13 8 0 11 11 9 33 -3 32 -4 32 -60 35 -36 2 -58 -1 -58 -8z m84 -34 c-3 -8 -12 -17 -20 -20 -10 -4 -14 3 -14 25 0 26 2 29 20 19 11 -6 17 -17 14 -24z m1 -53 c16 -16 16 -17 0 -30 -23 -16 -35 -8 -35 23 0 28 12 31 35 7z"/>
<path d="M7520 970 c0 -5 5 -10 10 -10 11 0 13 -42 4 -77 -4 -14 -14 -23 -25 -23 -11 0 -19 -7 -19 -16 0 -11 8 -14 28 -12 26 3 27 5 30 71 3 64 4 67 27 67 23 0 25 -4 25 -51 0 -28 -5 -59 -10 -70 -10 -17 -7 -19 27 -19 29 0 34 3 25 12 -7 7 -12 35 -12 63 0 28 5 56 12 63 9 9 -3 12 -55 12 -38 0 -67 -4 -67 -10z"/>
<path d="M7677 962 c-22 -24 -22 -95 -1 -116 18 -19 75 -21 92 -4 7 7 12 20 12 31 0 17 -2 17 -22 3 -28 -20 -33 -20 -52 0 -30 29 -20 44 29 44 37 0 45 3 45 18 0 10 -5 23 -12 30 -18 18 -73 14 -91 -6z m67 -18 c4 -10 -3 -14 -24 -14 -32 0 -37 9 -19 27 14 14 35 7 43 -13z"/>
<path d="M7810 970 c0 -5 5 -10 10 -10 13 0 13 -86 0 -111 -10 -17 -7 -19 27 -19 29 0 34 3 25 12 -7 7 -12 22 -12 35 0 19 5 23 30 23 32 0 38 -16 20 -51 -10 -17 -7 -19 27 -19 29 0 34 3 25 12 -7 7 -12 35 -12 63 0 28 5 56 12 63 9 9 4 12 -25 12 -20 0 -37 -4 -37 -10 0 -5 5 -10 10 -10 6 0 10 -11 10 -25 0 -21 -5 -25 -30 -25 -25 0 -30 4 -30 23 0 13 5 28 12 35 9 9 4 12 -25 12 -20 0 -37 -4 -37 -10z"/>
<path d="M7990 970 c0 -5 5 -10 10 -10 13 0 13 -86 0 -111 -10 -17 -7 -19 26 -19 28 0 34 3 26 13 -8 9 -2 21 19 45 l29 32 0 -25 c0 -15 -5 -35 -10 -46 -10 -17 -7 -19 27 -19 29 0 34 3 25 12 -7 7 -12 35 -12 63 0 28 5 56 12 63 9 9 4 12 -26 12 -31 0 -37 -3 -32 -16 4 -9 -4 -28 -19 -46 l-25 -30 0 34 c0 19 5 39 12 46 9 9 4 12 -25 12 -20 0 -37 -4 -37 -10z"/>
<path d="M8187 962 c-22 -24 -22 -95 -1 -116 18 -19 75 -21 92 -4 7 7 12 20 12 31 0 17 -2 17 -22 3 -28 -20 -33 -20 -52 0 -30 29 -20 44 29 44 37 0 45 3 45 18 0 10 -5 23 -12 30 -18 18 -73 14 -91 -6z m67 -18 c4 -10 -3 -14 -24 -14 -32 0 -37 9 -19 27 14 14 35 7 43 -13z"/>
<path d="M4773 854 c-8 -21 13 -42 28 -27 13 13 5 43 -11 43 -6 0 -13 -7 -17 -16z"/>
<path d="M110 279 c-30 -15 -32 -18 -12 -19 21 0 22 -4 22 -85 0 -69 -3 -86 -17 -94 -14 -8 -7 -10 31 -11 42 0 47 2 33 13 -13 9 -17 33 -19 114 l-3 101 -35 -19z"/>
<path d="M1122 293 c-36 -4 -46 -10 -62 -36 -25 -40 -27 -132 -4 -165 20 -29 85 -31 114 -2 24 24 26 77 4 109 -15 20 -23 23 -65 19 -44 -5 -47 -3 -38 13 5 10 25 21 47 24 20 3 43 10 51 14 20 10 26 31 9 29 -7 -1 -32 -3 -56 -5z m13 -103 c35 -39 13 -120 -28 -104 -9 3 -21 21 -27 40 -10 29 -9 39 4 59 20 30 28 31 51 5z"/>
<path d="M680 261 c-26 -25 -30 -37 -30 -81 0 -44 4 -56 29 -81 25 -24 38 -29 78 -29 40 0 54 5 73 25 28 29 19 46 -10 20 -11 -10 -34 -18 -50 -18 -81 0 -106 122 -35 169 23 15 27 15 51 -1 15 -9 29 -26 31 -36 9 -34 24 -20 21 19 l-3 37 -63 3 c-58 3 -64 1 -92 -27z"/>
<path d="M3507 272 c-27 -29 -21 -49 6 -23 14 12 30 19 40 16 27 -11 28 -35 1 -60 l-26 -24 25 -12 c34 -15 40 -46 15 -71 -14 -14 -23 -17 -31 -9 -16 16 -47 13 -47 -4 0 -24 85 -20 110 5 24 24 27 82 5 100 -11 9 -13 16 -5 24 14 14 13 49 -2 64 -18 18 -73 14 -91 -6z"/>
<path d="M3786 223 c-25 -38 -46 -74 -46 -80 0 -9 16 -13 45 -13 43 0 45 -1 45 -30 0 -20 5 -30 15 -30 10 0 15 10 15 30 0 20 5 30 15 30 8 0 15 5 15 10 0 6 -7 10 -15 10 -12 0 -15 14 -15 70 0 91 -13 91 -74 3z m44 -28 c0 -45 0 -45 -36 -45 l-35 0 32 45 c18 25 34 45 36 45 2 0 3 -20 3 -45z"/>
<path d="M896 198 c-22 -31 -20 -91 2 -111 28 -25 87 -22 106 5 22 31 20 91 -2 111 -28 25 -87 22 -106 -5z m84 -32 c15 -47 -5 -91 -36 -79 -18 7 -36 66 -28 89 17 43 48 38 64 -10z"/>
<path d="M1210 210 c-12 -7 -12 -12 -2 -22 15 -15 16 -141 2 -169 -10 -17 -7 -19 27 -19 29 0 34 3 25 12 -7 7 -12 22 -12 35 0 19 5 23 33 23 20 0 41 8 50 18 19 21 22 83 7 113 -12 22 -59 26 -78 7 -9 -9 -12 -9 -12 0 0 14 -19 15 -40 2z m103 -70 c0 -17 -7 -39 -17 -48 -16 -16 -18 -16 -32 2 -20 28 -18 83 4 95 24 14 45 -10 45 -49z"/>
<path d="M1403 214 c-18 -8 -16 -44 1 -44 7 0 16 10 20 22 5 22 6 22 23 4 10 -10 14 -20 8 -22 -5 -2 -25 -13 -43 -24 -27 -16 -33 -26 -30 -48 3 -26 5 -27 67 -27 43 0 66 4 69 13 2 6 -3 12 -12 12 -11 0 -16 14 -18 58 l-3 57 -35 2 c-19 1 -41 0 -47 -3z m57 -84 c0 -22 -22 -36 -40 -25 -8 5 -6 13 6 26 22 25 34 24 34 -1z"/>
<path d="M1520 200 c0 -23 15 -27 24 -5 3 8 12 15 21 15 11 0 15 -12 15 -51 0 -28 -5 -59 -10 -70 -10 -17 -7 -19 27 -19 29 0 34 3 25 12 -14 14 -16 128 -3 128 5 0 17 -8 27 -17 13 -13 19 -14 22 -5 2 6 8 12 13 12 12 0 11 -87 -1 -111 -10 -18 -7 -19 39 -19 67 0 81 7 81 40 0 29 -15 40 -56 40 -18 0 -24 5 -24 23 0 13 5 28 12 35 9 9 -13 12 -100 12 -105 0 -112 -1 -112 -20z m235 -77 c16 -16 16 -17 0 -30 -23 -16 -35 -8 -35 23 0 28 12 31 35 7z"/>
<path d="M1927 202 c-23 -26 -22 -94 1 -115 29 -27 80 -22 94 8 14 31 4 43 -17 21 -20 -20 -29 -20 -49 0 -23 22 -20 71 4 84 15 8 21 6 30 -10 6 -11 17 -20 25 -20 16 0 18 9 9 34 -9 23 -76 21 -97 -2z"/>
<path d="M2060 215 c0 -3 11 -18 25 -33 14 -15 25 -32 25 -38 0 -6 -11 -21 -25 -34 -32 -30 -32 -40 0 -40 16 0 23 5 19 13 -2 7 2 21 9 32 14 18 15 18 26 -3 7 -13 9 -27 6 -32 -4 -6 9 -10 31 -10 l36 0 -24 33 c-41 54 -41 55 -6 87 l32 30 -38 0 c-32 0 -36 -2 -27 -14 8 -10 9 -16 1 -21 -13 -8 -30 3 -30 21 0 9 -11 14 -30 14 -16 0 -30 -2 -30 -5z"/>
<path d="M2247 202 c-22 -24 -22 -95 -1 -116 18 -19 75 -21 92 -4 7 7 12 20 12 31 0 17 -2 17 -22 3 -28 -20 -33 -20 -52 0 -30 29 -20 44 29 44 37 0 45 3 45 18 0 10 -5 23 -12 30 -18 18 -73 14 -91 -6z m67 -18 c4 -10 -3 -14 -24 -14 -32 0 -37 9 -19 27 14 14 35 7 43 -13z"/>
<path d="M2370 210 c0 -5 5 -10 10 -10 13 0 13 -86 0 -111 -9 -17 -7 -19 16 -19 22 0 24 3 15 14 -7 8 -11 32 -9 53 l3 38 19 -53 c11 -28 25 -52 31 -52 6 0 20 24 31 53 18 50 19 51 22 20 2 -18 -2 -41 -8 -53 -10 -18 -8 -20 27 -20 29 0 34 3 25 12 -7 7 -12 35 -12 63 0 28 5 56 12 63 9 9 5 12 -19 12 -27 0 -32 -5 -50 -50 l-19 -51 -18 51 c-16 44 -21 50 -47 50 -16 0 -29 -4 -29 -10z"/>
<path d="M2580 211 c0 -5 4 -11 9 -13 5 -1 22 -30 39 -63 34 -70 30 -105 -13 -105 -16 0 -25 -6 -25 -15 0 -18 43 -20 58 -3 6 7 25 49 42 93 17 44 39 88 47 98 15 16 14 17 -17 17 -25 0 -30 -3 -23 -12 7 -9 5 -25 -6 -52 l-17 -39 -17 44 c-13 33 -14 45 -4 51 7 4 -6 8 -30 8 -24 0 -43 -4 -43 -9z"/>
<path d="M2830 210 c-12 -7 -12 -12 -2 -22 15 -15 16 -141 2 -169 -10 -17 -7 -19 27 -19 29 0 34 3 25 12 -7 7 -12 22 -12 35 0 19 5 23 33 23 20 0 41 8 50 18 19 21 22 83 7 113 -12 22 -59 26 -78 7 -9 -9 -12 -9 -12 0 0 14 -19 15 -40 2z m103 -70 c0 -17 -7 -39 -17 -48 -16 -16 -18 -16 -32 2 -20 28 -18 83 4 95 24 14 45 -10 45 -49z"/>
<path d="M2990 210 c0 -5 5 -10 10 -10 13 0 13 -86 0 -111 -10 -17 -7 -19 26 -19 28 0 34 3 26 13 -8 9 -2 21 19 45 l29 32 0 -25 c0 -15 -5 -35 -10 -46 -10 -17 -7 -19 27 -19 29 0 34 3 25 12 -7 7 -12 35 -12 63 0 28 5 56 12 63 9 9 4 12 -26 12 -31 0 -37 -3 -32 -16 4 -9 -4 -28 -19 -46 l-25 -30 0 34 c0 19 5 39 12 46 9 9 4 12 -25 12 -20 0 -37 -4 -37 -10z"/>
<path d="M3187 202 c-23 -26 -22 -94 1 -115 29 -27 80 -22 94 8 14 31 4 43 -17 21 -20 -20 -29 -20 -49 0 -23 22 -20 71 4 84 15 8 21 6 30 -10 6 -11 17 -20 25 -20 16 0 18 9 9 34 -9 23 -76 21 -97 -2z"/>
<path d="M243 94 c-8 -21 13 -42 28 -27 13 13 5 43 -11 43 -6 0 -13 -7 -17 -16z"/>
<path d="M3330 85 c0 -8 7 -15 15 -15 8 0 15 7 15 15 0 8 -7 15 -15 15 -8 0 -15 -7 -15 -15z"/>
<path d="M3660 85 c0 -8 7 -15 15 -15 8 0 15 7 15 15 0 8 -7 15 -15 15 -8 0 -15 -7 -15 -15z"/>
</g>
</svg>