<?xml version="1.0" encoding="UTF-8" standalone="no"?>
<!DOCTYPE svg PUBLIC "-//W3C//DTD SVG 20010904//EN" "http://www.w3.org/TR/2001/REC-SVG-20010904/DTD/svg10.dtd">
<svg version="1.0" xmlns="http://www.w3.org/2000/svg" width="1272.000000pt" height="186.000000pt" viewBox="0 0 1272.000000 186.000000" preserveAspectRatio="xMidYMid meet">
<metadata>
Created by potrace 1.12, written by Peter Selinger 2001-2015
</metadata>
<g transform="translate(0.000000,186.000000) scale(0.100000,-0.100000)" fill="#000000" stroke="none">
<path d="M573 1845 c-45 -19 -73 -69 -73 -128 0 -85 72 -126 125 -72 48 47 20 128 -43 128 -18 0 -32 3 -32 7 0 11 55 60 67 60 7 0 15 5 18 10 9 14 -24 12 -62 -5z m26 -109 c17 -21 9 -77 -12 -90 -15 -9 -21 -7 -33 8 -14 20 -19 77 -7 89 11 12 40 8 52 -7z"/>
<path d="M1013 1832 c24 -26 24 -158 0 -184 -15 -17 -14 -18 32 -18 46 0 47 1 32 18 -13 14 -17 39 -17 105 l0 87 50 0 50 0 0 -87 c0 -66 -4 -91 -17 -105 -15 -17 -14 -18 32 -18 46 0 47 1 32 18 -24 26 -24 158 0 184 15 17 12 18 -97 18 -109 0 -112 -1 -97 -18z"/>
<path d="M1240 1770 c-12 -7 -12 -12 -2 -22 15 -15 16 -141 2 -169 -10 -17 -7 -19 27 -19 29 0 34 3 25 12 -7 7 -12 22 -12 35 0 19 5 23 33 23 20 0 41 8 50 18 19 21 22 83 7 113 -12 22 -59 26 -78 7 -9 -9 -12 -9 -12 0 0 14 -19 15 -40 2z m103 -70 c0 -17 -7 -39 -17 -48 -16 -16 -18 -16 -32 2 -20 28 -18 83 4 95 24 14 45 -10 45 -49z"/>
<path d="M1426 1758 c-22 -31 -20 -91 2 -111 28 -25 87 -22 106 5 22 31 20 91 -2 111 -28 25 -87 22 -106 -5z m84 -32 c15 -47 -5 -91 -36 -79 -18 7 -36 66 -28 89 17 43 48 38 64 -10z"/>
<path d="M1580 1770 c0 -5 5 -10 10 -10 13 0 13 -86 0 -111 -10 -17 -7 -19 27 -19 29 0 34 3 25 12 -7 7 -12 38 -12 70 0 62 13 74 44 43 8 -9 21 -14 28 -13 17 4 24 -133 8 -162 -10 -18 -8 -20 27 -20 29 0 34 3 25 12 -7 7 -12 22 -12 35 0 19 5 23 33 23 20 0 41 8 50 18 19 21 22 83 7 113 -12 22 -59 26 -78 7 -7 -7 -12 -8 -12 -2 0 6 -35 11 -85 13 -53 1 -85 -2 -85 -9z m233 -70 c0 -17 -7 -39 -17 -48 -16 -16 -18 -16 -32 2 -20 28 -18 83 4 95 24 14 45 -10 45 -49z"/>
<path d="M1903 1774 c-18 -8 -16 -44 1 -44 7 0 16 10 20 22 5 22 6 22 23 4 10 -10 14 -20 8 -22 -5 -2 -25 -13 -43 -24 -27 -16 -33 -26 -30 -48 3 -26 5 -27 67 -27 43 0 66 4 69 13 2 6 -3 12 -12 12 -11 0 -16 14 -18 58 l-3 57 -35 2 c-19 1 -41 0 -47 -3z m57 -84 c0 -22 -22 -36 -40 -25 -8 5 -6 13 6 26 22 25 34 24 34 -1z"/>
<path d="M2030 1770 c0 -5 5 -10 10 -10 13 0 13 -86 0 -111 -9 -17 -7 -19 16 -19 22 0 24 3 15 14 -7 8 -11 32 -9 53 l3 38 19 -52 c11 -29 25 -53 31 -53 6 0 20 24 31 53 18 50 19 51 22 20 2 -18 -2 -41 -8 -53 -10 -18 -8 -20 27 -20 29 0 34 3 25 12 -7 7 -12 35 -12 63 0 28 5 56 12 63 9 9 5 12 -19 12 -27 0 -32 -5 -50 -50 l-19 -51 -18 51 c-16 44 -21 50 -47 50 -16 0 -29 -4 -29 -10z"/>
<path d="M2240 1770 c0 -5 5 -10 10 -10 13 0 13 -86 0 -111 -9 -17 -7 -19 16 -19 22 0 24 3 15 14 -7 8 -11 32 -9 53 l3 38 19 -52 c11 -29 25 -53 31 -53 6 0 20 24 31 53 18 50 19 51 22 20 2 -18 -2 -41 -8 -53 -10 -18 -8 -20 27 -20 29 0 34 3 25 12 -7 7 -12 35 -12 63 0 28 5 56 12 63 9 9 5 12 -19 12 -27 0 -32 -5 -50 -50 l-19 -51 -18 51 c-16 44 -21 50 -47 50 -16 0 -29 -4 -29 -10z"/>
<path d="M2450 1770 c0 -5 5 -10 10 -10 13 0 13 -86 0 -111 -10 -17 -7 -19 26 -19 28 0 34 3 26 13 -8 9 -2 21 19 45 l29 32 0 -25 c0 -15 -5 -35 -10 -46 -10 -17 -7 -19 27 -19 29 0 34 3 25 12 -7 7 -12 35 -12 63 0 28 5 56 12 63 9 9 4 12 -26 12 -31 0 -37 -3 -32 -16 4 -9 -4 -28 -19 -46 l-25 -30 0 34 c0 19 5 39 12 46 9 9 4 12 -25 12 -20 0 -37 -4 -37 -10z"/>
<path d="M2630 1770 c-12 -7 -12 -12 -2 -22 15 -15 16 -141 2 -169 -10 -17 -7 -19 27 -19 29 0 34 3 25 12 -7 7 -12 22 -12 35 0 19 5 23 33 23 20 0 41 8 50 18 19 21 22 83 7 113 -12 22 -59 26 -78 7 -9 -9 -12 -9 -12 0 0 14 -19 15 -40 2z m103 -70 c0 -17 -7 -39 -17 -48 -16 -16 -18 -16 -32 2 -20 28 -18 83 4 95 24 14 45 -10 45 -49z"/>
<path d="M2806 1758 c-22 -31 -20 -91 2 -111 28 -25 87 -22 106 5 22 31 20 91 -2 111 -28 25 -87 22 -106 -5z m84 -32 c15 -47 -5 -91 -36 -79 -18 7 -36 66 -28 89 17 43 48 38 64 -10z"/>
<path d="M2960 1770 c0 -5 5 -10 10 -10 13 0 13 -86 -1 -111 -10 -19 -7 -20 53 -17 58 3 63 5 66 27 3 15 -3 30 -14 38 -10 8 -13 13 -5 13 8 0 11 11 9 33 -3 32 -4 32 -60 35 -36 2 -58 -1 -58 -8z m84 -34 c-3 -8 -12 -17 -20 -20 -10 -4 -14 3 -14 25 0 26 2 29 20 19 11 -6 17 -17 14 -24z m1 -53 c16 -16 16 -17 0 -30 -23 -16 -35 -8 -35 23 0 28 12 31 35 7z"/>
<path d="M3143 1774 c-18 -8 -16 -44 1 -44 7 0 16 10 20 22 5 22 6 22 23 4 10 -10 14 -20 8 -22 -5 -2 -25 -13 -43 -24 -27 -16 -33 -26 -30 -48 3 -26 5 -27 67 -27 43 0 66 4 69 13 2 6 -3 12 -12 12 -11 0 -16 14 -18 58 l-3 57 -35 2 c-19 1 -41 0 -47 -3z m57 -84 c0 -22 -22 -36 -40 -25 -8 5 -6 13 6 26 22 25 34 24 34 -1z"/>
<path d="M3260 1770 c0 -5 5 -10 10 -10 13 0 13 -86 0 -111 -10 -17 -7 -19 27 -19 29 0 34 3 25 12 -7 7 -12 22 -12 35 0 19 5 23 30 23 32 0 38 -16 20 -51 -10 -17 -7 -19 27 -19 29 0 34 3 25 12 -7 7 -12 35 -12 63 0 28 5 56 12 63 9 9 4 12 -25 12 -20 0 -37 -4 -37 -10 0 -5 5 -10 10 -10 6 0 10 -11 10 -25 0 -21 -5 -25 -30 -25 -25 0 -30 4 -30 23 0 13 5 28 12 35 9 9 4 12 -25 12 -20 0 -37 -4 -37 -10z"/>
<path d="M3440 1770 c0 -5 5 -10 10 -10 13 0 13 -86 0 -111 -10 -17 -7 -19 26 -19 28 0 34 3 26 13 -8 9 -2 21 19 45 l29 32 0 -25 c0 -15 -5 -35 -10 -46 -10 -17 -7 -19 27 -19 29 0 34 3 25 12 -7 7 -12 35 -12 63 0 28 5 56 12 63 9 9 4 12 -26 12 -31 0 -37 -3 -32 -16 4 -9 -4 -28 -19 -46 l-25 -30 0 34 c0 19 5 39 12 46 9 9 4 12 -25 12 -20 0 -37 -4 -37 -10z"/>
<path d="M3637 1762 c-22 -24 -22 -95 -1 -116 18 -19 75 -21 92 -4 7 7 12 20 12 31 0 17 -2 17 -22 3 -28 -20 -33 -20 -52 0 -30 29 -20 44 29 44 37 0 45 3 45 18 0 10 -5 23 -12 30 -18 18 -73 14 -91 -6z m67 -18 c4 -10 -3 -14 -24 -14 -32 0 -37 9 -19 27 14 14 35 7 43 -13z"/>
<path d="M3840 1760 c0 -23 15 -27 24 -5 3 8 12 15 21 15 11 0 15 -12 15 -51 0 -28 -5 -59 -10 -70 -10 -17 -7 -19 27 -19 29 0 34 3 25 12 -14 14 -16 128 -3 128 5 0 16 -7 25 -15 20 -20 26 -19 26 5 0 18 -7 20 -75 20 -68 0 -75 -2 -75 -20z"/>
<path d="M4017 1762 c-22 -24 -22 -95 -1 -116 18 -19 75 -21 92 -4 7 7 12 20 12 31 0 17 -2 17 -22 3 -28 -20 -33 -20 -52 0 -30 29 -20 44 29 44 37 0 45 3 45 18 0 10 -5 23 -12 30 -18 18 -73 14 -91 -6z m67 -18 c4 -10 -3 -14 -24 -14 -32 0 -37 9 -19 27 14 14 35 7 43 -13z"/>
<path d="M4150 1770 c-12 -7 -12 -12 -2 -22 15 -15 16 -141 2 -169 -10 -17 -7 -19 27 -19 29 0 34 3 25 12 -7 7 -12 22 -12 35 0 19 5 23 33 23 20 0 41 8 50 18 19 21 22 83 7 113 -12 22 -59 26 -78 7 -9 -9 -12 -9 -12 0 0 14 -19 15 -40 2z m103 -70 c0 -17 -7 -39 -17 -48 -16 -16 -18 -16 -32 2 -20 28 -18 83 4 95 24 14 45 -10 45 -49z"/>
<path d="M4320 1770 c0 -5 5 -10 10 -10 13 0 13 -86 0 -111 -9 -17 -7 -19 16 -19 22 0 24 3 15 14 -7 8 -11 32 -9 53 l3 38 19 -52 c11 -29 25 -53 31 -53 6 0 20 24 31 53 18 50 19 51 22 20 2 -18 -2 -41 -8 -53 -10 -18 -8 -20 27 -20 29 0 34 3 25 12 -7 7 -12 35 -12 63 0 28 5 56 12 63 9 9 5 12 -19 12 -27 0 -32 -5 -50 -50 l-19 -51 -18 51 c-16 44 -21 50 -47 50 -16 0 -29 -4 -29 -10z"/>
<path d="M4546 1758 c-22 -31 -20 -91 2 -111 28 -25 87 -22 106 5 22 31 20 91 -2 111 -28 25 -87 22 -106 -5z m84 -32 c15 -47 -5 -91 -36 -79 -18 7 -36 66 -28 89 17 43 48 38 64 -10z"/>
<path d="M4690 1770 c-12 -7 -12 -12 -2 -22 15 -15 16 -141 2 -169 -10 -17 -7 -19 27 -19 29 0 34 3 25 12 -7 7 -12 22 -12 35 0 19 5 23 33 23 20 0 41 8 50 18 19 21 22 83 7 113 -12 22 -59 26 -78 7 -9 -9 -12 -9 -12 0 0 14 -19 15 -40 2z m103 -70 c0 -17 -7 -39 -17 -48 -16 -16 -18 -16 -32 2 -20 28 -18 83 4 95 24 14 45 -10 45 -49z"/>
<path d="M4877 1762 c-22 -24 -22 -95 -1 -116 18 -19 75 -21 92 -4 7 7 12 20 12 31 0 17 -2 17 -22 3 -28 -20 -33 -20 -52 0 -30 29 -20 44 29 44 37 0 45 3 45 18 0 10 -5 23 -12 30 -18 18 -73 14 -91 -6z m67 -18 c4 -10 -3 -14 -24 -14 -32 0 -37 9 -19 27 14 14 35 7 43 -13z"/>
<path d="M5010 1770 c0 -5 5 -10 10 -10 13 0 13 -86 0 -111 -10 -17 -7 -19 27 -19 29 0 34 3 25 12 -7 7 -12 38 -12 70 0 61 13 74 44 43 20 -20 26 -19 26 5 0 18 -7 20 -60 20 -33 0 -60 -4 -60 -10z"/>
<path d="M5140 1771 c0 -5 4 -11 9 -13 5 -1 22 -30 39 -63 34 -70 30 -105 -13 -105 -16 0 -25 -6 -25 -15 0 -18 43 -20 58 -2 6 6 25 48 42 92 17 44 39 88 47 98 15 16 14 17 -17 17 -25 0 -30 -3 -23 -12 7 -9 5 -25 -6 -52 l-17 -39 -17 44 c-13 33 -14 45 -4 51 7 4 -6 8 -30 8 -24 0 -43 -4 -43 -9z"/>
<path d="M5330 1770 c0 -5 5 -10 10 -10 11 0 13 -42 4 -77 -4 -14 -14 -23 -25 -23 -11 0 -19 -7 -19 -16 0 -11 8 -14 28 -12 26 3 27 5 30 71 3 64 4 67 27 67 23 0 25 -4 25 -51 0 -28 -5 -59 -10 -70 -10 -18 -7 -19 47 -19 56 0 59 2 83 37 18 26 26 32 28 20 2 -9 -2 -25 -8 -36 -10 -19 -8 -21 27 -21 29 0 34 3 25 12 -16 16 -15 111 1 127 10 10 -1 11 -53 9 -59 -3 -65 -5 -68 -26 -2 -13 3 -31 11 -40 14 -15 13 -20 -8 -46 -12 -16 -28 -25 -34 -22 -15 10 -14 109 1 124 9 9 -3 12 -55 12 -38 0 -67 -4 -67 -10z m230 -36 c0 -28 -12 -31 -35 -7 -16 16 -16 17 0 30 23 16 35 8 35 -23z"/>
<path d="M5620 1760 c0 -23 15 -27 24 -5 3 8 12 15 21 15 11 0 15 -12 15 -51 0 -28 -5 -59 -10 -70 -10 -17 -7 -19 27 -19 29 0 34 3 25 12 -14 14 -16 128 -3 128 5 0 16 -7 25 -15 20 -20 26 -19 26 5 0 18 -7 20 -75 20 -68 0 -75 -2 -75 -20z"/>
<path d="M5786 1758 c-22 -31 -20 -91 2 -111 28 -25 87 -22 106 5 22 31 20 91 -2 111 -28 25 -87 22 -106 -5z m84 -32 c15 -47 -5 -91 -36 -79 -18 7 -36 66 -28 89 17 43 48 38 64 -10z"/>
<path d="M5940 1770 c-12 -7 -12 -12 -2 -22 15 -15 16 -141 2 -169 -10 -17 -7 -19 27 -19 29 0 34 3 25 12 -7 7 -12 22 -12 35 0 19 5 23 33 23 20 0 41 8 50 18 19 21 22 83 7 113 -12 22 -59 26 -78 7 -9 -9 -12 -9 -12 0 0 14 -19 15 -40 2z m103 -70 c0 -17 -7 -39 -17 -48 -16 -16 -18 -16 -32 2 -20 28 -18 83 4 95 24 14 45 -10 45 -49z"/>
<path d="M6133 1774 c-18 -8 -16 -44 1 -44 7 0 16 10 20 22 5 22 6 22 23 4 10 -10 14 -20 8 -22 -5 -2 -25 -13 -43 -24 -27 -16 -33 -26 -30 -48 3 -26 5 -27 67 -27 43 0 66 4 69 13 2 6 -3 12 -12 12 -11 0 -16 14 -18 58 l-3 57 -35 2 c-19 1 -41 0 -47 -3z m57 -84 c0 -22 -22 -36 -40 -25 -8 5 -6 13 6 26 22 25 34 24 34 -1z"/>
<path d="M683 1654 c-8 -21 13 -42 28 -27 13 13 5 43 -11 43 -6 0 -13 -7 -17 -16z"/>
<path d="M13 1452 c24 -26 24 -158 0 -184 -15 -17 -13 -18 69 -18 70 0 88 3 101 18 23 26 21 68 -3 85 -18 12 -18 15 -5 20 20 8 20 61 -1 81 -11 12 -36 16 -96 16 -78 0 -80 -1 -65 -18z m105 -3 c17 -6 33 -16 36 -24 8 -23 -18 -47 -54 -48 -33 -2 -35 0 -38 32 -3 27 7 48 24 51 1 0 15 -5 32 -11z m29 -111 c21 -17 11 -51 -20 -66 -43 -21 -67 -8 -67 37 0 21 3 41 7 45 10 10 62 -1 80 -16z"/>
<path d="M2132 1448 c5 -39 98 -37 98 2 0 26 -17 25 -41 -2 l-19 -23 -6 23 c-3 12 -13 22 -21 22 -9 0 -13 -8 -11 -22z"/>
<path d="M220 1395 c0 -3 11 -18 25 -33 14 -15 25 -32 25 -38 0 -6 -11 -21 -25 -34 -32 -30 -32 -40 0 -40 16 0 23 5 19 13 -2 7 2 21 9 32 14 18 15 18 26 -3 7 -13 9 -27 6 -32 -4 -6 9 -10 31 -10 l36 0 -24 33 c-41 54 -41 55 -6 87 l32 30 -38 0 c-32 0 -36 -2 -27 -14 8 -10 9 -16 1 -21 -13 -8 -30 3 -30 21 0 9 -11 14 -30 14 -16 0 -30 -2 -30 -5z"/>
<path d="M406 1378 c-22 -31 -20 -91 2 -111 28 -25 87 -22 106 5 22 31 20 91 -2 111 -28 25 -87 22 -106 -5z m84 -32 c15 -47 -5 -91 -36 -79 -18 7 -36 66 -28 89 17 43 48 38 64 -10z"/>
<path d="M580 1392 c0 -4 4 -12 10 -18 13 -13 -5 -85 -24 -100 -9 -6 -16 -23 -16 -38 l0 -27 26 20 c34 27 74 27 109 -1 l28 -22 -7 35 c-16 74 -18 130 -6 144 11 13 3 15 -54 15 -36 0 -66 -4 -66 -8z m78 -64 l-3 -63 -34 -3 c-29 -3 -33 -1 -26 15 5 10 10 39 13 66 3 42 6 47 28 47 24 0 25 -2 22 -62z"/>
<path d="M810 1390 c0 -5 5 -10 10 -10 13 0 13 -86 0 -111 -10 -17 -7 -19 27 -19 29 0 34 3 25 12 -7 7 -12 22 -12 35 0 19 5 23 30 23 32 0 38 -16 20 -51 -10 -17 -7 -19 27 -19 29 0 34 3 25 12 -7 7 -12 35 -12 63 0 28 5 56 12 63 9 9 4 12 -25 12 -20 0 -37 -4 -37 -10 0 -5 5 -10 10 -10 6 0 10 -11 10 -25 0 -21 -5 -25 -30 -25 -25 0 -30 4 -30 23 0 13 5 28 12 35 9 9 4 12 -25 12 -20 0 -37 -4 -37 -10z"/>
<path d="M1013 1394 c-18 -8 -16 -44 1 -44 7 0 16 10 20 22 5 22 6 22 23 4 10 -10 14 -20 8 -22 -5 -2 -25 -13 -43 -24 -27 -16 -33 -26 -30 -48 3 -26 5 -27 67 -27 43 0 66 4 69 13 2 6 -3 12 -12 12 -11 0 -16 14 -18 58 l-3 57 -35 2 c-19 1 -41 0 -47 -3z m57 -84 c0 -22 -22 -36 -40 -25 -8 5 -6 13 6 26 22 25 34 24 34 -1z"/>
<path d="M1220 1390 c0 -5 5 -10 10 -10 13 0 13 -86 0 -111 -10 -17 -7 -19 27 -19 29 0 34 3 25 12 -7 7 -12 38 -12 70 0 58 0 58 30 58 29 0 30 -1 30 -51 0 -28 -5 -59 -10 -70 -10 -17 -7 -19 27 -19 29 0 34 3 25 12 -16 16 -16 110 0 126 9 9 -6 12 -70 12 -48 0 -82 -4 -82 -10z"/>
<path d="M1417 1382 c-22 -24 -22 -95 -1 -116 18 -19 75 -21 92 -4 7 7 12 20 12 31 0 17 -2 17 -22 3 -28 -20 -33 -20 -52 0 -30 29 -20 44 29 44 37 0 45 3 45 18 0 10 -5 23 -12 30 -18 18 -73 14 -91 -6z m67 -18 c4 -10 -3 -14 -24 -14 -32 0 -37 9 -19 27 14 14 35 7 43 -13z"/>
<path d="M1550 1390 c-12 -7 -12 -12 -2 -22 15 -15 16 -141 2 -169 -10 -17 -7 -19 27 -19 29 0 34 3 25 12 -7 7 -12 22 -12 35 0 19 5 23 33 23 20 0 41 8 50 18 19 21 22 83 7 113 -12 22 -59 26 -78 7 -9 -9 -12 -9 -12 0 0 14 -19 15 -40 2z m103 -70 c0 -17 -7 -39 -17 -48 -16 -16 -18 -16 -32 2 -20 28 -18 83 4 95 24 14 45 -10 45 -49z"/>
<path d="M1720 1390 c0 -5 5 -10 10 -10 13 0 13 -86 -1 -111 -10 -19 -7 -20 53 -17 58 3 63 5 66 27 3 15 -3 30 -14 38 -10 8 -13 13 -5 13 8 0 11 11 9 33 -3 32 -4 32 -60 35 -36 2 -58 -1 -58 -8z m84 -34 c-3 -8 -12 -17 -20 -20 -10 -4 -14 3 -14 25 0 26 2 29 20 19 11 -6 17 -17 14 -24z m1 -53 c16 -16 16 -17 0 -30 -23 -16 -35 -8 -35 23 0 28 12 31 35 7z"/>
<path d="M1860 1390 c0 -5 5 -10 10 -10 13 0 13 -86 0 -111 -10 -18 -7 -19 39 -19 67 0 81 7 81 40 0 29 -15 40 -56 40 -18 0 -24 5 -24 23 0 13 5 28 12 35 9 9 4 12 -25 12 -20 0 -37 -4 -37 -10z m85 -87 c16 -16 16 -17 0 -30 -23 -16 -35 -8 -35 23 0 28 12 31 35 7z"/>
<path d="M2000 1390 c0 -5 5 -10 10 -10 13 0 13 -86 0 -111 -10 -17 -7 -19 27 -19 29 0 34 3 25 12 -7 7 -12 35 -12 63 0 28 5 56 12 63 9 9 4 12 -25 12 -20 0 -37 -4 -37 -10z"/>
<path d="M2100 1390 c0 -5 5 -10 10 -10 13 0 13 -86 0 -111 -10 -17 -7 -19 26 -19 28 0 34 3 26 13 -8 9 -2 21 19 45 l29 32 0 -25 c0 -15 -5 -35 -10 -46 -10 -17 -7 -19 27 -19 29 0 34 3 25 12 -16 16 -16 110 0 126 9 9 4 12 -26 12 -31 0 -37 -3 -32 -16 4 -9 -4 -28 -19 -46 l-25 -30 0 34 c0 19 5 39 12 46 9 9 4 12 -25 12 -20 0 -37 -4 -37 -10z"/>
<path d="M2350 1391 c0 -5 4 -11 9 -13 5 -1 22 -30 39 -63 34 -70 30 -105 -13 -105 -16 0 -25 -6 -25 -15 0 -18 43 -20 58 -2 6 6 24 48 42 92 39 99 39 98 56 84 17 -14 20 -140 4 -170 -10 -17 -7 -19 27 -19 29 0 34 3 25 12 -7 7 -12 22 -12 35 0 19 5 23 33 23 20 0 41 8 50 18 19 21 22 83 7 113 -12 22 -59 26 -78 7 -8 -8 -12 -8 -12 -1 0 6 -22 11 -51 12 -39 0 -49 -2 -41 -12 6 -8 4 -25 -7 -51 l-17 -39 -17 44 c-13 33 -14 45 -4 51 7 4 -6 8 -30 8 -24 0 -43 -4 -43 -9z m273 -71 c0 -17 -7 -39 -17 -48 -16 -16 -18 -16 -32 2 -20 28 -18 83 4 95 24 14 45 -10 45 -49z"/>
<path d="M2706 1378 c-22 -31 -20 -91 2 -111 28 -25 87 -22 106 5 22 31 20 91 -2 111 -28 25 -87 22 -106 -5z m84 -32 c15 -47 -5 -91 -36 -79 -18 7 -36 66 -28 89 17 43 48 38 64 -10z"/>
<path d="M2860 1390 c0 -5 5 -10 10 -10 13 0 13 -86 -1 -111 -10 -19 -7 -20 53 -17 58 3 63 5 66 27 3 15 -3 30 -14 38 -10 8 -13 13 -5 13 8 0 11 11 9 33 -3 32 -4 32 -60 35 -36 2 -58 -1 -58 -8z m84 -34 c-3 -8 -12 -17 -20 -20 -10 -4 -14 3 -14 25 0 26 2 29 20 19 11 -6 17 -17 14 -24z m1 -53 c16 -16 16 -17 0 -30 -23 -16 -35 -8 -35 23 0 28 12 31 35 7z"/>
<path d="M3027 1382 c-22 -24 -22 -95 -1 -116 18 -19 75 -21 92 -4 7 7 12 20 12 31 0 17 -2 17 -22 3 -28 -20 -33 -20 -52 0 -30 29 -20 44 29 44 37 0 45 3 45 18 0 10 -5 23 -12 30 -18 18 -73 14 -91 -6z m67 -18 c4 -10 -3 -14 -24 -14 -32 0 -37 9 -19 27 14 14 35 7 43 -13z"/>
<path d="M3160 1390 c0 -5 5 -10 10 -10 13 0 13 -86 0 -111 -10 -17 -7 -19 27 -19 29 0 34 3 25 12 -7 7 -12 22 -12 35 0 19 5 23 30 23 32 0 38 -16 20 -51 -10 -17 -7 -19 27 -19 29 0 34 3 25 12 -7 7 -12 35 -12 63 0 28 5 56 12 63 9 9 4 12 -25 12 -20 0 -37 -4 -37 -10 0 -5 5 -10 10 -10 6 0 10 -11 10 -25 0 -21 -5 -25 -30 -25 -25 0 -30 4 -30 23 0 13 5 28 12 35 9 9 4 12 -25 12 -20 0 -37 -4 -37 -10z"/>
<path d="M3340 1390 c0 -5 5 -10 10 -10 13 0 13 -86 0 -111 -10 -18 -7 -19 39 -19 67 0 81 7 81 40 0 29 -15 40 -56 40 -18 0 -24 5 -24 23 0 13 5 28 12 35 9 9 4 12 -25 12 -20 0 -37 -4 -37 -10z m85 -87 c16 -16 16 -17 0 -30 -23 -16 -35 -8 -35 23 0 28 12 31 35 7z"/>
<path d="M3580 1390 c0 -5 5 -10 10 -10 13 0 13 -86 0 -111 -10 -17 -7 -19 27 -19 29 0 34 3 25 12 -7 7 -12 38 -12 70 0 58 0 58 30 58 29 0 30 -1 30 -51 0 -28 -5 -59 -10 -70 -10 -17 -7 -19 27 -19 29 0 34 3 25 12 -7 7 -12 35 -12 63 0 28 5 56 12 63 9 9 -6 12 -70 12 -48 0 -82 -4 -82 -10z"/>
<path d="M3760 1390 c-12 -7 -12 -12 -2 -22 15 -15 16 -141 2 -169 -10 -17 -7 -19 27 -19 29 0 34 3 25 12 -7 7 -12 22 -12 35 0 19 5 23 33 23 20 0 41 8 50 18 19 21 22 83 7 113 -12 22 -59 26 -78 7 -9 -9 -12 -9 -12 0 0 14 -19 15 -40 2z m103 -70 c0 -17 -7 -39 -17 -48 -16 -16 -18 -16 -32 2 -20 28 -18 83 4 95 24 14 45 -10 45 -49z"/>
<path d="M3936 1378 c-22 -31 -20 -91 2 -111 28 -25 87 -22 106 5 22 31 20 91 -2 111 -28 25 -87 22 -106 -5z m84 -32 c15 -47 -5 -91 -36 -79 -18 7 -36 66 -28 89 17 43 48 38 64 -10z"/>
<path d="M4090 1390 c0 -5 5 -10 10 -10 13 0 13 -86 0 -111 -10 -17 -7 -19 27 -19 29 0 34 3 25 12 -7 7 -12 38 -12 70 0 61 13 74 44 43 20 -20 26 -19 26 5 0 18 -7 20 -60 20 -33 0 -60 -4 -60 -10z"/>
<path d="M4230 1390 c-12 -7 -12 -12 -2 -22 15 -15 16 -141 2 -169 -10 -17 -7 -19 27 -19 29 0 34 3 25 12 -7 7 -12 22 -12 35 0 19 5 23 33 23 20 0 41 8 50 18 19 21 22 83 7 113 -12 22 -59 26 -78 7 -9 -9 -12 -9 -12 0 0 14 -19 15 -40 2z m103 -70 c0 -17 -7 -39 -17 -48 -16 -16 -18 -16 -32 2 -20 28 -18 83 4 95 24 14 45 -10 45 -49z"/>
<path d="M4413 1394 c-18 -8 -16 -44 1 -44 7 0 16 10 20 22 5 22 6 22 23 4 10 -10 14 -20 8 -22 -5 -2 -25 -13 -43 -24 -27 -16 -33 -26 -30 -48 3 -26 5 -27 67 -27 43 0 66 4 69 13 2 6 -3 12 -12 12 -11 0 -16 14 -18 58 l-3 57 -35 2 c-19 1 -41 0 -47 -3z m57 -84 c0 -22 -22 -36 -40 -25 -8 5 -6 13 6 26 22 25 34 24 34 -1z"/>
<path d="M4540 1390 c0 -5 5 -10 10 -10 13 0 13 -86 0 -111 -9 -17 -7 -19 16 -19 22 0 24 3 15 14 -7 8 -11 32 -9 53 l3 38 19 -52 c11 -29 25 -53 31 -53 6 0 20 24 31 53 18 50 19 51 22 20 2 -18 -2 -41 -8 -53 -10 -18 -8 -20 27 -20 29 0 34 3 25 12 -7 7 -12 35 -12 63 0 28 5 56 12 63 9 9 5 12 -19 12 -27 0 -32 -5 -50 -50 l-19 -51 -18 51 c-16 44 -21 50 -47 50 -16 0 -29 -4 -29 -10z"/>
<path d="M4750 1390 c0 -5 5 -10 10 -10 13 0 13 -86 0 -111 -9 -17 -7 -19 16 -19 22 0 24 3 15 14 -7 8 -11 32 -9 53 l3 38 19 -52 c11 -29 25 -53 31 -53 6 0 20 24 31 53 18 50 19 51 22 20 2 -18 -2 -41 -8 -53 -10 -18 -8 -20 27 -20 29 0 34 3 25 12 -7 7 -12 35 -12 63 0 28 5 56 12 63 9 9 5 12 -19 12 -27 0 -32 -5 -50 -50 l-19 -51 -18 51 c-16 44 -21 50 -47 50 -16 0 -29 -4 -29 -10z"/>
<path d="M4960 1390 c0 -5 5 -10 10 -10 13 0 13 -86 0 -111 -10 -17 -7 -19 26 -19 28 0 34 3 26 13 -8 9 -2 21 19 45 l29 32 0 -25 c0 -15 -5 -35 -10 -46 -10 -17 -7 -19 27 -19 29 0 34 3 25 12 -7 7 -12 35 -12 63 0 28 5 56 12 63 9 9 4 12 -26 12 -31 0 -37 -3 -32 -16 4 -9 -4 -28 -19 -46 l-25 -30 0 34 c0 19 5 39 12 46 9 9 4 12 -25 12 -20 0 -37 -4 -37 -10z"/>
<path d="M5140 1390 c-12 -7 -12 -12 -2 -22 15 -15 16 -141 2 -169 -10 -17 -7 -19 27 -19 29 0 34 3 25 12 -7 7 -12 22 -12 35 0 19 5 23 33 23 20 0 41 8 50 18 19 21 22 83 7 113 -12 22 -59 26 -78 7 -9 -9 -12 -9 -12 0 0 14 -19 15 -40 2z m103 -70 c0 -17 -7 -39 -17 -48 -16 -16 -18 -16 -32 2 -20 28 -18 83 4 95 24 14 45 -10 45 -49z"/>
<path d="M5326 1378 c-22 -31 -20 -91 2 -111 28 -25 87 -22 106 5 22 31 20 91 -2 111 -28 25 -87 22 -106 -5z m84 -32 c15 -47 -5 -91 -36 -79 -18 7 -36 66 -28 89 17 43 48 38 64 -10z"/>
<path d="M5470 1390 c0 -5 5 -10 10 -10 13 0 13 -86 -1 -111 -10 -19 -7 -20 53 -17 58 3 63 5 66 27 3 15 -3 30 -14 38 -10 8 -13 13 -5 13 8 0 11 11 9 33 -3 32 -4 32 -60 35 -36 2 -58 -1 -58 -8z m84 -34 c-3 -8 -12 -17 -20 -20 -10 -4 -14 3 -14 25 0 26 2 29 20 19 11 -6 17 -17 14 -24z m1 -53 c16 -16 16 -17 0 -30 -23 -16 -35 -8 -35 23 0 28 12 31 35 7z"/>
<path d="M5653 1394 c-18 -8 -16 -44 1 -44 7 0 16 10 20 22 5 22 6 22 23 4 10 -10 14 -20 8 -22 -5 -2 -25 -13 -43 -24 -27 -16 -33 -26 -30 -48 3 -26 5 -27 67 -27 43 0 66 4 69 13 2 6 -3 12 -12 12 -11 0 -16 14 -18 58 l-3 57 -35 2 c-19 1 -41 0 -47 -3z m57 -84 c0 -22 -22 -36 -40 -25 -8 5 -6 13 6 26 22 25 34 24 34 -1z"/>
<path d="M5780 1390 c0 -5 5 -10 10 -10 13 0 13 -86 0 -111 -10 -17 -7 -19 27 -19 29 0 34 3 25 12 -7 7 -12 22 -12 35 0 19 5 23 30 23 32 0 38 -16 20 -51 -10 -17 -7 -19 27 -19 29 0 34 3 25 12 -7 7 -12 35 -12 63 0 28 5 56 12 63 9 9 4 12 -25 12 -20 0 -37 -4 -37 -10 0 -5 5 -10 10 -10 6 0 10 -11 10 -25 0 -21 -5 -25 -30 -25 -25 0 -30 4 -30 23 0 13 5 28 12 35 9 9 4 12 -25 12 -20 0 -37 -4 -37 -10z"/>
<path d="M5950 1390 c0 -5 5 -10 10 -10 13 0 13 -86 0 -111 -10 -17 -7 -19 26 -19 28 0 34 3 26 13 -8 9 -2 21 19 45 l29 32 0 -25 c0 -15 -5 -35 -10 -46 -10 -17 -7 -19 27 -19 29 0 34 3 25 12 -7 7 -12 35 -12 63 0 28 5 56 12 63 9 9 4 12 -26 12 -31 0 -37 -3 -32 -16 4 -9 -4 -28 -19 -46 l-25 -30 0 34 c0 19 5 39 12 46 9 9 4 12 -25 12 -20 0 -37 -4 -37 -10z"/>
<path d="M6147 1393 c-12 -12 -7 -50 8 -63 12 -10 11 -17 -11 -46 l-26 -34 23 0 c16 0 32 12 49 37 18 26 26 32 28 20 2 -9 -2 -25 -8 -36 -10 -19 -8 -21 27 -21 29 0 34 3 25 12 -7 7 -12 35 -12 63 0 28 5 56 12 63 9 9 -1 12 -48 12 -34 0 -64 -3 -67 -7z m73 -39 c0 -28 -12 -31 -35 -7 -16 16 -16 17 0 30 23 16 35 8 35 -23z"/>
<path d="M6386 1378 c-22 -31 -20 -91 2 -111 28 -25 87 -22 106 5 22 31 20 91 -2 111 -28 25 -87 22 -106 -5z m84 -32 c15 -47 -5 -91 -36 -79 -18 7 -36 66 -28 89 17 43 48 38 64 -10z"/>
<path d="M6557 1382 c-23 -26 -22 -94 1 -115 29 -27 80 -22 94 8 14 31 4 43 -17 21 -20 -20 -29 -20 -49 0 -23 22 -20 71 4 84 15 8 21 6 30 -10 6 -11 17 -20 25 -20 16 0 18 9 9 34 -9 23 -76 21 -97 -2z"/>
<path d="M6670 1391 c0 -5 4 -11 9 -13 5 -1 22 -30 39 -63 34 -70 30 -105 -13 -105 -16 0 -25 -6 -25 -15 0 -18 43 -20 58 -2 6 6 25 48 42 92 36 92 46 106 66 98 16 -6 20 -84 4 -113 -9 -17 -3 -18 90 -22 85 -3 101 -6 114 -23 15 -19 15 -19 16 7 0 15 -4 30 -10 33 -14 9 -12 109 2 123 9 9 4 12 -25 12 -20 0 -37 -4 -37 -10 0 -5 5 -10 10 -10 7 0 10 -22 8 -57 -3 -50 -6 -58 -23 -58 -17 0 -20 8 -23 53 -2 31 2 60 9 68 9 12 5 14 -25 14 -20 0 -36 -4 -36 -10 0 -5 5 -10 10 -10 12 0 13 -90 1 -109 -5 -8 -16 -11 -25 -8 -20 8 -23 106 -4 125 9 9 -3 12 -56 12 -53 0 -66 -3 -59 -12 7 -9 5 -25 -6 -52 l-17 -39 -17 44 c-13 33 -14 45 -4 51 7 4 -6 8 -30 8 -24 0 -43 -4 -43 -9z"/>
<path d="M7117 1382 c-22 -24 -22 -95 -1 -116 18 -19 75 -21 92 -4 7 7 12 20 12 31 0 17 -2 17 -22 3 -28 -20 -33 -20 -52 0 -30 29 -20 44 29 44 37 0 45 3 45 18 0 10 -5 23 -12 30 -18 18 -73 14 -91 -6z m67 -18 c4 -10 -3 -14 -24 -14 -32 0 -37 9 -19 27 14 14 35 7 43 -13z"/>
<path d="M7267 1382 c-23 -26 -22 -94 1 -115 29 -27 80 -22 94 8 14 31 4 43 -17 21 -20 -20 -29 -20 -49 0 -23 22 -20 71 4 84 15 8 21 6 30 -10 6 -11 17 -20 25 -20 16 0 18 9 9 34 -9 23 -76 21 -97 -2z"/>
<path d="M7390 1380 c0 -23 15 -27 24 -5 3 8 12 15 21 15 11 0 15 -12 15 -51 0 -28 -5 -59 -10 -70 -10 -17 -7 -19 27 -19 29 0 34 3 25 12 -14 14 -16 128 -3 128 5 0 16 -7 25 -15 20 -20 26 -19 26 5 0 18 -7 20 -75 20 -68 0 -75 -2 -75 -20z"/>
<path d="M7550 1390 c0 -5 5 -10 10 -10 13 0 13 -86 -1 -111 -10 -19 -7 -20 53 -17 58 3 63 5 66 27 3 15 -3 30 -14 38 -10 8 -13 13 -5 13 8 0 11 11 9 33 -3 32 -4 32 -60 35 -36 2 -58 -1 -58 -8z m84 -34 c-3 -8 -12 -17 -20 -20 -10 -4 -14 3 -14 25 0 26 2 29 20 19 11 -6 17 -17 14 -24z m1 -53 c16 -16 16 -17 0 -30 -23 -16 -35 -8 -35 23 0 28 12 31 35 7z"/>
<path d="M7720 1390 c0 -5 5 -10 10 -10 11 0 13 -42 4 -77 -4 -14 -14 -23 -25 -23 -11 0 -19 -7 -19 -16 0 -11 8 -14 28 -12 26 3 27 5 30 71 3 64 4 67 27 67 23 0 25 -4 25 -51 0 -28 -5 -59 -10 -70 -10 -17 -7 -19 27 -19 29 0 34 3 25 12 -7 7 -12 35 -12 63 0 28 5 56 12 63 9 9 -3 12 -55 12 -38 0 -67 -4 -67 -10z"/>
<path d="M7887 1393 c-12 -12 -7 -50 8 -63 12 -10 11 -17 -11 -46 l-26 -34 23 0 c16 0 32 12 49 37 18 26 26 32 28 20 2 -9 -2 -25 -8 -36 -10 -19 -8 -21 27 -21 29 0 34 3 25 12 -7 7 -12 35 -12 63 0 28 5 56 12 63 9 9 -1 12 -48 12 -34 0 -64 -3 -67 -7z m73 -39 c0 -28 -12 -31 -35 -7 -16 16 -16 17 0 30 23 16 35 8 35 -23z"/>
<path d="M8037 1382 c-22 -24 -22 -95 -1 -116 18 -19 75 -21 92 -4 7 7 12 20 12 31 0 17 -2 17 -22 3 -28 -20 -33 -20 -52 0 -30 29 -20 44 29 44 37 0 45 3 45 18 0 10 -5 23 -12 30 -18 18 -73 14 -91 -6z m67 -18 c4 -10 -3 -14 -24 -14 -32 0 -37 9 -19 27 14 14 35 7 43 -13z"/>
<path d="M8160 1380 c0 -23 15 -27 24 -5 3 8 12 15 21 15 11 0 15 -12 15 -51 0 -28 -5 -59 -10 -70 -10 -17 -7 -19 27 -19 29 0 34 3 25 12 -14 14 -16 128 -3 128 5 0 16 -7 25 -15 20 -20 26 -19 26 5 0 18 -7 20 -75 20 -68 0 -75 -2 -75 -20z"/>
<path d="M8337 1382 c-23 -26 -22 -94 1 -115 29 -27 80 -22 94 8 14 31 4 43 -17 21 -20 -20 -29 -20 -49 0 -23 22 -20 71 4 84 15 8 21 6 30 -10 6 -11 17 -20 25 -20 16 0 18 9 9 34 -9 23 -76 21 -97 -2z"/>
<path d="M8477 1393 c-12 -12 -7 -50 8 -63 12 -10 11 -17 -11 -46 l-26 -34 23 0 c16 0 32 12 49 37 18 26 26 32 28 20 2 -9 -2 -25 -8 -36 -10 -19 -8 -21 27 -21 29 0 34 3 25 12 -7 7 -12 35 -12 63 0 28 5 56 12 63 9 9 -1 12 -48 12 -34 0 -64 -3 -67 -7z m73 -39 c0 -28 -12 -31 -35 -7 -16 16 -16 17 0 30 23 16 35 8 35 -23z"/>
<path d="M8700 1390 c0 -5 5 -10 10 -10 13 0 13 -86 0 -111 -10 -17 -7 -19 27 -19 29 0 34 3 25 12 -7 7 -12 26 -12 43 l0 30 23 -40 c16 -29 30 -41 50 -43 l28 -3 -31 43 c-33 47 -32 78 1 78 11 0 19 7 19 16 0 24 -43 13 -55 -13 -5 -13 -15 -25 -22 -27 -17 -7 -17 26 -1 42 9 9 4 12 -25 12 -20 0 -37 -4 -37 -10z"/>
<path d="M8860 1390 c-12 -7 -12 -12 -2 -22 15 -15 16 -141 2 -169 -10 -17 -7 -19 27 -19 29 0 34 3 25 12 -7 7 -12 22 -12 35 0 19 5 23 33 23 20 0 41 8 50 18 19 21 22 83 7 113 -12 22 -59 26 -78 7 -9 -9 -12 -9 -12 0 0 14 -19 15 -40 2z m103 -70 c0 -17 -7 -39 -17 -48 -16 -16 -18 -16 -32 2 -20 28 -18 83 4 95 24 14 45 -10 45 -49z"/>
<path d="M9053 1394 c-18 -8 -16 -44 1 -44 7 0 16 10 20 22 5 22 6 22 23 4 10 -10 14 -20 8 -22 -5 -2 -25 -13 -43 -24 -27 -16 -33 -26 -30 -48 3 -26 5 -27 67 -27 43 0 66 4 69 13 2 6 -3 12 -12 12 -11 0 -16 14 -18 58 l-3 57 -35 2 c-19 1 -41 0 -47 -3z m57 -84 c0 -22 -22 -36 -40 -25 -8 5 -6 13 6 26 22 25 34 24 34 -1z"/>
<path d="M9170 1380 c0 -23 15 -27 24 -5 3 8 12 15 21 15 11 0 15 -12 15 -51 0 -28 -5 -59 -10 -70 -10 -17 -7 -19 27 -19 29 0 34 3 25 12 -14 14 -16 128 -3 128 5 0 17 -8 27 -17 13 -13 19 -14 22 -5 2 6 8 12 13 12 12 0 11 -87 -1 -111 -10 -17 -7 -19 27 -19 29 0 34 3 25 12 -7 7 -12 26 -12 42 l0 31 23 -40 c16 -29 30 -41 50 -43 l28 -3 -31 43 c-33 47 -32 78 1 78 11 0 19 7 19 16 0 24 -43 13 -55 -13 -5 -13 -15 -25 -22 -27 -17 -7 -17 26 -1 42 9 9 -13 12 -100 12 -105 0 -112 -1 -112 -20z"/>
<path d="M9506 1378 c-22 -31 -20 -91 2 -111 28 -25 87 -22 106 5 22 31 20 91 -2 111 -28 25 -87 22 -106 -5z m84 -32 c15 -47 -5 -91 -36 -79 -18 7 -36 66 -28 89 17 43 48 38 64 -10z"/>
<path d="M9650 1390 c0 -5 5 -10 10 -10 13 0 13 -86 -1 -111 -10 -19 -7 -20 53 -17 58 3 63 5 66 27 3 15 -3 30 -14 38 -10 8 -13 13 -5 13 8 0 11 11 9 33 -3 32 -4 32 -60 35 -36 2 -58 -1 -58 -8z m84 -34 c-3 -8 -12 -17 -20 -20 -10 -4 -14 3 -14 25 0 26 2 29 20 19 11 -6 17 -17 14 -24z m1 -53 c16 -16 16 -17 0 -30 -23 -16 -35 -8 -35 23 0 28 12 31 35 7z"/>
<path d="M9810 1390 c-12 -7 -12 -12 -2 -22 15 -15 16 -141 2 -169 -10 -17 -7 -19 27 -19 29 0 34 3 25 12 -7 7 -12 22 -12 35 0 19 5 23 33 23 20 0 41 8 50 18 19 21 22 83 7 113 -12 22 -59 26 -78 7 -9 -9 -12 -9 -12 0 0 14 -19 15 -40 2z m103 -70 c0 -17 -7 -39 -17 -48 -16 -16 -18 -16 -32 2 -20 28 -18 83 4 95 24 14 45 -10 45 -49z"/>
<path d="M9997 1382 c-22 -24 -22 -95 -1 -116 18 -19 75 -21 92 -4 7 7 12 20 12 31 0 17 -2 17 -22 3 -28 -20 -33 -20 -52 0 -30 29 -20 44 29 44 37 0 45 3 45 18 0 10 -5 23 -12 30 -18 18 -73 14 -91 -6z m67 -18 c4 -10 -3 -14 -24 -14 -32 0 -37 9 -19 27 14 14 35 7 43 -13z"/>
<path d="M10130 1390 c0 -5 5 -10 10 -10 13 0 13 -86 0 -111 -9 -17 -7 -19 16 -19 22 0 24 3 15 14 -7 8 -11 32 -9 53 l3 38 19 -52 c11 -29 25 -53 31 -53 6 0 20 24 31 53 18 50 19 51 22 20 2 -18 -2 -41 -8 -53 -10 -18 -8 -20 27 -20 29 0 34 3 25 12 -7 7 -12 35 -12 63 0 28 5 56 12 63 9 9 5 12 -19 12 -27 0 -32 -5 -50 -50 l-19 -51 -18 51 c-16 44 -21 50 -47 50 -16 0 -29 -4 -29 -10z"/>
<path d="M10357 1382 c-22 -24 -22 -95 -1 -116 18 -19 75 -21 92 -4 7 7 12 20 12 31 0 17 -2 17 -22 3 -28 -20 -33 -20 -52 0 -30 29 -20 44 29 44 37 0 45 3 45 18 0 10 -5 23 -12 30 -18 18 -73 14 -91 -6z m67 -18 c4 -10 -3 -14 -24 -14 -32 0 -37 9 -19 27 14 14 35 7 43 -13z"/>
<path d="M10480 1390 c0 -5 5 -10 10 -10 13 0 13 -86 0 -111 -10 -17 -7 -19 27 -19 29 0 34 3 25 12 -7 7 -12 22 -12 35 0 19 5 23 30 23 32 0 38 -16 20 -51 -10 -17 -7 -19 27 -19 29 0 34 3 25 12 -7 7 -12 35 -12 63 0 28 5 56 12 63 9 9 4 12 -25 12 -20 0 -37 -4 -37 -10 0 -5 5 -10 10 -10 6 0 10 -11 10 -25 0 -21 -5 -25 -30 -25 -25 0 -30 4 -30 23 0 13 5 28 12 35 9 9 4 12 -25 12 -20 0 -37 -4 -37 -10z"/>
<path d="M10660 1390 c0 -5 5 -10 10 -10 13 0 13 -86 0 -111 -10 -17 -7 -19 27 -19 29 0 34 3 25 12 -7 7 -12 22 -12 35 0 19 5 23 30 23 32 0 38 -16 20 -51 -10 -17 -7 -19 27 -19 29 0 34 3 25 12 -7 7 -12 35 -12 63 0 28 5 56 12 63 9 9 4 12 -25 12 -20 0 -37 -4 -37 -10 0 -5 5 -10 10 -10 6 0 10 -11 10 -25 0 -21 -5 -25 -30 -25 -25 0 -30 4 -30 23 0 13 5 28 12 35 9 9 4 12 -25 12 -20 0 -37 -4 -37 -10z"/>
<path d="M10830 1390 c0 -5 5 -10 10 -10 13 0 13 -86 0 -111 -10 -18 -7 -19 39 -19 67 0 81 7 81 40 0 29 -15 40 -56 40 -18 0 -24 5 -24 23 0 13 5 28 12 35 9 9 4 12 -25 12 -20 0 -37 -4 -37 -10z m85 -87 c16 -16 16 -17 0 -30 -23 -16 -35 -8 -35 23 0 28 12 31 35 7z"/>
<path d="M10970 1390 c0 -5 5 -10 10 -10 13 0 13 -86 0 -111 -10 -17 -7 -19 27 -19 29 0 34 3 25 12 -7 7 -12 35 -12 63 0 28 5 56 12 63 9 9 4 12 -25 12 -20 0 -37 -4 -37 -10z"/>
<path d="M11070 1390 c0 -5 5 -10 10 -10 13 0 13 -86 0 -111 -9 -17 -7 -19 16 -19 22 0 24 3 15 14 -7 8 -11 32 -9 53 l3 38 19 -52 c11 -29 25 -53 31 -53 6 0 20 24 31 53 18 50 19 51 22 20 2 -18 -2 -41 -8 -53 -10 -18 -8 -20 27 -20 29 0 34 3 25 12 -7 7 -12 35 -12 63 0 28 5 56 12 63 9 9 5 12 -19 12 -27 0 -32 -5 -50 -50 l-19 -51 -18 51 c-16 44 -21 50 -47 50 -16 0 -29 -4 -29 -10z"/>
<path d="M11360 1390 c0 -5 5 -10 10 -10 13 0 13 -86 0 -111 -10 -17 -7 -19 27 -19 29 0 34 3 25 12 -7 7 -12 22 -12 35 0 19 5 23 30 23 32 0 38 -16 20 -51 -10 -17 -7 -19 27 -19 29 0 34 3 25 12 -7 7 -12 35 -12 63 0 28 5 56 12 63 9 9 4 12 -25 12 -20 0 -37 -4 -37 -10 0 -5 5 -10 10 -10 6 0 10 -11 10 -25 0 -21 -5 -25 -30 -25 -25 0 -30 4 -30 23 0 13 5 28 12 35 9 9 4 12 -25 12 -20 0 -37 -4 -37 -10z"/>
<path d="M11563 1394 c-18 -8 -16 -44 1 -44 7 0 16 10 20 22 5 22 6 22 23 4 10 -10 14 -20 8 -22 -5 -2 -25 -13 -43 -24 -27 -16 -33 -26 -30 -48 3 -27 3 -27 94 -30 l90 -2 19 37 c14 30 19 34 23 19 2 -10 -1 -23 -7 -29 -19 -19 -12 -27 24 -27 32 0 35 2 25 19 -12 24 -13 41 -1 41 5 0 14 -13 21 -30 10 -23 19 -30 41 -30 l29 0 -31 43 c-32 46 -31 77 2 77 11 0 19 7 19 16 0 24 -42 13 -56 -14 -19 -39 -34 -49 -34 -25 0 12 5 25 10 28 21 13 9 25 -25 25 -34 0 -46 -12 -25 -25 6 -3 10 -16 10 -28 0 -24 -15 -14 -34 25 -14 27 -56 38 -56 14 0 -9 8 -16 19 -16 27 0 32 -33 9 -68 -13 -21 -24 -28 -38 -25 -15 4 -20 16 -22 62 l-3 56 -35 2 c-19 1 -41 0 -47 -3z m57 -84 c0 -22 -22 -36 -40 -25 -8 5 -6 13 6 26 22 25 34 24 34 -1z"/>
<path d="M11933 1394 c-18 -8 -16 -44 1 -44 7 0 16 10 20 22 5 22 6 22 23 4 10 -10 14 -20 8 -22 -5 -2 -25 -13 -43 -24 -27 -16 -33 -26 -30 -48 3 -26 5 -27 67 -27 43 0 66 4 69 13 2 6 -3 12 -12 12 -11 0 -16 14 -18 58 l-3 57 -35 2 c-19 1 -41 0 -47 -3z m57 -84 c0 -22 -22 -36 -40 -25 -8 5 -6 13 6 26 22 25 34 24 34 -1z"/>
<path d="M12050 1380 c0 -23 15 -27 24 -5 3 8 12 15 21 15 11 0 15 -12 15 -51 0 -28 -5 -59 -10 -70 -10 -17 -7 -19 27 -19 29 0 34 3 25 12 -14 14 -16 128 -3 128 5 0 16 -7 25 -15 20 -20 26 -19 26 5 0 18 -7 20 -75 20 -68 0 -75 -2 -75 -20z"/>
<path d="M12210 1390 c0 -5 5 -10 10 -10 13 0 13 -86 0 -111 -10 -17 -7 -19 26 -19 28 0 34 3 26 13 -8 9 -2 21 19 45 l29 32 0 -25 c0 -15 -5 -35 -10 -46 -10 -17 -7 -19 27 -19 29 0 34 3 25 12 -7 7 -12 35 -12 63 0 28 5 56 12 63 9 9 4 12 -26 12 -31 0 -37 -3 -32 -16 4 -9 -4 -28 -19 -46 l-25 -30 0 34 c0 19 5 39 12 46 9 9 4 12 -25 12 -20 0 -37 -4 -37 -10z"/>
<path d="M12407 1382 c-22 -24 -22 -95 -1 -116 18 -19 75 -21 92 -4 7 7 12 20 12 31 0 17 -2 17 -22 3 -28 -20 -33 -20 -52 0 -30 29 -20 44 29 44 37 0 45 3 45 18 0 10 -5 23 -12 30 -18 18 -73 14 -91 -6z m67 -18 c4 -10 -3 -14 -24 -14 -32 0 -37 9 -19 27 14 14 35 7 43 -13z"/>
<path d="M12530 1390 c0 -5 5 -10 10 -10 13 0 13 -86 0 -111 -9 -17 -7 -19 16 -19 22 0 24 3 15 14 -7 8 -11 32 -9 53 l3 38 19 -52 c11 -29 25 -53 31 -53 6 0 20 24 31 53 18 50 19 51 22 20 2 -18 -2 -41 -8 -53 -10 -18 -8 -20 27 -20 29 0 34 3 25 12 -7 7 -12 35 -12 63 0 28 5 56 12 63 9 9 5 12 -19 12 -27 0 -32 -5 -50 -50 l-19 -51 -18 51 c-16 44 -21 50 -47 50 -16 0 -29 -4 -29 -10z"/>
<path d="M2942 1093 c-36 -4 -46 -10 -62 -36 -25 -40 -27 -132 -4 -165 20 -29 85 -31 114 -2 24 24 26 77 4 109 -15 20 -23 23 -65 19 -44 -5 -47 -3 -38 13 5 10 25 21 47 24 20 3 43 10 51 14 20 10 26 31 9 29 -7 -1 -32 -3 -56 -5z m13 -103 c35 -39 13 -120 -28 -104 -9 3 -21 21 -27 40 -10 29 -9 39 4 59 20 30 28 31 51 5z"/>
<path d="M1523 1072 c13 -14 17 -38 17 -92 0 -54 -4 -78 -17 -92 -15 -17 -14 -18 32 -18 46 0 47 1 32 18 -13 14 -17 39 -17 105 l0 87 50 0 50 0 0 -87 c0 -66 -4 -91 -17 -105 -15 -17 -14 -18 32 -18 46 0 47 1 32 18 -13 14 -17 38 -17 92 0 54 4 78 17 92 15 17 12 18 -97 18 -109 0 -112 -1 -97 -18z"/>
<path d="M1763 1072 c13 -14 17 -38 17 -92 0 -54 -4 -78 -17 -92 -15 -17 -14 -18 31 -18 43 0 46 1 32 16 -9 8 -16 31 -16 50 0 33 1 34 38 34 46 0 62 14 62 56 0 50 -21 64 -97 64 -63 0 -65 -1 -50 -18z m91 -8 c22 -22 20 -61 -4 -74 -29 -15 -40 -5 -40 39 0 53 15 65 44 35z"/>
<path d="M1959 1061 c-25 -25 -29 -37 -29 -81 0 -44 4 -56 29 -81 25 -25 37 -29 81 -29 44 0 56 4 81 29 24 25 29 38 29 79 0 41 -5 55 -29 81 -25 27 -36 31 -81 31 -44 0 -56 -4 -81 -29z m117 -5 c24 -20 28 -31 28 -76 0 -45 -4 -56 -28 -76 -34 -30 -38 -30 -72 0 -24 20 -28 31 -28 76 0 45 4 56 28 76 15 13 31 24 36 24 5 0 21 -11 36 -24z"/>
<path d="M2183 1072 c13 -14 17 -38 17 -92 0 -54 -4 -78 -17 -92 -15 -17 -14 -18 32 -18 46 0 47 1 32 18 -13 14 -17 39 -17 107 l0 88 41 -6 c22 -3 47 -13 54 -24 13 -17 14 -16 15 10 l0 27 -87 0 c-83 0 -85 -1 -70 -18z"/>
<path d="M3773 1072 c13 -14 17 -38 17 -92 0 -54 -4 -78 -17 -92 -15 -17 -14 -18 31 -18 43 0 46 1 32 16 -9 8 -16 31 -16 50 0 33 1 34 38 34 46 0 62 14 62 56 0 50 -21 64 -97 64 -63 0 -65 -1 -50 -18z m91 -8 c22 -22 20 -61 -4 -74 -29 -15 -40 -5 -40 39 0 53 15 65 44 35z"/>
<path d="M3950 1063 l0 -27 20 22 c12 12 30 22 40 22 18 0 20 -7 20 -87 0 -66 -4 -91 -17 -105 -15 -17 -14 -18 31 -18 43 0 46 1 32 16 -12 12 -16 37 -16 105 0 82 2 89 20 89 10 0 28 -10 40 -22 l20 -22 0 27 0 27 -95 0 -95 0 0 -27z"/>
<path d="M0 1010 c0 -5 5 -10 10 -10 13 0 13 -86 0 -111 -10 -17 -7 -19 27 -19 29 0 34 3 25 12 -7 7 -12 22 -12 35 0 19 5 23 30 23 32 0 38 -16 20 -51 -10 -17 -7 -19 27 -19 29 0 34 3 25 12 -16 16 -16 110 0 126 9 9 4 12 -25 12 -20 0 -37 -4 -37 -10 0 -5 5 -10 10 -10 6 0 10 -11 10 -25 0 -21 -5 -25 -30 -25 -25 0 -30 4 -30 23 0 13 5 28 12 35 9 9 4 12 -25 12 -20 0 -37 -4 -37 -10z"/>
<path d="M203 1014 c-18 -8 -16 -44 1 -44 7 0 16 10 20 22 5 22 6 22 23 4 10 -10 14 -20 8 -22 -5 -2 -25 -13 -43 -24 -27 -16 -33 -26 -30 -48 3 -26 5 -27 67 -27 43 0 66 4 69 13 2 6 -3 12 -12 12 -11 0 -16 14 -18 58 l-3 57 -35 2 c-19 1 -41 0 -47 -3z m57 -84 c0 -22 -22 -36 -40 -25 -8 5 -6 13 6 26 22 25 34 24 34 -1z"/>
<path d="M410 1010 c0 -5 5 -10 10 -10 13 0 13 -86 0 -111 -10 -17 -7 -19 27 -19 29 0 34 3 25 12 -7 7 -12 26 -12 42 l0 31 23 -40 c16 -29 30 -41 50 -43 l28 -3 -31 43 c-33 47 -32 78 1 78 11 0 19 7 19 16 0 24 -43 13 -55 -13 -5 -13 -15 -25 -22 -27 -17 -7 -17 26 -1 42 9 9 4 12 -25 12 -20 0 -37 -4 -37 -10z"/>
<path d="M580 1010 c0 -5 5 -10 10 -10 13 0 13 -86 0 -111 -10 -17 -7 -19 27 -19 29 0 34 3 25 12 -7 7 -12 22 -12 35 0 19 5 23 30 23 32 0 38 -16 20 -51 -10 -17 -7 -19 27 -19 29 0 34 3 25 12 -7 7 -12 35 -12 63 0 28 5 56 12 63 9 9 4 12 -25 12 -20 0 -37 -4 -37 -10 0 -5 5 -10 10 -10 6 0 10 -11 10 -25 0 -21 -5 -25 -30 -25 -25 0 -30 4 -30 23 0 13 5 28 12 35 9 9 4 12 -25 12 -20 0 -37 -4 -37 -10z"/>
<path d="M776 998 c-22 -31 -20 -91 2 -111 28 -25 87 -22 106 5 22 31 20 91 -2 111 -28 25 -87 22 -106 -5z m84 -32 c15 -47 -5 -91 -36 -79 -18 7 -36 66 -28 89 17 43 48 38 64 -10z"/>
<path d="M920 1010 c0 -5 5 -10 10 -10 13 0 13 -86 0 -111 -10 -17 -7 -19 27 -19 29 0 34 3 25 12 -7 7 -12 38 -12 70 0 58 0 58 30 58 29 0 30 -1 30 -51 0 -28 -5 -59 -10 -70 -10 -17 -7 -19 27 -19 29 0 34 3 25 12 -7 7 -12 35 -12 63 0 28 5 56 12 63 9 9 -6 12 -70 12 -48 0 -82 -4 -82 -10z"/>
<path d="M1100 1010 c0 -5 5 -10 10 -10 13 0 13 -86 0 -111 -10 -17 -7 -19 27 -19 29 0 34 3 25 12 -7 7 -12 26 -12 42 l0 31 23 -40 c16 -29 30 -41 50 -43 l28 -3 -31 43 c-33 47 -32 78 1 78 11 0 19 7 19 16 0 24 -43 13 -55 -13 -5 -13 -15 -25 -22 -27 -17 -7 -17 26 -1 42 9 9 4 12 -25 12 -20 0 -37 -4 -37 -10z"/>
<path d="M1260 1011 c0 -5 4 -11 9 -13 5 -1 22 -30 39 -63 34 -70 30 -105 -13 -105 -16 0 -25 -6 -25 -15 0 -18 43 -20 58 -2 6 6 25 48 42 92 17 44 39 88 47 98 15 16 14 17 -17 17 -25 0 -30 -3 -23 -12 7 -9 5 -25 -6 -52 l-17 -39 -17 44 c-13 33 -14 45 -4 51 7 4 -6 8 -30 8 -24 0 -43 -4 -43 -9z"/>
<path d="M2450 1010 c0 -5 5 -10 10 -10 13 0 13 -86 0 -111 -10 -17 -7 -19 27 -19 29 0 34 3 25 12 -7 7 -12 22 -12 35 0 19 5 23 30 23 32 0 38 -16 20 -51 -10 -17 -7 -19 27 -19 29 0 34 3 25 12 -7 7 -12 35 -12 63 0 28 5 56 12 63 9 9 4 12 -25 12 -20 0 -37 -4 -37 -10 0 -5 5 -10 10 -10 6 0 10 -11 10 -25 0 -21 -5 -25 -30 -25 -25 0 -30 4 -30 23 0 13 5 28 12 35 9 9 4 12 -25 12 -20 0 -37 -4 -37 -10z"/>
<path d="M2653 1014 c-18 -8 -16 -44 1 -44 7 0 16 10 20 22 5 22 6 22 23 4 10 -10 14 -20 8 -22 -5 -2 -25 -13 -43 -24 -27 -16 -33 -26 -30 -48 3 -26 5 -27 67 -27 43 0 66 4 69 13 2 6 -3 12 -12 12 -11 0 -16 14 -18 58 l-3 57 -35 2 c-19 1 -41 0 -47 -3z m57 -84 c0 -22 -22 -36 -40 -25 -8 5 -6 13 6 26 22 25 34 24 34 -1z"/>
<path d="M3050 1010 c0 -5 5 -10 10 -10 11 0 13 -42 4 -77 -4 -14 -14 -23 -25 -23 -11 0 -19 -7 -19 -16 0 -11 8 -14 28 -12 26 3 27 5 30 71 3 64 4 67 27 67 23 0 25 -4 25 -51 0 -28 -5 -59 -10 -70 -10 -17 -7 -19 27 -19 29 0 34 3 25 12 -7 7 -12 35 -12 63 0 28 5 56 12 63 9 9 -3 12 -55 12 -38 0 -67 -4 -67 -10z"/>
<path d="M3216 998 c-22 -31 -20 -91 2 -111 28 -25 87 -22 106 5 22 31 20 91 -2 111 -28 25 -87 22 -106 -5z m84 -32 c15 -47 -5 -91 -36 -79 -18 7 -36 66 -28 89 17 43 48 38 64 -10z"/>
<path d="M3370 1010 c0 -5 5 -10 10 -10 13 0 13 -86 0 -111 -10 -17 -7 -19 27 -19 29 0 34 3 25 12 -7 7 -12 26 -12 42 l0 31 23 -40 c16 -29 30 -41 50 -43 l28 -3 -31 43 c-33 47 -32 78 1 78 11 0 19 7 19 16 0 24 -43 13 -55 -13 -5 -13 -15 -25 -22 -27 -17 -7 -17 26 -1 42 9 9 4 12 -25 12 -20 0 -37 -4 -37 -10z"/>
<path d="M3547 1002 c-22 -24 -22 -95 -1 -116 18 -19 75 -21 92 -4 7 7 12 20 12 31 0 17 -2 17 -22 3 -28 -20 -33 -20 -52 0 -30 29 -20 44 29 44 37 0 45 3 45 18 0 10 -5 23 -12 30 -18 18 -73 14 -91 -6z m67 -18 c4 -10 -3 -14 -24 -14 -32 0 -37 9 -19 27 14 14 35 7 43 -13z"/>
<path d="M4163 894 c-8 -21 13 -42 28 -27 13 13 5 43 -11 43 -6 0 -13 -7 -17 -16z"/>
<path d="M3402 703 c-36 -4 -46 -10 -62 -36 -25 -40 -27 -132 -4 -165 20 -29 85 -31 114 -2 24 24 26 77 4 109 -15 20 -23 23 -65 19 -44 -5 -47 -3 -38 13 5 10 25 21 47 24 20 3 43 10 51 14 20 10 26 31 9 29 -7 -1 -32 -3 -56 -5z m13 -103 c35 -39 13 -120 -28 -104 -9 3 -21 21 -27 40 -10 29 -9 39 4 59 20 30 28 31 51 5z"/>
<path d="M4942 703 c-36 -4 -46 -10 -62 -36 -25 -40 -27 -132 -4 -165 20 -29 85 -31 114 -2 24 24 26 77 4 109 -15 20 -23 23 -65 19 -44 -5 -47 -3 -38 13 5 10 25 21 47 24 20 3 43 10 51 14 20 10 26 31 9 29 -7 -1 -32 -3 -56 -5z m13 -103 c35 -39 13 -120 -28 -104 -9 3 -21 21 -27 40 -10 29 -9 39 4 59 20 30 28 31 51 5z"/>
<path d="M13 682 c24 -26 24 -158 0 -184 -15 -17 -14 -18 32 -18 46 0 47 1 32 18 -13 14 -17 39 -17 105 l0 87 50 0 50 0 0 -87 c0 -66 -4 -91 -17 -105 -15 -17 -14 -18 32 -18 46 0 47 1 32 18 -24 26 -24 158 0 184 15 17 12 18 -97 18 -109 0 -112 -1 -97 -18z"/>
<path d="M256 608 c-22 -31 -20 -91 2 -111 28 -25 87 -22 106 5 22 31 20 91 -2 111 -28 25 -87 22 -106 -5z m84 -32 c15 -47 -5 -91 -36 -79 -18 7 -36 66 -28 89 17 43 48 38 64 -10z"/>
<path d="M427 612 c-23 -26 -22 -94 1 -115 29 -27 80 -22 94 8 14 31 4 43 -17 21 -20 -20 -29 -20 -49 0 -23 22 -20 71 4 84 15 8 21 6 30 -10 6 -11 17 -20 25 -20 16 0 18 9 9 34 -9 23 -76 21 -97 -2z"/>
<path d="M580 620 c0 -5 5 -10 10 -10 11 0 13 -42 4 -77 -4 -14 -14 -23 -25 -23 -11 0 -19 -7 -19 -16 0 -11 8 -14 28 -12 26 3 27 5 30 71 3 64 4 67 27 67 23 0 25 -4 25 -51 0 -28 -5 -59 -10 -70 -10 -17 -7 -19 27 -19 29 0 34 3 25 12 -16 16 -16 110 0 126 9 9 -3 12 -55 12 -38 0 -67 -4 -67 -10z"/>
<path d="M737 612 c-22 -24 -22 -95 -1 -116 18 -19 75 -21 92 -4 7 7 12 20 12 31 0 17 -2 17 -22 3 -28 -20 -33 -20 -52 0 -30 29 -20 44 29 44 37 0 45 3 45 18 0 10 -5 23 -12 30 -18 18 -73 14 -91 -6z m67 -18 c4 -10 -3 -14 -24 -14 -32 0 -37 9 -19 27 14 14 35 7 43 -13z"/>
<path d="M890 622 c0 -4 4 -12 10 -18 13 -13 -5 -85 -24 -100 -9 -6 -16 -23 -16 -38 l0 -27 26 20 c34 27 74 27 109 -1 l28 -22 -7 35 c-16 74 -18 130 -6 144 11 13 3 15 -54 15 -36 0 -66 -4 -66 -8z m78 -64 l-3 -63 -34 -3 c-29 -3 -33 -1 -26 15 5 10 10 39 13 66 3 42 6 47 28 47 24 0 25 -2 22 -62z"/>
<path d="M1056 608 c-22 -31 -20 -91 2 -111 28 -25 87 -22 106 5 22 31 20 91 -2 111 -28 25 -87 22 -106 -5z m84 -32 c15 -47 -5 -91 -36 -79 -18 7 -36 66 -28 89 17 43 48 38 64 -10z"/>
<path d="M1210 620 c0 -5 5 -10 10 -10 13 0 13 -86 -1 -111 -10 -19 -7 -20 53 -17 58 3 63 5 66 27 3 15 -3 30 -14 38 -10 8 -13 13 -5 13 8 0 11 11 9 33 -3 32 -4 32 -60 35 -36 2 -58 -1 -58 -8z m84 -34 c-3 -8 -12 -17 -20 -20 -10 -4 -14 3 -14 25 0 26 2 29 20 19 11 -6 17 -17 14 -24z m1 -53 c16 -16 16 -17 0 -30 -23 -16 -35 -8 -35 23 0 28 12 31 35 7z"/>
<path d="M1383 624 c-18 -8 -16 -44 1 -44 7 0 16 10 20 22 5 22 6 22 23 4 10 -10 14 -20 8 -22 -5 -2 -25 -13 -43 -24 -27 -16 -33 -26 -30 -48 3 -26 5 -27 67 -27 43 0 66 4 69 13 2 6 -3 12 -12 12 -11 0 -16 14 -18 58 l-3 57 -35 2 c-19 1 -41 0 -47 -3z m57 -84 c0 -22 -22 -36 -40 -25 -8 5 -6 13 6 26 22 25 34 24 34 -1z"/>
<path d="M1500 610 c0 -23 15 -27 24 -5 3 8 12 15 21 15 11 0 15 -12 15 -51 0 -28 -5 -59 -10 -70 -10 -17 -7 -19 27 -19 29 0 34 3 25 12 -14 14 -16 128 -3 128 5 0 16 -7 25 -15 20 -20 26 -19 26 5 0 18 -7 20 -75 20 -68 0 -75 -2 -75 -20z"/>
<path d="M1677 612 c-22 -24 -22 -95 -1 -116 18 -19 75 -21 92 -4 7 7 12 20 12 31 0 17 -2 17 -22 3 -28 -20 -33 -20 -52 0 -30 29 -20 44 29 44 37 0 45 3 45 18 0 10 -5 23 -12 30 -18 18 -73 14 -91 -6z m67 -18 c4 -10 -3 -14 -24 -14 -32 0 -37 9 -19 27 14 14 35 7 43 -13z"/>
<path d="M1820 620 c0 -5 5 -10 10 -10 11 0 13 -42 4 -77 -4 -14 -14 -23 -25 -23 -11 0 -19 -7 -19 -16 0 -11 8 -14 28 -12 26 3 27 5 30 71 3 64 4 67 27 67 23 0 25 -4 25 -51 0 -28 -5 -59 -10 -70 -10 -17 -7 -19 27 -19 29 0 34 3 25 12 -16 16 -16 110 0 126 9 9 -3 12 -55 12 -38 0 -67 -4 -67 -10z"/>
<path d="M1970 620 c0 -5 5 -10 10 -10 13 0 13 -86 0 -111 -10 -18 -7 -19 39 -19 67 0 81 7 81 40 0 29 -15 40 -56 40 -18 0 -24 5 -24 23 0 13 5 28 12 35 9 9 4 12 -25 12 -20 0 -37 -4 -37 -10z m85 -87 c16 -16 16 -17 0 -30 -23 -16 -35 -8 -35 23 0 28 12 31 35 7z"/>
<path d="M2120 620 c0 -5 5 -10 10 -10 13 0 13 -86 0 -111 -10 -17 -7 -19 27 -19 29 0 34 3 25 12 -7 7 -12 22 -12 35 0 19 5 23 30 23 32 0 38 -16 20 -51 -10 -17 -7 -19 27 -19 29 0 34 3 25 12 -7 7 -12 35 -12 63 0 28 5 56 12 63 9 9 4 12 -25 12 -20 0 -37 -4 -37 -10 0 -5 5 -10 10 -10 6 0 10 -11 10 -25 0 -21 -5 -25 -30 -25 -25 0 -30 4 -30 23 0 13 5 28 12 35 9 9 4 12 -25 12 -20 0 -37 -4 -37 -10z"/>
<path d="M2316 608 c-22 -31 -20 -91 2 -111 28 -25 87 -22 106 5 22 31 20 91 -2 111 -28 25 -87 22 -106 -5z m84 -32 c15 -47 -5 -91 -36 -79 -18 7 -36 66 -28 89 17 43 48 38 64 -10z"/>
<path d="M2487 612 c-23 -26 -22 -94 1 -115 29 -27 80 -22 94 8 14 31 4 43 -17 21 -20 -20 -29 -20 -49 0 -23 22 -20 71 4 84 15 8 21 6 30 -10 6 -11 17 -20 25 -20 16 0 18 9 9 34 -9 23 -76 21 -97 -2z"/>
<path d="M2610 610 c0 -23 15 -27 24 -5 3 8 12 15 21 15 11 0 15 -12 15 -51 0 -28 -5 -59 -10 -70 -10 -17 -7 -19 27 -19 29 0 34 3 25 12 -14 14 -16 128 -3 128 5 0 17 -8 27 -17 13 -13 19 -14 22 -5 2 6 8 12 13 12 12 0 11 -87 -1 -111 -10 -18 -7 -19 39 -19 67 0 81 7 81 40 0 29 -15 40 -56 40 -18 0 -24 5 -24 23 0 13 5 28 12 35 9 9 -13 12 -100 12 -105 0 -112 -1 -112 -20z m235 -77 c16 -16 16 -17 0 -30 -23 -16 -35 -8 -35 23 0 28 12 31 35 7z"/>
<path d="M3000 620 c-12 -7 -12 -12 -2 -22 15 -15 16 -141 2 -169 -10 -17 -7 -19 27 -19 29 0 34 3 25 12 -7 7 -12 22 -12 35 0 19 5 23 33 23 20 0 41 8 50 18 19 21 22 83 7 113 -12 22 -59 26 -78 7 -9 -9 -12 -9 -12 0 0 14 -19 15 -40 2z m103 -70 c0 -17 -7 -39 -17 -48 -16 -16 -18 -16 -32 2 -20 28 -18 83 4 95 24 14 45 -10 45 -49z"/>
<path d="M3193 624 c-18 -8 -16 -44 1 -44 7 0 16 10 20 22 5 22 6 22 23 4 10 -10 14 -20 8 -22 -5 -2 -25 -13 -43 -24 -27 -16 -33 -26 -30 -48 3 -26 5 -27 67 -27 43 0 66 4 69 13 2 6 -3 12 -12 12 -11 0 -16 14 -18 58 l-3 57 -35 2 c-19 1 -41 0 -47 -3z m57 -84 c0 -22 -22 -36 -40 -25 -8 5 -6 13 6 26 22 25 34 24 34 -1z"/>
<path d="M3506 608 c-22 -31 -20 -91 2 -111 28 -25 87 -22 106 5 22 31 20 91 -2 111 -28 25 -87 22 -106 -5z m84 -32 c15 -47 -5 -91 -36 -79 -18 7 -36 66 -28 89 17 43 48 38 64 -10z"/>
<path d="M3640 610 c0 -23 15 -27 24 -5 3 8 12 15 21 15 11 0 15 -12 15 -51 0 -28 -5 -59 -10 -70 -10 -17 -7 -19 27 -19 29 0 34 3 25 12 -14 14 -16 128 -3 128 5 0 17 -8 27 -17 13 -13 19 -14 22 -5 2 6 8 12 13 12 12 0 11 -87 -1 -111 -10 -18 -7 -19 39 -19 67 0 81 7 81 40 0 29 -15 40 -56 40 -18 0 -24 5 -24 23 0 13 5 28 12 35 9 9 -13 12 -100 12 -105 0 -112 -1 -112 -20z m235 -77 c16 -16 16 -17 0 -30 -23 -16 -35 -8 -35 23 0 28 12 31 35 7z"/>
<path d="M3930 620 c0 -5 5 -10 10 -10 13 0 13 -86 0 -111 -10 -17 -7 -19 27 -19 29 0 34 3 25 12 -16 16 -16 110 0 126 9 9 4 12 -25 12 -20 0 -37 -4 -37 -10z"/>
<path d="M4127 612 c-23 -26 -22 -94 1 -115 29 -27 80 -22 94 8 14 31 4 43 -17 21 -20 -20 -29 -20 -49 0 -23 22 -20 71 4 84 15 8 21 6 30 -10 6 -11 17 -20 25 -20 16 0 18 9 9 34 -9 23 -76 21 -97 -2z"/>
<path d="M4340 620 c0 -5 5 -10 10 -10 13 0 13 -86 0 -111 -10 -17 -7 -19 27 -19 29 0 34 3 25 12 -7 7 -12 38 -12 70 0 58 0 58 30 58 29 0 30 -1 30 -51 0 -28 -5 -59 -10 -70 -10 -17 -7 -19 27 -19 29 0 34 3 25 12 -12 12 -17 110 -5 121 26 27 47 -138 23 -184 -10 -17 -7 -19 27 -19 29 0 34 3 25 12 -7 7 -12 22 -12 35 0 19 5 23 33 23 20 0 41 8 50 18 19 21 22 83 7 113 -12 22 -59 26 -78 7 -7 -7 -12 -8 -12 -2 0 7 -40 12 -105 13 -67 1 -105 -2 -105 -9z m273 -70 c0 -17 -7 -39 -17 -48 -16 -16 -18 -16 -32 2 -20 28 -18 83 4 95 24 14 45 -10 45 -49z"/>
<path d="M4680 620 c0 -5 5 -10 10 -10 13 0 13 -86 0 -111 -10 -17 -7 -19 26 -19 28 0 34 3 26 13 -8 9 -2 21 19 45 l29 32 0 -25 c0 -15 -5 -35 -10 -46 -10 -17 -7 -19 27 -19 29 0 34 3 25 12 -7 7 -12 35 -12 63 0 28 5 56 12 63 9 9 4 12 -26 12 -31 0 -37 -3 -32 -16 4 -9 -4 -28 -19 -46 l-25 -30 0 34 c0 19 5 39 12 46 9 9 4 12 -25 12 -20 0 -37 -4 -37 -10z"/>
<path d="M5046 608 c-22 -31 -20 -91 2 -111 28 -25 87 -22 106 5 22 31 20 91 -2 111 -28 25 -87 22 -106 -5z m84 -32 c15 -47 -5 -91 -36 -79 -18 7 -36 66 -28 89 17 43 48 38 64 -10z"/>
<path d="M5200 620 c-12 -7 -12 -12 -2 -22 15 -15 16 -141 2 -169 -10 -17 -7 -19 27 -19 29 0 34 3 25 12 -7 7 -12 22 -12 35 0 19 5 23 33 23 20 0 41 8 50 18 19 21 22 83 7 113 -12 22 -59 26 -78 7 -9 -9 -12 -9 -12 0 0 14 -19 15 -40 2z m103 -70 c0 -17 -7 -39 -17 -48 -16 -16 -18 -16 -32 2 -20 28 -18 83 4 95 24 14 45 -10 45 -49z"/>
<path d="M5376 608 c-22 -31 -20 -91 2 -111 28 -25 87 -22 106 5 22 31 20 91 -2 111 -28 25 -87 22 -106 -5z m84 -32 c15 -47 -5 -91 -36 -79 -18 7 -36 66 -28 89 17 43 48 38 64 -10z"/>
<path d="M5530 620 c0 -5 5 -10 10 -10 13 0 13 -86 0 -111 -9 -17 -7 -19 16 -19 22 0 24 3 15 14 -7 8 -11 32 -9 53 l3 38 19 -52 c11 -29 25 -53 31 -53 6 0 20 24 31 53 18 50 19 51 22 20 2 -18 -2 -41 -8 -53 -10 -18 -8 -20 27 -20 29 0 34 3 25 12 -7 7 -12 35 -12 63 0 28 5 56 12 63 9 9 5 12 -19 12 -27 0 -32 -5 -50 -50 l-19 -51 -18 51 c-16 44 -21 50 -47 50 -16 0 -29 -4 -29 -10z"/>
<path d="M5820 620 c0 -5 5 -10 10 -10 13 0 13 -86 0 -111 -10 -17 -7 -19 27 -19 29 0 34 3 25 12 -7 7 -12 22 -12 35 0 19 5 23 30 23 32 0 38 -16 20 -51 -10 -17 -7 -19 27 -19 29 0 34 3 25 12 -7 7 -12 35 -12 63 0 28 5 56 12 63 9 9 4 12 -25 12 -20 0 -37 -4 -37 -10 0 -5 5 -10 10 -10 6 0 10 -11 10 -25 0 -21 -5 -25 -30 -25 -25 0 -30 4 -30 23 0 13 5 28 12 35 9 9 4 12 -25 12 -20 0 -37 -4 -37 -10z"/>
<path d="M6023 624 c-18 -8 -16 -44 1 -44 7 0 16 10 20 22 5 22 6 22 23 4 10 -10 14 -20 8 -22 -5 -2 -25 -13 -43 -24 -27 -16 -33 -26 -30 -48 3 -26 5 -27 67 -27 43 0 66 4 69 13 2 6 -3 12 -12 12 -11 0 -16 14 -18 58 l-3 57 -35 2 c-19 1 -41 0 -47 -3z m57 -84 c0 -22 -22 -36 -40 -25 -8 5 -6 13 6 26 22 25 34 24 34 -1z"/>
<path d="M6230 620 c0 -5 5 -10 10 -10 13 0 13 -86 0 -111 -10 -17 -7 -19 27 -19 29 0 34 3 25 12 -7 7 -12 38 -12 70 0 58 0 58 30 58 29 0 30 -1 30 -51 0 -28 -5 -59 -10 -70 -10 -17 -7 -19 27 -19 29 0 34 3 25 12 -7 7 -12 35 -12 63 0 28 5 56 12 63 9 9 -6 12 -70 12 -48 0 -82 -4 -82 -10z"/>
<path d="M6427 612 c-22 -24 -22 -95 -1 -116 18 -19 75 -21 92 -4 7 7 12 20 12 31 0 17 -2 17 -22 3 -28 -20 -33 -20 -52 0 -30 29 -20 44 29 44 37 0 45 3 45 18 0 10 -5 23 -12 30 -18 18 -73 14 -91 -6z m67 -18 c4 -10 -3 -14 -24 -14 -32 0 -37 9 -19 27 14 14 35 7 43 -13z"/>
<path d="M6560 620 c-12 -7 -12 -12 -2 -22 15 -15 16 -141 2 -169 -10 -17 -7 -19 27 -19 29 0 34 3 25 12 -7 7 -12 22 -12 35 0 19 5 23 33 23 20 0 41 8 50 18 19 21 22 83 7 113 -12 22 -59 26 -78 7 -9 -9 -12 -9 -12 0 0 14 -19 15 -40 2z m103 -70 c0 -17 -7 -39 -17 -48 -16 -16 -18 -16 -32 2 -20 28 -18 83 4 95 24 14 45 -10 45 -49z"/>
<path d="M6720 620 c0 -5 5 -10 10 -10 13 0 13 -86 -1 -111 -10 -19 -7 -20 53 -17 58 3 63 5 66 27 3 15 -3 30 -14 38 -10 8 -13 13 -5 13 8 0 11 11 9 33 -3 32 -4 32 -60 35 -36 2 -58 -1 -58 -8z m84 -34 c-3 -8 -12 -17 -20 -20 -10 -4 -14 3 -14 25 0 26 2 29 20 19 11 -6 17 -17 14 -24z m1 -53 c16 -16 16 -17 0 -30 -23 -16 -35 -8 -35 23 0 28 12 31 35 7z"/>
<path d="M6896 608 c-22 -31 -20 -91 2 -111 28 -25 87 -22 106 5 22 31 20 91 -2 111 -28 25 -87 22 -106 -5z m84 -32 c15 -47 -5 -91 -36 -79 -18 7 -36 66 -28 89 17 43 48 38 64 -10z"/>
<path d="M7050 620 c0 -5 5 -10 10 -10 13 0 13 -86 0 -111 -9 -17 -7 -19 16 -19 22 0 24 3 15 14 -7 8 -11 32 -9 53 l3 38 19 -52 c11 -29 25 -53 31 -53 6 0 20 24 31 53 18 50 19 51 22 20 2 -18 -2 -41 -8 -53 -10 -18 -8 -20 27 -20 29 0 34 3 25 12 -7 7 -12 35 -12 63 0 28 5 56 12 63 9 9 5 12 -19 12 -27 0 -32 -5 -50 -50 l-19 -51 -18 51 c-16 44 -21 50 -47 50 -16 0 -29 -4 -29 -10z"/>
<path d="M7340 621 c0 -5 4 -11 9 -13 5 -1 22 -30 39 -63 34 -70 30 -105 -13 -105 -16 0 -25 -6 -25 -15 0 -18 43 -20 58 -2 6 6 24 48 42 92 39 99 39 98 56 84 17 -14 20 -140 4 -170 -10 -17 -7 -19 27 -19 29 0 34 3 25 12 -7 7 -12 22 -12 35 0 19 5 23 33 23 20 0 41 8 50 18 19 21 22 83 7 113 -12 22 -59 26 -78 7 -8 -8 -12 -8 -12 -1 0 6 -22 11 -51 12 -39 0 -49 -2 -41 -12 6 -8 4 -25 -7 -51 l-17 -39 -17 44 c-13 33 -14 45 -4 51 7 4 -6 8 -30 8 -24 0 -43 -4 -43 -9z m273 -71 c0 -17 -7 -39 -17 -48 -16 -16 -18 -16 -32 2 -20 28 -18 83 4 95 24 14 45 -10 45 -49z"/>
<path d="M7686 608 c-22 -31 -20 -91 2 -111 28 -25 87 -22 106 5 22 31 20 91 -2 111 -28 25 -87 22 -106 -5z m84 -32 c15 -47 -5 -91 -36 -79 -18 7 -36 66 -28 89 17 43 48 38 64 -10z"/>
<path d="M7840 620 c0 -5 5 -10 10 -10 13 0 13 -86 -1 -111 -10 -19 -7 -20 53 -17 58 3 63 5 66 27 3 15 -3 30 -14 38 -10 8 -13 13 -5 13 8 0 11 11 9 33 -3 32 -4 32 -60 35 -36 2 -58 -1 -58 -8z m84 -34 c-3 -8 -12 -17 -20 -20 -10 -4 -14 3 -14 25 0 26 2 29 20 19 11 -6 17 -17 14 -24z m1 -53 c16 -16 16 -17 0 -30 -23 -16 -35 -8 -35 23 0 28 12 31 35 7z"/>
<path d="M8000 620 c0 -5 5 -10 10 -10 13 0 13 -86 0 -111 -10 -17 -7 -19 27 -19 29 0 34 3 25 12 -7 7 -12 22 -12 35 0 19 5 23 30 23 32 0 38 -16 20 -51 -10 -17 -7 -19 27 -19 29 0 34 3 25 12 -7 7 -12 35 -12 63 0 28 5 56 12 63 9 9 4 12 -25 12 -20 0 -37 -4 -37 -10 0 -5 5 -10 10 -10 6 0 10 -11 10 -25 0 -21 -5 -25 -30 -25 -25 0 -30 4 -30 23 0 13 5 28 12 35 9 9 4 12 -25 12 -20 0 -37 -4 -37 -10z"/>
<path d="M8197 612 c-22 -24 -22 -95 -1 -116 18 -19 75 -21 92 -4 7 7 12 20 12 31 0 17 -2 17 -22 3 -28 -20 -33 -20 -52 0 -30 29 -20 44 29 44 37 0 45 3 45 18 0 10 -5 23 -12 30 -18 18 -73 14 -91 -6z m67 -18 c4 -10 -3 -14 -24 -14 -32 0 -37 9 -19 27 14 14 35 7 43 -13z"/>
<path d="M8410 620 c0 -5 5 -10 10 -10 13 0 13 -86 0 -111 -10 -17 -7 -19 27 -19 29 0 34 3 25 12 -7 7 -12 38 -12 70 0 58 0 58 30 58 29 0 30 -1 30 -51 0 -28 -5 -59 -10 -70 -10 -17 -7 -19 27 -19 29 0 34 3 25 12 -7 7 -12 35 -12 63 0 28 5 56 12 63 9 9 -6 12 -70 12 -48 0 -82 -4 -82 -10z"/>
<path d="M8590 620 c-12 -7 -12 -12 -2 -22 15 -15 16 -141 2 -169 -10 -17 -7 -19 27 -19 29 0 34 3 25 12 -7 7 -12 22 -12 35 0 19 5 23 33 23 20 0 41 8 50 18 19 21 22 83 7 113 -12 22 -59 26 -78 7 -9 -9 -12 -9 -12 0 0 14 -19 15 -40 2z m103 -70 c0 -17 -7 -39 -17 -48 -16 -16 -18 -16 -32 2 -20 28 -18 83 4 95 24 14 45 -10 45 -49z"/>
<path d="M8766 608 c-22 -31 -20 -91 2 -111 28 -25 87 -22 106 5 22 31 20 91 -2 111 -28 25 -87 22 -106 -5z m84 -32 c15 -47 -5 -91 -36 -79 -18 7 -36 66 -28 89 17 43 48 38 64 -10z"/>
<path d="M8920 620 c0 -5 5 -10 10 -10 13 0 13 -86 0 -111 -10 -17 -7 -19 27 -19 29 0 34 3 25 12 -7 7 -12 38 -12 70 0 61 13 74 44 43 20 -20 26 -19 26 5 0 18 -7 20 -60 20 -33 0 -60 -4 -60 -10z"/>
<path d="M9060 620 c-12 -7 -12 -12 -2 -22 15 -15 16 -141 2 -169 -10 -17 -7 -19 27 -19 29 0 34 3 25 12 -7 7 -12 22 -12 35 0 19 5 23 33 23 20 0 41 8 50 18 19 21 22 83 7 113 -12 22 -59 26 -78 7 -9 -9 -12 -9 -12 0 0 14 -19 15 -40 2z m103 -70 c0 -17 -7 -39 -17 -48 -16 -16 -18 -16 -32 2 -20 28 -18 83 4 95 24 14 45 -10 45 -49z"/>
<path d="M9243 624 c-18 -8 -16 -44 1 -44 7 0 16 10 20 22 5 22 6 22 23 4 10 -10 14 -20 8 -22 -5 -2 -25 -13 -43 -24 -27 -16 -33 -26 -30 -48 3 -26 5 -27 67 -27 43 0 66 4 69 13 2 6 -3 12 -12 12 -11 0 -16 14 -18 58 l-3 57 -35 2 c-19 1 -41 0 -47 -3z m57 -84 c0 -22 -22 -36 -40 -25 -8 5 -6 13 6 26 22 25 34 24 34 -1z"/>
<path d="M9370 620 c0 -5 5 -10 10 -10 13 0 13 -86 0 -111 -9 -17 -7 -19 16 -19 22 0 24 3 15 14 -7 8 -11 32 -9 53 l3 38 19 -52 c11 -29 25 -53 31 -53 6 0 20 24 31 53 18 50 19 51 22 20 2 -18 -2 -41 -8 -53 -10 -18 -8 -20 27 -20 29 0 34 3 25 12 -7 7 -12 35 -12 63 0 28 5 56 12 63 9 9 5 12 -19 12 -27 0 -32 -5 -50 -50 l-19 -51 -18 51 c-16 44 -21 50 -47 50 -16 0 -29 -4 -29 -10z"/>
<path d="M9580 620 c0 -5 5 -10 10 -10 13 0 13 -86 0 -111 -9 -17 -7 -19 16 -19 22 0 24 3 15 14 -7 8 -11 32 -9 53 l3 38 19 -52 c11 -29 25 -53 31 -53 6 0 20 24 31 53 18 50 19 51 22 20 2 -18 -2 -41 -8 -53 -10 -18 -8 -20 27 -20 29 0 34 3 25 12 -7 7 -12 35 -12 63 0 28 5 56 12 63 9 9 5 12 -19 12 -27 0 -32 -5 -50 -50 l-19 -51 -18 51 c-16 44 -21 50 -47 50 -16 0 -29 -4 -29 -10z"/>
<path d="M9790 620 c0 -5 5 -10 10 -10 13 0 13 -86 0 -111 -10 -17 -7 -19 26 -19 28 0 34 3 26 13 -8 9 -2 21 19 45 l29 32 0 -25 c0 -15 -5 -35 -10 -46 -10 -17 -7 -19 27 -19 29 0 34 3 25 12 -7 7 -12 35 -12 63 0 28 5 56 12 63 9 9 4 12 -26 12 -31 0 -37 -3 -32 -16 4 -9 -4 -28 -19 -46 l-25 -30 0 34 c0 19 5 39 12 46 9 9 4 12 -25 12 -20 0 -37 -4 -37 -10z"/>
<path d="M9970 620 c-12 -7 -12 -12 -2 -22 15 -15 16 -141 2 -169 -10 -17 -7 -19 27 -19 29 0 34 3 25 12 -7 7 -12 22 -12 35 0 19 5 23 33 23 20 0 41 8 50 18 19 21 22 83 7 113 -12 22 -59 26 -78 7 -9 -9 -12 -9 -12 0 0 14 -19 15 -40 2z m103 -70 c0 -17 -7 -39 -17 -48 -16 -16 -18 -16 -32 2 -20 28 -18 83 4 95 24 14 45 -10 45 -49z"/>
<path d="M10156 608 c-22 -31 -20 -91 2 -111 28 -25 87 -22 106 5 22 31 20 91 -2 111 -28 25 -87 22 -106 -5z m84 -32 c15 -47 -5 -91 -36 -79 -18 7 -36 66 -28 89 17 43 48 38 64 -10z"/>
<path d="M10310 620 c0 -5 5 -10 10 -10 13 0 13 -86 -1 -111 -10 -19 -7 -20 53 -17 58 3 63 5 66 27 3 15 -3 30 -14 38 -10 8 -13 13 -5 13 8 0 11 11 9 33 -3 32 -4 32 -60 35 -36 2 -58 -1 -58 -8z m84 -34 c-3 -8 -12 -17 -20 -20 -10 -4 -14 3 -14 25 0 26 2 29 20 19 11 -6 17 -17 14 -24z m1 -53 c16 -16 16 -17 0 -30 -23 -16 -35 -8 -35 23 0 28 12 31 35 7z"/>
<path d="M10483 624 c-18 -8 -16 -44 1 -44 7 0 16 10 20 22 5 22 6 22 23 4 10 -10 14 -20 8 -22 -5 -2 -25 -13 -43 -24 -27 -16 -33 -26 -30 -48 3 -26 5 -27 67 -27 43 0 66 4 69 13 2 6 -3 12 -12 12 -11 0 -16 14 -18 58 l-3 57 -35 2 c-19 1 -41 0 -47 -3z m57 -84 c0 -22 -22 -36 -40 -25 -8 5 -6 13 6 26 22 25 34 24 34 -1z"/>
<path d="M10610 620 c0 -5 5 -10 10 -10 13 0 13 -86 0 -111 -10 -17 -7 -19 27 -19 29 0 34 3 25 12 -7 7 -12 22 -12 35 0 19 5 23 30 23 32 0 38 -16 20 -51 -10 -17 -7 -19 27 -19 29 0 34 3 25 12 -7 7 -12 35 -12 63 0 28 5 56 12 63 9 9 4 12 -25 12 -20 0 -37 -4 -37 -10 0 -5 5 -10 10 -10 6 0 10 -11 10 -25 0 -21 -5 -25 -30 -25 -25 0 -30 4 -30 23 0 13 5 28 12 35 9 9 4 12 -25 12 -20 0 -37 -4 -37 -10z"/>
<path d="M10790 620 c0 -5 5 -10 10 -10 13 0 13 -86 0 -111 -10 -17 -7 -19 26 -19 28 0 34 3 26 13 -8 9 -2 21 19 45 l29 32 0 -25 c0 -15 -5 -35 -10 -46 -10 -17 -7 -19 27 -19 29 0 34 3 25 12 -7 7 -12 35 -12 63 0 28 5 56 12 63 9 9 4 12 -26 12 -31 0 -37 -3 -32 -16 4 -9 -4 -28 -19 -46 l-25 -30 0 34 c0 19 5 39 12 46 9 9 4 12 -25 12 -20 0 -37 -4 -37 -10z"/>
<path d="M10987 623 c-12 -12 -7 -50 8 -63 12 -10 11 -17 -11 -46 l-26 -34 23 0 c16 0 32 12 49 37 18 26 26 32 28 20 2 -9 -2 -25 -8 -36 -10 -19 -8 -21 27 -21 29 0 34 3 25 12 -7 7 -12 35 -12 63 0 28 5 56 12 63 9 9 -1 12 -48 12 -34 0 -64 -3 -67 -7z m73 -39 c0 -28 -12 -31 -35 -7 -16 16 -16 17 0 30 23 16 35 8 35 -23z"/>
<path d="M11200 620 c0 -5 5 -10 10 -10 13 0 13 -86 0 -111 -10 -17 -7 -19 27 -19 29 0 34 3 25 12 -7 7 -12 38 -12 70 0 58 0 58 30 58 29 0 30 -1 30 -51 0 -28 -5 -59 -10 -70 -10 -17 -7 -19 27 -19 29 0 34 3 25 12 -7 7 -12 35 -12 63 0 28 5 56 12 63 9 9 -6 12 -70 12 -48 0 -82 -4 -82 -10z"/>
<path d="M11380 620 c-12 -7 -12 -12 -2 -22 15 -15 16 -141 2 -169 -10 -17 -7 -19 27 -19 29 0 34 3 25 12 -7 7 -12 22 -12 35 0 19 5 23 33 23 20 0 41 8 50 18 19 21 22 83 7 113 -12 22 -59 26 -78 7 -9 -9 -12 -9 -12 0 0 14 -19 15 -40 2z m103 -70 c0 -17 -7 -39 -17 -48 -16 -16 -18 -16 -32 2 -20 28 -18 83 4 95 24 14 45 -10 45 -49z"/>
<path d="M11550 620 c0 -5 5 -10 10 -10 13 0 13 -86 0 -111 -10 -17 -7 -19 26 -19 28 0 34 3 26 13 -8 9 -2 21 19 45 l29 32 0 -25 c0 -15 -5 -35 -10 -46 -10 -17 -7 -19 27 -19 29 0 34 3 25 12 -7 7 -12 35 -12 63 0 28 5 56 12 63 9 9 4 12 -26 12 -31 0 -37 -3 -32 -16 4 -9 -4 -28 -19 -46 l-25 -30 0 34 c0 19 5 39 12 46 9 9 4 12 -25 12 -20 0 -37 -4 -37 -10z"/>
<path d="M11730 620 c0 -5 5 -10 10 -10 13 0 13 -86 -1 -111 -10 -19 -7 -20 53 -17 58 3 63 5 66 27 3 15 -3 30 -14 38 -10 8 -13 13 -5 13 8 0 11 11 9 33 -3 32 -4 32 -60 35 -36 2 -58 -1 -58 -8z m84 -34 c-3 -8 -12 -17 -20 -20 -10 -4 -14 3 -14 25 0 26 2 29 20 19 11 -6 17 -17 14 -24z m1 -53 c16 -16 16 -17 0 -30 -23 -16 -35 -8 -35 23 0 28 12 31 35 7z"/>
<path d="M11907 612 c-22 -24 -22 -95 -1 -116 18 -19 75 -21 92 -4 7 7 12 20 12 31 0 17 -2 17 -22 3 -28 -20 -33 -20 -52 0 -30 29 -20 44 29 44 37 0 45 3 45 18 0 10 -5 23 -12 30 -18 18 -73 14 -91 -6z m67 -18 c4 -10 -3 -14 -24 -14 -32 0 -37 9 -19 27 14 14 35 7 43 -13z"/>
<path d="M12050 622 c0 -4 4 -12 10 -18 13 -13 -5 -85 -24 -100 -9 -6 -16 -23 -16 -38 l0 -27 26 20 c34 27 74 27 109 -1 l28 -22 -7 35 c-16 74 -18 130 -6 144 11 13 3 15 -54 15 -36 0 -66 -4 -66 -8z m78 -64 l-3 -63 -34 -3 c-29 -3 -33 -1 -26 15 5 10 10 39 13 66 3 42 6 47 28 47 24 0 25 -2 22 -62z"/>
<path d="M12217 612 c-22 -24 -22 -95 -1 -116 18 -19 75 -21 92 -4 7 7 12 20 12 31 0 17 -2 17 -22 3 -28 -20 -33 -20 -52 0 -30 29 -20 44 29 44 37 0 45 3 45 18 0 10 -5 23 -12 30 -18 18 -73 14 -91 -6z m67 -18 c4 -10 -3 -14 -24 -14 -32 0 -37 9 -19 27 14 14 35 7 43 -13z"/>
<path d="M12350 620 c0 -5 5 -10 10 -10 13 0 13 -86 0 -111 -10 -17 -7 -19 27 -19 29 0 34 3 25 12 -7 7 -12 22 -12 35 0 19 5 23 30 23 32 0 38 -16 20 -51 -10 -17 -7 -19 27 -19 29 0 34 3 25 12 -7 7 -12 35 -12 63 0 28 5 56 12 63 9 9 4 12 -25 12 -20 0 -37 -4 -37 -10 0 -5 5 -10 10 -10 6 0 10 -11 10 -25 0 -21 -5 -25 -30 -25 -25 0 -30 4 -30 23 0 13 5 28 12 35 9 9 4 12 -25 12 -20 0 -37 -4 -37 -10z"/>
<path d="M12553 624 c-18 -8 -16 -44 1 -44 7 0 16 10 20 22 5 22 6 22 23 4 10 -10 14 -20 8 -22 -5 -2 -25 -13 -43 -24 -27 -16 -33 -26 -30 -48 3 -26 5 -27 67 -27 43 0 66 4 69 13 2 6 -3 12 -12 12 -11 0 -16 14 -18 58 l-3 57 -35 2 c-19 1 -41 0 -47 -3z m57 -84 c0 -22 -22 -36 -40 -25 -8 5 -6 13 6 26 22 25 34 24 34 -1z"/>
<path d="M1263 274 c-29 -29 -23 -47 6 -20 11 10 28 16 38 14 28 -5 28 -43 -1 -66 l-26 -20 29 -12 c37 -15 45 -43 21 -73 -16 -19 -22 -20 -39 -9 -30 18 -53 15 -49 -5 4 -21 43 -28 81 -14 53 20 71 86 33 123 -11 12 -11 17 0 33 18 25 18 31 -6 55 -27 27 -56 25 -87 -6z"/>
<path d="M1007 272 c-27 -29 -21 -49 6 -23 14 12 30 19 40 16 27 -11 28 -35 1 -60 l-26 -24 25 -12 c34 -15 40 -46 15 -71 -14 -14 -23 -17 -31 -9 -16 16 -47 13 -47 -4 0 -24 85 -20 110 5 24 24 27 82 5 100 -11 9 -13 16 -5 24 14 14 13 49 -2 64 -18 18 -73 14 -91 -6z"/>
<path d="M0 210 c0 -5 5 -10 10 -10 13 0 13 -86 0 -111 -10 -17 -7 -19 27 -19 29 0 34 3 25 12 -7 7 -12 22 -12 35 0 19 5 23 30 23 32 0 38 -16 20 -51 -10 -17 -7 -19 27 -19 29 0 34 3 25 12 -16 16 -16 110 0 126 9 9 4 12 -25 12 -20 0 -37 -4 -37 -10 0 -5 5 -10 10 -10 6 0 10 -11 10 -25 0 -21 -5 -25 -30 -25 -25 0 -30 4 -30 23 0 13 5 28 12 35 9 9 4 12 -25 12 -20 0 -37 -4 -37 -10z"/>
<path d="M203 214 c-18 -8 -16 -44 1 -44 7 0 16 10 20 22 5 22 6 22 23 4 10 -10 14 -20 8 -22 -5 -2 -25 -13 -43 -24 -27 -16 -33 -26 -30 -48 3 -26 5 -27 67 -27 43 0 66 4 69 13 2 6 -3 12 -12 12 -11 0 -16 14 -18 58 l-3 57 -35 2 c-19 1 -41 0 -47 -3z m57 -84 c0 -22 -22 -36 -40 -25 -8 5 -6 13 6 26 22 25 34 24 34 -1z"/>
<path d="M410 210 c-12 -7 -12 -12 -2 -22 15 -15 16 -141 2 -169 -10 -17 -7 -19 27 -19 29 0 34 3 25 12 -7 7 -12 22 -12 35 0 19 5 23 33 23 20 0 41 8 50 18 19 21 22 83 7 113 -12 22 -59 26 -78 7 -9 -9 -12 -9 -12 0 0 14 -19 15 -40 2z m103 -70 c0 -17 -7 -39 -17 -48 -16 -16 -18 -16 -32 2 -20 28 -18 83 4 95 24 14 45 -10 45 -49z"/>
<path d="M580 210 c0 -5 5 -10 10 -10 13 0 13 -86 0 -111 -10 -17 -7 -19 26 -19 28 0 34 3 26 13 -8 9 -2 21 19 45 l29 32 0 -25 c0 -15 -5 -35 -10 -46 -10 -17 -7 -19 27 -19 29 0 34 3 25 12 -7 7 -12 35 -12 63 0 28 5 56 12 63 9 9 4 12 -26 12 -31 0 -37 -3 -32 -16 4 -9 -4 -28 -19 -46 l-25 -30 0 34 c0 19 5 39 12 46 9 9 4 12 -25 12 -20 0 -37 -4 -37 -10z"/>
<path d="M777 202 c-23 -26 -22 -94 1 -115 29 -27 80 -22 94 8 14 31 4 43 -17 21 -20 -20 -29 -20 -49 0 -23 22 -20 71 4 84 15 8 21 6 30 -10 6 -11 17 -20 25 -20 16 0 18 9 9 34 -9 23 -76 21 -97 -2z"/>
<path d="M920 85 c0 -8 7 -15 15 -15 8 0 15 7 15 15 0 8 -7 15 -15 15 -8 0 -15 -7 -15 -15z"/>
<path d="M1170 85 c0 -8 7 -15 15 -15 8 0 15 7 15 15 0 8 -7 15 -15 15 -8 0 -15 -7 -15 -15z"/>
</g>
</svg>