<?xml version="1.0" encoding="UTF-8" standalone="no"?>
<!DOCTYPE svg PUBLIC "-//W3C//DTD SVG 20010904//EN" "http://www.w3.org/TR/2001/REC-SVG-20010904/DTD/svg10.dtd">
<svg version="1.0" xmlns="http://www.w3.org/2000/svg" width="1194.000000pt" height="299.000000pt" viewBox="0 0 1194.000000 299.000000" preserveAspectRatio="xMidYMid meet">
<metadata>
Created by potrace 1.12, written by Peter Selinger 2001-2015
</metadata>
<g transform="translate(0.000000,299.000000) scale(0.100000,-0.100000)" fill="#000000" stroke="none">
<path d="M26 2969 c-14 -11 -26 -30 -26 -41 0 -20 2 -19 25 6 20 22 28 25 44 16 11 -5 23 -15 26 -20 12 -19 -15 -76 -55 -115 -22 -22 -40 -43 -40 -47 0 -4 32 -8 70 -8 39 0 70 4 70 9 0 5 3 18 6 28 6 15 4 16 -7 6 -7 -7 -30 -13 -52 -13 l-39 0 41 46 c49 56 57 112 19 138 -30 21 -50 20 -82 -5z"/>
<path d="M11372 2983 c-36 -4 -46 -10 -62 -36 -25 -40 -27 -132 -4 -165 20 -29 85 -31 114 -2 24 24 26 77 4 109 -15 20 -23 23 -65 19 -44 -5 -47 -3 -38 13 5 10 25 21 47 24 20 3 43 10 51 14 20 10 26 31 9 29 -7 -1 -32 -3 -56 -5z m13 -103 c35 -39 13 -120 -28 -104 -9 3 -21 21 -27 40 -10 29 -9 39 4 59 20 30 28 31 51 5z"/>
<path d="M513 2962 c24 -26 24 -158 0 -184 -15 -17 -14 -18 31 -18 43 0 46 1 32 16 -9 8 -16 31 -16 50 0 33 1 34 38 34 46 0 62 14 62 56 0 50 -21 64 -97 64 -63 0 -65 -1 -50 -18z m91 -8 c22 -22 20 -61 -4 -74 -29 -15 -40 -5 -40 39 0 53 15 65 44 35z"/>
<path d="M2902 2958 c5 -39 98 -37 98 2 0 26 -17 25 -41 -2 l-19 -23 -6 23 c-3 12 -13 22 -21 22 -9 0 -13 -8 -11 -22z"/>
<path d="M4834 2965 c-72 -50 -70 -212 3 -260 35 -23 40 -11 10 24 -45 54 -44 173 3 216 35 32 22 48 -16 20z"/>
<path d="M4903 2969 c14 -8 17 -25 17 -99 0 -74 -3 -91 -17 -99 -14 -8 -5 -10 36 -11 47 0 52 2 37 13 -13 9 -17 23 -14 52 l3 40 40 -52 c33 -43 46 -52 72 -52 l32 -1 -39 43 c-45 48 -48 57 -20 75 27 17 28 77 1 92 -27 14 -173 13 -148 -1z m121 -31 c15 -25 -3 -52 -38 -56 -24 -3 -26 -1 -26 38 0 39 2 41 26 38 15 -2 32 -11 38 -20z"/>
<path d="M5120 2974 c0 -3 11 -19 24 -34 44 -53 42 -166 -5 -216 -27 -29 -19 -43 14 -21 48 31 73 134 48 199 -14 38 -81 97 -81 72z"/>
<path d="M10293 2969 c14 -8 17 -24 17 -90 0 -72 3 -82 25 -104 15 -16 36 -25 54 -25 76 0 101 35 101 146 0 49 4 65 18 73 13 8 6 10 -33 10 -39 0 -46 -2 -32 -10 14 -8 17 -24 17 -89 0 -70 -2 -81 -22 -94 -30 -21 -44 -20 -68 4 -28 28 -30 163 -2 179 13 8 4 10 -38 10 -42 0 -51 -2 -37 -10z"/>
<path d="M10993 2973 c15 -4 17 -18 17 -103 0 -85 -2 -99 -17 -103 -10 -3 9 -5 42 -5 33 0 52 2 43 5 -16 4 -18 18 -18 103 0 85 2 99 18 103 9 3 -10 5 -43 5 -33 0 -52 -2 -42 -5z"/>
<path d="M11234 2965 c-72 -50 -70 -212 3 -260 35 -23 40 -11 10 24 -45 54 -44 173 3 216 35 32 22 48 -16 20z"/>
<path d="M697 2892 c-22 -24 -22 -95 -1 -116 18 -19 75 -21 92 -4 7 7 12 20 12 31 0 17 -2 17 -22 3 -28 -20 -33 -20 -52 0 -30 29 -20 44 29 44 37 0 45 3 45 18 0 10 -5 23 -12 30 -18 18 -73 14 -91 -6z m67 -18 c4 -10 -3 -14 -24 -14 -32 0 -37 9 -19 27 14 14 35 7 43 -13z"/>
<path d="M830 2900 c0 -5 5 -10 10 -10 13 0 13 -86 0 -111 -10 -17 -7 -19 27 -19 29 0 34 3 25 12 -7 7 -12 38 -12 70 0 61 13 74 44 43 20 -20 26 -19 26 5 0 18 -7 20 -60 20 -33 0 -60 -4 -60 -10z"/>
<path d="M960 2901 c0 -5 4 -11 9 -13 5 -1 22 -30 39 -63 34 -70 30 -105 -13 -105 -16 0 -25 -6 -25 -15 0 -18 43 -20 58 -2 6 6 25 48 42 92 17 44 39 88 47 98 15 16 14 17 -17 17 -25 0 -30 -3 -23 -12 7 -9 5 -25 -6 -52 l-17 -39 -17 44 c-13 33 -14 45 -4 51 7 4 -6 8 -30 8 -24 0 -43 -4 -43 -9z"/>
<path d="M1150 2900 c0 -5 5 -10 10 -10 11 0 13 -42 4 -77 -4 -14 -14 -23 -25 -23 -11 0 -19 -7 -19 -16 0 -11 8 -14 28 -12 26 3 27 5 30 71 3 64 4 67 27 67 23 0 25 -4 25 -51 0 -28 -5 -59 -10 -70 -10 -17 -7 -19 27 -19 29 0 34 3 25 12 -16 16 -16 110 0 126 9 9 -3 12 -55 12 -38 0 -67 -4 -67 -10z"/>
<path d="M1300 2900 c0 -5 5 -10 10 -10 13 0 13 -86 0 -111 -10 -17 -7 -19 26 -19 28 0 34 3 26 13 -8 9 -2 21 19 45 l29 32 0 -25 c0 -15 -5 -35 -10 -46 -10 -17 -7 -19 27 -19 29 0 34 3 25 12 -7 7 -12 35 -12 63 0 28 5 56 12 63 9 9 4 12 -26 12 -31 0 -37 -3 -32 -16 4 -9 -4 -28 -19 -46 l-25 -30 0 34 c0 19 5 39 12 46 9 9 4 12 -25 12 -20 0 -37 -4 -37 -10z"/>
<path d="M1480 2900 c-12 -7 -12 -12 -2 -22 15 -15 16 -141 2 -169 -10 -17 -7 -19 27 -19 29 0 34 3 25 12 -7 7 -12 22 -12 35 0 19 5 23 33 23 20 0 41 8 50 18 19 21 22 83 7 113 -12 22 -59 26 -78 7 -9 -9 -12 -9 -12 0 0 14 -19 15 -40 2z m103 -70 c0 -17 -7 -39 -17 -48 -16 -16 -18 -16 -32 2 -20 28 -18 83 4 95 24 14 45 -10 45 -49z"/>
<path d="M1640 2901 c0 -5 4 -11 9 -13 5 -1 22 -30 39 -63 34 -70 30 -105 -13 -105 -16 0 -25 -6 -25 -15 0 -18 43 -20 58 -2 6 6 25 48 42 92 17 44 39 88 47 98 15 16 14 17 -17 17 -25 0 -30 -3 -23 -12 7 -9 5 -25 -6 -52 l-17 -39 -17 44 c-13 33 -14 45 -4 51 7 4 -6 8 -30 8 -24 0 -43 -4 -43 -9z"/>
<path d="M1827 2903 c-12 -12 -7 -50 8 -63 12 -10 11 -17 -11 -46 l-26 -34 23 0 c16 0 32 12 49 37 18 26 26 32 28 20 2 -9 -2 -25 -8 -36 -10 -19 -8 -21 27 -21 29 0 34 3 25 12 -7 7 -12 35 -12 63 0 28 5 56 12 63 9 9 -1 12 -48 12 -34 0 -64 -3 -67 -7z m73 -39 c0 -28 -12 -31 -35 -7 -16 16 -16 17 0 30 23 16 35 8 35 -23z"/>
<path d="M2040 2900 c-12 -7 -12 -12 -2 -22 15 -15 16 -141 2 -169 -10 -17 -7 -19 27 -19 29 0 34 3 25 12 -7 7 -12 22 -12 35 0 19 5 23 33 23 20 0 41 8 50 18 19 21 22 83 7 113 -12 22 -59 26 -78 7 -9 -9 -12 -9 -12 0 0 14 -19 15 -40 2z m103 -70 c0 -17 -7 -39 -17 -48 -16 -16 -18 -16 -32 2 -20 28 -18 83 4 95 24 14 45 -10 45 -49z"/>
<path d="M2210 2901 c0 -5 4 -11 9 -13 5 -1 22 -30 39 -63 34 -70 30 -105 -13 -105 -16 0 -25 -6 -25 -15 0 -18 43 -20 58 -2 6 6 25 48 42 92 17 44 36 85 42 92 17 21 38 3 38 -33 0 -33 1 -34 40 -34 41 0 47 -8 30 -41 -10 -17 -7 -19 27 -19 29 0 34 3 25 12 -16 16 -16 110 0 126 9 9 4 12 -25 12 -20 0 -37 -4 -37 -10 0 -5 5 -10 10 -10 6 0 10 -11 10 -24 0 -24 -23 -41 -41 -30 -13 8 -11 48 3 62 9 9 -3 12 -56 12 -53 0 -66 -3 -59 -12 7 -9 5 -25 -6 -52 l-17 -39 -17 44 c-13 33 -14 45 -4 51 7 4 -6 8 -30 8 -24 0 -43 -4 -43 -9z"/>
<path d="M2540 2900 c0 -5 5 -10 10 -10 13 0 13 -86 0 -111 -10 -17 -7 -19 27 -19 29 0 34 3 25 12 -7 7 -12 26 -12 43 l0 30 23 -40 c16 -29 30 -41 50 -43 l28 -3 -31 43 c-33 47 -32 78 1 78 11 0 19 7 19 16 0 24 -43 13 -55 -13 -5 -13 -15 -25 -22 -27 -17 -7 -17 26 -1 42 9 9 4 12 -25 12 -20 0 -37 -4 -37 -10z"/>
<path d="M2716 2888 c-22 -31 -20 -91 2 -111 28 -25 87 -22 106 5 22 31 20 91 -2 111 -28 25 -87 22 -106 -5z m84 -32 c15 -47 -5 -91 -36 -79 -18 7 -36 66 -28 89 17 43 48 38 64 -10z"/>
<path d="M2870 2900 c0 -5 5 -10 10 -10 13 0 13 -86 0 -111 -10 -17 -7 -19 26 -19 28 0 34 3 26 13 -8 9 -2 21 19 45 l29 32 0 -25 c0 -15 -5 -35 -10 -46 -10 -17 -7 -19 27 -19 29 0 34 3 25 12 -7 7 -12 35 -12 63 0 28 5 56 12 63 9 9 4 12 -26 12 -31 0 -37 -3 -32 -16 4 -9 -4 -28 -19 -46 l-25 -30 0 34 c0 19 5 39 12 46 9 9 4 12 -25 12 -20 0 -37 -4 -37 -10z"/>
<path d="M3130 2900 c-12 -7 -12 -12 -2 -22 15 -15 16 -141 2 -169 -10 -17 -7 -19 27 -19 29 0 34 3 25 12 -7 7 -12 22 -12 35 0 19 5 23 33 23 20 0 41 8 50 18 19 21 22 83 7 113 -12 22 -59 26 -78 7 -9 -9 -12 -9 -12 0 0 14 -19 15 -40 2z m103 -70 c0 -17 -7 -39 -17 -48 -16 -16 -18 -16 -32 2 -20 28 -18 83 4 95 24 14 45 -10 45 -49z"/>
<path d="M3317 2892 c-22 -24 -22 -95 -1 -116 18 -19 75 -21 92 -4 7 7 12 20 12 31 0 17 -2 17 -22 3 -28 -20 -33 -20 -52 0 -30 29 -20 44 29 44 37 0 45 3 45 18 0 10 -5 23 -12 30 -18 18 -73 14 -91 -6z m67 -18 c4 -10 -3 -14 -24 -14 -32 0 -37 9 -19 27 14 14 35 7 43 -13z"/>
<path d="M3450 2900 c0 -5 5 -10 10 -10 13 0 13 -86 0 -111 -10 -17 -7 -19 27 -19 29 0 34 3 25 12 -7 7 -12 38 -12 70 0 61 13 74 44 43 20 -20 26 -19 26 5 0 18 -7 20 -60 20 -33 0 -60 -4 -60 -10z"/>
<path d="M3580 2901 c0 -5 4 -11 9 -13 5 -1 22 -30 39 -63 34 -70 30 -105 -13 -105 -16 0 -25 -6 -25 -15 0 -18 43 -20 58 -2 6 6 25 48 42 92 17 44 39 88 47 98 15 16 14 17 -17 17 -25 0 -30 -3 -23 -12 7 -9 5 -25 -6 -52 l-17 -39 -17 44 c-13 33 -14 45 -4 51 7 4 -6 8 -30 8 -24 0 -43 -4 -43 -9z"/>
<path d="M3770 2900 c0 -5 5 -10 10 -10 11 0 13 -42 4 -77 -4 -14 -14 -23 -25 -23 -11 0 -19 -7 -19 -16 0 -11 8 -14 28 -12 26 3 27 5 30 71 3 64 4 67 27 67 23 0 25 -4 25 -51 0 -28 -5 -59 -10 -70 -10 -17 -7 -19 27 -19 29 0 34 3 25 12 -7 7 -12 35 -12 63 0 28 5 56 12 63 9 9 -3 12 -55 12 -38 0 -67 -4 -67 -10z"/>
<path d="M3937 2903 c-12 -12 -7 -50 8 -63 12 -10 11 -17 -11 -46 l-26 -34 23 0 c16 0 32 12 49 37 18 26 26 32 28 20 2 -9 -2 -25 -8 -36 -10 -19 -8 -21 27 -21 29 0 34 3 25 12 -14 14 -16 114 -2 123 6 3 10 -1 10 -9 0 -20 16 -21 24 -1 3 8 12 15 21 15 11 0 15 -12 15 -51 0 -28 -5 -59 -10 -70 -10 -17 -7 -19 27 -19 29 0 34 3 25 12 -14 14 -16 128 -3 128 5 0 16 -7 25 -15 20 -20 26 -19 26 5 0 19 -7 20 -133 20 -74 0 -137 -3 -140 -7z m73 -39 c0 -28 -12 -31 -35 -7 -16 16 -16 17 0 30 23 16 35 8 35 -23z"/>
<path d="M4236 2888 c-22 -31 -20 -91 2 -111 28 -25 87 -22 106 5 22 31 20 91 -2 111 -28 25 -87 22 -106 -5z m84 -32 c15 -47 -5 -91 -36 -79 -18 7 -36 66 -28 89 17 43 48 38 64 -10z"/>
<path d="M4390 2900 c-12 -7 -12 -12 -2 -22 15 -15 16 -141 2 -169 -10 -17 -7 -19 27 -19 29 0 34 3 25 12 -7 7 -12 22 -12 35 0 19 5 23 33 23 20 0 41 8 50 18 19 21 22 83 7 113 -12 22 -59 26 -78 7 -9 -9 -12 -9 -12 0 0 14 -19 15 -40 2z m103 -70 c0 -17 -7 -39 -17 -48 -16 -16 -18 -16 -32 2 -20 28 -18 83 4 95 24 14 45 -10 45 -49z"/>
<path d="M4573 2904 c-18 -8 -16 -44 1 -44 7 0 16 10 20 22 5 22 6 22 23 4 10 -10 14 -20 8 -22 -5 -2 -25 -13 -43 -24 -27 -16 -33 -26 -30 -48 3 -26 5 -27 67 -27 43 0 66 4 69 13 2 6 -3 12 -12 12 -11 0 -16 14 -18 58 l-3 57 -35 2 c-19 1 -41 0 -47 -3z m57 -84 c0 -22 -22 -36 -40 -25 -8 5 -6 13 6 26 22 25 34 24 34 -1z"/>
<path d="M5343 2904 c-18 -8 -16 -44 1 -44 7 0 16 10 20 22 5 22 6 22 23 4 10 -10 14 -20 8 -22 -5 -2 -25 -13 -43 -24 -27 -16 -33 -26 -30 -48 3 -26 5 -27 67 -27 43 0 66 4 69 13 2 6 -3 12 -12 12 -11 0 -16 14 -18 58 l-3 57 -35 2 c-19 1 -41 0 -47 -3z m57 -84 c0 -22 -22 -36 -40 -25 -8 5 -6 13 6 26 22 25 34 24 34 -1z"/>
<path d="M5460 2900 c0 -5 5 -10 10 -10 13 0 13 -86 0 -111 -10 -17 -7 -19 27 -19 29 0 34 3 25 12 -7 7 -12 26 -12 43 l0 30 23 -40 c16 -29 30 -41 50 -43 l28 -3 -31 43 c-33 47 -32 78 1 78 11 0 19 7 19 16 0 24 -43 13 -55 -13 -5 -13 -15 -25 -22 -27 -17 -7 -17 26 -1 42 9 9 4 12 -25 12 -20 0 -37 -4 -37 -10z"/>
<path d="M5610 2890 c0 -23 15 -27 24 -5 3 8 12 15 21 15 11 0 15 -12 15 -51 0 -28 -5 -59 -10 -70 -10 -17 -7 -19 27 -19 29 0 34 3 25 12 -14 14 -16 128 -3 128 5 0 16 -7 25 -15 20 -20 26 -19 26 5 0 18 -7 20 -75 20 -68 0 -75 -2 -75 -20z"/>
<path d="M5770 2900 c0 -5 5 -10 10 -10 13 0 13 -86 0 -111 -10 -17 -7 -19 26 -19 28 0 34 3 26 13 -8 9 -2 21 19 45 l29 32 0 -25 c0 -15 -5 -35 -10 -46 -10 -17 -7 -19 27 -19 29 0 34 3 25 12 -7 7 -12 35 -12 63 0 28 5 56 12 63 9 9 4 12 -26 12 -31 0 -37 -3 -32 -16 4 -9 -4 -28 -19 -46 l-25 -30 0 34 c0 19 5 39 12 46 9 9 4 12 -25 12 -20 0 -37 -4 -37 -10z"/>
<path d="M5950 2900 c0 -5 5 -10 10 -10 13 0 13 -86 -1 -111 -10 -19 -7 -20 53 -17 58 3 63 5 66 27 3 15 -3 30 -14 38 -10 8 -13 13 -5 13 8 0 11 11 9 33 -3 32 -4 32 -60 35 -36 2 -58 -1 -58 -8z m84 -34 c-3 -8 -12 -17 -20 -20 -10 -4 -14 3 -14 25 0 26 2 29 20 19 11 -6 17 -17 14 -24z m1 -53 c16 -16 16 -17 0 -30 -23 -16 -35 -8 -35 23 0 28 12 31 35 7z"/>
<path d="M6110 2900 c0 -5 5 -10 10 -10 13 0 13 -86 0 -111 -10 -17 -7 -19 27 -19 29 0 34 3 25 12 -7 7 -12 22 -12 35 0 19 5 23 30 23 32 0 38 -16 20 -51 -10 -17 -7 -19 27 -19 29 0 34 3 25 12 -7 7 -12 35 -12 63 0 28 5 56 12 63 9 9 4 12 -25 12 -20 0 -37 -4 -37 -10 0 -5 5 -10 10 -10 6 0 10 -11 10 -25 0 -21 -5 -25 -30 -25 -25 0 -30 4 -30 23 0 13 5 28 12 35 9 9 4 12 -25 12 -20 0 -37 -4 -37 -10z"/>
<path d="M6306 2888 c-22 -31 -20 -91 2 -111 28 -25 87 -22 106 5 22 31 20 91 -2 111 -28 25 -87 22 -106 -5z m84 -32 c15 -47 -5 -91 -36 -79 -18 7 -36 66 -28 89 17 43 48 38 64 -10z"/>
<path d="M6467 2892 c-22 -24 -22 -95 -1 -116 18 -19 75 -21 92 -4 7 7 12 20 12 31 0 17 -2 17 -22 3 -28 -20 -33 -20 -52 0 -30 29 -20 44 29 44 37 0 45 3 45 18 0 10 -5 23 -12 30 -18 18 -73 14 -91 -6z m67 -18 c4 -10 -3 -14 -24 -14 -32 0 -37 9 -19 27 14 14 35 7 43 -13z"/>
<path d="M6697 2892 c-23 -26 -22 -94 1 -115 29 -27 80 -22 94 8 14 31 4 43 -17 21 -20 -20 -29 -20 -49 0 -23 22 -20 71 4 84 15 8 21 6 30 -10 6 -11 17 -20 25 -20 16 0 18 9 9 34 -9 23 -76 21 -97 -2z"/>
<path d="M6846 2888 c-22 -31 -20 -91 2 -111 28 -25 87 -22 106 5 22 31 20 91 -2 111 -28 25 -87 22 -106 -5z m84 -32 c15 -47 -5 -91 -36 -79 -18 7 -36 66 -28 89 17 43 48 38 64 -10z"/>
<path d="M7000 2900 c0 -5 5 -10 10 -10 13 0 13 -86 0 -111 -10 -17 -7 -19 27 -19 29 0 34 3 25 12 -7 7 -12 38 -12 70 0 58 0 58 30 58 29 0 30 -1 30 -51 0 -28 -5 -59 -10 -70 -10 -17 -7 -19 27 -19 29 0 34 3 25 12 -7 7 -12 35 -12 63 0 28 5 56 12 63 9 9 -6 12 -70 12 -48 0 -82 -4 -82 -10z"/>
<path d="M7180 2900 c-12 -7 -12 -12 -2 -22 15 -15 16 -141 2 -169 -10 -17 -7 -19 27 -19 29 0 34 3 25 12 -7 7 -12 22 -12 35 0 19 5 23 33 23 20 0 41 8 50 18 19 21 22 83 7 113 -12 22 -59 26 -78 7 -9 -9 -12 -9 -12 0 0 14 -19 15 -40 2z m103 -70 c0 -17 -7 -39 -17 -48 -16 -16 -18 -16 -32 2 -20 28 -18 83 4 95 24 14 45 -10 45 -49z"/>
<path d="M7356 2888 c-22 -31 -20 -91 2 -111 28 -25 87 -22 106 5 22 31 20 91 -2 111 -28 25 -87 22 -106 -5z m84 -32 c15 -47 -5 -91 -36 -79 -18 7 -36 66 -28 89 17 43 48 38 64 -10z"/>
<path d="M7500 2890 c0 -23 15 -27 24 -5 3 8 12 15 21 15 11 0 15 -12 15 -51 0 -28 -5 -59 -10 -70 -10 -17 -7 -19 27 -19 29 0 34 3 25 12 -14 14 -16 128 -3 128 5 0 16 -7 25 -15 20 -20 26 -19 26 5 0 18 -7 20 -75 20 -68 0 -75 -2 -75 -20z"/>
<path d="M7660 2900 c0 -5 5 -10 10 -10 13 0 13 -86 0 -111 -10 -17 -7 -19 26 -19 28 0 34 3 26 13 -8 9 -2 21 19 45 l29 32 0 -25 c0 -15 -5 -35 -10 -46 -10 -17 -7 -19 27 -19 29 0 34 3 25 12 -7 7 -12 35 -12 63 0 28 5 56 12 63 9 9 4 12 -26 12 -31 0 -37 -3 -32 -16 4 -9 -4 -28 -19 -46 l-25 -30 0 34 c0 19 5 39 12 46 9 9 4 12 -25 12 -20 0 -37 -4 -37 -10z"/>
<path d="M7840 2900 c0 -5 5 -10 10 -10 13 0 13 -86 -1 -111 -10 -19 -7 -20 53 -17 58 3 63 5 66 27 3 15 -3 30 -14 38 -10 8 -13 13 -5 13 8 0 11 11 9 33 -3 32 -4 32 -60 35 -36 2 -58 -1 -58 -8z m84 -34 c-3 -8 -12 -17 -20 -20 -10 -4 -14 3 -14 25 0 26 2 29 20 19 11 -6 17 -17 14 -24z m1 -53 c16 -16 16 -17 0 -30 -23 -16 -35 -8 -35 23 0 28 12 31 35 7z"/>
<path d="M8010 2900 c0 -5 5 -10 10 -10 11 0 13 -42 4 -77 -4 -14 -14 -23 -25 -23 -11 0 -19 -7 -19 -16 0 -11 8 -14 28 -12 26 3 27 5 30 71 3 64 4 67 27 67 23 0 25 -4 25 -51 0 -28 -5 -59 -10 -70 -10 -17 -7 -19 27 -19 29 0 34 3 25 12 -7 7 -12 35 -12 63 0 28 5 56 12 63 9 9 -3 12 -55 12 -38 0 -67 -4 -67 -10z"/>
<path d="M8177 2892 c-22 -24 -22 -95 -1 -116 18 -19 75 -21 92 -4 7 7 12 20 12 31 0 17 -2 17 -22 3 -28 -20 -33 -20 -52 0 -30 29 -20 44 29 44 37 0 45 3 45 18 0 10 -5 23 -12 30 -18 18 -73 14 -91 -6z m67 -18 c4 -10 -3 -14 -24 -14 -32 0 -37 9 -19 27 14 14 35 7 43 -13z"/>
<path d="M8310 2900 c0 -5 5 -10 10 -10 13 0 13 -86 0 -111 -10 -17 -7 -19 27 -19 29 0 34 3 25 12 -7 7 -12 22 -12 35 0 19 5 23 30 23 32 0 38 -16 20 -51 -10 -17 -7 -19 27 -19 29 0 34 3 25 12 -7 7 -12 35 -12 63 0 28 5 56 12 63 9 9 4 12 -25 12 -20 0 -37 -4 -37 -10 0 -5 5 -10 10 -10 6 0 10 -11 10 -25 0 -21 -5 -25 -30 -25 -25 0 -30 4 -30 23 0 13 5 28 12 35 9 9 4 12 -25 12 -20 0 -37 -4 -37 -10z"/>
<path d="M8480 2900 c0 -5 5 -10 10 -10 13 0 13 -86 0 -111 -10 -17 -7 -19 26 -19 28 0 34 3 26 13 -8 9 -2 21 19 45 l29 32 0 -25 c0 -15 -5 -35 -10 -46 -10 -17 -7 -19 27 -19 29 0 34 3 25 12 -7 7 -12 35 -12 63 0 28 5 56 12 63 9 9 4 12 -26 12 -31 0 -37 -3 -32 -16 4 -9 -4 -28 -19 -46 l-25 -30 0 34 c0 19 5 39 12 46 9 9 4 12 -25 12 -20 0 -37 -4 -37 -10z"/>
<path d="M8677 2892 c-22 -24 -22 -95 -1 -116 18 -19 75 -21 92 -4 7 7 12 20 12 31 0 17 -2 17 -22 3 -28 -20 -33 -20 -52 0 -30 29 -20 44 29 44 37 0 45 3 45 18 0 10 -5 23 -12 30 -18 18 -73 14 -91 -6z m67 -18 c4 -10 -3 -14 -24 -14 -32 0 -37 9 -19 27 14 14 35 7 43 -13z"/>
<path d="M8890 2900 c0 -5 5 -10 10 -10 13 0 13 -86 0 -111 -10 -17 -7 -19 26 -19 28 0 34 3 26 13 -8 9 -2 21 19 45 l29 32 0 -25 c0 -15 -5 -35 -10 -46 -10 -17 -7 -19 27 -19 29 0 34 3 25 12 -7 7 -12 35 -12 63 0 28 5 56 12 63 9 9 4 12 -26 12 -31 0 -37 -3 -32 -16 4 -9 -4 -28 -19 -46 l-25 -30 0 34 c0 19 5 39 12 46 9 9 4 12 -25 12 -20 0 -37 -4 -37 -10z"/>
<path d="M9070 2886 c0 -31 11 -33 28 -5 11 17 16 18 28 8 13 -10 13 -15 0 -34 -13 -20 -12 -24 7 -40 19 -17 20 -18 3 -31 -13 -9 -25 -10 -43 -3 -29 11 -45 3 -23 -11 17 -11 71 -13 94 -4 20 8 21 53 1 60 -12 5 -13 10 -4 20 6 7 9 23 7 36 -3 20 -10 23 -50 26 -46 3 -48 2 -48 -22z"/>
<path d="M9200 2900 c0 -5 5 -10 10 -10 13 0 13 -86 0 -111 -9 -17 -7 -19 16 -19 22 0 24 3 15 14 -7 8 -11 32 -9 53 l3 38 19 -52 c11 -29 25 -53 31 -53 6 0 20 24 31 53 18 50 19 51 22 20 2 -18 -2 -41 -8 -53 -10 -18 -8 -20 27 -20 29 0 34 3 25 12 -7 7 -12 35 -12 63 0 28 5 56 12 63 9 9 5 12 -19 12 -27 0 -32 -5 -50 -50 l-19 -51 -18 51 c-16 44 -21 50 -47 50 -16 0 -29 -4 -29 -10z"/>
<path d="M9427 2892 c-22 -24 -22 -95 -1 -116 18 -19 75 -21 92 -4 7 7 12 20 12 31 0 17 -2 17 -22 3 -28 -20 -33 -20 -52 0 -30 29 -20 44 29 44 37 0 45 3 45 18 0 10 -5 23 -12 30 -18 18 -73 14 -91 -6z m67 -18 c4 -10 -3 -14 -24 -14 -32 0 -37 9 -19 27 14 14 35 7 43 -13z"/>
<path d="M9560 2900 c-12 -7 -12 -12 -2 -22 15 -15 16 -141 2 -169 -10 -17 -7 -19 27 -19 29 0 34 3 25 12 -7 7 -12 22 -12 35 0 19 5 23 33 23 20 0 41 8 50 18 19 21 22 83 7 113 -12 22 -59 26 -78 7 -9 -9 -12 -9 -12 0 0 14 -19 15 -40 2z m103 -70 c0 -17 -7 -39 -17 -48 -16 -16 -18 -16 -32 2 -20 28 -18 83 4 95 24 14 45 -10 45 -49z"/>
<path d="M9730 2900 c0 -5 5 -10 10 -10 13 0 13 -86 0 -111 -10 -17 -7 -19 26 -19 28 0 34 3 26 13 -8 9 -2 21 19 45 l29 32 0 -25 c0 -15 -5 -35 -10 -46 -10 -17 -7 -19 27 -19 29 0 34 3 25 12 -7 7 -12 35 -12 63 0 28 5 56 12 63 9 9 4 12 -26 12 -31 0 -37 -3 -32 -16 4 -9 -4 -28 -19 -46 l-25 -30 0 34 c0 19 5 39 12 46 9 9 4 12 -25 12 -20 0 -37 -4 -37 -10z"/>
<path d="M9900 2890 c0 -23 15 -27 24 -5 3 8 12 15 21 15 11 0 15 -12 15 -51 0 -28 -5 -59 -10 -70 -10 -17 -7 -19 27 -19 29 0 34 3 25 12 -14 14 -16 128 -3 128 5 0 17 -8 27 -17 13 -13 19 -14 22 -5 2 6 8 12 13 12 12 0 11 -87 -1 -111 -10 -18 -7 -19 39 -19 67 0 81 7 81 40 0 29 -15 40 -56 40 -18 0 -24 5 -24 23 0 13 5 28 12 35 9 9 -13 12 -100 12 -105 0 -112 -1 -112 -20z m235 -77 c16 -16 16 -17 0 -30 -23 -16 -35 -8 -35 23 0 28 12 31 35 7z"/>
<path d="M10730 2900 c0 -5 5 -10 10 -10 13 0 13 -86 0 -111 -10 -17 -7 -19 26 -19 28 0 34 3 26 13 -8 9 -2 21 19 45 l29 32 0 -25 c0 -15 -5 -35 -10 -46 -10 -17 -7 -19 27 -19 29 0 34 3 25 12 -7 7 -12 35 -12 63 0 28 5 56 12 63 9 9 4 12 -26 12 -31 0 -37 -3 -32 -16 4 -9 -4 -28 -19 -46 l-25 -30 0 34 c0 19 5 39 12 46 9 9 4 12 -25 12 -20 0 -37 -4 -37 -10z"/>
<path d="M11480 2900 c0 -5 5 -10 10 -10 11 0 13 -42 4 -77 -4 -14 -14 -23 -25 -23 -11 0 -19 -7 -19 -16 0 -11 8 -14 28 -12 26 3 27 5 30 71 3 64 4 67 27 67 23 0 25 -4 25 -51 0 -28 -5 -59 -10 -70 -10 -17 -7 -19 27 -19 29 0 34 3 25 12 -7 7 -12 35 -12 63 0 28 5 56 12 63 9 9 -3 12 -55 12 -38 0 -67 -4 -67 -10z"/>
<path d="M11646 2888 c-22 -31 -20 -91 2 -111 28 -25 87 -22 106 5 22 31 20 91 -2 111 -28 25 -87 22 -106 -5z m84 -32 c15 -47 -5 -91 -36 -79 -18 7 -36 66 -28 89 17 43 48 38 64 -10z"/>
<path d="M11790 2900 c0 -5 5 -10 10 -10 13 0 13 -86 0 -111 -10 -17 -7 -19 27 -19 29 0 34 3 25 12 -7 7 -12 26 -12 43 l0 30 23 -40 c16 -29 30 -41 50 -43 l28 -3 -31 43 c-33 47 -32 78 1 78 11 0 19 7 19 16 0 24 -43 13 -55 -13 -5 -13 -15 -25 -22 -27 -17 -7 -17 26 -1 42 9 9 4 12 -25 12 -20 0 -37 -4 -37 -10z"/>
<path d="M10560 2885 c-14 -8 -19 -14 -12 -15 8 0 12 -19 12 -59 0 -38 -4 -61 -12 -64 -7 -3 5 -6 27 -6 22 0 35 3 28 7 -7 4 -13 37 -15 79 l-3 71 -25 -13z"/>
<path d="M173 2784 c-8 -21 13 -42 28 -27 13 13 5 43 -11 43 -6 0 -13 -7 -17 -16z"/>
<path d="M3802 2593 c-36 -4 -46 -10 -62 -36 -25 -40 -27 -132 -4 -165 20 -29 85 -31 114 -2 24 24 26 77 4 109 -15 20 -23 23 -65 19 -44 -5 -47 -3 -38 13 5 10 25 21 47 24 20 3 43 10 51 14 20 10 26 31 9 29 -7 -1 -32 -3 -56 -5z m13 -103 c35 -39 13 -120 -28 -104 -9 3 -21 21 -27 40 -10 29 -9 39 4 59 20 30 28 31 51 5z"/>
<path d="M513 2572 c24 -26 24 -158 0 -184 -15 -17 -14 -18 32 -18 45 0 47 1 32 18 -14 16 -11 22 34 75 l49 59 0 -58 c0 -39 -5 -63 -17 -76 -15 -17 -14 -18 32 -18 46 0 47 1 32 18 -24 26 -24 158 0 184 15 17 14 18 -32 18 -45 0 -47 -1 -32 -17 14 -17 11 -23 -34 -76 l-49 -59 0 58 c0 39 5 63 17 76 15 17 14 18 -32 18 -46 0 -47 -1 -32 -18z"/>
<path d="M753 2572 c24 -26 24 -158 0 -184 -15 -17 -14 -18 32 -18 46 0 47 1 32 18 -13 14 -17 39 -17 105 l0 87 50 0 50 0 0 -87 c0 -66 -4 -91 -17 -105 -15 -17 -14 -18 32 -18 46 0 47 1 32 18 -24 26 -24 158 0 184 15 17 12 18 -97 18 -109 0 -112 -1 -97 -18z"/>
<path d="M1108 2583 c-22 -6 -23 -19 -3 -27 22 -8 21 -143 -2 -168 -15 -17 -14 -18 33 -18 38 1 45 3 32 11 -15 8 -18 25 -18 109 0 103 0 104 -42 93z"/>
<path d="M1358 2583 c-22 -6 -23 -19 -3 -27 22 -8 21 -143 -2 -168 -15 -17 -14 -18 33 -18 38 1 45 3 32 11 -15 8 -18 25 -18 109 0 103 0 104 -42 93z"/>
<path d="M1480 2584 c0 -3 11 -19 24 -34 44 -53 42 -166 -5 -216 -27 -29 -19 -43 14 -21 48 31 73 134 48 199 -14 38 -81 97 -81 72z"/>
<path d="M1933 2579 c14 -8 17 -24 17 -90 0 -72 3 -82 25 -104 15 -16 36 -25 54 -25 76 0 101 35 101 146 0 49 4 65 18 73 13 8 6 10 -33 10 -39 0 -46 -2 -32 -10 14 -8 17 -24 17 -89 0 -70 -2 -81 -22 -94 -30 -21 -44 -20 -68 4 -28 28 -30 163 -2 179 13 8 4 10 -38 10 -42 0 -51 -2 -37 -10z"/>
<path d="M2453 2579 c25 -15 25 -183 0 -198 -14 -8 -5 -10 37 -10 42 0 51 2 38 10 -12 6 -18 22 -18 44 0 31 3 35 26 35 28 0 65 16 76 34 4 6 8 23 8 38 0 42 -33 58 -115 58 -52 -1 -66 -3 -52 -11z m115 -21 c26 -26 11 -63 -31 -73 -26 -7 -27 -6 -27 39 0 41 2 46 23 46 13 0 28 -5 35 -12z"/>
<path d="M3654 2575 c-72 -50 -70 -212 3 -260 35 -23 40 -11 10 24 -45 54 -44 173 3 216 35 32 22 48 -16 20z"/>
<path d="M4473 2572 c13 -14 17 -38 17 -92 0 -54 -4 -78 -17 -92 -15 -17 -14 -18 32 -18 45 0 47 1 32 18 -14 16 -11 22 34 75 l49 59 0 -58 c0 -39 -5 -63 -17 -76 -15 -17 -14 -18 32 -18 46 0 47 1 32 18 -13 14 -17 38 -17 92 0 54 4 78 17 92 15 17 14 18 -32 18 -45 0 -47 -1 -32 -17 14 -17 11 -23 -34 -76 l-49 -59 0 58 c0 39 5 63 17 76 15 17 14 18 -32 18 -46 0 -47 -1 -32 -18z"/>
<path d="M4713 2572 c13 -14 17 -38 17 -92 0 -54 -4 -78 -17 -92 -15 -17 -14 -18 32 -18 46 0 47 1 32 18 -13 14 -17 39 -17 105 l0 87 50 0 50 0 0 -87 c0 -66 -4 -91 -17 -105 -15 -17 -14 -18 32 -18 46 0 47 1 32 18 -13 14 -17 38 -17 92 0 54 4 78 17 92 15 17 12 18 -97 18 -109 0 -112 -1 -97 -18z"/>
<path d="M5078 2583 c-22 -6 -23 -19 -3 -27 22 -8 21 -143 -2 -168 -15 -17 -14 -18 33 -18 38 1 45 3 32 11 -15 8 -18 25 -18 109 0 103 0 104 -42 93z"/>
<path d="M5297 2572 c-10 -10 -17 -26 -17 -36 0 -16 2 -16 26 3 26 20 53 17 69 -9 9 -14 -29 -81 -64 -114 -17 -17 -31 -33 -31 -38 0 -4 29 -8 64 -8 57 0 65 3 71 21 9 27 1 33 -23 20 -12 -6 -31 -11 -43 -11 -22 0 -22 1 8 33 79 83 72 157 -15 157 -16 0 -36 -8 -45 -18z"/>
<path d="M5440 2584 c0 -3 11 -19 24 -34 44 -53 42 -166 -5 -216 -27 -29 -19 -43 14 -21 48 31 73 134 48 199 -14 38 -81 97 -81 72z"/>
<path d="M2835 2506 c-28 -29 -41 -86 -26 -115 14 -25 67 -29 97 -7 26 19 10 32 -22 17 -36 -16 -47 -5 -41 42 7 53 30 76 58 59 22 -14 39 -8 39 14 0 25 -77 18 -105 -10z"/>
<path d="M2991 2505 c-26 -34 -34 -75 -22 -108 9 -22 17 -27 45 -27 19 0 42 3 51 6 37 15 60 115 33 142 -7 7 -29 12 -49 12 -28 0 -43 -6 -58 -25z m82 -29 c0 -34 -21 -83 -38 -90 -40 -15 -43 76 -3 116 24 24 41 13 41 -26z"/>
<path d="M3162 2518 c-21 -21 -13 -53 18 -76 17 -13 30 -29 30 -36 0 -21 -31 -28 -50 -11 -22 20 -27 19 -33 -5 -5 -18 0 -20 41 -20 58 0 75 10 75 45 0 19 -10 35 -32 52 -26 20 -29 28 -20 39 10 12 15 12 35 -1 30 -19 31 -19 37 5 5 18 0 20 -42 20 -26 0 -52 -5 -59 -12z"/>
<path d="M3327 2506 c-14 -13 -29 -36 -33 -51 -8 -34 10 -75 37 -82 18 -5 20 -11 14 -40 -5 -30 -4 -34 12 -31 11 2 20 15 23 32 4 22 12 32 34 37 57 15 87 72 72 134 -5 20 -12 25 -40 25 -43 0 -63 -23 -77 -88 -12 -59 -32 -65 -37 -13 -2 23 4 42 23 67 31 41 12 47 -28 10z m124 -8 c4 -44 -23 -108 -45 -108 -14 0 -14 4 5 83 9 35 38 53 40 25z"/>
<path d="M1670 2510 c0 -5 5 -10 10 -10 13 0 13 -86 0 -111 -10 -17 -7 -19 26 -19 28 0 34 3 26 13 -8 9 -2 21 19 45 l29 32 0 -25 c0 -15 -5 -35 -10 -46 -10 -17 -7 -19 27 -19 29 0 34 3 25 12 -7 7 -12 35 -12 63 0 28 5 56 12 63 9 9 4 12 -26 12 -31 0 -37 -3 -32 -16 4 -9 -4 -28 -19 -46 l-25 -30 0 34 c0 19 5 39 12 46 9 9 4 12 -25 12 -20 0 -37 -4 -37 -10z"/>
<path d="M3910 2510 c0 -5 5 -10 10 -10 11 0 13 -42 4 -77 -4 -14 -14 -23 -25 -23 -11 0 -19 -7 -19 -16 0 -11 8 -14 28 -12 26 3 27 5 30 71 3 64 4 67 27 67 23 0 25 -4 25 -51 0 -28 -5 -59 -10 -70 -10 -17 -7 -19 27 -19 29 0 34 3 25 12 -7 7 -12 35 -12 63 0 28 5 56 12 63 9 9 -3 12 -55 12 -38 0 -67 -4 -67 -10z"/>
<path d="M4066 2498 c-22 -31 -20 -91 2 -111 28 -25 87 -22 106 5 22 31 20 91 -2 111 -28 25 -87 22 -106 -5z m84 -32 c15 -47 -5 -91 -36 -79 -18 7 -36 66 -28 89 17 43 48 38 64 -10z"/>
<path d="M4220 2510 c0 -5 5 -10 10 -10 13 0 13 -86 0 -111 -10 -17 -7 -19 27 -19 29 0 34 3 25 12 -7 7 -12 26 -12 43 l0 30 23 -40 c16 -29 30 -41 50 -43 l28 -3 -31 43 c-33 47 -32 78 1 78 11 0 19 7 19 16 0 24 -43 13 -55 -13 -5 -13 -15 -25 -22 -27 -17 -7 -17 26 -1 42 9 9 4 12 -25 12 -20 0 -37 -4 -37 -10z"/>
<path d="M2180 2480 c-19 -19 -26 -40 -14 -40 4 0 12 7 19 17 16 21 45 10 45 -17 0 -11 -17 -38 -37 -61 l-36 -40 54 3 c45 2 54 6 57 23 3 16 1 18 -9 8 -7 -7 -24 -13 -37 -13 l-24 0 31 35 c34 40 39 66 15 89 -21 21 -40 20 -64 -4z"/>
<path d="M2297 2398 c-2 -7 3 -21 11 -31 14 -16 14 -19 2 -27 -8 -5 -11 -12 -7 -16 10 -10 47 26 47 46 0 32 -43 55 -53 28z"/>
<path d="M2647 2398 c-2 -7 3 -21 11 -31 14 -16 14 -19 2 -27 -8 -5 -11 -12 -7 -16 10 -10 47 26 47 46 0 32 -43 55 -53 28z"/>
<path d="M1240 2385 c0 -8 7 -15 15 -15 8 0 15 7 15 15 0 8 -7 15 -15 15 -8 0 -15 -7 -15 -15z"/>
<path d="M5200 2385 c0 -8 7 -15 15 -15 8 0 15 7 15 15 0 8 -7 15 -15 15 -8 0 -15 -7 -15 -15z"/>
<path d="M23 2194 c-29 -29 -23 -47 6 -20 11 10 28 16 38 14 28 -5 28 -43 -1 -66 l-26 -20 29 -12 c37 -15 45 -43 21 -73 -16 -19 -22 -20 -39 -9 -30 18 -53 15 -49 -5 4 -21 43 -28 81 -14 53 20 71 86 33 123 -11 12 -11 17 0 33 18 25 18 31 -6 55 -27 27 -56 25 -87 -6z"/>
<path d="M3972 2213 c-36 -4 -46 -10 -62 -36 -25 -40 -27 -132 -4 -165 20 -29 85 -31 114 -2 24 24 26 77 4 109 -15 20 -23 23 -65 19 -44 -5 -47 -3 -38 13 5 10 25 21 47 24 20 3 43 10 51 14 20 10 26 31 9 29 -7 -1 -32 -3 -56 -5z m13 -103 c35 -39 13 -120 -28 -104 -9 3 -21 21 -27 40 -10 29 -9 39 4 59 20 30 28 31 51 5z"/>
<path d="M513 2192 c24 -26 24 -158 0 -184 -15 -17 -14 -18 31 -18 43 0 46 1 32 16 -9 8 -16 31 -16 50 0 33 1 34 38 34 46 0 62 14 62 56 0 50 -21 64 -97 64 -63 0 -65 -1 -50 -18z m91 -8 c22 -22 20 -61 -4 -74 -29 -15 -40 -5 -40 39 0 53 15 65 44 35z"/>
<path d="M4847 2192 c-10 -10 -17 -26 -17 -36 0 -16 2 -16 26 3 26 20 53 17 69 -9 9 -14 -29 -81 -64 -114 -17 -17 -31 -33 -31 -38 0 -4 29 -8 64 -8 57 0 65 3 71 21 9 27 1 33 -23 20 -12 -6 -31 -11 -43 -11 -22 0 -22 1 8 33 79 83 72 157 -15 157 -16 0 -36 -8 -45 -18z"/>
<path d="M697 2122 c-22 -24 -22 -95 -1 -116 18 -19 75 -21 92 -4 7 7 12 20 12 31 0 17 -2 17 -22 3 -28 -20 -33 -20 -52 0 -30 29 -20 44 29 44 37 0 45 3 45 18 0 10 -5 23 -12 30 -18 18 -73 14 -91 -6z m67 -18 c4 -10 -3 -14 -24 -14 -32 0 -37 9 -19 27 14 14 35 7 43 -13z"/>
<path d="M830 2116 c0 -31 11 -33 28 -5 11 17 16 18 28 8 13 -10 13 -15 0 -34 -13 -20 -12 -24 7 -40 19 -17 20 -18 3 -31 -13 -9 -25 -10 -43 -3 -29 11 -45 3 -23 -11 17 -11 71 -13 94 -4 20 8 21 53 1 60 -12 5 -13 10 -4 20 6 7 9 23 7 36 -3 20 -10 23 -50 26 -46 3 -48 2 -48 -22z"/>
<path d="M960 2131 c0 -5 4 -11 9 -13 5 -1 22 -30 39 -63 34 -70 30 -105 -13 -105 -16 0 -25 -6 -25 -15 0 -18 43 -20 58 -2 6 6 25 48 42 92 17 44 39 88 47 98 15 16 14 17 -17 17 -25 0 -30 -3 -23 -12 7 -9 5 -25 -6 -52 l-17 -39 -17 44 c-13 33 -14 45 -4 51 7 4 -6 8 -30 8 -24 0 -43 -4 -43 -9z"/>
<path d="M1140 2130 c0 -5 5 -10 10 -10 11 0 13 -42 4 -77 -4 -14 -14 -23 -25 -23 -11 0 -19 -7 -19 -16 0 -11 8 -14 28 -12 26 3 27 5 30 71 3 64 4 67 27 67 23 0 25 -4 25 -51 0 -28 -5 -59 -10 -70 -10 -17 -7 -19 27 -19 29 0 34 3 25 12 -16 16 -16 110 0 126 9 9 -3 12 -55 12 -38 0 -67 -4 -67 -10z"/>
<path d="M1290 2130 c0 -5 5 -10 10 -10 13 0 13 -86 0 -111 -10 -18 -7 -19 39 -19 67 0 81 7 81 40 0 29 -15 40 -56 40 -18 0 -24 5 -24 23 0 13 5 28 12 35 9 9 4 12 -25 12 -20 0 -37 -4 -37 -10z m85 -87 c16 -16 16 -17 0 -30 -23 -16 -35 -8 -35 23 0 28 12 31 35 7z"/>
<path d="M1430 2120 c0 -23 15 -27 24 -5 3 8 12 15 21 15 11 0 15 -12 15 -51 0 -28 -5 -59 -10 -70 -10 -17 -7 -19 27 -19 29 0 34 3 25 12 -14 14 -16 128 -3 128 5 0 16 -7 25 -15 20 -20 26 -19 26 5 0 18 -7 20 -75 20 -68 0 -75 -2 -75 -20z"/>
<path d="M1613 2134 c-18 -8 -16 -44 1 -44 7 0 16 10 20 22 5 22 6 22 23 4 10 -10 14 -20 8 -22 -5 -2 -25 -13 -43 -24 -27 -16 -33 -26 -30 -48 3 -26 5 -27 67 -27 43 0 66 4 69 13 2 6 -3 12 -12 12 -11 0 -16 14 -18 58 l-3 57 -35 2 c-19 1 -41 0 -47 -3z m57 -84 c0 -22 -22 -36 -40 -25 -8 5 -6 13 6 26 22 25 34 24 34 -1z"/>
<path d="M1730 2120 c0 -23 15 -27 24 -5 3 8 12 15 21 15 11 0 15 -12 15 -51 0 -28 -5 -59 -10 -70 -10 -17 -7 -19 27 -19 29 0 34 3 25 12 -14 14 -16 128 -3 128 5 0 17 -7 26 -17 14 -14 18 -14 26 -2 13 20 12 -77 -1 -102 -10 -18 -7 -19 39 -19 67 0 81 7 81 40 0 29 -15 40 -56 40 -18 0 -24 5 -24 23 0 13 5 28 12 35 9 9 -12 12 -95 12 -100 0 -107 -1 -107 -20z m225 -77 c16 -16 16 -17 0 -30 -23 -16 -35 -8 -35 23 0 28 12 31 35 7z"/>
<path d="M2010 2130 c0 -5 5 -10 10 -10 13 0 13 -86 0 -111 -10 -17 -7 -19 27 -19 29 0 34 3 25 12 -7 7 -12 35 -12 63 0 28 5 56 12 63 9 9 4 12 -25 12 -20 0 -37 -4 -37 -10z"/>
<path d="M2190 2116 c0 -31 11 -33 28 -5 11 17 16 18 28 8 13 -10 13 -15 0 -34 -13 -20 -12 -24 7 -40 19 -17 20 -18 3 -31 -13 -9 -25 -10 -43 -3 -29 11 -45 3 -23 -11 17 -11 71 -13 94 -4 20 8 21 53 1 60 -12 5 -13 10 -4 20 6 7 9 23 7 36 -3 20 -10 23 -50 26 -46 3 -48 2 -48 -22z"/>
<path d="M2343 2134 c-18 -8 -16 -44 1 -44 7 0 16 10 20 22 5 22 6 22 23 4 10 -10 14 -20 8 -22 -5 -2 -25 -13 -43 -24 -27 -16 -33 -26 -30 -48 3 -26 5 -27 67 -27 43 0 66 4 69 13 2 6 -3 12 -12 12 -11 0 -16 14 -18 58 l-3 57 -35 2 c-19 1 -41 0 -47 -3z m57 -84 c0 -22 -22 -36 -40 -25 -8 5 -6 13 6 26 22 25 34 24 34 -1z"/>
<path d="M2470 2130 c0 -5 5 -10 10 -10 13 0 13 -86 0 -111 -10 -17 -7 -19 27 -19 29 0 34 3 25 12 -7 7 -12 22 -12 35 0 19 5 23 30 23 32 0 38 -16 20 -51 -10 -17 -7 -19 27 -19 29 0 34 3 25 12 -7 7 -12 35 -12 63 0 28 5 56 12 63 9 9 4 12 -25 12 -20 0 -37 -4 -37 -10 0 -5 5 -10 10 -10 6 0 10 -11 10 -25 0 -21 -5 -25 -30 -25 -25 0 -30 4 -30 23 0 13 5 28 12 35 9 9 4 12 -25 12 -20 0 -37 -4 -37 -10z"/>
<path d="M2667 2122 c-22 -24 -22 -95 -1 -116 18 -19 75 -21 92 -4 7 7 12 20 12 31 0 17 -2 17 -22 3 -28 -20 -33 -20 -52 0 -30 29 -20 44 29 44 37 0 45 3 45 18 0 10 -5 23 -12 30 -18 18 -73 14 -91 -6z m67 -18 c4 -10 -3 -14 -24 -14 -32 0 -37 9 -19 27 14 14 35 7 43 -13z"/>
<path d="M2817 2122 c-23 -26 -22 -94 1 -115 29 -27 80 -22 94 8 14 31 4 43 -17 21 -20 -20 -29 -20 -49 0 -23 22 -20 71 4 84 15 8 21 6 30 -10 6 -11 17 -20 25 -20 16 0 18 9 9 34 -9 23 -76 21 -97 -2z"/>
<path d="M2930 2120 c0 -23 15 -27 24 -5 3 8 12 15 21 15 11 0 15 -12 15 -51 0 -28 -5 -59 -10 -70 -10 -17 -7 -19 27 -19 29 0 34 3 25 12 -14 14 -16 128 -3 128 5 0 16 -7 25 -15 20 -20 26 -19 26 5 0 18 -7 20 -75 20 -68 0 -75 -2 -75 -20z"/>
<path d="M3090 2130 c0 -5 5 -10 10 -10 13 0 13 -86 0 -111 -10 -17 -7 -19 26 -19 28 0 34 3 26 13 -8 9 -2 21 19 45 l29 32 0 -25 c0 -15 -5 -35 -10 -46 -10 -17 -7 -19 27 -19 29 0 34 3 25 12 -7 7 -12 35 -12 63 0 28 5 56 12 63 9 9 4 12 -26 12 -31 0 -37 -3 -32 -16 4 -9 -4 -28 -19 -46 l-25 -30 0 34 c0 19 5 39 12 46 9 9 4 12 -25 12 -20 0 -37 -4 -37 -10z"/>
<path d="M3350 2130 c0 -5 5 -10 10 -10 13 0 13 -86 -1 -111 -10 -19 -7 -20 53 -17 58 3 63 5 66 27 3 15 -3 30 -14 38 -10 8 -13 13 -5 13 8 0 11 11 9 33 -3 32 -4 32 -60 35 -36 2 -58 -1 -58 -8z m84 -34 c-3 -8 -12 -17 -20 -20 -10 -4 -14 3 -14 25 0 26 2 29 20 19 11 -6 17 -17 14 -24z m1 -53 c16 -16 16 -17 0 -30 -23 -16 -35 -8 -35 23 0 28 12 31 35 7z"/>
<path d="M3580 2120 c0 -23 15 -27 24 -5 3 8 12 15 21 15 11 0 15 -12 15 -51 0 -28 -5 -59 -10 -70 -10 -17 -7 -19 27 -19 29 0 34 3 25 12 -14 14 -16 128 -3 128 5 0 16 -7 25 -15 20 -20 26 -19 26 5 0 18 -7 20 -75 20 -68 0 -75 -2 -75 -20z"/>
<path d="M3763 2134 c-18 -8 -16 -44 1 -44 7 0 16 10 20 22 5 22 6 22 23 4 10 -10 14 -20 8 -22 -5 -2 -25 -13 -43 -24 -27 -16 -33 -26 -30 -48 3 -26 5 -27 67 -27 43 0 66 4 69 13 2 6 -3 12 -12 12 -11 0 -16 14 -18 58 l-3 57 -35 2 c-19 1 -41 0 -47 -3z m57 -84 c0 -22 -22 -36 -40 -25 -8 5 -6 13 6 26 22 25 34 24 34 -1z"/>
<path d="M4080 2130 c0 -5 5 -10 10 -10 11 0 13 -42 4 -77 -4 -14 -14 -23 -25 -23 -11 0 -19 -7 -19 -16 0 -11 8 -14 28 -12 26 3 27 5 30 71 3 64 4 67 27 67 23 0 25 -4 25 -51 0 -28 -5 -59 -10 -70 -10 -17 -7 -19 27 -19 29 0 34 3 25 12 -7 7 -12 35 -12 63 0 28 5 56 12 63 9 9 -3 12 -55 12 -38 0 -67 -4 -67 -10z"/>
<path d="M4230 2130 c0 -5 5 -10 10 -10 13 0 13 -86 0 -111 -10 -17 -7 -19 26 -19 28 0 34 3 26 13 -8 9 -2 21 19 45 l29 32 0 -25 c0 -15 -5 -35 -10 -46 -10 -17 -7 -19 27 -19 29 0 34 3 25 12 -7 7 -12 35 -12 63 0 28 5 56 12 63 9 9 4 12 -26 12 -31 0 -37 -3 -32 -16 4 -9 -4 -28 -19 -46 l-25 -30 0 34 c0 19 5 39 12 46 9 9 4 12 -25 12 -20 0 -37 -4 -37 -10z"/>
<path d="M4410 2130 c0 -5 5 -10 10 -10 13 0 13 -86 0 -111 -10 -18 -7 -19 43 -19 40 0 61 -6 81 -21 l26 -20 0 25 c0 14 -4 28 -10 31 -14 9 -12 109 2 123 9 9 4 12 -25 12 -20 0 -37 -4 -37 -10 0 -5 5 -10 10 -10 7 0 10 -22 8 -57 -3 -54 -5 -58 -28 -58 -23 0 -25 4 -28 53 -2 31 2 60 9 68 9 12 5 14 -25 14 -20 0 -36 -4 -36 -10z"/>
<path d="M4580 2131 c0 -5 4 -11 9 -13 5 -1 22 -30 39 -63 34 -70 30 -105 -13 -105 -16 0 -25 -6 -25 -15 0 -18 43 -20 58 -2 6 6 25 48 42 92 17 44 39 88 47 98 15 16 14 17 -17 17 -25 0 -30 -3 -23 -12 7 -9 5 -25 -6 -52 l-17 -39 -17 44 c-13 33 -14 45 -4 51 7 4 -6 8 -30 8 -24 0 -43 -4 -43 -9z"/>
<path d="M173 2014 c-8 -21 13 -42 28 -27 13 13 5 43 -11 43 -6 0 -13 -7 -17 -16z"/>
<path d="M3085 968 c-22 -50 -49 -100 -59 -110 -19 -18 -19 -18 18 -18 32 0 37 2 27 14 -9 11 -10 20 -1 35 8 16 20 21 54 21 37 0 45 -4 49 -22 4 -12 1 -28 -5 -35 -8 -10 -1 -13 38 -13 l47 0 -20 23 c-11 12 -35 61 -53 110 -18 48 -38 87 -44 87 -6 0 -29 -42 -51 -92z m43 -46 c-41 -5 -44 2 -23 49 l19 41 17 -44 17 -43 -30 -3z"/>
<path d="M6132 1038 c5 -39 98 -37 98 2 0 26 -17 25 -41 -2 l-19 -23 -6 23 c-3 12 -13 22 -21 22 -9 0 -13 -8 -11 -22z"/>
<path d="M3260 980 c0 -5 5 -10 10 -10 13 0 13 -86 0 -111 -10 -17 -7 -19 27 -19 29 0 34 3 25 12 -7 7 -12 26 -12 42 l0 31 23 -40 c16 -29 30 -41 50 -43 l28 -3 -31 43 c-33 47 -32 78 1 78 11 0 19 7 19 16 0 24 -43 13 -55 -13 -5 -13 -15 -25 -22 -27 -17 -7 -17 26 -1 42 9 9 4 12 -25 12 -20 0 -37 -4 -37 -10z"/>
<path d="M3410 970 c0 -23 15 -27 24 -5 3 8 12 15 21 15 11 0 15 -12 15 -51 0 -28 -5 -59 -10 -70 -10 -17 -7 -19 27 -19 29 0 34 3 25 12 -14 14 -16 128 -3 128 5 0 16 -7 25 -15 20 -20 26 -19 26 5 0 18 -7 20 -75 20 -68 0 -75 -2 -75 -20z"/>
<path d="M3570 980 c0 -5 5 -10 10 -10 13 0 13 -86 0 -111 -10 -17 -7 -19 26 -19 28 0 34 3 26 13 -8 9 -2 21 19 45 l29 32 0 -25 c0 -15 -5 -35 -10 -46 -10 -17 -7 -19 27 -19 29 0 34 3 25 12 -7 7 -12 35 -12 63 0 28 5 56 12 63 9 9 4 12 -26 12 -31 0 -37 -3 -32 -16 4 -9 -4 -28 -19 -46 l-25 -30 0 34 c0 19 5 39 12 46 9 9 4 12 -25 12 -20 0 -37 -4 -37 -10z"/>
<path d="M3750 980 c0 -5 5 -10 10 -10 13 0 13 -86 -1 -111 -10 -19 -7 -20 53 -17 58 3 63 5 66 27 3 15 -3 30 -14 38 -10 8 -13 13 -5 13 8 0 11 11 9 33 -3 32 -4 32 -60 35 -36 2 -58 -1 -58 -8z m84 -34 c-3 -8 -12 -17 -20 -20 -10 -4 -14 3 -14 25 0 26 2 29 20 19 11 -6 17 -17 14 -24z m1 -53 c16 -16 16 -17 0 -30 -23 -16 -35 -8 -35 23 0 28 12 31 35 7z"/>
<path d="M3900 980 c0 -5 5 -10 10 -10 13 0 13 -86 0 -111 -10 -17 -7 -19 27 -19 29 0 34 3 25 12 -7 7 -12 22 -12 35 0 19 5 23 30 23 32 0 38 -16 20 -51 -10 -17 -7 -19 27 -19 29 0 34 3 25 12 -7 7 -12 35 -12 63 0 28 5 56 12 63 9 9 4 12 -25 12 -20 0 -37 -4 -37 -10 0 -5 5 -10 10 -10 6 0 10 -11 10 -25 0 -21 -5 -25 -30 -25 -25 0 -30 4 -30 23 0 13 5 28 12 35 9 9 4 12 -25 12 -20 0 -37 -4 -37 -10z"/>
<path d="M4096 968 c-22 -31 -20 -91 2 -111 28 -25 87 -22 106 5 22 31 20 91 -2 111 -28 25 -87 22 -106 -5z m84 -32 c15 -47 -5 -91 -36 -79 -18 7 -36 66 -28 89 17 43 48 38 64 -10z"/>
<path d="M4360 980 c0 -5 5 -10 10 -10 13 0 13 -86 0 -111 -10 -17 -7 -19 26 -19 28 0 34 3 26 13 -8 9 -2 21 19 45 l29 32 0 -25 c0 -15 -5 -35 -10 -46 -10 -17 -7 -19 27 -19 29 0 34 3 25 12 -7 7 -12 35 -12 63 0 28 5 56 12 63 9 9 4 12 -26 12 -31 0 -37 -3 -32 -16 4 -9 -4 -28 -19 -46 l-25 -30 0 34 c0 19 5 39 12 46 9 9 4 12 -25 12 -20 0 -37 -4 -37 -10z"/>
<path d="M4540 980 c0 -5 5 -10 10 -10 13 0 13 -86 0 -111 -10 -17 -7 -19 27 -19 29 0 34 3 25 12 -7 7 -12 22 -12 35 0 19 5 23 30 23 32 0 38 -16 20 -51 -10 -17 -7 -19 27 -19 29 0 34 3 25 12 -7 7 -12 35 -12 63 0 28 5 56 12 63 9 9 4 12 -25 12 -20 0 -37 -4 -37 -10 0 -5 5 -10 10 -10 6 0 10 -11 10 -25 0 -21 -5 -25 -30 -25 -25 0 -30 4 -30 23 0 13 5 28 12 35 9 9 4 12 -25 12 -20 0 -37 -4 -37 -10z"/>
<path d="M4740 982 c0 -4 4 -12 10 -18 13 -13 -5 -85 -24 -100 -9 -6 -16 -23 -16 -38 l0 -27 26 20 c34 27 74 27 109 -1 l28 -22 -7 35 c-16 74 -18 130 -6 144 11 13 3 15 -54 15 -36 0 -66 -4 -66 -8z m78 -64 l-3 -63 -34 -3 c-29 -3 -33 -1 -26 15 5 10 10 39 13 66 3 42 6 47 28 47 24 0 25 -2 22 -62z"/>
<path d="M4880 981 c0 -5 4 -11 9 -13 5 -1 22 -30 39 -63 34 -70 30 -105 -13 -105 -16 0 -25 -6 -25 -15 0 -18 43 -20 58 -2 6 6 25 48 42 92 36 92 46 106 66 98 17 -6 19 -84 4 -114 -10 -17 -7 -19 27 -19 29 0 34 3 25 12 -7 7 -12 26 -12 42 l0 31 23 -40 c16 -29 30 -41 50 -43 l28 -3 -31 43 c-33 47 -32 78 1 78 11 0 19 7 19 16 0 24 -43 13 -55 -13 -5 -13 -15 -25 -22 -27 -17 -7 -17 26 -1 42 9 9 -3 12 -56 12 -53 0 -66 -3 -59 -12 7 -9 5 -25 -6 -52 l-17 -39 -17 44 c-13 33 -14 45 -4 51 7 4 -6 8 -30 8 -24 0 -43 -4 -43 -9z"/>
<path d="M5200 970 c0 -23 15 -27 24 -5 3 8 12 15 21 15 11 0 15 -12 15 -51 0 -28 -5 -59 -10 -70 -10 -17 -7 -19 27 -19 29 0 34 3 25 12 -14 14 -16 128 -3 128 5 0 16 -7 25 -15 20 -20 26 -19 26 5 0 18 -7 20 -75 20 -68 0 -75 -2 -75 -20z"/>
<path d="M5360 980 c0 -5 5 -10 10 -10 13 0 13 -86 0 -111 -10 -17 -7 -19 26 -19 28 0 34 3 26 13 -8 9 -2 21 19 45 l29 32 0 -25 c0 -15 -5 -35 -10 -46 -10 -17 -7 -19 27 -19 29 0 34 3 25 12 -7 7 -12 35 -12 63 0 28 5 56 12 63 9 9 4 12 -26 12 -31 0 -37 -3 -32 -16 4 -9 -4 -28 -19 -46 l-25 -30 0 34 c0 19 5 39 12 46 9 9 4 12 -25 12 -20 0 -37 -4 -37 -10z"/>
<path d="M5540 980 c0 -5 5 -10 10 -10 13 0 13 -86 -1 -111 -10 -19 -7 -20 53 -17 58 3 63 5 66 27 3 15 -3 30 -14 38 -10 8 -13 13 -5 13 8 0 11 11 9 33 -3 32 -4 32 -60 35 -36 2 -58 -1 -58 -8z m84 -34 c-3 -8 -12 -17 -20 -20 -10 -4 -14 3 -14 25 0 26 2 29 20 19 11 -6 17 -17 14 -24z m1 -53 c16 -16 16 -17 0 -30 -23 -16 -35 -8 -35 23 0 28 12 31 35 7z"/>
<path d="M5690 980 c0 -5 5 -10 10 -10 13 0 13 -86 0 -111 -10 -17 -7 -19 27 -19 29 0 34 3 25 12 -7 7 -12 22 -12 35 0 19 5 23 30 23 32 0 38 -16 20 -51 -10 -17 -7 -19 27 -19 29 0 34 3 25 12 -7 7 -12 35 -12 63 0 28 5 56 12 63 9 9 4 12 -25 12 -20 0 -37 -4 -37 -10 0 -5 5 -10 10 -10 6 0 10 -11 10 -25 0 -21 -5 -25 -30 -25 -25 0 -30 4 -30 23 0 13 5 28 12 35 9 9 4 12 -25 12 -20 0 -37 -4 -37 -10z"/>
<path d="M5860 980 c0 -5 5 -10 10 -10 13 0 13 -86 0 -111 -10 -18 -7 -19 39 -19 67 0 81 7 81 40 0 29 -15 40 -56 40 -18 0 -24 5 -24 23 0 13 5 28 12 35 9 9 4 12 -25 12 -20 0 -37 -4 -37 -10z m85 -87 c16 -16 16 -17 0 -30 -23 -16 -35 -8 -35 23 0 28 12 31 35 7z"/>
<path d="M6000 980 c0 -5 5 -10 10 -10 13 0 13 -86 0 -111 -10 -17 -7 -19 27 -19 29 0 34 3 25 12 -7 7 -12 35 -12 63 0 28 5 56 12 63 9 9 4 12 -25 12 -20 0 -37 -4 -37 -10z"/>
<path d="M6100 980 c0 -5 5 -10 10 -10 13 0 13 -86 0 -111 -10 -17 -7 -19 26 -19 28 0 34 3 26 13 -8 9 -2 21 19 45 l29 32 0 -25 c0 -15 -5 -35 -10 -46 -10 -17 -7 -19 27 -19 29 0 34 3 25 12 -7 7 -12 35 -12 63 0 28 5 56 12 63 9 9 4 12 -26 12 -31 0 -37 -3 -32 -16 4 -9 -4 -28 -19 -46 l-25 -30 0 34 c0 19 5 39 12 46 9 9 4 12 -25 12 -20 0 -37 -4 -37 -10z"/>
<path d="M6360 985 c0 -3 11 -18 25 -33 14 -15 25 -32 25 -38 0 -6 -11 -21 -25 -34 -32 -30 -32 -40 0 -40 16 0 23 5 19 13 -2 7 2 21 9 32 14 18 15 18 26 -3 7 -13 9 -27 6 -32 -4 -6 9 -10 31 -10 l36 0 -24 33 c-41 54 -41 55 -6 87 l32 30 -38 0 c-32 0 -36 -2 -27 -14 8 -10 9 -16 1 -21 -13 -8 -30 3 -30 21 0 9 -11 14 -30 14 -16 0 -30 -2 -30 -5z"/>
<path d="M6553 984 c-18 -8 -16 -44 1 -44 7 0 16 10 20 22 5 22 6 22 23 4 10 -10 14 -20 8 -22 -5 -2 -25 -13 -43 -24 -27 -16 -33 -26 -30 -48 3 -26 5 -27 67 -27 43 0 66 4 69 13 2 6 -3 12 -12 12 -11 0 -16 14 -18 58 l-3 57 -35 2 c-19 1 -41 0 -47 -3z m57 -84 c0 -22 -22 -36 -40 -25 -8 5 -6 13 6 26 22 25 34 24 34 -1z"/>
<path d="M6670 980 c-12 -7 -12 -12 -2 -22 15 -15 16 -141 2 -169 -10 -17 -7 -19 27 -19 29 0 34 3 25 12 -7 7 -12 22 -12 35 0 19 5 23 33 23 20 0 41 8 50 18 19 21 22 83 7 113 -12 22 -59 26 -78 7 -9 -9 -12 -9 -12 0 0 14 -19 15 -40 2z m103 -70 c0 -17 -7 -39 -17 -48 -16 -16 -18 -16 -32 2 -20 28 -18 83 4 95 24 14 45 -10 45 -49z"/>
<path d="M6863 984 c-18 -8 -16 -44 1 -44 7 0 16 10 20 22 5 22 6 22 23 4 10 -10 14 -20 8 -22 -5 -2 -25 -13 -43 -24 -27 -16 -33 -26 -30 -48 3 -26 5 -27 67 -27 43 0 66 4 69 13 2 6 -3 12 -12 12 -11 0 -16 14 -18 58 l-3 57 -35 2 c-19 1 -41 0 -47 -3z m57 -84 c0 -22 -22 -36 -40 -25 -8 5 -6 13 6 26 22 25 34 24 34 -1z"/>
<path d="M6990 980 c0 -5 5 -10 10 -10 13 0 13 -86 0 -111 -10 -17 -7 -19 27 -19 29 0 34 3 25 12 -7 7 -12 26 -12 42 l0 31 23 -40 c16 -29 30 -41 50 -43 l28 -3 -31 43 c-33 47 -32 78 1 78 11 0 19 7 19 16 0 24 -43 13 -55 -13 -5 -13 -15 -25 -22 -27 -17 -7 -17 26 -1 42 9 9 4 12 -25 12 -20 0 -37 -4 -37 -10z"/>
<path d="M7140 970 c0 -23 15 -27 24 -5 3 8 12 15 21 15 11 0 15 -12 15 -51 0 -28 -5 -59 -10 -70 -10 -17 -7 -19 27 -19 29 0 34 3 25 12 -14 14 -17 128 -4 128 24 0 52 -39 52 -73 0 -44 22 -67 64 -67 36 0 56 15 56 43 0 17 -2 17 -22 3 -28 -20 -33 -20 -52 0 -30 29 -20 44 29 44 37 0 45 3 45 18 0 42 -66 58 -102 25 -17 -15 -18 -15 -18 0 0 14 -12 17 -75 17 -68 0 -75 -2 -75 -20z m234 -16 c4 -10 -3 -14 -24 -14 -32 0 -37 9 -19 27 14 14 35 7 43 -13z"/>
<path d="M7440 980 c-12 -7 -12 -12 -2 -22 15 -15 16 -141 2 -169 -10 -17 -7 -19 27 -19 29 0 34 3 25 12 -7 7 -12 22 -12 35 0 19 5 23 33 23 20 0 41 8 50 18 19 21 22 83 7 113 -12 22 -59 26 -78 7 -9 -9 -12 -9 -12 0 0 14 -19 15 -40 2z m103 -70 c0 -17 -7 -39 -17 -48 -16 -16 -18 -16 -32 2 -20 28 -18 83 4 95 24 14 45 -10 45 -49z"/>
<path d="M7690 980 c0 -5 5 -10 10 -10 13 0 13 -86 0 -111 -10 -17 -7 -19 27 -19 29 0 34 3 25 12 -7 7 -12 22 -12 35 0 19 5 23 30 23 32 0 38 -16 20 -51 -10 -17 -7 -19 27 -19 29 0 34 3 25 12 -7 7 -12 35 -12 63 0 28 5 56 12 63 9 9 4 12 -25 12 -20 0 -37 -4 -37 -10 0 -5 5 -10 10 -10 6 0 10 -11 10 -25 0 -21 -5 -25 -30 -25 -25 0 -30 4 -30 23 0 13 5 28 12 35 9 9 4 12 -25 12 -20 0 -37 -4 -37 -10z"/>
<path d="M7893 984 c-18 -8 -16 -44 1 -44 7 0 16 10 20 22 5 22 6 22 23 4 10 -10 14 -20 8 -22 -5 -2 -25 -13 -43 -24 -27 -16 -33 -26 -30 -48 3 -26 5 -27 67 -27 43 0 66 4 69 13 2 6 -3 12 -12 12 -11 0 -16 14 -18 58 l-3 57 -35 2 c-19 1 -41 0 -47 -3z m57 -84 c0 -22 -22 -36 -40 -25 -8 5 -6 13 6 26 22 25 34 24 34 -1z"/>
<path d="M8020 980 c0 -5 5 -10 10 -10 13 0 13 -86 0 -111 -10 -17 -7 -19 27 -19 29 0 34 3 25 12 -7 7 -12 38 -12 70 0 62 13 74 44 43 8 -9 21 -14 28 -13 17 4 24 -133 8 -162 -10 -18 -8 -20 27 -20 29 0 34 3 25 12 -7 7 -12 22 -12 35 0 19 5 23 33 23 20 0 41 8 50 18 19 21 22 83 7 113 -12 22 -59 26 -78 7 -7 -7 -12 -8 -12 -2 0 6 -35 11 -85 13 -53 1 -85 -2 -85 -9z m233 -70 c0 -17 -7 -39 -17 -48 -16 -16 -18 -16 -32 2 -20 28 -18 83 4 95 24 14 45 -10 45 -49z"/>
<path d="M8310 981 c0 -5 4 -11 9 -13 5 -1 22 -30 39 -63 34 -70 30 -105 -13 -105 -16 0 -25 -6 -25 -15 0 -18 43 -20 58 -2 6 6 24 48 42 92 35 89 60 125 60 87 0 -28 11 -28 28 -1 11 17 16 18 28 8 13 -10 13 -15 0 -34 -13 -20 -12 -24 7 -40 19 -17 20 -18 3 -31 -13 -9 -25 -10 -43 -3 -29 11 -45 3 -23 -11 17 -11 71 -13 94 -4 20 8 21 53 1 60 -12 5 -13 10 -4 20 6 7 9 23 7 36 -3 22 -8 23 -82 26 -64 2 -77 0 -69 -10 7 -9 5 -25 -6 -52 l-17 -39 -17 44 c-13 33 -14 45 -4 51 7 4 -6 8 -30 8 -24 0 -43 -4 -43 -9z"/>
<path d="M8610 980 c0 -5 5 -10 10 -10 13 0 13 -86 0 -111 -10 -17 -7 -19 27 -19 29 0 34 3 25 12 -7 7 -12 26 -12 42 l0 31 23 -40 c16 -29 30 -41 50 -43 l28 -3 -31 43 c-33 47 -32 78 1 78 11 0 19 7 19 16 0 24 -43 13 -55 -13 -5 -13 -15 -25 -22 -27 -17 -7 -17 26 -1 42 9 9 4 12 -25 12 -20 0 -37 -4 -37 -10z"/>
<path d="M8780 980 c0 -5 5 -10 10 -10 13 0 13 -86 0 -111 -10 -17 -7 -19 26 -19 28 0 34 3 26 13 -8 9 -2 21 19 45 l29 32 0 -25 c0 -15 -5 -35 -10 -46 -10 -17 -7 -19 27 -19 29 0 34 3 25 12 -7 7 -12 35 -12 63 0 28 5 56 12 63 9 9 4 12 -26 12 -31 0 -37 -3 -32 -16 4 -9 -4 -28 -19 -46 l-25 -30 0 34 c0 19 5 39 12 46 9 9 4 12 -25 12 -20 0 -37 -4 -37 -10z"/>
<path d="M4250 915 c0 -11 12 -15 45 -15 33 0 45 4 45 15 0 11 -12 15 -45 15 -33 0 -45 -4 -45 -15z"/>
<path d="M5450 661 c0 -5 7 -11 14 -14 10 -4 16 -24 18 -59 l3 -53 53 0 c49 1 52 -1 52 -24 0 -13 -7 -33 -17 -43 -15 -17 -14 -18 32 -18 46 0 47 1 32 18 -13 14 -17 38 -17 92 0 54 4 78 17 92 15 17 14 18 -30 18 -46 0 -62 -12 -32 -24 10 -3 15 -19 15 -45 0 -34 -3 -39 -27 -44 -48 -10 -73 55 -36 95 15 17 14 18 -30 18 -26 0 -47 -4 -47 -9z"/>
<path d="M6398 663 c-22 -6 -23 -19 -3 -27 22 -8 21 -143 -2 -168 -15 -17 -14 -18 33 -18 38 1 45 3 32 11 -15 8 -18 25 -18 109 0 103 0 104 -42 93z"/>
<path d="M5703 594 c-18 -8 -16 -44 1 -44 7 0 16 10 20 22 5 22 6 22 23 4 10 -10 14 -20 8 -22 -5 -2 -25 -13 -43 -24 -27 -16 -33 -26 -30 -48 3 -26 5 -27 67 -27 43 0 66 4 69 13 2 6 -3 12 -12 12 -11 0 -16 14 -18 58 l-3 57 -35 2 c-19 1 -41 0 -47 -3z m57 -84 c0 -22 -22 -36 -40 -25 -8 5 -6 13 6 26 22 25 34 24 34 -1z"/>
<path d="M5837 582 c-23 -26 -22 -94 1 -115 29 -27 80 -22 94 8 14 31 4 43 -17 21 -20 -20 -29 -20 -49 0 -23 22 -20 71 4 84 15 8 21 6 30 -10 6 -11 17 -20 25 -20 16 0 18 9 9 34 -9 23 -76 21 -97 -2z"/>
<path d="M5960 580 c0 -23 15 -27 24 -5 3 8 12 15 21 15 11 0 15 -12 15 -51 0 -28 -5 -59 -10 -70 -10 -17 -7 -19 27 -19 29 0 34 3 25 12 -14 14 -16 128 -3 128 5 0 16 -7 25 -15 20 -20 26 -19 26 5 0 18 -7 20 -75 20 -68 0 -75 -2 -75 -20z"/>
<path d="M6120 590 c0 -5 5 -10 10 -10 13 0 13 -86 0 -111 -10 -18 -7 -19 39 -19 67 0 81 7 81 40 0 29 -15 40 -56 40 -18 0 -24 5 -24 23 0 13 5 28 12 35 9 9 4 12 -25 12 -20 0 -37 -4 -37 -10z m85 -87 c16 -16 16 -17 0 -30 -23 -16 -35 -8 -35 23 0 28 12 31 35 7z"/>
<path d="M50 279 c-30 -15 -32 -18 -12 -19 21 0 22 -4 22 -85 0 -69 -3 -86 -17 -94 -14 -8 -7 -10 31 -11 42 0 47 2 33 13 -13 9 -17 33 -19 114 l-3 101 -35 -19z"/>
<path d="M972 293 c-36 -4 -46 -10 -62 -36 -25 -40 -27 -132 -4 -165 20 -29 85 -31 114 -2 24 24 26 77 4 109 -15 20 -23 23 -65 19 -44 -5 -47 -3 -38 13 5 10 25 21 47 24 20 3 43 10 51 14 20 10 26 31 9 29 -7 -1 -32 -3 -56 -5z m13 -103 c35 -39 13 -120 -28 -104 -9 3 -21 21 -27 40 -10 29 -9 39 4 59 20 30 28 31 51 5z"/>
<path d="M3606 279 c-14 -11 -26 -30 -26 -41 0 -20 2 -19 25 6 20 22 28 25 44 16 11 -5 23 -15 26 -20 12 -19 -15 -76 -55 -115 -22 -22 -40 -43 -40 -47 0 -4 32 -8 70 -8 39 0 70 4 70 9 0 5 3 18 6 28 6 15 4 16 -7 5 -7 -6 -30 -12 -52 -12 l-39 0 41 46 c49 56 57 112 19 138 -30 21 -50 20 -82 -5z"/>
<path d="M530 261 c-26 -25 -30 -37 -30 -81 0 -44 4 -56 29 -81 25 -24 38 -29 78 -29 40 0 54 5 73 25 28 29 19 46 -10 20 -11 -10 -34 -18 -50 -18 -81 0 -106 122 -35 169 23 15 27 15 51 -1 15 -9 29 -26 31 -36 9 -34 24 -20 21 19 l-3 37 -63 3 c-58 3 -64 1 -92 -27z"/>
<path d="M3369 251 c-35 -34 -39 -44 -39 -88 0 -66 20 -93 69 -93 47 0 71 24 71 71 0 45 -15 59 -63 59 -39 0 -39 1 -25 23 8 12 29 29 47 39 47 23 48 28 11 28 -24 0 -42 -9 -71 -39z m62 -99 c7 -18 5 -31 -6 -48 -24 -38 -46 -26 -61 30 -13 55 47 71 67 18z"/>
<path d="M736 198 c-22 -31 -20 -91 2 -111 28 -25 87 -22 106 5 22 31 20 91 -2 111 -28 25 -87 22 -106 -5z m84 -32 c15 -47 -5 -91 -36 -79 -18 7 -36 66 -28 89 17 43 48 38 64 -10z"/>
<path d="M1060 210 c-12 -7 -12 -12 -2 -22 15 -15 16 -141 2 -169 -10 -17 -7 -19 27 -19 29 0 34 3 25 12 -7 7 -12 22 -12 35 0 19 5 23 33 23 20 0 41 8 50 18 19 21 22 83 7 113 -12 22 -59 26 -78 7 -9 -9 -12 -9 -12 0 0 14 -19 15 -40 2z m103 -70 c0 -17 -7 -39 -17 -48 -16 -16 -18 -16 -32 2 -20 28 -18 83 4 95 24 14 45 -10 45 -49z"/>
<path d="M1243 214 c-18 -8 -16 -44 1 -44 7 0 16 10 20 22 5 22 6 22 23 4 10 -10 14 -20 8 -22 -5 -2 -25 -13 -43 -24 -27 -16 -33 -26 -30 -48 3 -26 5 -27 67 -27 43 0 66 4 69 13 2 6 -3 12 -12 12 -11 0 -16 14 -18 58 l-3 57 -35 2 c-19 1 -41 0 -47 -3z m57 -84 c0 -22 -22 -36 -40 -25 -8 5 -6 13 6 26 22 25 34 24 34 -1z"/>
<path d="M1360 200 c0 -23 15 -27 24 -5 3 8 12 15 21 15 11 0 15 -12 15 -51 0 -28 -5 -59 -10 -70 -10 -17 -7 -19 27 -19 29 0 34 3 25 12 -14 14 -16 128 -3 128 5 0 16 -7 25 -15 20 -20 26 -19 26 5 0 18 -7 20 -75 20 -68 0 -75 -2 -75 -20z"/>
<path d="M1520 210 c0 -5 5 -10 10 -10 13 0 13 -86 0 -111 -10 -18 -7 -19 39 -19 67 0 81 7 81 40 0 29 -15 40 -56 40 -18 0 -24 5 -24 23 0 13 5 28 12 35 9 9 4 12 -25 12 -20 0 -37 -4 -37 -10z m85 -87 c16 -16 16 -17 0 -30 -23 -16 -35 -8 -35 23 0 28 12 31 35 7z"/>
<path d="M1767 202 c-23 -26 -22 -94 1 -115 29 -27 80 -22 94 8 14 31 4 43 -17 21 -20 -20 -29 -20 -49 0 -23 22 -20 71 4 84 15 8 21 6 30 -10 6 -11 17 -20 25 -20 16 0 18 9 9 34 -9 23 -76 21 -97 -2z"/>
<path d="M1900 215 c0 -3 11 -18 25 -33 14 -15 25 -32 25 -38 0 -6 -11 -21 -25 -34 -32 -30 -32 -40 0 -40 16 0 23 5 19 13 -2 7 2 21 9 32 14 18 15 18 26 -3 7 -13 9 -27 6 -32 -4 -6 9 -10 31 -10 l36 0 -24 33 c-41 54 -41 55 -6 87 l32 30 -38 0 c-32 0 -36 -2 -27 -14 8 -10 9 -16 1 -21 -13 -8 -30 3 -30 21 0 9 -11 14 -30 14 -16 0 -30 -2 -30 -5z"/>
<path d="M2087 202 c-22 -24 -22 -95 -1 -116 18 -19 75 -21 92 -4 7 7 12 20 12 31 0 17 -2 17 -22 3 -28 -20 -33 -20 -52 0 -30 29 -20 44 29 44 37 0 45 3 45 18 0 10 -5 23 -12 30 -18 18 -73 14 -91 -6z m67 -18 c4 -10 -3 -14 -24 -14 -32 0 -37 9 -19 27 14 14 35 7 43 -13z"/>
<path d="M2220 210 c0 -5 5 -10 10 -10 13 0 13 -86 0 -111 -9 -17 -7 -19 16 -19 22 0 24 3 15 14 -7 8 -11 32 -9 53 l3 38 19 -53 c11 -28 25 -52 31 -52 6 0 20 24 31 53 18 50 19 51 22 20 2 -18 -2 -41 -8 -53 -10 -18 -8 -20 27 -20 29 0 34 3 25 12 -7 7 -12 35 -12 63 0 28 5 56 12 63 9 9 5 12 -19 12 -27 0 -32 -5 -50 -50 l-19 -51 -18 51 c-16 44 -21 50 -47 50 -16 0 -29 -4 -29 -10z"/>
<path d="M2420 211 c0 -5 4 -11 9 -13 5 -1 22 -30 39 -63 34 -70 30 -105 -13 -105 -16 0 -25 -6 -25 -15 0 -18 43 -20 58 -3 6 7 25 49 42 93 17 44 39 88 47 98 15 16 14 17 -17 17 -25 0 -30 -3 -23 -12 7 -9 5 -25 -6 -52 l-17 -39 -17 44 c-13 33 -14 45 -4 51 7 4 -6 8 -30 8 -24 0 -43 -4 -43 -9z"/>
<path d="M2670 210 c-12 -7 -12 -12 -2 -22 15 -15 16 -141 2 -169 -10 -17 -7 -19 27 -19 29 0 34 3 25 12 -7 7 -12 22 -12 35 0 19 5 23 33 23 20 0 41 8 50 18 19 21 22 83 7 113 -12 22 -59 26 -78 7 -9 -9 -12 -9 -12 0 0 14 -19 15 -40 2z m103 -70 c0 -17 -7 -39 -17 -48 -16 -16 -18 -16 -32 2 -20 28 -18 83 4 95 24 14 45 -10 45 -49z"/>
<path d="M2840 210 c0 -5 5 -10 10 -10 13 0 13 -86 0 -111 -10 -17 -7 -19 26 -19 28 0 34 3 26 13 -8 9 -2 21 19 45 l29 32 0 -25 c0 -15 -5 -35 -10 -46 -10 -17 -7 -19 27 -19 29 0 34 3 25 12 -7 7 -12 35 -12 63 0 28 5 56 12 63 9 9 4 12 -26 12 -31 0 -37 -3 -32 -16 4 -9 -4 -28 -19 -46 l-25 -30 0 34 c0 19 5 39 12 46 9 9 4 12 -25 12 -20 0 -37 -4 -37 -10z"/>
<path d="M3037 202 c-23 -26 -22 -94 1 -115 29 -27 80 -22 94 8 14 31 4 43 -17 21 -20 -20 -29 -20 -49 0 -23 22 -20 71 4 84 15 8 21 6 30 -10 6 -11 17 -20 25 -20 16 0 18 9 9 34 -9 23 -76 21 -97 -2z"/>
<path d="M173 94 c-8 -21 13 -42 28 -27 13 13 5 43 -11 43 -6 0 -13 -7 -17 -16z"/>
<path d="M3513 94 c-8 -21 13 -42 28 -27 13 13 5 43 -11 43 -6 0 -13 -7 -17 -16z"/>
<path d="M3170 85 c0 -8 7 -15 15 -15 8 0 15 7 15 15 0 8 -7 15 -15 15 -8 0 -15 -7 -15 -15z"/>
</g>
</svg>