<?xml version="1.0" encoding="UTF-8" standalone="no"?>
<!DOCTYPE svg PUBLIC "-//W3C//DTD SVG 20010904//EN" "http://www.w3.org/TR/2001/REC-SVG-20010904/DTD/svg10.dtd">
<svg version="1.0" xmlns="http://www.w3.org/2000/svg" width="1395.000000pt" height="433.000000pt" viewBox="0 0 1395.000000 433.000000" preserveAspectRatio="xMidYMid meet">
<metadata>
Created by potrace 1.12, written by Peter Selinger 2001-2015
</metadata>
<g transform="translate(0.000000,433.000000) scale(0.100000,-0.100000)" fill="#000000" stroke="none">
<path d="M7282 4323 c-36 -4 -46 -10 -62 -36 -25 -40 -27 -132 -4 -165 20 -29 85 -31 114 -2 24 24 26 77 4 109 -15 20 -23 23 -65 19 -44 -5 -47 -3 -38 13 5 10 25 21 47 24 20 3 43 10 51 14 20 10 26 31 9 29 -7 -1 -32 -3 -56 -5z m13 -103 c35 -39 13 -120 -28 -104 -9 3 -21 21 -27 40 -10 29 -9 39 4 59 20 30 28 31 51 5z"/>
<path d="M6850 4293 l0 -27 20 22 c12 12 30 22 40 22 18 0 20 -7 20 -87 0 -66 -4 -91 -17 -105 -15 -17 -14 -18 31 -18 43 0 46 1 32 16 -12 12 -16 37 -16 105 0 82 2 89 20 89 10 0 28 -10 40 -22 l20 -22 0 27 0 27 -95 0 -95 0 0 -27z"/>
<path d="M8168 4313 c-22 -6 -23 -19 -3 -27 22 -8 21 -143 -2 -168 -15 -17 -14 -18 33 -18 38 1 45 3 32 11 -15 8 -18 25 -18 109 0 103 0 104 -42 93z"/>
<path d="M7073 4244 c-18 -8 -16 -44 1 -44 7 0 16 10 20 22 5 22 6 22 23 4 10 -10 14 -20 8 -22 -5 -2 -25 -13 -43 -24 -27 -16 -33 -26 -30 -48 3 -26 5 -27 67 -27 43 0 66 4 69 13 2 6 -3 12 -12 12 -11 0 -16 14 -18 58 l-3 57 -35 2 c-19 1 -41 0 -47 -3z m57 -84 c0 -22 -22 -36 -40 -25 -8 5 -6 13 6 26 22 25 34 24 34 -1z"/>
<path d="M7390 4240 c0 -5 5 -10 10 -10 11 0 13 -42 4 -77 -4 -14 -14 -23 -25 -23 -11 0 -19 -7 -19 -16 0 -11 8 -14 28 -12 26 3 27 5 30 71 3 64 4 67 27 67 23 0 25 -4 25 -51 0 -28 -5 -59 -10 -70 -10 -17 -7 -19 27 -19 29 0 34 3 25 12 -7 7 -12 35 -12 63 0 28 5 56 12 63 9 9 -3 12 -55 12 -38 0 -67 -4 -67 -10z"/>
<path d="M7530 4240 c0 -5 5 -10 10 -10 13 0 13 -86 0 -111 -10 -17 -7 -19 26 -19 28 0 34 3 26 13 -8 9 -2 21 19 45 l29 32 0 -25 c0 -15 -5 -35 -10 -46 -10 -17 -7 -19 27 -19 29 0 34 3 25 12 -7 7 -12 35 -12 63 0 28 5 56 12 63 9 9 4 12 -26 12 -31 0 -37 -3 -32 -16 4 -9 -4 -28 -19 -46 l-25 -30 0 34 c0 19 5 39 12 46 9 9 4 12 -25 12 -20 0 -37 -4 -37 -10z"/>
<path d="M7710 4240 c0 -5 5 -10 10 -10 13 0 13 -86 0 -111 -10 -18 -7 -19 43 -19 40 0 61 -6 81 -21 l26 -20 0 25 c0 14 -4 28 -10 31 -14 9 -12 109 2 123 9 9 4 12 -25 12 -20 0 -37 -4 -37 -10 0 -5 5 -10 10 -10 7 0 10 -22 8 -57 -3 -54 -5 -58 -28 -58 -23 0 -25 4 -28 53 -2 31 2 60 9 68 9 12 5 14 -25 14 -20 0 -36 -4 -36 -10z"/>
<path d="M7913 4244 c-18 -8 -16 -44 1 -44 7 0 16 10 20 22 5 22 6 22 23 4 10 -10 14 -20 8 -22 -5 -2 -25 -13 -43 -24 -27 -16 -33 -26 -30 -48 3 -26 5 -27 67 -27 43 0 66 4 69 13 2 6 -3 12 -12 12 -11 0 -16 14 -18 58 l-3 57 -35 2 c-19 1 -41 0 -47 -3z m57 -84 c0 -22 -22 -36 -40 -25 -8 5 -6 13 6 26 22 25 34 24 34 -1z"/>
<path d="M0 1820 l0 -1820 6975 0 6975 0 0 1820 0 1820 -6975 0 -6975 0 0 -1820z m990 1400 l0 -400 -485 0 -485 0 0 400 0 400 485 0 485 0 0 -400z m980 0 l0 -400 -480 0 -480 0 0 400 0 400 480 0 480 0 0 -400z m990 0 l0 -400 -480 0 -480 0 0 400 0 400 480 0 480 0 0 -400z m980 0 l0 -400 -480 0 -480 0 0 400 0 400 480 0 480 0 0 -400z m990 0 l0 -400 -480 0 -480 0 0 400 0 400 480 0 480 0 0 -400z m980 0 l0 -400 -480 0 -480 0 0 400 0 400 480 0 480 0 0 -400z m1180 0 l0 -400 -575 0 -575 0 0 400 0 400 575 0 575 0 0 -400z m1140 0 l0 -400 -555 0 -555 0 0 400 0 400 555 0 555 0 0 -400z m1140 0 l0 -400 -560 0 -560 0 0 400 0 400 560 0 560 0 0 -400z m1140 0 l0 -400 -560 0 -560 0 0 400 0 400 560 0 560 0 0 -400z m1140 0 l0 -400 -560 0 -560 0 0 400 0 400 560 0 560 0 0 -400z m1130 0 l0 -400 -555 0 -555 0 0 400 0 400 555 0 555 0 0 -400z m1140 0 l0 -400 -555 0 -555 0 0 400 0 400 555 0 555 0 0 -400z m-12930 -610 l0 -190 -485 0 -485 0 0 190 0 190 485 0 485 0 0 -190z m980 0 l0 -190 -480 0 -480 0 0 190 0 190 480 0 480 0 0 -190z m990 0 l0 -190 -480 0 -480 0 0 190 0 190 480 0 480 0 0 -190z m980 0 l0 -190 -480 0 -480 0 0 190 0 190 480 0 480 0 0 -190z m990 0 l0 -190 -480 0 -480 0 0 190 0 190 480 0 480 0 0 -190z m980 0 l0 -190 -480 0 -480 0 0 190 0 190 480 0 480 0 0 -190z m1180 0 l0 -190 -575 0 -575 0 0 190 0 190 575 0 575 0 0 -190z m1140 0 l0 -190 -555 0 -555 0 0 190 0 190 555 0 555 0 0 -190z m1140 0 l0 -190 -560 0 -560 0 0 190 0 190 560 0 560 0 0 -190z m1140 0 l0 -190 -560 0 -560 0 0 190 0 190 560 0 560 0 0 -190z m1140 0 l0 -190 -560 0 -560 0 0 190 0 190 560 0 560 0 0 -190z m1130 0 l0 -190 -555 0 -555 0 0 190 0 190 555 0 555 0 0 -190z m1140 0 l0 -190 -555 0 -555 0 0 190 0 190 555 0 555 0 0 -190z m-12930 -400 l0 -190 -485 0 -485 0 0 190 0 190 485 0 485 0 0 -190z m980 0 l0 -190 -480 0 -480 0 0 190 0 190 480 0 480 0 0 -190z m990 0 l0 -190 -480 0 -480 0 0 190 0 190 480 0 480 0 0 -190z m980 0 l0 -190 -480 0 -480 0 0 190 0 190 480 0 480 0 0 -190z m990 0 l0 -190 -480 0 -480 0 0 190 0 190 480 0 480 0 0 -190z m980 0 l0 -190 -480 0 -480 0 0 190 0 190 480 0 480 0 0 -190z m1180 0 l0 -190 -575 0 -575 0 0 190 0 190 575 0 575 0 0 -190z m1140 0 l0 -190 -555 0 -555 0 0 190 0 190 555 0 555 0 0 -190z m1140 0 l0 -190 -560 0 -560 0 0 190 0 190 560 0 560 0 0 -190z m1140 0 l0 -190 -560 0 -560 0 0 190 0 190 560 0 560 0 0 -190z m1140 0 l0 -190 -560 0 -560 0 0 190 0 190 560 0 560 0 0 -190z m1130 0 l0 -190 -555 0 -555 0 0 190 0 190 555 0 555 0 0 -190z m1140 0 l0 -190 -555 0 -555 0 0 190 0 190 555 0 555 0 0 -190z m-12930 -400 l0 -190 -485 0 -485 0 0 190 0 190 485 0 485 0 0 -190z m980 0 l0 -190 -480 0 -480 0 0 190 0 190 480 0 480 0 0 -190z m990 0 l0 -190 -480 0 -480 0 0 190 0 190 480 0 480 0 0 -190z m980 0 l0 -190 -480 0 -480 0 0 190 0 190 480 0 480 0 0 -190z m990 0 l0 -190 -480 0 -480 0 0 190 0 190 480 0 480 0 0 -190z m980 0 l0 -190 -480 0 -480 0 0 190 0 190 480 0 480 0 0 -190z m1180 0 l0 -190 -575 0 -575 0 0 190 0 190 575 0 575 0 0 -190z m1140 0 l0 -190 -555 0 -555 0 0 190 0 190 555 0 555 0 0 -190z m1140 0 l0 -190 -560 0 -560 0 0 190 0 190 560 0 560 0 0 -190z m1140 0 l0 -190 -560 0 -560 0 0 190 0 190 560 0 560 0 0 -190z m1140 0 l0 -190 -560 0 -560 0 0 190 0 190 560 0 560 0 0 -190z m1130 0 l0 -190 -555 0 -555 0 0 190 0 190 555 0 555 0 0 -190z m1140 0 l0 -190 -555 0 -555 0 0 190 0 190 555 0 555 0 0 -190z m-12930 -400 l0 -190 -485 0 -485 0 0 190 0 190 485 0 485 0 0 -190z m980 0 l0 -190 -480 0 -480 0 0 190 0 190 480 0 480 0 0 -190z m990 0 l0 -190 -480 0 -480 0 0 190 0 190 480 0 480 0 0 -190z m980 0 l0 -190 -480 0 -480 0 0 190 0 190 480 0 480 0 0 -190z m990 0 l0 -190 -480 0 -480 0 0 190 0 190 480 0 480 0 0 -190z m980 0 l0 -190 -480 0 -480 0 0 190 0 190 480 0 480 0 0 -190z m1180 0 l0 -190 -575 0 -575 0 0 190 0 190 575 0 575 0 0 -190z m1140 0 l0 -190 -555 0 -555 0 0 190 0 190 555 0 555 0 0 -190z m1140 0 l0 -190 -560 0 -560 0 0 190 0 190 560 0 560 0 0 -190z m1140 0 l0 -190 -560 0 -560 0 0 190 0 190 560 0 560 0 0 -190z m1140 0 l0 -190 -560 0 -560 0 0 190 0 190 560 0 560 0 0 -190z m1130 0 l0 -190 -555 0 -555 0 0 190 0 190 555 0 555 0 0 -190z m1140 0 l0 -190 -555 0 -555 0 0 190 0 190 555 0 555 0 0 -190z m-12930 -400 l0 -190 -485 0 -485 0 0 190 0 190 485 0 485 0 0 -190z m980 0 l0 -190 -480 0 -480 0 0 190 0 190 480 0 480 0 0 -190z m990 0 l0 -190 -480 0 -480 0 0 190 0 190 480 0 480 0 0 -190z m980 0 l0 -190 -480 0 -480 0 0 190 0 190 480 0 480 0 0 -190z m990 0 l0 -190 -480 0 -480 0 0 190 0 190 480 0 480 0 0 -190z m980 0 l0 -190 -480 0 -480 0 0 190 0 190 480 0 480 0 0 -190z m1180 0 l0 -190 -575 0 -575 0 0 190 0 190 575 0 575 0 0 -190z m1140 0 l0 -190 -555 0 -555 0 0 190 0 190 555 0 555 0 0 -190z m1140 0 l0 -190 -560 0 -560 0 0 190 0 190 560 0 560 0 0 -190z m1140 0 l0 -190 -560 0 -560 0 0 190 0 190 560 0 560 0 0 -190z m1140 0 l0 -190 -560 0 -560 0 0 190 0 190 560 0 560 0 0 -190z m1130 0 l0 -190 -555 0 -555 0 0 190 0 190 555 0 555 0 0 -190z m1140 0 l0 -190 -555 0 -555 0 0 190 0 190 555 0 555 0 0 -190z m-12930 -400 l0 -190 -485 0 -485 0 0 190 0 190 485 0 485 0 0 -190z m980 0 l0 -190 -480 0 -480 0 0 190 0 190 480 0 480 0 0 -190z m990 0 l0 -190 -480 0 -480 0 0 190 0 190 480 0 480 0 0 -190z m980 0 l0 -190 -480 0 -480 0 0 190 0 190 480 0 480 0 0 -190z m990 0 l0 -190 -480 0 -480 0 0 190 0 190 480 0 480 0 0 -190z m980 0 l0 -190 -480 0 -480 0 0 190 0 190 480 0 480 0 0 -190z m1180 0 l0 -190 -575 0 -575 0 0 190 0 190 575 0 575 0 0 -190z m1140 0 l0 -190 -555 0 -555 0 0 190 0 190 555 0 555 0 0 -190z m1140 0 l0 -190 -560 0 -560 0 0 190 0 190 560 0 560 0 0 -190z m1140 0 l0 -190 -560 0 -560 0 0 190 0 190 560 0 560 0 0 -190z m1140 0 l0 -190 -560 0 -560 0 0 190 0 190 560 0 560 0 0 -190z m1130 0 l0 -190 -555 0 -555 0 0 190 0 190 555 0 555 0 0 -190z m1140 0 l0 -190 -555 0 -555 0 0 190 0 190 555 0 555 0 0 -190z m-12930 -400 l0 -190 -485 0 -485 0 0 190 0 190 485 0 485 0 0 -190z m980 0 l0 -190 -480 0 -480 0 0 190 0 190 480 0 480 0 0 -190z m990 0 l0 -190 -480 0 -480 0 0 190 0 190 480 0 480 0 0 -190z m980 0 l0 -190 -480 0 -480 0 0 190 0 190 480 0 480 0 0 -190z m990 0 l0 -190 -480 0 -480 0 0 190 0 190 480 0 480 0 0 -190z m980 0 l0 -190 -480 0 -480 0 0 190 0 190 480 0 480 0 0 -190z m1180 0 l0 -190 -575 0 -575 0 0 190 0 190 575 0 575 0 0 -190z m1140 0 l0 -190 -555 0 -555 0 0 190 0 190 555 0 555 0 0 -190z m1140 0 l0 -190 -560 0 -560 0 0 190 0 190 560 0 560 0 0 -190z m1140 0 l0 -190 -560 0 -560 0 0 190 0 190 560 0 560 0 0 -190z m1140 0 l0 -190 -560 0 -560 0 0 190 0 190 560 0 560 0 0 -190z m1130 0 l0 -190 -555 0 -555 0 0 190 0 190 555 0 555 0 0 -190z m1140 0 l0 -190 -555 0 -555 0 0 190 0 190 555 0 555 0 0 -190z"/>
<path d="M370 3532 c0 -6 7 -12 15 -16 11 -4 15 -21 15 -65 0 -72 -6 -91 -31 -91 -13 0 -19 -7 -19 -21 0 -17 5 -20 33 -17 l32 3 5 77 5 77 44 -80 c25 -43 48 -79 53 -79 4 0 8 41 8 90 0 89 0 90 25 90 19 0 25 5 25 21 0 17 -5 20 -32 17 -33 -3 -33 -3 -38 -67 l-5 -64 -35 64 c-31 56 -39 64 -68 67 -17 2 -32 -1 -32 -6z"/>
<path d="M567 3463 c-13 -12 -7 -70 7 -82 8 -7 27 -11 43 -9 24 2 28 8 31 36 2 18 -2 40 -9 48 -12 14 -60 19 -72 7z m52 -35 c10 -26 6 -38 -13 -38 -14 0 -29 38 -20 52 9 15 25 8 33 -14z"/>
<path d="M560 3330 c0 -5 20 -10 45 -10 25 0 45 5 45 10 0 6 -20 10 -45 10 -25 0 -45 -4 -45 -10z"/>
<path d="M210 3080 c0 -5 5 -10 10 -10 13 0 13 -86 0 -111 -10 -17 -7 -19 26 -19 28 0 34 3 26 13 -8 9 -2 21 19 45 l29 32 0 -25 c0 -15 -5 -35 -10 -46 -10 -17 -7 -19 27 -19 29 0 34 3 25 12 -16 16 -16 110 0 126 9 9 4 12 -26 12 -31 0 -37 -3 -32 -16 4 -9 -4 -28 -19 -46 l-25 -30 0 34 c0 19 5 39 12 46 9 9 4 12 -25 12 -20 0 -37 -4 -37 -10z"/>
<path d="M390 3066 c0 -31 11 -33 28 -5 11 17 16 18 28 8 13 -10 13 -15 0 -34 -13 -20 -12 -24 7 -40 19 -17 20 -18 3 -31 -13 -9 -25 -10 -43 -3 -29 11 -45 3 -23 -11 17 -11 71 -13 94 -4 20 8 21 53 1 60 -12 5 -13 10 -4 20 6 7 9 23 7 36 -3 20 -10 23 -50 26 -46 3 -48 2 -48 -22z"/>
<path d="M530 3080 c0 -5 5 -10 10 -10 13 0 13 -86 0 -111 -9 -17 -7 -19 16 -19 22 0 24 3 15 14 -7 8 -11 32 -9 53 l3 38 19 -52 c11 -29 25 -53 31 -53 6 0 20 24 31 53 18 50 19 51 22 20 2 -18 -2 -41 -8 -53 -10 -18 -8 -20 27 -20 29 0 34 3 25 12 -7 7 -12 35 -12 63 0 28 5 56 12 63 9 9 5 12 -19 12 -27 0 -32 -5 -50 -50 l-19 -51 -18 51 c-16 44 -21 50 -47 50 -16 0 -29 -4 -29 -10z"/>
<path d="M750 2955 c0 -8 7 -15 15 -15 8 0 15 7 15 15 0 8 -7 15 -15 15 -8 0 -15 -7 -15 -15z"/>
<path d="M1385 3465 c-16 -7 -24 -14 -17 -14 8 -1 12 -20 12 -60 0 -38 -4 -61 -12 -64 -7 -3 7 -5 32 -5 25 0 39 2 33 5 -8 3 -13 25 -13 58 0 51 9 65 41 65 14 0 11 -117 -3 -123 -7 -3 7 -6 32 -6 27 0 40 3 32 8 -9 5 -12 25 -10 62 3 47 6 54 26 57 21 3 22 0 22 -56 0 -39 -4 -62 -12 -65 -7 -3 7 -5 32 -5 25 0 39 2 33 5 -8 3 -13 25 -13 58 0 71 -25 105 -64 87 -19 -8 -32 -9 -50 -1 -17 8 -29 8 -44 0 -11 -6 -22 -7 -24 -2 -2 5 -16 3 -33 -4z"/>
<path d="M2363 3529 c14 -8 17 -24 17 -90 0 -72 3 -82 25 -104 15 -16 36 -25 54 -25 76 0 101 35 101 146 0 49 4 65 18 73 13 8 6 10 -33 10 -39 0 -46 -2 -32 -10 14 -8 17 -24 17 -89 0 -70 -2 -81 -22 -94 -30 -21 -44 -20 -68 4 -28 28 -30 163 -2 179 13 8 4 10 -38 10 -42 0 -51 -2 -37 -10z"/>
<path d="M3413 3533 c15 -4 17 -18 17 -103 0 -85 -2 -99 -17 -103 -10 -3 9 -5 42 -5 33 0 52 2 43 5 -16 4 -18 18 -18 103 0 85 2 99 18 103 9 3 -10 5 -43 5 -33 0 -52 -2 -42 -5z"/>
<path d="M4378 3543 c-19 -5 -25 -23 -8 -23 15 0 13 -187 -2 -193 -7 -3 7 -6 32 -6 27 0 40 3 32 8 -9 5 -12 25 -10 62 3 46 6 54 23 54 17 0 20 -8 23 -54 2 -37 -1 -57 -10 -62 -8 -6 4 -9 32 -9 25 0 40 4 34 8 -6 4 -13 34 -16 66 -5 66 -25 90 -65 80 -21 -6 -23 -3 -23 35 0 41 -4 44 -42 34z"/>
<path d="M5132 3523 c8 -10 30 -60 48 -111 18 -51 36 -95 40 -97 4 -3 18 26 32 63 l25 67 24 -68 c13 -37 26 -67 29 -67 3 0 20 44 39 98 19 53 41 105 49 115 14 16 12 17 -24 17 -27 0 -35 -3 -25 -9 13 -8 12 -17 -4 -65 -11 -31 -22 -56 -26 -56 -5 0 -49 103 -49 115 0 2 8 6 18 8 9 3 -7 5 -35 6 l-53 1 20 -20 c23 -23 24 -40 6 -89 l-12 -34 -22 53 c-25 60 -27 76 -9 83 6 3 -10 6 -37 6 -46 1 -48 0 -34 -16z"/>
<path d="M5441 3386 c-13 -15 -7 -36 10 -36 5 0 9 7 9 15 0 8 7 15 15 15 25 0 17 -19 -16 -35 -19 -10 -29 -22 -27 -33 3 -15 18 -17 105 -19 l102 -1 -20 27 c-26 36 -17 56 26 58 33 2 35 0 35 -31 0 -17 -5 -37 -12 -44 -9 -9 -4 -12 23 -11 18 0 28 3 22 6 -8 2 -13 22 -13 45 0 36 2 39 21 33 15 -5 20 -3 17 6 -3 9 -25 15 -65 17 -54 3 -63 0 -77 -19 -8 -13 -19 -19 -23 -15 -5 5 -2 11 5 13 23 9 12 23 -18 23 -16 0 -30 -4 -30 -10 0 -5 5 -10 10 -10 6 0 10 -18 10 -40 0 -22 -4 -40 -10 -40 -5 0 -10 5 -10 11 0 5 -4 8 -9 4 -6 -3 -11 14 -13 37 -3 38 -6 43 -29 46 -14 2 -31 -4 -38 -12z m46 -71 c-4 -8 -11 -15 -17 -15 -14 0 -13 27 3 33 16 6 21 1 14 -18z m103 -8 c0 -5 -4 -5 -10 -2 -5 3 -10 14 -10 23 0 15 2 15 10 2 5 -8 10 -19 10 -23z"/>
<path d="M6082 3523 c8 -10 30 -60 48 -111 18 -51 36 -95 40 -97 4 -3 18 26 32 63 l25 67 24 -68 c13 -37 26 -67 29 -67 3 0 20 44 39 98 19 53 41 105 49 115 14 16 12 17 -24 17 -27 0 -35 -3 -25 -9 13 -8 12 -17 -4 -65 -11 -31 -22 -56 -26 -56 -5 0 -49 103 -49 115 0 2 8 6 18 8 9 3 -7 5 -35 6 l-53 1 20 -20 c23 -23 24 -40 6 -89 l-12 -34 -22 53 c-25 60 -27 76 -9 83 6 3 -10 6 -37 6 -46 1 -48 0 -34 -16z"/>
<path d="M6399 3392 c0 -4 -1 -40 -2 -79 -2 -68 -1 -73 19 -73 17 0 20 5 16 25 -4 21 -1 25 21 25 17 0 31 8 38 22 l12 22 8 -22 c6 -16 17 -22 39 -22 30 0 51 23 35 38 -4 4 -10 1 -12 -5 -7 -18 -30 -16 -37 3 -9 23 -8 24 24 24 31 0 39 17 18 38 -18 18 -45 14 -61 -9 -14 -19 -16 -20 -25 -3 -10 17 -91 32 -93 16z m158 -18 c-3 -3 -12 -4 -19 -1 -8 3 -5 6 6 6 11 1 17 -2 13 -5z m-92 -39 c0 -43 -29 -40 -33 3 -3 28 0 33 15 30 13 -2 18 -12 18 -33z"/>
<path d="M6611 3386 c-13 -15 -7 -36 10 -36 5 0 9 7 9 15 0 8 7 15 15 15 25 0 17 -19 -16 -35 -19 -10 -29 -22 -27 -33 3 -14 18 -17 100 -19 l98 -2 -21 28 c-26 36 -17 56 26 58 33 2 35 0 35 -31 0 -17 -5 -37 -12 -44 -9 -9 -4 -12 23 -11 18 0 28 3 22 6 -8 2 -13 22 -13 45 0 36 2 39 21 33 15 -5 20 -3 17 6 -3 9 -25 15 -65 17 -54 3 -63 0 -77 -19 -8 -13 -19 -19 -23 -15 -5 5 -2 11 5 13 23 9 12 23 -18 23 -16 0 -30 -4 -30 -10 0 -5 5 -10 10 -10 6 0 10 -19 10 -42 0 -32 -3 -39 -10 -28 -5 8 -10 11 -11 5 -1 -5 -5 10 -8 35 -5 39 -9 45 -32 48 -14 2 -31 -4 -38 -12z m46 -71 c-4 -8 -11 -15 -17 -15 -14 0 -13 27 3 33 16 6 21 1 14 -18z m93 -8 c0 -5 -4 -5 -10 -2 -5 3 -10 14 -10 23 0 15 2 15 10 2 5 -8 10 -19 10 -23z"/>
<path d="M7740 3540 c-11 -11 -20 -29 -20 -40 0 -23 33 -60 55 -60 23 0 55 37 55 63 0 27 -28 57 -53 57 -9 0 -26 -9 -37 -20z m56 -25 c7 -29 0 -55 -16 -55 -15 0 -34 46 -27 64 10 25 36 19 43 -9z"/>
<path d="M7510 3510 c0 -34 15 -40 25 -10 4 13 15 20 31 20 24 0 24 -1 24 -90 0 -74 -3 -91 -17 -99 -14 -8 -5 -10 37 -10 42 0 51 2 38 10 -15 8 -18 25 -18 99 l0 90 26 0 c17 0 28 -6 31 -20 8 -30 23 -24 23 10 l0 30 -100 0 -100 0 0 -30z"/>
<path d="M8630 3487 c-16 -21 -20 -32 -12 -35 8 -2 12 -25 12 -62 0 -38 5 -62 15 -70 17 -14 51 -5 59 16 5 12 2 15 -11 10 -22 -9 -33 10 -33 62 0 35 3 42 20 42 11 0 20 5 20 10 0 6 -9 10 -19 10 -13 0 -21 8 -23 23 -3 23 -3 23 -28 -6z"/>
<path d="M8925 3470 c-33 -13 -48 -38 -48 -82 0 -72 61 -101 110 -52 30 30 25 42 -9 20 -22 -14 -26 -14 -46 0 -37 25 -26 104 14 104 7 0 16 -9 19 -20 7 -22 30 -27 41 -8 8 12 -30 48 -50 47 -6 0 -20 -4 -31 -9z"/>
<path d="M8717 3348 c-2 -7 3 -21 11 -31 14 -16 14 -19 2 -27 -8 -5 -11 -12 -7 -16 10 -10 47 26 47 46 0 32 -43 55 -53 28z"/>
<path d="M9763 3529 c14 -8 17 -25 17 -99 0 -74 -3 -91 -17 -99 -14 -8 -5 -10 37 -10 42 0 51 2 38 10 -12 6 -18 22 -18 44 0 31 3 35 26 35 28 0 65 16 76 34 4 6 8 23 8 38 0 42 -33 58 -115 58 -52 -1 -66 -3 -52 -11z m115 -21 c26 -26 11 -63 -31 -73 -26 -7 -27 -6 -27 39 0 41 2 46 23 46 13 0 28 -5 35 -12z"/>
<path d="M9960 3380 c-23 -23 -24 -29 -10 -64 7 -20 16 -26 40 -26 18 0 33 6 37 15 7 21 -6 33 -17 16 -12 -21 -40 -5 -40 23 0 26 21 48 28 28 5 -17 32 -15 32 2 0 13 -20 26 -41 26 -5 0 -18 -9 -29 -20z"/>
<path d="M10049 3392 c0 -4 -1 -40 -2 -79 -2 -68 -1 -73 19 -73 17 0 20 5 16 25 -4 21 -1 25 21 25 42 0 63 62 32 93 -14 15 -84 21 -86 9z m66 -57 c0 -43 -29 -40 -33 3 -3 28 0 33 15 30 13 -2 18 -12 18 -33z"/>
<path d="M10934 3541 c-40 -17 -64 -60 -64 -114 0 -47 3 -53 48 -95 55 -52 97 -72 149 -71 l38 1 -32 11 c-18 7 -40 20 -50 30 -15 15 -16 17 -1 17 9 0 28 14 43 32 24 28 27 39 23 86 -4 40 -11 60 -30 78 -27 28 -89 40 -124 25z m78 -31 c72 -56 22 -208 -56 -172 -50 22 -56 142 -9 178 25 18 36 17 65 -6z"/>
<path d="M11120 3380 c-23 -23 -24 -29 -10 -64 7 -20 16 -26 40 -26 18 0 33 6 37 15 7 21 -6 33 -17 16 -12 -21 -40 -5 -40 23 0 26 21 48 28 28 5 -17 32 -15 32 2 0 13 -20 26 -41 26 -5 0 -18 -9 -29 -20z"/>
<path d="M11209 3392 c0 -4 -1 -40 -2 -79 -2 -68 -1 -73 19 -73 17 0 20 5 16 25 -4 21 -1 25 21 25 42 0 63 62 32 93 -14 15 -84 21 -86 9z m66 -57 c0 -43 -29 -40 -33 3 -3 28 0 33 15 30 13 -2 18 -12 18 -33z"/>
<path d="M12133 3529 c14 -8 17 -25 17 -99 0 -74 -3 -91 -17 -99 -14 -8 -5 -10 36 -11 47 0 52 2 37 13 -13 9 -17 23 -14 52 l3 40 40 -52 c33 -43 46 -52 72 -52 l32 -1 -39 43 c-45 48 -48 57 -20 75 27 17 28 77 1 92 -27 14 -173 13 -148 -1z m121 -31 c15 -25 -3 -52 -38 -56 -24 -3 -26 -1 -26 38 0 39 2 41 26 38 15 -2 32 -11 38 -20z"/>
<path d="M13297 3494 c24 -26 43 -54 43 -63 0 -9 -20 -38 -43 -64 l-44 -47 41 0 c27 0 36 3 27 9 -11 7 -9 15 10 40 27 36 34 36 57 -2 15 -24 15 -29 2 -37 -10 -7 3 -10 45 -10 44 1 55 3 43 10 -9 6 -33 32 -53 60 l-36 50 27 35 c15 20 37 43 48 51 19 13 18 14 -24 14 -31 0 -40 -3 -31 -9 12 -8 10 -15 -11 -39 l-25 -30 -18 30 c-14 25 -15 32 -4 39 9 6 -6 9 -42 9 l-55 0 43 -46z"/>
<path d="M480 2719 c-30 -15 -32 -18 -12 -19 21 0 22 -4 22 -85 0 -69 -3 -86 -17 -94 -14 -8 -7 -10 31 -11 42 0 47 2 33 13 -13 9 -17 33 -19 114 l-3 101 -35 -19z"/>
<path d="M8771 2723 c-29 -24 -44 -91 -32 -145 17 -75 76 -100 122 -52 21 22 24 35 24 96 0 64 -2 72 -28 94 -33 28 -57 30 -86 7z m69 -29 c22 -57 6 -174 -24 -174 -27 0 -40 31 -40 100 0 69 13 100 40 100 8 0 19 -12 24 -26z"/>
<path d="M456 2319 c-14 -11 -26 -30 -26 -41 0 -20 2 -19 25 6 20 22 28 25 44 16 11 -5 23 -15 26 -20 12 -19 -15 -76 -55 -115 -22 -22 -40 -43 -40 -47 0 -4 32 -8 70 -8 39 0 70 4 70 9 0 5 3 18 6 28 6 15 4 16 -7 6 -7 -7 -30 -13 -52 -13 l-39 0 41 46 c49 56 57 112 19 138 -30 21 -50 20 -82 -5z"/>
<path d="M8686 2319 c-14 -11 -26 -30 -26 -41 0 -20 2 -19 25 6 20 22 28 25 44 16 11 -5 23 -15 26 -20 12 -19 -15 -76 -55 -115 -22 -22 -40 -43 -40 -47 0 -4 32 -8 70 -8 39 0 70 4 70 9 0 5 3 18 6 28 6 15 4 16 -7 6 -7 -7 -30 -13 -52 -13 l-39 0 41 46 c49 56 57 112 19 138 -30 21 -50 20 -82 -5z"/>
<path d="M8851 2323 c-29 -24 -44 -91 -32 -145 17 -75 76 -100 122 -52 21 22 24 35 24 96 0 64 -2 72 -28 94 -33 28 -57 30 -86 7z m69 -29 c22 -57 6 -174 -24 -174 -27 0 -40 31 -40 100 0 69 13 100 40 100 8 0 19 -12 24 -26z"/>
<path d="M453 1914 c-29 -29 -23 -47 6 -20 11 10 28 16 38 14 28 -5 28 -43 -1 -66 l-26 -20 29 -12 c37 -15 45 -43 21 -73 -16 -19 -22 -20 -39 -9 -30 18 -53 15 -49 -5 4 -21 43 -28 81 -14 53 20 71 86 33 123 -11 12 -11 17 0 33 18 25 18 31 -6 55 -27 27 -56 25 -87 -6z"/>
<path d="M8703 1866 c-66 -94 -67 -106 -8 -106 41 0 45 -2 45 -25 0 -18 5 -25 20 -25 15 0 20 7 20 25 0 16 6 25 15 25 8 0 15 7 15 15 0 8 -7 15 -15 15 -12 0 -15 15 -15 75 0 53 -4 75 -12 75 -7 0 -37 -34 -65 -74z m34 -73 c-3 -2 -17 -3 -31 -1 l-26 3 27 40 28 40 3 -39 c2 -21 1 -40 -1 -43z"/>
<path d="M8851 1923 c-29 -24 -44 -91 -32 -145 17 -75 76 -100 122 -52 21 22 24 35 24 96 0 64 -2 72 -28 94 -33 28 -57 30 -86 7z m69 -29 c22 -57 6 -174 -24 -174 -27 0 -40 31 -40 100 0 69 13 100 40 100 8 0 19 -12 24 -26z"/>
<path d="M473 1466 c-66 -94 -67 -106 -8 -106 41 0 45 -2 45 -25 0 -18 5 -25 20 -25 15 0 20 7 20 25 0 16 6 25 15 25 8 0 15 7 15 15 0 8 -7 15 -15 15 -12 0 -15 15 -15 75 0 53 -4 75 -12 75 -7 0 -37 -34 -65 -74z m34 -73 c-3 -2 -17 -3 -31 -1 l-26 3 27 40 28 40 3 -39 c2 -21 1 -40 -1 -43z"/>
<path d="M8733 1525 c-71 -30 -99 -150 -48 -200 45 -46 109 -22 125 45 7 33 8 33 9 7 1 -34 42 -77 74 -77 13 0 34 12 48 26 21 22 24 35 24 96 0 64 -2 72 -28 94 -15 13 -37 24 -48 24 -31 0 -65 -41 -73 -89 l-6 -43 -19 23 c-12 15 -29 22 -49 22 -18 0 -32 3 -32 7 0 11 55 60 67 60 7 0 15 5 18 10 9 14 -24 12 -62 -5z m187 -31 c22 -57 6 -174 -24 -174 -27 0 -40 31 -40 100 0 69 13 100 40 100 8 0 19 -12 24 -26z m-161 -78 c17 -21 9 -77 -12 -90 -15 -9 -21 -7 -33 8 -14 20 -19 77 -7 89 11 12 40 8 52 -7z"/>
<path d="M514 1133 c-35 -3 -43 -9 -57 -39 -21 -43 -21 -54 -2 -54 9 0 29 -7 45 -15 24 -13 30 -22 30 -50 0 -38 -32 -67 -53 -46 -18 18 -49 13 -45 -6 5 -24 80 -23 107 1 44 40 30 119 -25 142 -45 19 -43 34 5 34 26 0 41 5 45 16 8 20 8 24 -1 22 -5 -1 -26 -3 -49 -5z"/>
<path d="M8692 1124 c-27 -18 -29 -60 -5 -86 11 -13 14 -22 7 -26 -37 -24 -36 -91 1 -106 77 -29 140 49 84 105 -19 19 -19 22 -5 38 50 55 -19 119 -82 75z m63 -39 c0 -23 -5 -30 -19 -30 -24 0 -41 27 -33 49 4 11 15 16 29 14 18 -2 23 -9 23 -33z m0 -105 c19 -21 15 -47 -10 -56 -21 -8 -45 14 -45 41 0 40 26 47 55 15z"/>
<path d="M8851 1123 c-29 -24 -44 -91 -32 -145 17 -75 76 -100 122 -52 21 22 24 35 24 96 0 64 -2 72 -28 94 -33 28 -57 30 -86 7z m69 -29 c22 -57 6 -174 -24 -174 -27 0 -40 31 -40 100 0 69 13 100 40 100 8 0 19 -12 24 -26z"/>
<path d="M380 525 c0 -8 7 -15 15 -15 8 0 15 7 15 15 0 8 -7 15 -15 15 -8 0 -15 -7 -15 -15z"/>
<path d="M490 525 c0 -8 7 -15 15 -15 8 0 15 7 15 15 0 8 -7 15 -15 15 -8 0 -15 -7 -15 -15z"/>
<path d="M600 525 c0 -8 7 -15 15 -15 8 0 15 7 15 15 0 8 -7 15 -15 15 -8 0 -15 -7 -15 -15z"/>
<path d="M8690 525 c0 -8 7 -15 15 -15 8 0 15 7 15 15 0 8 -7 15 -15 15 -8 0 -15 -7 -15 -15z"/>
<path d="M8800 525 c0 -8 7 -15 15 -15 8 0 15 7 15 15 0 8 -7 15 -15 15 -8 0 -15 -7 -15 -15z"/>
<path d="M8910 525 c0 -8 7 -15 15 -15 8 0 15 7 15 15 0 8 -7 15 -15 15 -8 0 -15 -7 -15 -15z"/>
<path d="M400 319 c-30 -15 -32 -18 -12 -19 21 0 22 -4 22 -85 0 -69 -3 -86 -17 -94 -14 -8 -7 -10 31 -11 42 0 47 2 33 13 -13 9 -17 33 -19 114 l-3 101 -35 -19z"/>
<path d="M583 325 c-45 -19 -73 -69 -73 -128 0 -85 72 -126 125 -72 48 47 20 128 -43 128 -18 0 -32 3 -32 7 0 11 55 60 67 60 7 0 15 5 18 10 9 14 -24 12 -62 -5z m26 -109 c17 -21 9 -77 -12 -90 -15 -9 -21 -7 -33 8 -14 20 -19 77 -7 89 11 12 40 8 52 -7z"/>
<path d="M8593 314 c-29 -29 -23 -47 6 -20 11 10 28 16 38 14 28 -5 28 -43 -1 -66 l-26 -20 29 -12 c37 -15 45 -43 21 -73 -16 -19 -22 -20 -39 -9 -30 18 -53 15 -49 -5 4 -21 43 -28 81 -14 53 20 71 86 33 123 -11 12 -11 17 0 33 18 25 18 31 -6 55 -27 27 -56 25 -87 -6z"/>
<path d="M8771 323 c-29 -24 -44 -91 -32 -146 17 -74 76 -99 122 -51 21 22 24 35 24 96 0 64 -2 72 -28 94 -33 28 -57 30 -86 7z m69 -29 c22 -57 6 -174 -24 -174 -27 0 -40 31 -40 100 0 69 13 100 40 100 8 0 19 -12 24 -26z"/>
<path d="M8941 323 c-29 -24 -44 -91 -32 -146 17 -74 76 -99 122 -51 21 22 24 35 24 96 0 64 -2 72 -28 94 -33 28 -57 30 -86 7z m69 -29 c22 -57 6 -174 -24 -174 -27 0 -40 31 -40 100 0 69 13 100 40 100 8 0 19 -12 24 -26z"/>
</g>
</svg>